<?xml version="1.0" encoding="utf-8" standalone="no"?>
<!DOCTYPE svg PUBLIC "-//W3C//DTD SVG 1.1//EN"
  "http://www.w3.org/Graphics/SVG/1.1/DTD/svg11.dtd">
<svg xmlns:xlink="http://www.w3.org/1999/xlink" width="864pt" height="360pt" viewBox="0 0 864 360" xmlns="http://www.w3.org/2000/svg" version="1.1">
 <metadata>
  <rdf:RDF xmlns:dc="http://purl.org/dc/elements/1.1/" xmlns:cc="http://creativecommons.org/ns#" xmlns:rdf="http://www.w3.org/1999/02/22-rdf-syntax-ns#">
   <cc:Work>
    <dc:type rdf:resource="http://purl.org/dc/dcmitype/StillImage"/>
    <dc:date>2023-07-26T17:18:29.488345</dc:date>
    <dc:format>image/svg+xml</dc:format>
    <dc:creator>
     <cc:Agent>
      <dc:title>Matplotlib v3.7.1, https://matplotlib.org/</dc:title>
     </cc:Agent>
    </dc:creator>
   </cc:Work>
  </rdf:RDF>
 </metadata>
 <defs>
  <style type="text/css">*{stroke-linejoin: round; stroke-linecap: butt}</style>
 </defs>
 <g id="figure_1">
  <g id="patch_1">
   <path d="M 0 360 
L 864 360 
L 864 0 
L 0 0 
z
" style="fill: #ffffff"/>
  </g>
  <g id="axes_1">
   <g id="patch_2">
    <path d="M 108 320.4 
L 777.6 320.4 
L 777.6 43.2 
L 108 43.2 
z
" style="fill: #ffffff"/>
   </g>
   <g id="matplotlib.axis_1">
    <g id="xtick_1">
     <g id="line2d_1">
      <path d="M 138.436364 320.4 
L 138.436364 43.2 
" clip-path="url(#pf8c139212d)" style="fill: none; stroke: #b0b0b0; stroke-width: 0.8; stroke-linecap: square"/>
     </g>
     <g id="line2d_2">
      <defs>
       <path id="mcface60b1f" d="M 0 0 
L 0 3.5 
" style="stroke: #000000; stroke-width: 0.8"/>
      </defs>
      <g>
       <use xlink:href="#mcface60b1f" x="138.436364" y="320.4" style="stroke: #000000; stroke-width: 0.8"/>
      </g>
     </g>
     <g id="text_1">
      <!-- $\mathdefault{0}$ -->
      <g transform="translate(135.265994 336.394028) scale(0.13 -0.13)">
       <defs>
        <path id="CMR17-30" d="M 2688 2025 
C 2688 2416 2682 3080 2413 3591 
C 2176 4039 1798 4198 1466 4198 
C 1158 4198 768 4058 525 3597 
C 269 3118 243 2524 243 2025 
C 243 1661 250 1106 448 619 
C 723 -39 1216 -128 1466 -128 
C 1760 -128 2208 -7 2470 600 
C 2662 1042 2688 1559 2688 2025 
z
M 1466 -26 
C 1056 -26 813 325 723 812 
C 653 1188 653 1738 653 2096 
C 653 2588 653 2997 736 3387 
C 858 3929 1216 4096 1466 4096 
C 1728 4096 2067 3923 2189 3400 
C 2272 3036 2278 2607 2278 2096 
C 2278 1680 2278 1169 2202 792 
C 2067 95 1690 -26 1466 -26 
z
" transform="scale(0.015625)"/>
       </defs>
       <use xlink:href="#CMR17-30" transform="scale(0.996264)"/>
      </g>
     </g>
    </g>
    <g id="xtick_2">
     <g id="line2d_3">
      <path d="M 237.658413 320.4 
L 237.658413 43.2 
" clip-path="url(#pf8c139212d)" style="fill: none; stroke: #b0b0b0; stroke-width: 0.8; stroke-linecap: square"/>
     </g>
     <g id="line2d_4">
      <g>
       <use xlink:href="#mcface60b1f" x="237.658413" y="320.4" style="stroke: #000000; stroke-width: 0.8"/>
      </g>
     </g>
     <g id="text_2">
      <!-- $\mathdefault{2}$ -->
      <g transform="translate(234.488043 336.394028) scale(0.13 -0.13)">
       <defs>
        <path id="CMR17-32" d="M 2669 989 
L 2554 989 
C 2490 536 2438 459 2413 420 
C 2381 369 1920 369 1830 369 
L 602 369 
C 832 619 1280 1072 1824 1597 
C 2214 1967 2669 2402 2669 3035 
C 2669 3790 2067 4224 1395 4224 
C 691 4224 262 3604 262 3030 
C 262 2780 448 2748 525 2748 
C 589 2748 781 2787 781 3010 
C 781 3207 614 3264 525 3264 
C 486 3264 448 3258 422 3245 
C 544 3790 915 4058 1306 4058 
C 1862 4058 2227 3617 2227 3035 
C 2227 2479 1901 2000 1536 1584 
L 262 146 
L 262 0 
L 2515 0 
L 2669 989 
z
" transform="scale(0.015625)"/>
       </defs>
       <use xlink:href="#CMR17-32" transform="scale(0.996264)"/>
      </g>
     </g>
    </g>
    <g id="xtick_3">
     <g id="line2d_5">
      <path d="M 336.880462 320.4 
L 336.880462 43.2 
" clip-path="url(#pf8c139212d)" style="fill: none; stroke: #b0b0b0; stroke-width: 0.8; stroke-linecap: square"/>
     </g>
     <g id="line2d_6">
      <g>
       <use xlink:href="#mcface60b1f" x="336.880462" y="320.4" style="stroke: #000000; stroke-width: 0.8"/>
      </g>
     </g>
     <g id="text_3">
      <!-- $\mathdefault{4}$ -->
      <g transform="translate(333.710093 336.394028) scale(0.13 -0.13)">
       <defs>
        <path id="CMR17-34" d="M 2150 4122 
C 2150 4256 2144 4256 2029 4256 
L 128 1254 
L 128 1088 
L 1779 1088 
L 1779 457 
C 1779 224 1766 160 1318 160 
L 1197 160 
L 1197 0 
C 1402 0 1747 0 1965 0 
C 2182 0 2528 0 2733 0 
L 2733 160 
L 2611 160 
C 2163 160 2150 224 2150 457 
L 2150 1088 
L 2803 1088 
L 2803 1254 
L 2150 1254 
L 2150 4122 
z
M 1798 3703 
L 1798 1254 
L 256 1254 
L 1798 3703 
z
" transform="scale(0.015625)"/>
       </defs>
       <use xlink:href="#CMR17-34" transform="scale(0.996264)"/>
      </g>
     </g>
    </g>
    <g id="xtick_4">
     <g id="line2d_7">
      <path d="M 436.102512 320.4 
L 436.102512 43.2 
" clip-path="url(#pf8c139212d)" style="fill: none; stroke: #b0b0b0; stroke-width: 0.8; stroke-linecap: square"/>
     </g>
     <g id="line2d_8">
      <g>
       <use xlink:href="#mcface60b1f" x="436.102512" y="320.4" style="stroke: #000000; stroke-width: 0.8"/>
      </g>
     </g>
     <g id="text_4">
      <!-- $\mathdefault{6}$ -->
      <g transform="translate(432.932142 336.394028) scale(0.13 -0.13)">
       <defs>
        <path id="CMR17-36" d="M 678 2176 
C 678 3690 1395 4032 1811 4032 
C 1946 4032 2272 4009 2400 3776 
C 2298 3776 2106 3776 2106 3553 
C 2106 3381 2246 3323 2336 3323 
C 2394 3323 2566 3348 2566 3560 
C 2566 3954 2246 4179 1805 4179 
C 1043 4179 243 3390 243 1984 
C 243 253 966 -128 1478 -128 
C 2099 -128 2688 427 2688 1283 
C 2688 2081 2170 2662 1517 2662 
C 1126 2662 838 2407 678 1960 
L 678 2176 
z
M 1478 25 
C 691 25 691 1200 691 1436 
C 691 1896 909 2560 1504 2560 
C 1613 2560 1926 2560 2138 2120 
C 2253 1870 2253 1609 2253 1289 
C 2253 944 2253 690 2118 434 
C 1978 171 1773 25 1478 25 
z
" transform="scale(0.015625)"/>
       </defs>
       <use xlink:href="#CMR17-36" transform="scale(0.996264)"/>
      </g>
     </g>
    </g>
    <g id="xtick_5">
     <g id="line2d_9">
      <path d="M 535.324561 320.4 
L 535.324561 43.2 
" clip-path="url(#pf8c139212d)" style="fill: none; stroke: #b0b0b0; stroke-width: 0.8; stroke-linecap: square"/>
     </g>
     <g id="line2d_10">
      <g>
       <use xlink:href="#mcface60b1f" x="535.324561" y="320.4" style="stroke: #000000; stroke-width: 0.8"/>
      </g>
     </g>
     <g id="text_5">
      <!-- $\mathdefault{8}$ -->
      <g transform="translate(532.154191 336.394028) scale(0.13 -0.13)">
       <defs>
        <path id="CMR17-38" d="M 1741 2264 
C 2144 2467 2554 2773 2554 3263 
C 2554 3841 1990 4179 1472 4179 
C 890 4179 378 3759 378 3180 
C 378 3021 416 2747 666 2505 
C 730 2442 998 2251 1171 2130 
C 883 1983 211 1634 211 934 
C 211 279 838 -128 1459 -128 
C 2144 -128 2720 362 2720 1010 
C 2720 1590 2330 1857 2074 2029 
L 1741 2264 
z
M 902 2822 
C 851 2854 595 3051 595 3351 
C 595 3739 998 4032 1459 4032 
C 1965 4032 2336 3676 2336 3262 
C 2336 2669 1670 2331 1638 2331 
C 1632 2331 1626 2331 1574 2370 
L 902 2822 
z
M 2080 1519 
C 2176 1449 2483 1240 2483 851 
C 2483 381 2010 25 1472 25 
C 890 25 448 438 448 940 
C 448 1443 838 1862 1280 2060 
L 2080 1519 
z
" transform="scale(0.015625)"/>
       </defs>
       <use xlink:href="#CMR17-38" transform="scale(0.996264)"/>
      </g>
     </g>
    </g>
    <g id="xtick_6">
     <g id="line2d_11">
      <path d="M 634.54661 320.4 
L 634.54661 43.2 
" clip-path="url(#pf8c139212d)" style="fill: none; stroke: #b0b0b0; stroke-width: 0.8; stroke-linecap: square"/>
     </g>
     <g id="line2d_12">
      <g>
       <use xlink:href="#mcface60b1f" x="634.54661" y="320.4" style="stroke: #000000; stroke-width: 0.8"/>
      </g>
     </g>
     <g id="text_6">
      <!-- $\mathdefault{10}$ -->
      <g transform="translate(628.205871 336.394028) scale(0.13 -0.13)">
       <defs>
        <path id="CMR17-31" d="M 1702 4058 
C 1702 4192 1696 4192 1606 4192 
C 1357 3916 979 3827 621 3827 
C 602 3827 570 3827 563 3808 
C 557 3795 557 3782 557 3648 
C 755 3648 1088 3686 1344 3839 
L 1344 461 
C 1344 236 1331 160 781 160 
L 589 160 
L 589 0 
C 896 0 1216 0 1523 0 
C 1830 0 2150 0 2458 0 
L 2458 160 
L 2266 160 
C 1715 160 1702 230 1702 458 
L 1702 4058 
z
" transform="scale(0.015625)"/>
       </defs>
       <use xlink:href="#CMR17-31" transform="scale(0.996264)"/>
       <use xlink:href="#CMR17-30" transform="translate(45.690477 0) scale(0.996264)"/>
      </g>
     </g>
    </g>
    <g id="xtick_7">
     <g id="line2d_13">
      <path d="M 733.76866 320.4 
L 733.76866 43.2 
" clip-path="url(#pf8c139212d)" style="fill: none; stroke: #b0b0b0; stroke-width: 0.8; stroke-linecap: square"/>
     </g>
     <g id="line2d_14">
      <g>
       <use xlink:href="#mcface60b1f" x="733.76866" y="320.4" style="stroke: #000000; stroke-width: 0.8"/>
      </g>
     </g>
     <g id="text_7">
      <!-- $\mathdefault{12}$ -->
      <g transform="translate(727.42792 336.394028) scale(0.13 -0.13)">
       <use xlink:href="#CMR17-31" transform="scale(0.996264)"/>
       <use xlink:href="#CMR17-32" transform="translate(45.690477 0) scale(0.996264)"/>
      </g>
     </g>
    </g>
    <g id="text_8">
     <!-- $t$ (s) -->
     <g transform="translate(430.963961 352.625914) scale(0.13 -0.13)">
      <defs>
       <path id="CMMI12-74" d="M 1286 2566 
L 1875 2566 
C 1997 2566 2061 2566 2061 2681 
C 2061 2752 2022 2752 1894 2752 
L 1331 2752 
L 1568 3692 
C 1594 3781 1594 3794 1594 3840 
C 1594 3943 1510 4000 1427 4000 
C 1376 4000 1229 3981 1178 3775 
L 928 2752 
L 326 2752 
C 198 2752 141 2752 141 2630 
C 141 2566 186 2566 307 2566 
L 877 2566 
L 454 881 
C 403 658 384 594 384 511 
C 384 211 595 -64 954 -64 
C 1600 -64 1946 868 1946 912 
C 1946 951 1920 970 1882 970 
C 1869 970 1843 970 1830 944 
C 1824 938 1818 931 1773 829 
C 1638 511 1344 64 973 64 
C 781 64 768 224 768 364 
C 768 370 768 492 787 568 
L 1286 2566 
z
" transform="scale(0.015625)"/>
       <path id="CMR17-28" d="M 1958 -1561 
C 1958 -1555 1958 -1542 1939 -1523 
C 1645 -1224 858 -407 858 1581 
C 858 3569 1632 4379 1946 4697 
C 1946 4704 1958 4717 1958 4736 
C 1958 4755 1939 4768 1914 4768 
C 1843 4768 1299 4296 986 3594 
C 666 2887 576 2199 576 1588 
C 576 1128 621 351 1005 -471 
C 1312 -1135 1837 -1600 1914 -1600 
C 1946 -1600 1958 -1587 1958 -1561 
z
" transform="scale(0.015625)"/>
       <path id="CMR17-73" d="M 1978 2697 
C 1978 2813 1971 2819 1933 2819 
C 1907 2819 1901 2813 1824 2717 
C 1805 2691 1747 2626 1728 2601 
C 1523 2819 1235 2819 1126 2819 
C 416 2819 160 2447 160 2076 
C 160 1498 813 1365 998 1325 
C 1402 1243 1542 1217 1677 1101 
C 1760 1025 1901 884 1901 654 
C 1901 384 1747 38 1158 38 
C 602 38 403 460 288 1021 
C 269 1110 269 1117 218 1117 
C 166 1117 160 1110 160 983 
L 160 63 
C 160 -51 166 -58 205 -58 
C 237 -58 243 -51 275 0 
C 314 57 410 211 448 276 
C 576 103 800 -64 1158 -64 
C 1792 -64 2131 283 2131 784 
C 2131 1112 1958 1285 1875 1362 
C 1683 1561 1459 1606 1190 1657 
C 838 1735 390 1825 390 2217 
C 390 2383 480 2737 1126 2737 
C 1811 2737 1850 2094 1862 1888 
C 1869 1856 1901 1849 1920 1849 
C 1978 1849 1978 1869 1978 1978 
L 1978 2697 
z
" transform="scale(0.015625)"/>
       <path id="CMR17-29" d="M 1683 1581 
C 1683 2040 1638 2817 1254 3639 
C 947 4303 422 4768 346 4768 
C 326 4768 301 4761 301 4729 
C 301 4717 307 4710 314 4697 
C 621 4378 1402 3568 1402 1584 
C 1402 -407 627 -1217 314 -1537 
C 307 -1549 301 -1556 301 -1568 
C 301 -1600 326 -1600 346 -1600 
C 416 -1600 960 -1128 1274 -426 
C 1594 281 1683 969 1683 1581 
z
" transform="scale(0.015625)"/>
      </defs>
      <use xlink:href="#CMMI12-74" transform="scale(0.996264)"/>
      <use xlink:href="#CMR17-28" transform="translate(65.302297 0) scale(0.996264)"/>
      <use xlink:href="#CMR17-73" transform="translate(100.583064 0) scale(0.996264)"/>
      <use xlink:href="#CMR17-29" transform="translate(136.384402 0) scale(0.996264)"/>
     </g>
    </g>
   </g>
   <g id="matplotlib.axis_2">
    <g id="ytick_1">
     <g id="line2d_15">
      <path d="M 108 297.532902 
L 777.6 297.532902 
" clip-path="url(#pf8c139212d)" style="fill: none; stroke: #b0b0b0; stroke-width: 0.8; stroke-linecap: square"/>
     </g>
     <g id="line2d_16">
      <defs>
       <path id="me55d53ae75" d="M 0 0 
L -3.5 0 
" style="stroke: #000000; stroke-width: 0.8"/>
      </defs>
      <g>
       <use xlink:href="#me55d53ae75" x="108" y="297.532902" style="stroke: #000000; stroke-width: 0.8"/>
      </g>
     </g>
     <g id="text_9">
      <!-- $\mathdefault{−0.03}$ -->
      <g transform="translate(68.381779 302.029916) scale(0.13 -0.13)">
       <defs>
        <path id="CMSY10-0" d="M 4218 1472 
C 4326 1472 4442 1472 4442 1600 
C 4442 1728 4326 1728 4218 1728 
L 755 1728 
C 646 1728 531 1728 531 1600 
C 531 1472 646 1472 755 1472 
L 4218 1472 
z
" transform="scale(0.015625)"/>
        <path id="CMMI12-3a" d="M 1178 307 
C 1178 492 1024 619 870 619 
C 685 619 557 466 557 313 
C 557 128 710 0 864 0 
C 1050 0 1178 153 1178 307 
z
" transform="scale(0.015625)"/>
        <path id="CMR17-33" d="M 1414 2157 
C 1984 2157 2234 1662 2234 1090 
C 2234 320 1824 25 1453 25 
C 1114 25 563 194 390 693 
C 422 680 454 680 486 680 
C 640 680 755 782 755 948 
C 755 1133 614 1216 486 1216 
C 378 1216 211 1165 211 926 
C 211 335 787 -128 1466 -128 
C 2176 -128 2720 430 2720 1085 
C 2720 1707 2208 2157 1600 2227 
C 2086 2328 2554 2756 2554 3329 
C 2554 3820 2048 4179 1472 4179 
C 890 4179 378 3829 378 3329 
C 378 3110 544 3072 627 3072 
C 762 3072 877 3155 877 3321 
C 877 3486 762 3569 627 3569 
C 602 3569 570 3569 544 3557 
C 730 3959 1235 4032 1459 4032 
C 1683 4032 2106 3925 2106 3320 
C 2106 3143 2080 2828 1862 2550 
C 1670 2304 1453 2304 1242 2284 
C 1210 2284 1062 2269 1037 2269 
C 992 2263 966 2257 966 2208 
C 966 2163 973 2157 1101 2157 
L 1414 2157 
z
" transform="scale(0.015625)"/>
       </defs>
       <use xlink:href="#CMSY10-0" transform="scale(0.996264)"/>
       <use xlink:href="#CMR17-30" transform="translate(77.487468 0) scale(0.996264)"/>
       <use xlink:href="#CMMI12-3a" transform="translate(123.177945 0) scale(0.996264)"/>
       <use xlink:href="#CMR17-30" transform="translate(150.275122 0) scale(0.996264)"/>
       <use xlink:href="#CMR17-33" transform="translate(195.965599 0) scale(0.996264)"/>
      </g>
     </g>
    </g>
    <g id="ytick_2">
     <g id="line2d_17">
      <path d="M 108 265.386156 
L 777.6 265.386156 
" clip-path="url(#pf8c139212d)" style="fill: none; stroke: #b0b0b0; stroke-width: 0.8; stroke-linecap: square"/>
     </g>
     <g id="line2d_18">
      <g>
       <use xlink:href="#me55d53ae75" x="108" y="265.386156" style="stroke: #000000; stroke-width: 0.8"/>
      </g>
     </g>
     <g id="text_10">
      <!-- $\mathdefault{−0.02}$ -->
      <g transform="translate(68.381779 269.88317) scale(0.13 -0.13)">
       <use xlink:href="#CMSY10-0" transform="scale(0.996264)"/>
       <use xlink:href="#CMR17-30" transform="translate(77.487468 0) scale(0.996264)"/>
       <use xlink:href="#CMMI12-3a" transform="translate(123.177945 0) scale(0.996264)"/>
       <use xlink:href="#CMR17-30" transform="translate(150.275122 0) scale(0.996264)"/>
       <use xlink:href="#CMR17-32" transform="translate(195.965599 0) scale(0.996264)"/>
      </g>
     </g>
    </g>
    <g id="ytick_3">
     <g id="line2d_19">
      <path d="M 108 233.23941 
L 777.6 233.23941 
" clip-path="url(#pf8c139212d)" style="fill: none; stroke: #b0b0b0; stroke-width: 0.8; stroke-linecap: square"/>
     </g>
     <g id="line2d_20">
      <g>
       <use xlink:href="#me55d53ae75" x="108" y="233.23941" style="stroke: #000000; stroke-width: 0.8"/>
      </g>
     </g>
     <g id="text_11">
      <!-- $\mathdefault{−0.01}$ -->
      <g transform="translate(68.381779 237.736424) scale(0.13 -0.13)">
       <use xlink:href="#CMSY10-0" transform="scale(0.996264)"/>
       <use xlink:href="#CMR17-30" transform="translate(77.487468 0) scale(0.996264)"/>
       <use xlink:href="#CMMI12-3a" transform="translate(123.177945 0) scale(0.996264)"/>
       <use xlink:href="#CMR17-30" transform="translate(150.275122 0) scale(0.996264)"/>
       <use xlink:href="#CMR17-31" transform="translate(195.965599 0) scale(0.996264)"/>
      </g>
     </g>
    </g>
    <g id="ytick_4">
     <g id="line2d_21">
      <path d="M 108 201.092664 
L 777.6 201.092664 
" clip-path="url(#pf8c139212d)" style="fill: none; stroke: #b0b0b0; stroke-width: 0.8; stroke-linecap: square"/>
     </g>
     <g id="line2d_22">
      <g>
       <use xlink:href="#me55d53ae75" x="108" y="201.092664" style="stroke: #000000; stroke-width: 0.8"/>
      </g>
     </g>
     <g id="text_12">
      <!-- $\mathdefault{0.00}$ -->
      <g transform="translate(78.455149 205.589678) scale(0.13 -0.13)">
       <use xlink:href="#CMR17-30" transform="scale(0.996264)"/>
       <use xlink:href="#CMMI12-3a" transform="translate(45.690477 0) scale(0.996264)"/>
       <use xlink:href="#CMR17-30" transform="translate(72.787654 0) scale(0.996264)"/>
       <use xlink:href="#CMR17-30" transform="translate(118.478131 0) scale(0.996264)"/>
      </g>
     </g>
    </g>
    <g id="ytick_5">
     <g id="line2d_23">
      <path d="M 108 168.945919 
L 777.6 168.945919 
" clip-path="url(#pf8c139212d)" style="fill: none; stroke: #b0b0b0; stroke-width: 0.8; stroke-linecap: square"/>
     </g>
     <g id="line2d_24">
      <g>
       <use xlink:href="#me55d53ae75" x="108" y="168.945919" style="stroke: #000000; stroke-width: 0.8"/>
      </g>
     </g>
     <g id="text_13">
      <!-- $\mathdefault{0.01}$ -->
      <g transform="translate(78.455149 173.442933) scale(0.13 -0.13)">
       <use xlink:href="#CMR17-30" transform="scale(0.996264)"/>
       <use xlink:href="#CMMI12-3a" transform="translate(45.690477 0) scale(0.996264)"/>
       <use xlink:href="#CMR17-30" transform="translate(72.787654 0) scale(0.996264)"/>
       <use xlink:href="#CMR17-31" transform="translate(118.478131 0) scale(0.996264)"/>
      </g>
     </g>
    </g>
    <g id="ytick_6">
     <g id="line2d_25">
      <path d="M 108 136.799173 
L 777.6 136.799173 
" clip-path="url(#pf8c139212d)" style="fill: none; stroke: #b0b0b0; stroke-width: 0.8; stroke-linecap: square"/>
     </g>
     <g id="line2d_26">
      <g>
       <use xlink:href="#me55d53ae75" x="108" y="136.799173" style="stroke: #000000; stroke-width: 0.8"/>
      </g>
     </g>
     <g id="text_14">
      <!-- $\mathdefault{0.02}$ -->
      <g transform="translate(78.455149 141.296187) scale(0.13 -0.13)">
       <use xlink:href="#CMR17-30" transform="scale(0.996264)"/>
       <use xlink:href="#CMMI12-3a" transform="translate(45.690477 0) scale(0.996264)"/>
       <use xlink:href="#CMR17-30" transform="translate(72.787654 0) scale(0.996264)"/>
       <use xlink:href="#CMR17-32" transform="translate(118.478131 0) scale(0.996264)"/>
      </g>
     </g>
    </g>
    <g id="ytick_7">
     <g id="line2d_27">
      <path d="M 108 104.652427 
L 777.6 104.652427 
" clip-path="url(#pf8c139212d)" style="fill: none; stroke: #b0b0b0; stroke-width: 0.8; stroke-linecap: square"/>
     </g>
     <g id="line2d_28">
      <g>
       <use xlink:href="#me55d53ae75" x="108" y="104.652427" style="stroke: #000000; stroke-width: 0.8"/>
      </g>
     </g>
     <g id="text_15">
      <!-- $\mathdefault{0.03}$ -->
      <g transform="translate(78.455149 109.149441) scale(0.13 -0.13)">
       <use xlink:href="#CMR17-30" transform="scale(0.996264)"/>
       <use xlink:href="#CMMI12-3a" transform="translate(45.690477 0) scale(0.996264)"/>
       <use xlink:href="#CMR17-30" transform="translate(72.787654 0) scale(0.996264)"/>
       <use xlink:href="#CMR17-33" transform="translate(118.478131 0) scale(0.996264)"/>
      </g>
     </g>
    </g>
    <g id="ytick_8">
     <g id="line2d_29">
      <path d="M 108 72.505681 
L 777.6 72.505681 
" clip-path="url(#pf8c139212d)" style="fill: none; stroke: #b0b0b0; stroke-width: 0.8; stroke-linecap: square"/>
     </g>
     <g id="line2d_30">
      <g>
       <use xlink:href="#me55d53ae75" x="108" y="72.505681" style="stroke: #000000; stroke-width: 0.8"/>
      </g>
     </g>
     <g id="text_16">
      <!-- $\mathdefault{0.04}$ -->
      <g transform="translate(78.455149 77.002696) scale(0.13 -0.13)">
       <use xlink:href="#CMR17-30" transform="scale(0.996264)"/>
       <use xlink:href="#CMMI12-3a" transform="translate(45.690477 0) scale(0.996264)"/>
       <use xlink:href="#CMR17-30" transform="translate(72.787654 0) scale(0.996264)"/>
       <use xlink:href="#CMR17-34" transform="translate(118.478131 0) scale(0.996264)"/>
      </g>
     </g>
    </g>
    <g id="text_17">
     <!-- displacement (m) -->
     <g transform="translate(61.143921 229.919159) rotate(-90) scale(0.13 -0.13)">
      <defs>
       <path id="CMR17-64" d="M 1869 4326 
L 1869 4160 
C 2246 4160 2304 4122 2304 3820 
L 2304 2345 
C 2278 2377 2016 2790 1498 2790 
C 845 2790 211 2208 211 1364 
C 211 525 806 -64 1434 -64 
C 1978 -64 2259 337 2291 380 
L 2291 -63 
L 3066 -63 
L 3066 128 
C 2688 128 2630 166 2630 473 
L 2630 4396 
L 1869 4326 
z
M 2291 755 
C 2291 563 2176 390 2029 262 
C 1811 70 1594 38 1472 38 
C 1286 38 621 134 621 1356 
C 621 2612 1363 2688 1530 2688 
C 1824 2688 2061 2522 2208 2291 
C 2291 2157 2291 2138 2291 2023 
L 2291 755 
z
" transform="scale(0.015625)"/>
       <path id="CMR17-69" d="M 992 3909 
C 992 4049 877 4170 730 4170 
C 589 4170 467 4056 467 3909 
C 467 3769 582 3648 730 3648 
C 870 3648 992 3763 992 3909 
z
M 243 2706 
L 243 2541 
C 602 2541 653 2502 653 2197 
L 653 427 
C 653 184 627 153 218 153 
L 218 -13 
C 371 0 646 0 806 0 
C 960 0 1222 0 1370 -13 
L 1370 153 
C 992 153 979 191 979 420 
L 979 2776 
L 243 2706 
z
" transform="scale(0.015625)"/>
       <path id="CMR17-70" d="M 1408 -1063 
C 998 -1063 973 -1037 973 -789 
L 973 402 
C 1158 134 1427 -38 1766 -38 
C 2406 -38 3053 523 3053 1388 
C 3053 2191 2496 2802 1837 2802 
C 1453 2802 1139 2592 960 2338 
L 960 2802 
L 198 2732 
L 198 2567 
C 576 2567 634 2528 634 2223 
L 634 -789 
C 634 -1031 608 -1063 198 -1063 
L 198 -1228 
C 352 -1216 634 -1216 800 -1216 
C 966 -1216 1254 -1216 1408 -1228 
L 1408 -1063 
z
M 973 2012 
C 973 2102 973 2235 1222 2471 
C 1254 2497 1472 2688 1792 2688 
C 2259 2688 2643 2108 2643 1382 
C 2643 656 2234 64 1728 64 
C 1498 64 1248 172 1056 472 
C 973 612 973 650 973 752 
L 973 2012 
z
" transform="scale(0.015625)"/>
       <path id="CMR17-6c" d="M 979 4396 
L 218 4326 
L 218 4160 
C 595 4160 653 4122 653 3817 
L 653 426 
C 653 184 627 153 218 153 
L 218 -13 
C 371 0 653 0 813 0 
C 979 0 1261 0 1414 -13 
L 1414 153 
C 1005 153 979 178 979 426 
L 979 4396 
z
" transform="scale(0.015625)"/>
       <path id="CMR17-61" d="M 2304 1653 
C 2304 2072 2304 2294 2035 2543 
C 1798 2752 1523 2816 1306 2816 
C 800 2816 435 2407 435 1971 
C 435 1728 627 1728 666 1728 
C 749 1728 896 1778 896 1954 
C 896 2112 774 2181 666 2181 
C 640 2181 608 2174 589 2168 
C 723 2592 1069 2714 1293 2714 
C 1613 2714 1965 2429 1965 1885 
L 1965 1600 
C 1587 1600 1133 1549 774 1357 
C 371 1133 256 813 256 570 
C 256 77 832 -64 1171 -64 
C 1523 -64 1850 139 1990 511 
C 2003 233 2182 -18 2464 -18 
C 2598 -18 2938 70 2938 567 
L 2938 920 
L 2822 920 
L 2822 562 
C 2822 178 2650 128 2566 128 
C 2304 128 2304 458 2304 738 
L 2304 1653 
z
M 1965 870 
C 1965 317 1568 38 1216 38 
C 896 38 646 275 646 570 
C 646 761 730 1100 1101 1305 
C 1408 1478 1760 1504 1965 1504 
L 1965 870 
z
" transform="scale(0.015625)"/>
       <path id="CMR17-63" d="M 2234 2240 
C 2112 2240 1933 2240 1933 2017 
C 1933 1838 2080 1787 2163 1787 
C 2208 1787 2394 1807 2394 2024 
C 2394 2467 1958 2803 1466 2803 
C 787 2803 211 2178 211 1363 
C 211 516 813 -64 1466 -64 
C 2259 -64 2458 677 2458 748 
C 2458 774 2451 793 2406 793 
C 2362 793 2355 787 2330 703 
C 2163 180 1798 51 1523 51 
C 1114 51 621 427 621 1369 
C 621 2338 1094 2688 1472 2688 
C 1722 2688 2093 2573 2234 2240 
z
" transform="scale(0.015625)"/>
       <path id="CMR17-65" d="M 2438 1472 
C 2464 1498 2464 1511 2464 1576 
C 2464 2238 2118 2816 1389 2816 
C 710 2816 173 2169 173 1383 
C 173 551 781 -64 1459 -64 
C 2176 -64 2458 607 2458 740 
C 2458 784 2419 784 2406 784 
C 2362 784 2355 771 2330 696 
C 2189 265 1837 51 1504 51 
C 1229 51 954 203 781 480 
C 582 803 582 1176 582 1472 
L 2438 1472 
z
M 589 1568 
C 634 2505 1126 2714 1382 2714 
C 1818 2714 2112 2297 2118 1568 
L 589 1568 
z
" transform="scale(0.015625)"/>
       <path id="CMR17-6d" d="M 4326 1933 
C 4326 2252 4269 2790 3507 2790 
C 3072 2790 2771 2496 2656 2151 
L 2650 2151 
C 2573 2676 2195 2790 1837 2790 
C 1331 2790 1069 2400 973 2144 
L 966 2144 
L 966 2790 
L 211 2720 
L 211 2554 
C 589 2554 646 2515 646 2208 
L 646 428 
C 646 184 621 153 211 153 
L 211 -13 
C 365 0 646 0 813 0 
C 979 0 1267 0 1421 -13 
L 1421 153 
C 1011 153 986 178 986 428 
L 986 1658 
C 986 2247 1344 2688 1792 2688 
C 2266 2688 2317 2266 2317 1958 
L 2317 428 
C 2317 184 2291 153 1882 153 
L 1882 -13 
C 2035 0 2317 0 2483 0 
C 2650 0 2938 0 3091 -13 
L 3091 153 
C 2682 153 2656 178 2656 428 
L 2656 1658 
C 2656 2247 3014 2688 3462 2688 
C 3936 2688 3987 2266 3987 1958 
L 3987 428 
C 3987 184 3962 153 3552 153 
L 3552 -13 
C 3706 0 3987 0 4154 0 
C 4320 0 4608 0 4762 -13 
L 4762 153 
C 4352 153 4326 178 4326 428 
L 4326 1933 
z
" transform="scale(0.015625)"/>
       <path id="CMR17-6e" d="M 2656 1933 
C 2656 2259 2592 2790 1837 2790 
C 1331 2790 1069 2400 973 2144 
L 966 2144 
L 966 2790 
L 211 2720 
L 211 2554 
C 589 2554 646 2515 646 2208 
L 646 428 
C 646 184 621 153 211 153 
L 211 -13 
C 365 0 646 0 813 0 
C 979 0 1267 0 1421 -13 
L 1421 153 
C 1011 153 986 178 986 428 
L 986 1658 
C 986 2247 1344 2688 1792 2688 
C 2266 2688 2317 2266 2317 1958 
L 2317 428 
C 2317 184 2291 153 1882 153 
L 1882 -13 
C 2035 0 2317 0 2483 0 
C 2650 0 2938 0 3091 -13 
L 3091 153 
C 2682 153 2656 178 2656 428 
L 2656 1933 
z
" transform="scale(0.015625)"/>
       <path id="CMR17-74" d="M 966 2560 
L 1862 2560 
L 1862 2725 
L 966 2725 
L 966 3904 
L 851 3904 
C 838 3245 614 2668 70 2668 
L 70 2560 
L 627 2560 
L 627 771 
C 627 650 627 -64 1370 -64 
C 1747 -64 1965 306 1965 777 
L 1965 1140 
L 1850 1140 
L 1850 783 
C 1850 344 1677 51 1408 51 
C 1222 51 966 178 966 758 
L 966 2560 
z
" transform="scale(0.015625)"/>
      </defs>
      <use xlink:href="#CMR17-64" transform="scale(0.996264)"/>
      <use xlink:href="#CMR17-69" transform="translate(50.89537 0) scale(0.996264)"/>
      <use xlink:href="#CMR17-73" transform="translate(75.766428 0) scale(0.996264)"/>
      <use xlink:href="#CMR17-70" transform="translate(111.567766 0) scale(0.996264)"/>
      <use xlink:href="#CMR17-6c" transform="translate(162.463136 0) scale(0.996264)"/>
      <use xlink:href="#CMR17-61" transform="translate(187.334194 0) scale(0.996264)"/>
      <use xlink:href="#CMR17-63" transform="translate(233.024671 0) scale(0.996264)"/>
      <use xlink:href="#CMR17-65" transform="translate(273.510332 0) scale(0.996264)"/>
      <use xlink:href="#CMR17-6d" transform="translate(313.995992 0) scale(0.996264)"/>
      <use xlink:href="#CMR17-65" transform="translate(390.915582 0) scale(0.996264)"/>
      <use xlink:href="#CMR17-6e" transform="translate(431.401243 0) scale(0.996264)"/>
      <use xlink:href="#CMR17-74" transform="translate(479.694158 0) scale(0.996264)"/>
      <use xlink:href="#CMR17-28" transform="translate(545.050893 0) scale(0.996264)"/>
      <use xlink:href="#CMR17-6d" transform="translate(580.33166 0) scale(0.996264)"/>
      <use xlink:href="#CMR17-29" transform="translate(657.25125 0) scale(0.996264)"/>
     </g>
    </g>
   </g>
   <g id="line2d_31">
    <path d="M 138.436364 203.499843 
L 138.932474 204.086737 
L 139.428584 204.226532 
L 139.924694 204.05093 
L 141.413025 202.948756 
L 141.909135 202.800633 
L 142.405246 202.827935 
L 143.397466 203.255911 
L 144.389687 203.729463 
L 144.885797 203.664735 
L 145.381907 202.759754 
L 145.878017 200.340277 
L 146.870238 192.312776 
L 147.366348 190.453696 
L 147.862458 190.656236 
L 148.358569 192.441363 
L 149.350789 198.610971 
L 149.846899 201.717995 
L 150.34301 204.078699 
L 150.83912 205.58915 
L 151.33523 206.255279 
L 151.83134 206.141704 
L 153.319671 204.289682 
L 153.815781 203.972042 
L 154.311892 203.867235 
L 156.296333 204.091657 
L 158.280774 204.060115 
L 169.691309 204.060115 
L 170.68353 203.833724 
L 171.17964 203.867235 
L 172.17186 204.484564 
L 173.164081 205.048865 
L 174.156301 205.176359 
L 174.652412 205.085623 
L 175.148522 204.831637 
L 176.140742 204.01307 
L 176.636853 203.867235 
L 177.629073 204.419529 
L 178.125183 204.418322 
L 178.621294 203.842064 
L 179.117404 203.021586 
L 179.613514 202.434408 
L 180.109624 202.424522 
L 181.101845 203.281787 
L 182.094065 204.078485 
L 182.590176 204.226386 
L 183.086286 204.132534 
L 183.582396 203.757017 
L 185.070727 201.837397 
L 185.566837 201.664459 
L 186.062947 201.876155 
L 186.559058 202.434408 
L 188.047388 204.996963 
L 188.543499 205.504485 
L 189.535719 205.924626 
L 190.52794 206.052111 
L 191.02405 205.924626 
L 191.52016 205.603652 
L 193.504601 203.867235 
L 194.000711 203.818859 
L 195.489042 204.101717 
L 198.465703 203.940571 
L 198.961814 203.834126 
L 199.457924 203.867235 
L 200.450144 204.491474 
L 200.946255 204.831637 
L 201.938475 205.113359 
L 202.930696 205.183693 
L 203.426806 205.116469 
L 203.922916 204.831637 
L 204.915137 203.782059 
L 205.411247 203.674354 
L 205.907357 204.173591 
L 206.403467 204.831637 
L 206.899578 205.166901 
L 207.395688 205.217883 
L 208.884019 205.019159 
L 209.380129 204.831637 
L 210.86846 203.867235 
L 211.36457 203.830799 
L 212.852901 204.106004 
L 218.806224 204.015738 
L 220.294554 204.226646 
L 220.790665 204.060115 
L 221.286775 203.631928 
L 221.782885 203.381219 
L 222.278995 203.867235 
L 222.775106 205.254254 
L 223.271216 206.126692 
L 223.767326 205.147332 
L 225.255657 198.3552 
L 225.751767 196.984315 
L 226.247877 196.060168 
L 226.743988 195.508626 
L 227.240098 195.59211 
L 227.736208 196.657179 
L 229.224539 203.729463 
L 229.720649 204.899756 
L 230.216759 205.236376 
L 232.2012 205.153105 
L 233.193421 205.111247 
L 233.689531 204.831637 
L 234.681752 203.867235 
L 235.177862 203.783666 
L 236.170082 204.060115 
L 237.658413 203.867235 
L 238.154523 204.083181 
L 239.642854 205.109413 
L 240.138964 205.229138 
L 240.635074 205.153105 
L 241.627295 204.695008 
L 242.123405 204.831637 
L 242.619515 205.330638 
L 243.115626 205.162289 
L 243.611736 203.4397 
L 244.603956 198.687016 
L 245.100067 197.656436 
L 245.596177 197.515938 
L 247.084508 198.102031 
L 247.580618 199.201364 
L 248.572838 203.625419 
L 249.068949 205.033702 
L 249.565059 204.825932 
L 250.061169 203.791393 
L 250.557279 203.095713 
L 251.05339 203.513213 
L 251.5495 204.252996 
L 252.04561 204.402606 
L 253.037831 203.867235 
L 253.533941 203.955194 
L 254.526161 204.831637 
L 255.022272 205.298336 
L 255.518382 205.575978 
L 256.014492 205.511311 
L 256.510602 205.012856 
L 257.998933 202.686207 
L 258.495043 202.156852 
L 258.991154 201.837397 
L 259.487264 201.762726 
L 259.983374 202.000668 
L 260.479484 202.627289 
L 261.471705 204.418322 
L 261.967815 204.614802 
L 263.456146 203.932346 
L 265.936697 204.060115 
L 266.928918 203.829205 
L 267.425028 203.867235 
L 268.417248 204.481287 
L 269.409469 205.059008 
L 270.401689 205.153105 
L 270.8978 205.052961 
L 271.39391 204.831637 
L 272.88224 203.867235 
L 273.378351 203.837431 
L 274.866681 204.093332 
L 277.843343 203.889092 
L 278.339453 203.758381 
L 278.835563 203.867235 
L 280.323894 205.10942 
L 281.316115 205.153105 
L 282.308335 205.021387 
L 282.804445 204.831637 
L 284.292776 203.867235 
L 284.788886 203.75193 
L 285.284997 203.819065 
L 286.773327 204.637807 
L 287.269438 204.418322 
L 288.261658 202.678236 
L 288.757768 202.241528 
L 289.253879 202.744063 
L 290.742209 206.198432 
L 291.23832 205.805224 
L 291.73443 203.631651 
L 292.72665 196.271418 
L 294.214981 184.4506 
L 295.703312 171.206141 
L 297.191643 162.250976 
L 298.679973 149.061626 
L 299.176084 147.569892 
L 299.672194 147.483973 
L 300.168304 147.573691 
L 300.664414 146.932485 
L 301.160525 145.948277 
L 301.656635 145.332603 
L 302.648855 145.727988 
L 303.144966 144.965212 
L 303.641076 142.557305 
L 304.633296 136.478471 
L 305.129407 134.941458 
L 305.625517 134.617633 
L 306.121627 135.146677 
L 306.617737 136.235031 
L 307.113848 137.856189 
L 308.106068 141.599554 
L 308.602178 142.072005 
L 309.098289 140.745584 
L 310.090509 136.193743 
L 310.586619 134.943934 
L 312.07495 133.235622 
L 313.06717 131.684013 
L 314.059391 130.981815 
L 314.555501 130.269557 
L 315.051611 128.911803 
L 316.043832 125.667979 
L 316.539942 124.582123 
L 319.020493 120.891892 
L 319.516604 120.840952 
L 321.004934 121.646585 
L 321.501045 121.654971 
L 321.997155 121.442979 
L 322.493265 121.064784 
L 322.989375 120.891892 
L 323.485486 121.263394 
L 323.981596 122.071393 
L 326.958257 127.969242 
L 327.454368 128.423415 
L 327.950478 128.463351 
L 328.942698 128.065208 
L 329.934919 127.971039 
L 330.431029 127.651893 
L 330.927139 126.902612 
L 331.91936 124.960751 
L 334.399911 121.40007 
L 334.896021 121.112326 
L 335.392132 121.529414 
L 336.384352 123.509555 
L 336.880462 124.586117 
L 337.376573 126.191602 
L 337.872683 129.020426 
L 338.368793 133.846206 
L 338.864903 141.759374 
L 339.361014 153.929561 
L 341.345455 220.107985 
L 342.833785 258.34222 
L 344.322116 291.90157 
L 344.818226 300.132961 
L 345.314337 305.494887 
L 345.810447 307.8 
L 346.306557 307.012365 
L 346.802667 303.147664 
L 347.298778 296.428054 
L 347.794888 287.127306 
L 348.787108 261.958979 
L 350.275439 213.233956 
L 351.76377 164.451112 
L 352.75599 136.614615 
L 353.2521 125.352876 
L 353.748211 117.162869 
L 354.244321 112.79503 
L 354.740431 111.945911 
L 355.236541 114.094505 
L 355.732652 118.90345 
L 356.228762 126.081295 
L 357.717093 155.454236 
L 358.709313 172.800293 
L 359.701534 186.43102 
L 360.693754 199.348321 
L 363.670416 244.151699 
L 365.158746 262.980508 
L 366.150967 273.679694 
L 367.143187 281.965015 
L 367.639298 283.896198 
L 368.135408 282.838012 
L 368.631518 278.032287 
L 369.623739 261.363986 
L 370.615959 241.558039 
L 371.60818 215.684987 
L 375.080951 111.192759 
L 375.577062 108.443845 
L 376.073172 112.584874 
L 377.065392 129.545225 
L 379.049833 168.673178 
L 382.026495 232.463398 
L 383.018715 246.5764 
L 383.514826 251.284769 
L 384.010936 253.391593 
L 384.507046 252.527216 
L 385.499267 248.000124 
L 385.995377 247.592281 
L 386.491487 248.385043 
L 386.987597 249.405396 
L 387.483707 249.876412 
L 387.979818 249.805513 
L 388.475928 249.396211 
L 388.972038 248.759551 
L 389.468148 247.636703 
L 389.964259 245.676374 
L 390.460369 242.6041 
L 390.956479 238.452749 
L 391.9487 227.225546 
L 392.44481 219.612635 
L 392.94092 209.846529 
L 393.933141 183.688732 
L 395.421471 142.691336 
L 396.413692 121.497919 
L 396.909802 117.135315 
L 397.405912 120.629548 
L 397.902023 130.278791 
L 401.374794 220.454955 
L 402.367015 235.623793 
L 403.359235 245.033876 
L 403.855346 248.131716 
L 404.351456 250.351429 
L 404.847566 251.784985 
L 405.343676 252.335232 
L 405.839787 251.857734 
L 406.335897 250.293984 
L 407.328117 245.134471 
L 408.320338 238.897816 
L 409.312558 230.460782 
L 410.800889 216.059319 
L 411.79311 208.367779 
L 412.28922 204.91017 
L 412.78533 200.663664 
L 413.28144 194.4712 
L 415.265881 160.806258 
L 416.754212 141.936858 
L 417.250322 138.094993 
L 417.746433 136.874137 
L 418.242543 138.671963 
L 418.738653 143.780375 
L 419.234763 152.252467 
L 420.226984 175.440327 
L 421.715315 211.821258 
L 422.707535 231.443133 
L 423.699756 245.710963 
L 424.691976 254.916267 
L 425.188086 257.966204 
L 425.684196 259.982438 
L 426.180307 260.886377 
L 426.676417 260.555521 
L 427.172527 258.691743 
L 427.668637 254.953006 
L 428.660858 242.336867 
L 430.645299 214.209302 
L 431.637519 195.885657 
L 432.13363 191.021194 
L 433.62196 184.166098 
L 434.118071 180.935234 
L 434.614181 178.48049 
L 435.110291 177.636214 
L 436.102512 178.113099 
L 436.598622 177.807218 
L 437.590842 176.634349 
L 438.086953 176.668907 
L 438.583063 177.421971 
L 439.079173 178.994838 
L 440.071394 184.189923 
L 441.063614 189.136929 
L 442.055835 193.323102 
L 442.551945 196.271289 
L 443.048055 201.58561 
L 443.544165 211.09566 
L 445.528606 267.531462 
L 446.024717 274.231869 
L 446.520827 276.024811 
L 447.016937 274.278495 
L 448.009158 267.113327 
L 448.505268 262.8732 
L 449.001378 257.451267 
L 449.993599 242.451738 
L 451.97804 208.909681 
L 453.962481 162.228217 
L 454.458591 155.178831 
L 454.954701 151.063909 
L 455.450811 149.943303 
L 455.946922 151.362366 
L 456.443032 154.737822 
L 456.939142 159.646453 
L 457.435252 166.30526 
L 458.923583 194.480385 
L 459.419693 198.60143 
L 459.915804 199.379032 
L 460.411914 199.320766 
L 460.908024 200.393982 
L 462.396355 206.597874 
L 462.892465 209.063148 
L 463.388575 213.03365 
L 464.380796 226.251084 
L 464.876906 232.983002 
L 465.373016 238.194214 
L 466.365237 245.538602 
L 467.357457 251.204897 
L 467.853567 252.298603 
L 468.349678 251.497635 
L 468.845788 249.169244 
L 469.838008 242.13866 
L 470.830229 232.872784 
L 471.822449 220.09897 
L 472.81467 202.106979 
L 473.31078 190.237344 
L 475.295221 133.726501 
L 475.791331 129.624744 
L 476.287442 130.35222 
L 476.783552 135.061321 
L 477.279662 142.8299 
L 478.271883 163.771049 
L 479.264103 185.378263 
L 480.256324 201.307762 
L 481.248544 212.039465 
L 482.240765 219.334412 
L 485.217426 235.508817 
L 485.713536 237.15442 
L 487.201867 240.948324 
L 488.194088 243.830232 
L 488.690198 244.635993 
L 489.186308 244.498384 
L 489.682418 242.985232 
L 490.178529 239.844097 
L 491.170749 230.723545 
L 492.65908 215.37577 
L 493.15519 208.988704 
L 493.6513 200.769238 
L 494.147411 189.658373 
L 495.139631 161.43353 
L 495.635741 150.917675 
L 496.131852 144.128733 
L 496.627962 140.501406 
L 497.124072 139.579227 
L 497.620182 141.341036 
L 498.116293 145.874505 
L 498.612403 153.098985 
L 499.604623 172.436902 
L 501.589064 211.777539 
L 502.581285 227.637457 
L 503.573505 239.6923 
L 504.069615 243.040341 
L 504.565726 244.046018 
L 505.061836 243.47467 
L 505.557946 242.369851 
L 506.054056 241.57209 
L 506.550167 241.109817 
L 507.542387 240.478195 
L 508.038497 239.868677 
L 508.534608 238.714307 
L 509.030718 236.578782 
L 509.526828 232.342891 
L 510.022938 224.716695 
L 511.015159 204.427507 
L 511.511269 201.644663 
L 512.007379 203.308702 
L 512.50349 205.685822 
L 512.9996 205.814746 
L 513.49571 203.824296 
L 514.487931 196.865916 
L 514.984041 192.352164 
L 515.480151 186.627394 
L 516.968482 165.199292 
L 517.464592 160.182071 
L 517.960702 156.975135 
L 518.456813 155.399127 
L 518.952923 155.352463 
L 519.449033 157.044668 
L 519.945143 160.763041 
L 520.441254 166.687073 
L 521.433474 184.037285 
L 522.921805 215.449248 
L 523.914025 231.027457 
L 524.906246 243.373708 
L 525.402356 248.48666 
L 525.898466 252.124092 
L 526.394577 253.850005 
L 526.890687 253.983718 
L 527.386797 253.033386 
L 527.882907 251.362689 
L 528.379018 248.757427 
L 528.875128 244.858928 
L 529.371238 239.366919 
L 529.867348 232.214729 
L 531.355679 204.675496 
L 531.851789 199.471589 
L 532.3479 197.062817 
L 533.83623 193.841092 
L 534.332341 192.276037 
L 535.324561 188.482295 
L 535.820671 187.307068 
L 536.316782 187.134263 
L 536.812892 187.24832 
L 537.309002 186.673318 
L 537.805112 184.777417 
L 538.797333 180.345002 
L 539.293443 179.724546 
L 539.789553 180.226799 
L 540.285663 181.373697 
L 540.781774 182.829637 
L 541.277884 184.828828 
L 541.773994 187.747938 
L 542.270104 191.949855 
L 542.766215 197.742361 
L 543.262325 205.419463 
L 544.750656 233.723648 
L 545.246766 240.938078 
L 545.742876 246.209091 
L 546.238986 249.369864 
L 546.735097 250.814428 
L 547.231207 251.077027 
L 547.727317 250.556069 
L 548.223427 249.106617 
L 548.719538 246.447896 
L 549.711758 237.615252 
L 551.200089 222.259128 
L 551.696199 215.192074 
L 553.68064 178.676318 
L 554.17675 173.298596 
L 554.672861 169.754945 
L 555.168971 167.78309 
L 555.665081 167.1551 
L 556.161191 167.651629 
L 556.657302 169.104373 
L 557.153412 171.549179 
L 557.649522 175.072935 
L 559.137853 189.679751 
L 560.626184 203.871306 
L 561.122294 207.628885 
L 561.618404 209.791421 
L 562.114514 209.996985 
L 562.610625 209.534053 
L 563.106735 210.103703 
L 563.602845 212.982926 
L 564.595066 223.568597 
L 566.579507 247.016839 
L 567.075617 251.385941 
L 567.571727 254.245778 
L 568.067837 255.18973 
L 568.563948 254.281318 
L 569.060058 251.701592 
L 570.052278 242.936247 
L 572.036719 223.714855 
L 572.53283 217.120879 
L 573.52505 198.996795 
L 575.013381 167.81355 
L 575.509491 159.688421 
L 576.005601 154.159686 
L 576.501711 151.233116 
L 576.997822 150.714887 
L 577.493932 152.465276 
L 577.990042 156.56096 
L 578.486152 163.132715 
L 579.974483 189.777775 
L 580.470593 195.479745 
L 581.958924 208.349245 
L 582.951145 217.681151 
L 583.447255 220.243423 
L 583.943365 222.008361 
L 584.439475 224.229902 
L 585.927806 234.627078 
L 586.423916 235.767567 
L 586.920027 235.627253 
L 587.416137 235.150611 
L 587.912247 235.074298 
L 588.904468 235.536372 
L 589.400578 235.471632 
L 589.896688 234.815793 
L 590.392798 233.276915 
L 590.888909 230.656044 
L 591.881129 222.953217 
L 594.36168 199.218861 
L 595.353901 186.180286 
L 596.842232 163.126601 
L 597.338342 157.382399 
L 597.834452 154.012224 
L 598.330562 153.584704 
L 598.826673 155.481682 
L 599.322783 158.788312 
L 599.818893 162.869083 
L 600.315003 168.20583 
L 600.811114 175.559729 
L 601.803334 196.540398 
L 602.795555 218.032608 
L 603.787775 235.150611 
L 604.779996 247.639263 
L 605.276106 250.856592 
L 605.772216 251.448577 
L 606.268326 250.227328 
L 607.756657 244.571835 
L 608.252767 241.938166 
L 608.748878 238.173078 
L 609.741098 227.481316 
L 610.733319 215.105841 
L 611.229429 210.994627 
L 611.725539 209.555845 
L 612.221649 209.763309 
L 612.71776 210.122073 
L 613.21387 209.383687 
L 613.70998 207.285692 
L 614.20609 203.812126 
L 615.198311 193.250116 
L 616.686641 174.816498 
L 617.182752 170.655054 
L 617.678862 168.721085 
L 618.174972 169.072513 
L 618.671082 171.610272 
L 620.159413 184.8731 
L 620.655523 186.806869 
L 621.151634 187.783337 
L 621.647744 189.373645 
L 622.143854 192.808068 
L 622.639964 197.953423 
L 623.632185 211.537371 
L 626.112736 250.856592 
L 626.608846 255.275839 
L 627.104957 257.462249 
L 627.601067 257.515561 
L 628.097177 255.542471 
L 628.593287 251.677503 
L 629.089398 246.062135 
L 630.081618 230.879678 
L 631.073839 214.784995 
L 631.569949 208.06499 
L 632.066059 203.077343 
L 632.562169 200.147042 
L 633.55439 196.519407 
L 634.54661 190.319511 
L 635.538831 184.499141 
L 636.034941 182.8523 
L 636.531051 182.191143 
L 637.027162 182.553227 
L 637.523272 183.79924 
L 638.019382 185.745655 
L 639.507713 192.854678 
L 640.003823 194.370415 
L 640.499933 195.334144 
L 641.492154 196.563076 
L 641.988264 197.881309 
L 642.484374 200.753593 
L 642.980485 205.72487 
L 646.453256 251.34895 
L 646.949367 254.989745 
L 647.445477 255.796061 
L 647.941587 254.333873 
L 648.437697 251.508712 
L 649.429918 243.770282 
L 649.926028 238.438764 
L 650.918248 224.563942 
L 651.910469 210.177346 
L 652.902689 198.861527 
L 653.89491 191.440035 
L 654.88713 183.757057 
L 655.383241 179.720025 
L 655.879351 176.717012 
L 656.375461 175.488126 
L 656.871571 175.96433 
L 657.367682 177.874295 
L 657.863792 180.966068 
L 658.856012 190.01658 
L 659.848233 200.176278 
L 660.344343 202.765061 
L 660.840453 202.326497 
L 661.832674 197.621581 
L 662.328784 196.440575 
L 662.824894 196.598055 
L 663.321005 197.86957 
L 663.817115 200.176371 
L 664.313225 204.022519 
L 664.809335 210.057779 
L 666.297666 235.545556 
L 666.793776 240.624963 
L 667.785997 246.218276 
L 668.778217 251.399546 
L 669.274328 251.903658 
L 669.770438 249.663217 
L 670.266548 245.3575 
L 671.754879 228.344144 
L 672.250989 220.657021 
L 674.23543 182.642837 
L 675.227651 171.176231 
L 675.723761 167.275053 
L 676.219871 164.325795 
L 676.715981 162.62384 
L 677.212092 162.581628 
L 677.708202 164.560068 
L 678.204312 168.713922 
L 678.700422 175.146414 
L 680.188753 199.541201 
L 680.684863 203.556849 
L 681.180974 205.43503 
L 681.677084 206.751257 
L 682.669304 211.073917 
L 683.165415 213.208161 
L 684.157635 216.277206 
L 684.653745 218.654738 
L 686.142076 229.465229 
L 686.638186 230.581871 
L 687.134297 230.325488 
L 687.630407 229.648925 
L 688.126517 229.308763 
L 689.614848 229.24387 
L 690.110958 228.836263 
L 690.607068 227.922185 
L 691.103178 226.385203 
L 692.095399 222.099032 
L 693.087619 217.084827 
L 694.07984 210.36442 
L 694.57595 205.849254 
L 695.568171 193.534317 
L 696.560391 179.472447 
L 697.056501 173.697937 
L 697.552612 169.381288 
L 698.048722 166.806629 
L 698.544832 166.190953 
L 699.040942 167.482707 
L 699.537053 170.563206 
L 700.529273 180.93953 
L 702.513714 206.530822 
L 704.002045 229.759142 
L 704.498155 235.386271 
L 704.994265 239.377041 
L 705.490376 241.901427 
L 705.986486 243.061139 
L 706.482596 242.684831 
L 706.978706 240.532894 
L 707.474817 236.511893 
L 708.467037 224.973869 
L 709.955368 207.118648 
L 710.451478 202.551041 
L 710.947588 199.426575 
L 711.443699 198.29207 
L 711.939809 199.406644 
L 713.42814 206.392148 
L 713.92425 207.365441 
L 714.42036 207.559518 
L 714.91647 207.016651 
L 715.412581 205.503809 
L 715.908691 202.719137 
L 716.404801 198.499238 
L 718.389242 176.804486 
L 718.885352 173.465598 
L 719.381463 172.32962 
L 719.877573 173.334528 
L 720.373683 176.248588 
L 720.869793 180.819426 
L 721.862014 193.571091 
L 723.350345 215.026748 
L 724.342565 225.37377 
L 726.327006 244.601754 
L 726.823116 247.224893 
L 727.319226 248.251226 
L 727.815337 247.765106 
L 728.311447 245.850885 
L 728.807557 242.641325 
L 729.799778 233.69023 
L 731.784219 214.300149 
L 732.280329 210.532158 
L 732.776439 207.779953 
L 734.26477 202.471147 
L 735.753101 190.613591 
L 736.249211 188.612211 
L 736.745321 187.873185 
L 737.737542 187.277003 
L 738.233652 186.884211 
L 738.729762 186.682503 
L 739.225872 186.852887 
L 739.721983 187.371028 
L 740.218093 188.161253 
L 740.714203 189.209988 
L 741.210313 190.752036 
L 741.706424 193.084298 
L 742.202534 196.405279 
L 743.194754 205.134735 
L 744.683085 218.654738 
L 746.667526 231.808589 
L 747.163636 236.92763 
L 747.163636 236.92763 
" clip-path="url(#pf8c139212d)" style="fill: none; stroke: #ff0000; stroke-linecap: square"/>
   </g>
   <g id="line2d_32">
    <path d="M 138.436364 227.118517 
L 138.932474 226.324986 
L 139.428584 224.261995 
L 139.924694 221.102483 
L 140.916915 212.185655 
L 142.405246 195.951267 
L 142.901356 192.317368 
L 143.397466 190.94733 
L 143.893576 191.829834 
L 144.389687 194.760521 
L 145.381907 204.90744 
L 146.374128 214.620337 
L 146.870238 217.309167 
L 147.366348 218.075054 
L 148.358569 217.189765 
L 148.854679 217.401359 
L 149.350789 218.331284 
L 150.34301 221.368675 
L 150.83912 222.004063 
L 151.33523 220.413624 
L 151.83134 215.912382 
L 152.823561 205.424056 
L 153.319671 203.456368 
L 153.815781 204.089038 
L 154.311892 206.664002 
L 154.808002 210.570818 
L 156.296333 224.601776 
L 156.792443 225.952049 
L 157.288553 223.593097 
L 158.280774 214.461884 
L 158.776884 211.67094 
L 159.272994 211.223709 
L 159.769104 213.350525 
L 160.761325 222.407818 
L 161.257435 224.519223 
L 161.753545 222.373513 
L 162.745766 213.34134 
L 163.241876 211.107862 
L 163.737986 210.264437 
L 164.234096 209.740033 
L 164.730207 210.118006 
L 165.226317 212.395307 
L 166.218537 221.473141 
L 166.714648 223.169059 
L 167.210758 220.220626 
L 167.706868 215.174229 
L 168.202978 211.660524 
L 168.699089 212.291519 
L 169.691309 219.118569 
L 170.187419 220.913936 
L 170.68353 221.318509 
L 171.17964 221.221885 
L 171.67575 221.33249 
L 172.667971 221.929113 
L 174.652412 222.530002 
L 175.148522 222.360798 
L 175.644632 221.860609 
L 176.140742 221.719873 
L 176.636853 222.810853 
L 177.629073 228.117606 
L 178.125183 228.496234 
L 178.621294 225.036237 
L 179.117404 218.436591 
L 180.109624 201.249526 
L 180.605735 195.23813 
L 181.101845 194.300066 
L 181.597955 197.042807 
L 182.590176 204.494235 
L 183.086286 206.039134 
L 183.582396 204.937262 
L 184.078506 200.874505 
L 185.070727 191.417259 
L 185.566837 190.097232 
L 186.062947 191.534663 
L 186.559058 195.137097 
L 188.543499 215.316614 
L 189.039609 218.298956 
L 189.535719 220.450363 
L 190.031829 221.869544 
L 190.52794 221.915312 
L 191.02405 219.761504 
L 191.52016 214.84283 
L 192.512381 198.884489 
L 193.008491 189.798946 
L 193.504601 183.499975 
L 194.000711 182.697525 
L 194.496822 186.560753 
L 195.489042 201.514386 
L 196.481263 216.895851 
L 196.977373 222.072354 
L 197.473483 225.298998 
L 197.969593 226.842973 
L 198.465703 227.040185 
L 199.954034 225.551656 
L 200.450144 224.206625 
L 200.946255 220.257483 
L 202.434585 198.544652 
L 202.930696 197.006968 
L 203.426806 198.01628 
L 203.922916 198.581391 
L 204.419026 196.860659 
L 204.915137 195.610662 
L 205.411247 198.737533 
L 206.403467 215.775308 
L 206.899578 215.365063 
L 207.891798 205.515903 
L 208.387908 206.356478 
L 209.876239 219.275735 
L 210.372349 220.337247 
L 210.86846 219.568624 
L 211.36457 217.355077 
L 212.852901 208.133278 
L 213.349011 206.029254 
L 213.845121 205.047479 
L 214.341231 205.494622 
L 214.837342 207.53617 
L 215.333452 211.302318 
L 215.829562 216.36863 
L 216.325672 220.092156 
L 216.821783 220.224536 
L 217.317893 218.314279 
L 217.814003 216.859112 
L 218.310113 217.806897 
L 218.806224 220.906029 
L 220.294554 233.345918 
L 220.790665 232.877377 
L 221.286775 227.619544 
L 221.782885 220.488845 
L 222.278995 215.407916 
L 222.775106 214.866051 
L 223.271216 215.619166 
L 223.767326 214.01501 
L 226.743988 193.006024 
L 227.240098 190.448899 
L 227.736208 191.80302 
L 228.232318 198.65277 
L 229.720649 227.279857 
L 230.216759 231.572016 
L 230.71287 231.306778 
L 231.20898 226.178959 
L 232.697311 202.829041 
L 233.193421 198.935351 
L 233.689531 198.755902 
L 234.185641 202.636321 
L 236.170082 226.622538 
L 236.666192 229.250357 
L 237.162303 230.135968 
L 237.658413 229.873952 
L 238.154523 229.088116 
L 238.650633 228.519183 
L 239.146744 228.937104 
L 240.138964 231.944924 
L 240.635074 230.755691 
L 241.131185 225.717408 
L 242.123405 212.119764 
L 242.619515 207.994648 
L 243.611736 201.961264 
L 244.107846 199.860028 
L 244.603956 200.528566 
L 245.100067 205.011808 
L 246.092287 217.18058 
L 246.588397 220.316271 
L 247.084508 221.566059 
L 247.580618 222.324059 
L 248.076728 223.678848 
L 249.068949 227.338951 
L 249.565059 228.587672 
L 250.061169 227.912064 
L 250.557279 223.802809 
L 251.5495 208.592806 
L 252.04561 205.981998 
L 252.54172 206.871467 
L 253.037831 208.703024 
L 254.030051 210.801405 
L 254.526161 213.984275 
L 255.518382 226.042925 
L 256.014492 227.991071 
L 256.510602 223.321748 
L 257.502823 206.967099 
L 257.998933 202.843656 
L 258.495043 202.263166 
L 258.991154 204.055523 
L 259.983374 210.008836 
L 260.479484 211.734003 
L 260.975595 211.300833 
L 261.471705 209.015306 
L 262.463925 202.17096 
L 262.960036 199.986663 
L 263.456146 199.996977 
L 263.952256 202.024338 
L 264.448366 205.607751 
L 265.440587 214.357717 
L 265.936697 216.895851 
L 266.432807 216.829729 
L 267.425028 213.313786 
L 267.921138 212.542431 
L 268.417248 213.047419 
L 268.913359 214.792536 
L 269.409469 217.39061 
L 269.905579 219.050632 
L 270.401689 217.630634 
L 271.39391 206.71911 
L 271.89002 205.035124 
L 272.88224 206.498675 
L 273.378351 205.22269 
L 273.874461 203.433264 
L 274.370571 203.366664 
L 274.866681 206.472175 
L 275.858902 214.618025 
L 276.355012 215.42137 
L 276.851122 214.646738 
L 277.347233 214.213894 
L 277.843343 215.476191 
L 278.339453 217.521326 
L 278.835563 218.87058 
L 279.331674 218.34429 
L 279.827784 215.959003 
L 281.316115 204.514762 
L 281.812225 202.661306 
L 282.308335 202.194042 
L 282.804445 202.622696 
L 283.300556 203.681686 
L 283.796666 206.004203 
L 284.292776 210.448133 
L 285.284997 223.592709 
L 285.781107 226.392919 
L 286.277217 223.593191 
L 286.773327 218.44708 
L 287.269438 215.518134 
L 288.261658 219.284367 
L 288.757768 214.094492 
L 289.749989 181.304812 
L 290.246099 172.711224 
L 290.742209 168.976383 
L 291.23832 163.330188 
L 292.72665 128.501486 
L 293.222761 129.354197 
L 294.214981 142.921597 
L 294.711091 145.062917 
L 295.207202 143.06647 
L 296.199422 133.483876 
L 297.191643 120.253549 
L 298.183863 104.391203 
L 298.679973 99.064251 
L 299.176084 97.413958 
L 299.672194 98.582451 
L 300.664414 103.822191 
L 301.160525 105.41942 
L 301.656635 104.887405 
L 302.648855 98.511319 
L 303.144966 97.897784 
L 303.641076 102.007342 
L 305.129407 122.367328 
L 305.625517 124.746063 
L 306.121627 122.78855 
L 306.617737 116.16959 
L 307.609958 99.690727 
L 310.586619 58.281052 
L 311.082729 55.8 
L 311.57884 56.970384 
L 312.07495 62.21057 
L 313.06717 76.29517 
L 313.563281 80.513697 
L 314.059391 82.489436 
L 314.555501 83.119465 
L 315.051611 83.168399 
L 315.547722 82.871001 
L 316.539942 81.735163 
L 317.036052 81.633792 
L 317.532163 82.660226 
L 318.028273 85.197464 
L 319.516604 94.778716 
L 320.012714 96.675912 
L 320.508824 97.787566 
L 321.004934 98.073732 
L 321.501045 97.175814 
L 321.997155 94.655555 
L 322.493265 90.325617 
L 323.981596 75.494185 
L 324.477706 73.236637 
L 324.973816 73.497157 
L 325.966037 76.598268 
L 326.462147 76.674882 
L 326.958257 75.564336 
L 327.950478 71.889975 
L 329.438809 66.06489 
L 329.934919 65.39048 
L 330.431029 67.018538 
L 331.42325 76.048908 
L 331.91936 77.865769 
L 332.41547 74.828789 
L 332.91158 69.52007 
L 333.407691 65.668375 
L 333.903801 65.942661 
L 334.896021 71.528267 
L 335.392132 72.639092 
L 335.888242 74.773388 
L 336.384352 81.659085 
L 336.880462 95.645803 
L 337.872683 130.889529 
L 338.864903 159.31487 
L 339.361014 180.266931 
L 340.353234 238.379062 
L 340.849344 254.495648 
L 341.345455 261.636499 
L 341.841565 266.337546 
L 342.833785 282.560546 
L 343.329896 290.649671 
L 343.826006 295.840291 
L 344.322116 297.692022 
L 344.818226 296.169726 
L 345.314337 291.503802 
L 346.802667 272.25563 
L 348.290998 255.1712 
L 349.283218 239.168954 
L 350.771549 209.529654 
L 351.76377 195.935199 
L 352.75599 182.878449 
L 353.2521 173.102524 
L 353.748211 158.756166 
L 355.236541 101.327173 
L 355.732652 89.928106 
L 356.228762 85.91164 
L 356.724872 90.108262 
L 357.220982 100.195316 
L 358.709313 140.21355 
L 359.701534 173.795868 
L 360.693754 210.080741 
L 361.685975 237.906655 
L 363.174305 272.315818 
L 363.670416 281.382223 
L 364.166526 287.942618 
L 364.662636 292.024238 
L 365.158746 293.845976 
L 365.654857 293.514439 
L 366.150967 290.687107 
L 366.647077 284.909181 
L 367.143187 275.93911 
L 368.135408 251.081619 
L 370.615959 180.516675 
L 371.112069 173.231386 
L 371.60818 171.935936 
L 372.6004 176.923669 
L 373.09651 177.392204 
L 373.592621 176.167848 
L 374.584841 173.056118 
L 375.080951 169.998342 
L 375.577062 163.607002 
L 377.065392 137.70387 
L 377.561503 131.115667 
L 378.057613 126.287952 
L 378.553723 123.686386 
L 379.049833 124.688246 
L 379.545944 130.898714 
L 380.042054 143.279117 
L 381.034274 179.449485 
L 382.026495 217.120895 
L 383.018715 245.352008 
L 384.010936 264.105644 
L 385.499267 288.564725 
L 385.995377 295.143664 
L 386.491487 298.952946 
L 386.987597 298.061792 
L 387.483707 291.135007 
L 387.979818 279.21973 
L 388.972038 246.891793 
L 390.460369 195.731279 
L 390.956479 182.108752 
L 391.452589 171.908777 
L 391.9487 165.621576 
L 392.94092 157.672361 
L 393.933141 146.853072 
L 394.429251 143.151217 
L 394.925361 142.932721 
L 395.421471 146.94719 
L 395.917582 155.706817 
L 396.909802 181.010898 
L 397.405912 188.227981 
L 397.902023 191.124917 
L 398.398133 191.848944 
L 399.390353 192.703375 
L 399.886464 193.465466 
L 400.382574 194.807484 
L 400.878684 197.66648 
L 401.374794 203.137044 
L 403.359235 236.96601 
L 404.351456 247.499553 
L 405.839787 270.599286 
L 406.335897 275.414402 
L 407.824228 284.452086 
L 408.320338 286.205472 
L 408.816448 284.367278 
L 409.312558 277.426321 
L 410.304779 254.709609 
L 411.296999 230.217551 
L 412.28922 199.627786 
L 413.28144 168.9972 
L 414.273661 151.380784 
L 414.769771 143.458252 
L 415.265881 137.433363 
L 415.761992 136.372846 
L 416.258102 142.2438 
L 418.242543 181.961111 
L 420.226984 215.940634 
L 420.723094 218.808823 
L 421.219204 219.676624 
L 421.715315 221.074928 
L 422.211425 224.825086 
L 423.203645 234.604116 
L 423.699756 237.598364 
L 424.195866 239.257213 
L 425.188086 241.587878 
L 425.684196 243.163802 
L 426.180307 245.212542 
L 427.172527 250.974403 
L 428.660858 261.665307 
L 429.156968 263.095317 
L 429.653078 261.668318 
L 430.149189 256.294176 
L 430.645299 245.883031 
L 432.13363 199.934492 
L 433.62196 167.414604 
L 434.614181 149.075403 
L 435.110291 143.474538 
L 435.606401 140.403637 
L 436.102512 139.440564 
L 436.598622 140.314979 
L 437.094732 143.363716 
L 437.590842 149.075403 
L 438.583063 168.152957 
L 440.071394 200.352502 
L 441.063614 218.111644 
L 442.551945 240.092934 
L 443.544165 252.835913 
L 445.032496 268.828241 
L 445.528606 272.99274 
L 446.024717 274.769179 
L 446.520827 273.264498 
L 447.016937 269.312599 
L 449.993599 239.03852 
L 450.985819 231.00853 
L 452.47415 220.533476 
L 452.97026 216.223798 
L 453.46637 210.778785 
L 454.954701 190.3059 
L 456.939142 169.320723 
L 457.435252 162.728872 
L 457.931363 157.874426 
L 458.427473 156.267008 
L 458.923583 158.104046 
L 459.419693 163.159698 
L 459.915804 170.827235 
L 460.908024 191.263058 
L 463.388575 250.273358 
L 463.884685 257.529274 
L 464.876906 267.05396 
L 465.373016 271.169212 
L 465.869126 274.347934 
L 466.365237 275.467222 
L 466.861347 273.547832 
L 467.357457 268.185171 
L 467.853567 259.118306 
L 469.838008 209.355705 
L 470.334119 202.360807 
L 470.830229 198.030304 
L 471.326339 196.028523 
L 471.822449 196.30376 
L 472.31856 198.875304 
L 472.81467 203.178698 
L 473.31078 206.314492 
L 473.80689 204.79949 
L 475.295221 180.839216 
L 475.791331 178.557051 
L 476.287442 179.495409 
L 477.279662 185.558598 
L 477.775772 185.713508 
L 478.271883 181.482066 
L 478.767993 175.506478 
L 479.264103 171.486277 
L 479.760213 172.090206 
L 481.248544 183.960776 
L 481.744654 189.200974 
L 482.240765 199.444761 
L 484.225206 264.308121 
L 484.721316 269.94539 
L 485.217426 274.236461 
L 486.209647 284.721765 
L 486.705757 286.911464 
L 487.201867 284.639199 
L 488.194088 275.761135 
L 488.690198 273.878168 
L 489.186308 271.414036 
L 489.682418 264.326079 
L 490.178529 249.883403 
L 492.16297 175.642207 
L 493.15519 145.49165 
L 493.6513 134.717349 
L 494.147411 131.771269 
L 494.643521 138.55503 
L 495.139631 148.882522 
L 495.635741 156.19535 
L 496.131852 160.533689 
L 497.620182 169.429532 
L 498.116293 171.238288 
L 499.108513 172.131629 
L 499.604623 173.883506 
L 500.100733 178.177644 
L 500.596844 184.775871 
L 502.581285 218.484819 
L 503.077395 222.949526 
L 503.573505 226.180859 
L 504.069615 230.213789 
L 505.061836 244.142121 
L 506.054056 257.922532 
L 507.046277 267.402981 
L 507.542387 271.306592 
L 508.038497 274.164895 
L 508.534608 275.210048 
L 509.030718 273.750092 
L 509.526828 269.396593 
L 510.022938 261.837002 
L 510.519049 250.610004 
L 511.015159 234.659225 
L 512.50349 173.68144 
L 512.9996 162.840532 
L 513.49571 157.618528 
L 514.984041 150.268585 
L 515.480151 148.671272 
L 515.976261 148.221962 
L 516.472372 148.955364 
L 516.968482 150.802142 
L 517.464592 153.787857 
L 517.960702 158.31766 
L 518.456813 164.891602 
L 519.945143 189.258835 
L 520.441254 192.398619 
L 520.937364 192.961589 
L 521.433474 192.739868 
L 521.929584 193.243177 
L 522.425695 194.851624 
L 522.921805 197.662913 
L 523.417915 201.693656 
L 524.410136 212.101394 
L 525.898466 230.020909 
L 527.386797 251.338793 
L 528.379018 265.736494 
L 528.875128 271.205482 
L 529.371238 274.099673 
L 529.867348 271.895572 
L 530.363459 261.726785 
L 531.355679 224.43656 
L 531.851789 213.829409 
L 532.3479 206.832546 
L 532.84401 196.009652 
L 534.332341 133.736813 
L 534.828451 123.844884 
L 535.324561 121.423365 
L 535.820671 122.503821 
L 536.316782 124.111501 
L 536.812892 127.246386 
L 537.309002 133.902139 
L 538.797333 167.582744 
L 539.293443 172.169726 
L 539.789553 174.268302 
L 540.285663 178.126876 
L 540.781774 186.860887 
L 542.270104 223.76143 
L 542.766215 232.029939 
L 543.262325 235.26542 
L 543.758435 232.978227 
L 544.254545 229.506561 
L 544.750656 229.258156 
L 545.246766 232.091038 
L 547.231207 250.907108 
L 547.727317 253.257824 
L 548.223427 254.256567 
L 548.719538 254.360587 
L 549.215648 253.908301 
L 549.711758 252.762791 
L 550.207868 250.668304 
L 550.703979 247.380142 
L 551.200089 242.697815 
L 552.192309 228.802622 
L 552.68842 221.66907 
L 553.18453 217.299982 
L 553.68064 216.659546 
L 554.17675 215.493691 
L 554.672861 208.243784 
L 555.168971 191.508749 
L 556.161191 152.657469 
L 556.657302 143.004895 
L 557.153412 137.397961 
L 557.649522 129.364855 
L 558.145632 116.110166 
L 558.641743 109.54409 
L 559.137853 120.679975 
L 560.130073 162.365786 
L 560.626184 172.510397 
L 561.122294 177.32151 
L 561.618404 184.749106 
L 562.114514 200.263996 
L 563.106735 235.292975 
L 563.602845 242.929072 
L 564.595066 247.20564 
L 565.091176 252.339289 
L 565.587286 258.962459 
L 566.083396 264.050535 
L 566.579507 265.233054 
L 567.075617 262.756162 
L 567.571727 257.520153 
L 569.556168 229.624329 
L 570.052278 225.361329 
L 570.548389 222.599603 
L 571.044499 221.128953 
L 571.540609 220.177177 
L 572.036719 218.831573 
L 572.53283 216.179438 
L 573.02894 211.541591 
L 574.02116 197.56188 
L 575.013381 182.106069 
L 575.509491 177.355354 
L 576.005601 176.167857 
L 576.997822 178.19117 
L 577.493932 177.878774 
L 577.990042 176.861179 
L 578.486152 176.354213 
L 578.982263 177.198241 
L 579.974483 179.917909 
L 580.470593 180.280116 
L 580.966704 181.583694 
L 581.462814 186.154378 
L 581.958924 195.440474 
L 582.951145 219.035906 
L 583.943365 235.862136 
L 584.935586 252.42067 
L 585.431696 260.974982 
L 585.927806 267.210101 
L 586.423916 269.585797 
L 586.920027 268.522846 
L 587.416137 264.932274 
L 588.408357 253.559476 
L 589.896688 234.706826 
L 590.392798 226.76031 
L 592.377239 188.52221 
L 594.36168 162.054713 
L 594.857791 158.701057 
L 595.353901 159.705708 
L 596.346121 167.059211 
L 597.338342 171.003071 
L 597.834452 174.75606 
L 598.826673 190.30423 
L 599.322783 197.736391 
L 599.818893 202.165458 
L 600.315003 204.313408 
L 601.307224 206.982279 
L 601.803334 208.406234 
L 602.299444 209.355143 
L 602.795555 209.693495 
L 603.291665 210.657931 
L 603.787775 213.828133 
L 604.283885 220.224435 
L 605.772216 244.65634 
L 606.268326 250.4918 
L 606.764437 254.764718 
L 607.260547 257.578422 
L 608.748878 262.866676 
L 609.244988 263.33455 
L 609.741098 260.890969 
L 610.237208 254.4753 
L 612.71776 208.2346 
L 614.20609 174.149864 
L 614.7022 168.445758 
L 615.198311 165.838085 
L 616.190531 163.418458 
L 616.686641 163.090586 
L 617.182752 164.827308 
L 617.678862 169.387763 
L 619.167193 187.259634 
L 620.159413 197.543511 
L 622.143854 224.364227 
L 623.136075 233.061072 
L 623.632185 236.825774 
L 624.128295 239.6576 
L 624.624405 240.702813 
L 625.120516 239.535016 
L 625.616626 237.437177 
L 626.112736 236.119605 
L 626.608846 236.781505 
L 627.601067 240.151726 
L 628.593287 240.938435 
L 629.089398 242.567324 
L 630.081618 249.612948 
L 630.577728 249.814119 
L 631.073839 244.828007 
L 632.562169 221.908352 
L 633.55439 210.145035 
L 634.0505 201.45981 
L 635.042721 178.15443 
L 637.027162 126.478036 
L 637.523272 119.290412 
L 638.019382 119.362625 
L 638.515492 128.438539 
L 640.499933 185.281468 
L 641.492154 205.149712 
L 641.988264 213.260239 
L 642.484374 219.109385 
L 642.980485 222.37526 
L 643.476595 224.869495 
L 643.972705 228.937104 
L 645.461036 248.620097 
L 645.957146 248.667987 
L 646.949367 242.989824 
L 647.445477 242.459982 
L 647.941587 242.748361 
L 648.437697 241.520259 
L 648.933808 237.20457 
L 649.926028 226.007158 
L 650.422138 223.07956 
L 650.918248 222.050513 
L 651.910469 221.770922 
L 652.406579 220.81734 
L 652.902689 218.356232 
L 653.3988 213.885693 
L 654.39102 200.482642 
L 655.879351 175.233669 
L 656.871571 157.561853 
L 657.367682 150.68274 
L 657.863792 146.27096 
L 658.359902 144.31231 
L 658.856012 144.584043 
L 659.352123 146.941911 
L 659.848233 151.555652 
L 660.344343 158.673503 
L 661.336564 179.879671 
L 662.824894 216.417417 
L 663.321005 226.043897 
L 663.817115 233.073847 
L 664.809335 242.209118 
L 665.801556 249.405218 
L 666.297666 252.018467 
L 666.793776 253.532203 
L 667.289887 253.821062 
L 667.785997 252.808359 
L 668.282107 250.479497 
L 668.778217 247.068235 
L 669.770438 238.020264 
L 670.266548 232.005401 
L 670.762658 224.151831 
L 672.250989 196.257641 
L 672.747099 192.001278 
L 674.23543 186.040074 
L 674.73154 183.224454 
L 675.227651 181.637288 
L 675.723761 182.728453 
L 677.212092 195.394271 
L 677.708202 193.581247 
L 678.204312 188.292119 
L 680.684863 155.734818 
L 681.180974 150.66946 
L 681.677084 150.884805 
L 682.173194 158.48357 
L 685.149856 231.822905 
L 685.645966 242.410154 
L 686.142076 249.731456 
L 686.638186 252.464798 
L 687.630407 252.486891 
L 688.126517 254.116529 
L 688.622627 254.961922 
L 689.118737 251.586783 
L 689.614848 241.884157 
L 690.607068 217.667373 
L 691.103178 211.005181 
L 692.095399 204.266773 
L 693.087619 194.993468 
L 693.58373 193.621608 
L 694.07984 197.046089 
L 694.57595 202.419917 
L 695.07206 205.763893 
L 695.568171 204.308203 
L 696.560391 196.478076 
L 697.056501 195.730396 
L 697.552612 196.517408 
L 698.048722 196.551554 
L 698.544832 194.278784 
L 699.040942 191.079085 
L 699.537053 189.065954 
L 700.033163 189.664142 
L 700.529273 191.543406 
L 701.025383 192.68476 
L 701.521494 191.56602 
L 702.017604 188.652233 
L 703.009824 181.431467 
L 703.505935 179.915511 
L 704.002045 182.186551 
L 704.498155 189.452533 
L 705.490376 213.240307 
L 706.482596 237.949587 
L 706.978706 247.756727 
L 707.474817 254.716191 
L 707.970927 258.589203 
L 708.467037 259.283632 
L 708.963147 256.98422 
L 710.947588 241.727218 
L 711.443699 235.366453 
L 711.939809 225.083092 
L 713.42814 182.36046 
L 714.42036 155.164915 
L 714.91647 143.934815 
L 715.412581 135.865084 
L 715.908691 132.478497 
L 716.404801 134.72631 
L 716.900911 141.273698 
L 717.893132 160.058847 
L 718.885352 183.591823 
L 719.877573 210.818538 
L 720.373683 219.201232 
L 720.869793 220.817548 
L 721.365904 218.860022 
L 721.862014 217.851069 
L 722.358124 220.920787 
L 722.854234 225.63 
L 723.350345 228.147212 
L 723.846455 225.87588 
L 724.342565 221.159251 
L 724.838675 217.575526 
L 725.334786 217.746895 
L 726.823116 225.520264 
L 727.319226 226.955286 
L 727.815337 229.165374 
L 728.311447 233.419279 
L 729.303667 247.535763 
L 729.799778 252.238902 
L 730.295888 252.250316 
L 730.791998 248.562671 
L 732.280329 230.68691 
L 734.26477 203.908566 
L 735.753101 183.545899 
L 736.745321 174.411118 
L 737.241431 171.348505 
L 737.737542 169.208514 
L 738.233652 168.310102 
L 738.729762 169.061494 
L 739.225872 171.763887 
L 739.721983 176.290365 
L 740.714203 189.83357 
L 742.698644 222.30139 
L 743.194754 227.476723 
L 743.690865 229.974323 
L 744.186975 230.475037 
L 745.179195 229.440199 
L 745.675306 229.514295 
L 746.171416 230.8108 
L 746.667526 233.934057 
L 747.163636 239.488407 
L 747.163636 239.488407 
" clip-path="url(#pf8c139212d)" style="fill: none; stroke: #0000ff; stroke-linecap: square"/>
   </g>
   <g id="patch_3">
    <path d="M 108 320.4 
L 108 43.2 
" style="fill: none; stroke: #000000; stroke-width: 0.8; stroke-linejoin: miter; stroke-linecap: square"/>
   </g>
   <g id="patch_4">
    <path d="M 777.6 320.4 
L 777.6 43.2 
" style="fill: none; stroke: #000000; stroke-width: 0.8; stroke-linejoin: miter; stroke-linecap: square"/>
   </g>
   <g id="patch_5">
    <path d="M 108 320.4 
L 777.6 320.4 
" style="fill: none; stroke: #000000; stroke-width: 0.8; stroke-linejoin: miter; stroke-linecap: square"/>
   </g>
   <g id="patch_6">
    <path d="M 108 43.2 
L 777.6 43.2 
" style="fill: none; stroke: #000000; stroke-width: 0.8; stroke-linejoin: miter; stroke-linecap: square"/>
   </g>
   <g id="text_18">
    <!-- Original Data -->
    <g transform="translate(396.830981 37.2) scale(0.156 -0.156)">
     <defs>
      <path id="CMR17-4f" d="M 4307 2135 
C 4307 3437 3366 4416 2304 4416 
C 1216 4416 294 3424 294 2135 
C 294 845 1229 -128 2298 -128 
C 3392 -128 4307 864 4307 2135 
z
M 2304 -13 
C 1574 -13 781 711 781 2217 
C 781 3716 1651 4301 2298 4301 
C 2976 4301 3821 3698 3821 2217 
C 3821 686 3008 -13 2304 -13 
z
" transform="scale(0.015625)"/>
      <path id="CMR17-72" d="M 960 1497 
C 960 2112 1222 2688 1702 2688 
C 1747 2688 1792 2682 1837 2662 
C 1837 2662 1696 2617 1696 2452 
C 1696 2298 1818 2234 1914 2234 
C 1990 2234 2131 2279 2131 2458 
C 2131 2663 1926 2790 1709 2790 
C 1222 2790 1011 2317 947 2093 
L 941 2093 
L 941 2790 
L 198 2720 
L 198 2554 
C 576 2554 634 2515 634 2208 
L 634 428 
C 634 184 608 153 198 153 
L 198 -13 
C 352 0 646 0 813 0 
C 998 0 1325 0 1498 -13 
L 1498 153 
C 1037 153 960 153 960 440 
L 960 1497 
z
" transform="scale(0.015625)"/>
      <path id="CMR17-67" d="M 710 1164 
C 832 1068 1043 960 1299 960 
C 1805 960 2240 1357 2240 1888 
C 2240 2054 2189 2310 1997 2509 
C 2176 2692 2438 2752 2586 2752 
C 2611 2752 2650 2752 2682 2734 
C 2656 2728 2598 2703 2598 2605 
C 2598 2527 2656 2471 2739 2471 
C 2835 2471 2886 2533 2886 2614 
C 2886 2731 2790 2854 2586 2854 
C 2330 2854 2106 2738 1926 2580 
C 1734 2753 1504 2816 1299 2816 
C 794 2816 358 2419 358 1888 
C 358 1522 570 1292 634 1228 
C 442 1004 442 743 442 711 
C 442 545 506 302 723 168 
C 390 85 128 -169 128 -486 
C 128 -943 736 -1280 1466 -1280 
C 2170 -1280 2803 -956 2803 -479 
C 2803 384 1856 384 1363 384 
C 1216 384 954 384 922 391 
C 723 423 589 602 589 826 
C 589 883 589 1024 710 1164 
z
M 1299 1068 
C 736 1068 736 1760 736 1889 
C 736 2016 736 2708 1299 2708 
C 1862 2708 1862 2016 1862 1889 
C 1862 1760 1862 1068 1299 1068 
z
M 1466 -1171 
C 826 -1171 384 -835 384 -486 
C 384 -289 493 -105 634 -4 
C 794 104 858 104 1293 104 
C 1818 104 2547 104 2547 -486 
C 2547 -835 2106 -1171 1466 -1171 
z
" transform="scale(0.015625)"/>
      <path id="CMR17-44" d="M 333 4352 
L 333 4186 
C 774 4186 845 4186 845 3900 
L 845 452 
C 845 166 774 166 333 166 
L 333 0 
L 2368 0 
C 3398 0 4224 943 4224 2141 
C 4224 3346 3411 4352 2368 4352 
L 333 4352 
z
M 1523 166 
C 1267 166 1254 197 1254 414 
L 1254 3938 
C 1254 4155 1267 4186 1523 4186 
L 2240 4186 
C 2771 4186 3750 3874 3750 2141 
C 3750 1242 3488 879 3366 707 
C 3213 510 2848 166 2240 166 
L 1523 166 
z
" transform="scale(0.015625)"/>
     </defs>
     <use xlink:href="#CMR17-4f" transform="scale(0.996264)"/>
     <use xlink:href="#CMR17-72" transform="translate(71.714788 0) scale(0.996264)"/>
     <use xlink:href="#CMR17-69" transform="translate(106.995556 0) scale(0.996264)"/>
     <use xlink:href="#CMR17-67" transform="translate(131.866615 0) scale(0.996264)"/>
     <use xlink:href="#CMR17-69" transform="translate(177.557092 0) scale(0.996264)"/>
     <use xlink:href="#CMR17-6e" transform="translate(202.42815 0) scale(0.996264)"/>
     <use xlink:href="#CMR17-61" transform="translate(253.32352 0) scale(0.996264)"/>
     <use xlink:href="#CMR17-6c" transform="translate(299.013997 0) scale(0.996264)"/>
     <use xlink:href="#CMR17-44" transform="translate(353.961022 0) scale(0.996264)"/>
     <use xlink:href="#CMR17-61" transform="translate(424.354578 0) scale(0.996264)"/>
     <use xlink:href="#CMR17-74" transform="translate(470.045055 0) scale(0.996264)"/>
     <use xlink:href="#CMR17-61" transform="translate(505.325823 0) scale(0.996264)"/>
    </g>
   </g>
  </g>
 </g>
 <defs>
  <clipPath id="pf8c139212d">
   <rect x="108" y="43.2" width="669.6" height="277.2"/>
  </clipPath>
 </defs>
</svg>
