<?xml version="1.0" encoding="utf-8" standalone="no"?>
<!DOCTYPE svg PUBLIC "-//W3C//DTD SVG 1.1//EN"
  "http://www.w3.org/Graphics/SVG/1.1/DTD/svg11.dtd">
<svg xmlns:xlink="http://www.w3.org/1999/xlink" width="864pt" height="360pt" viewBox="0 0 864 360" xmlns="http://www.w3.org/2000/svg" version="1.1">
 <metadata>
  <rdf:RDF xmlns:dc="http://purl.org/dc/elements/1.1/" xmlns:cc="http://creativecommons.org/ns#" xmlns:rdf="http://www.w3.org/1999/02/22-rdf-syntax-ns#">
   <cc:Work>
    <dc:type rdf:resource="http://purl.org/dc/dcmitype/StillImage"/>
    <dc:date>2023-07-26T17:18:58.262199</dc:date>
    <dc:format>image/svg+xml</dc:format>
    <dc:creator>
     <cc:Agent>
      <dc:title>Matplotlib v3.7.1, https://matplotlib.org/</dc:title>
     </cc:Agent>
    </dc:creator>
   </cc:Work>
  </rdf:RDF>
 </metadata>
 <defs>
  <style type="text/css">*{stroke-linejoin: round; stroke-linecap: butt}</style>
 </defs>
 <g id="figure_1">
  <g id="patch_1">
   <path d="M 0 360 
L 864 360 
L 864 0 
L 0 0 
z
" style="fill: #ffffff"/>
  </g>
  <g id="axes_1">
   <g id="patch_2">
    <path d="M 70.609653 310.496228 
L 849.96 310.496228 
L 849.96 30.83284 
L 70.609653 30.83284 
z
" style="fill: #ffffff"/>
   </g>
   <g id="matplotlib.axis_1">
    <g id="xtick_1">
     <g id="line2d_1">
      <defs>
       <path id="m59b868d8f8" d="M 0 0 
L 0 3.5 
" style="stroke: #000000; stroke-width: 0.8"/>
      </defs>
      <g>
       <use xlink:href="#m59b868d8f8" x="106.034669" y="310.496228" style="stroke: #000000; stroke-width: 0.8"/>
      </g>
     </g>
     <g id="text_1">
      <!-- $\mathdefault{0.0}$ -->
      <g transform="translate(97.932613 326.490256) scale(0.13 -0.13)">
       <defs>
        <path id="CMR17-30" d="M 2688 2025 
C 2688 2416 2682 3080 2413 3591 
C 2176 4039 1798 4198 1466 4198 
C 1158 4198 768 4058 525 3597 
C 269 3118 243 2524 243 2025 
C 243 1661 250 1106 448 619 
C 723 -39 1216 -128 1466 -128 
C 1760 -128 2208 -7 2470 600 
C 2662 1042 2688 1559 2688 2025 
z
M 1466 -26 
C 1056 -26 813 325 723 812 
C 653 1188 653 1738 653 2096 
C 653 2588 653 2997 736 3387 
C 858 3929 1216 4096 1466 4096 
C 1728 4096 2067 3923 2189 3400 
C 2272 3036 2278 2607 2278 2096 
C 2278 1680 2278 1169 2202 792 
C 2067 95 1690 -26 1466 -26 
z
" transform="scale(0.015625)"/>
        <path id="CMMI12-3a" d="M 1178 307 
C 1178 492 1024 619 870 619 
C 685 619 557 466 557 313 
C 557 128 710 0 864 0 
C 1050 0 1178 153 1178 307 
z
" transform="scale(0.015625)"/>
       </defs>
       <use xlink:href="#CMR17-30" transform="scale(0.996264)"/>
       <use xlink:href="#CMMI12-3a" transform="translate(45.690477 0) scale(0.996264)"/>
       <use xlink:href="#CMR17-30" transform="translate(72.787654 0) scale(0.996264)"/>
      </g>
     </g>
    </g>
    <g id="xtick_2">
     <g id="line2d_2">
      <g>
       <use xlink:href="#m59b868d8f8" x="194.81917" y="310.496228" style="stroke: #000000; stroke-width: 0.8"/>
      </g>
     </g>
     <g id="text_2">
      <!-- $\mathdefault{0.5}$ -->
      <g transform="translate(186.717114 326.490256) scale(0.13 -0.13)">
       <defs>
        <path id="CMR17-35" d="M 730 3692 
C 794 3666 1056 3584 1325 3584 
C 1920 3584 2246 3911 2432 4100 
C 2432 4157 2432 4192 2394 4192 
C 2387 4192 2374 4192 2323 4163 
C 2099 4058 1837 3973 1517 3973 
C 1325 3973 1037 3999 723 4139 
C 653 4171 640 4171 634 4171 
C 602 4171 595 4164 595 4037 
L 595 2203 
C 595 2089 595 2057 659 2057 
C 691 2057 704 2070 736 2114 
C 941 2401 1222 2522 1542 2522 
C 1766 2522 2246 2382 2246 1289 
C 2246 1085 2246 715 2054 421 
C 1894 159 1645 25 1370 25 
C 947 25 518 320 403 814 
C 429 807 480 795 506 795 
C 589 795 749 840 749 1038 
C 749 1210 627 1280 506 1280 
C 358 1280 262 1190 262 1011 
C 262 454 704 -128 1382 -128 
C 2042 -128 2669 440 2669 1264 
C 2669 2030 2170 2624 1549 2624 
C 1222 2624 947 2503 730 2274 
L 730 3692 
z
" transform="scale(0.015625)"/>
       </defs>
       <use xlink:href="#CMR17-30" transform="scale(0.996264)"/>
       <use xlink:href="#CMMI12-3a" transform="translate(45.690477 0) scale(0.996264)"/>
       <use xlink:href="#CMR17-35" transform="translate(72.787654 0) scale(0.996264)"/>
      </g>
     </g>
    </g>
    <g id="xtick_3">
     <g id="line2d_3">
      <g>
       <use xlink:href="#m59b868d8f8" x="283.60367" y="310.496228" style="stroke: #000000; stroke-width: 0.8"/>
      </g>
     </g>
     <g id="text_3">
      <!-- $\mathdefault{1.0}$ -->
      <g transform="translate(275.501614 326.490256) scale(0.13 -0.13)">
       <defs>
        <path id="CMR17-31" d="M 1702 4058 
C 1702 4192 1696 4192 1606 4192 
C 1357 3916 979 3827 621 3827 
C 602 3827 570 3827 563 3808 
C 557 3795 557 3782 557 3648 
C 755 3648 1088 3686 1344 3839 
L 1344 461 
C 1344 236 1331 160 781 160 
L 589 160 
L 589 0 
C 896 0 1216 0 1523 0 
C 1830 0 2150 0 2458 0 
L 2458 160 
L 2266 160 
C 1715 160 1702 230 1702 458 
L 1702 4058 
z
" transform="scale(0.015625)"/>
       </defs>
       <use xlink:href="#CMR17-31" transform="scale(0.996264)"/>
       <use xlink:href="#CMMI12-3a" transform="translate(45.690477 0) scale(0.996264)"/>
       <use xlink:href="#CMR17-30" transform="translate(72.787654 0) scale(0.996264)"/>
      </g>
     </g>
    </g>
    <g id="xtick_4">
     <g id="line2d_4">
      <g>
       <use xlink:href="#m59b868d8f8" x="372.388171" y="310.496228" style="stroke: #000000; stroke-width: 0.8"/>
      </g>
     </g>
     <g id="text_4">
      <!-- $\mathdefault{1.5}$ -->
      <g transform="translate(364.286115 326.490256) scale(0.13 -0.13)">
       <use xlink:href="#CMR17-31" transform="scale(0.996264)"/>
       <use xlink:href="#CMMI12-3a" transform="translate(45.690477 0) scale(0.996264)"/>
       <use xlink:href="#CMR17-35" transform="translate(72.787654 0) scale(0.996264)"/>
      </g>
     </g>
    </g>
    <g id="xtick_5">
     <g id="line2d_5">
      <g>
       <use xlink:href="#m59b868d8f8" x="461.172672" y="310.496228" style="stroke: #000000; stroke-width: 0.8"/>
      </g>
     </g>
     <g id="text_5">
      <!-- $\mathdefault{2.0}$ -->
      <g transform="translate(453.070616 326.490256) scale(0.13 -0.13)">
       <defs>
        <path id="CMR17-32" d="M 2669 989 
L 2554 989 
C 2490 536 2438 459 2413 420 
C 2381 369 1920 369 1830 369 
L 602 369 
C 832 619 1280 1072 1824 1597 
C 2214 1967 2669 2402 2669 3035 
C 2669 3790 2067 4224 1395 4224 
C 691 4224 262 3604 262 3030 
C 262 2780 448 2748 525 2748 
C 589 2748 781 2787 781 3010 
C 781 3207 614 3264 525 3264 
C 486 3264 448 3258 422 3245 
C 544 3790 915 4058 1306 4058 
C 1862 4058 2227 3617 2227 3035 
C 2227 2479 1901 2000 1536 1584 
L 262 146 
L 262 0 
L 2515 0 
L 2669 989 
z
" transform="scale(0.015625)"/>
       </defs>
       <use xlink:href="#CMR17-32" transform="scale(0.996264)"/>
       <use xlink:href="#CMMI12-3a" transform="translate(45.690477 0) scale(0.996264)"/>
       <use xlink:href="#CMR17-30" transform="translate(72.787654 0) scale(0.996264)"/>
      </g>
     </g>
    </g>
    <g id="xtick_6">
     <g id="line2d_6">
      <g>
       <use xlink:href="#m59b868d8f8" x="549.957172" y="310.496228" style="stroke: #000000; stroke-width: 0.8"/>
      </g>
     </g>
     <g id="text_6">
      <!-- $\mathdefault{2.5}$ -->
      <g transform="translate(541.855116 326.490256) scale(0.13 -0.13)">
       <use xlink:href="#CMR17-32" transform="scale(0.996264)"/>
       <use xlink:href="#CMMI12-3a" transform="translate(45.690477 0) scale(0.996264)"/>
       <use xlink:href="#CMR17-35" transform="translate(72.787654 0) scale(0.996264)"/>
      </g>
     </g>
    </g>
    <g id="xtick_7">
     <g id="line2d_7">
      <g>
       <use xlink:href="#m59b868d8f8" x="638.741673" y="310.496228" style="stroke: #000000; stroke-width: 0.8"/>
      </g>
     </g>
     <g id="text_7">
      <!-- $\mathdefault{3.0}$ -->
      <g transform="translate(630.639617 326.490256) scale(0.13 -0.13)">
       <defs>
        <path id="CMR17-33" d="M 1414 2157 
C 1984 2157 2234 1662 2234 1090 
C 2234 320 1824 25 1453 25 
C 1114 25 563 194 390 693 
C 422 680 454 680 486 680 
C 640 680 755 782 755 948 
C 755 1133 614 1216 486 1216 
C 378 1216 211 1165 211 926 
C 211 335 787 -128 1466 -128 
C 2176 -128 2720 430 2720 1085 
C 2720 1707 2208 2157 1600 2227 
C 2086 2328 2554 2756 2554 3329 
C 2554 3820 2048 4179 1472 4179 
C 890 4179 378 3829 378 3329 
C 378 3110 544 3072 627 3072 
C 762 3072 877 3155 877 3321 
C 877 3486 762 3569 627 3569 
C 602 3569 570 3569 544 3557 
C 730 3959 1235 4032 1459 4032 
C 1683 4032 2106 3925 2106 3320 
C 2106 3143 2080 2828 1862 2550 
C 1670 2304 1453 2304 1242 2284 
C 1210 2284 1062 2269 1037 2269 
C 992 2263 966 2257 966 2208 
C 966 2163 973 2157 1101 2157 
L 1414 2157 
z
" transform="scale(0.015625)"/>
       </defs>
       <use xlink:href="#CMR17-33" transform="scale(0.996264)"/>
       <use xlink:href="#CMMI12-3a" transform="translate(45.690477 0) scale(0.996264)"/>
       <use xlink:href="#CMR17-30" transform="translate(72.787654 0) scale(0.996264)"/>
      </g>
     </g>
    </g>
    <g id="xtick_8">
     <g id="line2d_8">
      <g>
       <use xlink:href="#m59b868d8f8" x="727.526174" y="310.496228" style="stroke: #000000; stroke-width: 0.8"/>
      </g>
     </g>
     <g id="text_8">
      <!-- $\mathdefault{3.5}$ -->
      <g transform="translate(719.424118 326.490256) scale(0.13 -0.13)">
       <use xlink:href="#CMR17-33" transform="scale(0.996264)"/>
       <use xlink:href="#CMMI12-3a" transform="translate(45.690477 0) scale(0.996264)"/>
       <use xlink:href="#CMR17-35" transform="translate(72.787654 0) scale(0.996264)"/>
      </g>
     </g>
    </g>
    <g id="xtick_9">
     <g id="line2d_9">
      <g>
       <use xlink:href="#m59b868d8f8" x="816.310674" y="310.496228" style="stroke: #000000; stroke-width: 0.8"/>
      </g>
     </g>
     <g id="text_9">
      <!-- $\mathdefault{4.0}$ -->
      <g transform="translate(808.208618 326.490256) scale(0.13 -0.13)">
       <defs>
        <path id="CMR17-34" d="M 2150 4122 
C 2150 4256 2144 4256 2029 4256 
L 128 1254 
L 128 1088 
L 1779 1088 
L 1779 457 
C 1779 224 1766 160 1318 160 
L 1197 160 
L 1197 0 
C 1402 0 1747 0 1965 0 
C 2182 0 2528 0 2733 0 
L 2733 160 
L 2611 160 
C 2163 160 2150 224 2150 457 
L 2150 1088 
L 2803 1088 
L 2803 1254 
L 2150 1254 
L 2150 4122 
z
M 1798 3703 
L 1798 1254 
L 256 1254 
L 1798 3703 
z
" transform="scale(0.015625)"/>
       </defs>
       <use xlink:href="#CMR17-34" transform="scale(0.996264)"/>
       <use xlink:href="#CMMI12-3a" transform="translate(45.690477 0) scale(0.996264)"/>
       <use xlink:href="#CMR17-30" transform="translate(72.787654 0) scale(0.996264)"/>
      </g>
     </g>
    </g>
    <g id="text_10">
     <!-- $t$ (s) -->
     <g transform="translate(448.448787 342.722142) scale(0.13 -0.13)">
      <defs>
       <path id="CMMI12-74" d="M 1286 2566 
L 1875 2566 
C 1997 2566 2061 2566 2061 2681 
C 2061 2752 2022 2752 1894 2752 
L 1331 2752 
L 1568 3692 
C 1594 3781 1594 3794 1594 3840 
C 1594 3943 1510 4000 1427 4000 
C 1376 4000 1229 3981 1178 3775 
L 928 2752 
L 326 2752 
C 198 2752 141 2752 141 2630 
C 141 2566 186 2566 307 2566 
L 877 2566 
L 454 881 
C 403 658 384 594 384 511 
C 384 211 595 -64 954 -64 
C 1600 -64 1946 868 1946 912 
C 1946 951 1920 970 1882 970 
C 1869 970 1843 970 1830 944 
C 1824 938 1818 931 1773 829 
C 1638 511 1344 64 973 64 
C 781 64 768 224 768 364 
C 768 370 768 492 787 568 
L 1286 2566 
z
" transform="scale(0.015625)"/>
       <path id="CMR17-28" d="M 1958 -1561 
C 1958 -1555 1958 -1542 1939 -1523 
C 1645 -1224 858 -407 858 1581 
C 858 3569 1632 4379 1946 4697 
C 1946 4704 1958 4717 1958 4736 
C 1958 4755 1939 4768 1914 4768 
C 1843 4768 1299 4296 986 3594 
C 666 2887 576 2199 576 1588 
C 576 1128 621 351 1005 -471 
C 1312 -1135 1837 -1600 1914 -1600 
C 1946 -1600 1958 -1587 1958 -1561 
z
" transform="scale(0.015625)"/>
       <path id="CMR17-73" d="M 1978 2697 
C 1978 2813 1971 2819 1933 2819 
C 1907 2819 1901 2813 1824 2717 
C 1805 2691 1747 2626 1728 2601 
C 1523 2819 1235 2819 1126 2819 
C 416 2819 160 2447 160 2076 
C 160 1498 813 1365 998 1325 
C 1402 1243 1542 1217 1677 1101 
C 1760 1025 1901 884 1901 654 
C 1901 384 1747 38 1158 38 
C 602 38 403 460 288 1021 
C 269 1110 269 1117 218 1117 
C 166 1117 160 1110 160 983 
L 160 63 
C 160 -51 166 -58 205 -58 
C 237 -58 243 -51 275 0 
C 314 57 410 211 448 276 
C 576 103 800 -64 1158 -64 
C 1792 -64 2131 283 2131 784 
C 2131 1112 1958 1285 1875 1362 
C 1683 1561 1459 1606 1190 1657 
C 838 1735 390 1825 390 2217 
C 390 2383 480 2737 1126 2737 
C 1811 2737 1850 2094 1862 1888 
C 1869 1856 1901 1849 1920 1849 
C 1978 1849 1978 1869 1978 1978 
L 1978 2697 
z
" transform="scale(0.015625)"/>
       <path id="CMR17-29" d="M 1683 1581 
C 1683 2040 1638 2817 1254 3639 
C 947 4303 422 4768 346 4768 
C 326 4768 301 4761 301 4729 
C 301 4717 307 4710 314 4697 
C 621 4378 1402 3568 1402 1584 
C 1402 -407 627 -1217 314 -1537 
C 307 -1549 301 -1556 301 -1568 
C 301 -1600 326 -1600 346 -1600 
C 416 -1600 960 -1128 1274 -426 
C 1594 281 1683 969 1683 1581 
z
" transform="scale(0.015625)"/>
      </defs>
      <use xlink:href="#CMMI12-74" transform="scale(0.996264)"/>
      <use xlink:href="#CMR17-28" transform="translate(65.302297 0) scale(0.996264)"/>
      <use xlink:href="#CMR17-73" transform="translate(100.583064 0) scale(0.996264)"/>
      <use xlink:href="#CMR17-29" transform="translate(136.384402 0) scale(0.996264)"/>
     </g>
    </g>
   </g>
   <g id="matplotlib.axis_2">
    <g id="ytick_1">
     <g id="line2d_10">
      <defs>
       <path id="m4569b21fe2" d="M 0 0 
L -3.5 0 
" style="stroke: #000000; stroke-width: 0.8"/>
      </defs>
      <g>
       <use xlink:href="#m4569b21fe2" x="70.609653" y="295.889168" style="stroke: #000000; stroke-width: 0.8"/>
      </g>
     </g>
     <g id="text_11">
      <!-- $\mathdefault{−0.03}$ -->
      <g transform="translate(30.991432 300.386182) scale(0.13 -0.13)">
       <defs>
        <path id="CMSY10-0" d="M 4218 1472 
C 4326 1472 4442 1472 4442 1600 
C 4442 1728 4326 1728 4218 1728 
L 755 1728 
C 646 1728 531 1728 531 1600 
C 531 1472 646 1472 755 1472 
L 4218 1472 
z
" transform="scale(0.015625)"/>
       </defs>
       <use xlink:href="#CMSY10-0" transform="scale(0.996264)"/>
       <use xlink:href="#CMR17-30" transform="translate(77.487468 0) scale(0.996264)"/>
       <use xlink:href="#CMMI12-3a" transform="translate(123.177945 0) scale(0.996264)"/>
       <use xlink:href="#CMR17-30" transform="translate(150.275122 0) scale(0.996264)"/>
       <use xlink:href="#CMR17-33" transform="translate(195.965599 0) scale(0.996264)"/>
      </g>
     </g>
    </g>
    <g id="ytick_2">
     <g id="line2d_11">
      <g>
       <use xlink:href="#m4569b21fe2" x="70.609653" y="252.988477" style="stroke: #000000; stroke-width: 0.8"/>
      </g>
     </g>
     <g id="text_12">
      <!-- $\mathdefault{−0.02}$ -->
      <g transform="translate(30.991432 257.485491) scale(0.13 -0.13)">
       <use xlink:href="#CMSY10-0" transform="scale(0.996264)"/>
       <use xlink:href="#CMR17-30" transform="translate(77.487468 0) scale(0.996264)"/>
       <use xlink:href="#CMMI12-3a" transform="translate(123.177945 0) scale(0.996264)"/>
       <use xlink:href="#CMR17-30" transform="translate(150.275122 0) scale(0.996264)"/>
       <use xlink:href="#CMR17-32" transform="translate(195.965599 0) scale(0.996264)"/>
      </g>
     </g>
    </g>
    <g id="ytick_3">
     <g id="line2d_12">
      <g>
       <use xlink:href="#m4569b21fe2" x="70.609653" y="210.087786" style="stroke: #000000; stroke-width: 0.8"/>
      </g>
     </g>
     <g id="text_13">
      <!-- $\mathdefault{−0.01}$ -->
      <g transform="translate(30.991432 214.5848) scale(0.13 -0.13)">
       <use xlink:href="#CMSY10-0" transform="scale(0.996264)"/>
       <use xlink:href="#CMR17-30" transform="translate(77.487468 0) scale(0.996264)"/>
       <use xlink:href="#CMMI12-3a" transform="translate(123.177945 0) scale(0.996264)"/>
       <use xlink:href="#CMR17-30" transform="translate(150.275122 0) scale(0.996264)"/>
       <use xlink:href="#CMR17-31" transform="translate(195.965599 0) scale(0.996264)"/>
      </g>
     </g>
    </g>
    <g id="ytick_4">
     <g id="line2d_13">
      <g>
       <use xlink:href="#m4569b21fe2" x="70.609653" y="167.187095" style="stroke: #000000; stroke-width: 0.8"/>
      </g>
     </g>
     <g id="text_14">
      <!-- $\mathdefault{0.00}$ -->
      <g transform="translate(41.064802 171.684109) scale(0.13 -0.13)">
       <use xlink:href="#CMR17-30" transform="scale(0.996264)"/>
       <use xlink:href="#CMMI12-3a" transform="translate(45.690477 0) scale(0.996264)"/>
       <use xlink:href="#CMR17-30" transform="translate(72.787654 0) scale(0.996264)"/>
       <use xlink:href="#CMR17-30" transform="translate(118.478131 0) scale(0.996264)"/>
      </g>
     </g>
    </g>
    <g id="ytick_5">
     <g id="line2d_14">
      <g>
       <use xlink:href="#m4569b21fe2" x="70.609653" y="124.286404" style="stroke: #000000; stroke-width: 0.8"/>
      </g>
     </g>
     <g id="text_15">
      <!-- $\mathdefault{0.01}$ -->
      <g transform="translate(41.064802 128.783418) scale(0.13 -0.13)">
       <use xlink:href="#CMR17-30" transform="scale(0.996264)"/>
       <use xlink:href="#CMMI12-3a" transform="translate(45.690477 0) scale(0.996264)"/>
       <use xlink:href="#CMR17-30" transform="translate(72.787654 0) scale(0.996264)"/>
       <use xlink:href="#CMR17-31" transform="translate(118.478131 0) scale(0.996264)"/>
      </g>
     </g>
    </g>
    <g id="ytick_6">
     <g id="line2d_15">
      <g>
       <use xlink:href="#m4569b21fe2" x="70.609653" y="81.385713" style="stroke: #000000; stroke-width: 0.8"/>
      </g>
     </g>
     <g id="text_16">
      <!-- $\mathdefault{0.02}$ -->
      <g transform="translate(41.064802 85.882727) scale(0.13 -0.13)">
       <use xlink:href="#CMR17-30" transform="scale(0.996264)"/>
       <use xlink:href="#CMMI12-3a" transform="translate(45.690477 0) scale(0.996264)"/>
       <use xlink:href="#CMR17-30" transform="translate(72.787654 0) scale(0.996264)"/>
       <use xlink:href="#CMR17-32" transform="translate(118.478131 0) scale(0.996264)"/>
      </g>
     </g>
    </g>
    <g id="ytick_7">
     <g id="line2d_16">
      <g>
       <use xlink:href="#m4569b21fe2" x="70.609653" y="38.485022" style="stroke: #000000; stroke-width: 0.8"/>
      </g>
     </g>
     <g id="text_17">
      <!-- $\mathdefault{0.03}$ -->
      <g transform="translate(41.064802 42.982036) scale(0.13 -0.13)">
       <use xlink:href="#CMR17-30" transform="scale(0.996264)"/>
       <use xlink:href="#CMMI12-3a" transform="translate(45.690477 0) scale(0.996264)"/>
       <use xlink:href="#CMR17-30" transform="translate(72.787654 0) scale(0.996264)"/>
       <use xlink:href="#CMR17-33" transform="translate(118.478131 0) scale(0.996264)"/>
      </g>
     </g>
    </g>
    <g id="text_18">
     <!-- displacement (m) -->
     <g transform="translate(23.753574 218.783693) rotate(-90) scale(0.13 -0.13)">
      <defs>
       <path id="CMR17-64" d="M 1869 4326 
L 1869 4160 
C 2246 4160 2304 4122 2304 3820 
L 2304 2345 
C 2278 2377 2016 2790 1498 2790 
C 845 2790 211 2208 211 1364 
C 211 525 806 -64 1434 -64 
C 1978 -64 2259 337 2291 380 
L 2291 -63 
L 3066 -63 
L 3066 128 
C 2688 128 2630 166 2630 473 
L 2630 4396 
L 1869 4326 
z
M 2291 755 
C 2291 563 2176 390 2029 262 
C 1811 70 1594 38 1472 38 
C 1286 38 621 134 621 1356 
C 621 2612 1363 2688 1530 2688 
C 1824 2688 2061 2522 2208 2291 
C 2291 2157 2291 2138 2291 2023 
L 2291 755 
z
" transform="scale(0.015625)"/>
       <path id="CMR17-69" d="M 992 3909 
C 992 4049 877 4170 730 4170 
C 589 4170 467 4056 467 3909 
C 467 3769 582 3648 730 3648 
C 870 3648 992 3763 992 3909 
z
M 243 2706 
L 243 2541 
C 602 2541 653 2502 653 2197 
L 653 427 
C 653 184 627 153 218 153 
L 218 -13 
C 371 0 646 0 806 0 
C 960 0 1222 0 1370 -13 
L 1370 153 
C 992 153 979 191 979 420 
L 979 2776 
L 243 2706 
z
" transform="scale(0.015625)"/>
       <path id="CMR17-70" d="M 1408 -1063 
C 998 -1063 973 -1037 973 -789 
L 973 402 
C 1158 134 1427 -38 1766 -38 
C 2406 -38 3053 523 3053 1388 
C 3053 2191 2496 2802 1837 2802 
C 1453 2802 1139 2592 960 2338 
L 960 2802 
L 198 2732 
L 198 2567 
C 576 2567 634 2528 634 2223 
L 634 -789 
C 634 -1031 608 -1063 198 -1063 
L 198 -1228 
C 352 -1216 634 -1216 800 -1216 
C 966 -1216 1254 -1216 1408 -1228 
L 1408 -1063 
z
M 973 2012 
C 973 2102 973 2235 1222 2471 
C 1254 2497 1472 2688 1792 2688 
C 2259 2688 2643 2108 2643 1382 
C 2643 656 2234 64 1728 64 
C 1498 64 1248 172 1056 472 
C 973 612 973 650 973 752 
L 973 2012 
z
" transform="scale(0.015625)"/>
       <path id="CMR17-6c" d="M 979 4396 
L 218 4326 
L 218 4160 
C 595 4160 653 4122 653 3817 
L 653 426 
C 653 184 627 153 218 153 
L 218 -13 
C 371 0 653 0 813 0 
C 979 0 1261 0 1414 -13 
L 1414 153 
C 1005 153 979 178 979 426 
L 979 4396 
z
" transform="scale(0.015625)"/>
       <path id="CMR17-61" d="M 2304 1653 
C 2304 2072 2304 2294 2035 2543 
C 1798 2752 1523 2816 1306 2816 
C 800 2816 435 2407 435 1971 
C 435 1728 627 1728 666 1728 
C 749 1728 896 1778 896 1954 
C 896 2112 774 2181 666 2181 
C 640 2181 608 2174 589 2168 
C 723 2592 1069 2714 1293 2714 
C 1613 2714 1965 2429 1965 1885 
L 1965 1600 
C 1587 1600 1133 1549 774 1357 
C 371 1133 256 813 256 570 
C 256 77 832 -64 1171 -64 
C 1523 -64 1850 139 1990 511 
C 2003 233 2182 -18 2464 -18 
C 2598 -18 2938 70 2938 567 
L 2938 920 
L 2822 920 
L 2822 562 
C 2822 178 2650 128 2566 128 
C 2304 128 2304 458 2304 738 
L 2304 1653 
z
M 1965 870 
C 1965 317 1568 38 1216 38 
C 896 38 646 275 646 570 
C 646 761 730 1100 1101 1305 
C 1408 1478 1760 1504 1965 1504 
L 1965 870 
z
" transform="scale(0.015625)"/>
       <path id="CMR17-63" d="M 2234 2240 
C 2112 2240 1933 2240 1933 2017 
C 1933 1838 2080 1787 2163 1787 
C 2208 1787 2394 1807 2394 2024 
C 2394 2467 1958 2803 1466 2803 
C 787 2803 211 2178 211 1363 
C 211 516 813 -64 1466 -64 
C 2259 -64 2458 677 2458 748 
C 2458 774 2451 793 2406 793 
C 2362 793 2355 787 2330 703 
C 2163 180 1798 51 1523 51 
C 1114 51 621 427 621 1369 
C 621 2338 1094 2688 1472 2688 
C 1722 2688 2093 2573 2234 2240 
z
" transform="scale(0.015625)"/>
       <path id="CMR17-65" d="M 2438 1472 
C 2464 1498 2464 1511 2464 1576 
C 2464 2238 2118 2816 1389 2816 
C 710 2816 173 2169 173 1383 
C 173 551 781 -64 1459 -64 
C 2176 -64 2458 607 2458 740 
C 2458 784 2419 784 2406 784 
C 2362 784 2355 771 2330 696 
C 2189 265 1837 51 1504 51 
C 1229 51 954 203 781 480 
C 582 803 582 1176 582 1472 
L 2438 1472 
z
M 589 1568 
C 634 2505 1126 2714 1382 2714 
C 1818 2714 2112 2297 2118 1568 
L 589 1568 
z
" transform="scale(0.015625)"/>
       <path id="CMR17-6d" d="M 4326 1933 
C 4326 2252 4269 2790 3507 2790 
C 3072 2790 2771 2496 2656 2151 
L 2650 2151 
C 2573 2676 2195 2790 1837 2790 
C 1331 2790 1069 2400 973 2144 
L 966 2144 
L 966 2790 
L 211 2720 
L 211 2554 
C 589 2554 646 2515 646 2208 
L 646 428 
C 646 184 621 153 211 153 
L 211 -13 
C 365 0 646 0 813 0 
C 979 0 1267 0 1421 -13 
L 1421 153 
C 1011 153 986 178 986 428 
L 986 1658 
C 986 2247 1344 2688 1792 2688 
C 2266 2688 2317 2266 2317 1958 
L 2317 428 
C 2317 184 2291 153 1882 153 
L 1882 -13 
C 2035 0 2317 0 2483 0 
C 2650 0 2938 0 3091 -13 
L 3091 153 
C 2682 153 2656 178 2656 428 
L 2656 1658 
C 2656 2247 3014 2688 3462 2688 
C 3936 2688 3987 2266 3987 1958 
L 3987 428 
C 3987 184 3962 153 3552 153 
L 3552 -13 
C 3706 0 3987 0 4154 0 
C 4320 0 4608 0 4762 -13 
L 4762 153 
C 4352 153 4326 178 4326 428 
L 4326 1933 
z
" transform="scale(0.015625)"/>
       <path id="CMR17-6e" d="M 2656 1933 
C 2656 2259 2592 2790 1837 2790 
C 1331 2790 1069 2400 973 2144 
L 966 2144 
L 966 2790 
L 211 2720 
L 211 2554 
C 589 2554 646 2515 646 2208 
L 646 428 
C 646 184 621 153 211 153 
L 211 -13 
C 365 0 646 0 813 0 
C 979 0 1267 0 1421 -13 
L 1421 153 
C 1011 153 986 178 986 428 
L 986 1658 
C 986 2247 1344 2688 1792 2688 
C 2266 2688 2317 2266 2317 1958 
L 2317 428 
C 2317 184 2291 153 1882 153 
L 1882 -13 
C 2035 0 2317 0 2483 0 
C 2650 0 2938 0 3091 -13 
L 3091 153 
C 2682 153 2656 178 2656 428 
L 2656 1933 
z
" transform="scale(0.015625)"/>
       <path id="CMR17-74" d="M 966 2560 
L 1862 2560 
L 1862 2725 
L 966 2725 
L 966 3904 
L 851 3904 
C 838 3245 614 2668 70 2668 
L 70 2560 
L 627 2560 
L 627 771 
C 627 650 627 -64 1370 -64 
C 1747 -64 1965 306 1965 777 
L 1965 1140 
L 1850 1140 
L 1850 783 
C 1850 344 1677 51 1408 51 
C 1222 51 966 178 966 758 
L 966 2560 
z
" transform="scale(0.015625)"/>
      </defs>
      <use xlink:href="#CMR17-64" transform="scale(0.996264)"/>
      <use xlink:href="#CMR17-69" transform="translate(50.89537 0) scale(0.996264)"/>
      <use xlink:href="#CMR17-73" transform="translate(75.766428 0) scale(0.996264)"/>
      <use xlink:href="#CMR17-70" transform="translate(111.567766 0) scale(0.996264)"/>
      <use xlink:href="#CMR17-6c" transform="translate(162.463136 0) scale(0.996264)"/>
      <use xlink:href="#CMR17-61" transform="translate(187.334194 0) scale(0.996264)"/>
      <use xlink:href="#CMR17-63" transform="translate(233.024671 0) scale(0.996264)"/>
      <use xlink:href="#CMR17-65" transform="translate(273.510332 0) scale(0.996264)"/>
      <use xlink:href="#CMR17-6d" transform="translate(313.995992 0) scale(0.996264)"/>
      <use xlink:href="#CMR17-65" transform="translate(390.915582 0) scale(0.996264)"/>
      <use xlink:href="#CMR17-6e" transform="translate(431.401243 0) scale(0.996264)"/>
      <use xlink:href="#CMR17-74" transform="translate(479.694158 0) scale(0.996264)"/>
      <use xlink:href="#CMR17-28" transform="translate(545.050893 0) scale(0.996264)"/>
      <use xlink:href="#CMR17-6d" transform="translate(580.33166 0) scale(0.996264)"/>
      <use xlink:href="#CMR17-29" transform="translate(657.25125 0) scale(0.996264)"/>
     </g>
    </g>
   </g>
   <g id="line2d_17">
    <path d="M 106.034669 194.191037 
L 107.810359 207.959724 
L 109.586049 219.115344 
L 111.361739 228.266443 
L 113.137429 236.021568 
L 120.240189 263.762444 
L 122.015879 270.12526 
L 123.791569 275.229725 
L 125.567259 277.769394 
L 127.342949 276.278445 
L 129.118639 269.833911 
L 130.894329 259.684251 
L 134.445709 234.969472 
L 136.221399 221.194872 
L 137.997089 205.296188 
L 139.772779 186.658707 
L 148.651229 83.396938 
L 150.426919 62.315403 
L 152.202609 47.21327 
L 153.978299 43.544812 
L 155.753989 49.071112 
L 157.529679 59.629956 
L 161.08106 84.364317 
L 166.40813 123.922427 
L 168.18382 138.285308 
L 173.51089 184.164533 
L 175.28658 197.422856 
L 177.06227 209.052177 
L 178.83796 219.220526 
L 180.61365 227.886356 
L 182.38934 234.1698 
L 184.16503 236.981412 
L 185.94072 235.827878 
L 187.71641 232.60041 
L 189.4921 229.786353 
L 191.26779 229.242076 
L 193.04348 230.300038 
L 194.81917 231.661726 
L 196.59486 232.290309 
L 198.37055 232.195693 
L 200.14624 231.649469 
L 201.92193 230.799828 
L 203.69762 229.301358 
L 205.47331 226.685246 
L 207.249 222.585214 
L 209.02469 217.045126 
L 210.80038 210.211381 
L 212.57607 202.062124 
L 214.35176 191.902491 
L 216.12745 178.869362 
L 217.90314 162.503486 
L 225.0059 89.248963 
L 226.78159 73.738154 
L 228.55728 60.965781 
L 230.33297 55.143769 
L 232.10866 59.806916 
L 233.88435 72.68409 
L 235.66004 90.052674 
L 240.98711 145.970661 
L 242.7628 163.394181 
L 244.53849 179.262601 
L 246.31418 193.02659 
L 248.08987 204.290047 
L 249.86556 213.269809 
L 251.64125 220.335944 
L 253.41694 225.827816 
L 255.19263 229.961967 
L 256.96832 232.924233 
L 258.74401 234.837352 
L 260.5197 235.57167 
L 262.29539 234.934436 
L 264.07108 232.847571 
L 265.84677 229.691685 
L 269.39815 222.013531 
L 271.17384 217.639081 
L 272.94953 212.491246 
L 274.72522 206.379632 
L 278.2766 193.173678 
L 280.05229 187.160496 
L 281.82798 181.753768 
L 285.37936 172.281658 
L 287.15505 166.614583 
L 288.93074 158.350574 
L 290.70643 146.729856 
L 292.48212 134.13007 
L 294.25781 123.061029 
L 296.0335 113.42381 
L 299.584881 95.77167 
L 301.360571 88.242091 
L 303.136261 83.11502 
L 304.911951 81.485755 
L 306.687641 83.885002 
L 308.463331 90.702313 
L 310.239021 102.008547 
L 312.014711 116.599773 
L 319.117471 181.50469 
L 320.893161 195.439265 
L 322.668851 207.690606 
L 324.444541 218.14188 
L 326.220231 226.731407 
L 327.995921 233.618126 
L 329.771611 239.016131 
L 331.547301 243.086353 
L 333.322991 245.777071 
L 335.098681 246.983402 
L 336.874371 246.541866 
L 338.650061 244.054604 
L 340.425751 239.06516 
L 342.201441 231.426414 
L 347.528511 204.266999 
L 349.304201 195.381042 
L 351.079891 184.691599 
L 352.855581 171.729786 
L 354.631271 160.238205 
L 356.406961 153.746449 
L 358.182651 150.720596 
L 359.958341 148.360842 
L 361.734031 144.598141 
L 363.509721 140.286465 
L 365.285411 137.010545 
L 367.061101 135.883836 
L 368.836791 136.134706 
L 370.612481 136.520251 
L 372.388171 136.112046 
L 374.163861 135.239579 
L 375.939551 134.546819 
L 377.715241 134.592939 
L 379.490931 135.597922 
L 381.266621 137.696956 
L 383.042311 140.889229 
L 386.593691 148.238269 
L 388.369381 151.231847 
L 390.145071 153.921982 
L 391.920761 156.818407 
L 393.696451 160.752841 
L 395.472141 167.844944 
L 397.247831 180.53636 
L 399.023521 199.924931 
L 400.799211 221.733281 
L 402.574901 241.056086 
L 404.350591 255.851446 
L 406.126281 264.793317 
L 407.901971 267.186046 
L 409.677661 264.855541 
L 411.453351 260.258101 
L 413.229041 255.293433 
L 415.004731 249.634871 
L 416.780421 242.399157 
L 418.556111 233.042863 
L 425.658871 190.517271 
L 427.434561 177.619113 
L 429.210251 161.721704 
L 432.761631 128.393635 
L 434.537321 115.321452 
L 436.313012 105.913858 
L 438.088702 100.422384 
L 439.864392 98.926906 
L 441.640082 100.820684 
L 443.415772 105.32532 
L 445.191462 111.876018 
L 446.967152 120.762375 
L 448.742842 132.487586 
L 450.518532 146.541782 
L 452.294222 158.362832 
L 454.069912 163.862477 
L 455.845602 164.900207 
L 457.621292 164.82245 
L 459.396982 166.254684 
L 461.172672 168.938599 
L 462.948362 171.894935 
L 464.724052 174.533944 
L 466.499742 177.823918 
L 468.275432 183.122659 
L 470.051122 191.235972 
L 473.602502 209.745602 
L 475.378192 216.700104 
L 477.153882 222.003686 
L 480.705262 230.738732 
L 482.480952 234.063208 
L 484.256642 235.522789 
L 486.032332 234.453876 
L 487.808022 231.346576 
L 489.583712 226.979422 
L 491.359402 221.964074 
L 493.135092 216.244679 
L 494.910782 209.598514 
L 496.686472 201.79242 
L 498.462162 192.551517 
L 500.237852 181.590491 
L 502.013542 168.540725 
L 503.789232 152.700381 
L 505.564922 133.284313 
L 507.340612 110.723085 
L 509.116302 90.310078 
L 510.891992 77.28515 
L 512.667682 71.811246 
L 514.443372 72.782082 
L 516.219062 79.066504 
L 517.994752 89.43388 
L 519.770442 102.628705 
L 525.097512 146.215807 
L 526.873202 157.893429 
L 528.648892 167.474149 
L 530.424582 175.326991 
L 532.200272 181.795893 
L 533.975962 187.124456 
L 535.751652 191.531194 
L 537.527342 195.265225 
L 541.078722 202.231852 
L 544.630102 209.923707 
L 546.405792 213.116371 
L 548.181482 215.312472 
L 551.732862 218.448314 
L 557.059932 224.221521 
L 558.835622 225.296831 
L 560.611312 225.113187 
L 562.387002 223.093846 
L 564.162692 218.901917 
L 565.938382 213.159936 
L 571.265452 193.571366 
L 573.041142 186.248281 
L 574.816833 177.724571 
L 576.592523 166.755473 
L 578.368213 151.927728 
L 581.919593 114.260921 
L 583.695283 100.227231 
L 585.470973 91.167206 
L 587.246663 86.326443 
L 589.022353 85.095769 
L 590.798043 87.446951 
L 592.573733 93.496987 
L 594.349423 103.138248 
L 596.125113 115.364584 
L 603.227873 169.382181 
L 605.003563 181.446346 
L 606.779253 192.523776 
L 608.554943 202.61183 
L 610.330633 211.569129 
L 612.106323 218.69934 
L 613.882013 223.16739 
L 615.657703 224.509493 
L 617.433393 223.747015 
L 619.209083 222.272604 
L 620.984773 221.20797 
L 622.760463 220.591054 
L 626.311843 219.748139 
L 628.087533 218.93472 
L 629.863223 217.394182 
L 631.638913 214.544267 
L 633.414603 208.891358 
L 635.190293 198.713996 
L 636.965983 184.007905 
L 638.741673 171.637531 
L 640.517363 167.923752 
L 642.293053 170.144457 
L 644.068743 173.316787 
L 645.844433 173.488839 
L 647.620123 170.83253 
L 649.395813 166.550735 
L 651.171503 161.546387 
L 652.947193 155.522664 
L 654.722883 147.882806 
L 660.049953 119.286431 
L 661.825643 112.590815 
L 663.601333 108.311074 
L 665.377023 106.207849 
L 667.152713 106.145574 
L 668.928403 108.403867 
L 670.704093 113.366135 
L 672.479783 121.271914 
L 674.255473 131.785231 
L 676.031163 144.426236 
L 681.358233 186.346339 
L 683.133923 197.604256 
L 684.909613 207.135875 
L 686.685303 215.65364 
L 688.460993 223.612277 
L 690.236683 230.435648 
L 692.012373 235.289899 
L 693.788063 237.593175 
L 695.563753 237.77162 
L 697.339443 236.503376 
L 699.115133 234.273787 
L 700.890823 230.796995 
L 702.666513 225.594343 
L 704.442203 218.26511 
L 706.217893 208.720322 
L 707.993583 196.948939 
L 709.769273 183.600703 
L 711.544963 171.968479 
L 713.320654 165.023726 
L 715.096344 161.809156 
L 716.872034 160.385293 
L 718.647724 159.107399 
L 720.423414 157.509678 
L 722.199104 155.42107 
L 725.750484 150.35822 
L 727.526174 148.789849 
L 729.301864 148.559235 
L 731.077554 148.711448 
L 732.853244 147.944092 
L 734.628934 145.413962 
L 736.404624 142.114612 
L 738.180314 139.498785 
L 739.956004 138.670771 
L 741.731694 139.34104 
L 743.507384 140.871607 
L 745.283074 142.814597 
L 747.058764 145.482571 
L 748.834454 149.378201 
L 750.610144 154.985772 
L 752.385834 162.716026 
L 754.161524 172.961324 
L 759.488594 210.734015 
L 761.264284 220.361865 
L 763.039974 227.396172 
L 764.815664 231.614308 
L 766.591354 233.542117 
L 768.367044 233.892562 
L 770.142734 233.19733 
L 771.918424 231.262997 
L 773.694114 227.714863 
L 775.469804 222.384361 
L 780.796874 202.709767 
L 782.572564 195.434307 
L 784.348254 186.003134 
L 786.123944 173.641335 
L 787.899634 159.981402 
L 789.675324 147.257681 
L 791.451014 137.271882 
L 793.226704 130.095169 
L 795.002394 125.366072 
L 796.778084 122.734578 
L 798.553774 121.896508 
L 800.329464 122.559141 
L 802.105154 124.497866 
L 803.880844 127.760525 
L 805.656534 132.463072 
L 807.432224 138.552067 
L 812.759294 158.43225 
L 814.534984 164.785678 
L 814.534984 164.785678 
" clip-path="url(#p96f976a4a5)" style="fill: none; stroke: #ff0000; stroke-linecap: square"/>
   </g>
   <g id="line2d_18">
    <path d="M 106.034669 230.509536 
L 107.810359 250.625549 
L 109.586049 266.055426 
L 111.361739 277.301933 
L 113.137429 284.867833 
L 114.913119 289.255889 
L 116.688809 290.968867 
L 118.464499 290.285734 
L 120.240189 286.590274 
L 122.015879 279.042475 
L 123.791569 267.136168 
L 125.567259 251.700558 
L 127.342949 233.898691 
L 130.894329 194.974788 
L 134.445709 155.710715 
L 136.221399 139.731022 
L 137.997089 130.005475 
L 139.772779 128.275425 
L 141.548469 131.380036 
L 143.324159 134.932926 
L 145.099849 135.558519 
L 146.875539 133.924471 
L 148.651229 131.709245 
L 150.426919 129.771527 
L 152.202609 125.690891 
L 153.978299 117.1615 
L 159.305369 82.593049 
L 161.08106 73.800919 
L 162.85675 67.358209 
L 164.63244 63.886351 
L 166.40813 65.223359 
L 168.18382 73.511394 
L 169.95951 90.033371 
L 171.7352 112.635237 
L 177.06227 188.577198 
L 178.83796 209.6169 
L 180.61365 226.252372 
L 182.38934 239.58714 
L 185.94072 262.648655 
L 187.71641 273.655264 
L 189.4921 283.920897 
L 191.26779 292.700667 
L 193.04348 297.784255 
L 194.81917 296.594987 
L 196.59486 287.351007 
L 198.37055 271.449752 
L 200.14624 251.083482 
L 207.249 160.032183 
L 209.02469 141.852557 
L 210.80038 128.240418 
L 212.57607 119.84998 
L 216.12745 109.24154 
L 219.67883 94.80291 
L 221.45452 89.862685 
L 223.23021 89.571096 
L 225.0059 94.928513 
L 226.78159 106.61847 
L 230.33297 140.387442 
L 232.10866 150.018831 
L 233.88435 153.88487 
L 235.66004 154.851104 
L 237.43573 155.338706 
L 239.21142 155.991365 
L 240.98711 157.008396 
L 242.7628 158.799354 
L 244.53849 162.614761 
L 246.31418 169.915375 
L 248.08987 181.394921 
L 249.86556 194.678982 
L 251.64125 206.626109 
L 253.41694 215.061033 
L 255.19263 221.673222 
L 256.96832 229.118328 
L 258.74401 239.197851 
L 260.5197 250.296676 
L 262.29539 259.945539 
L 264.07108 266.371439 
L 265.84677 270.586444 
L 267.62246 274.298885 
L 269.39815 278.43247 
L 271.17384 280.772411 
L 272.94953 278.319292 
L 274.72522 269.056399 
L 276.50091 254.897819 
L 281.82798 206.055034 
L 283.60367 187.124681 
L 287.15505 143.110701 
L 288.93074 124.354841 
L 290.70643 111.250048 
L 294.25781 90.272433 
L 296.0335 82.232057 
L 297.80919 80.816768 
L 299.584881 88.651713 
L 301.360571 102.492078 
L 303.136261 117.625561 
L 304.911951 130.431467 
L 308.463331 153.135076 
L 312.014711 178.14246 
L 313.790401 187.002107 
L 315.566091 190.829782 
L 317.341781 191.987885 
L 319.117471 193.85396 
L 320.893161 198.858646 
L 322.668851 205.644962 
L 324.444541 211.909023 
L 326.220231 215.904926 
L 327.995921 218.118705 
L 329.771611 219.594375 
L 331.547301 221.22904 
L 333.322991 223.332152 
L 335.098681 226.066251 
L 336.874371 229.553631 
L 338.650061 233.755608 
L 340.425751 238.593252 
L 342.201441 243.758019 
L 343.977131 248.022905 
L 345.752821 249.931292 
L 347.528511 248.026923 
L 349.304201 240.854988 
L 351.079891 226.961036 
L 352.855581 206.249502 
L 354.631271 184.060345 
L 356.406961 165.641483 
L 358.182651 150.43713 
L 363.509721 108.825681 
L 365.285411 97.76867 
L 367.061101 90.294167 
L 368.836791 86.195967 
L 370.612481 84.91072 
L 372.388171 86.07765 
L 374.163861 90.146271 
L 375.939551 97.76867 
L 377.715241 109.215062 
L 379.490931 123.228175 
L 383.042311 152.63835 
L 384.818001 166.199328 
L 386.593691 178.654858 
L 388.369381 189.899379 
L 391.920761 209.886561 
L 395.472141 228.097075 
L 397.247831 236.239843 
L 400.799211 250.605446 
L 402.574901 257.582032 
L 404.350591 263.139667 
L 406.126281 265.510372 
L 407.901971 263.502336 
L 409.677661 258.228421 
L 418.556111 224.08358 
L 420.331801 217.826854 
L 422.107491 212.129655 
L 423.883181 207.110617 
L 429.210251 193.131378 
L 430.985941 187.379998 
L 432.761631 180.113482 
L 434.537321 171.075487 
L 436.313012 161.452536 
L 438.088702 152.79187 
L 439.864392 146.099761 
L 441.640082 140.218594 
L 443.415772 133.449787 
L 446.967152 115.989589 
L 448.742842 109.511202 
L 450.518532 107.366059 
L 452.294222 109.817635 
L 454.069912 116.564539 
L 455.845602 126.797071 
L 457.621292 139.578458 
L 459.396982 154.069223 
L 462.948362 186.475042 
L 466.499742 219.454918 
L 468.275432 232.820045 
L 470.051122 242.503259 
L 471.826812 249.474536 
L 475.378192 260.70612 
L 477.153882 264.94821 
L 478.929572 266.44193 
L 480.705262 263.880452 
L 482.480952 256.723837 
L 484.256642 244.623864 
L 486.032332 227.842166 
L 487.808022 209.079791 
L 489.583712 191.647639 
L 491.359402 178.214344 
L 493.135092 168.879465 
L 494.910782 163.100294 
L 496.686472 160.428863 
L 498.462162 160.796174 
L 500.237852 164.227969 
L 502.013542 169.970963 
L 503.789232 174.155764 
L 505.564922 172.133953 
L 507.340612 161.457171 
L 509.116302 148.477287 
L 510.891992 140.158327 
L 512.667682 137.112717 
L 514.443372 138.364981 
L 517.994752 146.456468 
L 519.770442 146.6632 
L 521.546132 141.016228 
L 523.321822 133.041646 
L 525.097512 127.67658 
L 526.873202 128.482539 
L 528.648892 133.518579 
L 530.424582 139.468142 
L 532.200272 144.324133 
L 533.975962 151.317317 
L 535.751652 164.987924 
L 537.527342 187.880686 
L 539.303032 214.558346 
L 541.078722 237.58815 
L 542.854412 251.54981 
L 544.630102 259.072897 
L 546.405792 264.799446 
L 548.181482 272.041655 
L 549.957172 278.792364 
L 551.732862 281.714576 
L 553.508552 278.682177 
L 555.284242 272.412601 
L 557.059932 266.834164 
L 558.835622 264.321294 
L 560.611312 261.032844 
L 562.387002 251.573776 
L 564.162692 232.29964 
L 569.489762 155.106498 
L 573.041142 112.575537 
L 574.816833 92.986056 
L 576.592523 78.607463 
L 578.368213 74.675841 
L 580.143903 83.728951 
L 581.919593 97.511266 
L 583.695283 107.270429 
L 585.470973 113.060059 
L 589.022353 121.222282 
L 590.798043 124.931799 
L 592.573733 127.345632 
L 594.349423 128.036133 
L 596.125113 128.537819 
L 597.900803 130.875746 
L 599.676493 136.606389 
L 601.452183 145.411898 
L 603.227873 156.505845 
L 606.779253 180.855811 
L 608.554943 190.39739 
L 610.330633 196.355661 
L 612.106323 200.667961 
L 613.882013 206.050014 
L 615.657703 214.436475 
L 619.209083 234.683161 
L 620.984773 243.028071 
L 622.760463 249.831876 
L 624.536153 255.679985 
L 626.311843 260.889457 
L 628.087533 264.703939 
L 629.863223 266.098724 
L 631.638913 264.150373 
L 633.414603 258.340513 
L 635.190293 248.252037 
L 636.965983 233.269307 
L 638.741673 211.982567 
L 642.293053 154.846324 
L 644.068743 130.606085 
L 645.844433 116.138602 
L 647.620123 109.169699 
L 651.171503 102.422967 
L 652.947193 99.361003 
L 654.722883 97.229347 
L 656.498573 96.629731 
L 658.274263 97.608475 
L 660.049953 100.07305 
L 661.825643 104.057566 
L 663.601333 110.10271 
L 665.377023 118.87581 
L 668.928403 142.28509 
L 670.704093 151.394534 
L 672.479783 155.58466 
L 674.255473 156.335958 
L 676.031163 156.040066 
L 677.806853 156.711745 
L 679.582543 158.85826 
L 681.358233 162.61 
L 683.133923 167.989135 
L 684.909613 174.584957 
L 688.460993 189.463399 
L 692.012373 205.79261 
L 695.563753 224.327025 
L 700.890823 253.456013 
L 702.666513 260.754524 
L 704.442203 264.616898 
L 706.217893 261.675466 
L 707.993583 248.104948 
L 711.544963 198.340147 
L 713.320654 184.184621 
L 715.096344 174.847121 
L 716.872034 160.403679 
L 718.647724 134.267398 
L 720.423414 103.199659 
L 722.199104 77.298912 
L 723.974794 64.097869 
L 725.750484 60.866287 
L 727.526174 62.308185 
L 729.301864 64.453676 
L 731.077554 68.637263 
L 732.853244 77.519544 
L 734.628934 92.409363 
L 736.404624 109.208557 
L 738.180314 122.467211 
L 739.956004 128.588661 
L 741.731694 131.389267 
L 743.507384 136.538637 
L 745.283074 148.194408 
L 747.058764 164.466306 
L 748.834454 181.952083 
L 750.610144 197.439169 
L 752.385834 208.473715 
L 754.161524 212.791551 
L 755.937214 209.73923 
L 757.712904 205.106199 
L 759.488594 204.774697 
L 761.264284 208.555253 
L 763.039974 214.740468 
L 766.591354 228.388828 
L 768.367044 233.665802 
L 770.142734 236.802894 
L 771.918424 238.135744 
L 773.694114 238.274562 
L 775.469804 237.670974 
L 777.245494 236.142259 
L 779.021184 233.347111 
L 780.796874 228.95897 
L 782.572564 222.710281 
L 784.348254 214.348233 
L 786.123944 204.166774 
L 787.899634 194.646858 
L 789.675324 188.816194 
L 791.451014 187.961514 
L 793.226704 186.40565 
L 795.002394 176.730456 
L 796.778084 154.397104 
L 798.553774 126.384041 
L 800.329464 102.549033 
L 802.105154 89.667416 
L 803.880844 82.184813 
L 805.656534 71.464418 
L 807.432224 53.775681 
L 809.207914 45.013077 
L 810.983604 59.874213 
L 812.759294 88.644204 
L 814.534984 115.505041 
L 814.534984 115.505041 
" clip-path="url(#p96f976a4a5)" style="fill: none; stroke: #00008b; stroke-linecap: square"/>
   </g>
   <g id="patch_3">
    <path d="M 70.609653 310.496228 
L 70.609653 30.83284 
" style="fill: none; stroke: #000000; stroke-width: 0.8; stroke-linejoin: miter; stroke-linecap: square"/>
   </g>
   <g id="patch_4">
    <path d="M 849.96 310.496228 
L 849.96 30.83284 
" style="fill: none; stroke: #000000; stroke-width: 0.8; stroke-linejoin: miter; stroke-linecap: square"/>
   </g>
   <g id="patch_5">
    <path d="M 70.609653 310.496228 
L 849.96 310.496228 
" style="fill: none; stroke: #000000; stroke-width: 0.8; stroke-linejoin: miter; stroke-linecap: square"/>
   </g>
   <g id="patch_6">
    <path d="M 70.609653 30.83284 
L 849.96 30.83284 
" style="fill: none; stroke: #000000; stroke-width: 0.8; stroke-linejoin: miter; stroke-linecap: square"/>
   </g>
   <g id="text_19">
    <!-- Shifted data -->
    <g transform="translate(419.492736 24.83284) scale(0.156 -0.156)">
     <defs>
      <path id="CMR17-53" d="M 2803 4290 
C 2803 4404 2797 4411 2758 4411 
C 2720 4411 2707 4385 2682 4328 
L 2490 3907 
C 2246 4257 1875 4416 1472 4416 
C 819 4416 294 3901 294 3253 
C 294 3056 339 2776 557 2510 
C 794 2218 1018 2167 1530 2033 
C 1722 1982 2042 1899 2106 1874 
C 2470 1722 2662 1341 2662 985 
C 2662 527 2336 38 1779 38 
C 1094 38 454 419 410 1311 
C 403 1413 397 1419 352 1419 
C 301 1419 294 1413 294 1285 
L 294 -1 
C 294 -115 301 -122 339 -122 
C 384 -122 397 -90 486 108 
C 493 127 493 140 614 381 
C 934 -39 1472 -128 1779 -128 
C 2477 -128 2970 451 2970 1124 
C 2970 1454 2848 1708 2778 1823 
C 2509 2230 2221 2306 1914 2382 
C 1869 2402 1856 2402 1498 2490 
C 1152 2579 1005 2624 845 2796 
C 666 2992 602 3196 602 3399 
C 602 3812 934 4263 1478 4263 
C 2157 4263 2579 3786 2675 2993 
C 2694 2878 2701 2872 2746 2872 
C 2803 2872 2803 2891 2803 2999 
L 2803 4290 
z
" transform="scale(0.015625)"/>
      <path id="CMR17-68" d="M 2656 1933 
C 2656 2259 2592 2790 1837 2790 
C 1312 2790 1056 2368 979 2157 
L 973 2157 
L 973 4396 
L 211 4326 
L 211 4160 
C 589 4160 646 4122 646 3817 
L 646 426 
C 646 184 621 153 211 153 
L 211 -13 
C 365 0 646 0 813 0 
C 979 0 1267 0 1421 -13 
L 1421 153 
C 1011 153 986 178 986 428 
L 986 1658 
C 986 2247 1344 2688 1792 2688 
C 2266 2688 2317 2266 2317 1958 
L 2317 428 
C 2317 184 2291 153 1882 153 
L 1882 -13 
C 2035 0 2317 0 2483 0 
C 2650 0 2938 0 3091 -13 
L 3091 153 
C 2682 153 2656 178 2656 428 
L 2656 1933 
z
" transform="scale(0.015625)"/>
      <path id="CMR17-66" d="M 979 2560 
L 1709 2560 
L 1709 2725 
L 966 2725 
L 966 3494 
C 966 4022 1235 4352 1510 4352 
C 1594 4352 1690 4327 1754 4282 
C 1702 4269 1568 4225 1568 4067 
C 1568 3901 1696 3850 1786 3850 
C 1875 3850 2003 3901 2003 4067 
C 2003 4308 1773 4454 1517 4454 
C 1152 4454 653 4156 653 3481 
L 653 2725 
L 141 2725 
L 141 2560 
L 653 2560 
L 653 427 
C 653 184 627 153 218 153 
L 218 -13 
C 371 0 666 0 832 0 
C 1018 0 1344 0 1517 -13 
L 1517 153 
C 1056 153 979 153 979 439 
L 979 2560 
z
" transform="scale(0.015625)"/>
     </defs>
     <use xlink:href="#CMR17-53" transform="scale(0.996264)"/>
     <use xlink:href="#CMR17-68" transform="translate(50.89537 0) scale(0.996264)"/>
     <use xlink:href="#CMR17-69" transform="translate(101.79074 0) scale(0.996264)"/>
     <use xlink:href="#CMR17-66" transform="translate(126.661798 0) scale(0.996264)"/>
     <use xlink:href="#CMR17-74" transform="translate(154.13531 0) scale(0.996264)"/>
     <use xlink:href="#CMR17-65" transform="translate(189.416078 0) scale(0.996264)"/>
     <use xlink:href="#CMR17-64" transform="translate(229.901739 0) scale(0.996264)"/>
     <use xlink:href="#CMR17-64" transform="translate(310.873075 0) scale(0.996264)"/>
     <use xlink:href="#CMR17-61" transform="translate(361.768445 0) scale(0.996264)"/>
     <use xlink:href="#CMR17-74" transform="translate(407.458922 0) scale(0.996264)"/>
     <use xlink:href="#CMR17-61" transform="translate(442.73969 0) scale(0.996264)"/>
    </g>
   </g>
   <g id="legend_1">
    <g id="patch_7">
     <path d="M 787.39472 77.469464 
L 840.86 77.469464 
Q 843.46 77.469464 843.46 74.869464 
L 843.46 39.93284 
Q 843.46 37.33284 840.86 37.33284 
L 787.39472 37.33284 
Q 784.79472 37.33284 784.79472 39.93284 
L 784.79472 74.869464 
Q 784.79472 77.469464 787.39472 77.469464 
z
" style="fill: #ffffff; opacity: 0.8; stroke: #cccccc; stroke-linejoin: miter"/>
    </g>
    <g id="line2d_19">
     <path d="M 789.99472 47.08284 
L 802.99472 47.08284 
L 815.99472 47.08284 
" style="fill: none; stroke: #ff0000; stroke-linecap: square"/>
    </g>
    <g id="text_20">
     <!-- $x_1$ -->
     <g transform="translate(826.39472 51.63284) scale(0.13 -0.13)">
      <defs>
       <path id="CMMI12-78" d="M 3034 2606 
C 2829 2567 2752 2414 2752 2293 
C 2752 2139 2874 2088 2963 2088 
C 3155 2088 3290 2254 3290 2427 
C 3290 2695 2982 2816 2714 2816 
C 2323 2816 2106 2433 2048 2312 
C 1901 2816 1504 2816 1389 2816 
C 736 2816 390 1980 390 1839 
C 390 1814 416 1782 461 1782 
C 512 1782 525 1820 538 1846 
C 755 2555 1184 2689 1370 2689 
C 1658 2689 1715 2420 1715 2267 
C 1715 2127 1677 1980 1600 1673 
L 1382 798 
C 1286 415 1101 64 762 64 
C 730 64 570 64 435 147 
C 666 192 717 383 717 460 
C 717 588 621 664 499 664 
C 346 664 179 530 179 326 
C 179 57 480 -64 755 -64 
C 1062 -64 1280 179 1414 441 
C 1517 64 1837 -64 2074 -64 
C 2726 -64 3072 773 3072 913 
C 3072 945 3046 971 3008 971 
C 2950 971 2944 939 2925 888 
C 2752 326 2381 64 2093 64 
C 1869 64 1747 230 1747 492 
C 1747 632 1773 734 1875 1156 
L 2099 2024 
C 2195 2408 2413 2689 2707 2689 
C 2720 2689 2899 2689 3034 2606 
z
" transform="scale(0.015625)"/>
      </defs>
      <use xlink:href="#CMMI12-78" transform="scale(0.996264)"/>
      <use xlink:href="#CMR17-31" transform="translate(55.43406 -14.943915) scale(0.697382)"/>
     </g>
    </g>
    <g id="line2d_20">
     <path d="M 789.99472 65.201152 
L 802.99472 65.201152 
L 815.99472 65.201152 
" style="fill: none; stroke: #00008b; stroke-linecap: square"/>
    </g>
    <g id="text_21">
     <!-- $x_2$ -->
     <g transform="translate(826.39472 69.751152) scale(0.13 -0.13)">
      <use xlink:href="#CMMI12-78" transform="scale(0.996264)"/>
      <use xlink:href="#CMR17-32" transform="translate(55.43406 -14.943915) scale(0.697382)"/>
     </g>
    </g>
   </g>
  </g>
 </g>
 <defs>
  <clipPath id="p96f976a4a5">
   <rect x="70.609653" y="30.83284" width="779.350347" height="279.663388"/>
  </clipPath>
 </defs>
</svg>
