<?xml version="1.0" encoding="utf-8" standalone="no"?>
<!DOCTYPE svg PUBLIC "-//W3C//DTD SVG 1.1//EN"
  "http://www.w3.org/Graphics/SVG/1.1/DTD/svg11.dtd">
<svg xmlns:xlink="http://www.w3.org/1999/xlink" width="864pt" height="360pt" viewBox="0 0 864 360" xmlns="http://www.w3.org/2000/svg" version="1.1">
 <metadata>
  <rdf:RDF xmlns:dc="http://purl.org/dc/elements/1.1/" xmlns:cc="http://creativecommons.org/ns#" xmlns:rdf="http://www.w3.org/1999/02/22-rdf-syntax-ns#">
   <cc:Work>
    <dc:type rdf:resource="http://purl.org/dc/dcmitype/StillImage"/>
    <dc:date>2023-07-26T17:18:38.427313</dc:date>
    <dc:format>image/svg+xml</dc:format>
    <dc:creator>
     <cc:Agent>
      <dc:title>Matplotlib v3.7.1, https://matplotlib.org/</dc:title>
     </cc:Agent>
    </dc:creator>
   </cc:Work>
  </rdf:RDF>
 </metadata>
 <defs>
  <style type="text/css">*{stroke-linejoin: round; stroke-linecap: butt}</style>
 </defs>
 <g id="figure_1">
  <g id="patch_1">
   <path d="M 0 360 
L 864 360 
L 864 0 
L 0 0 
z
" style="fill: #ffffff"/>
  </g>
  <g id="axes_1">
   <g id="patch_2">
    <path d="M 108 320.4 
L 777.6 320.4 
L 777.6 43.2 
L 108 43.2 
z
" style="fill: #ffffff"/>
   </g>
   <g id="matplotlib.axis_1">
    <g id="xtick_1">
     <g id="line2d_1">
      <path d="M 138.436364 320.4 
L 138.436364 43.2 
" clip-path="url(#p420d2bfd35)" style="fill: none; stroke: #b0b0b0; stroke-width: 0.8; stroke-linecap: square"/>
     </g>
     <g id="line2d_2">
      <defs>
       <path id="m70c921d6be" d="M 0 0 
L 0 3.5 
" style="stroke: #000000; stroke-width: 0.8"/>
      </defs>
      <g>
       <use xlink:href="#m70c921d6be" x="138.436364" y="320.4" style="stroke: #000000; stroke-width: 0.8"/>
      </g>
     </g>
     <g id="text_1">
      <!-- $\mathdefault{1.5}$ -->
      <g transform="translate(130.334308 336.394028) scale(0.13 -0.13)">
       <defs>
        <path id="CMR17-31" d="M 1702 4058 
C 1702 4192 1696 4192 1606 4192 
C 1357 3916 979 3827 621 3827 
C 602 3827 570 3827 563 3808 
C 557 3795 557 3782 557 3648 
C 755 3648 1088 3686 1344 3839 
L 1344 461 
C 1344 236 1331 160 781 160 
L 589 160 
L 589 0 
C 896 0 1216 0 1523 0 
C 1830 0 2150 0 2458 0 
L 2458 160 
L 2266 160 
C 1715 160 1702 230 1702 458 
L 1702 4058 
z
" transform="scale(0.015625)"/>
        <path id="CMMI12-3a" d="M 1178 307 
C 1178 492 1024 619 870 619 
C 685 619 557 466 557 313 
C 557 128 710 0 864 0 
C 1050 0 1178 153 1178 307 
z
" transform="scale(0.015625)"/>
        <path id="CMR17-35" d="M 730 3692 
C 794 3666 1056 3584 1325 3584 
C 1920 3584 2246 3911 2432 4100 
C 2432 4157 2432 4192 2394 4192 
C 2387 4192 2374 4192 2323 4163 
C 2099 4058 1837 3973 1517 3973 
C 1325 3973 1037 3999 723 4139 
C 653 4171 640 4171 634 4171 
C 602 4171 595 4164 595 4037 
L 595 2203 
C 595 2089 595 2057 659 2057 
C 691 2057 704 2070 736 2114 
C 941 2401 1222 2522 1542 2522 
C 1766 2522 2246 2382 2246 1289 
C 2246 1085 2246 715 2054 421 
C 1894 159 1645 25 1370 25 
C 947 25 518 320 403 814 
C 429 807 480 795 506 795 
C 589 795 749 840 749 1038 
C 749 1210 627 1280 506 1280 
C 358 1280 262 1190 262 1011 
C 262 454 704 -128 1382 -128 
C 2042 -128 2669 440 2669 1264 
C 2669 2030 2170 2624 1549 2624 
C 1222 2624 947 2503 730 2274 
L 730 3692 
z
" transform="scale(0.015625)"/>
       </defs>
       <use xlink:href="#CMR17-31" transform="scale(0.996264)"/>
       <use xlink:href="#CMMI12-3a" transform="translate(45.690477 0) scale(0.996264)"/>
       <use xlink:href="#CMR17-35" transform="translate(72.787654 0) scale(0.996264)"/>
      </g>
     </g>
    </g>
    <g id="xtick_2">
     <g id="line2d_3">
      <path d="M 214.717977 320.4 
L 214.717977 43.2 
" clip-path="url(#p420d2bfd35)" style="fill: none; stroke: #b0b0b0; stroke-width: 0.8; stroke-linecap: square"/>
     </g>
     <g id="line2d_4">
      <g>
       <use xlink:href="#m70c921d6be" x="214.717977" y="320.4" style="stroke: #000000; stroke-width: 0.8"/>
      </g>
     </g>
     <g id="text_2">
      <!-- $\mathdefault{2.0}$ -->
      <g transform="translate(206.615921 336.394028) scale(0.13 -0.13)">
       <defs>
        <path id="CMR17-32" d="M 2669 989 
L 2554 989 
C 2490 536 2438 459 2413 420 
C 2381 369 1920 369 1830 369 
L 602 369 
C 832 619 1280 1072 1824 1597 
C 2214 1967 2669 2402 2669 3035 
C 2669 3790 2067 4224 1395 4224 
C 691 4224 262 3604 262 3030 
C 262 2780 448 2748 525 2748 
C 589 2748 781 2787 781 3010 
C 781 3207 614 3264 525 3264 
C 486 3264 448 3258 422 3245 
C 544 3790 915 4058 1306 4058 
C 1862 4058 2227 3617 2227 3035 
C 2227 2479 1901 2000 1536 1584 
L 262 146 
L 262 0 
L 2515 0 
L 2669 989 
z
" transform="scale(0.015625)"/>
        <path id="CMR17-30" d="M 2688 2025 
C 2688 2416 2682 3080 2413 3591 
C 2176 4039 1798 4198 1466 4198 
C 1158 4198 768 4058 525 3597 
C 269 3118 243 2524 243 2025 
C 243 1661 250 1106 448 619 
C 723 -39 1216 -128 1466 -128 
C 1760 -128 2208 -7 2470 600 
C 2662 1042 2688 1559 2688 2025 
z
M 1466 -26 
C 1056 -26 813 325 723 812 
C 653 1188 653 1738 653 2096 
C 653 2588 653 2997 736 3387 
C 858 3929 1216 4096 1466 4096 
C 1728 4096 2067 3923 2189 3400 
C 2272 3036 2278 2607 2278 2096 
C 2278 1680 2278 1169 2202 792 
C 2067 95 1690 -26 1466 -26 
z
" transform="scale(0.015625)"/>
       </defs>
       <use xlink:href="#CMR17-32" transform="scale(0.996264)"/>
       <use xlink:href="#CMMI12-3a" transform="translate(45.690477 0) scale(0.996264)"/>
       <use xlink:href="#CMR17-30" transform="translate(72.787654 0) scale(0.996264)"/>
      </g>
     </g>
    </g>
    <g id="xtick_3">
     <g id="line2d_5">
      <path d="M 290.99959 320.4 
L 290.99959 43.2 
" clip-path="url(#p420d2bfd35)" style="fill: none; stroke: #b0b0b0; stroke-width: 0.8; stroke-linecap: square"/>
     </g>
     <g id="line2d_6">
      <g>
       <use xlink:href="#m70c921d6be" x="290.99959" y="320.4" style="stroke: #000000; stroke-width: 0.8"/>
      </g>
     </g>
     <g id="text_3">
      <!-- $\mathdefault{2.5}$ -->
      <g transform="translate(282.897534 336.394028) scale(0.13 -0.13)">
       <use xlink:href="#CMR17-32" transform="scale(0.996264)"/>
       <use xlink:href="#CMMI12-3a" transform="translate(45.690477 0) scale(0.996264)"/>
       <use xlink:href="#CMR17-35" transform="translate(72.787654 0) scale(0.996264)"/>
      </g>
     </g>
    </g>
    <g id="xtick_4">
     <g id="line2d_7">
      <path d="M 367.281203 320.4 
L 367.281203 43.2 
" clip-path="url(#p420d2bfd35)" style="fill: none; stroke: #b0b0b0; stroke-width: 0.8; stroke-linecap: square"/>
     </g>
     <g id="line2d_8">
      <g>
       <use xlink:href="#m70c921d6be" x="367.281203" y="320.4" style="stroke: #000000; stroke-width: 0.8"/>
      </g>
     </g>
     <g id="text_4">
      <!-- $\mathdefault{3.0}$ -->
      <g transform="translate(359.179147 336.394028) scale(0.13 -0.13)">
       <defs>
        <path id="CMR17-33" d="M 1414 2157 
C 1984 2157 2234 1662 2234 1090 
C 2234 320 1824 25 1453 25 
C 1114 25 563 194 390 693 
C 422 680 454 680 486 680 
C 640 680 755 782 755 948 
C 755 1133 614 1216 486 1216 
C 378 1216 211 1165 211 926 
C 211 335 787 -128 1466 -128 
C 2176 -128 2720 430 2720 1085 
C 2720 1707 2208 2157 1600 2227 
C 2086 2328 2554 2756 2554 3329 
C 2554 3820 2048 4179 1472 4179 
C 890 4179 378 3829 378 3329 
C 378 3110 544 3072 627 3072 
C 762 3072 877 3155 877 3321 
C 877 3486 762 3569 627 3569 
C 602 3569 570 3569 544 3557 
C 730 3959 1235 4032 1459 4032 
C 1683 4032 2106 3925 2106 3320 
C 2106 3143 2080 2828 1862 2550 
C 1670 2304 1453 2304 1242 2284 
C 1210 2284 1062 2269 1037 2269 
C 992 2263 966 2257 966 2208 
C 966 2163 973 2157 1101 2157 
L 1414 2157 
z
" transform="scale(0.015625)"/>
       </defs>
       <use xlink:href="#CMR17-33" transform="scale(0.996264)"/>
       <use xlink:href="#CMMI12-3a" transform="translate(45.690477 0) scale(0.996264)"/>
       <use xlink:href="#CMR17-30" transform="translate(72.787654 0) scale(0.996264)"/>
      </g>
     </g>
    </g>
    <g id="xtick_5">
     <g id="line2d_9">
      <path d="M 443.562816 320.4 
L 443.562816 43.2 
" clip-path="url(#p420d2bfd35)" style="fill: none; stroke: #b0b0b0; stroke-width: 0.8; stroke-linecap: square"/>
     </g>
     <g id="line2d_10">
      <g>
       <use xlink:href="#m70c921d6be" x="443.562816" y="320.4" style="stroke: #000000; stroke-width: 0.8"/>
      </g>
     </g>
     <g id="text_5">
      <!-- $\mathdefault{3.5}$ -->
      <g transform="translate(435.46076 336.394028) scale(0.13 -0.13)">
       <use xlink:href="#CMR17-33" transform="scale(0.996264)"/>
       <use xlink:href="#CMMI12-3a" transform="translate(45.690477 0) scale(0.996264)"/>
       <use xlink:href="#CMR17-35" transform="translate(72.787654 0) scale(0.996264)"/>
      </g>
     </g>
    </g>
    <g id="xtick_6">
     <g id="line2d_11">
      <path d="M 519.844429 320.4 
L 519.844429 43.2 
" clip-path="url(#p420d2bfd35)" style="fill: none; stroke: #b0b0b0; stroke-width: 0.8; stroke-linecap: square"/>
     </g>
     <g id="line2d_12">
      <g>
       <use xlink:href="#m70c921d6be" x="519.844429" y="320.4" style="stroke: #000000; stroke-width: 0.8"/>
      </g>
     </g>
     <g id="text_6">
      <!-- $\mathdefault{4.0}$ -->
      <g transform="translate(511.742373 336.394028) scale(0.13 -0.13)">
       <defs>
        <path id="CMR17-34" d="M 2150 4122 
C 2150 4256 2144 4256 2029 4256 
L 128 1254 
L 128 1088 
L 1779 1088 
L 1779 457 
C 1779 224 1766 160 1318 160 
L 1197 160 
L 1197 0 
C 1402 0 1747 0 1965 0 
C 2182 0 2528 0 2733 0 
L 2733 160 
L 2611 160 
C 2163 160 2150 224 2150 457 
L 2150 1088 
L 2803 1088 
L 2803 1254 
L 2150 1254 
L 2150 4122 
z
M 1798 3703 
L 1798 1254 
L 256 1254 
L 1798 3703 
z
" transform="scale(0.015625)"/>
       </defs>
       <use xlink:href="#CMR17-34" transform="scale(0.996264)"/>
       <use xlink:href="#CMMI12-3a" transform="translate(45.690477 0) scale(0.996264)"/>
       <use xlink:href="#CMR17-30" transform="translate(72.787654 0) scale(0.996264)"/>
      </g>
     </g>
    </g>
    <g id="xtick_7">
     <g id="line2d_13">
      <path d="M 596.126042 320.4 
L 596.126042 43.2 
" clip-path="url(#p420d2bfd35)" style="fill: none; stroke: #b0b0b0; stroke-width: 0.8; stroke-linecap: square"/>
     </g>
     <g id="line2d_14">
      <g>
       <use xlink:href="#m70c921d6be" x="596.126042" y="320.4" style="stroke: #000000; stroke-width: 0.8"/>
      </g>
     </g>
     <g id="text_7">
      <!-- $\mathdefault{4.5}$ -->
      <g transform="translate(588.023986 336.394028) scale(0.13 -0.13)">
       <use xlink:href="#CMR17-34" transform="scale(0.996264)"/>
       <use xlink:href="#CMMI12-3a" transform="translate(45.690477 0) scale(0.996264)"/>
       <use xlink:href="#CMR17-35" transform="translate(72.787654 0) scale(0.996264)"/>
      </g>
     </g>
    </g>
    <g id="xtick_8">
     <g id="line2d_15">
      <path d="M 672.407656 320.4 
L 672.407656 43.2 
" clip-path="url(#p420d2bfd35)" style="fill: none; stroke: #b0b0b0; stroke-width: 0.8; stroke-linecap: square"/>
     </g>
     <g id="line2d_16">
      <g>
       <use xlink:href="#m70c921d6be" x="672.407656" y="320.4" style="stroke: #000000; stroke-width: 0.8"/>
      </g>
     </g>
     <g id="text_8">
      <!-- $\mathdefault{5.0}$ -->
      <g transform="translate(664.3056 336.394028) scale(0.13 -0.13)">
       <use xlink:href="#CMR17-35" transform="scale(0.996264)"/>
       <use xlink:href="#CMMI12-3a" transform="translate(45.690477 0) scale(0.996264)"/>
       <use xlink:href="#CMR17-30" transform="translate(72.787654 0) scale(0.996264)"/>
      </g>
     </g>
    </g>
    <g id="xtick_9">
     <g id="line2d_17">
      <path d="M 748.689269 320.4 
L 748.689269 43.2 
" clip-path="url(#p420d2bfd35)" style="fill: none; stroke: #b0b0b0; stroke-width: 0.8; stroke-linecap: square"/>
     </g>
     <g id="line2d_18">
      <g>
       <use xlink:href="#m70c921d6be" x="748.689269" y="320.4" style="stroke: #000000; stroke-width: 0.8"/>
      </g>
     </g>
     <g id="text_9">
      <!-- $\mathdefault{5.5}$ -->
      <g transform="translate(740.587213 336.394028) scale(0.13 -0.13)">
       <use xlink:href="#CMR17-35" transform="scale(0.996264)"/>
       <use xlink:href="#CMMI12-3a" transform="translate(45.690477 0) scale(0.996264)"/>
       <use xlink:href="#CMR17-35" transform="translate(72.787654 0) scale(0.996264)"/>
      </g>
     </g>
    </g>
    <g id="text_10">
     <!-- $t$ (s) -->
     <g transform="translate(430.963961 352.625914) scale(0.13 -0.13)">
      <defs>
       <path id="CMMI12-74" d="M 1286 2566 
L 1875 2566 
C 1997 2566 2061 2566 2061 2681 
C 2061 2752 2022 2752 1894 2752 
L 1331 2752 
L 1568 3692 
C 1594 3781 1594 3794 1594 3840 
C 1594 3943 1510 4000 1427 4000 
C 1376 4000 1229 3981 1178 3775 
L 928 2752 
L 326 2752 
C 198 2752 141 2752 141 2630 
C 141 2566 186 2566 307 2566 
L 877 2566 
L 454 881 
C 403 658 384 594 384 511 
C 384 211 595 -64 954 -64 
C 1600 -64 1946 868 1946 912 
C 1946 951 1920 970 1882 970 
C 1869 970 1843 970 1830 944 
C 1824 938 1818 931 1773 829 
C 1638 511 1344 64 973 64 
C 781 64 768 224 768 364 
C 768 370 768 492 787 568 
L 1286 2566 
z
" transform="scale(0.015625)"/>
       <path id="CMR17-28" d="M 1958 -1561 
C 1958 -1555 1958 -1542 1939 -1523 
C 1645 -1224 858 -407 858 1581 
C 858 3569 1632 4379 1946 4697 
C 1946 4704 1958 4717 1958 4736 
C 1958 4755 1939 4768 1914 4768 
C 1843 4768 1299 4296 986 3594 
C 666 2887 576 2199 576 1588 
C 576 1128 621 351 1005 -471 
C 1312 -1135 1837 -1600 1914 -1600 
C 1946 -1600 1958 -1587 1958 -1561 
z
" transform="scale(0.015625)"/>
       <path id="CMR17-73" d="M 1978 2697 
C 1978 2813 1971 2819 1933 2819 
C 1907 2819 1901 2813 1824 2717 
C 1805 2691 1747 2626 1728 2601 
C 1523 2819 1235 2819 1126 2819 
C 416 2819 160 2447 160 2076 
C 160 1498 813 1365 998 1325 
C 1402 1243 1542 1217 1677 1101 
C 1760 1025 1901 884 1901 654 
C 1901 384 1747 38 1158 38 
C 602 38 403 460 288 1021 
C 269 1110 269 1117 218 1117 
C 166 1117 160 1110 160 983 
L 160 63 
C 160 -51 166 -58 205 -58 
C 237 -58 243 -51 275 0 
C 314 57 410 211 448 276 
C 576 103 800 -64 1158 -64 
C 1792 -64 2131 283 2131 784 
C 2131 1112 1958 1285 1875 1362 
C 1683 1561 1459 1606 1190 1657 
C 838 1735 390 1825 390 2217 
C 390 2383 480 2737 1126 2737 
C 1811 2737 1850 2094 1862 1888 
C 1869 1856 1901 1849 1920 1849 
C 1978 1849 1978 1869 1978 1978 
L 1978 2697 
z
" transform="scale(0.015625)"/>
       <path id="CMR17-29" d="M 1683 1581 
C 1683 2040 1638 2817 1254 3639 
C 947 4303 422 4768 346 4768 
C 326 4768 301 4761 301 4729 
C 301 4717 307 4710 314 4697 
C 621 4378 1402 3568 1402 1584 
C 1402 -407 627 -1217 314 -1537 
C 307 -1549 301 -1556 301 -1568 
C 301 -1600 326 -1600 346 -1600 
C 416 -1600 960 -1128 1274 -426 
C 1594 281 1683 969 1683 1581 
z
" transform="scale(0.015625)"/>
      </defs>
      <use xlink:href="#CMMI12-74" transform="scale(0.996264)"/>
      <use xlink:href="#CMR17-28" transform="translate(65.302297 0) scale(0.996264)"/>
      <use xlink:href="#CMR17-73" transform="translate(100.583064 0) scale(0.996264)"/>
      <use xlink:href="#CMR17-29" transform="translate(136.384402 0) scale(0.996264)"/>
     </g>
    </g>
   </g>
   <g id="matplotlib.axis_2">
    <g id="ytick_1">
     <g id="line2d_19">
      <path d="M 108 297.532902 
L 777.6 297.532902 
" clip-path="url(#p420d2bfd35)" style="fill: none; stroke: #b0b0b0; stroke-width: 0.8; stroke-linecap: square"/>
     </g>
     <g id="line2d_20">
      <defs>
       <path id="m82dc93a49d" d="M 0 0 
L -3.5 0 
" style="stroke: #000000; stroke-width: 0.8"/>
      </defs>
      <g>
       <use xlink:href="#m82dc93a49d" x="108" y="297.532902" style="stroke: #000000; stroke-width: 0.8"/>
      </g>
     </g>
     <g id="text_11">
      <!-- $\mathdefault{−0.03}$ -->
      <g transform="translate(68.381779 302.029916) scale(0.13 -0.13)">
       <defs>
        <path id="CMSY10-0" d="M 4218 1472 
C 4326 1472 4442 1472 4442 1600 
C 4442 1728 4326 1728 4218 1728 
L 755 1728 
C 646 1728 531 1728 531 1600 
C 531 1472 646 1472 755 1472 
L 4218 1472 
z
" transform="scale(0.015625)"/>
       </defs>
       <use xlink:href="#CMSY10-0" transform="scale(0.996264)"/>
       <use xlink:href="#CMR17-30" transform="translate(77.487468 0) scale(0.996264)"/>
       <use xlink:href="#CMMI12-3a" transform="translate(123.177945 0) scale(0.996264)"/>
       <use xlink:href="#CMR17-30" transform="translate(150.275122 0) scale(0.996264)"/>
       <use xlink:href="#CMR17-33" transform="translate(195.965599 0) scale(0.996264)"/>
      </g>
     </g>
    </g>
    <g id="ytick_2">
     <g id="line2d_21">
      <path d="M 108 265.386156 
L 777.6 265.386156 
" clip-path="url(#p420d2bfd35)" style="fill: none; stroke: #b0b0b0; stroke-width: 0.8; stroke-linecap: square"/>
     </g>
     <g id="line2d_22">
      <g>
       <use xlink:href="#m82dc93a49d" x="108" y="265.386156" style="stroke: #000000; stroke-width: 0.8"/>
      </g>
     </g>
     <g id="text_12">
      <!-- $\mathdefault{−0.02}$ -->
      <g transform="translate(68.381779 269.88317) scale(0.13 -0.13)">
       <use xlink:href="#CMSY10-0" transform="scale(0.996264)"/>
       <use xlink:href="#CMR17-30" transform="translate(77.487468 0) scale(0.996264)"/>
       <use xlink:href="#CMMI12-3a" transform="translate(123.177945 0) scale(0.996264)"/>
       <use xlink:href="#CMR17-30" transform="translate(150.275122 0) scale(0.996264)"/>
       <use xlink:href="#CMR17-32" transform="translate(195.965599 0) scale(0.996264)"/>
      </g>
     </g>
    </g>
    <g id="ytick_3">
     <g id="line2d_23">
      <path d="M 108 233.23941 
L 777.6 233.23941 
" clip-path="url(#p420d2bfd35)" style="fill: none; stroke: #b0b0b0; stroke-width: 0.8; stroke-linecap: square"/>
     </g>
     <g id="line2d_24">
      <g>
       <use xlink:href="#m82dc93a49d" x="108" y="233.23941" style="stroke: #000000; stroke-width: 0.8"/>
      </g>
     </g>
     <g id="text_13">
      <!-- $\mathdefault{−0.01}$ -->
      <g transform="translate(68.381779 237.736424) scale(0.13 -0.13)">
       <use xlink:href="#CMSY10-0" transform="scale(0.996264)"/>
       <use xlink:href="#CMR17-30" transform="translate(77.487468 0) scale(0.996264)"/>
       <use xlink:href="#CMMI12-3a" transform="translate(123.177945 0) scale(0.996264)"/>
       <use xlink:href="#CMR17-30" transform="translate(150.275122 0) scale(0.996264)"/>
       <use xlink:href="#CMR17-31" transform="translate(195.965599 0) scale(0.996264)"/>
      </g>
     </g>
    </g>
    <g id="ytick_4">
     <g id="line2d_25">
      <path d="M 108 201.092664 
L 777.6 201.092664 
" clip-path="url(#p420d2bfd35)" style="fill: none; stroke: #b0b0b0; stroke-width: 0.8; stroke-linecap: square"/>
     </g>
     <g id="line2d_26">
      <g>
       <use xlink:href="#m82dc93a49d" x="108" y="201.092664" style="stroke: #000000; stroke-width: 0.8"/>
      </g>
     </g>
     <g id="text_14">
      <!-- $\mathdefault{0.00}$ -->
      <g transform="translate(78.455149 205.589678) scale(0.13 -0.13)">
       <use xlink:href="#CMR17-30" transform="scale(0.996264)"/>
       <use xlink:href="#CMMI12-3a" transform="translate(45.690477 0) scale(0.996264)"/>
       <use xlink:href="#CMR17-30" transform="translate(72.787654 0) scale(0.996264)"/>
       <use xlink:href="#CMR17-30" transform="translate(118.478131 0) scale(0.996264)"/>
      </g>
     </g>
    </g>
    <g id="ytick_5">
     <g id="line2d_27">
      <path d="M 108 168.945919 
L 777.6 168.945919 
" clip-path="url(#p420d2bfd35)" style="fill: none; stroke: #b0b0b0; stroke-width: 0.8; stroke-linecap: square"/>
     </g>
     <g id="line2d_28">
      <g>
       <use xlink:href="#m82dc93a49d" x="108" y="168.945919" style="stroke: #000000; stroke-width: 0.8"/>
      </g>
     </g>
     <g id="text_15">
      <!-- $\mathdefault{0.01}$ -->
      <g transform="translate(78.455149 173.442933) scale(0.13 -0.13)">
       <use xlink:href="#CMR17-30" transform="scale(0.996264)"/>
       <use xlink:href="#CMMI12-3a" transform="translate(45.690477 0) scale(0.996264)"/>
       <use xlink:href="#CMR17-30" transform="translate(72.787654 0) scale(0.996264)"/>
       <use xlink:href="#CMR17-31" transform="translate(118.478131 0) scale(0.996264)"/>
      </g>
     </g>
    </g>
    <g id="ytick_6">
     <g id="line2d_29">
      <path d="M 108 136.799173 
L 777.6 136.799173 
" clip-path="url(#p420d2bfd35)" style="fill: none; stroke: #b0b0b0; stroke-width: 0.8; stroke-linecap: square"/>
     </g>
     <g id="line2d_30">
      <g>
       <use xlink:href="#m82dc93a49d" x="108" y="136.799173" style="stroke: #000000; stroke-width: 0.8"/>
      </g>
     </g>
     <g id="text_16">
      <!-- $\mathdefault{0.02}$ -->
      <g transform="translate(78.455149 141.296187) scale(0.13 -0.13)">
       <use xlink:href="#CMR17-30" transform="scale(0.996264)"/>
       <use xlink:href="#CMMI12-3a" transform="translate(45.690477 0) scale(0.996264)"/>
       <use xlink:href="#CMR17-30" transform="translate(72.787654 0) scale(0.996264)"/>
       <use xlink:href="#CMR17-32" transform="translate(118.478131 0) scale(0.996264)"/>
      </g>
     </g>
    </g>
    <g id="ytick_7">
     <g id="line2d_31">
      <path d="M 108 104.652427 
L 777.6 104.652427 
" clip-path="url(#p420d2bfd35)" style="fill: none; stroke: #b0b0b0; stroke-width: 0.8; stroke-linecap: square"/>
     </g>
     <g id="line2d_32">
      <g>
       <use xlink:href="#m82dc93a49d" x="108" y="104.652427" style="stroke: #000000; stroke-width: 0.8"/>
      </g>
     </g>
     <g id="text_17">
      <!-- $\mathdefault{0.03}$ -->
      <g transform="translate(78.455149 109.149441) scale(0.13 -0.13)">
       <use xlink:href="#CMR17-30" transform="scale(0.996264)"/>
       <use xlink:href="#CMMI12-3a" transform="translate(45.690477 0) scale(0.996264)"/>
       <use xlink:href="#CMR17-30" transform="translate(72.787654 0) scale(0.996264)"/>
       <use xlink:href="#CMR17-33" transform="translate(118.478131 0) scale(0.996264)"/>
      </g>
     </g>
    </g>
    <g id="ytick_8">
     <g id="line2d_33">
      <path d="M 108 72.505681 
L 777.6 72.505681 
" clip-path="url(#p420d2bfd35)" style="fill: none; stroke: #b0b0b0; stroke-width: 0.8; stroke-linecap: square"/>
     </g>
     <g id="line2d_34">
      <g>
       <use xlink:href="#m82dc93a49d" x="108" y="72.505681" style="stroke: #000000; stroke-width: 0.8"/>
      </g>
     </g>
     <g id="text_18">
      <!-- $\mathdefault{0.04}$ -->
      <g transform="translate(78.455149 77.002696) scale(0.13 -0.13)">
       <use xlink:href="#CMR17-30" transform="scale(0.996264)"/>
       <use xlink:href="#CMMI12-3a" transform="translate(45.690477 0) scale(0.996264)"/>
       <use xlink:href="#CMR17-30" transform="translate(72.787654 0) scale(0.996264)"/>
       <use xlink:href="#CMR17-34" transform="translate(118.478131 0) scale(0.996264)"/>
      </g>
     </g>
    </g>
    <g id="text_19">
     <!-- displacement (m) -->
     <g transform="translate(61.143921 229.919159) rotate(-90) scale(0.13 -0.13)">
      <defs>
       <path id="CMR17-64" d="M 1869 4326 
L 1869 4160 
C 2246 4160 2304 4122 2304 3820 
L 2304 2345 
C 2278 2377 2016 2790 1498 2790 
C 845 2790 211 2208 211 1364 
C 211 525 806 -64 1434 -64 
C 1978 -64 2259 337 2291 380 
L 2291 -63 
L 3066 -63 
L 3066 128 
C 2688 128 2630 166 2630 473 
L 2630 4396 
L 1869 4326 
z
M 2291 755 
C 2291 563 2176 390 2029 262 
C 1811 70 1594 38 1472 38 
C 1286 38 621 134 621 1356 
C 621 2612 1363 2688 1530 2688 
C 1824 2688 2061 2522 2208 2291 
C 2291 2157 2291 2138 2291 2023 
L 2291 755 
z
" transform="scale(0.015625)"/>
       <path id="CMR17-69" d="M 992 3909 
C 992 4049 877 4170 730 4170 
C 589 4170 467 4056 467 3909 
C 467 3769 582 3648 730 3648 
C 870 3648 992 3763 992 3909 
z
M 243 2706 
L 243 2541 
C 602 2541 653 2502 653 2197 
L 653 427 
C 653 184 627 153 218 153 
L 218 -13 
C 371 0 646 0 806 0 
C 960 0 1222 0 1370 -13 
L 1370 153 
C 992 153 979 191 979 420 
L 979 2776 
L 243 2706 
z
" transform="scale(0.015625)"/>
       <path id="CMR17-70" d="M 1408 -1063 
C 998 -1063 973 -1037 973 -789 
L 973 402 
C 1158 134 1427 -38 1766 -38 
C 2406 -38 3053 523 3053 1388 
C 3053 2191 2496 2802 1837 2802 
C 1453 2802 1139 2592 960 2338 
L 960 2802 
L 198 2732 
L 198 2567 
C 576 2567 634 2528 634 2223 
L 634 -789 
C 634 -1031 608 -1063 198 -1063 
L 198 -1228 
C 352 -1216 634 -1216 800 -1216 
C 966 -1216 1254 -1216 1408 -1228 
L 1408 -1063 
z
M 973 2012 
C 973 2102 973 2235 1222 2471 
C 1254 2497 1472 2688 1792 2688 
C 2259 2688 2643 2108 2643 1382 
C 2643 656 2234 64 1728 64 
C 1498 64 1248 172 1056 472 
C 973 612 973 650 973 752 
L 973 2012 
z
" transform="scale(0.015625)"/>
       <path id="CMR17-6c" d="M 979 4396 
L 218 4326 
L 218 4160 
C 595 4160 653 4122 653 3817 
L 653 426 
C 653 184 627 153 218 153 
L 218 -13 
C 371 0 653 0 813 0 
C 979 0 1261 0 1414 -13 
L 1414 153 
C 1005 153 979 178 979 426 
L 979 4396 
z
" transform="scale(0.015625)"/>
       <path id="CMR17-61" d="M 2304 1653 
C 2304 2072 2304 2294 2035 2543 
C 1798 2752 1523 2816 1306 2816 
C 800 2816 435 2407 435 1971 
C 435 1728 627 1728 666 1728 
C 749 1728 896 1778 896 1954 
C 896 2112 774 2181 666 2181 
C 640 2181 608 2174 589 2168 
C 723 2592 1069 2714 1293 2714 
C 1613 2714 1965 2429 1965 1885 
L 1965 1600 
C 1587 1600 1133 1549 774 1357 
C 371 1133 256 813 256 570 
C 256 77 832 -64 1171 -64 
C 1523 -64 1850 139 1990 511 
C 2003 233 2182 -18 2464 -18 
C 2598 -18 2938 70 2938 567 
L 2938 920 
L 2822 920 
L 2822 562 
C 2822 178 2650 128 2566 128 
C 2304 128 2304 458 2304 738 
L 2304 1653 
z
M 1965 870 
C 1965 317 1568 38 1216 38 
C 896 38 646 275 646 570 
C 646 761 730 1100 1101 1305 
C 1408 1478 1760 1504 1965 1504 
L 1965 870 
z
" transform="scale(0.015625)"/>
       <path id="CMR17-63" d="M 2234 2240 
C 2112 2240 1933 2240 1933 2017 
C 1933 1838 2080 1787 2163 1787 
C 2208 1787 2394 1807 2394 2024 
C 2394 2467 1958 2803 1466 2803 
C 787 2803 211 2178 211 1363 
C 211 516 813 -64 1466 -64 
C 2259 -64 2458 677 2458 748 
C 2458 774 2451 793 2406 793 
C 2362 793 2355 787 2330 703 
C 2163 180 1798 51 1523 51 
C 1114 51 621 427 621 1369 
C 621 2338 1094 2688 1472 2688 
C 1722 2688 2093 2573 2234 2240 
z
" transform="scale(0.015625)"/>
       <path id="CMR17-65" d="M 2438 1472 
C 2464 1498 2464 1511 2464 1576 
C 2464 2238 2118 2816 1389 2816 
C 710 2816 173 2169 173 1383 
C 173 551 781 -64 1459 -64 
C 2176 -64 2458 607 2458 740 
C 2458 784 2419 784 2406 784 
C 2362 784 2355 771 2330 696 
C 2189 265 1837 51 1504 51 
C 1229 51 954 203 781 480 
C 582 803 582 1176 582 1472 
L 2438 1472 
z
M 589 1568 
C 634 2505 1126 2714 1382 2714 
C 1818 2714 2112 2297 2118 1568 
L 589 1568 
z
" transform="scale(0.015625)"/>
       <path id="CMR17-6d" d="M 4326 1933 
C 4326 2252 4269 2790 3507 2790 
C 3072 2790 2771 2496 2656 2151 
L 2650 2151 
C 2573 2676 2195 2790 1837 2790 
C 1331 2790 1069 2400 973 2144 
L 966 2144 
L 966 2790 
L 211 2720 
L 211 2554 
C 589 2554 646 2515 646 2208 
L 646 428 
C 646 184 621 153 211 153 
L 211 -13 
C 365 0 646 0 813 0 
C 979 0 1267 0 1421 -13 
L 1421 153 
C 1011 153 986 178 986 428 
L 986 1658 
C 986 2247 1344 2688 1792 2688 
C 2266 2688 2317 2266 2317 1958 
L 2317 428 
C 2317 184 2291 153 1882 153 
L 1882 -13 
C 2035 0 2317 0 2483 0 
C 2650 0 2938 0 3091 -13 
L 3091 153 
C 2682 153 2656 178 2656 428 
L 2656 1658 
C 2656 2247 3014 2688 3462 2688 
C 3936 2688 3987 2266 3987 1958 
L 3987 428 
C 3987 184 3962 153 3552 153 
L 3552 -13 
C 3706 0 3987 0 4154 0 
C 4320 0 4608 0 4762 -13 
L 4762 153 
C 4352 153 4326 178 4326 428 
L 4326 1933 
z
" transform="scale(0.015625)"/>
       <path id="CMR17-6e" d="M 2656 1933 
C 2656 2259 2592 2790 1837 2790 
C 1331 2790 1069 2400 973 2144 
L 966 2144 
L 966 2790 
L 211 2720 
L 211 2554 
C 589 2554 646 2515 646 2208 
L 646 428 
C 646 184 621 153 211 153 
L 211 -13 
C 365 0 646 0 813 0 
C 979 0 1267 0 1421 -13 
L 1421 153 
C 1011 153 986 178 986 428 
L 986 1658 
C 986 2247 1344 2688 1792 2688 
C 2266 2688 2317 2266 2317 1958 
L 2317 428 
C 2317 184 2291 153 1882 153 
L 1882 -13 
C 2035 0 2317 0 2483 0 
C 2650 0 2938 0 3091 -13 
L 3091 153 
C 2682 153 2656 178 2656 428 
L 2656 1933 
z
" transform="scale(0.015625)"/>
       <path id="CMR17-74" d="M 966 2560 
L 1862 2560 
L 1862 2725 
L 966 2725 
L 966 3904 
L 851 3904 
C 838 3245 614 2668 70 2668 
L 70 2560 
L 627 2560 
L 627 771 
C 627 650 627 -64 1370 -64 
C 1747 -64 1965 306 1965 777 
L 1965 1140 
L 1850 1140 
L 1850 783 
C 1850 344 1677 51 1408 51 
C 1222 51 966 178 966 758 
L 966 2560 
z
" transform="scale(0.015625)"/>
      </defs>
      <use xlink:href="#CMR17-64" transform="scale(0.996264)"/>
      <use xlink:href="#CMR17-69" transform="translate(50.89537 0) scale(0.996264)"/>
      <use xlink:href="#CMR17-73" transform="translate(75.766428 0) scale(0.996264)"/>
      <use xlink:href="#CMR17-70" transform="translate(111.567766 0) scale(0.996264)"/>
      <use xlink:href="#CMR17-6c" transform="translate(162.463136 0) scale(0.996264)"/>
      <use xlink:href="#CMR17-61" transform="translate(187.334194 0) scale(0.996264)"/>
      <use xlink:href="#CMR17-63" transform="translate(233.024671 0) scale(0.996264)"/>
      <use xlink:href="#CMR17-65" transform="translate(273.510332 0) scale(0.996264)"/>
      <use xlink:href="#CMR17-6d" transform="translate(313.995992 0) scale(0.996264)"/>
      <use xlink:href="#CMR17-65" transform="translate(390.915582 0) scale(0.996264)"/>
      <use xlink:href="#CMR17-6e" transform="translate(431.401243 0) scale(0.996264)"/>
      <use xlink:href="#CMR17-74" transform="translate(479.694158 0) scale(0.996264)"/>
      <use xlink:href="#CMR17-28" transform="translate(545.050893 0) scale(0.996264)"/>
      <use xlink:href="#CMR17-6d" transform="translate(580.33166 0) scale(0.996264)"/>
      <use xlink:href="#CMR17-29" transform="translate(657.25125 0) scale(0.996264)"/>
     </g>
    </g>
   </g>
   <g id="line2d_35">
    <path d="M 138.436364 204.106004 
L 156.743951 204.015738 
L 161.320848 204.226646 
L 162.84648 204.060115 
L 164.372112 203.631928 
L 165.897744 203.381219 
L 167.423377 203.867235 
L 168.949009 205.254254 
L 170.474641 206.126692 
L 172.000273 205.147332 
L 173.525906 202.872308 
L 175.051538 200.331093 
L 176.57717 198.3552 
L 178.102802 196.984315 
L 179.628435 196.060168 
L 181.154067 195.508626 
L 182.679699 195.59211 
L 184.205332 196.657179 
L 185.730964 198.847503 
L 187.256596 201.495191 
L 188.782228 203.729463 
L 190.307861 204.899756 
L 191.833493 205.236376 
L 197.936022 205.153105 
L 200.987286 205.111247 
L 202.512919 204.831637 
L 205.564183 203.867235 
L 207.089815 203.783666 
L 210.14108 204.060115 
L 214.717977 203.867235 
L 216.243609 204.083181 
L 220.820506 205.109413 
L 222.346138 205.229138 
L 223.87177 205.153105 
L 226.923035 204.695008 
L 228.448667 204.831637 
L 229.974299 205.330638 
L 231.499932 205.162289 
L 233.025564 203.4397 
L 234.551196 200.900162 
L 236.076828 198.687016 
L 237.602461 197.656436 
L 239.128093 197.515938 
L 243.70499 198.102031 
L 245.230622 199.201364 
L 246.756254 201.317165 
L 248.281887 203.625419 
L 249.807519 205.033702 
L 251.333151 204.825932 
L 252.858783 203.791393 
L 254.384416 203.095713 
L 255.910048 203.513213 
L 257.43568 204.252996 
L 258.961312 204.402606 
L 262.012577 203.867235 
L 263.538209 203.955194 
L 265.063841 204.330523 
L 268.115106 205.298336 
L 269.640738 205.575978 
L 271.16637 205.511311 
L 272.692003 205.012856 
L 277.2689 202.686207 
L 278.794532 202.156852 
L 280.320164 201.837397 
L 281.845796 201.762726 
L 283.371429 202.000668 
L 284.897061 202.627289 
L 286.422693 203.602091 
L 287.948325 204.418322 
L 289.473958 204.614802 
L 294.050854 203.932346 
L 301.679016 204.060115 
L 304.73028 203.829205 
L 306.255913 203.867235 
L 307.781545 204.115411 
L 310.832809 204.831637 
L 312.358442 205.059008 
L 315.409706 205.153105 
L 316.935338 205.052961 
L 318.460971 204.831637 
L 323.037867 203.867235 
L 324.5635 203.837431 
L 329.140396 204.093332 
L 338.29419 203.889092 
L 339.819822 203.758381 
L 341.345455 203.867235 
L 345.922351 205.10942 
L 348.973616 205.153105 
L 352.02488 205.021387 
L 353.550513 204.831637 
L 358.127409 203.867235 
L 359.653042 203.75193 
L 361.178674 203.819065 
L 362.704306 204.060115 
L 364.229938 204.417549 
L 365.755571 204.637807 
L 367.281203 204.418322 
L 370.332468 202.678236 
L 371.8581 202.241528 
L 373.383732 202.744063 
L 374.909364 203.931528 
L 376.434997 205.31911 
L 377.960629 206.198432 
L 379.486261 205.805224 
L 381.011893 203.631651 
L 382.537526 200.195606 
L 388.640055 184.4506 
L 391.691319 175.182589 
L 393.216951 171.206141 
L 394.742584 168.251993 
L 396.268216 165.598453 
L 397.793848 162.250976 
L 400.845113 152.744073 
L 402.370745 149.061626 
L 403.896377 147.569892 
L 405.42201 147.483973 
L 406.947642 147.573691 
L 408.473274 146.932485 
L 409.998906 145.948277 
L 411.524539 145.332603 
L 414.575803 145.727988 
L 416.101435 144.965212 
L 417.627068 142.557305 
L 419.1527 139.329488 
L 420.678332 136.478471 
L 422.203964 134.941458 
L 423.729597 134.617633 
L 425.255229 135.146677 
L 426.780861 136.235031 
L 428.306494 137.856189 
L 429.832126 139.893106 
L 431.357758 141.599554 
L 432.88339 142.072005 
L 434.409023 140.745584 
L 437.460287 136.193743 
L 438.985919 134.943934 
L 440.511552 134.383124 
L 442.037184 133.952655 
L 443.562816 133.235622 
L 445.088448 132.382124 
L 446.614081 131.684013 
L 449.665345 130.981815 
L 451.190977 130.269557 
L 452.71661 128.911803 
L 455.767874 125.667979 
L 457.293506 124.582123 
L 463.396036 121.417146 
L 464.921668 120.891892 
L 466.4473 120.840952 
L 471.024197 121.646585 
L 472.549829 121.654971 
L 474.075461 121.442979 
L 475.601094 121.064784 
L 477.126726 120.891892 
L 478.652358 121.263394 
L 480.17799 122.071393 
L 487.806152 127.184863 
L 489.331784 127.969242 
L 490.857416 128.423415 
L 492.383049 128.463351 
L 495.434313 128.065208 
L 498.485578 127.971039 
L 500.01121 127.651893 
L 501.536842 126.902612 
L 504.588107 124.960751 
L 507.639371 123.652287 
L 509.165003 122.986022 
L 512.216268 121.40007 
L 513.7419 121.112326 
L 515.267532 121.529414 
L 516.793165 122.437986 
L 519.844429 124.586117 
L 521.370062 126.191602 
L 522.895694 129.020426 
L 524.421326 133.846206 
L 525.946958 141.759374 
L 527.472591 153.929561 
L 528.998223 170.674614 
L 530.523855 188.905221 
L 532.049487 205.436442 
L 533.57512 220.107985 
L 536.626384 246.182887 
L 539.677649 270.153824 
L 541.203281 281.593718 
L 542.728913 291.90157 
L 544.254545 300.132961 
L 545.780178 305.494887 
L 547.30581 307.8 
L 548.831442 307.012365 
L 550.357075 303.147664 
L 551.882707 296.428054 
L 553.408339 287.127306 
L 554.933971 275.52938 
L 556.459604 261.958979 
L 557.985236 246.750993 
L 565.613397 164.451112 
L 567.139029 149.93418 
L 568.664662 136.614615 
L 570.190294 125.352876 
L 571.715926 117.162869 
L 573.241558 112.79503 
L 574.767191 111.945911 
L 576.292823 114.094505 
L 577.818455 118.90345 
L 579.344087 126.081295 
L 580.86972 135.208461 
L 583.920984 155.454236 
L 585.446617 164.641542 
L 586.972249 172.800293 
L 588.497881 180.005165 
L 593.074778 199.348321 
L 596.126042 215.119163 
L 597.651675 223.155282 
L 600.702939 237.52022 
L 605.279836 256.97097 
L 608.3311 268.57517 
L 609.856733 273.679694 
L 611.382365 278.22725 
L 612.907997 281.965015 
L 614.43363 283.896198 
L 615.959262 282.838012 
L 617.484894 278.032287 
L 619.010526 270.419311 
L 622.061791 251.87773 
L 623.587423 241.558039 
L 625.113055 229.648925 
L 626.638688 215.684987 
L 634.266849 138.306243 
L 635.792481 122.509295 
L 637.318113 111.192759 
L 638.843746 108.443845 
L 640.369378 112.584874 
L 641.89501 120.496946 
L 644.946275 139.031134 
L 649.523172 168.673178 
L 652.574436 190.966876 
L 655.625701 213.814356 
L 657.151333 223.749207 
L 658.676965 232.463398 
L 660.202597 240.08284 
L 661.72823 246.5764 
L 663.253862 251.284769 
L 664.779494 253.391593 
L 666.305126 252.527216 
L 667.830759 250.108779 
L 669.356391 248.000124 
L 670.882023 247.592281 
L 672.407656 248.385043 
L 673.933288 249.405396 
L 675.45892 249.876412 
L 676.984552 249.805513 
L 678.510185 249.396211 
L 680.035817 248.759551 
L 681.561449 247.636703 
L 683.087081 245.676374 
L 684.612714 242.6041 
L 686.138346 238.452749 
L 687.663978 233.332023 
L 689.18961 227.225546 
L 690.715243 219.612635 
L 692.240875 209.846529 
L 693.766507 197.583099 
L 699.869036 142.691336 
L 701.394668 131.068633 
L 702.920301 121.497919 
L 704.445933 117.135315 
L 705.971565 120.629548 
L 707.497198 130.278791 
L 709.02283 143.293581 
L 715.125359 198.250522 
L 716.650991 210.141195 
L 718.176623 220.454955 
L 719.702256 228.894994 
L 721.227888 235.623793 
L 722.75352 240.918655 
L 724.279152 245.033876 
L 725.804785 248.131716 
L 727.330417 250.351429 
L 728.856049 251.784985 
L 730.381681 252.335232 
L 731.907314 251.857734 
L 733.432946 250.293984 
L 734.958578 247.929186 
L 738.009843 242.17572 
L 739.535475 238.897816 
L 741.061107 235.040393 
L 742.58674 230.460782 
L 745.638004 220.565173 
L 747.163636 216.059319 
L 747.163636 216.059319 
" clip-path="url(#p420d2bfd35)" style="fill: none; stroke: #ff0000; stroke-linecap: square"/>
   </g>
   <g id="line2d_36">
    <path d="M 138.436364 208.133278 
L 139.961996 206.029254 
L 141.487628 205.047479 
L 143.01326 205.494622 
L 144.538893 207.53617 
L 146.064525 211.302318 
L 147.590157 216.36863 
L 149.115789 220.092156 
L 150.641422 220.224536 
L 152.167054 218.314279 
L 153.692686 216.859112 
L 155.218319 217.806897 
L 156.743951 220.906029 
L 159.795215 230.133593 
L 161.320848 233.345918 
L 162.84648 232.877377 
L 164.372112 227.619544 
L 165.897744 220.488845 
L 167.423377 215.407916 
L 168.949009 214.866051 
L 170.474641 215.619166 
L 172.000273 214.01501 
L 173.525906 210.502015 
L 175.051538 206.553784 
L 176.57717 203.278069 
L 178.102802 200.319207 
L 179.628435 196.955684 
L 181.154067 193.006024 
L 182.679699 190.448899 
L 184.205332 191.80302 
L 185.730964 198.65277 
L 188.782228 219.29308 
L 190.307861 227.279857 
L 191.833493 231.572016 
L 193.359125 231.306778 
L 194.884757 226.178959 
L 197.936022 209.593948 
L 199.461654 202.829041 
L 200.987286 198.935351 
L 202.512919 198.755902 
L 204.038551 202.636321 
L 205.564183 208.932643 
L 207.089815 215.715325 
L 208.615448 221.902104 
L 210.14108 226.622538 
L 211.666712 229.250357 
L 213.192344 230.135968 
L 214.717977 229.873952 
L 216.243609 229.088116 
L 217.769241 228.519183 
L 219.294874 228.937104 
L 220.820506 230.628281 
L 222.346138 231.944924 
L 223.87177 230.755691 
L 225.397403 225.717408 
L 226.923035 218.639552 
L 228.448667 212.119764 
L 229.974299 207.994648 
L 233.025564 201.961264 
L 234.551196 199.860028 
L 236.076828 200.528566 
L 237.602461 205.011808 
L 239.128093 211.431969 
L 240.653725 217.18058 
L 242.179357 220.316271 
L 243.70499 221.566059 
L 245.230622 222.324059 
L 246.756254 223.678848 
L 249.807519 227.338951 
L 251.333151 228.587672 
L 252.858783 227.912064 
L 254.384416 223.802809 
L 257.43568 208.592806 
L 258.961312 205.981998 
L 260.486945 206.871467 
L 262.012577 208.703024 
L 263.538209 209.648699 
L 265.063841 210.801405 
L 266.589474 213.984275 
L 269.640738 226.042925 
L 271.16637 227.991071 
L 272.692003 223.321748 
L 275.743267 206.967099 
L 277.2689 202.843656 
L 278.794532 202.263166 
L 280.320164 204.055523 
L 283.371429 210.008836 
L 284.897061 211.734003 
L 286.422693 211.300833 
L 287.948325 209.015306 
L 290.99959 202.17096 
L 292.525222 199.986663 
L 294.050854 199.996977 
L 295.576487 202.024338 
L 297.102119 205.607751 
L 300.153383 214.357717 
L 301.679016 216.895851 
L 303.204648 216.829729 
L 306.255913 213.313786 
L 307.781545 212.542431 
L 309.307177 213.047419 
L 310.832809 214.792536 
L 312.358442 217.39061 
L 313.884074 219.050632 
L 315.409706 217.630634 
L 318.460971 206.71911 
L 319.986603 205.035124 
L 321.512235 205.833688 
L 323.037867 206.498675 
L 324.5635 205.22269 
L 326.089132 203.433264 
L 327.614764 203.366664 
L 329.140396 206.472175 
L 330.666029 211.051166 
L 332.191661 214.618025 
L 333.717293 215.42137 
L 335.242925 214.646738 
L 336.768558 214.213894 
L 338.29419 215.476191 
L 339.819822 217.521326 
L 341.345455 218.87058 
L 342.871087 218.34429 
L 344.396719 215.959003 
L 345.922351 212.167713 
L 347.447984 207.972981 
L 348.973616 204.514762 
L 350.499248 202.661306 
L 352.02488 202.194042 
L 353.550513 202.622696 
L 355.076145 203.681686 
L 356.601777 206.004203 
L 358.127409 210.448133 
L 361.178674 223.592709 
L 362.704306 226.392919 
L 364.229938 223.593191 
L 365.755571 218.44708 
L 367.281203 215.518134 
L 370.332468 219.284367 
L 371.8581 214.094492 
L 374.909364 181.304812 
L 376.434997 172.711224 
L 377.960629 168.976383 
L 379.486261 163.330188 
L 381.011893 151.272133 
L 382.537526 137.38008 
L 384.063158 128.501486 
L 385.58879 129.354197 
L 388.640055 142.921597 
L 390.165687 145.062917 
L 391.691319 143.06647 
L 393.216951 138.724151 
L 394.742584 133.483876 
L 396.268216 127.417662 
L 397.793848 120.253549 
L 400.845113 104.391203 
L 402.370745 99.064251 
L 403.896377 97.413958 
L 405.42201 98.582451 
L 408.473274 103.822191 
L 409.998906 105.41942 
L 411.524539 104.887405 
L 413.050171 101.824679 
L 414.575803 98.511319 
L 416.101435 97.897784 
L 417.627068 102.007342 
L 420.678332 116.726592 
L 422.203964 122.367328 
L 423.729597 124.746063 
L 425.255229 122.78855 
L 426.780861 116.16959 
L 428.306494 107.560177 
L 429.832126 99.690727 
L 434.409023 77.73178 
L 435.934655 70.146606 
L 437.460287 63.390548 
L 438.985919 58.281052 
L 440.511552 55.8 
L 442.037184 56.970384 
L 443.562816 62.21057 
L 446.614081 76.29517 
L 448.139713 80.513697 
L 449.665345 82.489436 
L 451.190977 83.119465 
L 452.71661 83.168399 
L 454.242242 82.871001 
L 457.293506 81.735163 
L 458.819139 81.633792 
L 460.344771 82.660226 
L 461.870403 85.197464 
L 464.921668 92.056261 
L 466.4473 94.778716 
L 467.972932 96.675912 
L 469.498565 97.787566 
L 471.024197 98.073732 
L 472.549829 97.175814 
L 474.075461 94.655555 
L 475.601094 90.325617 
L 478.652358 79.734173 
L 480.17799 75.494185 
L 481.703623 73.236637 
L 483.229255 73.497157 
L 484.754887 75.136868 
L 486.280519 76.598268 
L 487.806152 76.674882 
L 489.331784 75.564336 
L 490.857416 73.815279 
L 496.959945 66.06489 
L 498.485578 65.39048 
L 500.01121 67.018538 
L 503.062474 76.048908 
L 504.588107 77.865769 
L 506.113739 74.828789 
L 507.639371 69.52007 
L 509.165003 65.668375 
L 510.690636 65.942661 
L 513.7419 71.528267 
L 515.267532 72.639092 
L 516.793165 74.773388 
L 518.318797 81.659085 
L 519.844429 95.645803 
L 522.895694 130.889529 
L 525.946958 159.31487 
L 527.472591 180.266931 
L 530.523855 238.379062 
L 532.049487 254.495648 
L 533.57512 261.636499 
L 535.100752 266.337546 
L 536.626384 273.634296 
L 538.152016 282.560546 
L 539.677649 290.649671 
L 541.203281 295.840291 
L 542.728913 297.692022 
L 544.254545 296.169726 
L 545.780178 291.503802 
L 550.357075 272.25563 
L 553.408339 261.414502 
L 554.933971 255.1712 
L 556.459604 247.841365 
L 557.985236 239.168954 
L 562.562133 209.529654 
L 564.087765 202.116834 
L 567.139029 189.920139 
L 568.664662 182.878449 
L 570.190294 173.102524 
L 571.715926 158.756166 
L 576.292823 101.327173 
L 577.818455 89.928106 
L 579.344087 85.91164 
L 580.86972 90.108262 
L 582.395352 100.195316 
L 585.446617 126.287446 
L 586.972249 140.21355 
L 588.497881 155.872143 
L 593.074778 210.080741 
L 594.60041 225.020297 
L 596.126042 237.906655 
L 599.177307 261.482775 
L 600.702939 272.315818 
L 602.228571 281.382223 
L 603.754204 287.942618 
L 605.279836 292.024238 
L 606.805468 293.845976 
L 608.3311 293.514439 
L 609.856733 290.687107 
L 611.382365 284.909181 
L 612.907997 275.93911 
L 614.43363 264.388353 
L 615.959262 251.081619 
L 619.010526 221.923567 
L 622.061791 192.489607 
L 623.587423 180.516675 
L 625.113055 173.231386 
L 626.638688 171.935936 
L 628.16432 174.262011 
L 629.689952 176.923669 
L 631.215584 177.392204 
L 632.741217 176.167848 
L 634.266849 174.508071 
L 635.792481 173.056118 
L 637.318113 169.998342 
L 638.843746 163.607002 
L 643.420643 137.70387 
L 644.946275 131.115667 
L 646.471907 126.287952 
L 647.997539 123.686386 
L 649.523172 124.688246 
L 651.048804 130.898714 
L 652.574436 143.279117 
L 654.100068 160.215357 
L 658.676965 217.120895 
L 660.202597 232.886561 
L 661.72823 245.352008 
L 663.253862 255.344141 
L 666.305126 272.62481 
L 669.356391 288.564725 
L 670.882023 295.143664 
L 672.407656 298.952946 
L 673.933288 298.061792 
L 675.45892 291.135007 
L 676.984552 279.21973 
L 678.510185 263.958687 
L 684.612714 195.731279 
L 686.138346 182.108752 
L 687.663978 171.908777 
L 689.18961 165.621576 
L 692.240875 157.672361 
L 695.292139 146.853072 
L 696.817772 143.151217 
L 698.343404 142.932721 
L 699.869036 146.94719 
L 701.394668 155.706817 
L 704.445933 181.010898 
L 705.971565 188.227981 
L 707.497198 191.124917 
L 709.02283 191.848944 
L 710.548462 192.214319 
L 712.074094 192.703375 
L 713.599727 193.465466 
L 715.125359 194.807484 
L 716.650991 197.66648 
L 718.176623 203.137044 
L 719.702256 211.739005 
L 721.227888 221.693142 
L 722.75352 230.645474 
L 724.279152 236.96601 
L 725.804785 241.920717 
L 727.330417 247.499553 
L 728.856049 255.052435 
L 730.381681 263.369111 
L 731.907314 270.599286 
L 733.432946 275.414402 
L 734.958578 278.572828 
L 736.484211 281.354669 
L 738.009843 284.452086 
L 739.535475 286.205472 
L 741.061107 284.367278 
L 742.58674 277.426321 
L 744.112372 266.816882 
L 747.163636 242.716825 
L 747.163636 242.716825 
" clip-path="url(#p420d2bfd35)" style="fill: none; stroke: #0000ff; stroke-linecap: square"/>
   </g>
   <g id="patch_3">
    <path d="M 108 320.4 
L 108 43.2 
" style="fill: none; stroke: #000000; stroke-width: 0.8; stroke-linejoin: miter; stroke-linecap: square"/>
   </g>
   <g id="patch_4">
    <path d="M 777.6 320.4 
L 777.6 43.2 
" style="fill: none; stroke: #000000; stroke-width: 0.8; stroke-linejoin: miter; stroke-linecap: square"/>
   </g>
   <g id="patch_5">
    <path d="M 108 320.4 
L 777.6 320.4 
" style="fill: none; stroke: #000000; stroke-width: 0.8; stroke-linejoin: miter; stroke-linecap: square"/>
   </g>
   <g id="patch_6">
    <path d="M 108 43.2 
L 777.6 43.2 
" style="fill: none; stroke: #000000; stroke-width: 0.8; stroke-linejoin: miter; stroke-linecap: square"/>
   </g>
   <g id="text_20">
    <!-- Zooming data -->
    <g transform="translate(396.512602 37.2) scale(0.156 -0.156)">
     <defs>
      <path id="CMR17-5a" d="M 3302 4230 
C 3302 4352 3296 4352 3162 4352 
L 442 4352 
L 378 2948 
L 493 2948 
C 531 3675 723 4192 1760 4192 
L 2816 4192 
L 339 204 
C 294 134 294 127 294 83 
C 294 0 307 0 435 0 
L 3245 0 
L 3334 1666 
L 3219 1666 
C 3162 829 3117 178 1894 178 
L 781 178 
L 3302 4230 
z
" transform="scale(0.015625)"/>
      <path id="CMR17-6f" d="M 2758 1356 
C 2758 2176 2163 2816 1466 2816 
C 768 2816 173 2176 173 1356 
C 173 551 768 -64 1466 -64 
C 2163 -64 2758 551 2758 1356 
z
M 1466 51 
C 1165 51 909 230 762 480 
C 602 767 582 1126 582 1408 
C 582 1677 595 2010 762 2298 
C 890 2509 1139 2714 1466 2714 
C 1754 2714 1997 2554 2150 2330 
C 2349 2029 2349 1607 2349 1408 
C 2349 1158 2336 775 2163 467 
C 1984 173 1709 51 1466 51 
z
" transform="scale(0.015625)"/>
      <path id="CMR17-67" d="M 710 1164 
C 832 1068 1043 960 1299 960 
C 1805 960 2240 1357 2240 1888 
C 2240 2054 2189 2310 1997 2509 
C 2176 2692 2438 2752 2586 2752 
C 2611 2752 2650 2752 2682 2734 
C 2656 2728 2598 2703 2598 2605 
C 2598 2527 2656 2471 2739 2471 
C 2835 2471 2886 2533 2886 2614 
C 2886 2731 2790 2854 2586 2854 
C 2330 2854 2106 2738 1926 2580 
C 1734 2753 1504 2816 1299 2816 
C 794 2816 358 2419 358 1888 
C 358 1522 570 1292 634 1228 
C 442 1004 442 743 442 711 
C 442 545 506 302 723 168 
C 390 85 128 -169 128 -486 
C 128 -943 736 -1280 1466 -1280 
C 2170 -1280 2803 -956 2803 -479 
C 2803 384 1856 384 1363 384 
C 1216 384 954 384 922 391 
C 723 423 589 602 589 826 
C 589 883 589 1024 710 1164 
z
M 1299 1068 
C 736 1068 736 1760 736 1889 
C 736 2016 736 2708 1299 2708 
C 1862 2708 1862 2016 1862 1889 
C 1862 1760 1862 1068 1299 1068 
z
M 1466 -1171 
C 826 -1171 384 -835 384 -486 
C 384 -289 493 -105 634 -4 
C 794 104 858 104 1293 104 
C 1818 104 2547 104 2547 -486 
C 2547 -835 2106 -1171 1466 -1171 
z
" transform="scale(0.015625)"/>
     </defs>
     <use xlink:href="#CMR17-5a" transform="scale(0.996264)"/>
     <use xlink:href="#CMR17-6f" transform="translate(56.100171 0) scale(0.996264)"/>
     <use xlink:href="#CMR17-6f" transform="translate(104.393087 0) scale(0.996264)"/>
     <use xlink:href="#CMR17-6d" transform="translate(150.083564 0) scale(0.996264)"/>
     <use xlink:href="#CMR17-69" transform="translate(227.003154 0) scale(0.996264)"/>
     <use xlink:href="#CMR17-6e" transform="translate(251.874213 0) scale(0.996264)"/>
     <use xlink:href="#CMR17-67" transform="translate(302.769582 0) scale(0.996264)"/>
     <use xlink:href="#CMR17-64" transform="translate(378.536026 0) scale(0.996264)"/>
     <use xlink:href="#CMR17-61" transform="translate(429.431396 0) scale(0.996264)"/>
     <use xlink:href="#CMR17-74" transform="translate(475.121873 0) scale(0.996264)"/>
     <use xlink:href="#CMR17-61" transform="translate(510.40264 0) scale(0.996264)"/>
    </g>
   </g>
  </g>
 </g>
 <defs>
  <clipPath id="p420d2bfd35">
   <rect x="108" y="43.2" width="669.6" height="277.2"/>
  </clipPath>
 </defs>
</svg>
