<?xml version="1.0" encoding="utf-8" standalone="no"?>
<!DOCTYPE svg PUBLIC "-//W3C//DTD SVG 1.1//EN"
  "http://www.w3.org/Graphics/SVG/1.1/DTD/svg11.dtd">
<svg xmlns:xlink="http://www.w3.org/1999/xlink" width="864pt" height="360pt" viewBox="0 0 864 360" xmlns="http://www.w3.org/2000/svg" version="1.1">
 <metadata>
  <rdf:RDF xmlns:dc="http://purl.org/dc/elements/1.1/" xmlns:cc="http://creativecommons.org/ns#" xmlns:rdf="http://www.w3.org/1999/02/22-rdf-syntax-ns#">
   <cc:Work>
    <dc:type rdf:resource="http://purl.org/dc/dcmitype/StillImage"/>
    <dc:date>2023-07-26T17:17:41.731292</dc:date>
    <dc:format>image/svg+xml</dc:format>
    <dc:creator>
     <cc:Agent>
      <dc:title>Matplotlib v3.7.1, https://matplotlib.org/</dc:title>
     </cc:Agent>
    </dc:creator>
   </cc:Work>
  </rdf:RDF>
 </metadata>
 <defs>
  <style type="text/css">*{stroke-linejoin: round; stroke-linecap: butt}</style>
 </defs>
 <g id="figure_1">
  <g id="patch_1">
   <path d="M 0 360 
L 864 360 
L 864 0 
L 0 0 
z
" style="fill: #ffffff"/>
  </g>
  <g id="axes_1">
   <g id="patch_2">
    <path d="M 108 320.4 
L 777.6 320.4 
L 777.6 43.2 
L 108 43.2 
z
" style="fill: #ffffff"/>
   </g>
   <g id="matplotlib.axis_1">
    <g id="xtick_1">
     <g id="line2d_1">
      <path d="M 138.436364 320.4 
L 138.436364 43.2 
" clip-path="url(#p68acd41e62)" style="fill: none; stroke: #b0b0b0; stroke-width: 0.8; stroke-linecap: square"/>
     </g>
     <g id="line2d_2">
      <defs>
       <path id="m644eff210c" d="M 0 0 
L 0 3.5 
" style="stroke: #000000; stroke-width: 0.8"/>
      </defs>
      <g>
       <use xlink:href="#m644eff210c" x="138.436364" y="320.4" style="stroke: #000000; stroke-width: 0.8"/>
      </g>
     </g>
     <g id="text_1">
      <!-- $\mathdefault{0}$ -->
      <g transform="translate(135.265994 336.394028) scale(0.13 -0.13)">
       <defs>
        <path id="CMR17-30" d="M 2688 2025 
C 2688 2416 2682 3080 2413 3591 
C 2176 4039 1798 4198 1466 4198 
C 1158 4198 768 4058 525 3597 
C 269 3118 243 2524 243 2025 
C 243 1661 250 1106 448 619 
C 723 -39 1216 -128 1466 -128 
C 1760 -128 2208 -7 2470 600 
C 2662 1042 2688 1559 2688 2025 
z
M 1466 -26 
C 1056 -26 813 325 723 812 
C 653 1188 653 1738 653 2096 
C 653 2588 653 2997 736 3387 
C 858 3929 1216 4096 1466 4096 
C 1728 4096 2067 3923 2189 3400 
C 2272 3036 2278 2607 2278 2096 
C 2278 1680 2278 1169 2202 792 
C 2067 95 1690 -26 1466 -26 
z
" transform="scale(0.015625)"/>
       </defs>
       <use xlink:href="#CMR17-30" transform="scale(0.996264)"/>
      </g>
     </g>
    </g>
    <g id="xtick_2">
     <g id="line2d_3">
      <path d="M 267.897715 320.4 
L 267.897715 43.2 
" clip-path="url(#p68acd41e62)" style="fill: none; stroke: #b0b0b0; stroke-width: 0.8; stroke-linecap: square"/>
     </g>
     <g id="line2d_4">
      <g>
       <use xlink:href="#m644eff210c" x="267.897715" y="320.4" style="stroke: #000000; stroke-width: 0.8"/>
      </g>
     </g>
     <g id="text_2">
      <!-- $\mathdefault{5}$ -->
      <g transform="translate(264.727345 336.394028) scale(0.13 -0.13)">
       <defs>
        <path id="CMR17-35" d="M 730 3692 
C 794 3666 1056 3584 1325 3584 
C 1920 3584 2246 3911 2432 4100 
C 2432 4157 2432 4192 2394 4192 
C 2387 4192 2374 4192 2323 4163 
C 2099 4058 1837 3973 1517 3973 
C 1325 3973 1037 3999 723 4139 
C 653 4171 640 4171 634 4171 
C 602 4171 595 4164 595 4037 
L 595 2203 
C 595 2089 595 2057 659 2057 
C 691 2057 704 2070 736 2114 
C 941 2401 1222 2522 1542 2522 
C 1766 2522 2246 2382 2246 1289 
C 2246 1085 2246 715 2054 421 
C 1894 159 1645 25 1370 25 
C 947 25 518 320 403 814 
C 429 807 480 795 506 795 
C 589 795 749 840 749 1038 
C 749 1210 627 1280 506 1280 
C 358 1280 262 1190 262 1011 
C 262 454 704 -128 1382 -128 
C 2042 -128 2669 440 2669 1264 
C 2669 2030 2170 2624 1549 2624 
C 1222 2624 947 2503 730 2274 
L 730 3692 
z
" transform="scale(0.015625)"/>
       </defs>
       <use xlink:href="#CMR17-35" transform="scale(0.996264)"/>
      </g>
     </g>
    </g>
    <g id="xtick_3">
     <g id="line2d_5">
      <path d="M 397.359066 320.4 
L 397.359066 43.2 
" clip-path="url(#p68acd41e62)" style="fill: none; stroke: #b0b0b0; stroke-width: 0.8; stroke-linecap: square"/>
     </g>
     <g id="line2d_6">
      <g>
       <use xlink:href="#m644eff210c" x="397.359066" y="320.4" style="stroke: #000000; stroke-width: 0.8"/>
      </g>
     </g>
     <g id="text_3">
      <!-- $\mathdefault{10}$ -->
      <g transform="translate(391.018326 336.394028) scale(0.13 -0.13)">
       <defs>
        <path id="CMR17-31" d="M 1702 4058 
C 1702 4192 1696 4192 1606 4192 
C 1357 3916 979 3827 621 3827 
C 602 3827 570 3827 563 3808 
C 557 3795 557 3782 557 3648 
C 755 3648 1088 3686 1344 3839 
L 1344 461 
C 1344 236 1331 160 781 160 
L 589 160 
L 589 0 
C 896 0 1216 0 1523 0 
C 1830 0 2150 0 2458 0 
L 2458 160 
L 2266 160 
C 1715 160 1702 230 1702 458 
L 1702 4058 
z
" transform="scale(0.015625)"/>
       </defs>
       <use xlink:href="#CMR17-31" transform="scale(0.996264)"/>
       <use xlink:href="#CMR17-30" transform="translate(45.690477 0) scale(0.996264)"/>
      </g>
     </g>
    </g>
    <g id="xtick_4">
     <g id="line2d_7">
      <path d="M 526.820417 320.4 
L 526.820417 43.2 
" clip-path="url(#p68acd41e62)" style="fill: none; stroke: #b0b0b0; stroke-width: 0.8; stroke-linecap: square"/>
     </g>
     <g id="line2d_8">
      <g>
       <use xlink:href="#m644eff210c" x="526.820417" y="320.4" style="stroke: #000000; stroke-width: 0.8"/>
      </g>
     </g>
     <g id="text_4">
      <!-- $\mathdefault{15}$ -->
      <g transform="translate(520.479677 336.394028) scale(0.13 -0.13)">
       <use xlink:href="#CMR17-31" transform="scale(0.996264)"/>
       <use xlink:href="#CMR17-35" transform="translate(45.690477 0) scale(0.996264)"/>
      </g>
     </g>
    </g>
    <g id="xtick_5">
     <g id="line2d_9">
      <path d="M 656.281768 320.4 
L 656.281768 43.2 
" clip-path="url(#p68acd41e62)" style="fill: none; stroke: #b0b0b0; stroke-width: 0.8; stroke-linecap: square"/>
     </g>
     <g id="line2d_10">
      <g>
       <use xlink:href="#m644eff210c" x="656.281768" y="320.4" style="stroke: #000000; stroke-width: 0.8"/>
      </g>
     </g>
     <g id="text_5">
      <!-- $\mathdefault{20}$ -->
      <g transform="translate(649.941028 336.394028) scale(0.13 -0.13)">
       <defs>
        <path id="CMR17-32" d="M 2669 989 
L 2554 989 
C 2490 536 2438 459 2413 420 
C 2381 369 1920 369 1830 369 
L 602 369 
C 832 619 1280 1072 1824 1597 
C 2214 1967 2669 2402 2669 3035 
C 2669 3790 2067 4224 1395 4224 
C 691 4224 262 3604 262 3030 
C 262 2780 448 2748 525 2748 
C 589 2748 781 2787 781 3010 
C 781 3207 614 3264 525 3264 
C 486 3264 448 3258 422 3245 
C 544 3790 915 4058 1306 4058 
C 1862 4058 2227 3617 2227 3035 
C 2227 2479 1901 2000 1536 1584 
L 262 146 
L 262 0 
L 2515 0 
L 2669 989 
z
" transform="scale(0.015625)"/>
       </defs>
       <use xlink:href="#CMR17-32" transform="scale(0.996264)"/>
       <use xlink:href="#CMR17-30" transform="translate(45.690477 0) scale(0.996264)"/>
      </g>
     </g>
    </g>
    <g id="text_6">
     <!-- $t$ (s) -->
     <g transform="translate(430.963961 352.625914) scale(0.13 -0.13)">
      <defs>
       <path id="CMMI12-74" d="M 1286 2566 
L 1875 2566 
C 1997 2566 2061 2566 2061 2681 
C 2061 2752 2022 2752 1894 2752 
L 1331 2752 
L 1568 3692 
C 1594 3781 1594 3794 1594 3840 
C 1594 3943 1510 4000 1427 4000 
C 1376 4000 1229 3981 1178 3775 
L 928 2752 
L 326 2752 
C 198 2752 141 2752 141 2630 
C 141 2566 186 2566 307 2566 
L 877 2566 
L 454 881 
C 403 658 384 594 384 511 
C 384 211 595 -64 954 -64 
C 1600 -64 1946 868 1946 912 
C 1946 951 1920 970 1882 970 
C 1869 970 1843 970 1830 944 
C 1824 938 1818 931 1773 829 
C 1638 511 1344 64 973 64 
C 781 64 768 224 768 364 
C 768 370 768 492 787 568 
L 1286 2566 
z
" transform="scale(0.015625)"/>
       <path id="CMR17-28" d="M 1958 -1561 
C 1958 -1555 1958 -1542 1939 -1523 
C 1645 -1224 858 -407 858 1581 
C 858 3569 1632 4379 1946 4697 
C 1946 4704 1958 4717 1958 4736 
C 1958 4755 1939 4768 1914 4768 
C 1843 4768 1299 4296 986 3594 
C 666 2887 576 2199 576 1588 
C 576 1128 621 351 1005 -471 
C 1312 -1135 1837 -1600 1914 -1600 
C 1946 -1600 1958 -1587 1958 -1561 
z
" transform="scale(0.015625)"/>
       <path id="CMR17-73" d="M 1978 2697 
C 1978 2813 1971 2819 1933 2819 
C 1907 2819 1901 2813 1824 2717 
C 1805 2691 1747 2626 1728 2601 
C 1523 2819 1235 2819 1126 2819 
C 416 2819 160 2447 160 2076 
C 160 1498 813 1365 998 1325 
C 1402 1243 1542 1217 1677 1101 
C 1760 1025 1901 884 1901 654 
C 1901 384 1747 38 1158 38 
C 602 38 403 460 288 1021 
C 269 1110 269 1117 218 1117 
C 166 1117 160 1110 160 983 
L 160 63 
C 160 -51 166 -58 205 -58 
C 237 -58 243 -51 275 0 
C 314 57 410 211 448 276 
C 576 103 800 -64 1158 -64 
C 1792 -64 2131 283 2131 784 
C 2131 1112 1958 1285 1875 1362 
C 1683 1561 1459 1606 1190 1657 
C 838 1735 390 1825 390 2217 
C 390 2383 480 2737 1126 2737 
C 1811 2737 1850 2094 1862 1888 
C 1869 1856 1901 1849 1920 1849 
C 1978 1849 1978 1869 1978 1978 
L 1978 2697 
z
" transform="scale(0.015625)"/>
       <path id="CMR17-29" d="M 1683 1581 
C 1683 2040 1638 2817 1254 3639 
C 947 4303 422 4768 346 4768 
C 326 4768 301 4761 301 4729 
C 301 4717 307 4710 314 4697 
C 621 4378 1402 3568 1402 1584 
C 1402 -407 627 -1217 314 -1537 
C 307 -1549 301 -1556 301 -1568 
C 301 -1600 326 -1600 346 -1600 
C 416 -1600 960 -1128 1274 -426 
C 1594 281 1683 969 1683 1581 
z
" transform="scale(0.015625)"/>
      </defs>
      <use xlink:href="#CMMI12-74" transform="scale(0.996264)"/>
      <use xlink:href="#CMR17-28" transform="translate(65.302297 0) scale(0.996264)"/>
      <use xlink:href="#CMR17-73" transform="translate(100.583064 0) scale(0.996264)"/>
      <use xlink:href="#CMR17-29" transform="translate(136.384402 0) scale(0.996264)"/>
     </g>
    </g>
   </g>
   <g id="matplotlib.axis_2">
    <g id="ytick_1">
     <g id="line2d_11">
      <path d="M 108 313.58465 
L 777.6 313.58465 
" clip-path="url(#p68acd41e62)" style="fill: none; stroke: #b0b0b0; stroke-width: 0.8; stroke-linecap: square"/>
     </g>
     <g id="line2d_12">
      <defs>
       <path id="m27e01618b8" d="M 0 0 
L -3.5 0 
" style="stroke: #000000; stroke-width: 0.8"/>
      </defs>
      <g>
       <use xlink:href="#m27e01618b8" x="108" y="313.58465" style="stroke: #000000; stroke-width: 0.8"/>
      </g>
     </g>
     <g id="text_7">
      <!-- $\mathdefault{−0.03}$ -->
      <g transform="translate(68.381779 318.081664) scale(0.13 -0.13)">
       <defs>
        <path id="CMSY10-0" d="M 4218 1472 
C 4326 1472 4442 1472 4442 1600 
C 4442 1728 4326 1728 4218 1728 
L 755 1728 
C 646 1728 531 1728 531 1600 
C 531 1472 646 1472 755 1472 
L 4218 1472 
z
" transform="scale(0.015625)"/>
        <path id="CMMI12-3a" d="M 1178 307 
C 1178 492 1024 619 870 619 
C 685 619 557 466 557 313 
C 557 128 710 0 864 0 
C 1050 0 1178 153 1178 307 
z
" transform="scale(0.015625)"/>
        <path id="CMR17-33" d="M 1414 2157 
C 1984 2157 2234 1662 2234 1090 
C 2234 320 1824 25 1453 25 
C 1114 25 563 194 390 693 
C 422 680 454 680 486 680 
C 640 680 755 782 755 948 
C 755 1133 614 1216 486 1216 
C 378 1216 211 1165 211 926 
C 211 335 787 -128 1466 -128 
C 2176 -128 2720 430 2720 1085 
C 2720 1707 2208 2157 1600 2227 
C 2086 2328 2554 2756 2554 3329 
C 2554 3820 2048 4179 1472 4179 
C 890 4179 378 3829 378 3329 
C 378 3110 544 3072 627 3072 
C 762 3072 877 3155 877 3321 
C 877 3486 762 3569 627 3569 
C 602 3569 570 3569 544 3557 
C 730 3959 1235 4032 1459 4032 
C 1683 4032 2106 3925 2106 3320 
C 2106 3143 2080 2828 1862 2550 
C 1670 2304 1453 2304 1242 2284 
C 1210 2284 1062 2269 1037 2269 
C 992 2263 966 2257 966 2208 
C 966 2163 973 2157 1101 2157 
L 1414 2157 
z
" transform="scale(0.015625)"/>
       </defs>
       <use xlink:href="#CMSY10-0" transform="scale(0.996264)"/>
       <use xlink:href="#CMR17-30" transform="translate(77.487468 0) scale(0.996264)"/>
       <use xlink:href="#CMMI12-3a" transform="translate(123.177945 0) scale(0.996264)"/>
       <use xlink:href="#CMR17-30" transform="translate(150.275122 0) scale(0.996264)"/>
       <use xlink:href="#CMR17-33" transform="translate(195.965599 0) scale(0.996264)"/>
      </g>
     </g>
    </g>
    <g id="ytick_2">
     <g id="line2d_13">
      <path d="M 108 264.776772 
L 777.6 264.776772 
" clip-path="url(#p68acd41e62)" style="fill: none; stroke: #b0b0b0; stroke-width: 0.8; stroke-linecap: square"/>
     </g>
     <g id="line2d_14">
      <g>
       <use xlink:href="#m27e01618b8" x="108" y="264.776772" style="stroke: #000000; stroke-width: 0.8"/>
      </g>
     </g>
     <g id="text_8">
      <!-- $\mathdefault{−0.02}$ -->
      <g transform="translate(68.381779 269.273786) scale(0.13 -0.13)">
       <use xlink:href="#CMSY10-0" transform="scale(0.996264)"/>
       <use xlink:href="#CMR17-30" transform="translate(77.487468 0) scale(0.996264)"/>
       <use xlink:href="#CMMI12-3a" transform="translate(123.177945 0) scale(0.996264)"/>
       <use xlink:href="#CMR17-30" transform="translate(150.275122 0) scale(0.996264)"/>
       <use xlink:href="#CMR17-32" transform="translate(195.965599 0) scale(0.996264)"/>
      </g>
     </g>
    </g>
    <g id="ytick_3">
     <g id="line2d_15">
      <path d="M 108 215.968894 
L 777.6 215.968894 
" clip-path="url(#p68acd41e62)" style="fill: none; stroke: #b0b0b0; stroke-width: 0.8; stroke-linecap: square"/>
     </g>
     <g id="line2d_16">
      <g>
       <use xlink:href="#m27e01618b8" x="108" y="215.968894" style="stroke: #000000; stroke-width: 0.8"/>
      </g>
     </g>
     <g id="text_9">
      <!-- $\mathdefault{−0.01}$ -->
      <g transform="translate(68.381779 220.465908) scale(0.13 -0.13)">
       <use xlink:href="#CMSY10-0" transform="scale(0.996264)"/>
       <use xlink:href="#CMR17-30" transform="translate(77.487468 0) scale(0.996264)"/>
       <use xlink:href="#CMMI12-3a" transform="translate(123.177945 0) scale(0.996264)"/>
       <use xlink:href="#CMR17-30" transform="translate(150.275122 0) scale(0.996264)"/>
       <use xlink:href="#CMR17-31" transform="translate(195.965599 0) scale(0.996264)"/>
      </g>
     </g>
    </g>
    <g id="ytick_4">
     <g id="line2d_17">
      <path d="M 108 167.161016 
L 777.6 167.161016 
" clip-path="url(#p68acd41e62)" style="fill: none; stroke: #b0b0b0; stroke-width: 0.8; stroke-linecap: square"/>
     </g>
     <g id="line2d_18">
      <g>
       <use xlink:href="#m27e01618b8" x="108" y="167.161016" style="stroke: #000000; stroke-width: 0.8"/>
      </g>
     </g>
     <g id="text_10">
      <!-- $\mathdefault{0.00}$ -->
      <g transform="translate(78.455149 171.65803) scale(0.13 -0.13)">
       <use xlink:href="#CMR17-30" transform="scale(0.996264)"/>
       <use xlink:href="#CMMI12-3a" transform="translate(45.690477 0) scale(0.996264)"/>
       <use xlink:href="#CMR17-30" transform="translate(72.787654 0) scale(0.996264)"/>
       <use xlink:href="#CMR17-30" transform="translate(118.478131 0) scale(0.996264)"/>
      </g>
     </g>
    </g>
    <g id="ytick_5">
     <g id="line2d_19">
      <path d="M 108 118.353138 
L 777.6 118.353138 
" clip-path="url(#p68acd41e62)" style="fill: none; stroke: #b0b0b0; stroke-width: 0.8; stroke-linecap: square"/>
     </g>
     <g id="line2d_20">
      <g>
       <use xlink:href="#m27e01618b8" x="108" y="118.353138" style="stroke: #000000; stroke-width: 0.8"/>
      </g>
     </g>
     <g id="text_11">
      <!-- $\mathdefault{0.01}$ -->
      <g transform="translate(78.455149 122.850152) scale(0.13 -0.13)">
       <use xlink:href="#CMR17-30" transform="scale(0.996264)"/>
       <use xlink:href="#CMMI12-3a" transform="translate(45.690477 0) scale(0.996264)"/>
       <use xlink:href="#CMR17-30" transform="translate(72.787654 0) scale(0.996264)"/>
       <use xlink:href="#CMR17-31" transform="translate(118.478131 0) scale(0.996264)"/>
      </g>
     </g>
    </g>
    <g id="ytick_6">
     <g id="line2d_21">
      <path d="M 108 69.54526 
L 777.6 69.54526 
" clip-path="url(#p68acd41e62)" style="fill: none; stroke: #b0b0b0; stroke-width: 0.8; stroke-linecap: square"/>
     </g>
     <g id="line2d_22">
      <g>
       <use xlink:href="#m27e01618b8" x="108" y="69.54526" style="stroke: #000000; stroke-width: 0.8"/>
      </g>
     </g>
     <g id="text_12">
      <!-- $\mathdefault{0.02}$ -->
      <g transform="translate(78.455149 74.042274) scale(0.13 -0.13)">
       <use xlink:href="#CMR17-30" transform="scale(0.996264)"/>
       <use xlink:href="#CMMI12-3a" transform="translate(45.690477 0) scale(0.996264)"/>
       <use xlink:href="#CMR17-30" transform="translate(72.787654 0) scale(0.996264)"/>
       <use xlink:href="#CMR17-32" transform="translate(118.478131 0) scale(0.996264)"/>
      </g>
     </g>
    </g>
    <g id="text_13">
     <!-- displacement (m) -->
     <g transform="translate(61.143921 229.919159) rotate(-90) scale(0.13 -0.13)">
      <defs>
       <path id="CMR17-64" d="M 1869 4326 
L 1869 4160 
C 2246 4160 2304 4122 2304 3820 
L 2304 2345 
C 2278 2377 2016 2790 1498 2790 
C 845 2790 211 2208 211 1364 
C 211 525 806 -64 1434 -64 
C 1978 -64 2259 337 2291 380 
L 2291 -63 
L 3066 -63 
L 3066 128 
C 2688 128 2630 166 2630 473 
L 2630 4396 
L 1869 4326 
z
M 2291 755 
C 2291 563 2176 390 2029 262 
C 1811 70 1594 38 1472 38 
C 1286 38 621 134 621 1356 
C 621 2612 1363 2688 1530 2688 
C 1824 2688 2061 2522 2208 2291 
C 2291 2157 2291 2138 2291 2023 
L 2291 755 
z
" transform="scale(0.015625)"/>
       <path id="CMR17-69" d="M 992 3909 
C 992 4049 877 4170 730 4170 
C 589 4170 467 4056 467 3909 
C 467 3769 582 3648 730 3648 
C 870 3648 992 3763 992 3909 
z
M 243 2706 
L 243 2541 
C 602 2541 653 2502 653 2197 
L 653 427 
C 653 184 627 153 218 153 
L 218 -13 
C 371 0 646 0 806 0 
C 960 0 1222 0 1370 -13 
L 1370 153 
C 992 153 979 191 979 420 
L 979 2776 
L 243 2706 
z
" transform="scale(0.015625)"/>
       <path id="CMR17-70" d="M 1408 -1063 
C 998 -1063 973 -1037 973 -789 
L 973 402 
C 1158 134 1427 -38 1766 -38 
C 2406 -38 3053 523 3053 1388 
C 3053 2191 2496 2802 1837 2802 
C 1453 2802 1139 2592 960 2338 
L 960 2802 
L 198 2732 
L 198 2567 
C 576 2567 634 2528 634 2223 
L 634 -789 
C 634 -1031 608 -1063 198 -1063 
L 198 -1228 
C 352 -1216 634 -1216 800 -1216 
C 966 -1216 1254 -1216 1408 -1228 
L 1408 -1063 
z
M 973 2012 
C 973 2102 973 2235 1222 2471 
C 1254 2497 1472 2688 1792 2688 
C 2259 2688 2643 2108 2643 1382 
C 2643 656 2234 64 1728 64 
C 1498 64 1248 172 1056 472 
C 973 612 973 650 973 752 
L 973 2012 
z
" transform="scale(0.015625)"/>
       <path id="CMR17-6c" d="M 979 4396 
L 218 4326 
L 218 4160 
C 595 4160 653 4122 653 3817 
L 653 426 
C 653 184 627 153 218 153 
L 218 -13 
C 371 0 653 0 813 0 
C 979 0 1261 0 1414 -13 
L 1414 153 
C 1005 153 979 178 979 426 
L 979 4396 
z
" transform="scale(0.015625)"/>
       <path id="CMR17-61" d="M 2304 1653 
C 2304 2072 2304 2294 2035 2543 
C 1798 2752 1523 2816 1306 2816 
C 800 2816 435 2407 435 1971 
C 435 1728 627 1728 666 1728 
C 749 1728 896 1778 896 1954 
C 896 2112 774 2181 666 2181 
C 640 2181 608 2174 589 2168 
C 723 2592 1069 2714 1293 2714 
C 1613 2714 1965 2429 1965 1885 
L 1965 1600 
C 1587 1600 1133 1549 774 1357 
C 371 1133 256 813 256 570 
C 256 77 832 -64 1171 -64 
C 1523 -64 1850 139 1990 511 
C 2003 233 2182 -18 2464 -18 
C 2598 -18 2938 70 2938 567 
L 2938 920 
L 2822 920 
L 2822 562 
C 2822 178 2650 128 2566 128 
C 2304 128 2304 458 2304 738 
L 2304 1653 
z
M 1965 870 
C 1965 317 1568 38 1216 38 
C 896 38 646 275 646 570 
C 646 761 730 1100 1101 1305 
C 1408 1478 1760 1504 1965 1504 
L 1965 870 
z
" transform="scale(0.015625)"/>
       <path id="CMR17-63" d="M 2234 2240 
C 2112 2240 1933 2240 1933 2017 
C 1933 1838 2080 1787 2163 1787 
C 2208 1787 2394 1807 2394 2024 
C 2394 2467 1958 2803 1466 2803 
C 787 2803 211 2178 211 1363 
C 211 516 813 -64 1466 -64 
C 2259 -64 2458 677 2458 748 
C 2458 774 2451 793 2406 793 
C 2362 793 2355 787 2330 703 
C 2163 180 1798 51 1523 51 
C 1114 51 621 427 621 1369 
C 621 2338 1094 2688 1472 2688 
C 1722 2688 2093 2573 2234 2240 
z
" transform="scale(0.015625)"/>
       <path id="CMR17-65" d="M 2438 1472 
C 2464 1498 2464 1511 2464 1576 
C 2464 2238 2118 2816 1389 2816 
C 710 2816 173 2169 173 1383 
C 173 551 781 -64 1459 -64 
C 2176 -64 2458 607 2458 740 
C 2458 784 2419 784 2406 784 
C 2362 784 2355 771 2330 696 
C 2189 265 1837 51 1504 51 
C 1229 51 954 203 781 480 
C 582 803 582 1176 582 1472 
L 2438 1472 
z
M 589 1568 
C 634 2505 1126 2714 1382 2714 
C 1818 2714 2112 2297 2118 1568 
L 589 1568 
z
" transform="scale(0.015625)"/>
       <path id="CMR17-6d" d="M 4326 1933 
C 4326 2252 4269 2790 3507 2790 
C 3072 2790 2771 2496 2656 2151 
L 2650 2151 
C 2573 2676 2195 2790 1837 2790 
C 1331 2790 1069 2400 973 2144 
L 966 2144 
L 966 2790 
L 211 2720 
L 211 2554 
C 589 2554 646 2515 646 2208 
L 646 428 
C 646 184 621 153 211 153 
L 211 -13 
C 365 0 646 0 813 0 
C 979 0 1267 0 1421 -13 
L 1421 153 
C 1011 153 986 178 986 428 
L 986 1658 
C 986 2247 1344 2688 1792 2688 
C 2266 2688 2317 2266 2317 1958 
L 2317 428 
C 2317 184 2291 153 1882 153 
L 1882 -13 
C 2035 0 2317 0 2483 0 
C 2650 0 2938 0 3091 -13 
L 3091 153 
C 2682 153 2656 178 2656 428 
L 2656 1658 
C 2656 2247 3014 2688 3462 2688 
C 3936 2688 3987 2266 3987 1958 
L 3987 428 
C 3987 184 3962 153 3552 153 
L 3552 -13 
C 3706 0 3987 0 4154 0 
C 4320 0 4608 0 4762 -13 
L 4762 153 
C 4352 153 4326 178 4326 428 
L 4326 1933 
z
" transform="scale(0.015625)"/>
       <path id="CMR17-6e" d="M 2656 1933 
C 2656 2259 2592 2790 1837 2790 
C 1331 2790 1069 2400 973 2144 
L 966 2144 
L 966 2790 
L 211 2720 
L 211 2554 
C 589 2554 646 2515 646 2208 
L 646 428 
C 646 184 621 153 211 153 
L 211 -13 
C 365 0 646 0 813 0 
C 979 0 1267 0 1421 -13 
L 1421 153 
C 1011 153 986 178 986 428 
L 986 1658 
C 986 2247 1344 2688 1792 2688 
C 2266 2688 2317 2266 2317 1958 
L 2317 428 
C 2317 184 2291 153 1882 153 
L 1882 -13 
C 2035 0 2317 0 2483 0 
C 2650 0 2938 0 3091 -13 
L 3091 153 
C 2682 153 2656 178 2656 428 
L 2656 1933 
z
" transform="scale(0.015625)"/>
       <path id="CMR17-74" d="M 966 2560 
L 1862 2560 
L 1862 2725 
L 966 2725 
L 966 3904 
L 851 3904 
C 838 3245 614 2668 70 2668 
L 70 2560 
L 627 2560 
L 627 771 
C 627 650 627 -64 1370 -64 
C 1747 -64 1965 306 1965 777 
L 1965 1140 
L 1850 1140 
L 1850 783 
C 1850 344 1677 51 1408 51 
C 1222 51 966 178 966 758 
L 966 2560 
z
" transform="scale(0.015625)"/>
      </defs>
      <use xlink:href="#CMR17-64" transform="scale(0.996264)"/>
      <use xlink:href="#CMR17-69" transform="translate(50.89537 0) scale(0.996264)"/>
      <use xlink:href="#CMR17-73" transform="translate(75.766428 0) scale(0.996264)"/>
      <use xlink:href="#CMR17-70" transform="translate(111.567766 0) scale(0.996264)"/>
      <use xlink:href="#CMR17-6c" transform="translate(162.463136 0) scale(0.996264)"/>
      <use xlink:href="#CMR17-61" transform="translate(187.334194 0) scale(0.996264)"/>
      <use xlink:href="#CMR17-63" transform="translate(233.024671 0) scale(0.996264)"/>
      <use xlink:href="#CMR17-65" transform="translate(273.510332 0) scale(0.996264)"/>
      <use xlink:href="#CMR17-6d" transform="translate(313.995992 0) scale(0.996264)"/>
      <use xlink:href="#CMR17-65" transform="translate(390.915582 0) scale(0.996264)"/>
      <use xlink:href="#CMR17-6e" transform="translate(431.401243 0) scale(0.996264)"/>
      <use xlink:href="#CMR17-74" transform="translate(479.694158 0) scale(0.996264)"/>
      <use xlink:href="#CMR17-28" transform="translate(545.050893 0) scale(0.996264)"/>
      <use xlink:href="#CMR17-6d" transform="translate(580.33166 0) scale(0.996264)"/>
      <use xlink:href="#CMR17-29" transform="translate(657.25125 0) scale(0.996264)"/>
     </g>
    </g>
   </g>
   <g id="line2d_23">
    <path d="M 138.436364 298.766161 
L 138.695286 299.104098 
L 138.954209 298.949741 
L 139.213132 298.417533 
L 139.9899 295.698237 
L 140.507745 293.715846 
L 141.543436 288.488616 
L 141.802359 288.678105 
L 142.83805 291.930937 
L 143.096972 291.272942 
L 143.355895 289.478719 
L 144.650508 274.749482 
L 144.909431 274.920026 
L 145.168354 277.110617 
L 145.945122 285.872274 
L 146.204045 286.514758 
L 146.462967 285.309131 
L 146.980813 278.00131 
L 147.498658 270.670594 
L 148.016504 266.525071 
L 148.534349 264.181081 
L 148.793272 264.139551 
L 149.052194 265.256066 
L 149.57004 270.98253 
L 151.123576 292.082191 
L 151.382499 293.383349 
L 151.641421 292.032465 
L 152.159267 286.689697 
L 152.41819 285.71418 
L 152.677112 286.15105 
L 153.45388 290.408441 
L 153.712803 290.650108 
L 153.971726 289.376692 
L 155.007417 280.538238 
L 155.266339 279.312735 
L 155.525262 278.690018 
L 155.784185 278.968392 
L 156.043107 280.499683 
L 156.30203 283.635718 
L 157.078798 295.879523 
L 157.337721 295.339081 
L 157.596644 292.094418 
L 158.632334 273.915978 
L 158.891257 272.49724 
L 159.15018 272.830894 
L 159.409103 274.459837 
L 159.926948 278.907672 
L 160.185871 279.619527 
L 160.444793 278.259963 
L 160.962639 273.581296 
L 161.221561 272.669978 
L 161.480484 272.729285 
L 161.99833 273.285849 
L 162.257252 273.591562 
L 162.516175 274.484808 
L 162.775098 276.440043 
L 163.292943 282.617229 
L 163.551866 283.914621 
L 163.810788 282.405942 
L 164.328634 276.440043 
L 164.587557 275.080407 
L 164.846479 274.553175 
L 165.105402 273.678911 
L 165.623247 269.915706 
L 165.88217 269.816116 
L 166.141093 272.508376 
L 166.658938 280.860642 
L 166.917861 283.366851 
L 167.176784 284.531922 
L 167.694629 285.268137 
L 168.73032 286.274686 
L 168.989242 286.786514 
L 169.507088 288.636136 
L 170.024933 290.496712 
L 170.283856 290.671477 
L 170.542779 290.18604 
L 170.801701 289.032475 
L 171.319547 285.826836 
L 171.57847 285.323077 
L 171.837392 286.316336 
L 172.096315 287.838396 
L 172.355238 288.558342 
L 172.61416 287.490081 
L 173.132006 281.906525 
L 174.426619 267.203638 
L 174.685542 267.933527 
L 175.203387 278.047491 
L 175.721233 286.575136 
L 175.980155 287.830201 
L 176.498001 288.600177 
L 177.015846 290.387295 
L 177.274769 289.436883 
L 177.792614 281.187742 
L 178.31046 274.170909 
L 179.087228 269.509535 
L 179.605073 264.042842 
L 179.863996 260.399954 
L 180.122919 254.34836 
L 180.381841 243.7806 
L 180.899687 206.777 
L 181.935378 126.767199 
L 182.1943 114.708505 
L 182.453223 108.131725 
L 182.712146 108.108644 
L 182.971068 115.12102 
L 183.488914 142.148653 
L 184.265682 185.476103 
L 184.783527 203.508848 
L 185.04245 205.654675 
L 185.301373 201.962456 
L 185.819218 183.272776 
L 186.337064 158.06904 
L 186.854909 120.209121 
L 187.372754 80.134758 
L 187.631677 68.249506 
L 187.8906 62.784016 
L 188.149522 62.814933 
L 188.408445 67.657316 
L 188.667368 77.579881 
L 189.185213 114.159902 
L 190.479827 228.747773 
L 190.997672 259.438731 
L 191.256595 266.4414 
L 191.515518 265.647568 
L 191.77444 258.245049 
L 192.292286 230.87251 
L 193.586899 136.893592 
L 194.104745 103.732538 
L 194.363667 94.410605 
L 194.62259 95.613827 
L 196.435049 189.899916 
L 196.693972 197.789634 
L 196.952894 199.294618 
L 197.211817 195.384229 
L 197.729662 178.53144 
L 198.506431 146.638978 
L 199.283199 111.385745 
L 199.542121 106.847071 
L 199.801044 105.904306 
L 200.059967 106.449176 
L 200.318889 107.532171 
L 200.577812 112.838827 
L 200.836735 127.213442 
L 201.872426 222.548322 
L 202.390271 246.144 
L 202.649194 252.935259 
L 202.908116 255.142215 
L 203.167039 251.715366 
L 203.425962 242.120043 
L 203.943807 211.037486 
L 205.497343 101.73573 
L 205.756266 95.142741 
L 206.015189 93.876055 
L 206.274112 95.069968 
L 206.533034 97.001477 
L 206.791957 102.518364 
L 207.05088 115.611112 
L 207.827648 174.332868 
L 208.086571 180.71616 
L 208.345493 182.506869 
L 208.604416 182.812588 
L 208.863339 183.846207 
L 209.122261 184.241819 
L 209.381184 181.738814 
L 209.640107 174.710674 
L 210.157952 151.352424 
L 210.93472 116.782501 
L 211.193643 111.490924 
L 211.452566 109.332223 
L 211.711488 108.959296 
L 211.970411 110.115797 
L 212.229334 116.908422 
L 212.488256 134.534624 
L 213.265025 219.368862 
L 213.78287 240.782402 
L 214.041793 246.34213 
L 214.300715 248.80498 
L 214.559638 246.702222 
L 214.818561 238.565129 
L 215.336406 204.329341 
L 216.372097 128.468502 
L 216.889942 98.985075 
L 217.148865 89.213023 
L 217.407788 84.306907 
L 217.66671 83.921974 
L 217.925633 87.358324 
L 218.184556 94.314007 
L 218.443479 106.07888 
L 218.961324 149.025233 
L 219.479169 189.271771 
L 219.738092 198.250346 
L 219.997015 202.24677 
L 220.255938 203.562908 
L 220.51486 203.951818 
L 220.773783 202.97131 
L 221.032706 199.630388 
L 221.550551 184.17568 
L 222.845165 131.551209 
L 223.104087 127.198876 
L 223.36301 126.042053 
L 223.621933 128.214155 
L 223.880855 134.030046 
L 224.398701 157.581863 
L 225.175469 201.787553 
L 225.693314 218.986198 
L 225.952237 222.6033 
L 226.21116 222.087171 
L 226.470082 216.629475 
L 226.987928 191.07276 
L 228.282541 109.964839 
L 228.800387 89.617431 
L 229.059309 82.839302 
L 229.318232 79.448883 
L 229.577155 80.762287 
L 229.836077 87.643087 
L 230.353923 113.867974 
L 231.130691 170.457222 
L 231.907459 230.002833 
L 232.166382 237.411744 
L 232.425305 237.018221 
L 232.684227 230.253845 
L 233.202073 203.709674 
L 234.496686 127.230526 
L 234.755609 117.637366 
L 235.014532 113.491456 
L 235.273454 116.055732 
L 235.7913 133.990765 
L 236.568068 169.592625 
L 237.085913 194.584772 
L 237.344836 200.453149 
L 237.603759 198.359291 
L 238.121604 179.674938 
L 239.934063 105.859738 
L 240.192986 102.536498 
L 240.451908 101.777565 
L 240.710831 103.221761 
L 240.969754 107.354306 
L 241.228676 114.872022 
L 241.746522 140.464223 
L 243.300058 232.694737 
L 243.558981 240.963688 
L 243.817903 244.976006 
L 244.076826 243.850998 
L 244.335749 236.696485 
L 244.853594 205.461938 
L 245.630362 150.826838 
L 246.148208 126.733353 
L 246.40713 120.511348 
L 246.666053 118.623256 
L 246.924976 121.032702 
L 247.701744 138.742023 
L 248.219589 153.318684 
L 248.996357 183.370392 
L 249.25528 188.973978 
L 249.514203 189.987142 
L 249.773126 185.559774 
L 250.290971 161.800378 
L 251.067739 123.859453 
L 251.585584 109.674743 
L 251.844507 107.03773 
L 252.10343 108.275986 
L 252.362353 113.701634 
L 253.139121 141.692092 
L 253.656966 168.393346 
L 254.433734 226.683897 
L 254.692657 238.161289 
L 254.95158 243.79315 
L 255.210502 245.03566 
L 255.469425 242.87088 
L 255.728348 236.384408 
L 255.98727 224.187723 
L 257.540807 119.906206 
L 258.058652 101.403878 
L 258.317575 97.412746 
L 258.576497 98.488163 
L 258.83542 103.679963 
L 259.353266 120.84068 
L 260.906802 180.087169 
L 261.165724 181.640198 
L 261.424647 180.079347 
L 261.68357 175.801183 
L 262.201415 159.147739 
L 263.237106 115.275536 
L 263.496029 111.331181 
L 263.754951 111.441525 
L 264.013874 115.783712 
L 264.272797 124.543626 
L 264.790642 155.639774 
L 265.826333 228.653487 
L 266.085256 239.039263 
L 266.344178 244.289253 
L 266.603101 244.129628 
L 266.862024 238.425678 
L 267.379869 211.544909 
L 269.192328 85.894087 
L 269.451251 80.676431 
L 269.710174 80.09187 
L 269.969096 83.648925 
L 270.228019 90.857794 
L 270.745864 114.300272 
L 271.781555 170.376258 
L 272.558323 194.269776 
L 272.817246 199.674701 
L 273.076169 202.489135 
L 273.335091 201.942398 
L 273.594014 198.351084 
L 274.11186 184.388385 
L 274.629705 164.421894 
L 275.406473 130.462652 
L 275.665396 128.800397 
L 275.924318 133.441756 
L 276.442164 152.217439 
L 277.477855 191.460447 
L 277.9957 202.81119 
L 278.254623 205.114053 
L 278.513545 204.399615 
L 278.772468 200.231971 
L 279.290314 182.437817 
L 280.067082 138.915809 
L 280.584927 112.063968 
L 281.102773 97.635868 
L 281.361695 96.585948 
L 281.620618 100.536451 
L 282.138463 122.481111 
L 283.950922 223.615974 
L 284.209845 228.966039 
L 284.468768 228.796764 
L 284.72769 224.586803 
L 285.245536 209.621059 
L 285.763381 187.777046 
L 286.799072 132.434625 
L 287.057995 125.784584 
L 287.316917 125.944437 
L 287.834763 144.003352 
L 289.388299 197.022653 
L 289.647222 199.351532 
L 289.906144 197.320054 
L 290.682912 181.176505 
L 290.941835 174.285171 
L 291.459681 150.359273 
L 291.977526 122.639447 
L 292.236449 115.418636 
L 292.495371 112.474257 
L 292.754294 111.762263 
L 293.013217 111.950112 
L 293.27214 114.551284 
L 293.531062 121.341179 
L 294.048908 146.94577 
L 295.084598 214.919915 
L 295.602444 234.158475 
L 295.861367 239.183241 
L 296.120289 240.622563 
L 296.379212 237.808363 
L 296.638135 230.072559 
L 297.15598 201.414855 
L 298.191671 142.246269 
L 298.709516 116.523274 
L 298.968439 109.684441 
L 299.227362 109.770047 
L 299.486284 115.123034 
L 300.00413 134.270081 
L 301.039821 183.816635 
L 301.298743 189.039314 
L 301.557666 189.755839 
L 301.816589 186.772998 
L 302.334434 173.036267 
L 303.88797 121.835331 
L 304.146893 117.545987 
L 304.405816 119.878315 
L 305.182584 148.897791 
L 305.441507 153.715839 
L 305.700429 161.281341 
L 306.73612 216.234984 
L 306.995043 221.452618 
L 307.253965 223.866986 
L 307.512888 224.690701 
L 307.771811 223.040234 
L 308.030734 217.508016 
L 308.548579 193.076481 
L 309.58427 129.886 
L 309.843192 120.728967 
L 310.102115 117.06271 
L 310.361038 116.943155 
L 310.619961 117.674988 
L 310.878883 117.544289 
L 311.137806 118.762707 
L 311.396729 123.715859 
L 312.173497 149.800757 
L 312.691342 171.977239 
L 313.209188 200.114268 
L 313.46811 208.081123 
L 313.727033 207.220024 
L 313.985956 199.156463 
L 315.798415 116.073818 
L 316.057337 114.063205 
L 316.31626 120.324156 
L 316.834105 147.935873 
L 317.869796 206.920325 
L 318.387642 223.138838 
L 318.646564 225.156076 
L 318.905487 223.872226 
L 319.16441 219.94841 
L 319.423332 213.790557 
L 319.941178 192.058194 
L 321.494714 98.179727 
L 321.753637 92.611368 
L 322.012559 90.358114 
L 322.271482 90.454138 
L 322.530405 92.431917 
L 322.789328 97.817155 
L 323.307173 121.344436 
L 324.342864 173.943499 
L 324.860709 191.556231 
L 325.119632 196.112202 
L 325.378555 196.68797 
L 325.637477 192.859145 
L 326.414245 169.508002 
L 327.449936 137.867332 
L 327.708859 137.25392 
L 327.967782 144.019991 
L 328.74455 169.860838 
L 329.521318 186.684992 
L 330.039163 194.484894 
L 330.298086 196.530046 
L 330.557009 196.757626 
L 330.815931 194.72171 
L 331.074854 190.070191 
L 331.592699 173.106793 
L 332.887313 115.184754 
L 333.146236 109.391594 
L 333.405158 107.330907 
L 333.664081 108.257635 
L 334.181926 115.092264 
L 334.699772 128.064094 
L 335.217617 150.074155 
L 336.253308 200.216082 
L 336.512231 205.954036 
L 336.771153 207.996637 
L 337.030076 207.342033 
L 337.288999 204.633316 
L 337.547922 199.093342 
L 337.806844 189.58991 
L 339.101458 125.726255 
L 339.36038 121.217046 
L 339.619303 119.663331 
L 339.878226 121.450982 
L 340.137149 127.129772 
L 341.172839 164.353973 
L 341.690685 170.819795 
L 341.949608 172.965924 
L 342.20853 173.550989 
L 342.467453 170.945301 
L 342.985298 154.894759 
L 343.503144 137.504572 
L 344.538835 112.490607 
L 344.797757 109.363704 
L 345.05668 109.666869 
L 345.315603 112.646181 
L 345.833448 122.315694 
L 346.092371 129.465406 
L 346.610216 155.520138 
L 347.645907 221.865686 
L 347.90483 231.104497 
L 348.163752 235.391967 
L 348.422675 234.471698 
L 348.681598 228.231804 
L 349.199443 201.727342 
L 350.235134 136.961073 
L 350.752979 121.4466 
L 351.011902 117.758659 
L 351.270825 115.676512 
L 351.529747 115.768025 
L 351.78867 118.930048 
L 352.306516 135.208281 
L 353.342206 177.346105 
L 353.601129 184.058801 
L 353.860052 187.366388 
L 354.118975 186.28492 
L 354.377897 180.32559 
L 355.931433 124.277224 
L 356.190356 119.449364 
L 356.449279 118.190957 
L 356.708202 121.263492 
L 357.226047 136.57061 
L 357.743892 157.878357 
L 359.038506 217.519888 
L 359.297429 220.196463 
L 359.556351 220.785117 
L 359.815274 220.3534 
L 360.074197 217.423212 
L 360.333119 209.880042 
L 360.850965 179.838411 
L 361.36881 149.290524 
L 362.145578 118.738529 
L 362.404501 111.600016 
L 362.663424 107.913413 
L 362.922346 108.669249 
L 363.181269 112.868257 
L 363.699114 126.02972 
L 364.21696 145.523369 
L 364.993728 186.033908 
L 365.252651 193.496875 
L 365.511573 196.130908 
L 365.770496 194.359137 
L 366.029419 188.745367 
L 366.806187 160.604832 
L 367.324032 143.264261 
L 367.582955 137.539793 
L 367.841878 134.588277 
L 368.1008 134.911142 
L 368.359723 138.735636 
L 368.877569 153.137398 
L 370.172182 194.202523 
L 370.690027 203.46289 
L 370.94895 204.641642 
L 371.207873 203.311896 
L 371.466796 199.372133 
L 371.984641 183.80269 
L 373.538177 118.441969 
L 373.7971 113.883495 
L 374.056023 111.67566 
L 374.314945 111.106842 
L 374.573868 111.733205 
L 374.832791 114.182035 
L 375.091713 119.348401 
L 375.609559 138.709573 
L 376.64525 184.737013 
L 376.904172 191.52454 
L 377.163095 195.208244 
L 377.422018 195.725758 
L 377.68094 193.15503 
L 378.198786 181.445967 
L 379.493399 143.744322 
L 379.752322 139.84771 
L 380.011245 139.013644 
L 380.270167 140.977966 
L 380.788013 151.180299 
L 381.823704 175.368637 
L 382.600472 192.537863 
L 382.859394 191.807182 
L 383.118317 183.596595 
L 383.895085 150.911825 
L 384.412931 137.941623 
L 384.930776 112.562744 
L 385.189699 100.731682 
L 385.448621 99.030275 
L 386.743235 128.329051 
L 388.037848 193.735577 
L 388.555694 203.415765 
L 388.814617 204.818384 
L 389.073539 203.353732 
L 389.332462 198.746575 
L 389.850307 182.561576 
L 390.885998 145.848407 
L 391.662766 128.618267 
L 391.921689 124.880373 
L 392.180612 124.34075 
L 392.439534 128.143525 
L 392.95738 145.272357 
L 393.993071 186.304419 
L 394.251993 191.274355 
L 394.510916 190.621848 
L 394.769839 183.207761 
L 396.323375 116.852227 
L 396.84122 102.549948 
L 397.100143 101.958852 
L 397.359066 108.140097 
L 398.135834 142.551336 
L 399.171525 191.137817 
L 399.68937 205.51678 
L 400.207215 213.943386 
L 400.466138 215.409593 
L 400.725061 213.254758 
L 400.983984 206.523562 
L 401.501829 183.551678 
L 402.53752 132.528494 
L 403.055365 116.921952 
L 403.314288 113.518472 
L 403.573211 113.58389 
L 403.832133 117.465812 
L 404.349979 135.249726 
L 405.644592 184.4156 
L 405.903515 191.724122 
L 406.162438 193.898949 
L 406.42136 189.149551 
L 407.198128 162.973098 
L 407.974897 143.794176 
L 408.492742 126.644055 
L 408.751665 125.484249 
L 409.010587 133.618032 
L 409.528433 155.095701 
L 410.305201 179.902976 
L 410.823046 197.496786 
L 411.081969 202.611199 
L 411.340892 205.118097 
L 411.599814 205.75229 
L 411.858737 204.922369 
L 412.11766 201.732037 
L 412.376582 194.958777 
L 412.894428 170.530751 
L 413.671196 135.423709 
L 414.189041 120.831376 
L 414.706887 113.296224 
L 414.96581 112.832666 
L 415.224732 114.869255 
L 415.483655 119.599413 
L 416.0015 136.4381 
L 417.296114 185.259247 
L 417.555037 190.568229 
L 417.813959 192.030304 
L 418.072882 189.055459 
L 418.84965 174.95143 
L 419.108573 172.361108 
L 419.367495 168.539941 
L 419.626418 161.504463 
L 420.144264 139.619767 
L 420.403186 134.227831 
L 420.662109 137.768608 
L 422.215645 186.21673 
L 422.733491 196.093953 
L 422.992413 197.538184 
L 423.251336 197.215092 
L 423.510259 195.614197 
L 423.769181 193.041229 
L 424.028104 189.066754 
L 424.545949 174.727425 
L 425.840563 127.157662 
L 426.358408 119.11877 
L 426.617331 117.29847 
L 426.876254 116.503077 
L 427.135177 118.477804 
L 427.394099 125.456359 
L 428.170867 161.078203 
L 428.688713 170.309144 
L 429.206558 179.134235 
L 429.724404 187.763101 
L 429.983326 188.121474 
L 430.242249 186.105766 
L 430.760094 179.412264 
L 431.019017 174.608852 
L 431.536862 156.682788 
L 432.054708 140.084777 
L 432.313631 140.903804 
L 433.867167 174.293868 
L 434.126089 177.903665 
L 434.385012 179.479707 
L 434.643935 178.250496 
L 435.16178 170.275936 
L 435.938548 153.499971 
L 437.233162 119.018768 
L 437.492085 115.30432 
L 437.751007 113.564645 
L 438.00993 113.945027 
L 438.268853 116.545435 
L 438.527775 121.455871 
L 439.045621 138.397419 
L 440.340234 193.39326 
L 440.85808 206.280024 
L 441.117002 209.562134 
L 441.375925 208.499477 
L 441.634848 202.029981 
L 442.929461 147.866147 
L 443.447307 121.485443 
L 443.706229 113.059158 
L 443.965152 111.408054 
L 444.224075 114.820665 
L 445.000843 133.660771 
L 445.518688 156.492238 
L 446.036534 181.501748 
L 446.295456 187.236731 
L 446.554379 187.391978 
L 446.813302 182.477905 
L 447.331147 161.062917 
L 448.107915 123.301668 
L 448.625761 107.844177 
L 448.884684 105.575918 
L 449.143606 108.011028 
L 449.661452 125.862786 
L 450.43822 155.929069 
L 451.473911 194.024455 
L 451.732833 199.037777 
L 452.250679 203.953371 
L 452.509601 206.229409 
L 452.768524 207.40665 
L 453.027447 205.654675 
L 453.286369 199.674945 
L 453.804215 178.880067 
L 455.098828 122.463404 
L 455.357751 116.001575 
L 455.616674 112.837662 
L 455.875596 113.216388 
L 456.134519 117.27058 
L 456.652365 134.706177 
L 457.946978 183.513986 
L 458.205901 190.498418 
L 458.464823 193.020407 
L 458.723746 189.637931 
L 460.01836 152.049679 
L 460.536205 132.037735 
L 460.795128 126.293065 
L 461.054051 126.883908 
L 462.348664 149.748737 
L 463.384355 184.88248 
L 463.643278 187.020213 
L 464.161123 189.017601 
L 464.420046 188.400694 
L 464.678968 183.760855 
L 465.196814 160.505796 
L 465.714659 137.653342 
L 466.232505 124.480201 
L 466.75035 115.828142 
L 467.009273 114.132931 
L 467.268195 114.915371 
L 467.527118 117.687559 
L 468.044963 126.519464 
L 468.562809 140.544965 
L 470.116345 198.458999 
L 470.375268 199.925159 
L 470.63419 197.749554 
L 470.893113 192.323151 
L 471.410959 174.371396 
L 472.187727 146.800991 
L 472.446649 141.674519 
L 472.705572 139.923085 
L 472.964495 141.219382 
L 473.223418 144.97951 
L 475.035876 181.920876 
L 475.294799 185.919241 
L 475.553722 187.735211 
L 475.812645 186.276173 
L 476.071567 181.722081 
L 476.589413 165.380292 
L 477.884026 117.423976 
L 478.142949 112.926842 
L 478.401872 111.315792 
L 478.660794 112.71053 
L 478.919717 117.094846 
L 479.437562 132.456803 
L 480.991099 188.418521 
L 481.250021 192.377758 
L 481.767867 195.781538 
L 482.026789 197.239869 
L 482.285712 197.993387 
L 482.544635 196.827421 
L 482.803557 192.856685 
L 483.321403 178.55933 
L 484.357094 144.422943 
L 484.616016 139.508781 
L 484.874939 138.871552 
L 485.133862 143.436775 
L 486.169553 171.37422 
L 486.687398 177.887799 
L 486.946321 178.850102 
L 487.205243 177.095093 
L 487.464166 171.987685 
L 487.982012 154.504019 
L 489.017702 115.301027 
L 489.535548 104.259794 
L 489.79447 102.094799 
L 490.053393 103.479392 
L 490.312316 109.796002 
L 490.830161 136.60978 
L 491.348007 163.609518 
L 492.124775 191.637552 
L 492.64262 203.632634 
L 492.901543 203.969897 
L 493.160466 201.243238 
L 493.937234 187.553089 
L 494.455079 171.873533 
L 495.231847 144.173646 
L 495.749693 133.335345 
L 496.008615 130.539053 
L 496.267538 129.915442 
L 496.526461 131.968724 
L 497.044306 143.519543 
L 497.562152 156.449999 
L 498.079997 164.962849 
L 498.33892 167.392126 
L 498.597842 168.188846 
L 498.856765 166.887274 
L 499.37461 158.352538 
L 500.669224 131.041297 
L 501.187069 117.814439 
L 501.445992 116.028188 
L 501.704915 117.90894 
L 501.963837 122.862568 
L 502.481683 140.100527 
L 503.776296 194.271978 
L 504.294142 199.421211 
L 504.553064 201.552598 
L 504.811987 202.728664 
L 505.07091 201.289856 
L 505.329833 196.046448 
L 505.847678 177.373996 
L 507.401214 114.035315 
L 507.660137 112.166896 
L 507.91906 114.482439 
L 508.436905 127.88734 
L 509.990441 182.57159 
L 510.249364 187.668432 
L 510.508287 189.297063 
L 510.767209 186.796748 
L 511.8029 164.466687 
L 512.320746 147.777984 
L 512.838591 133.391125 
L 513.097514 134.151967 
L 513.615359 147.196782 
L 514.65105 181.447991 
L 515.168895 197.454951 
L 515.427818 201.396296 
L 515.686741 202.147875 
L 515.945663 199.895345 
L 516.204586 194.872908 
L 516.722431 178.280428 
L 518.275968 116.168917 
L 518.53489 114.093737 
L 518.793813 114.813569 
L 519.052736 116.043411 
L 519.311658 116.242288 
L 519.570581 116.845334 
L 519.829504 120.031712 
L 520.088427 127.355296 
L 521.641963 188.305416 
L 521.900886 191.354194 
L 522.159808 192.002414 
L 522.418731 190.727016 
L 522.936576 184.569671 
L 523.713344 171.503105 
L 524.490113 156.986248 
L 524.749035 154.956457 
L 525.007958 155.223245 
L 525.266881 158.004241 
L 525.784726 170.627856 
L 526.561494 194.605997 
L 526.820417 198.068536 
L 527.07934 196.759061 
L 527.856108 181.252181 
L 528.373953 170.510275 
L 528.891798 153.880471 
L 529.668567 127.975072 
L 530.445335 111.977497 
L 530.704257 108.884663 
L 530.96318 111.650702 
L 531.481025 137.156304 
L 531.998871 164.006103 
L 532.257794 172.925506 
L 532.516716 177.689509 
L 532.775639 179.427487 
L 533.293484 180.218798 
L 534.070253 184.988025 
L 534.329175 183.806644 
L 535.105943 175.272424 
L 535.364866 171.642686 
L 535.623789 165.70194 
L 536.400557 140.335789 
L 536.65948 138.439692 
L 536.918402 140.211586 
L 537.954093 153.318684 
L 538.471938 163.387052 
L 538.730861 166.418986 
L 538.989784 167.544681 
L 539.248707 167.11799 
L 539.507629 165.492764 
L 539.766552 162.864069 
L 540.025475 158.791836 
L 540.54332 144.278551 
L 541.320088 118.47929 
L 541.579011 113.558507 
L 541.837934 111.316019 
L 542.096856 112.01954 
L 542.355779 115.635205 
L 542.873624 130.946193 
L 543.909315 167.34023 
L 544.945006 192.337096 
L 545.462851 202.16648 
L 545.721774 203.646579 
L 545.980697 201.372992 
L 546.23962 195.675362 
L 546.757465 176.758378 
L 547.534233 144.581703 
L 548.052078 129.918793 
L 548.311001 125.234171 
L 548.569924 122.633706 
L 548.828847 122.43027 
L 549.087769 124.699183 
L 550.12346 141.393232 
L 551.159151 163.624119 
L 551.418074 160.503356 
L 552.194842 141.308955 
L 553.230532 126.942292 
L 553.489455 128.426667 
L 554.007301 145.791597 
L 554.266223 154.601634 
L 554.525146 159.178183 
L 555.042991 163.428888 
L 555.819759 177.638953 
L 556.078682 179.403133 
L 556.337605 180.164677 
L 556.596528 182.171113 
L 557.114373 191.616141 
L 557.373296 193.522431 
L 557.632218 190.112805 
L 558.150064 172.465318 
L 559.444677 123.034271 
L 559.7036 118.386189 
L 559.962523 117.792947 
L 560.221445 120.364675 
L 560.739291 129.937623 
L 561.257136 142.427555 
L 562.55175 179.323083 
L 562.810672 183.565624 
L 563.069595 185.338479 
L 563.328518 184.189101 
L 563.587441 179.702829 
L 564.623131 148.532796 
L 564.882054 146.065842 
L 565.140977 146.94577 
L 565.399899 151.073835 
L 566.694513 182.477905 
L 566.953436 183.684442 
L 567.471281 183.175161 
L 567.989126 185.777982 
L 568.248049 186.019963 
L 568.506972 183.829606 
L 569.024817 172.813945 
L 569.542663 155.4567 
L 570.578354 117.563427 
L 570.837276 115.026077 
L 571.096199 115.830187 
L 571.614044 121.720804 
L 572.13189 131.173853 
L 573.944349 177.089304 
L 574.462194 184.513891 
L 574.721117 184.768703 
L 574.980039 182.726277 
L 575.497885 173.738855 
L 576.533576 152.533704 
L 576.792498 151.41502 
L 577.051421 154.197226 
L 577.569266 170.652454 
L 578.087112 186.921609 
L 578.346035 192.058194 
L 578.604957 194.447088 
L 578.86388 194.514087 
L 579.122803 192.917355 
L 579.640648 187.058312 
L 579.899571 182.270076 
L 580.158493 174.76626 
L 581.194184 132.386771 
L 582.488798 101.526553 
L 582.747721 100.170409 
L 583.006643 103.333076 
L 583.265566 111.985384 
L 584.560179 179.633103 
L 584.819102 185.727532 
L 585.078025 189.030004 
L 585.336948 190.301111 
L 585.59587 190.314431 
L 585.854793 189.89548 
L 586.113716 189.882757 
L 586.890484 192.617549 
L 587.149406 191.584061 
L 587.408329 188.196612 
L 587.926175 174.808096 
L 588.702943 149.957913 
L 588.961865 146.99737 
L 589.220788 147.405959 
L 589.479711 150.259493 
L 590.256479 161.728635 
L 590.515402 163.338718 
L 590.774324 163.038425 
L 591.033247 160.713182 
L 591.810015 151.236296 
L 592.32786 145.816216 
L 593.104629 130.741554 
L 593.622474 123.150939 
L 593.881397 123.00202 
L 594.140319 126.333335 
L 594.658165 140.154502 
L 596.211701 187.944387 
L 596.470624 190.145358 
L 596.988469 191.402774 
L 597.765237 197.672957 
L 598.02416 196.450903 
L 598.283083 191.507892 
L 599.577696 151.212973 
L 600.095542 129.821177 
L 600.354464 124.594177 
L 600.613387 123.688186 
L 600.87231 125.693425 
L 601.390155 134.492477 
L 602.943691 170.469612 
L 603.202614 171.438447 
L 603.461537 169.913363 
L 603.979382 160.370986 
L 604.497227 149.856091 
L 605.273996 139.475376 
L 605.532918 137.784056 
L 605.791841 138.341638 
L 606.050764 141.862385 
L 606.568609 155.996145 
L 607.345377 180.55348 
L 607.6043 183.967184 
L 607.863223 184.74645 
L 608.122145 183.983977 
L 608.639991 180.67087 
L 609.157836 175.190844 
L 610.193527 162.828411 
L 610.45245 154.992097 
L 610.970295 130.295311 
L 611.229218 123.644899 
L 611.48814 121.354927 
L 612.005986 119.926049 
L 612.264909 120.220251 
L 612.523831 123.74111 
L 613.041677 142.203333 
L 613.559522 159.368368 
L 614.595213 179.978221 
L 614.854136 182.603411 
L 615.113058 181.778384 
L 615.630904 173.896262 
L 616.148749 166.691366 
L 616.666594 160.221513 
L 617.18444 150.508361 
L 617.443363 151.101412 
L 618.737976 187.372638 
L 619.255822 195.322376 
L 619.514744 197.761743 
L 619.773667 198.510765 
L 620.03259 197.370216 
L 620.291512 194.211645 
L 620.809358 181.465522 
L 622.362894 129.591802 
L 622.880739 123.573769 
L 623.139662 122.641574 
L 623.398585 122.923873 
L 623.657507 124.410475 
L 623.91643 127.221288 
L 624.175353 131.996614 
L 624.693198 148.158922 
L 625.987812 192.641025 
L 626.246734 198.51757 
L 626.505657 201.652429 
L 626.76458 201.365414 
L 627.023503 198.228073 
L 627.541348 186.94034 
L 628.318116 165.715885 
L 628.835961 151.142396 
L 629.094884 148.800469 
L 629.353807 152.086821 
L 630.64842 181.249832 
L 631.166266 188.418521 
L 631.425189 189.438101 
L 631.684111 188.251281 
L 631.943034 184.571722 
L 632.460879 168.899697 
L 633.49657 130.452529 
L 634.273338 112.895026 
L 634.532261 109.363704 
L 634.791184 107.696261 
L 635.050106 109.547954 
L 635.309029 116.852227 
L 636.34472 170.204971 
L 636.862565 183.53122 
L 637.121488 186.840196 
L 637.380411 188.530082 
L 637.639333 189.052914 
L 637.898256 188.764396 
L 638.675024 186.141928 
L 638.933947 184.489104 
L 639.19287 181.222845 
L 639.710715 168.84333 
L 640.487483 148.713196 
L 641.005328 141.024193 
L 641.264251 140.077371 
L 641.523174 141.716354 
L 642.041019 152.077224 
L 642.558865 163.026749 
L 643.07671 168.909315 
L 643.335633 169.970688 
L 643.594556 169.367755 
L 643.853478 166.594427 
L 644.371324 155.050733 
L 644.889169 143.665794 
L 645.665937 132.660106 
L 645.92486 130.314097 
L 646.183783 129.960628 
L 646.442705 132.425326 
L 646.701628 137.837151 
L 647.219473 157.005951 
L 647.996241 187.705435 
L 648.255164 193.206319 
L 648.514087 196.325397 
L 648.77301 197.364283 
L 649.031932 196.682014 
L 649.290855 194.651984 
L 649.8087 187.913486 
L 650.585468 174.577668 
L 651.103314 162.512353 
L 652.397927 125.316907 
L 652.65685 121.841123 
L 652.915773 120.808287 
L 653.174695 121.942191 
L 653.433618 125.106906 
L 653.692541 130.727609 
L 654.987154 169.931975 
L 655.246077 172.967341 
L 655.505 174.034096 
L 655.763923 173.317935 
L 656.022845 171.028971 
L 656.540691 162.83992 
L 657.576381 144.422684 
L 657.835304 144.059133 
L 658.094227 147.245503 
L 658.870995 160.579759 
L 659.647763 168.898053 
L 660.165608 175.431662 
L 660.683454 181.306516 
L 660.942377 181.726554 
L 661.201299 180.354324 
L 661.719145 173.72101 
L 662.23699 162.502902 
L 663.531604 126.102559 
L 663.790526 124.320984 
L 664.049449 124.229189 
L 664.308372 125.342095 
L 664.567294 128.287215 
L 665.08514 141.035143 
L 666.379753 182.497249 
L 666.897599 191.849018 
L 667.156521 193.490555 
L 667.415444 193.108542 
L 667.674367 190.883543 
L 668.192212 181.757554 
L 668.96898 166.673933 
L 669.227903 164.278887 
L 669.486826 163.721735 
L 669.745748 165.135341 
L 670.004671 168.333682 
L 670.522517 178.858466 
L 671.040362 189.255228 
L 671.299285 191.741241 
L 672.076053 194.638308 
L 672.334975 195.280563 
L 672.593898 194.303357 
L 672.852821 190.749726 
L 673.370666 175.770308 
L 674.147434 138.090626 
L 674.66528 111.626406 
L 674.924202 102.321424 
L 675.183125 97.660174 
L 675.442048 97.778977 
L 675.700971 102.488766 
L 676.218816 123.041122 
L 676.995584 159.571299 
L 677.513429 173.514957 
L 678.031275 178.545385 
L 678.54912 182.782648 
L 679.325888 190.525731 
L 679.584811 191.193598 
L 679.843734 189.419876 
L 680.102657 185.102356 
L 680.620502 169.526954 
L 681.138347 153.904379 
L 681.39727 151.129207 
L 681.656193 152.061076 
L 681.915115 155.95431 
L 682.432961 169.551355 
L 683.209729 191.057535 
L 683.468652 193.020407 
L 683.727574 189.966216 
L 684.24542 172.214306 
L 685.281111 126.438897 
L 685.540033 119.888254 
L 685.798956 116.461764 
L 686.057879 116.279737 
L 686.316801 118.591884 
L 686.834647 127.020474 
L 687.352492 138.648431 
L 688.12926 162.871083 
L 688.906028 186.145469 
L 689.164951 190.037753 
L 689.423874 191.474483 
L 689.682796 190.677629 
L 690.200642 184.164652 
L 690.97741 173.346387 
L 691.754178 162.975726 
L 692.272024 151.990825 
L 693.048792 135.136938 
L 693.307714 132.284642 
L 693.566637 131.145963 
L 693.82556 131.788079 
L 694.084482 134.233845 
L 694.602328 144.241378 
L 695.120173 153.053727 
L 695.379096 152.65104 
L 695.896941 145.495479 
L 696.414787 138.667512 
L 696.932632 134.813739 
L 697.191555 134.447803 
L 697.450478 135.566562 
L 698.486168 145.947118 
L 698.745091 147.486671 
L 699.004014 150.724894 
L 699.521859 164.455378 
L 700.039705 177.833588 
L 701.075395 196.32585 
L 701.334318 197.831469 
L 701.593241 195.690834 
L 702.370009 180.419466 
L 702.887854 167.64031 
L 703.664622 139.833765 
L 703.923545 135.371555 
L 704.441391 132.261571 
L 704.700313 130.572535 
L 704.959236 129.786228 
L 705.218159 131.940834 
L 705.736004 146.583733 
L 706.253849 158.443254 
L 706.771695 164.265594 
L 707.548463 177.136929 
L 707.807386 176.193445 
L 708.843076 163.018052 
L 709.619845 155.0158 
L 709.878767 154.741085 
L 710.13769 157.695833 
L 710.655535 171.056862 
L 711.173381 187.459715 
L 711.432303 192.853065 
L 711.691226 194.648732 
L 711.950149 194.199409 
L 712.209072 193.480595 
L 712.467994 193.930725 
L 712.726917 194.839976 
L 712.98584 194.961462 
L 713.244762 193.048297 
L 713.503685 188.260143 
L 714.798299 151.045632 
L 715.575067 130.420817 
L 716.092912 121.260291 
L 716.351835 119.669139 
L 716.610758 120.770436 
L 716.86968 124.452311 
L 717.387526 138.760051 
L 718.682139 191.75102 
L 718.941062 195.769199 
L 719.199985 196.913883 
L 719.458907 195.600252 
L 719.71783 192.255668 
L 720.235675 181.390187 
L 721.012443 163.498613 
L 721.271366 160.192303 
L 721.530289 159.349677 
L 721.789212 161.532353 
L 722.824902 180.947495 
L 723.083825 181.350707 
L 723.342748 181.390187 
L 723.860593 183.069485 
L 724.119516 182.784698 
L 724.378439 180.528597 
L 725.414129 165.584784 
L 725.673052 159.384806 
L 726.44982 132.484693 
L 726.708743 128.267232 
L 727.485511 123.698308 
L 727.744434 122.813919 
L 728.003356 125.233237 
L 728.521202 142.367044 
L 729.039047 159.288824 
L 730.333661 187.804936 
L 730.592583 188.717645 
L 730.851506 187.931895 
L 731.110429 187.763101 
L 731.628274 192.028193 
L 731.887197 192.141865 
L 732.14612 188.269241 
L 733.18181 163.81518 
L 733.958579 149.659778 
L 734.217501 147.754586 
L 734.476424 149.202014 
L 734.735347 153.44782 
L 735.771037 177.192709 
L 736.02996 178.495019 
L 736.288883 176.840704 
L 736.547806 172.674494 
L 737.065651 158.978348 
L 737.842419 136.017668 
L 738.101342 130.936786 
L 738.360264 128.388138 
L 738.619187 128.390672 
L 738.87811 130.797335 
L 739.395955 141.562623 
L 740.690569 174.555339 
L 741.208414 180.149072 
L 741.72626 181.876063 
L 741.985182 183.830581 
L 742.503028 191.360715 
L 742.76195 192.75545 
L 743.020873 190.044548 
L 743.538719 176.760411 
L 744.833332 140.278074 
L 745.092255 136.319598 
L 745.351177 135.444773 
L 745.6101 136.766121 
L 746.386868 143.609571 
L 746.645791 147.141001 
L 746.904714 152.458181 
L 747.163636 160.291319 
L 747.163636 160.291319 
" clip-path="url(#p68acd41e62)" style="fill: none; stroke: #ff0000; stroke-linecap: square"/>
   </g>
   <g id="line2d_24">
    <path d="M 138.436364 111.528776 
L 138.954209 104.912154 
L 139.730977 94.364257 
L 139.9899 92.179938 
L 140.248823 91.211409 
L 140.507745 91.462578 
L 140.766668 92.863249 
L 141.284513 98.44982 
L 142.320204 111.446725 
L 142.579127 113.264942 
L 142.83805 113.91164 
L 143.096972 113.014065 
L 143.355895 110.183073 
L 143.614818 105.07288 
L 144.132663 87.368876 
L 144.650508 63.895343 
L 144.909431 57.275333 
L 145.168354 57.644095 
L 145.686199 66.339653 
L 145.945122 67.419378 
L 146.204045 67.254643 
L 146.462967 69.017114 
L 147.239736 86.085926 
L 147.498658 85.375124 
L 148.016504 79.866408 
L 148.275426 81.483226 
L 148.793272 87.667808 
L 149.052194 86.336938 
L 149.57004 69.597942 
L 149.828963 61.375195 
L 150.087885 57.727976 
L 150.346808 57.316059 
L 150.605731 57.693686 
L 150.864653 57.183581 
L 151.123576 57.182375 
L 151.382499 59.855178 
L 152.159267 80.521828 
L 152.41819 82.126992 
L 152.677112 80.420428 
L 153.194958 75.090141 
L 153.45388 74.435681 
L 153.712803 76.408021 
L 154.230648 88.56682 
L 154.748494 102.410469 
L 155.007417 107.137416 
L 155.266339 109.708939 
L 155.525262 109.873209 
L 155.784185 108.262273 
L 157.078798 95.931172 
L 157.855566 83.812874 
L 158.114489 82.651398 
L 158.373412 83.150767 
L 159.15018 86.38574 
L 159.409103 86.53217 
L 159.668025 85.852813 
L 159.926948 84.405281 
L 160.703716 77.987189 
L 160.962639 77.872258 
L 161.221561 80.320901 
L 161.739407 90.799373 
L 162.257252 102.641032 
L 162.516175 105.69539 
L 162.775098 104.842096 
L 163.03402 99.289542 
L 163.810788 76.958415 
L 164.328634 69.505193 
L 164.846479 64.333539 
L 165.105402 64.498899 
L 165.623247 71.774093 
L 165.88217 75.041401 
L 166.141093 75.730539 
L 166.917861 72.802279 
L 167.176784 72.95777 
L 167.694629 73.547173 
L 168.212474 73.911847 
L 168.73032 74.510232 
L 168.989242 74.121039 
L 169.248165 72.698623 
L 170.542779 60.415174 
L 170.801701 59.799398 
L 171.060624 59.605707 
L 171.319547 59.898015 
L 171.57847 60.803445 
L 172.355238 65.377441 
L 173.132006 67.078744 
L 174.167697 73.25717 
L 174.426619 73.128391 
L 174.685542 72.154763 
L 175.46231 67.371591 
L 175.721233 66.917413 
L 175.980155 67.208818 
L 176.756924 69.663725 
L 177.274769 71.806136 
L 177.792614 75.703788 
L 179.346151 91.279662 
L 179.605073 99.919473 
L 180.122919 136.249928 
L 181.935378 303.727227 
L 182.1943 307.8 
L 182.453223 301.88871 
L 182.971068 268.683877 
L 183.488914 216.277454 
L 184.265682 128.618506 
L 184.783527 94.911149 
L 185.04245 86.197487 
L 185.301373 81.645202 
L 185.560295 81.392858 
L 185.819218 85.834914 
L 186.078141 95.295439 
L 186.595986 129.371541 
L 187.372754 199.055246 
L 187.8906 222.332449 
L 188.149522 227.196474 
L 188.408445 229.433896 
L 188.667368 227.74295 
L 188.926291 220.182085 
L 190.220904 151.968211 
L 190.738749 128.120721 
L 190.997672 116.360445 
L 191.256595 113.111545 
L 191.515518 122.904881 
L 193.845822 293.895925 
L 194.104745 299.496947 
L 194.363667 292.037044 
L 194.62259 269.924285 
L 195.658281 134.471166 
L 196.176126 99.783067 
L 196.693972 80.898346 
L 196.952894 75.152868 
L 197.211817 73.005391 
L 197.47074 76.272115 
L 197.729662 86.769236 
L 198.247508 128.97397 
L 199.024276 196.507516 
L 199.801044 247.263507 
L 200.059967 256.774048 
L 200.318889 259.243724 
L 200.577812 252.920883 
L 200.836735 236.121343 
L 201.613503 159.038158 
L 202.131348 131.11468 
L 202.649194 111.492299 
L 202.908116 108.146691 
L 203.167039 112.316674 
L 203.684885 142.879511 
L 204.20273 174.184998 
L 204.720575 201.119122 
L 205.238421 238.388172 
L 205.497343 249.32736 
L 205.756266 248.392041 
L 206.791957 213.334868 
L 207.05088 186.825386 
L 207.827648 65.141338 
L 208.086571 55.8 
L 208.345493 59.02178 
L 208.863339 80.531007 
L 209.381184 114.589727 
L 210.93472 259.841972 
L 211.193643 267.746433 
L 211.452566 270.660069 
L 211.711488 270.816772 
L 211.970411 269.045367 
L 212.229334 260.55442 
L 212.488256 239.147431 
L 213.265025 142.593304 
L 213.523947 131.043848 
L 214.300715 113.506342 
L 214.559638 110.366105 
L 214.818561 111.047669 
L 215.077483 116.679133 
L 215.595329 139.049446 
L 216.889942 206.19117 
L 217.148865 214.102018 
L 217.407788 218.534985 
L 217.66671 219.860007 
L 217.925633 218.676013 
L 218.184556 214.977514 
L 218.443479 206.341343 
L 218.702401 189.739914 
L 219.479169 116.614924 
L 219.738092 103.166358 
L 219.997015 96.067465 
L 220.255938 94.466936 
L 220.51486 97.928755 
L 220.773783 107.678078 
L 221.032706 125.35535 
L 221.550551 183.067261 
L 222.327319 268.092028 
L 222.586242 283.646271 
L 222.845165 289.918745 
L 223.104087 289.092369 
L 223.621933 277.619629 
L 223.880855 268.406548 
L 224.398701 236.480667 
L 225.175469 178.392069 
L 226.21116 122.415397 
L 226.470082 116.012128 
L 226.729005 118.287609 
L 226.987928 127.472711 
L 227.764696 171.795145 
L 228.541464 224.074539 
L 228.800387 233.346267 
L 229.059309 232.747543 
L 229.318232 223.404588 
L 229.836077 187.311295 
L 230.612846 126.222032 
L 231.130691 100.240211 
L 231.389614 92.399474 
L 231.648536 89.136419 
L 231.907459 91.77553 
L 232.166382 101.185759 
L 232.684227 136.051248 
L 234.237763 267.386275 
L 234.496686 275.585465 
L 234.755609 276.605585 
L 235.014532 270.774936 
L 235.532377 241.934364 
L 236.82699 135.97843 
L 237.344836 100.407552 
L 237.603759 91.440033 
L 237.862681 88.30278 
L 238.121604 89.669819 
L 238.380527 94.566256 
L 238.639449 103.421533 
L 239.157295 135.522564 
L 239.934063 195.858806 
L 240.451908 220.753834 
L 240.710831 226.366962 
L 240.969754 227.274428 
L 241.228676 223.598636 
L 241.746522 204.457763 
L 243.300058 130.020778 
L 243.558981 128.506945 
L 243.817903 135.051268 
L 244.335749 166.075066 
L 245.37144 245.543404 
L 245.630362 258.660064 
L 245.889285 264.876156 
L 246.148208 262.830514 
L 246.666053 243.48436 
L 247.183899 217.468693 
L 247.701744 176.999846 
L 248.478512 112.065792 
L 248.996357 90.520471 
L 249.25528 85.372061 
L 249.514203 84.985437 
L 249.773126 90.924879 
L 250.290971 122.591884 
L 251.326662 204.995862 
L 251.844507 230.301738 
L 252.10343 236.665202 
L 252.362353 238.660273 
L 252.621275 236.535051 
L 252.880198 230.62697 
L 253.656966 199.850117 
L 254.433734 167.957655 
L 255.210502 127.433171 
L 255.469425 125.913059 
L 255.728348 132.0299 
L 256.246193 159.300725 
L 257.281884 232.488864 
L 257.540807 241.671496 
L 257.799729 241.268574 
L 258.058652 232.890996 
L 258.576497 202.751942 
L 259.353266 155.981131 
L 260.388956 112.293334 
L 260.647879 106.808357 
L 260.906802 107.192154 
L 261.165724 112.926751 
L 261.68357 136.226347 
L 262.201415 171.932011 
L 262.978183 229.413746 
L 263.237106 237.221297 
L 264.013874 246.605181 
L 264.272797 251.343021 
L 264.53172 253.622454 
L 264.790642 251.036226 
L 265.049565 243.108442 
L 265.56741 211.696235 
L 266.603101 137.213861 
L 266.862024 128.409329 
L 267.120947 126.221897 
L 267.379869 130.120581 
L 267.638792 139.174952 
L 268.156637 168.34757 
L 268.933406 217.098656 
L 269.192328 226.303987 
L 269.451251 228.395244 
L 269.710174 223.920478 
L 270.228019 199.939004 
L 271.522633 112.595576 
L 271.781555 104.922944 
L 272.040478 102.185036 
L 272.299401 102.638769 
L 272.558323 104.938302 
L 272.817246 109.326739 
L 273.076169 116.444426 
L 273.594014 139.821498 
L 274.370782 190.411745 
L 275.406473 269.3107 
L 275.665396 272.900955 
L 275.924318 265.662878 
L 276.442164 231.929143 
L 277.736777 132.272124 
L 278.254623 111.546249 
L 278.772468 102.454374 
L 279.031391 102.150627 
L 279.290314 105.67833 
L 279.549236 113.850636 
L 280.067082 144.334029 
L 281.102773 216.598192 
L 281.361695 222.121955 
L 281.620618 217.379118 
L 282.138463 180.267425 
L 282.656309 145.674321 
L 283.174154 130.48715 
L 283.692 122.100079 
L 283.950922 123.040462 
L 284.209845 129.438916 
L 284.72769 155.316025 
L 286.540149 270.886497 
L 286.799072 276.505485 
L 287.057995 275.935387 
L 287.316917 268.432158 
L 287.834763 235.07546 
L 289.388299 112.302729 
L 289.647222 103.199386 
L 289.906144 100.190647 
L 290.165067 101.979403 
L 290.42399 107.268545 
L 290.941835 124.528171 
L 291.718603 161.644167 
L 292.754294 210.922533 
L 293.013217 220.614497 
L 293.27214 224.560848 
L 293.531062 219.2677 
L 295.084598 150.946159 
L 295.343521 148.448292 
L 295.602444 149.424607 
L 295.861367 153.712263 
L 296.379212 168.952661 
L 297.414903 203.029602 
L 298.191671 226.387658 
L 298.709516 244.914109 
L 298.968439 241.880673 
L 301.298743 91.375238 
L 301.557666 89.035167 
L 301.816589 88.456595 
L 302.075511 87.168875 
L 302.334434 87.0195 
L 302.593357 90.935499 
L 302.852279 101.843898 
L 304.923661 248.992678 
L 305.182584 252.259216 
L 305.441507 246.306904 
L 305.959352 220.986363 
L 306.477197 185.291424 
L 306.995043 142.692401 
L 307.253965 129.357596 
L 307.512888 126.92412 
L 307.771811 132.484863 
L 308.807502 170.43793 
L 309.325347 202.825827 
L 309.843192 234.266644 
L 310.102115 238.958619 
L 310.361038 234.772043 
L 310.619961 222.385412 
L 311.655651 153.012842 
L 312.173497 137.732583 
L 312.691342 126.345453 
L 313.46811 101.885734 
L 313.727033 100.813938 
L 313.985956 105.423057 
L 314.244878 115.497539 
L 314.762724 150.921675 
L 315.798415 243.087431 
L 316.057337 254.194203 
L 316.31626 253.9635 
L 316.834105 233.834345 
L 317.610874 195.059896 
L 318.128719 167.399851 
L 318.646564 153.865641 
L 319.423332 144.134849 
L 319.682255 142.430539 
L 319.941178 145.575757 
L 320.459023 169.288855 
L 320.976869 193.630103 
L 321.235791 200.652204 
L 321.494714 204.633289 
L 321.753637 205.789646 
L 322.012559 203.28717 
L 322.271482 196.029158 
L 323.307173 151.471362 
L 323.825018 138.644864 
L 324.083941 134.085063 
L 324.342864 131.951386 
L 324.601786 132.992707 
L 324.860709 137.051751 
L 325.378555 152.687762 
L 326.155323 188.986878 
L 326.673168 214.199743 
L 326.932091 221.688156 
L 327.191013 223.707464 
L 327.449936 223.56712 
L 327.708859 225.718292 
L 328.226704 236.35841 
L 328.485627 230.86527 
L 330.039163 149.724846 
L 330.557009 124.842786 
L 330.815931 117.127737 
L 331.074854 114.279105 
L 331.333777 115.330936 
L 331.592699 118.787204 
L 331.851622 123.762746 
L 332.110545 131.815826 
L 332.369468 145.115568 
L 333.405158 219.422453 
L 333.664081 225.640515 
L 333.923004 225.35572 
L 334.181926 219.133363 
L 334.699772 193.560873 
L 335.735463 129.561859 
L 335.994385 120.197011 
L 336.253308 116.681493 
L 336.512231 120.039321 
L 336.771153 129.050982 
L 337.288999 157.090443 
L 338.583612 237.097501 
L 338.842535 247.11464 
L 339.101458 252.678027 
L 339.36038 252.813637 
L 339.619303 246.834427 
L 340.137149 218.662068 
L 341.431762 119.450854 
L 341.690685 109.653159 
L 341.949608 106.115924 
L 342.20853 107.41737 
L 342.726376 117.125802 
L 343.244221 135.158761 
L 344.020989 183.380945 
L 344.538835 213.9128 
L 344.797757 223.654416 
L 345.05668 228.019064 
L 345.315603 228.110887 
L 345.574525 225.592786 
L 345.833448 221.611278 
L 346.092371 215.247346 
L 346.351293 205.065588 
L 347.645907 130.625538 
L 347.90483 124.630205 
L 348.163752 124.218804 
L 348.422675 129.86161 
L 348.681598 141.936084 
L 349.717289 212.394897 
L 350.494057 236.501399 
L 350.752979 241.124587 
L 351.011902 239.872577 
L 351.270825 230.541161 
L 351.78867 196.489346 
L 352.824361 127.221038 
L 353.342206 109.443982 
L 353.601129 108.325887 
L 353.860052 111.360919 
L 354.377897 123.337949 
L 354.895743 143.874454 
L 355.931433 204.371682 
L 356.708202 226.843289 
L 356.967124 232.131214 
L 357.226047 232.900023 
L 357.48497 227.357003 
L 358.261738 193.000788 
L 359.038506 151.017375 
L 359.297429 137.361212 
L 359.556351 129.88751 
L 359.815274 131.484989 
L 360.850965 165.715531 
L 361.36881 187.60792 
L 361.886656 212.609891 
L 362.145578 220.741606 
L 362.404501 224.376496 
L 362.663424 222.957161 
L 362.922346 216.154319 
L 363.440192 188.958988 
L 364.475883 118.799678 
L 364.734805 108.834011 
L 364.993728 103.893829 
L 365.252651 104.363874 
L 365.511573 109.718757 
L 366.029419 132.055982 
L 367.841878 236.904598 
L 368.1008 242.912611 
L 368.359723 245.55853 
L 368.618646 244.419627 
L 368.877569 238.994035 
L 369.395414 216.380325 
L 370.431105 158.126354 
L 371.207873 110.406195 
L 371.466796 107.104567 
L 371.725718 110.917931 
L 372.243564 129.89261 
L 372.761409 159.785822 
L 373.538177 213.851006 
L 373.7971 220.511676 
L 374.056023 220.579733 
L 374.314945 216.695808 
L 374.573868 210.811195 
L 374.832791 202.119835 
L 375.350636 171.169746 
L 376.127404 117.146353 
L 376.386327 107.736889 
L 376.64525 104.298237 
L 376.904172 107.204343 
L 377.163095 115.856626 
L 377.68094 146.850021 
L 378.716631 219.805569 
L 379.234477 239.408522 
L 379.493399 243.63438 
L 379.752322 245.408785 
L 380.011245 245.43893 
L 380.270167 243.138905 
L 380.52909 237.599524 
L 381.046936 216.00215 
L 382.341549 148.307353 
L 382.600472 139.655321 
L 382.859394 135.0472 
L 383.118317 135.078809 
L 384.154008 148.051779 
L 384.412931 153.580166 
L 384.671853 163.202373 
L 385.189699 189.879365 
L 385.448621 195.540913 
L 385.707544 195.837958 
L 386.484312 190.894039 
L 386.743235 185.514546 
L 387.26108 162.81134 
L 387.778926 142.163618 
L 388.037848 137.155413 
L 388.296771 135.730511 
L 388.555694 137.77517 
L 388.814617 143.144004 
L 389.332462 163.114201 
L 390.627076 230.766422 
L 390.885998 237.621951 
L 391.144921 240.506012 
L 391.403844 239.761016 
L 391.662766 235.524928 
L 391.921689 227.117934 
L 392.439534 195.15661 
L 392.95738 158.461037 
L 393.216303 148.180567 
L 393.475225 143.214248 
L 393.734148 141.224883 
L 394.251993 138.944204 
L 394.510916 136.887955 
L 395.028761 130.413982 
L 395.287684 128.925298 
L 395.546607 130.495553 
L 395.80553 135.151891 
L 396.323375 152.520421 
L 396.84122 178.848768 
L 397.617988 223.556801 
L 397.876911 225.564926 
L 398.135834 220.6112 
L 398.653679 207.862286 
L 399.430447 193.577652 
L 400.207215 178.413485 
L 400.725061 173.396247 
L 400.983984 171.744401 
L 401.242906 171.802521 
L 401.501829 175.083605 
L 402.019674 192.802868 
L 402.796443 221.57102 
L 403.055365 224.268001 
L 403.314288 220.939125 
L 403.573211 212.195567 
L 404.091056 183.126249 
L 404.608901 152.004452 
L 405.126747 134.133977 
L 405.903515 119.586212 
L 406.162438 117.978388 
L 406.42136 119.306824 
L 406.939206 128.074646 
L 407.457051 141.312667 
L 407.974897 163.871739 
L 408.751665 219.470884 
L 409.26951 248.978733 
L 409.528433 248.775753 
L 409.787355 239.363438 
L 411.340892 156.965005 
L 411.599814 152.40886 
L 411.858737 151.661701 
L 412.11766 153.577876 
L 412.894428 164.209486 
L 413.412273 178.762335 
L 414.447964 217.834989 
L 414.706887 218.132154 
L 414.96581 209.693446 
L 416.519346 127.62965 
L 417.037191 112.163278 
L 417.296114 110.369919 
L 417.555037 111.825875 
L 418.072882 118.905753 
L 418.331805 124.250463 
L 418.590727 132.286069 
L 419.108573 158.442944 
L 420.403186 235.214911 
L 420.662109 238.181866 
L 420.921032 234.587381 
L 421.179954 225.553054 
L 421.6978 196.503291 
L 422.474568 148.546065 
L 422.992413 130.793122 
L 424.028104 106.912575 
L 424.287027 108.230758 
L 424.545949 118.139317 
L 425.840563 195.262177 
L 426.358408 210.625632 
L 426.617331 211.996306 
L 426.876254 208.139857 
L 427.135177 199.462054 
L 428.42979 136.154356 
L 428.688713 131.886753 
L 428.947635 130.696327 
L 429.206558 132.39856 
L 429.465481 137.752055 
L 429.724404 147.751194 
L 431.019017 221.667046 
L 431.27794 225.815908 
L 431.536862 224.010111 
L 432.054708 215.189736 
L 432.313631 214.562172 
L 432.572553 215.242804 
L 432.831476 213.976512 
L 433.090399 208.323879 
L 433.608244 187.968885 
L 434.902858 133.212079 
L 435.16178 128.939243 
L 435.420703 130.325672 
L 436.715316 157.54066 
L 437.492085 181.916708 
L 438.00993 198.092731 
L 438.268853 203.336394 
L 438.527775 205.234089 
L 438.786698 202.545232 
L 439.045621 193.993172 
L 440.340234 121.033598 
L 440.599157 117.685541 
L 440.85808 120.126479 
L 441.117002 128.235587 
L 441.634848 159.913659 
L 442.152693 197.130821 
L 442.670539 218.105629 
L 443.188384 227.550224 
L 443.447307 229.015657 
L 443.706229 226.945462 
L 443.965152 220.507695 
L 444.482998 196.322005 
L 445.259766 149.396716 
L 445.777611 131.235657 
L 446.295456 120.322643 
L 446.554379 116.593683 
L 446.813302 115.175421 
L 447.072225 116.786009 
L 447.331147 121.155719 
L 447.848993 136.24684 
L 448.366838 159.702151 
L 449.402529 216.558893 
L 449.661452 223.430649 
L 449.920374 225.048927 
L 450.179297 221.037131 
L 450.956065 193.983901 
L 451.732833 169.271743 
L 451.991756 163.579484 
L 452.250679 160.831705 
L 452.509601 161.853208 
L 452.768524 166.162144 
L 453.286369 181.331803 
L 454.063138 204.268699 
L 454.580983 215.886991 
L 455.098828 228.725918 
L 455.357751 228.716491 
L 455.616674 220.497403 
L 456.134519 187.996775 
L 457.17021 119.717401 
L 457.429133 108.611045 
L 457.688055 102.290142 
L 457.946978 101.547992 
L 458.205901 105.146688 
L 458.723746 118.730223 
L 459.241592 137.389978 
L 460.01836 177.314823 
L 460.795128 217.699855 
L 461.054051 223.530998 
L 461.312973 225.112977 
L 461.571896 223.765977 
L 461.830819 220.404896 
L 462.089741 214.323475 
L 462.348664 204.410167 
L 463.125432 156.104313 
L 463.643278 128.748508 
L 463.9022 120.934751 
L 464.161123 118.298619 
L 464.420046 120.969508 
L 464.678968 128.883463 
L 465.455736 166.68865 
L 465.714659 173.140022 
L 466.232505 180.326966 
L 466.75035 191.359526 
L 467.009273 191.455162 
L 467.268195 183.629204 
L 468.562809 121.213653 
L 468.821732 114.358592 
L 469.080654 111.095378 
L 469.339577 112.860534 
L 469.5985 120.345621 
L 471.928804 217.836298 
L 472.187727 224.568518 
L 472.446649 227.893729 
L 472.705572 227.694428 
L 472.964495 224.738398 
L 473.48234 214.292777 
L 474.000186 199.194697 
L 475.553722 141.48984 
L 476.071567 130.313832 
L 476.33049 128.841627 
L 476.589413 131.033099 
L 477.366181 146.735642 
L 478.142949 164.664568 
L 478.401872 170.430394 
L 478.660794 173.15918 
L 478.919717 171.593757 
L 479.437562 165.308085 
L 479.696485 165.618808 
L 479.955408 166.289347 
L 480.21433 163.592836 
L 481.250021 132.690225 
L 481.508944 134.353427 
L 482.026789 143.675856 
L 482.285712 151.451779 
L 482.544635 164.108805 
L 483.321403 217.727746 
L 483.580326 224.35388 
L 483.839248 224.519021 
L 484.616016 216.982678 
L 484.874939 211.285106 
L 485.392785 188.862028 
L 486.428475 140.80653 
L 486.946321 123.508795 
L 487.205243 117.824992 
L 487.464166 114.974476 
L 487.723089 115.752561 
L 487.982012 120.990531 
L 488.499857 145.04403 
L 489.79447 221.601346 
L 490.053393 229.283642 
L 490.312316 231.19872 
L 490.571239 226.649706 
L 491.865852 182.432677 
L 492.64262 151.293251 
L 492.901543 150.388663 
L 493.160466 155.039837 
L 493.678311 172.889325 
L 494.714002 214.935701 
L 494.972924 220.112359 
L 495.231847 220.024563 
L 495.749693 210.755192 
L 497.044306 184.083793 
L 497.562152 163.928455 
L 498.33892 130.734082 
L 498.597842 124.7953 
L 498.856765 122.008524 
L 499.115688 122.554854 
L 499.37461 126.971312 
L 499.633533 135.883907 
L 500.928147 200.366129 
L 501.704915 227.645495 
L 501.963837 229.832099 
L 502.22276 223.906029 
L 502.999528 196.455606 
L 503.258451 191.071928 
L 503.517374 182.906811 
L 504.553064 133.396384 
L 504.811987 131.135636 
L 505.07091 131.658539 
L 505.329833 133.661909 
L 505.588755 139.256091 
L 505.847678 151.404812 
L 506.624446 213.139805 
L 506.883369 222.780922 
L 507.142291 223.905309 
L 507.401214 218.703903 
L 507.91906 197.395723 
L 509.990441 100.700272 
L 510.249364 93.349472 
L 510.508287 93.309492 
L 510.767209 102.936736 
L 511.285055 142.981967 
L 512.061823 210.211332 
L 512.320746 222.185898 
L 512.579668 227.704138 
L 512.838591 228.158686 
L 513.097514 224.949024 
L 513.874282 207.207973 
L 514.392127 192.598661 
L 515.168895 165.154688 
L 515.427818 162.486217 
L 515.686741 162.250462 
L 515.945663 161.319784 
L 516.722431 149.87085 
L 516.981354 150.83753 
L 517.4992 159.855547 
L 518.275968 176.757018 
L 518.793813 189.863468 
L 519.052736 188.972933 
L 519.311658 179.161186 
L 520.088427 139.08502 
L 521.38304 104.172731 
L 521.641963 105.764844 
L 521.900886 113.167711 
L 522.418731 142.737156 
L 523.454422 216.154839 
L 523.713344 226.331877 
L 523.972267 230.429904 
L 524.23119 230.694991 
L 524.490113 230.180727 
L 524.749035 231.145949 
L 525.007958 232.670499 
L 525.266881 233.039474 
L 525.525803 230.649824 
L 525.784726 224.345929 
L 526.043649 213.084025 
L 526.561494 176.231686 
L 527.338262 117.786585 
L 527.856108 95.125178 
L 528.11503 90.450707 
L 528.373953 89.694831 
L 528.632876 92.40306 
L 528.891798 98.226701 
L 529.409644 119.623911 
L 530.186412 162.295941 
L 530.445335 168.31815 
L 530.704257 169.76251 
L 530.96318 168.961703 
L 531.222103 167.555946 
L 531.481025 164.415598 
L 532.516716 142.324799 
L 532.775639 141.447432 
L 533.034562 141.180449 
L 533.293484 140.025604 
L 533.552407 137.35691 
L 533.81133 136.037429 
L 534.070253 139.802482 
L 534.588098 166.263031 
L 535.105943 191.393797 
L 535.623789 203.768692 
L 536.141634 212.684244 
L 536.400557 213.795225 
L 536.65948 211.29163 
L 537.69517 193.14329 
L 537.954093 181.414684 
L 538.730861 124.464889 
L 538.989784 114.875232 
L 539.248707 109.824891 
L 539.507629 107.82635 
L 539.766552 107.706409 
L 540.025475 109.549161 
L 540.284397 113.75302 
L 540.802243 130.321395 
L 541.579011 172.828152 
L 542.096856 195.325856 
L 542.614702 205.497886 
L 542.873624 208.351323 
L 543.132547 208.973526 
L 543.39147 205.916239 
L 543.909315 188.0829 
L 544.686083 160.086205 
L 545.462851 136.773235 
L 545.721774 135.256377 
L 545.980697 140.936021 
L 546.498542 167.358016 
L 547.27531 210.043991 
L 547.534233 216.199491 
L 547.793156 216.62018 
L 548.052078 211.354831 
L 548.569924 187.403886 
L 549.346692 151.012878 
L 550.12346 126.436007 
L 550.382383 121.618061 
L 550.641305 119.602709 
L 550.900228 120.594151 
L 551.159151 124.685985 
L 551.676996 141.258716 
L 553.489455 216.835259 
L 553.748378 220.959567 
L 554.007301 221.692582 
L 554.266223 219.359323 
L 554.525146 214.057643 
L 554.784069 204.976738 
L 555.301914 172.277197 
L 555.819759 135.800236 
L 556.078682 126.305978 
L 556.337605 122.6613 
L 556.596528 122.552384 
L 556.85545 124.283839 
L 557.114373 128.633972 
L 557.373296 136.999515 
L 558.408987 183.274537 
L 558.667909 185.71841 
L 558.926832 185.584272 
L 559.185755 184.213096 
L 559.444677 181.044266 
L 559.7036 175.04177 
L 560.480368 147.472292 
L 560.739291 143.341753 
L 560.998214 142.063656 
L 561.257136 141.601401 
L 561.516059 140.227176 
L 561.774982 137.448316 
L 562.55175 123.026103 
L 562.810672 122.719725 
L 563.069595 128.720551 
L 563.587441 155.156046 
L 564.882054 234.339824 
L 565.140977 240.583778 
L 565.399899 240.441457 
L 566.176668 229.825611 
L 566.43559 226.600135 
L 566.694513 218.578397 
L 567.212358 183.406748 
L 567.730204 147.21112 
L 568.506972 111.96953 
L 568.765895 106.042386 
L 569.024817 108.398099 
L 569.28374 121.224077 
L 570.060508 169.65555 
L 570.578354 182.028269 
L 571.096199 189.609698 
L 571.355122 189.405231 
L 571.614044 184.94215 
L 572.390812 165.61477 
L 572.908658 153.859151 
L 573.685426 125.606362 
L 573.944349 122.218159 
L 574.203271 123.671687 
L 574.462194 129.469157 
L 574.980039 151.169893 
L 576.274653 214.21723 
L 576.533576 220.52131 
L 576.792498 221.632053 
L 577.051421 215.984607 
L 578.346035 157.749836 
L 578.86388 147.084727 
L 579.381725 141.029652 
L 579.899571 138.086564 
L 580.158493 137.654936 
L 580.417416 138.061318 
L 580.676339 140.073302 
L 580.935262 144.613544 
L 581.453107 162.154884 
L 582.229875 191.95723 
L 582.488798 195.234286 
L 582.747721 192.445459 
L 583.006643 187.235356 
L 583.265566 184.454718 
L 583.783411 188.233842 
L 584.042334 182.785738 
L 584.560179 163.662562 
L 584.819102 158.21782 
L 585.336948 152.283354 
L 585.854793 143.351776 
L 586.113716 142.954077 
L 586.372638 148.65982 
L 587.926175 209.946375 
L 588.185097 215.72247 
L 588.44402 218.826663 
L 588.702943 217.434898 
L 590.256479 178.776444 
L 591.810015 153.95445 
L 592.32786 146.203287 
L 592.586783 144.332733 
L 592.845706 145.312096 
L 593.104629 150.512325 
L 593.622474 173.708853 
L 594.140319 198.396011 
L 594.399242 206.272856 
L 594.658165 209.625638 
L 594.917088 207.492694 
L 595.17601 199.446675 
L 595.693856 165.485389 
L 596.211701 130.473205 
L 596.470624 125.440863 
L 596.729546 127.723404 
L 598.02416 157.317538 
L 599.318773 202.377372 
L 599.577696 206.041745 
L 599.836619 206.238521 
L 600.095542 201.927938 
L 600.613387 179.120563 
L 601.390155 134.169079 
L 601.649078 124.658095 
L 601.908 120.850875 
L 602.166923 120.735663 
L 602.425846 121.436775 
L 602.684769 120.843937 
L 602.943691 119.908529 
L 603.202614 120.347342 
L 603.461537 123.877169 
L 603.720459 131.723928 
L 604.238305 156.927075 
L 605.015073 197.130821 
L 605.273996 204.523125 
L 605.532918 208.721882 
L 606.050764 212.549337 
L 606.309686 212.873905 
L 606.568609 211.396667 
L 606.827532 207.71013 
L 607.6043 189.493644 
L 608.122145 178.555937 
L 608.381068 175.392986 
L 608.639991 174.205849 
L 608.898913 175.153331 
L 609.675682 183.325164 
L 609.934604 182.750257 
L 610.193527 181.697283 
L 610.45245 182.962591 
L 611.229218 197.351269 
L 611.48814 196.876003 
L 611.747063 192.570771 
L 612.264909 173.763313 
L 613.041677 139.612195 
L 613.300599 134.154713 
L 613.559522 134.515353 
L 614.33629 144.734567 
L 614.595213 145.649819 
L 614.854136 147.026048 
L 615.113058 150.282645 
L 615.371981 155.8172 
L 615.889826 174.288734 
L 616.925517 223.650526 
L 617.443363 235.019679 
L 617.702285 235.929681 
L 617.961208 231.756524 
L 618.479053 207.053742 
L 618.996899 180.285773 
L 619.514744 163.104758 
L 620.03259 152.951808 
L 620.291512 150.606111 
L 620.550435 150.317094 
L 621.327203 155.68596 
L 621.586126 155.203285 
L 621.845049 154.266113 
L 622.103971 154.905034 
L 622.362894 158.850712 
L 622.621817 166.634096 
L 623.657507 211.926581 
L 623.91643 205.28156 
L 624.693198 171.975286 
L 625.469966 148.812865 
L 625.728889 146.133561 
L 625.987812 148.293854 
L 626.505657 161.012991 
L 627.541348 191.469107 
L 628.318116 220.070524 
L 628.577039 224.881719 
L 628.835961 226.291365 
L 629.094884 224.686354 
L 629.353807 220.167277 
L 629.61273 211.689514 
L 630.130575 182.701054 
L 630.64842 152.591999 
L 631.166266 134.140768 
L 631.425189 130.760826 
L 631.684111 130.702949 
L 631.943034 132.994999 
L 633.755493 159.981053 
L 634.273338 182.695275 
L 634.791184 206.477757 
L 635.050106 212.229613 
L 635.309029 209.695363 
L 636.085797 174.225734 
L 637.121488 150.035725 
L 637.639333 138.147333 
L 637.898256 135.918902 
L 638.157179 137.235949 
L 638.416101 142.870406 
L 638.933947 167.18247 
L 639.969638 228.144741 
L 640.22856 236.186474 
L 640.487483 238.952496 
L 640.746406 235.940057 
L 641.005328 227.0533 
L 641.782097 181.906238 
L 642.558865 138.753655 
L 642.817787 130.615602 
L 643.07671 129.162365 
L 643.335633 135.40723 
L 643.853478 152.506476 
L 644.112401 153.791178 
L 644.630246 150.303148 
L 644.889169 153.216824 
L 645.407014 167.706643 
L 646.701628 209.761835 
L 646.960551 209.081779 
L 647.478396 185.671853 
L 647.737319 175.432233 
L 647.996241 173.553353 
L 648.255164 176.311297 
L 648.514087 177.802901 
L 648.77301 173.818097 
L 649.290855 161.361619 
L 649.549778 160.194741 
L 650.067623 162.72824 
L 650.326546 161.686639 
L 650.585468 161.635754 
L 650.844391 166.911772 
L 651.621159 207.33864 
L 651.880082 209.869056 
L 652.397927 204.06154 
L 652.65685 204.813392 
L 652.915773 203.828052 
L 653.174695 193.588764 
L 653.951464 125.793294 
L 654.210386 115.66162 
L 654.469309 110.336469 
L 654.728232 107.444111 
L 654.987154 107.631963 
L 655.246077 112.302729 
L 655.763923 134.888174 
L 656.281768 157.984976 
L 657.058536 180.034119 
L 658.35315 215.998552 
L 658.612072 217.841716 
L 658.870995 215.118645 
L 659.129918 207.436256 
L 660.683454 137.306308 
L 661.201299 127.935756 
L 661.460222 128.004921 
L 661.719145 132.314452 
L 662.495913 151.934726 
L 662.754835 154.16239 
L 663.013758 155.257647 
L 663.272681 158.154244 
L 664.049449 176.017928 
L 664.308372 174.327071 
L 665.08514 159.23161 
L 665.602985 144.262776 
L 666.120831 128.813737 
L 666.379753 125.548623 
L 666.638676 125.892007 
L 666.897599 129.510992 
L 667.415444 145.027067 
L 668.192212 181.580058 
L 668.96898 215.369636 
L 669.486826 227.419596 
L 669.745748 230.766703 
L 670.004671 231.636138 
L 670.263594 229.065118 
L 670.522517 222.484319 
L 671.299285 190.093422 
L 672.334975 145.778156 
L 672.852821 134.084337 
L 673.370666 128.437219 
L 673.888512 121.204356 
L 674.147434 123.263584 
L 674.406357 132.578867 
L 675.183125 167.884337 
L 675.442048 172.491428 
L 675.700971 173.438083 
L 675.959893 171.38501 
L 676.477739 161.277948 
L 676.995584 149.514334 
L 677.254507 146.788981 
L 677.513429 147.719658 
L 678.031275 152.394915 
L 678.54912 151.44771 
L 678.808043 154.096218 
L 679.325888 173.582034 
L 679.843734 195.459973 
L 680.879425 228.228896 
L 681.138347 229.595032 
L 681.39727 223.364965 
L 681.915115 196.280169 
L 683.209729 118.571911 
L 683.468652 109.583433 
L 683.727574 107.028306 
L 683.986497 109.089648 
L 685.281111 130.679887 
L 686.316801 159.099574 
L 687.093569 178.938571 
L 687.352492 180.633758 
L 687.611415 177.833418 
L 688.12926 170.133092 
L 688.388183 171.002926 
L 688.647106 173.054257 
L 688.906028 172.322474 
L 689.423874 157.434918 
L 689.682796 150.177642 
L 689.941719 147.630052 
L 690.200642 149.35389 
L 690.718487 160.589911 
L 691.236333 182.11194 
L 691.754178 212.723668 
L 692.013101 221.59054 
L 692.272024 220.830017 
L 692.789869 202.011609 
L 694.602328 128.354774 
L 694.861251 123.587781 
L 695.120173 121.157873 
L 695.379096 120.759303 
L 695.638019 122.228874 
L 695.896941 125.439021 
L 697.450478 153.622084 
L 697.968323 170.775664 
L 699.004014 215.594144 
L 699.262936 219.401717 
L 699.521859 218.632611 
L 699.780782 214.171743 
L 700.298627 197.5264 
L 701.075395 166.43527 
L 701.334318 160.803815 
L 701.593241 160.386862 
L 701.852163 163.667436 
L 702.628932 176.386615 
L 703.146777 182.379961 
L 703.4057 183.895471 
L 703.664622 183.185713 
L 703.923545 179.706114 
L 704.700313 165.80151 
L 705.477081 156.065919 
L 706.512772 138.471535 
L 707.548463 114.938355 
L 707.807386 116.376038 
L 708.066308 122.142566 
L 708.584154 141.515299 
L 709.878767 197.995418 
L 710.13769 203.876496 
L 710.396613 206.160428 
L 710.655535 204.507783 
L 710.914458 198.926048 
L 712.209072 159.59059 
L 712.726917 149.420522 
L 712.98584 147.351378 
L 713.244762 148.364778 
L 714.280453 164.076251 
L 714.539376 163.867447 
L 714.798299 164.387708 
L 715.316144 169.776853 
L 715.575067 169.617123 
L 716.351835 154.291449 
L 716.86968 155.825411 
L 717.128603 151.528527 
L 717.646448 137.571265 
L 717.905371 134.332182 
L 718.164294 132.968933 
L 718.423216 130.919448 
L 718.941062 122.574599 
L 719.199985 122.239109 
L 719.458907 129.106584 
L 720.753521 202.389352 
L 721.271366 218.758449 
L 721.530289 227.320627 
L 721.789212 230.51541 
L 722.048134 225.27772 
L 723.083825 185.70006 
L 723.60167 166.43254 
L 724.119516 146.496134 
L 724.378439 141.364856 
L 725.155207 132.85463 
L 725.414129 129.330762 
L 725.673052 127.475007 
L 725.931975 128.711308 
L 726.190897 133.293538 
L 726.708743 151.69944 
L 726.967666 161.595309 
L 727.226588 166.981498 
L 727.485511 165.334182 
L 728.003356 154.054383 
L 728.262279 151.870909 
L 728.521202 151.559971 
L 728.780125 150.484435 
L 729.29797 143.074839 
L 729.556893 141.894248 
L 729.815815 145.47179 
L 730.592583 162.662372 
L 730.851506 167.114692 
L 731.110429 174.637362 
L 732.14612 224.351602 
L 732.405042 229.009638 
L 732.663965 230.124947 
L 732.922888 228.469675 
L 733.440733 219.331433 
L 733.958579 204.746525 
L 734.476424 181.626092 
L 735.512115 129.463379 
L 736.02996 113.880779 
L 736.288883 110.768905 
L 736.547806 112.330619 
L 736.806728 119.11955 
L 737.842419 155.830702 
L 739.913801 211.53539 
L 740.172723 215.946653 
L 740.431646 213.321091 
L 740.949492 183.751158 
L 741.467337 156.299391 
L 741.72626 150.249596 
L 741.985182 147.026048 
L 742.244105 145.435538 
L 742.503028 147.740323 
L 742.76195 157.066526 
L 743.538719 211.382721 
L 743.797641 217.495598 
L 744.056564 215.948224 
L 744.833332 199.317055 
L 745.351177 177.792488 
L 745.869023 154.138053 
L 746.127946 149.203545 
L 746.386868 147.863163 
L 746.645791 147.165499 
L 746.904714 144.159145 
L 747.163636 135.892693 
L 747.163636 135.892693 
" clip-path="url(#p68acd41e62)" style="fill: none; stroke: #0000ff; stroke-linecap: square"/>
   </g>
   <g id="patch_3">
    <path d="M 108 320.4 
L 108 43.2 
" style="fill: none; stroke: #000000; stroke-width: 0.8; stroke-linejoin: miter; stroke-linecap: square"/>
   </g>
   <g id="patch_4">
    <path d="M 777.6 320.4 
L 777.6 43.2 
" style="fill: none; stroke: #000000; stroke-width: 0.8; stroke-linejoin: miter; stroke-linecap: square"/>
   </g>
   <g id="patch_5">
    <path d="M 108 320.4 
L 777.6 320.4 
" style="fill: none; stroke: #000000; stroke-width: 0.8; stroke-linejoin: miter; stroke-linecap: square"/>
   </g>
   <g id="patch_6">
    <path d="M 108 43.2 
L 777.6 43.2 
" style="fill: none; stroke: #000000; stroke-width: 0.8; stroke-linejoin: miter; stroke-linecap: square"/>
   </g>
   <g id="text_14">
    <!-- Original Data -->
    <g transform="translate(396.830981 37.2) scale(0.156 -0.156)">
     <defs>
      <path id="CMR17-4f" d="M 4307 2135 
C 4307 3437 3366 4416 2304 4416 
C 1216 4416 294 3424 294 2135 
C 294 845 1229 -128 2298 -128 
C 3392 -128 4307 864 4307 2135 
z
M 2304 -13 
C 1574 -13 781 711 781 2217 
C 781 3716 1651 4301 2298 4301 
C 2976 4301 3821 3698 3821 2217 
C 3821 686 3008 -13 2304 -13 
z
" transform="scale(0.015625)"/>
      <path id="CMR17-72" d="M 960 1497 
C 960 2112 1222 2688 1702 2688 
C 1747 2688 1792 2682 1837 2662 
C 1837 2662 1696 2617 1696 2452 
C 1696 2298 1818 2234 1914 2234 
C 1990 2234 2131 2279 2131 2458 
C 2131 2663 1926 2790 1709 2790 
C 1222 2790 1011 2317 947 2093 
L 941 2093 
L 941 2790 
L 198 2720 
L 198 2554 
C 576 2554 634 2515 634 2208 
L 634 428 
C 634 184 608 153 198 153 
L 198 -13 
C 352 0 646 0 813 0 
C 998 0 1325 0 1498 -13 
L 1498 153 
C 1037 153 960 153 960 440 
L 960 1497 
z
" transform="scale(0.015625)"/>
      <path id="CMR17-67" d="M 710 1164 
C 832 1068 1043 960 1299 960 
C 1805 960 2240 1357 2240 1888 
C 2240 2054 2189 2310 1997 2509 
C 2176 2692 2438 2752 2586 2752 
C 2611 2752 2650 2752 2682 2734 
C 2656 2728 2598 2703 2598 2605 
C 2598 2527 2656 2471 2739 2471 
C 2835 2471 2886 2533 2886 2614 
C 2886 2731 2790 2854 2586 2854 
C 2330 2854 2106 2738 1926 2580 
C 1734 2753 1504 2816 1299 2816 
C 794 2816 358 2419 358 1888 
C 358 1522 570 1292 634 1228 
C 442 1004 442 743 442 711 
C 442 545 506 302 723 168 
C 390 85 128 -169 128 -486 
C 128 -943 736 -1280 1466 -1280 
C 2170 -1280 2803 -956 2803 -479 
C 2803 384 1856 384 1363 384 
C 1216 384 954 384 922 391 
C 723 423 589 602 589 826 
C 589 883 589 1024 710 1164 
z
M 1299 1068 
C 736 1068 736 1760 736 1889 
C 736 2016 736 2708 1299 2708 
C 1862 2708 1862 2016 1862 1889 
C 1862 1760 1862 1068 1299 1068 
z
M 1466 -1171 
C 826 -1171 384 -835 384 -486 
C 384 -289 493 -105 634 -4 
C 794 104 858 104 1293 104 
C 1818 104 2547 104 2547 -486 
C 2547 -835 2106 -1171 1466 -1171 
z
" transform="scale(0.015625)"/>
      <path id="CMR17-44" d="M 333 4352 
L 333 4186 
C 774 4186 845 4186 845 3900 
L 845 452 
C 845 166 774 166 333 166 
L 333 0 
L 2368 0 
C 3398 0 4224 943 4224 2141 
C 4224 3346 3411 4352 2368 4352 
L 333 4352 
z
M 1523 166 
C 1267 166 1254 197 1254 414 
L 1254 3938 
C 1254 4155 1267 4186 1523 4186 
L 2240 4186 
C 2771 4186 3750 3874 3750 2141 
C 3750 1242 3488 879 3366 707 
C 3213 510 2848 166 2240 166 
L 1523 166 
z
" transform="scale(0.015625)"/>
     </defs>
     <use xlink:href="#CMR17-4f" transform="scale(0.996264)"/>
     <use xlink:href="#CMR17-72" transform="translate(71.714788 0) scale(0.996264)"/>
     <use xlink:href="#CMR17-69" transform="translate(106.995556 0) scale(0.996264)"/>
     <use xlink:href="#CMR17-67" transform="translate(131.866615 0) scale(0.996264)"/>
     <use xlink:href="#CMR17-69" transform="translate(177.557092 0) scale(0.996264)"/>
     <use xlink:href="#CMR17-6e" transform="translate(202.42815 0) scale(0.996264)"/>
     <use xlink:href="#CMR17-61" transform="translate(253.32352 0) scale(0.996264)"/>
     <use xlink:href="#CMR17-6c" transform="translate(299.013997 0) scale(0.996264)"/>
     <use xlink:href="#CMR17-44" transform="translate(353.961022 0) scale(0.996264)"/>
     <use xlink:href="#CMR17-61" transform="translate(424.354578 0) scale(0.996264)"/>
     <use xlink:href="#CMR17-74" transform="translate(470.045055 0) scale(0.996264)"/>
     <use xlink:href="#CMR17-61" transform="translate(505.325823 0) scale(0.996264)"/>
    </g>
   </g>
  </g>
 </g>
 <defs>
  <clipPath id="p68acd41e62">
   <rect x="108" y="43.2" width="669.6" height="277.2"/>
  </clipPath>
 </defs>
</svg>
