<?xml version="1.0" encoding="utf-8" standalone="no"?>
<!DOCTYPE svg PUBLIC "-//W3C//DTD SVG 1.1//EN"
  "http://www.w3.org/Graphics/SVG/1.1/DTD/svg11.dtd">
<svg xmlns:xlink="http://www.w3.org/1999/xlink" width="864pt" height="360pt" viewBox="0 0 864 360" xmlns="http://www.w3.org/2000/svg" version="1.1">
 <metadata>
  <rdf:RDF xmlns:dc="http://purl.org/dc/elements/1.1/" xmlns:cc="http://creativecommons.org/ns#" xmlns:rdf="http://www.w3.org/1999/02/22-rdf-syntax-ns#">
   <cc:Work>
    <dc:type rdf:resource="http://purl.org/dc/dcmitype/StillImage"/>
    <dc:date>2023-07-26T17:05:40.329421</dc:date>
    <dc:format>image/svg+xml</dc:format>
    <dc:creator>
     <cc:Agent>
      <dc:title>Matplotlib v3.7.1, https://matplotlib.org/</dc:title>
     </cc:Agent>
    </dc:creator>
   </cc:Work>
  </rdf:RDF>
 </metadata>
 <defs>
  <style type="text/css">*{stroke-linejoin: round; stroke-linecap: butt}</style>
 </defs>
 <g id="figure_1">
  <g id="patch_1">
   <path d="M 0 360 
L 864 360 
L 864 0 
L 0 0 
z
" style="fill: #ffffff"/>
  </g>
  <g id="axes_1">
   <g id="patch_2">
    <path d="M 108 181.8 
L 777.6 181.8 
L 777.6 43.2 
L 108 43.2 
z
" style="fill: #ffffff"/>
   </g>
   <g id="matplotlib.axis_1"/>
   <g id="matplotlib.axis_2">
    <g id="ytick_1">
     <g id="line2d_1">
      <defs>
       <path id="ma6b4b5c98b" d="M 0 0 
L -3.5 0 
" style="stroke: #000000; stroke-width: 0.8"/>
      </defs>
      <g>
       <use xlink:href="#ma6b4b5c98b" x="108" y="174.47005" style="stroke: #000000; stroke-width: 0.8"/>
      </g>
     </g>
     <g id="text_1">
      <!-- $\mathdefault{−0.02}$ -->
      <g transform="translate(68.381779 178.967064) scale(0.13 -0.13)">
       <defs>
        <path id="CMSY10-0" d="M 4218 1472 
C 4326 1472 4442 1472 4442 1600 
C 4442 1728 4326 1728 4218 1728 
L 755 1728 
C 646 1728 531 1728 531 1600 
C 531 1472 646 1472 755 1472 
L 4218 1472 
z
" transform="scale(0.015625)"/>
        <path id="CMR17-30" d="M 2688 2025 
C 2688 2416 2682 3080 2413 3591 
C 2176 4039 1798 4198 1466 4198 
C 1158 4198 768 4058 525 3597 
C 269 3118 243 2524 243 2025 
C 243 1661 250 1106 448 619 
C 723 -39 1216 -128 1466 -128 
C 1760 -128 2208 -7 2470 600 
C 2662 1042 2688 1559 2688 2025 
z
M 1466 -26 
C 1056 -26 813 325 723 812 
C 653 1188 653 1738 653 2096 
C 653 2588 653 2997 736 3387 
C 858 3929 1216 4096 1466 4096 
C 1728 4096 2067 3923 2189 3400 
C 2272 3036 2278 2607 2278 2096 
C 2278 1680 2278 1169 2202 792 
C 2067 95 1690 -26 1466 -26 
z
" transform="scale(0.015625)"/>
        <path id="CMMI12-3a" d="M 1178 307 
C 1178 492 1024 619 870 619 
C 685 619 557 466 557 313 
C 557 128 710 0 864 0 
C 1050 0 1178 153 1178 307 
z
" transform="scale(0.015625)"/>
        <path id="CMR17-32" d="M 2669 989 
L 2554 989 
C 2490 536 2438 459 2413 420 
C 2381 369 1920 369 1830 369 
L 602 369 
C 832 619 1280 1072 1824 1597 
C 2214 1967 2669 2402 2669 3035 
C 2669 3790 2067 4224 1395 4224 
C 691 4224 262 3604 262 3030 
C 262 2780 448 2748 525 2748 
C 589 2748 781 2787 781 3010 
C 781 3207 614 3264 525 3264 
C 486 3264 448 3258 422 3245 
C 544 3790 915 4058 1306 4058 
C 1862 4058 2227 3617 2227 3035 
C 2227 2479 1901 2000 1536 1584 
L 262 146 
L 262 0 
L 2515 0 
L 2669 989 
z
" transform="scale(0.015625)"/>
       </defs>
       <use xlink:href="#CMSY10-0" transform="scale(0.996264)"/>
       <use xlink:href="#CMR17-30" transform="translate(77.487468 0) scale(0.996264)"/>
       <use xlink:href="#CMMI12-3a" transform="translate(123.177945 0) scale(0.996264)"/>
       <use xlink:href="#CMR17-30" transform="translate(150.275122 0) scale(0.996264)"/>
       <use xlink:href="#CMR17-32" transform="translate(195.965599 0) scale(0.996264)"/>
      </g>
     </g>
    </g>
    <g id="ytick_2">
     <g id="line2d_2">
      <g>
       <use xlink:href="#ma6b4b5c98b" x="108" y="144.271306" style="stroke: #000000; stroke-width: 0.8"/>
      </g>
     </g>
     <g id="text_2">
      <!-- $\mathdefault{−0.01}$ -->
      <g transform="translate(68.381779 148.76832) scale(0.13 -0.13)">
       <defs>
        <path id="CMR17-31" d="M 1702 4058 
C 1702 4192 1696 4192 1606 4192 
C 1357 3916 979 3827 621 3827 
C 602 3827 570 3827 563 3808 
C 557 3795 557 3782 557 3648 
C 755 3648 1088 3686 1344 3839 
L 1344 461 
C 1344 236 1331 160 781 160 
L 589 160 
L 589 0 
C 896 0 1216 0 1523 0 
C 1830 0 2150 0 2458 0 
L 2458 160 
L 2266 160 
C 1715 160 1702 230 1702 458 
L 1702 4058 
z
" transform="scale(0.015625)"/>
       </defs>
       <use xlink:href="#CMSY10-0" transform="scale(0.996264)"/>
       <use xlink:href="#CMR17-30" transform="translate(77.487468 0) scale(0.996264)"/>
       <use xlink:href="#CMMI12-3a" transform="translate(123.177945 0) scale(0.996264)"/>
       <use xlink:href="#CMR17-30" transform="translate(150.275122 0) scale(0.996264)"/>
       <use xlink:href="#CMR17-31" transform="translate(195.965599 0) scale(0.996264)"/>
      </g>
     </g>
    </g>
    <g id="ytick_3">
     <g id="line2d_3">
      <g>
       <use xlink:href="#ma6b4b5c98b" x="108" y="114.072562" style="stroke: #000000; stroke-width: 0.8"/>
      </g>
     </g>
     <g id="text_3">
      <!-- $\mathdefault{0.00}$ -->
      <g transform="translate(78.455149 118.569576) scale(0.13 -0.13)">
       <use xlink:href="#CMR17-30" transform="scale(0.996264)"/>
       <use xlink:href="#CMMI12-3a" transform="translate(45.690477 0) scale(0.996264)"/>
       <use xlink:href="#CMR17-30" transform="translate(72.787654 0) scale(0.996264)"/>
       <use xlink:href="#CMR17-30" transform="translate(118.478131 0) scale(0.996264)"/>
      </g>
     </g>
    </g>
    <g id="ytick_4">
     <g id="line2d_4">
      <g>
       <use xlink:href="#ma6b4b5c98b" x="108" y="83.873817" style="stroke: #000000; stroke-width: 0.8"/>
      </g>
     </g>
     <g id="text_4">
      <!-- $\mathdefault{0.01}$ -->
      <g transform="translate(78.455149 88.370831) scale(0.13 -0.13)">
       <use xlink:href="#CMR17-30" transform="scale(0.996264)"/>
       <use xlink:href="#CMMI12-3a" transform="translate(45.690477 0) scale(0.996264)"/>
       <use xlink:href="#CMR17-30" transform="translate(72.787654 0) scale(0.996264)"/>
       <use xlink:href="#CMR17-31" transform="translate(118.478131 0) scale(0.996264)"/>
      </g>
     </g>
    </g>
    <g id="ytick_5">
     <g id="line2d_5">
      <g>
       <use xlink:href="#ma6b4b5c98b" x="108" y="53.675073" style="stroke: #000000; stroke-width: 0.8"/>
      </g>
     </g>
     <g id="text_5">
      <!-- $\mathdefault{0.02}$ -->
      <g transform="translate(78.455149 58.172087) scale(0.13 -0.13)">
       <use xlink:href="#CMR17-30" transform="scale(0.996264)"/>
       <use xlink:href="#CMMI12-3a" transform="translate(45.690477 0) scale(0.996264)"/>
       <use xlink:href="#CMR17-30" transform="translate(72.787654 0) scale(0.996264)"/>
       <use xlink:href="#CMR17-32" transform="translate(118.478131 0) scale(0.996264)"/>
      </g>
     </g>
    </g>
    <g id="text_6">
     <!-- $x_1$ (m) -->
     <g transform="translate(61.143921 131.010922) rotate(-90) scale(0.13 -0.13)">
      <defs>
       <path id="CMMI12-78" d="M 3034 2606 
C 2829 2567 2752 2414 2752 2293 
C 2752 2139 2874 2088 2963 2088 
C 3155 2088 3290 2254 3290 2427 
C 3290 2695 2982 2816 2714 2816 
C 2323 2816 2106 2433 2048 2312 
C 1901 2816 1504 2816 1389 2816 
C 736 2816 390 1980 390 1839 
C 390 1814 416 1782 461 1782 
C 512 1782 525 1820 538 1846 
C 755 2555 1184 2689 1370 2689 
C 1658 2689 1715 2420 1715 2267 
C 1715 2127 1677 1980 1600 1673 
L 1382 798 
C 1286 415 1101 64 762 64 
C 730 64 570 64 435 147 
C 666 192 717 383 717 460 
C 717 588 621 664 499 664 
C 346 664 179 530 179 326 
C 179 57 480 -64 755 -64 
C 1062 -64 1280 179 1414 441 
C 1517 64 1837 -64 2074 -64 
C 2726 -64 3072 773 3072 913 
C 3072 945 3046 971 3008 971 
C 2950 971 2944 939 2925 888 
C 2752 326 2381 64 2093 64 
C 1869 64 1747 230 1747 492 
C 1747 632 1773 734 1875 1156 
L 2099 2024 
C 2195 2408 2413 2689 2707 2689 
C 2720 2689 2899 2689 3034 2606 
z
" transform="scale(0.015625)"/>
       <path id="CMR17-28" d="M 1958 -1561 
C 1958 -1555 1958 -1542 1939 -1523 
C 1645 -1224 858 -407 858 1581 
C 858 3569 1632 4379 1946 4697 
C 1946 4704 1958 4717 1958 4736 
C 1958 4755 1939 4768 1914 4768 
C 1843 4768 1299 4296 986 3594 
C 666 2887 576 2199 576 1588 
C 576 1128 621 351 1005 -471 
C 1312 -1135 1837 -1600 1914 -1600 
C 1946 -1600 1958 -1587 1958 -1561 
z
" transform="scale(0.015625)"/>
       <path id="CMR17-6d" d="M 4326 1933 
C 4326 2252 4269 2790 3507 2790 
C 3072 2790 2771 2496 2656 2151 
L 2650 2151 
C 2573 2676 2195 2790 1837 2790 
C 1331 2790 1069 2400 973 2144 
L 966 2144 
L 966 2790 
L 211 2720 
L 211 2554 
C 589 2554 646 2515 646 2208 
L 646 428 
C 646 184 621 153 211 153 
L 211 -13 
C 365 0 646 0 813 0 
C 979 0 1267 0 1421 -13 
L 1421 153 
C 1011 153 986 178 986 428 
L 986 1658 
C 986 2247 1344 2688 1792 2688 
C 2266 2688 2317 2266 2317 1958 
L 2317 428 
C 2317 184 2291 153 1882 153 
L 1882 -13 
C 2035 0 2317 0 2483 0 
C 2650 0 2938 0 3091 -13 
L 3091 153 
C 2682 153 2656 178 2656 428 
L 2656 1658 
C 2656 2247 3014 2688 3462 2688 
C 3936 2688 3987 2266 3987 1958 
L 3987 428 
C 3987 184 3962 153 3552 153 
L 3552 -13 
C 3706 0 3987 0 4154 0 
C 4320 0 4608 0 4762 -13 
L 4762 153 
C 4352 153 4326 178 4326 428 
L 4326 1933 
z
" transform="scale(0.015625)"/>
       <path id="CMR17-29" d="M 1683 1581 
C 1683 2040 1638 2817 1254 3639 
C 947 4303 422 4768 346 4768 
C 326 4768 301 4761 301 4729 
C 301 4717 307 4710 314 4697 
C 621 4378 1402 3568 1402 1584 
C 1402 -407 627 -1217 314 -1537 
C 307 -1549 301 -1556 301 -1568 
C 301 -1600 326 -1600 346 -1600 
C 416 -1600 960 -1128 1274 -426 
C 1594 281 1683 969 1683 1581 
z
" transform="scale(0.015625)"/>
      </defs>
      <use xlink:href="#CMMI12-78" transform="scale(0.996264)"/>
      <use xlink:href="#CMR17-31" transform="translate(55.43406 -14.943915) scale(0.697382)"/>
      <use xlink:href="#CMR17-28" transform="translate(117.99134 0) scale(0.996264)"/>
      <use xlink:href="#CMR17-6d" transform="translate(153.272108 0) scale(0.996264)"/>
      <use xlink:href="#CMR17-29" transform="translate(230.191698 0) scale(0.996264)"/>
     </g>
    </g>
   </g>
   <g id="line2d_6">
    <path d="M 138.436364 129.951666 
L 141.495295 137.365232 
L 144.554226 143.196471 
L 147.613157 147.163391 
L 150.672088 149.110589 
L 153.731019 149.014893 
L 156.78995 146.981874 
L 159.848881 143.23372 
L 162.907812 138.08956 
L 165.966743 131.939847 
L 175.143536 111.801299 
L 178.202467 105.905834 
L 181.261398 100.979942 
L 184.320329 97.238747 
L 187.37926 94.799649 
L 190.438191 93.680439 
L 193.497122 93.80499 
L 196.556053 95.015794 
L 199.614984 97.09211 
L 202.673915 99.772099 
L 211.850708 108.705996 
L 214.909639 111.195242 
L 217.96857 113.172105 
L 221.027501 114.574941 
L 224.086432 115.412581 
L 227.145363 115.758809 
L 230.204294 115.740999 
L 236.322156 115.290847 
L 239.381087 115.221765 
L 242.440018 115.47382 
L 245.498949 116.162585 
L 248.55788 117.347728 
L 251.616811 119.023797 
L 254.675742 121.117075 
L 263.852535 128.252487 
L 266.911466 130.156012 
L 269.970397 131.403948 
L 273.029328 131.770174 
L 276.088259 131.077083 
L 279.14719 129.215331 
L 282.206122 126.158923 
L 285.265053 121.974216 
L 288.323984 116.821863 
L 291.382915 110.951245 
L 297.500777 98.412231 
L 300.559708 92.538039 
L 303.618639 87.480488 
L 306.67757 83.627647 
L 309.736501 81.310593 
L 312.795432 80.776713 
L 315.854363 82.167973 
L 318.913294 85.505901 
L 321.972225 90.684613 
L 325.031156 97.472626 
L 328.090087 105.523592 
L 334.207949 123.576631 
L 337.26688 132.518294 
L 340.325811 140.669347 
L 343.384742 147.51296 
L 346.443673 152.601381 
L 349.502604 155.586821 
L 352.561535 156.24617 
L 355.620466 154.497741 
L 358.679397 150.408785 
L 361.738328 144.193152 
L 364.797259 136.199162 
L 367.85619 126.888416 
L 377.032983 96.72739 
L 380.091914 87.917814 
L 383.150845 80.638736 
L 386.209776 75.310162 
L 389.268707 72.229117 
L 392.327638 71.551669 
L 395.386569 73.284388 
L 398.4455 77.28573 
L 401.504431 83.277181 
L 404.563362 90.863276 
L 407.622293 99.559057 
L 413.740155 118.092838 
L 416.799086 126.822604 
L 419.858017 134.516935 
L 422.916948 140.761752 
L 425.975879 145.248418 
L 429.03481 147.790156 
L 432.093741 148.329723 
L 435.152672 146.938037 
L 438.211603 143.804108 
L 441.270534 139.217216 
L 444.329466 133.542851 
L 450.447328 120.602155 
L 453.506259 114.183731 
L 456.56519 108.315101 
L 459.624121 103.307228 
L 462.683052 99.388084 
L 465.741983 96.691795 
L 468.800914 95.255346 
L 471.859845 95.02284 
L 474.918776 95.856658 
L 477.977707 97.554412 
L 481.036638 99.870111 
L 490.213431 107.906302 
L 493.272362 110.180691 
L 496.331293 111.986914 
L 499.390224 113.261188 
L 502.449155 114.009029 
L 505.508086 114.300534 
L 508.567017 114.259743 
L 514.684879 113.850441 
L 517.74381 113.844288 
L 520.802741 114.189187 
L 523.861672 115.003075 
L 526.920603 116.34829 
L 529.979534 118.221632 
L 533.038465 120.550445 
L 542.215258 128.599764 
L 545.274189 130.855042 
L 548.33312 132.459328 
L 551.392051 133.170755 
L 554.450982 132.793914 
L 557.509913 131.200598 
L 560.568844 128.346098 
L 563.627775 124.279561 
L 566.686706 119.147303 
L 569.745637 113.188566 
L 578.92243 93.844846 
L 581.981361 88.281805 
L 585.040292 83.855525 
L 588.099223 80.923544 
L 591.158154 79.763873 
L 594.217085 80.551613 
L 597.276016 83.342039 
L 600.334947 88.061574 
L 603.393878 94.507549 
L 606.45281 102.357007 
L 609.511741 111.18416 
L 615.629603 129.71081 
L 618.688534 138.29849 
L 621.747465 145.712028 
L 624.806396 151.475881 
L 627.865327 155.207794 
L 630.924258 156.645416 
L 633.983189 155.665283 
L 637.04212 152.292773 
L 640.101051 146.70224 
L 643.159982 139.207252 
L 646.218913 130.241501 
L 652.336775 110.063968 
L 655.395706 100.046834 
L 658.454637 90.87195 
L 661.513568 83.076593 
L 664.572499 77.109632 
L 667.63143 73.303551 
L 670.690361 71.85434 
L 673.749292 72.810562 
L 676.808223 76.072262 
L 679.867154 81.399681 
L 682.926085 88.431085 
L 685.985016 96.708356 
L 695.161809 123.673269 
L 698.22074 131.587493 
L 701.279671 138.190152 
L 704.338602 143.148452 
L 707.397533 146.246267 
L 710.456464 147.393764 
L 713.515395 146.628091 
L 716.574326 144.105345 
L 719.633257 140.084632 
L 722.692188 134.905603 
L 725.751119 128.961296 
L 731.868981 116.437037 
L 734.927912 110.642795 
L 737.986843 105.602142 
L 741.045774 101.553775 
L 744.104705 98.646572 
L 747.163636 96.934986 
L 747.163636 96.934986 
" clip-path="url(#pfa363f8bea)" style="fill: none; stroke: #ff0000; stroke-linecap: square"/>
   </g>
   <g id="line2d_7">
    <path d="M 138.436364 129.951666 
L 141.495295 136.036931 
L 144.554226 138.517546 
L 147.613157 137.975903 
L 150.672088 134.994393 
L 153.731019 130.155408 
L 156.78995 124.04134 
L 159.848881 117.015212 
L 162.907812 108.562578 
L 165.966743 97.949625 
L 172.084605 71.579021 
L 175.143536 60.227079 
L 178.202467 52.885596 
L 181.261398 49.5 
L 184.320329 49.510839 
L 187.37926 52.503671 
L 190.438191 58.644087 
L 193.497122 68.242689 
L 196.556053 81.280228 
L 205.732846 126.601279 
L 208.791777 139.993053 
L 211.850708 152.177941 
L 214.909639 162.943418 
L 217.96857 171.167303 
L 221.027501 175.5 
L 224.086432 175.008818 
L 227.145363 170.428685 
L 230.204294 162.911438 
L 233.263225 153.492579 
L 236.322156 142.742294 
L 242.440018 119.062861 
L 248.55788 95.345293 
L 251.616811 84.368818 
L 254.675742 74.82766 
L 257.734673 69.05993 
L 260.793604 69.804395 
L 263.852535 78.275312 
L 266.911466 89.588887 
L 269.970397 98.684958 
L 276.088259 112.902317 
L 279.14719 120.774454 
L 282.206122 128.141729 
L 285.265053 133.023309 
L 288.323984 133.954483 
L 291.382915 131.535021 
L 294.441846 126.880812 
L 297.500777 121.107748 
L 300.559708 115.077669 
L 303.618639 108.636227 
L 306.67757 101.375025 
L 309.736501 93.218037 
L 312.795432 85.41872 
L 315.854363 79.562904 
L 318.913294 76.754705 
L 321.972225 76.171391 
L 325.031156 76.508516 
L 328.090087 77.178594 
L 331.149018 80.461965 
L 334.207949 89.355925 
L 337.26688 105.24978 
L 340.325811 123.100865 
L 343.384742 137.542282 
L 346.443673 148.342174 
L 349.502604 156.552445 
L 352.561535 162.941454 
L 355.620466 167.143388 
L 358.679397 168.508891 
L 361.738328 166.388607 
L 364.797259 160.451723 
L 367.85619 151.641592 
L 370.915121 141.220111 
L 373.974052 130.210306 
L 377.032983 118.679724 
L 380.091914 106.457043 
L 383.150845 93.72905 
L 386.209776 82.114981 
L 389.268707 73.592181 
L 392.327638 69.512921 
L 395.386569 68.729189 
L 398.4455 69.467895 
L 401.504431 70.662971 
L 404.563362 74.076417 
L 407.622293 82.177252 
L 413.740155 109.796161 
L 416.799086 118.509979 
L 419.858017 122.459493 
L 422.916948 123.567452 
L 425.975879 123.756609 
L 429.03481 124.396137 
L 432.093741 124.640913 
L 435.152672 123.092236 
L 438.211603 118.743737 
L 441.270534 112.158356 
L 444.329466 104.291361 
L 447.388397 96.110935 
L 450.447328 88.636908 
L 453.506259 82.902022 
L 456.56519 79.627981 
L 459.624121 78.292335 
L 462.683052 78.061595 
L 465.741983 78.777153 
L 468.800914 82.979933 
L 471.859845 93.885737 
L 474.918776 112.693103 
L 477.977707 132.531501 
L 481.036638 146.374957 
L 484.095569 154.644777 
L 487.1545 159.624089 
L 490.213431 163.064042 
L 493.272362 164.587873 
L 496.331293 163.286841 
L 499.390224 158.252203 
L 502.449155 149.040526 
L 505.508086 137.069602 
L 508.567017 124.222532 
L 511.625948 112.044529 
L 514.684879 100.72925 
L 517.74381 90.132464 
L 520.802741 80.281545 
L 523.861672 71.890277 
L 526.920603 65.844046 
L 529.979534 62.8085 
L 533.038465 62.570332 
L 536.097396 64.696493 
L 539.156327 69.000161 
L 542.215258 76.279404 
L 545.274189 87.578513 
L 551.392051 117.690975 
L 554.450982 127.753079 
L 557.509913 133.308364 
L 560.568844 135.781059 
L 563.627775 136.595389 
L 566.686706 136.836018 
L 569.745637 136.229351 
L 572.804568 134.162233 
L 575.863499 130.197253 
L 578.92243 124.59999 
L 581.981361 117.81177 
L 588.099223 103.002804 
L 591.158154 96.655393 
L 594.217085 92.039818 
L 597.276016 89.346912 
L 600.334947 88.631155 
L 603.393878 89.975093 
L 606.45281 93.573541 
L 609.511741 99.649383 
L 612.570672 108.145682 
L 618.688534 127.414971 
L 621.747465 135.496929 
L 624.806396 141.781267 
L 627.865327 146.138192 
L 630.924258 148.376191 
L 633.983189 148.056848 
L 637.04212 144.680024 
L 640.101051 138.009834 
L 643.159982 128.867399 
L 649.277844 107.424994 
L 652.336775 96.802028 
L 655.395706 87.060821 
L 658.454637 78.683751 
L 661.513568 71.716192 
L 664.572499 66.094264 
L 667.63143 61.900454 
L 670.690361 59.80271 
L 673.749292 60.615349 
L 676.808223 64.872684 
L 679.867154 71.989037 
L 682.926085 81.098726 
L 685.985016 91.498331 
L 689.043947 103.133468 
L 692.102878 116.112012 
L 695.161809 130.125826 
L 698.22074 143.202717 
L 701.279671 152.95448 
L 704.338602 157.538572 
L 707.397533 157.295089 
L 710.456464 153.109788 
L 713.515395 145.897106 
L 716.574326 136.686197 
L 725.751119 106.582765 
L 728.81005 97.44056 
L 731.868981 89.366495 
L 734.927912 83.43095 
L 737.986843 80.865764 
L 741.045774 82.45235 
L 744.104705 87.170414 
L 747.163636 93.549236 
L 747.163636 93.549236 
" clip-path="url(#pfa363f8bea)" style="fill: none; stroke-dasharray: 3.7,1.6; stroke-dashoffset: 0; stroke: #8b0000"/>
   </g>
   <g id="patch_3">
    <path d="M 108 181.8 
L 108 43.2 
" style="fill: none; stroke: #000000; stroke-width: 0.8; stroke-linejoin: miter; stroke-linecap: square"/>
   </g>
   <g id="patch_4">
    <path d="M 777.6 181.8 
L 777.6 43.2 
" style="fill: none; stroke: #000000; stroke-width: 0.8; stroke-linejoin: miter; stroke-linecap: square"/>
   </g>
   <g id="patch_5">
    <path d="M 108 181.8 
L 777.6 181.8 
" style="fill: none; stroke: #000000; stroke-width: 0.8; stroke-linejoin: miter; stroke-linecap: square"/>
   </g>
   <g id="patch_6">
    <path d="M 108 43.2 
L 777.6 43.2 
" style="fill: none; stroke: #000000; stroke-width: 0.8; stroke-linejoin: miter; stroke-linecap: square"/>
   </g>
   <g id="legend_1">
    <g id="patch_7">
     <path d="M 650.045139 89.836624 
L 768.5 89.836624 
Q 771.1 89.836624 771.1 87.236624 
L 771.1 52.3 
Q 771.1 49.7 768.5 49.7 
L 650.045139 49.7 
Q 647.445139 49.7 647.445139 52.3 
L 647.445139 87.236624 
Q 647.445139 89.836624 650.045139 89.836624 
z
" style="fill: #ffffff; opacity: 0.8; stroke: #cccccc; stroke-linejoin: miter"/>
    </g>
    <g id="line2d_8">
     <path d="M 652.645139 59.45 
L 665.645139 59.45 
L 678.645139 59.45 
" style="fill: none; stroke: #ff0000; stroke-linecap: square"/>
    </g>
    <g id="text_7">
     <!-- MCMC result -->
     <g transform="translate(689.045139 64) scale(0.13 -0.13)">
      <defs>
       <path id="CMR17-4d" d="M 1338 4224 
C 1299 4320 1293 4320 1158 4320 
L 339 4320 
L 339 4160 
C 781 4160 851 4160 851 3875 
L 851 610 
C 851 451 851 153 339 153 
L 339 -13 
C 486 0 755 0 915 0 
C 1075 0 1344 0 1491 -13 
L 1491 153 
C 979 153 979 451 979 610 
L 979 4135 
L 986 4135 
L 2490 89 
C 2515 25 2528 -13 2579 -13 
C 2630 -13 2643 25 2669 89 
L 4186 4166 
L 4192 4166 
L 4192 438 
C 4192 153 4122 153 3680 153 
L 3680 -13 
C 3853 0 4198 0 4384 0 
C 4570 0 4922 0 5094 -13 
L 5094 153 
C 4653 153 4582 153 4582 438 
L 4582 3875 
C 4582 4160 4653 4160 5094 4160 
L 5094 4320 
L 4282 4320 
C 4147 4320 4141 4314 4102 4218 
L 2720 502 
L 1338 4224 
z
" transform="scale(0.015625)"/>
       <path id="CMR17-43" d="M 3974 4289 
C 3974 4403 3968 4410 3930 4410 
C 3904 4410 3898 4403 3853 4327 
L 3571 3792 
C 3258 4187 2874 4416 2381 4416 
C 1286 4416 294 3456 294 2148 
C 294 826 1286 -128 2387 -128 
C 3366 -128 3974 730 3974 1461 
C 3974 1524 3974 1550 3917 1550 
C 3866 1550 3866 1531 3859 1474 
C 3808 585 3168 38 2477 38 
C 1824 38 781 495 781 2147 
C 781 3805 1843 4250 2464 4250 
C 3187 4250 3712 3628 3834 2745 
C 3846 2668 3846 2655 3904 2655 
C 3974 2655 3974 2668 3974 2783 
L 3974 4289 
z
" transform="scale(0.015625)"/>
       <path id="CMR17-72" d="M 960 1497 
C 960 2112 1222 2688 1702 2688 
C 1747 2688 1792 2682 1837 2662 
C 1837 2662 1696 2617 1696 2452 
C 1696 2298 1818 2234 1914 2234 
C 1990 2234 2131 2279 2131 2458 
C 2131 2663 1926 2790 1709 2790 
C 1222 2790 1011 2317 947 2093 
L 941 2093 
L 941 2790 
L 198 2720 
L 198 2554 
C 576 2554 634 2515 634 2208 
L 634 428 
C 634 184 608 153 198 153 
L 198 -13 
C 352 0 646 0 813 0 
C 998 0 1325 0 1498 -13 
L 1498 153 
C 1037 153 960 153 960 440 
L 960 1497 
z
" transform="scale(0.015625)"/>
       <path id="CMR17-65" d="M 2438 1472 
C 2464 1498 2464 1511 2464 1576 
C 2464 2238 2118 2816 1389 2816 
C 710 2816 173 2169 173 1383 
C 173 551 781 -64 1459 -64 
C 2176 -64 2458 607 2458 740 
C 2458 784 2419 784 2406 784 
C 2362 784 2355 771 2330 696 
C 2189 265 1837 51 1504 51 
C 1229 51 954 203 781 480 
C 582 803 582 1176 582 1472 
L 2438 1472 
z
M 589 1568 
C 634 2505 1126 2714 1382 2714 
C 1818 2714 2112 2297 2118 1568 
L 589 1568 
z
" transform="scale(0.015625)"/>
       <path id="CMR17-73" d="M 1978 2697 
C 1978 2813 1971 2819 1933 2819 
C 1907 2819 1901 2813 1824 2717 
C 1805 2691 1747 2626 1728 2601 
C 1523 2819 1235 2819 1126 2819 
C 416 2819 160 2447 160 2076 
C 160 1498 813 1365 998 1325 
C 1402 1243 1542 1217 1677 1101 
C 1760 1025 1901 884 1901 654 
C 1901 384 1747 38 1158 38 
C 602 38 403 460 288 1021 
C 269 1110 269 1117 218 1117 
C 166 1117 160 1110 160 983 
L 160 63 
C 160 -51 166 -58 205 -58 
C 237 -58 243 -51 275 0 
C 314 57 410 211 448 276 
C 576 103 800 -64 1158 -64 
C 1792 -64 2131 283 2131 784 
C 2131 1112 1958 1285 1875 1362 
C 1683 1561 1459 1606 1190 1657 
C 838 1735 390 1825 390 2217 
C 390 2383 480 2737 1126 2737 
C 1811 2737 1850 2094 1862 1888 
C 1869 1856 1901 1849 1920 1849 
C 1978 1849 1978 1869 1978 1978 
L 1978 2697 
z
" transform="scale(0.015625)"/>
       <path id="CMR17-75" d="M 1882 2693 
L 1882 2528 
C 2259 2528 2317 2489 2317 2186 
L 2317 1032 
C 2317 500 2029 38 1555 38 
C 1030 38 986 348 986 678 
L 986 2763 
L 211 2693 
L 211 2528 
C 467 2528 640 2528 646 2274 
L 646 1058 
C 646 633 646 361 813 183 
C 896 101 1056 -64 1517 -64 
C 2061 -64 2272 377 2323 506 
L 2330 506 
L 2330 -63 
L 3091 -63 
L 3091 128 
C 2714 128 2656 166 2656 473 
L 2656 2763 
L 1882 2693 
z
" transform="scale(0.015625)"/>
       <path id="CMR17-6c" d="M 979 4396 
L 218 4326 
L 218 4160 
C 595 4160 653 4122 653 3817 
L 653 426 
C 653 184 627 153 218 153 
L 218 -13 
C 371 0 653 0 813 0 
C 979 0 1261 0 1414 -13 
L 1414 153 
C 1005 153 979 178 979 426 
L 979 4396 
z
" transform="scale(0.015625)"/>
       <path id="CMR17-74" d="M 966 2560 
L 1862 2560 
L 1862 2725 
L 966 2725 
L 966 3904 
L 851 3904 
C 838 3245 614 2668 70 2668 
L 70 2560 
L 627 2560 
L 627 771 
C 627 650 627 -64 1370 -64 
C 1747 -64 1965 306 1965 777 
L 1965 1140 
L 1850 1140 
L 1850 783 
C 1850 344 1677 51 1408 51 
C 1222 51 966 178 966 758 
L 966 2560 
z
" transform="scale(0.015625)"/>
      </defs>
      <use xlink:href="#CMR17-4d" transform="scale(0.996264)"/>
      <use xlink:href="#CMR17-43" transform="translate(84.686941 0) scale(0.996264)"/>
      <use xlink:href="#CMR17-4d" transform="translate(151.196821 0) scale(0.996264)"/>
      <use xlink:href="#CMR17-43" transform="translate(235.883762 0) scale(0.996264)"/>
      <use xlink:href="#CMR17-72" transform="translate(332.469609 0) scale(0.996264)"/>
      <use xlink:href="#CMR17-65" transform="translate(367.750376 0) scale(0.996264)"/>
      <use xlink:href="#CMR17-73" transform="translate(408.236037 0) scale(0.996264)"/>
      <use xlink:href="#CMR17-75" transform="translate(444.037374 0) scale(0.996264)"/>
      <use xlink:href="#CMR17-6c" transform="translate(494.932744 0) scale(0.996264)"/>
      <use xlink:href="#CMR17-74" transform="translate(519.803803 0) scale(0.996264)"/>
     </g>
    </g>
    <g id="line2d_9">
     <path d="M 652.645139 77.568312 
L 665.645139 77.568312 
L 678.645139 77.568312 
" style="fill: none; stroke-dasharray: 3.7,1.6; stroke-dashoffset: 0; stroke: #8b0000"/>
    </g>
    <g id="text_8">
     <!-- Experiment -->
     <g transform="translate(689.045139 82.118312) scale(0.13 -0.13)">
      <defs>
       <path id="CMR17-45" d="M 3885 1615 
L 3770 1615 
C 3629 676 3546 166 2419 166 
L 1530 166 
C 1274 166 1261 197 1261 414 
L 1261 2176 
L 1862 2176 
C 2464 2176 2522 1960 2522 1430 
L 2637 1430 
L 2637 3081 
L 2522 3081 
C 2522 2557 2464 2342 1862 2342 
L 1261 2342 
L 1261 3913 
C 1261 4128 1274 4160 1530 4160 
L 2406 4160 
C 3398 4160 3514 3769 3603 2929 
L 3718 2929 
L 3565 4325 
L 326 4325 
L 326 4160 
C 768 4160 838 4160 838 3874 
L 838 451 
C 838 166 768 166 326 166 
L 326 0 
L 3654 0 
L 3885 1615 
z
" transform="scale(0.015625)"/>
       <path id="CMR17-78" d="M 1664 1477 
C 1856 1726 2074 2006 2253 2216 
C 2464 2458 2707 2560 2989 2560 
L 2989 2726 
C 2880 2726 2656 2726 2541 2726 
C 2368 2726 2170 2726 2022 2732 
L 2022 2566 
C 2112 2553 2163 2489 2163 2400 
C 2163 2285 2099 2215 2067 2171 
L 1594 1573 
L 1030 2306 
C 973 2376 973 2388 973 2420 
C 973 2497 1037 2560 1146 2560 
L 1146 2732 
C 992 2726 717 2726 557 2726 
C 384 2726 179 2726 38 2732 
L 38 2560 
C 384 2560 461 2534 614 2343 
L 1350 1395 
C 1363 1382 1395 1344 1395 1325 
C 1395 1299 838 619 768 530 
C 480 185 179 160 6 160 
L 6 0 
C 115 0 339 0 454 0 
C 582 0 864 0 979 -6 
L 979 160 
C 941 166 838 179 838 325 
C 838 440 890 510 947 586 
L 1478 1236 
L 2035 512 
C 2086 442 2163 346 2163 301 
C 2163 211 2086 160 1984 160 
L 1984 -6 
C 2138 0 2413 0 2573 0 
C 2746 0 2950 0 3091 -6 
L 3091 160 
C 2771 160 2675 172 2522 370 
L 1664 1477 
z
" transform="scale(0.015625)"/>
       <path id="CMR17-70" d="M 1408 -1063 
C 998 -1063 973 -1037 973 -789 
L 973 402 
C 1158 134 1427 -38 1766 -38 
C 2406 -38 3053 523 3053 1388 
C 3053 2191 2496 2802 1837 2802 
C 1453 2802 1139 2592 960 2338 
L 960 2802 
L 198 2732 
L 198 2567 
C 576 2567 634 2528 634 2223 
L 634 -789 
C 634 -1031 608 -1063 198 -1063 
L 198 -1228 
C 352 -1216 634 -1216 800 -1216 
C 966 -1216 1254 -1216 1408 -1228 
L 1408 -1063 
z
M 973 2012 
C 973 2102 973 2235 1222 2471 
C 1254 2497 1472 2688 1792 2688 
C 2259 2688 2643 2108 2643 1382 
C 2643 656 2234 64 1728 64 
C 1498 64 1248 172 1056 472 
C 973 612 973 650 973 752 
L 973 2012 
z
" transform="scale(0.015625)"/>
       <path id="CMR17-69" d="M 992 3909 
C 992 4049 877 4170 730 4170 
C 589 4170 467 4056 467 3909 
C 467 3769 582 3648 730 3648 
C 870 3648 992 3763 992 3909 
z
M 243 2706 
L 243 2541 
C 602 2541 653 2502 653 2197 
L 653 427 
C 653 184 627 153 218 153 
L 218 -13 
C 371 0 646 0 806 0 
C 960 0 1222 0 1370 -13 
L 1370 153 
C 992 153 979 191 979 420 
L 979 2776 
L 243 2706 
z
" transform="scale(0.015625)"/>
       <path id="CMR17-6e" d="M 2656 1933 
C 2656 2259 2592 2790 1837 2790 
C 1331 2790 1069 2400 973 2144 
L 966 2144 
L 966 2790 
L 211 2720 
L 211 2554 
C 589 2554 646 2515 646 2208 
L 646 428 
C 646 184 621 153 211 153 
L 211 -13 
C 365 0 646 0 813 0 
C 979 0 1267 0 1421 -13 
L 1421 153 
C 1011 153 986 178 986 428 
L 986 1658 
C 986 2247 1344 2688 1792 2688 
C 2266 2688 2317 2266 2317 1958 
L 2317 428 
C 2317 184 2291 153 1882 153 
L 1882 -13 
C 2035 0 2317 0 2483 0 
C 2650 0 2938 0 3091 -13 
L 3091 153 
C 2682 153 2656 178 2656 428 
L 2656 1933 
z
" transform="scale(0.015625)"/>
      </defs>
      <use xlink:href="#CMR17-45" transform="scale(0.996264)"/>
      <use xlink:href="#CMR17-78" transform="translate(62.586301 0) scale(0.996264)"/>
      <use xlink:href="#CMR17-70" transform="translate(110.879216 0) scale(0.996264)"/>
      <use xlink:href="#CMR17-65" transform="translate(164.377025 0) scale(0.996264)"/>
      <use xlink:href="#CMR17-72" transform="translate(204.862685 0) scale(0.996264)"/>
      <use xlink:href="#CMR17-69" transform="translate(240.143453 0) scale(0.996264)"/>
      <use xlink:href="#CMR17-6d" transform="translate(265.014512 0) scale(0.996264)"/>
      <use xlink:href="#CMR17-65" transform="translate(341.934101 0) scale(0.996264)"/>
      <use xlink:href="#CMR17-6e" transform="translate(382.419762 0) scale(0.996264)"/>
      <use xlink:href="#CMR17-74" transform="translate(430.712678 0) scale(0.996264)"/>
     </g>
    </g>
   </g>
  </g>
  <g id="axes_2">
   <g id="patch_8">
    <path d="M 108 320.4 
L 777.6 320.4 
L 777.6 181.8 
L 108 181.8 
z
" style="fill: #ffffff"/>
   </g>
   <g id="matplotlib.axis_3">
    <g id="xtick_1">
     <g id="line2d_10">
      <defs>
       <path id="m148cfede18" d="M 0 0 
L 0 3.5 
" style="stroke: #000000; stroke-width: 0.8"/>
      </defs>
      <g>
       <use xlink:href="#m148cfede18" x="138.436364" y="320.4" style="stroke: #000000; stroke-width: 0.8"/>
      </g>
     </g>
     <g id="text_9">
      <!-- $\mathdefault{0.00}$ -->
      <g transform="translate(127.163938 336.394028) scale(0.13 -0.13)">
       <use xlink:href="#CMR17-30" transform="scale(0.996264)"/>
       <use xlink:href="#CMMI12-3a" transform="translate(45.690477 0) scale(0.996264)"/>
       <use xlink:href="#CMR17-30" transform="translate(72.787654 0) scale(0.996264)"/>
       <use xlink:href="#CMR17-30" transform="translate(118.478131 0) scale(0.996264)"/>
      </g>
     </g>
    </g>
    <g id="xtick_2">
     <g id="line2d_11">
      <g>
       <use xlink:href="#m148cfede18" x="214.909639" y="320.4" style="stroke: #000000; stroke-width: 0.8"/>
      </g>
     </g>
     <g id="text_10">
      <!-- $\mathdefault{0.25}$ -->
      <g transform="translate(203.637213 336.394028) scale(0.13 -0.13)">
       <defs>
        <path id="CMR17-35" d="M 730 3692 
C 794 3666 1056 3584 1325 3584 
C 1920 3584 2246 3911 2432 4100 
C 2432 4157 2432 4192 2394 4192 
C 2387 4192 2374 4192 2323 4163 
C 2099 4058 1837 3973 1517 3973 
C 1325 3973 1037 3999 723 4139 
C 653 4171 640 4171 634 4171 
C 602 4171 595 4164 595 4037 
L 595 2203 
C 595 2089 595 2057 659 2057 
C 691 2057 704 2070 736 2114 
C 941 2401 1222 2522 1542 2522 
C 1766 2522 2246 2382 2246 1289 
C 2246 1085 2246 715 2054 421 
C 1894 159 1645 25 1370 25 
C 947 25 518 320 403 814 
C 429 807 480 795 506 795 
C 589 795 749 840 749 1038 
C 749 1210 627 1280 506 1280 
C 358 1280 262 1190 262 1011 
C 262 454 704 -128 1382 -128 
C 2042 -128 2669 440 2669 1264 
C 2669 2030 2170 2624 1549 2624 
C 1222 2624 947 2503 730 2274 
L 730 3692 
z
" transform="scale(0.015625)"/>
       </defs>
       <use xlink:href="#CMR17-30" transform="scale(0.996264)"/>
       <use xlink:href="#CMMI12-3a" transform="translate(45.690477 0) scale(0.996264)"/>
       <use xlink:href="#CMR17-32" transform="translate(72.787654 0) scale(0.996264)"/>
       <use xlink:href="#CMR17-35" transform="translate(118.478131 0) scale(0.996264)"/>
      </g>
     </g>
    </g>
    <g id="xtick_3">
     <g id="line2d_12">
      <g>
       <use xlink:href="#m148cfede18" x="291.382915" y="320.4" style="stroke: #000000; stroke-width: 0.8"/>
      </g>
     </g>
     <g id="text_11">
      <!-- $\mathdefault{0.50}$ -->
      <g transform="translate(280.110489 336.394028) scale(0.13 -0.13)">
       <use xlink:href="#CMR17-30" transform="scale(0.996264)"/>
       <use xlink:href="#CMMI12-3a" transform="translate(45.690477 0) scale(0.996264)"/>
       <use xlink:href="#CMR17-35" transform="translate(72.787654 0) scale(0.996264)"/>
       <use xlink:href="#CMR17-30" transform="translate(118.478131 0) scale(0.996264)"/>
      </g>
     </g>
    </g>
    <g id="xtick_4">
     <g id="line2d_13">
      <g>
       <use xlink:href="#m148cfede18" x="367.85619" y="320.4" style="stroke: #000000; stroke-width: 0.8"/>
      </g>
     </g>
     <g id="text_12">
      <!-- $\mathdefault{0.75}$ -->
      <g transform="translate(356.583764 336.394028) scale(0.13 -0.13)">
       <defs>
        <path id="CMR17-37" d="M 2886 3941 
L 2886 4081 
L 1382 4081 
C 634 4081 621 4165 595 4288 
L 480 4288 
L 294 3094 
L 410 3094 
C 429 3215 474 3540 550 3661 
C 589 3712 1062 3712 1171 3712 
L 2579 3712 
L 1869 2661 
C 1395 1954 1069 999 1069 165 
C 1069 89 1069 -128 1299 -128 
C 1530 -128 1530 89 1530 171 
L 1530 465 
C 1530 1508 1709 2196 2003 2636 
L 2886 3941 
z
" transform="scale(0.015625)"/>
       </defs>
       <use xlink:href="#CMR17-30" transform="scale(0.996264)"/>
       <use xlink:href="#CMMI12-3a" transform="translate(45.690477 0) scale(0.996264)"/>
       <use xlink:href="#CMR17-37" transform="translate(72.787654 0) scale(0.996264)"/>
       <use xlink:href="#CMR17-35" transform="translate(118.478131 0) scale(0.996264)"/>
      </g>
     </g>
    </g>
    <g id="xtick_5">
     <g id="line2d_14">
      <g>
       <use xlink:href="#m148cfede18" x="444.329466" y="320.4" style="stroke: #000000; stroke-width: 0.8"/>
      </g>
     </g>
     <g id="text_13">
      <!-- $\mathdefault{1.00}$ -->
      <g transform="translate(433.05704 336.394028) scale(0.13 -0.13)">
       <use xlink:href="#CMR17-31" transform="scale(0.996264)"/>
       <use xlink:href="#CMMI12-3a" transform="translate(45.690477 0) scale(0.996264)"/>
       <use xlink:href="#CMR17-30" transform="translate(72.787654 0) scale(0.996264)"/>
       <use xlink:href="#CMR17-30" transform="translate(118.478131 0) scale(0.996264)"/>
      </g>
     </g>
    </g>
    <g id="xtick_6">
     <g id="line2d_15">
      <g>
       <use xlink:href="#m148cfede18" x="520.802741" y="320.4" style="stroke: #000000; stroke-width: 0.8"/>
      </g>
     </g>
     <g id="text_14">
      <!-- $\mathdefault{1.25}$ -->
      <g transform="translate(509.530315 336.394028) scale(0.13 -0.13)">
       <use xlink:href="#CMR17-31" transform="scale(0.996264)"/>
       <use xlink:href="#CMMI12-3a" transform="translate(45.690477 0) scale(0.996264)"/>
       <use xlink:href="#CMR17-32" transform="translate(72.787654 0) scale(0.996264)"/>
       <use xlink:href="#CMR17-35" transform="translate(118.478131 0) scale(0.996264)"/>
      </g>
     </g>
    </g>
    <g id="xtick_7">
     <g id="line2d_16">
      <g>
       <use xlink:href="#m148cfede18" x="597.276016" y="320.4" style="stroke: #000000; stroke-width: 0.8"/>
      </g>
     </g>
     <g id="text_15">
      <!-- $\mathdefault{1.50}$ -->
      <g transform="translate(586.003591 336.394028) scale(0.13 -0.13)">
       <use xlink:href="#CMR17-31" transform="scale(0.996264)"/>
       <use xlink:href="#CMMI12-3a" transform="translate(45.690477 0) scale(0.996264)"/>
       <use xlink:href="#CMR17-35" transform="translate(72.787654 0) scale(0.996264)"/>
       <use xlink:href="#CMR17-30" transform="translate(118.478131 0) scale(0.996264)"/>
      </g>
     </g>
    </g>
    <g id="xtick_8">
     <g id="line2d_17">
      <g>
       <use xlink:href="#m148cfede18" x="673.749292" y="320.4" style="stroke: #000000; stroke-width: 0.8"/>
      </g>
     </g>
     <g id="text_16">
      <!-- $\mathdefault{1.75}$ -->
      <g transform="translate(662.476866 336.394028) scale(0.13 -0.13)">
       <use xlink:href="#CMR17-31" transform="scale(0.996264)"/>
       <use xlink:href="#CMMI12-3a" transform="translate(45.690477 0) scale(0.996264)"/>
       <use xlink:href="#CMR17-37" transform="translate(72.787654 0) scale(0.996264)"/>
       <use xlink:href="#CMR17-35" transform="translate(118.478131 0) scale(0.996264)"/>
      </g>
     </g>
    </g>
    <g id="xtick_9">
     <g id="line2d_18">
      <g>
       <use xlink:href="#m148cfede18" x="750.222567" y="320.4" style="stroke: #000000; stroke-width: 0.8"/>
      </g>
     </g>
     <g id="text_17">
      <!-- $\mathdefault{2.00}$ -->
      <g transform="translate(738.950142 336.394028) scale(0.13 -0.13)">
       <use xlink:href="#CMR17-32" transform="scale(0.996264)"/>
       <use xlink:href="#CMMI12-3a" transform="translate(45.690477 0) scale(0.996264)"/>
       <use xlink:href="#CMR17-30" transform="translate(72.787654 0) scale(0.996264)"/>
       <use xlink:href="#CMR17-30" transform="translate(118.478131 0) scale(0.996264)"/>
      </g>
     </g>
    </g>
    <g id="text_18">
     <!-- time (sec) -->
     <g transform="translate(415.28824 352.625914) scale(0.13 -0.13)">
      <defs>
       <path id="CMR17-63" d="M 2234 2240 
C 2112 2240 1933 2240 1933 2017 
C 1933 1838 2080 1787 2163 1787 
C 2208 1787 2394 1807 2394 2024 
C 2394 2467 1958 2803 1466 2803 
C 787 2803 211 2178 211 1363 
C 211 516 813 -64 1466 -64 
C 2259 -64 2458 677 2458 748 
C 2458 774 2451 793 2406 793 
C 2362 793 2355 787 2330 703 
C 2163 180 1798 51 1523 51 
C 1114 51 621 427 621 1369 
C 621 2338 1094 2688 1472 2688 
C 1722 2688 2093 2573 2234 2240 
z
" transform="scale(0.015625)"/>
      </defs>
      <use xlink:href="#CMR17-74" transform="scale(0.996264)"/>
      <use xlink:href="#CMR17-69" transform="translate(35.280768 0) scale(0.996264)"/>
      <use xlink:href="#CMR17-6d" transform="translate(60.151826 0) scale(0.996264)"/>
      <use xlink:href="#CMR17-65" transform="translate(137.071416 0) scale(0.996264)"/>
      <use xlink:href="#CMR17-28" transform="translate(207.633043 0) scale(0.996264)"/>
      <use xlink:href="#CMR17-73" transform="translate(242.913811 0) scale(0.996264)"/>
      <use xlink:href="#CMR17-65" transform="translate(278.715148 0) scale(0.996264)"/>
      <use xlink:href="#CMR17-63" transform="translate(319.200809 0) scale(0.996264)"/>
      <use xlink:href="#CMR17-29" transform="translate(359.686469 0) scale(0.996264)"/>
     </g>
    </g>
   </g>
   <g id="matplotlib.axis_4">
    <g id="ytick_6">
     <g id="line2d_19">
      <g>
       <use xlink:href="#ma6b4b5c98b" x="108" y="296.148434" style="stroke: #000000; stroke-width: 0.8"/>
      </g>
     </g>
     <g id="text_19">
      <!-- $\mathdefault{−0.02}$ -->
      <g transform="translate(68.381779 300.645448) scale(0.13 -0.13)">
       <use xlink:href="#CMSY10-0" transform="scale(0.996264)"/>
       <use xlink:href="#CMR17-30" transform="translate(77.487468 0) scale(0.996264)"/>
       <use xlink:href="#CMMI12-3a" transform="translate(123.177945 0) scale(0.996264)"/>
       <use xlink:href="#CMR17-30" transform="translate(150.275122 0) scale(0.996264)"/>
       <use xlink:href="#CMR17-32" transform="translate(195.965599 0) scale(0.996264)"/>
      </g>
     </g>
    </g>
    <g id="ytick_7">
     <g id="line2d_20">
      <g>
       <use xlink:href="#ma6b4b5c98b" x="108" y="245.677612" style="stroke: #000000; stroke-width: 0.8"/>
      </g>
     </g>
     <g id="text_20">
      <!-- $\mathdefault{0.00}$ -->
      <g transform="translate(78.455149 250.174626) scale(0.13 -0.13)">
       <use xlink:href="#CMR17-30" transform="scale(0.996264)"/>
       <use xlink:href="#CMMI12-3a" transform="translate(45.690477 0) scale(0.996264)"/>
       <use xlink:href="#CMR17-30" transform="translate(72.787654 0) scale(0.996264)"/>
       <use xlink:href="#CMR17-30" transform="translate(118.478131 0) scale(0.996264)"/>
      </g>
     </g>
    </g>
    <g id="ytick_8">
     <g id="line2d_21">
      <g>
       <use xlink:href="#ma6b4b5c98b" x="108" y="195.206789" style="stroke: #000000; stroke-width: 0.8"/>
      </g>
     </g>
     <g id="text_21">
      <!-- $\mathdefault{0.02}$ -->
      <g transform="translate(78.455149 199.703803) scale(0.13 -0.13)">
       <use xlink:href="#CMR17-30" transform="scale(0.996264)"/>
       <use xlink:href="#CMMI12-3a" transform="translate(45.690477 0) scale(0.996264)"/>
       <use xlink:href="#CMR17-30" transform="translate(72.787654 0) scale(0.996264)"/>
       <use xlink:href="#CMR17-32" transform="translate(118.478131 0) scale(0.996264)"/>
      </g>
     </g>
    </g>
    <g id="text_22">
     <!-- $x_2$ (m) -->
     <g transform="translate(61.143921 269.610922) rotate(-90) scale(0.13 -0.13)">
      <use xlink:href="#CMMI12-78" transform="scale(0.996264)"/>
      <use xlink:href="#CMR17-32" transform="translate(55.43406 -14.943915) scale(0.697382)"/>
      <use xlink:href="#CMR17-28" transform="translate(117.99134 0) scale(0.996264)"/>
      <use xlink:href="#CMR17-6d" transform="translate(153.272108 0) scale(0.996264)"/>
      <use xlink:href="#CMR17-29" transform="translate(230.191698 0) scale(0.996264)"/>
     </g>
    </g>
   </g>
   <g id="line2d_22">
    <path d="M 138.436364 215.987305 
L 141.495295 213.236503 
L 144.554226 213.000581 
L 147.613157 215.357247 
L 150.672088 220.183194 
L 153.731019 227.161105 
L 156.78995 235.801616 
L 165.966743 265.038974 
L 169.025674 273.434745 
L 172.084605 280.004837 
L 175.143536 284.217508 
L 178.202467 285.709065 
L 181.261398 284.313253 
L 184.320329 280.076066 
L 187.37926 273.254789 
L 190.438191 264.301225 
L 193.497122 253.830258 
L 199.614984 231.338874 
L 202.673915 220.927048 
L 205.732846 212.09736 
L 208.791777 205.499303 
L 211.850708 201.62675 
L 214.909639 200.780851 
L 217.96857 203.04693 
L 221.027501 208.287138 
L 224.086432 216.149452 
L 227.145363 226.092404 
L 230.204294 237.423755 
L 236.322156 261.034989 
L 239.381087 271.657677 
L 242.440018 280.474167 
L 245.498949 286.870069 
L 248.55788 290.404981 
L 251.616811 290.843946 
L 254.675742 288.17383 
L 257.734673 282.603473 
L 260.793604 274.547615 
L 263.852535 264.595838 
L 273.029328 230.903547 
L 276.088259 221.06145 
L 279.14719 213.120604 
L 282.206122 207.617225 
L 285.265053 204.904401 
L 288.323984 205.128078 
L 291.382915 208.218532 
L 294.441846 213.897866 
L 297.500777 221.702869 
L 300.559708 231.021442 
L 306.67757 251.296612 
L 309.736501 260.740711 
L 312.795432 268.786785 
L 315.854363 274.866112 
L 318.913294 278.567823 
L 321.972225 279.667874 
L 325.031156 278.143624 
L 328.090087 274.172984 
L 331.149018 268.118334 
L 334.207949 260.496521 
L 343.384742 234.787031 
L 346.443673 227.55359 
L 349.502604 221.992917 
L 352.561535 218.525514 
L 355.620466 217.400972 
L 358.679397 218.679646 
L 361.738328 222.229136 
L 364.797259 227.735797 
L 367.85619 234.730345 
L 377.032983 258.465702 
L 380.091914 265.091337 
L 383.150845 270.083797 
L 386.209776 273.01729 
L 389.268707 273.630591 
L 392.327638 271.848445 
L 395.386569 267.788468 
L 398.4455 261.752988 
L 401.504431 254.2064 
L 410.681224 228.763841 
L 413.740155 221.631164 
L 416.799086 216.223607 
L 419.858017 213.011238 
L 422.916948 212.299626 
L 425.975879 214.204107 
L 429.03481 218.638479 
L 432.093741 225.319067 
L 435.152672 233.783982 
L 438.211603 243.426188 
L 444.329466 263.363508 
L 447.388397 272.155592 
L 450.447328 279.232273 
L 453.506259 284.029099 
L 456.56519 286.143 
L 459.624121 285.364445 
L 462.683052 281.695368 
L 465.741983 275.351428 
L 468.800914 266.748321 
L 471.859845 256.473074 
L 481.036638 223.113946 
L 484.095569 213.807023 
L 487.1545 206.609567 
L 490.213431 202.05424 
L 493.272362 200.487256 
L 496.331293 202.042151 
L 499.390224 206.629058 
L 502.449155 213.940328 
L 505.508086 223.472117 
L 508.567017 234.560386 
L 514.684879 258.244156 
L 517.74381 269.177815 
L 520.802741 278.464378 
L 523.861672 285.457529 
L 526.920603 289.676382 
L 529.979534 290.839791 
L 533.038465 288.885992 
L 536.097396 283.976164 
L 539.156327 276.481684 
L 542.215258 266.956062 
L 545.274189 256.093684 
L 551.392051 233.526077 
L 554.450982 223.424579 
L 557.509913 215.076961 
L 560.568844 209.050725 
L 563.627775 205.737671 
L 566.686706 205.326993 
L 569.745637 207.793574 
L 572.804568 212.902255 
L 575.863499 220.227653 
L 578.92243 229.18795 
L 588.099223 258.712573 
L 591.158154 266.9825 
L 594.217085 273.401328 
L 597.276016 277.528092 
L 600.334947 279.103256 
L 603.393878 278.066107 
L 606.45281 274.556878 
L 609.511741 268.903541 
L 612.570672 261.594388 
L 615.629603 253.238571 
L 621.747465 236.132236 
L 624.806396 228.746853 
L 627.865327 222.938913 
L 630.924258 219.154059 
L 633.983189 217.672266 
L 637.04212 218.586955 
L 640.101051 221.798717 
L 643.159982 227.024104 
L 646.218913 233.818756 
L 649.277844 241.613049 
L 652.336775 249.757491 
L 655.395706 257.574329 
L 658.454637 264.411367 
L 661.513568 269.693822 
L 664.572499 272.970185 
L 667.63143 273.948538 
L 670.690361 272.520465 
L 673.749292 268.770707 
L 676.808223 262.971729 
L 679.867154 255.563613 
L 682.926085 247.120733 
L 689.043947 229.828371 
L 692.102878 222.370434 
L 695.161809 216.55215 
L 698.22074 212.87301 
L 701.279671 211.673559 
L 704.338602 213.107032 
L 707.397533 217.125137 
L 710.456464 223.479171 
L 713.515395 231.736478 
L 716.574326 241.311121 
L 722.692188 261.566967 
L 725.751119 270.733988 
L 728.81005 278.303642 
L 731.868981 283.680115 
L 734.927912 286.421735 
L 737.986843 286.275817 
L 741.045774 283.199678 
L 744.104705 277.366121 
L 747.163636 269.152908 
L 747.163636 269.152908 
" clip-path="url(#p3eeac7f450)" style="fill: none; stroke: #0000ff; stroke-linecap: square"/>
   </g>
   <g id="line2d_23">
    <path d="M 138.436364 219.311126 
L 141.495295 215.987305 
L 147.613157 207.486533 
L 150.672088 204.113125 
L 153.731019 202.52673 
L 156.78995 203.62912 
L 159.848881 208.101786 
L 162.907812 215.745088 
L 165.966743 226.139107 
L 172.084605 251.289777 
L 175.143536 262.168064 
L 178.202467 269.650105 
L 181.261398 274.182846 
L 184.320329 276.718081 
L 187.37926 277.882964 
L 190.438191 277.006085 
L 193.497122 273.091392 
L 196.556053 265.706361 
L 199.614984 256.672566 
L 202.673915 248.375109 
L 205.732846 242.485737 
L 208.791777 237.822782 
L 211.850708 232.491221 
L 214.909639 225.492233 
L 217.96857 219.411802 
L 221.027501 217.73211 
L 224.086432 222.795656 
L 227.145363 232.386189 
L 230.204294 243.147774 
L 233.263225 252.482384 
L 239.381087 269.363026 
L 242.440018 279.292093 
L 248.55788 302.713927 
L 251.616811 311.204073 
L 254.675742 314.1 
L 257.734673 310.242965 
L 260.793604 298.809881 
L 263.852535 280.185615 
L 266.911466 259.586842 
L 269.970397 242.26463 
L 273.029328 228.775795 
L 276.088259 218.503593 
L 279.14719 210.840812 
L 282.206122 205.218375 
L 285.265053 201.076739 
L 288.323984 198.106122 
L 291.382915 196.9958 
L 294.441846 198.684812 
L 297.500777 204.112198 
L 300.559708 213.716409 
L 303.618639 225.933549 
L 306.67757 238.699132 
L 309.736501 250.352812 
L 312.795432 260.850797 
L 315.854363 270.553431 
L 318.913294 279.580987 
L 321.972225 287.093452 
L 325.031156 292.01074 
L 328.090087 293.287651 
L 331.149018 290.018517 
L 334.207949 281.332556 
L 337.26688 267.417355 
L 340.325811 252.69397 
L 343.384742 241.477805 
L 346.443673 233.428174 
L 349.502604 227.040372 
L 352.561535 221.267625 
L 355.620466 216.894902 
L 358.679397 215.165104 
L 361.738328 217.321133 
L 364.797259 223.963508 
L 370.915121 242.188829 
L 373.974052 249.30926 
L 377.032983 255.67458 
L 380.091914 263.235162 
L 386.209776 282.504588 
L 389.268707 288.160538 
L 392.327638 287.676944 
L 395.386569 283.332321 
L 398.4455 278.556661 
L 401.504431 275.294825 
L 404.563362 269.551137 
L 407.622293 255.844791 
L 413.740155 207.356751 
L 416.799086 192.929804 
L 419.858017 188.1 
L 422.916948 189.765775 
L 425.975879 194.825567 
L 429.03481 200.886812 
L 432.093741 208.39294 
L 435.152672 218.496383 
L 438.211603 231.837223 
L 444.329466 262.081543 
L 447.388397 275.366433 
L 450.447328 286.062711 
L 453.506259 293.596966 
L 456.56519 297.683854 
L 459.624121 299.190308 
L 462.683052 299.271329 
L 465.741983 298.355449 
L 468.800914 293.965327 
L 471.859845 282.897152 
L 477.977707 244.957514 
L 481.036638 232.975229 
L 484.095569 227.003749 
L 490.213431 220.701532 
L 493.272362 217.936234 
L 496.331293 216.31262 
L 499.390224 216.665013 
L 502.449155 219.57668 
L 505.508086 224.626659 
L 508.567017 231.142929 
L 511.625948 238.481657 
L 517.74381 253.530343 
L 520.802741 260.251537 
L 523.861672 265.857591 
L 526.920603 269.947781 
L 529.979534 272.239783 
L 533.038465 272.924866 
L 536.097396 272.312699 
L 539.156327 270.400444 
L 542.215258 265.935236 
L 545.274189 257.351706 
L 548.33312 244.165962 
L 551.392051 230.220034 
L 554.450982 219.543482 
L 557.509913 212.590094 
L 560.568844 208.919714 
L 563.627775 208.092183 
L 566.686706 209.882067 
L 569.745637 214.922814 
L 572.804568 224.062593 
L 575.863499 237.633297 
L 581.981361 270.618322 
L 585.040292 285.716691 
L 588.099223 297.862539 
L 591.158154 305.904637 
L 594.217085 309.147729 
L 597.276016 308.720464 
L 600.334947 306.207462 
L 603.393878 302.788648 
L 606.45281 298.025157 
L 609.511741 291.073425 
L 612.570672 281.518339 
L 615.629603 270.658594 
L 618.688534 260.221332 
L 621.747465 251.484466 
L 630.924258 228.973322 
L 633.983189 222.542533 
L 637.04212 219.231815 
L 640.101051 220.408319 
L 643.159982 225.157344 
L 646.218913 231.993723 
L 649.277844 239.693006 
L 652.336775 248.073621 
L 655.395706 257.214713 
L 658.454637 266.821556 
L 661.513568 275.10393 
L 664.572499 279.897743 
L 667.63143 279.588182 
L 670.690361 274.757541 
L 673.749292 266.537395 
L 676.808223 256.096023 
L 679.867154 244.748529 
L 682.926085 233.846723 
L 685.985016 224.510698 
L 689.043947 216.933679 
L 692.102878 211.077172 
L 695.161809 207.023232 
L 698.22074 205.336116 
L 701.279671 206.70063 
L 704.338602 211.566054 
L 707.397533 219.43955 
L 710.456464 229.592753 
L 713.515395 241.306524 
L 722.692188 278.948213 
L 725.751119 289.594738 
L 728.81005 297.49764 
L 731.868981 301.736913 
L 734.927912 302.264351 
L 737.986843 299.249698 
L 741.045774 292.995823 
L 744.104705 284.338095 
L 747.163636 274.245011 
L 747.163636 274.245011 
" clip-path="url(#p3eeac7f450)" style="fill: none; stroke-dasharray: 3.7,1.6; stroke-dashoffset: 0; stroke: #00008b"/>
   </g>
   <g id="patch_9">
    <path d="M 108 320.4 
L 108 181.8 
" style="fill: none; stroke: #000000; stroke-width: 0.8; stroke-linejoin: miter; stroke-linecap: square"/>
   </g>
   <g id="patch_10">
    <path d="M 777.6 320.4 
L 777.6 181.8 
" style="fill: none; stroke: #000000; stroke-width: 0.8; stroke-linejoin: miter; stroke-linecap: square"/>
   </g>
   <g id="patch_11">
    <path d="M 108 320.4 
L 777.6 320.4 
" style="fill: none; stroke: #000000; stroke-width: 0.8; stroke-linejoin: miter; stroke-linecap: square"/>
   </g>
   <g id="patch_12">
    <path d="M 108 181.8 
L 777.6 181.8 
" style="fill: none; stroke: #000000; stroke-width: 0.8; stroke-linejoin: miter; stroke-linecap: square"/>
   </g>
   <g id="legend_2">
    <g id="patch_13">
     <path d="M 650.045139 228.436624 
L 768.5 228.436624 
Q 771.1 228.436624 771.1 225.836624 
L 771.1 190.9 
Q 771.1 188.3 768.5 188.3 
L 650.045139 188.3 
Q 647.445139 188.3 647.445139 190.9 
L 647.445139 225.836624 
Q 647.445139 228.436624 650.045139 228.436624 
z
" style="fill: #ffffff; opacity: 0.8; stroke: #cccccc; stroke-linejoin: miter"/>
    </g>
    <g id="line2d_24">
     <path d="M 652.645139 198.05 
L 665.645139 198.05 
L 678.645139 198.05 
" style="fill: none; stroke: #0000ff; stroke-linecap: square"/>
    </g>
    <g id="text_23">
     <!-- MCMC result -->
     <g transform="translate(689.045139 202.6) scale(0.13 -0.13)">
      <use xlink:href="#CMR17-4d" transform="scale(0.996264)"/>
      <use xlink:href="#CMR17-43" transform="translate(84.686941 0) scale(0.996264)"/>
      <use xlink:href="#CMR17-4d" transform="translate(151.196821 0) scale(0.996264)"/>
      <use xlink:href="#CMR17-43" transform="translate(235.883762 0) scale(0.996264)"/>
      <use xlink:href="#CMR17-72" transform="translate(332.469609 0) scale(0.996264)"/>
      <use xlink:href="#CMR17-65" transform="translate(367.750376 0) scale(0.996264)"/>
      <use xlink:href="#CMR17-73" transform="translate(408.236037 0) scale(0.996264)"/>
      <use xlink:href="#CMR17-75" transform="translate(444.037374 0) scale(0.996264)"/>
      <use xlink:href="#CMR17-6c" transform="translate(494.932744 0) scale(0.996264)"/>
      <use xlink:href="#CMR17-74" transform="translate(519.803803 0) scale(0.996264)"/>
     </g>
    </g>
    <g id="line2d_25">
     <path d="M 652.645139 216.168312 
L 665.645139 216.168312 
L 678.645139 216.168312 
" style="fill: none; stroke-dasharray: 3.7,1.6; stroke-dashoffset: 0; stroke: #00008b"/>
    </g>
    <g id="text_24">
     <!-- Experiment -->
     <g transform="translate(689.045139 220.718312) scale(0.13 -0.13)">
      <use xlink:href="#CMR17-45" transform="scale(0.996264)"/>
      <use xlink:href="#CMR17-78" transform="translate(62.586301 0) scale(0.996264)"/>
      <use xlink:href="#CMR17-70" transform="translate(110.879216 0) scale(0.996264)"/>
      <use xlink:href="#CMR17-65" transform="translate(164.377025 0) scale(0.996264)"/>
      <use xlink:href="#CMR17-72" transform="translate(204.862685 0) scale(0.996264)"/>
      <use xlink:href="#CMR17-69" transform="translate(240.143453 0) scale(0.996264)"/>
      <use xlink:href="#CMR17-6d" transform="translate(265.014512 0) scale(0.996264)"/>
      <use xlink:href="#CMR17-65" transform="translate(341.934101 0) scale(0.996264)"/>
      <use xlink:href="#CMR17-6e" transform="translate(382.419762 0) scale(0.996264)"/>
      <use xlink:href="#CMR17-74" transform="translate(430.712678 0) scale(0.996264)"/>
     </g>
    </g>
   </g>
  </g>
  <g id="text_25">
   <!-- Comparasion of position data and result -->
   <g transform="translate(297.449518 17.99284) scale(0.156 -0.156)">
    <defs>
     <path id="CMR17-6f" d="M 2758 1356 
C 2758 2176 2163 2816 1466 2816 
C 768 2816 173 2176 173 1356 
C 173 551 768 -64 1466 -64 
C 2163 -64 2758 551 2758 1356 
z
M 1466 51 
C 1165 51 909 230 762 480 
C 602 767 582 1126 582 1408 
C 582 1677 595 2010 762 2298 
C 890 2509 1139 2714 1466 2714 
C 1754 2714 1997 2554 2150 2330 
C 2349 2029 2349 1607 2349 1408 
C 2349 1158 2336 775 2163 467 
C 1984 173 1709 51 1466 51 
z
" transform="scale(0.015625)"/>
     <path id="CMR17-61" d="M 2304 1653 
C 2304 2072 2304 2294 2035 2543 
C 1798 2752 1523 2816 1306 2816 
C 800 2816 435 2407 435 1971 
C 435 1728 627 1728 666 1728 
C 749 1728 896 1778 896 1954 
C 896 2112 774 2181 666 2181 
C 640 2181 608 2174 589 2168 
C 723 2592 1069 2714 1293 2714 
C 1613 2714 1965 2429 1965 1885 
L 1965 1600 
C 1587 1600 1133 1549 774 1357 
C 371 1133 256 813 256 570 
C 256 77 832 -64 1171 -64 
C 1523 -64 1850 139 1990 511 
C 2003 233 2182 -18 2464 -18 
C 2598 -18 2938 70 2938 567 
L 2938 920 
L 2822 920 
L 2822 562 
C 2822 178 2650 128 2566 128 
C 2304 128 2304 458 2304 738 
L 2304 1653 
z
M 1965 870 
C 1965 317 1568 38 1216 38 
C 896 38 646 275 646 570 
C 646 761 730 1100 1101 1305 
C 1408 1478 1760 1504 1965 1504 
L 1965 870 
z
" transform="scale(0.015625)"/>
     <path id="CMR17-66" d="M 979 2560 
L 1709 2560 
L 1709 2725 
L 966 2725 
L 966 3494 
C 966 4022 1235 4352 1510 4352 
C 1594 4352 1690 4327 1754 4282 
C 1702 4269 1568 4225 1568 4067 
C 1568 3901 1696 3850 1786 3850 
C 1875 3850 2003 3901 2003 4067 
C 2003 4308 1773 4454 1517 4454 
C 1152 4454 653 4156 653 3481 
L 653 2725 
L 141 2725 
L 141 2560 
L 653 2560 
L 653 427 
C 653 184 627 153 218 153 
L 218 -13 
C 371 0 666 0 832 0 
C 1018 0 1344 0 1517 -13 
L 1517 153 
C 1056 153 979 153 979 439 
L 979 2560 
z
" transform="scale(0.015625)"/>
     <path id="CMR17-64" d="M 1869 4326 
L 1869 4160 
C 2246 4160 2304 4122 2304 3820 
L 2304 2345 
C 2278 2377 2016 2790 1498 2790 
C 845 2790 211 2208 211 1364 
C 211 525 806 -64 1434 -64 
C 1978 -64 2259 337 2291 380 
L 2291 -63 
L 3066 -63 
L 3066 128 
C 2688 128 2630 166 2630 473 
L 2630 4396 
L 1869 4326 
z
M 2291 755 
C 2291 563 2176 390 2029 262 
C 1811 70 1594 38 1472 38 
C 1286 38 621 134 621 1356 
C 621 2612 1363 2688 1530 2688 
C 1824 2688 2061 2522 2208 2291 
C 2291 2157 2291 2138 2291 2023 
L 2291 755 
z
" transform="scale(0.015625)"/>
    </defs>
    <use xlink:href="#CMR17-43" transform="scale(0.996264)"/>
    <use xlink:href="#CMR17-6f" transform="translate(66.509881 0) scale(0.996264)"/>
    <use xlink:href="#CMR17-6d" transform="translate(112.200358 0) scale(0.996264)"/>
    <use xlink:href="#CMR17-70" transform="translate(189.119948 0) scale(0.996264)"/>
    <use xlink:href="#CMR17-61" transform="translate(240.015317 0) scale(0.996264)"/>
    <use xlink:href="#CMR17-72" transform="translate(285.705794 0) scale(0.996264)"/>
    <use xlink:href="#CMR17-61" transform="translate(320.986562 0) scale(0.996264)"/>
    <use xlink:href="#CMR17-73" transform="translate(366.677039 0) scale(0.996264)"/>
    <use xlink:href="#CMR17-69" transform="translate(402.478377 0) scale(0.996264)"/>
    <use xlink:href="#CMR17-6f" transform="translate(427.349435 0) scale(0.996264)"/>
    <use xlink:href="#CMR17-6e" transform="translate(473.039913 0) scale(0.996264)"/>
    <use xlink:href="#CMR17-6f" transform="translate(554.011249 0) scale(0.996264)"/>
    <use xlink:href="#CMR17-66" transform="translate(599.701726 0) scale(0.996264)"/>
    <use xlink:href="#CMR17-70" transform="translate(657.251205 0) scale(0.996264)"/>
    <use xlink:href="#CMR17-6f" transform="translate(710.749013 0) scale(0.996264)"/>
    <use xlink:href="#CMR17-73" transform="translate(756.43949 0) scale(0.996264)"/>
    <use xlink:href="#CMR17-69" transform="translate(792.240828 0) scale(0.996264)"/>
    <use xlink:href="#CMR17-74" transform="translate(817.111886 0) scale(0.996264)"/>
    <use xlink:href="#CMR17-69" transform="translate(852.392654 0) scale(0.996264)"/>
    <use xlink:href="#CMR17-6f" transform="translate(877.263713 0) scale(0.996264)"/>
    <use xlink:href="#CMR17-6e" transform="translate(922.95419 0) scale(0.996264)"/>
    <use xlink:href="#CMR17-64" transform="translate(1003.925526 0) scale(0.996264)"/>
    <use xlink:href="#CMR17-61" transform="translate(1054.820896 0) scale(0.996264)"/>
    <use xlink:href="#CMR17-74" transform="translate(1100.511373 0) scale(0.996264)"/>
    <use xlink:href="#CMR17-61" transform="translate(1135.792141 0) scale(0.996264)"/>
    <use xlink:href="#CMR17-61" transform="translate(1211.558584 0) scale(0.996264)"/>
    <use xlink:href="#CMR17-6e" transform="translate(1257.249061 0) scale(0.996264)"/>
    <use xlink:href="#CMR17-64" transform="translate(1308.144431 0) scale(0.996264)"/>
    <use xlink:href="#CMR17-72" transform="translate(1389.115767 0) scale(0.996264)"/>
    <use xlink:href="#CMR17-65" transform="translate(1424.396535 0) scale(0.996264)"/>
    <use xlink:href="#CMR17-73" transform="translate(1464.882195 0) scale(0.996264)"/>
    <use xlink:href="#CMR17-75" transform="translate(1500.683533 0) scale(0.996264)"/>
    <use xlink:href="#CMR17-6c" transform="translate(1551.578903 0) scale(0.996264)"/>
    <use xlink:href="#CMR17-74" transform="translate(1576.449961 0) scale(0.996264)"/>
   </g>
  </g>
 </g>
 <defs>
  <clipPath id="pfa363f8bea">
   <rect x="108" y="43.2" width="669.6" height="138.6"/>
  </clipPath>
  <clipPath id="p3eeac7f450">
   <rect x="108" y="181.8" width="669.6" height="138.6"/>
  </clipPath>
 </defs>
</svg>
