<?xml version="1.0" encoding="utf-8" standalone="no"?>
<!DOCTYPE svg PUBLIC "-//W3C//DTD SVG 1.1//EN"
  "http://www.w3.org/Graphics/SVG/1.1/DTD/svg11.dtd">
<svg xmlns:xlink="http://www.w3.org/1999/xlink" width="576pt" height="216pt" viewBox="0 0 576 216" xmlns="http://www.w3.org/2000/svg" version="1.1">
 <metadata>
  <rdf:RDF xmlns:dc="http://purl.org/dc/elements/1.1/" xmlns:cc="http://creativecommons.org/ns#" xmlns:rdf="http://www.w3.org/1999/02/22-rdf-syntax-ns#">
   <cc:Work>
    <dc:type rdf:resource="http://purl.org/dc/dcmitype/StillImage"/>
    <dc:date>2023-06-13T11:47:13.483337</dc:date>
    <dc:format>image/svg+xml</dc:format>
    <dc:creator>
     <cc:Agent>
      <dc:title>Matplotlib v3.5.3, https://matplotlib.org/</dc:title>
     </cc:Agent>
    </dc:creator>
   </cc:Work>
  </rdf:RDF>
 </metadata>
 <defs>
  <style type="text/css">*{stroke-linejoin: round; stroke-linecap: butt}</style>
 </defs>
 <g id="figure_1">
  <g id="patch_1">
   <path d="M 0 216 
L 576 216 
L 576 0 
L 0 0 
L 0 216 
z
" style="fill: none"/>
  </g>
  <g id="axes_1">
   <g id="patch_2">
    <path d="M 37.244112 166.028575 
L 558.870955 166.028575 
L 558.870955 14.04 
L 37.244112 14.04 
z
" style="fill: #ffffff"/>
   </g>
   <g id="patch_3">
    <path d="M 121.945249 166.028575 
L 128.832172 166.028575 
L 128.832172 166.001734 
L 121.945249 166.001734 
z
" clip-path="url(#p39e347253d)" style="fill: #800000; opacity: 0.3"/>
   </g>
   <g id="patch_4">
    <path d="M 128.832172 166.028575 
L 135.719095 166.028575 
L 135.719095 166.004987 
L 128.832172 166.004987 
z
" clip-path="url(#p39e347253d)" style="fill: #800000; opacity: 0.3"/>
   </g>
   <g id="patch_5">
    <path d="M 135.719095 166.028575 
L 142.606018 166.028575 
L 142.606018 165.910636 
L 135.719095 165.910636 
z
" clip-path="url(#p39e347253d)" style="fill: #800000; opacity: 0.3"/>
   </g>
   <g id="patch_6">
    <path d="M 142.606018 166.028575 
L 149.492942 166.028575 
L 149.492942 164.909375 
L 142.606018 164.909375 
z
" clip-path="url(#p39e347253d)" style="fill: #800000; opacity: 0.3"/>
   </g>
   <g id="patch_7">
    <path d="M 149.492942 166.028575 
L 156.379865 166.028575 
L 156.379865 165.579594 
L 149.492942 165.579594 
z
" clip-path="url(#p39e347253d)" style="fill: #800000; opacity: 0.3"/>
   </g>
   <g id="patch_8">
    <path d="M 156.379865 166.028575 
L 163.266788 166.028575 
L 163.266788 164.865453 
L 156.379865 164.865453 
z
" clip-path="url(#p39e347253d)" style="fill: #800000; opacity: 0.3"/>
   </g>
   <g id="patch_9">
    <path d="M 163.266788 166.028575 
L 170.153711 166.028575 
L 170.153711 165.69916 
L 163.266788 165.69916 
z
" clip-path="url(#p39e347253d)" style="fill: #800000; opacity: 0.3"/>
   </g>
   <g id="patch_10">
    <path d="M 170.153711 166.028575 
L 177.040635 166.028575 
L 177.040635 165.984653 
L 170.153711 165.984653 
z
" clip-path="url(#p39e347253d)" style="fill: #800000; opacity: 0.3"/>
   </g>
   <g id="patch_11">
    <path d="M 177.040635 166.028575 
L 183.927558 166.028575 
L 183.927558 165.950492 
L 177.040635 165.950492 
z
" clip-path="url(#p39e347253d)" style="fill: #800000; opacity: 0.3"/>
   </g>
   <g id="patch_12">
    <path d="M 183.927558 166.028575 
L 190.814481 166.028575 
L 190.814481 166.000107 
L 183.927558 166.000107 
z
" clip-path="url(#p39e347253d)" style="fill: #800000; opacity: 0.3"/>
   </g>
   <g id="patch_13">
    <path d="M 190.814481 166.028575 
L 197.701404 166.028575 
L 197.701404 165.969199 
L 190.814481 165.969199 
z
" clip-path="url(#p39e347253d)" style="fill: #800000; opacity: 0.3"/>
   </g>
   <g id="patch_14">
    <path d="M 197.701404 166.028575 
L 204.588328 166.028575 
L 204.588328 165.904129 
L 197.701404 165.904129 
z
" clip-path="url(#p39e347253d)" style="fill: #800000; opacity: 0.3"/>
   </g>
   <g id="patch_15">
    <path d="M 204.588328 166.028575 
L 211.475251 166.028575 
L 211.475251 165.935037 
L 204.588328 165.935037 
z
" clip-path="url(#p39e347253d)" style="fill: #800000; opacity: 0.3"/>
   </g>
   <g id="patch_16">
    <path d="M 211.475251 166.028575 
L 218.362174 166.028575 
L 218.362174 165.886235 
L 211.475251 165.886235 
z
" clip-path="url(#p39e347253d)" style="fill: #800000; opacity: 0.3"/>
   </g>
   <g id="patch_17">
    <path d="M 218.362174 166.028575 
L 225.249097 166.028575 
L 225.249097 165.879728 
L 218.362174 165.879728 
z
" clip-path="url(#p39e347253d)" style="fill: #800000; opacity: 0.3"/>
   </g>
   <g id="patch_18">
    <path d="M 225.249097 166.028575 
L 232.136021 166.028575 
L 232.136021 165.281086 
L 225.249097 165.281086 
z
" clip-path="url(#p39e347253d)" style="fill: #800000; opacity: 0.3"/>
   </g>
   <g id="patch_19">
    <path d="M 232.136021 166.028575 
L 239.022944 166.028575 
L 239.022944 165.821979 
L 232.136021 165.821979 
z
" clip-path="url(#p39e347253d)" style="fill: #800000; opacity: 0.3"/>
   </g>
   <g id="patch_20">
    <path d="M 239.022944 166.028575 
L 245.909867 166.028575 
L 245.909867 165.904129 
L 239.022944 165.904129 
z
" clip-path="url(#p39e347253d)" style="fill: #800000; opacity: 0.3"/>
   </g>
   <g id="patch_21">
    <path d="M 245.909867 166.028575 
L 252.79679 166.028575 
L 252.79679 165.857767 
L 245.909867 165.857767 
z
" clip-path="url(#p39e347253d)" style="fill: #800000; opacity: 0.3"/>
   </g>
   <g id="patch_22">
    <path d="M 252.79679 166.028575 
L 259.683714 166.028575 
L 259.683714 165.621076 
L 252.79679 165.621076 
z
" clip-path="url(#p39e347253d)" style="fill: #800000; opacity: 0.3"/>
   </g>
   <g id="patch_23">
    <path d="M 259.683714 166.028575 
L 266.570637 166.028575 
L 266.570637 165.671505 
L 259.683714 165.671505 
z
" clip-path="url(#p39e347253d)" style="fill: #800000; opacity: 0.3"/>
   </g>
   <g id="patch_24">
    <path d="M 266.570637 166.028575 
L 273.45756 166.028575 
L 273.45756 165.982213 
L 266.570637 165.982213 
z
" clip-path="url(#p39e347253d)" style="fill: #800000; opacity: 0.3"/>
   </g>
   <g id="patch_25">
    <path d="M 273.45756 166.028575 
L 280.344483 166.028575 
L 280.344483 165.954558 
L 273.45756 165.954558 
z
" clip-path="url(#p39e347253d)" style="fill: #800000; opacity: 0.3"/>
   </g>
   <g id="patch_26">
    <path d="M 280.344483 166.028575 
L 287.231407 166.028575 
L 287.231407 165.904129 
L 280.344483 165.904129 
z
" clip-path="url(#p39e347253d)" style="fill: #800000; opacity: 0.3"/>
   </g>
   <g id="patch_27">
    <path d="M 287.231407 166.028575 
L 294.11833 166.028575 
L 294.11833 165.751215 
L 287.231407 165.751215 
z
" clip-path="url(#p39e347253d)" style="fill: #800000; opacity: 0.3"/>
   </g>
   <g id="patch_28">
    <path d="M 294.11833 166.028575 
L 301.005253 166.028575 
L 301.005253 165.680452 
L 294.11833 165.680452 
z
" clip-path="url(#p39e347253d)" style="fill: #800000; opacity: 0.3"/>
   </g>
   <g id="patch_29">
    <path d="M 301.005253 166.028575 
L 307.892177 166.028575 
L 307.892177 165.91389 
L 301.005253 165.91389 
z
" clip-path="url(#p39e347253d)" style="fill: #800000; opacity: 0.3"/>
   </g>
   <g id="patch_30">
    <path d="M 307.892177 166.028575 
L 314.7791 166.028575 
L 314.7791 165.907383 
L 307.892177 165.907383 
z
" clip-path="url(#p39e347253d)" style="fill: #800000; opacity: 0.3"/>
   </g>
   <g id="patch_31">
    <path d="M 314.7791 166.028575 
L 321.666023 166.028575 
L 321.666023 165.966759 
L 314.7791 165.966759 
z
" clip-path="url(#p39e347253d)" style="fill: #800000; opacity: 0.3"/>
   </g>
   <g id="patch_32">
    <path d="M 321.666023 166.028575 
L 328.552946 166.028575 
L 328.552946 165.490123 
L 321.666023 165.490123 
z
" clip-path="url(#p39e347253d)" style="fill: #800000; opacity: 0.3"/>
   </g>
   <g id="patch_33">
    <path d="M 328.552946 166.028575 
L 335.43987 166.028575 
L 335.43987 165.974079 
L 328.552946 165.974079 
z
" clip-path="url(#p39e347253d)" style="fill: #800000; opacity: 0.3"/>
   </g>
   <g id="patch_34">
    <path d="M 335.43987 166.028575 
L 342.326793 166.028575 
L 342.326793 165.912263 
L 335.43987 165.912263 
z
" clip-path="url(#p39e347253d)" style="fill: #800000; opacity: 0.3"/>
   </g>
   <g id="patch_35">
    <path d="M 342.326793 166.028575 
L 349.213716 166.028575 
L 349.213716 165.672318 
L 342.326793 165.672318 
z
" clip-path="url(#p39e347253d)" style="fill: #800000; opacity: 0.3"/>
   </g>
   <g id="patch_36">
    <path d="M 349.213716 166.028575 
L 356.100639 166.028575 
L 356.100639 165.202189 
L 349.213716 165.202189 
z
" clip-path="url(#p39e347253d)" style="fill: #800000; opacity: 0.3"/>
   </g>
   <g id="patch_37">
    <path d="M 356.100639 166.028575 
L 362.987563 166.028575 
L 362.987563 165.859394 
L 356.100639 165.859394 
z
" clip-path="url(#p39e347253d)" style="fill: #800000; opacity: 0.3"/>
   </g>
   <g id="patch_38">
    <path d="M 362.987563 166.028575 
L 369.874486 166.028575 
L 369.874486 165.812218 
L 362.987563 165.812218 
z
" clip-path="url(#p39e347253d)" style="fill: #800000; opacity: 0.3"/>
   </g>
   <g id="patch_39">
    <path d="M 369.874486 166.028575 
L 376.761409 166.028575 
L 376.761409 165.969199 
L 369.874486 165.969199 
z
" clip-path="url(#p39e347253d)" style="fill: #800000; opacity: 0.3"/>
   </g>
   <g id="patch_40">
    <path d="M 376.761409 166.028575 
L 383.648332 166.028575 
L 383.648332 166.001734 
L 376.761409 166.001734 
z
" clip-path="url(#p39e347253d)" style="fill: #800000; opacity: 0.3"/>
   </g>
   <g id="patch_41">
    <path d="M 383.648332 166.028575 
L 390.535256 166.028575 
L 390.535256 166.015561 
L 383.648332 166.015561 
z
" clip-path="url(#p39e347253d)" style="fill: #800000; opacity: 0.3"/>
   </g>
   <g id="patch_42">
    <path d="M 390.535256 166.028575 
L 397.422179 166.028575 
L 397.422179 165.968386 
L 390.535256 165.968386 
z
" clip-path="url(#p39e347253d)" style="fill: #800000; opacity: 0.3"/>
   </g>
   <g id="patch_43">
    <path d="M 397.422179 166.028575 
L 404.309102 166.028575 
L 404.309102 165.871594 
L 397.422179 165.871594 
z
" clip-path="url(#p39e347253d)" style="fill: #800000; opacity: 0.3"/>
   </g>
   <g id="patch_44">
    <path d="M 404.309102 166.028575 
L 411.196025 166.028575 
L 411.196025 165.886235 
L 404.309102 165.886235 
z
" clip-path="url(#p39e347253d)" style="fill: #800000; opacity: 0.3"/>
   </g>
   <g id="patch_45">
    <path d="M 411.196025 166.028575 
L 418.082949 166.028575 
L 418.082949 165.84638 
L 411.196025 165.84638 
z
" clip-path="url(#p39e347253d)" style="fill: #800000; opacity: 0.3"/>
   </g>
   <g id="patch_46">
    <path d="M 418.082949 166.028575 
L 424.969872 166.028575 
L 424.969872 165.748775 
L 418.082949 165.748775 
z
" clip-path="url(#p39e347253d)" style="fill: #800000; opacity: 0.3"/>
   </g>
   <g id="patch_47">
    <path d="M 424.969872 166.028575 
L 431.856795 166.028575 
L 431.856795 166.003361 
L 424.969872 166.003361 
z
" clip-path="url(#p39e347253d)" style="fill: #800000; opacity: 0.3"/>
   </g>
   <g id="patch_48">
    <path d="M 431.856795 166.028575 
L 438.743718 166.028575 
L 438.743718 166.004987 
L 431.856795 166.004987 
z
" clip-path="url(#p39e347253d)" style="fill: #800000; opacity: 0.3"/>
   </g>
   <g id="patch_49">
    <path d="M 438.743718 166.028575 
L 445.630642 166.028575 
L 445.630642 99.967312 
L 438.743718 99.967312 
z
" clip-path="url(#p39e347253d)" style="fill: #800000; opacity: 0.3"/>
   </g>
   <g id="patch_50">
    <path d="M 445.630642 166.028575 
L 452.517565 166.028575 
L 452.517565 163.11345 
L 445.630642 163.11345 
z
" clip-path="url(#p39e347253d)" style="fill: #800000; opacity: 0.3"/>
   </g>
   <g id="patch_51">
    <path d="M 452.517565 166.028575 
L 459.404488 166.028575 
L 459.404488 165.814658 
L 452.517565 165.814658 
z
" clip-path="url(#p39e347253d)" style="fill: #800000; opacity: 0.3"/>
   </g>
   <g id="patch_52">
    <path d="M 459.404488 166.028575 
L 466.291411 166.028575 
L 466.291411 165.915517 
L 459.404488 165.915517 
z
" clip-path="url(#p39e347253d)" style="fill: #800000; opacity: 0.3"/>
   </g>
   <g id="patch_53">
    <path d="M 466.291411 166.028575 
L 473.178335 166.028575 
L 473.178335 165.966759 
L 466.291411 165.966759 
z
" clip-path="url(#p39e347253d)" style="fill: #800000; opacity: 0.3"/>
   </g>
   <g id="patch_54">
    <path d="M 473.178335 166.028575 
L 480.065258 166.028575 
L 480.065258 165.843126 
L 473.178335 165.843126 
z
" clip-path="url(#p39e347253d)" style="fill: #800000; opacity: 0.3"/>
   </g>
   <g id="patch_55">
    <path d="M 480.065258 166.028575 
L 486.952181 166.028575 
L 486.952181 165.982213 
L 480.065258 165.982213 
z
" clip-path="url(#p39e347253d)" style="fill: #800000; opacity: 0.3"/>
   </g>
   <g id="patch_56">
    <path d="M 486.952181 166.028575 
L 493.839104 166.028575 
L 493.839104 165.877288 
L 486.952181 165.877288 
z
" clip-path="url(#p39e347253d)" style="fill: #800000; opacity: 0.3"/>
   </g>
   <g id="patch_57">
    <path d="M 493.839104 166.028575 
L 500.726028 166.028575 
L 500.726028 165.948865 
L 493.839104 165.948865 
z
" clip-path="url(#p39e347253d)" style="fill: #800000; opacity: 0.3"/>
   </g>
   <g id="patch_58">
    <path d="M 500.726028 166.028575 
L 507.612951 166.028575 
L 507.612951 165.865901 
L 500.726028 165.865901 
z
" clip-path="url(#p39e347253d)" style="fill: #800000; opacity: 0.3"/>
   </g>
   <g id="patch_59">
    <path d="M 507.612951 166.028575 
L 514.499874 166.028575 
L 514.499874 165.700786 
L 507.612951 165.700786 
z
" clip-path="url(#p39e347253d)" style="fill: #800000; opacity: 0.3"/>
   </g>
   <g id="patch_60">
    <path d="M 514.499874 166.028575 
L 521.386797 166.028575 
L 521.386797 165.886235 
L 514.499874 165.886235 
z
" clip-path="url(#p39e347253d)" style="fill: #800000; opacity: 0.3"/>
   </g>
   <g id="patch_61">
    <path d="M 521.386797 166.028575 
L 528.273721 166.028575 
L 528.273721 165.967572 
L 521.386797 165.967572 
z
" clip-path="url(#p39e347253d)" style="fill: #800000; opacity: 0.3"/>
   </g>
   <g id="patch_62">
    <path d="M 528.273721 166.028575 
L 535.160644 166.028575 
L 535.160644 165.590168 
L 528.273721 165.590168 
z
" clip-path="url(#p39e347253d)" style="fill: #800000; opacity: 0.3"/>
   </g>
   <g id="patch_63">
    <path d="M 60.954423 166.028575 
L 64.182681 166.028575 
L 64.182681 166.025105 
L 60.954423 166.025105 
z
" clip-path="url(#p39e347253d)" style="fill: #00008b; opacity: 0.3"/>
   </g>
   <g id="patch_64">
    <path d="M 64.182681 166.028575 
L 67.410939 166.028575 
L 67.410939 166.012959 
L 64.182681 166.012959 
z
" clip-path="url(#p39e347253d)" style="fill: #00008b; opacity: 0.3"/>
   </g>
   <g id="patch_65">
    <path d="M 67.410939 166.028575 
L 70.639197 166.028575 
L 70.639197 165.927934 
L 67.410939 165.927934 
z
" clip-path="url(#p39e347253d)" style="fill: #00008b; opacity: 0.3"/>
   </g>
   <g id="patch_66">
    <path d="M 70.639197 166.028575 
L 73.867455 166.028575 
L 73.867455 165.964373 
L 70.639197 165.964373 
z
" clip-path="url(#p39e347253d)" style="fill: #00008b; opacity: 0.3"/>
   </g>
   <g id="patch_67">
    <path d="M 73.867455 166.028575 
L 77.095713 166.028575 
L 77.095713 165.97652 
L 73.867455 165.97652 
z
" clip-path="url(#p39e347253d)" style="fill: #00008b; opacity: 0.3"/>
   </g>
   <g id="patch_68">
    <path d="M 77.095713 166.028575 
L 80.323971 166.028575 
L 80.323971 165.962638 
L 77.095713 165.962638 
z
" clip-path="url(#p39e347253d)" style="fill: #00008b; opacity: 0.3"/>
   </g>
   <g id="patch_69">
    <path d="M 80.323971 166.028575 
L 83.552228 166.028575 
L 83.552228 165.931405 
L 80.323971 165.931405 
z
" clip-path="url(#p39e347253d)" style="fill: #00008b; opacity: 0.3"/>
   </g>
   <g id="patch_70">
    <path d="M 83.552228 166.028575 
L 86.780486 166.028575 
L 86.780486 164.794857 
L 83.552228 164.794857 
z
" clip-path="url(#p39e347253d)" style="fill: #00008b; opacity: 0.3"/>
   </g>
   <g id="patch_71">
    <path d="M 86.780486 166.028575 
L 90.008744 166.028575 
L 90.008744 165.298062 
L 86.780486 165.298062 
z
" clip-path="url(#p39e347253d)" style="fill: #00008b; opacity: 0.3"/>
   </g>
   <g id="patch_72">
    <path d="M 90.008744 166.028575 
L 93.237002 166.028575 
L 93.237002 165.851586 
L 90.008744 165.851586 
z
" clip-path="url(#p39e347253d)" style="fill: #00008b; opacity: 0.3"/>
   </g>
   <g id="patch_73">
    <path d="M 93.237002 166.028575 
L 96.46526 166.028575 
L 96.46526 165.731858 
L 93.237002 165.731858 
z
" clip-path="url(#p39e347253d)" style="fill: #00008b; opacity: 0.3"/>
   </g>
   <g id="patch_74">
    <path d="M 96.46526 166.028575 
L 99.693518 166.028575 
L 99.693518 165.88976 
L 96.46526 165.88976 
z
" clip-path="url(#p39e347253d)" style="fill: #00008b; opacity: 0.3"/>
   </g>
   <g id="patch_75">
    <path d="M 99.693518 166.028575 
L 102.921776 166.028575 
L 102.921776 164.890293 
L 99.693518 164.890293 
z
" clip-path="url(#p39e347253d)" style="fill: #00008b; opacity: 0.3"/>
   </g>
   <g id="patch_76">
    <path d="M 102.921776 166.028575 
L 106.150034 166.028575 
L 106.150034 165.572221 
L 102.921776 165.572221 
z
" clip-path="url(#p39e347253d)" style="fill: #00008b; opacity: 0.3"/>
   </g>
   <g id="patch_77">
    <path d="M 106.150034 166.028575 
L 109.378292 166.028575 
L 109.378292 164.765359 
L 106.150034 164.765359 
z
" clip-path="url(#p39e347253d)" style="fill: #00008b; opacity: 0.3"/>
   </g>
   <g id="patch_78">
    <path d="M 109.378292 166.028575 
L 112.60655 166.028575 
L 112.60655 165.65898 
L 109.378292 165.65898 
z
" clip-path="url(#p39e347253d)" style="fill: #00008b; opacity: 0.3"/>
   </g>
   <g id="patch_79">
    <path d="M 112.60655 166.028575 
L 115.834808 166.028575 
L 115.834808 165.398702 
L 112.60655 165.398702 
z
" clip-path="url(#p39e347253d)" style="fill: #00008b; opacity: 0.3"/>
   </g>
   <g id="patch_80">
    <path d="M 115.834808 166.028575 
L 119.063066 166.028575 
L 119.063066 163.28698 
L 115.834808 163.28698 
z
" clip-path="url(#p39e347253d)" style="fill: #00008b; opacity: 0.3"/>
   </g>
   <g id="patch_81">
    <path d="M 119.063066 166.028575 
L 122.291324 166.028575 
L 122.291324 163.392826 
L 119.063066 163.392826 
z
" clip-path="url(#p39e347253d)" style="fill: #00008b; opacity: 0.3"/>
   </g>
   <g id="patch_82">
    <path d="M 122.291324 166.028575 
L 125.519582 166.028575 
L 125.519582 163.805801 
L 122.291324 163.805801 
z
" clip-path="url(#p39e347253d)" style="fill: #00008b; opacity: 0.3"/>
   </g>
   <g id="patch_83">
    <path d="M 125.519582 166.028575 
L 128.747839 166.028575 
L 128.747839 165.676332 
L 125.519582 165.676332 
z
" clip-path="url(#p39e347253d)" style="fill: #00008b; opacity: 0.3"/>
   </g>
   <g id="patch_84">
    <path d="M 128.747839 166.028575 
L 131.976097 166.028575 
L 131.976097 21.277551 
L 128.747839 21.277551 
z
" clip-path="url(#p39e347253d)" style="fill: #00008b; opacity: 0.3"/>
   </g>
   <g id="patch_85">
    <path d="M 131.976097 166.028575 
L 135.204355 166.028575 
L 135.204355 165.636423 
L 131.976097 165.636423 
z
" clip-path="url(#p39e347253d)" style="fill: #00008b; opacity: 0.3"/>
   </g>
   <g id="patch_86">
    <path d="M 135.204355 166.028575 
L 138.432613 166.028575 
L 138.432613 165.809942 
L 135.204355 165.809942 
z
" clip-path="url(#p39e347253d)" style="fill: #00008b; opacity: 0.3"/>
   </g>
   <g id="patch_87">
    <path d="M 138.432613 166.028575 
L 141.660871 166.028575 
L 141.660871 165.636423 
L 138.432613 165.636423 
z
" clip-path="url(#p39e347253d)" style="fill: #00008b; opacity: 0.3"/>
   </g>
   <g id="patch_88">
    <path d="M 141.660871 166.028575 
L 144.889129 166.028575 
L 144.889129 165.860262 
L 141.660871 165.860262 
z
" clip-path="url(#p39e347253d)" style="fill: #00008b; opacity: 0.3"/>
   </g>
   <g id="patch_89">
    <path d="M 144.889129 166.028575 
L 148.117387 166.028575 
L 148.117387 165.896701 
L 144.889129 165.896701 
z
" clip-path="url(#p39e347253d)" style="fill: #00008b; opacity: 0.3"/>
   </g>
   <g id="patch_90">
    <path d="M 148.117387 166.028575 
L 151.345645 166.028575 
L 151.345645 165.938346 
L 148.117387 165.938346 
z
" clip-path="url(#p39e347253d)" style="fill: #00008b; opacity: 0.3"/>
   </g>
   <g id="patch_91">
    <path d="M 151.345645 166.028575 
L 154.573903 166.028575 
L 154.573903 165.875879 
L 151.345645 165.875879 
z
" clip-path="url(#p39e347253d)" style="fill: #00008b; opacity: 0.3"/>
   </g>
   <g id="patch_92">
    <path d="M 154.573903 166.028575 
L 157.802161 166.028575 
L 157.802161 163.361593 
L 154.573903 163.361593 
z
" clip-path="url(#p39e347253d)" style="fill: #00008b; opacity: 0.3"/>
   </g>
   <g id="patch_93">
    <path d="M 157.802161 166.028575 
L 161.030419 166.028575 
L 161.030419 164.715039 
L 157.802161 164.715039 
z
" clip-path="url(#p39e347253d)" style="fill: #00008b; opacity: 0.3"/>
   </g>
   <g id="patch_94">
    <path d="M 161.030419 166.028575 
L 164.258677 166.028575 
L 164.258677 165.844645 
L 161.030419 165.844645 
z
" clip-path="url(#p39e347253d)" style="fill: #00008b; opacity: 0.3"/>
   </g>
   <g id="patch_95">
    <path d="M 164.258677 166.028575 
L 167.486935 166.028575 
L 167.486935 165.924464 
L 164.258677 165.924464 
z
" clip-path="url(#p39e347253d)" style="fill: #00008b; opacity: 0.3"/>
   </g>
   <g id="patch_96">
    <path d="M 167.486935 166.028575 
L 170.715193 166.028575 
L 170.715193 165.624277 
L 167.486935 165.624277 
z
" clip-path="url(#p39e347253d)" style="fill: #00008b; opacity: 0.3"/>
   </g>
   <g id="patch_97">
    <path d="M 170.715193 166.028575 
L 173.94345 166.028575 
L 173.94345 165.974784 
L 170.715193 165.974784 
z
" clip-path="url(#p39e347253d)" style="fill: #00008b; opacity: 0.3"/>
   </g>
   <g id="patch_98">
    <path d="M 173.94345 166.028575 
L 177.171708 166.028575 
L 177.171708 165.523636 
L 173.94345 165.523636 
z
" clip-path="url(#p39e347253d)" style="fill: #00008b; opacity: 0.3"/>
   </g>
   <g id="patch_99">
    <path d="M 177.171708 166.028575 
L 180.399966 166.028575 
L 180.399966 165.914053 
L 177.171708 165.914053 
z
" clip-path="url(#p39e347253d)" style="fill: #00008b; opacity: 0.3"/>
   </g>
   <g id="patch_100">
    <path d="M 180.399966 166.028575 
L 183.628224 166.028575 
L 183.628224 165.97652 
L 180.399966 165.97652 
z
" clip-path="url(#p39e347253d)" style="fill: #00008b; opacity: 0.3"/>
   </g>
   <g id="patch_101">
    <path d="M 183.628224 166.028575 
L 186.856482 166.028575 
L 186.856482 166.018164 
L 183.628224 166.018164 
z
" clip-path="url(#p39e347253d)" style="fill: #00008b; opacity: 0.3"/>
   </g>
   <g id="patch_102">
    <path d="M 186.856482 166.028575 
L 190.08474 166.028575 
L 190.08474 165.532312 
L 186.856482 165.532312 
z
" clip-path="url(#p39e347253d)" style="fill: #00008b; opacity: 0.3"/>
   </g>
   <g id="patch_103">
    <path d="M 190.08474 166.028575 
L 193.312998 166.028575 
L 193.312998 165.966109 
L 190.08474 165.966109 
z
" clip-path="url(#p39e347253d)" style="fill: #00008b; opacity: 0.3"/>
   </g>
   <g id="patch_104">
    <path d="M 193.312998 166.028575 
L 196.541256 166.028575 
L 196.541256 165.789119 
L 193.312998 165.789119 
z
" clip-path="url(#p39e347253d)" style="fill: #00008b; opacity: 0.3"/>
   </g>
   <g id="patch_105">
    <path d="M 196.541256 166.028575 
L 199.769514 166.028575 
L 199.769514 165.820353 
L 196.541256 165.820353 
z
" clip-path="url(#p39e347253d)" style="fill: #00008b; opacity: 0.3"/>
   </g>
   <g id="patch_106">
    <path d="M 199.769514 166.028575 
L 202.997772 166.028575 
L 202.997772 165.469845 
L 199.769514 165.469845 
z
" clip-path="url(#p39e347253d)" style="fill: #00008b; opacity: 0.3"/>
   </g>
   <g id="patch_107">
    <path d="M 202.997772 166.028575 
L 206.22603 166.028575 
L 206.22603 165.804736 
L 202.997772 165.804736 
z
" clip-path="url(#p39e347253d)" style="fill: #00008b; opacity: 0.3"/>
   </g>
   <g id="patch_108">
    <path d="M 206.22603 166.028575 
L 209.454288 166.028575 
L 209.454288 165.868938 
L 206.22603 165.868938 
z
" clip-path="url(#p39e347253d)" style="fill: #00008b; opacity: 0.3"/>
   </g>
   <g id="patch_109">
    <path d="M 209.454288 166.028575 
L 212.682546 166.028575 
L 212.682546 165.685008 
L 209.454288 165.685008 
z
" clip-path="url(#p39e347253d)" style="fill: #00008b; opacity: 0.3"/>
   </g>
   <g id="patch_110">
    <path d="M 212.682546 166.028575 
L 215.910804 166.028575 
L 215.910804 165.735329 
L 212.682546 165.735329 
z
" clip-path="url(#p39e347253d)" style="fill: #00008b; opacity: 0.3"/>
   </g>
   <g id="patch_111">
    <path d="M 215.910804 166.028575 
L 219.139061 166.028575 
L 219.139061 165.624277 
L 215.910804 165.624277 
z
" clip-path="url(#p39e347253d)" style="fill: #00008b; opacity: 0.3"/>
   </g>
   <g id="patch_112">
    <path d="M 219.139061 166.028575 
L 222.367319 166.028575 
L 222.367319 165.962638 
L 219.139061 165.962638 
z
" clip-path="url(#p39e347253d)" style="fill: #00008b; opacity: 0.3"/>
   </g>
   <g id="patch_113">
    <path d="M 222.367319 166.028575 
L 225.595577 166.028575 
L 225.595577 165.570486 
L 222.367319 165.570486 
z
" clip-path="url(#p39e347253d)" style="fill: #00008b; opacity: 0.3"/>
   </g>
   <g id="patch_114">
    <path d="M 225.595577 166.028575 
L 228.823835 166.028575 
L 228.823835 165.724918 
L 225.595577 165.724918 
z
" clip-path="url(#p39e347253d)" style="fill: #00008b; opacity: 0.3"/>
   </g>
   <g id="patch_115">
    <path d="M 228.823835 166.028575 
L 232.052093 166.028575 
L 232.052093 165.197421 
L 228.823835 165.197421 
z
" clip-path="url(#p39e347253d)" style="fill: #00008b; opacity: 0.3"/>
   </g>
   <g id="patch_116">
    <path d="M 232.052093 166.028575 
L 235.280351 166.028575 
L 235.280351 164.963171 
L 232.052093 164.963171 
z
" clip-path="url(#p39e347253d)" style="fill: #00008b; opacity: 0.3"/>
   </g>
   <g id="patch_117">
    <path d="M 235.280351 166.028575 
L 238.508609 166.028575 
L 238.508609 165.888025 
L 235.280351 165.888025 
z
" clip-path="url(#p39e347253d)" style="fill: #00008b; opacity: 0.3"/>
   </g>
   <g id="patch_118">
    <path d="M 238.508609 166.028575 
L 241.736867 166.028575 
L 241.736867 165.941816 
L 238.508609 165.941816 
z
" clip-path="url(#p39e347253d)" style="fill: #00008b; opacity: 0.3"/>
   </g>
   <g id="patch_119">
    <path d="M 241.736867 166.028575 
L 244.965125 166.028575 
L 244.965125 165.920994 
L 241.736867 165.920994 
z
" clip-path="url(#p39e347253d)" style="fill: #00008b; opacity: 0.3"/>
   </g>
   <g id="patch_120">
    <path d="M 244.965125 166.028575 
L 248.193383 166.028575 
L 248.193383 165.717977 
L 244.965125 165.717977 
z
" clip-path="url(#p39e347253d)" style="fill: #00008b; opacity: 0.3"/>
   </g>
   <g id="patch_121">
    <path d="M 248.193383 166.028575 
L 251.421641 166.028575 
L 251.421641 165.523636 
L 248.193383 165.523636 
z
" clip-path="url(#p39e347253d)" style="fill: #00008b; opacity: 0.3"/>
   </g>
   <g id="patch_122">
    <path d="M 251.421641 166.028575 
L 254.649899 166.028575 
L 254.649899 165.865468 
L 251.421641 165.865468 
z
" clip-path="url(#p39e347253d)" style="fill: #00008b; opacity: 0.3"/>
   </g>
   <g id="patch_123">
    <path d="M 69.899798 166.028575 
L 73.097037 166.028575 
L 73.097037 166.019815 
L 69.899798 166.019815 
z
" clip-path="url(#p39e347253d)" style="fill: #006400; opacity: 0.3"/>
   </g>
   <g id="patch_124">
    <path d="M 73.097037 166.028575 
L 76.294275 166.028575 
L 76.294275 166.019815 
L 73.097037 166.019815 
z
" clip-path="url(#p39e347253d)" style="fill: #006400; opacity: 0.3"/>
   </g>
   <g id="patch_125">
    <path d="M 76.294275 166.028575 
L 79.491513 166.028575 
L 79.491513 165.953238 
L 76.294275 165.953238 
z
" clip-path="url(#p39e347253d)" style="fill: #006400; opacity: 0.3"/>
   </g>
   <g id="patch_126">
    <path d="M 79.491513 166.028575 
L 82.688751 166.028575 
L 82.688751 166.021567 
L 79.491513 166.021567 
z
" clip-path="url(#p39e347253d)" style="fill: #006400; opacity: 0.3"/>
   </g>
   <g id="patch_127">
    <path d="M 82.688751 166.028575 
L 85.885989 166.028575 
L 85.885989 165.96375 
L 82.688751 165.96375 
z
" clip-path="url(#p39e347253d)" style="fill: #006400; opacity: 0.3"/>
   </g>
   <g id="patch_128">
    <path d="M 85.885989 166.028575 
L 89.083228 166.028575 
L 89.083228 165.95499 
L 85.885989 165.95499 
z
" clip-path="url(#p39e347253d)" style="fill: #006400; opacity: 0.3"/>
   </g>
   <g id="patch_129">
    <path d="M 89.083228 166.028575 
L 92.280466 166.028575 
L 92.280466 165.194613 
L 89.083228 165.194613 
z
" clip-path="url(#p39e347253d)" style="fill: #006400; opacity: 0.3"/>
   </g>
   <g id="patch_130">
    <path d="M 92.280466 166.028575 
L 95.477704 166.028575 
L 95.477704 165.863885 
L 92.280466 165.863885 
z
" clip-path="url(#p39e347253d)" style="fill: #006400; opacity: 0.3"/>
   </g>
   <g id="patch_131">
    <path d="M 95.477704 166.028575 
L 98.674942 166.028575 
L 98.674942 165.741244 
L 95.477704 165.741244 
z
" clip-path="url(#p39e347253d)" style="fill: #006400; opacity: 0.3"/>
   </g>
   <g id="patch_132">
    <path d="M 98.674942 166.028575 
L 101.87218 166.028575 
L 101.87218 165.855125 
L 98.674942 165.855125 
z
" clip-path="url(#p39e347253d)" style="fill: #006400; opacity: 0.3"/>
   </g>
   <g id="patch_133">
    <path d="M 101.87218 166.028575 
L 105.069419 166.028575 
L 105.069419 164.909033 
L 101.87218 164.909033 
z
" clip-path="url(#p39e347253d)" style="fill: #006400; opacity: 0.3"/>
   </g>
   <g id="patch_134">
    <path d="M 105.069419 166.028575 
L 108.266657 166.028575 
L 108.266657 165.457416 
L 105.069419 165.457416 
z
" clip-path="url(#p39e347253d)" style="fill: #006400; opacity: 0.3"/>
   </g>
   <g id="patch_135">
    <path d="M 108.266657 166.028575 
L 111.463895 166.028575 
L 111.463895 165.921702 
L 108.266657 165.921702 
z
" clip-path="url(#p39e347253d)" style="fill: #006400; opacity: 0.3"/>
   </g>
   <g id="patch_136">
    <path d="M 111.463895 166.028575 
L 114.661133 166.028575 
L 114.661133 163.775475 
L 111.463895 163.775475 
z
" clip-path="url(#p39e347253d)" style="fill: #006400; opacity: 0.3"/>
   </g>
   <g id="patch_137">
    <path d="M 114.661133 166.028575 
L 117.858372 166.028575 
L 117.858372 165.862133 
L 114.661133 165.862133 
z
" clip-path="url(#p39e347253d)" style="fill: #006400; opacity: 0.3"/>
   </g>
   <g id="patch_138">
    <path d="M 117.858372 166.028575 
L 121.05561 166.028575 
L 121.05561 165.205125 
L 117.858372 165.205125 
z
" clip-path="url(#p39e347253d)" style="fill: #006400; opacity: 0.3"/>
   </g>
   <g id="patch_139">
    <path d="M 121.05561 166.028575 
L 124.252848 166.028575 
L 124.252848 164.977362 
L 121.05561 164.977362 
z
" clip-path="url(#p39e347253d)" style="fill: #006400; opacity: 0.3"/>
   </g>
   <g id="patch_140">
    <path d="M 124.252848 166.028575 
L 127.450086 166.028575 
L 127.450086 165.657147 
L 124.252848 165.657147 
z
" clip-path="url(#p39e347253d)" style="fill: #006400; opacity: 0.3"/>
   </g>
   <g id="patch_141">
    <path d="M 127.450086 166.028575 
L 130.647324 166.028575 
L 130.647324 165.042187 
L 127.450086 165.042187 
z
" clip-path="url(#p39e347253d)" style="fill: #006400; opacity: 0.3"/>
   </g>
   <g id="patch_142">
    <path d="M 130.647324 166.028575 
L 133.844563 166.028575 
L 133.844563 165.697443 
L 130.647324 165.697443 
z
" clip-path="url(#p39e347253d)" style="fill: #006400; opacity: 0.3"/>
   </g>
   <g id="patch_143">
    <path d="M 133.844563 166.028575 
L 137.041801 166.028575 
L 137.041801 165.841109 
L 133.844563 165.841109 
z
" clip-path="url(#p39e347253d)" style="fill: #006400; opacity: 0.3"/>
   </g>
   <g id="patch_144">
    <path d="M 137.041801 166.028575 
L 140.239039 166.028575 
L 140.239039 165.445152 
L 137.041801 165.445152 
z
" clip-path="url(#p39e347253d)" style="fill: #006400; opacity: 0.3"/>
   </g>
   <g id="patch_145">
    <path d="M 140.239039 166.028575 
L 143.436277 166.028575 
L 143.436277 165.548521 
L 140.239039 165.548521 
z
" clip-path="url(#p39e347253d)" style="fill: #006400; opacity: 0.3"/>
   </g>
   <g id="patch_146">
    <path d="M 143.436277 166.028575 
L 146.633515 166.028575 
L 146.633515 165.180597 
L 143.436277 165.180597 
z
" clip-path="url(#p39e347253d)" style="fill: #006400; opacity: 0.3"/>
   </g>
   <g id="patch_147">
    <path d="M 146.633515 166.028575 
L 149.830754 166.028575 
L 149.830754 163.750947 
L 146.633515 163.750947 
z
" clip-path="url(#p39e347253d)" style="fill: #006400; opacity: 0.3"/>
   </g>
   <g id="patch_148">
    <path d="M 149.830754 166.028575 
L 153.027992 166.028575 
L 153.027992 165.897174 
L 149.830754 165.897174 
z
" clip-path="url(#p39e347253d)" style="fill: #006400; opacity: 0.3"/>
   </g>
   <g id="patch_149">
    <path d="M 153.027992 166.028575 
L 156.22523 166.028575 
L 156.22523 165.923454 
L 153.027992 165.923454 
z
" clip-path="url(#p39e347253d)" style="fill: #006400; opacity: 0.3"/>
   </g>
   <g id="patch_150">
    <path d="M 156.22523 166.028575 
L 159.422468 166.028575 
L 159.422468 165.91119 
L 156.22523 165.91119 
z
" clip-path="url(#p39e347253d)" style="fill: #006400; opacity: 0.3"/>
   </g>
   <g id="patch_151">
    <path d="M 159.422468 166.028575 
L 162.619707 166.028575 
L 162.619707 165.851621 
L 159.422468 165.851621 
z
" clip-path="url(#p39e347253d)" style="fill: #006400; opacity: 0.3"/>
   </g>
   <g id="patch_152">
    <path d="M 162.619707 166.028575 
L 165.816945 166.028575 
L 165.816945 165.513481 
L 162.619707 165.513481 
z
" clip-path="url(#p39e347253d)" style="fill: #006400; opacity: 0.3"/>
   </g>
   <g id="patch_153">
    <path d="M 165.816945 166.028575 
L 169.014183 166.028575 
L 169.014183 165.909438 
L 165.816945 165.909438 
z
" clip-path="url(#p39e347253d)" style="fill: #006400; opacity: 0.3"/>
   </g>
   <g id="patch_154">
    <path d="M 169.014183 166.028575 
L 172.211421 166.028575 
L 172.211421 165.776284 
L 169.014183 165.776284 
z
" clip-path="url(#p39e347253d)" style="fill: #006400; opacity: 0.3"/>
   </g>
   <g id="patch_155">
    <path d="M 172.211421 166.028575 
L 175.408659 166.028575 
L 175.408659 165.874397 
L 172.211421 165.874397 
z
" clip-path="url(#p39e347253d)" style="fill: #006400; opacity: 0.3"/>
   </g>
   <g id="patch_156">
    <path d="M 175.408659 166.028575 
L 178.605898 166.028575 
L 178.605898 165.884909 
L 175.408659 165.884909 
z
" clip-path="url(#p39e347253d)" style="fill: #006400; opacity: 0.3"/>
   </g>
   <g id="patch_157">
    <path d="M 178.605898 166.028575 
L 181.803136 166.028575 
L 181.803136 161.949869 
L 178.605898 161.949869 
z
" clip-path="url(#p39e347253d)" style="fill: #006400; opacity: 0.3"/>
   </g>
   <g id="patch_158">
    <path d="M 181.803136 166.028575 
L 185.000374 166.028575 
L 185.000374 165.818333 
L 181.803136 165.818333 
z
" clip-path="url(#p39e347253d)" style="fill: #006400; opacity: 0.3"/>
   </g>
   <g id="patch_159">
    <path d="M 185.000374 166.028575 
L 188.197612 166.028575 
L 188.197612 22.121016 
L 185.000374 22.121016 
z
" clip-path="url(#p39e347253d)" style="fill: #006400; opacity: 0.3"/>
   </g>
   <g id="patch_160">
    <path d="M 188.197612 166.028575 
L 191.39485 166.028575 
L 191.39485 163.614289 
L 188.197612 163.614289 
z
" clip-path="url(#p39e347253d)" style="fill: #006400; opacity: 0.3"/>
   </g>
   <g id="patch_161">
    <path d="M 191.39485 166.028575 
L 194.592089 166.028575 
L 194.592089 165.574802 
L 191.39485 165.574802 
z
" clip-path="url(#p39e347253d)" style="fill: #006400; opacity: 0.3"/>
   </g>
   <g id="patch_162">
    <path d="M 194.592089 166.028575 
L 197.789327 166.028575 
L 197.789327 165.509977 
L 194.592089 165.509977 
z
" clip-path="url(#p39e347253d)" style="fill: #006400; opacity: 0.3"/>
   </g>
   <g id="patch_163">
    <path d="M 197.789327 166.028575 
L 200.986565 166.028575 
L 200.986565 165.182349 
L 197.789327 165.182349 
z
" clip-path="url(#p39e347253d)" style="fill: #006400; opacity: 0.3"/>
   </g>
   <g id="patch_164">
    <path d="M 200.986565 166.028575 
L 204.183803 166.028575 
L 204.183803 165.713211 
L 200.986565 165.713211 
z
" clip-path="url(#p39e347253d)" style="fill: #006400; opacity: 0.3"/>
   </g>
   <g id="patch_165">
    <path d="M 204.183803 166.028575 
L 207.381042 166.028575 
L 207.381042 165.566042 
L 204.183803 165.566042 
z
" clip-path="url(#p39e347253d)" style="fill: #006400; opacity: 0.3"/>
   </g>
   <g id="patch_166">
    <path d="M 207.381042 166.028575 
L 210.57828 166.028575 
L 210.57828 164.400947 
L 207.381042 164.400947 
z
" clip-path="url(#p39e347253d)" style="fill: #006400; opacity: 0.3"/>
   </g>
   <g id="patch_167">
    <path d="M 210.57828 166.028575 
L 213.775518 166.028575 
L 213.775518 165.357551 
L 210.57828 165.357551 
z
" clip-path="url(#p39e347253d)" style="fill: #006400; opacity: 0.3"/>
   </g>
   <g id="patch_168">
    <path d="M 213.775518 166.028575 
L 216.972756 166.028575 
L 216.972756 165.515233 
L 213.775518 165.515233 
z
" clip-path="url(#p39e347253d)" style="fill: #006400; opacity: 0.3"/>
   </g>
   <g id="patch_169">
    <path d="M 216.972756 166.028575 
L 220.169994 166.028575 
L 220.169994 165.912942 
L 216.972756 165.912942 
z
" clip-path="url(#p39e347253d)" style="fill: #006400; opacity: 0.3"/>
   </g>
   <g id="patch_170">
    <path d="M 220.169994 166.028575 
L 223.367233 166.028575 
L 223.367233 165.933966 
L 220.169994 165.933966 
z
" clip-path="url(#p39e347253d)" style="fill: #006400; opacity: 0.3"/>
   </g>
   <g id="patch_171">
    <path d="M 223.367233 166.028575 
L 226.564471 166.028575 
L 226.564471 165.62561 
L 223.367233 165.62561 
z
" clip-path="url(#p39e347253d)" style="fill: #006400; opacity: 0.3"/>
   </g>
   <g id="patch_172">
    <path d="M 226.564471 166.028575 
L 229.761709 166.028575 
L 229.761709 165.667659 
L 226.564471 165.667659 
z
" clip-path="url(#p39e347253d)" style="fill: #006400; opacity: 0.3"/>
   </g>
   <g id="patch_173">
    <path d="M 229.761709 166.028575 
L 232.958947 166.028575 
L 232.958947 165.771028 
L 229.761709 165.771028 
z
" clip-path="url(#p39e347253d)" style="fill: #006400; opacity: 0.3"/>
   </g>
   <g id="patch_174">
    <path d="M 232.958947 166.028575 
L 236.156185 166.028575 
L 236.156185 165.909438 
L 232.958947 165.909438 
z
" clip-path="url(#p39e347253d)" style="fill: #006400; opacity: 0.3"/>
   </g>
   <g id="patch_175">
    <path d="M 236.156185 166.028575 
L 239.353424 166.028575 
L 239.353424 165.406608 
L 236.156185 165.406608 
z
" clip-path="url(#p39e347253d)" style="fill: #006400; opacity: 0.3"/>
   </g>
   <g id="patch_176">
    <path d="M 239.353424 166.028575 
L 242.550662 166.028575 
L 242.550662 165.706203 
L 239.353424 165.706203 
z
" clip-path="url(#p39e347253d)" style="fill: #006400; opacity: 0.3"/>
   </g>
   <g id="patch_177">
    <path d="M 242.550662 166.028575 
L 245.7479 166.028575 
L 245.7479 165.958494 
L 242.550662 165.958494 
z
" clip-path="url(#p39e347253d)" style="fill: #006400; opacity: 0.3"/>
   </g>
   <g id="patch_178">
    <path d="M 245.7479 166.028575 
L 248.945138 166.028575 
L 248.945138 165.951486 
L 245.7479 165.951486 
z
" clip-path="url(#p39e347253d)" style="fill: #006400; opacity: 0.3"/>
   </g>
   <g id="patch_179">
    <path d="M 248.945138 166.028575 
L 252.142377 166.028575 
L 252.142377 166.002295 
L 248.945138 166.002295 
z
" clip-path="url(#p39e347253d)" style="fill: #006400; opacity: 0.3"/>
   </g>
   <g id="patch_180">
    <path d="M 252.142377 166.028575 
L 255.339615 166.028575 
L 255.339615 166.021567 
L 252.142377 166.021567 
z
" clip-path="url(#p39e347253d)" style="fill: #006400; opacity: 0.3"/>
   </g>
   <g id="patch_181">
    <path d="M 255.339615 166.028575 
L 258.536853 166.028575 
L 258.536853 165.886661 
L 255.339615 165.886661 
z
" clip-path="url(#p39e347253d)" style="fill: #006400; opacity: 0.3"/>
   </g>
   <g id="patch_182">
    <path d="M 258.536853 166.028575 
L 261.734091 166.028575 
L 261.734091 165.033427 
L 258.536853 165.033427 
z
" clip-path="url(#p39e347253d)" style="fill: #006400; opacity: 0.3"/>
   </g>
   <g id="matplotlib.axis_1">
    <g id="xtick_1">
     <g id="line2d_1">
      <defs>
       <path id="md060c0f5fa" d="M 0 0 
L 0 3.5 
" style="stroke: #000000; stroke-width: 0.8"/>
      </defs>
      <g>
       <use xlink:href="#md060c0f5fa" x="95.937515" y="166.028575" style="stroke: #000000; stroke-width: 0.8"/>
      </g>
     </g>
     <g id="text_1">
      <!-- $\mathdefault{190}$ -->
      <g transform="translate(86.426406 182.022603)scale(0.13 -0.13)">
       <defs>
        <path id="CMR17-31" d="M 1702 4058 
C 1702 4192 1696 4192 1606 4192 
C 1357 3916 979 3827 621 3827 
C 602 3827 570 3827 563 3808 
C 557 3795 557 3782 557 3648 
C 755 3648 1088 3686 1344 3839 
L 1344 461 
C 1344 236 1331 160 781 160 
L 589 160 
L 589 0 
C 896 0 1216 0 1523 0 
C 1830 0 2150 0 2458 0 
L 2458 160 
L 2266 160 
C 1715 160 1702 230 1702 458 
L 1702 4058 
z
" transform="scale(0.015625)"/>
        <path id="CMR17-39" d="M 2253 1864 
C 2253 464 1670 31 1190 31 
C 1043 31 685 31 538 294 
C 704 268 826 357 826 518 
C 826 692 685 749 595 749 
C 538 749 365 723 365 506 
C 365 71 742 -128 1203 -128 
C 1939 -128 2688 674 2688 2073 
C 2688 3817 1971 4179 1485 4179 
C 851 4179 243 3628 243 2778 
C 243 1991 762 1408 1414 1408 
C 1952 1408 2189 1903 2253 2112 
L 2253 1864 
z
M 1427 1510 
C 1254 1510 1011 1542 813 1922 
C 678 2169 678 2461 678 2771 
C 678 3146 678 3405 858 3684 
C 947 3817 1114 4032 1485 4032 
C 2240 4032 2240 2885 2240 2632 
C 2240 2182 2035 1510 1427 1510 
z
" transform="scale(0.015625)"/>
        <path id="CMR17-30" d="M 2688 2025 
C 2688 2416 2682 3080 2413 3591 
C 2176 4039 1798 4198 1466 4198 
C 1158 4198 768 4058 525 3597 
C 269 3118 243 2524 243 2025 
C 243 1661 250 1106 448 619 
C 723 -39 1216 -128 1466 -128 
C 1760 -128 2208 -7 2470 600 
C 2662 1042 2688 1559 2688 2025 
z
M 1466 -26 
C 1056 -26 813 325 723 812 
C 653 1188 653 1738 653 2096 
C 653 2588 653 2997 736 3387 
C 858 3929 1216 4096 1466 4096 
C 1728 4096 2067 3923 2189 3400 
C 2272 3036 2278 2607 2278 2096 
C 2278 1680 2278 1169 2202 792 
C 2067 95 1690 -26 1466 -26 
z
" transform="scale(0.015625)"/>
       </defs>
       <use xlink:href="#CMR17-31" transform="scale(0.996264)"/>
       <use xlink:href="#CMR17-39" transform="translate(45.690477 0)scale(0.996264)"/>
       <use xlink:href="#CMR17-30" transform="translate(91.380954 0)scale(0.996264)"/>
      </g>
     </g>
    </g>
    <g id="xtick_2">
     <g id="line2d_2">
      <g>
       <use xlink:href="#md060c0f5fa" x="160.99882" y="166.028575" style="stroke: #000000; stroke-width: 0.8"/>
      </g>
     </g>
     <g id="text_2">
      <!-- $\mathdefault{200}$ -->
      <g transform="translate(151.487711 182.022603)scale(0.13 -0.13)">
       <defs>
        <path id="CMR17-32" d="M 2669 989 
L 2554 989 
C 2490 536 2438 459 2413 420 
C 2381 369 1920 369 1830 369 
L 602 369 
C 832 619 1280 1072 1824 1597 
C 2214 1967 2669 2402 2669 3035 
C 2669 3790 2067 4224 1395 4224 
C 691 4224 262 3604 262 3030 
C 262 2780 448 2748 525 2748 
C 589 2748 781 2787 781 3010 
C 781 3207 614 3264 525 3264 
C 486 3264 448 3258 422 3245 
C 544 3790 915 4058 1306 4058 
C 1862 4058 2227 3617 2227 3035 
C 2227 2479 1901 2000 1536 1584 
L 262 146 
L 262 0 
L 2515 0 
L 2669 989 
z
" transform="scale(0.015625)"/>
       </defs>
       <use xlink:href="#CMR17-32" transform="scale(0.996264)"/>
       <use xlink:href="#CMR17-30" transform="translate(45.690477 0)scale(0.996264)"/>
       <use xlink:href="#CMR17-30" transform="translate(91.380954 0)scale(0.996264)"/>
      </g>
     </g>
    </g>
    <g id="xtick_3">
     <g id="line2d_3">
      <g>
       <use xlink:href="#md060c0f5fa" x="226.060126" y="166.028575" style="stroke: #000000; stroke-width: 0.8"/>
      </g>
     </g>
     <g id="text_3">
      <!-- $\mathdefault{210}$ -->
      <g transform="translate(216.549017 182.022603)scale(0.13 -0.13)">
       <use xlink:href="#CMR17-32" transform="scale(0.996264)"/>
       <use xlink:href="#CMR17-31" transform="translate(45.690477 0)scale(0.996264)"/>
       <use xlink:href="#CMR17-30" transform="translate(91.380954 0)scale(0.996264)"/>
      </g>
     </g>
    </g>
    <g id="xtick_4">
     <g id="line2d_4">
      <g>
       <use xlink:href="#md060c0f5fa" x="291.121431" y="166.028575" style="stroke: #000000; stroke-width: 0.8"/>
      </g>
     </g>
     <g id="text_4">
      <!-- $\mathdefault{220}$ -->
      <g transform="translate(281.610322 182.022603)scale(0.13 -0.13)">
       <use xlink:href="#CMR17-32" transform="scale(0.996264)"/>
       <use xlink:href="#CMR17-32" transform="translate(45.690477 0)scale(0.996264)"/>
       <use xlink:href="#CMR17-30" transform="translate(91.380954 0)scale(0.996264)"/>
      </g>
     </g>
    </g>
    <g id="xtick_5">
     <g id="line2d_5">
      <g>
       <use xlink:href="#md060c0f5fa" x="356.182736" y="166.028575" style="stroke: #000000; stroke-width: 0.8"/>
      </g>
     </g>
     <g id="text_5">
      <!-- $\mathdefault{230}$ -->
      <g transform="translate(346.671627 182.022603)scale(0.13 -0.13)">
       <defs>
        <path id="CMR17-33" d="M 1414 2157 
C 1984 2157 2234 1662 2234 1090 
C 2234 320 1824 25 1453 25 
C 1114 25 563 194 390 693 
C 422 680 454 680 486 680 
C 640 680 755 782 755 948 
C 755 1133 614 1216 486 1216 
C 378 1216 211 1165 211 926 
C 211 335 787 -128 1466 -128 
C 2176 -128 2720 430 2720 1085 
C 2720 1707 2208 2157 1600 2227 
C 2086 2328 2554 2756 2554 3329 
C 2554 3820 2048 4179 1472 4179 
C 890 4179 378 3829 378 3329 
C 378 3110 544 3072 627 3072 
C 762 3072 877 3155 877 3321 
C 877 3486 762 3569 627 3569 
C 602 3569 570 3569 544 3557 
C 730 3959 1235 4032 1459 4032 
C 1683 4032 2106 3925 2106 3320 
C 2106 3143 2080 2828 1862 2550 
C 1670 2304 1453 2304 1242 2284 
C 1210 2284 1062 2269 1037 2269 
C 992 2263 966 2257 966 2208 
C 966 2163 973 2157 1101 2157 
L 1414 2157 
z
" transform="scale(0.015625)"/>
       </defs>
       <use xlink:href="#CMR17-32" transform="scale(0.996264)"/>
       <use xlink:href="#CMR17-33" transform="translate(45.690477 0)scale(0.996264)"/>
       <use xlink:href="#CMR17-30" transform="translate(91.380954 0)scale(0.996264)"/>
      </g>
     </g>
    </g>
    <g id="xtick_6">
     <g id="line2d_6">
      <g>
       <use xlink:href="#md060c0f5fa" x="421.244041" y="166.028575" style="stroke: #000000; stroke-width: 0.8"/>
      </g>
     </g>
     <g id="text_6">
      <!-- $\mathdefault{240}$ -->
      <g transform="translate(411.732932 182.022603)scale(0.13 -0.13)">
       <defs>
        <path id="CMR17-34" d="M 2150 4122 
C 2150 4256 2144 4256 2029 4256 
L 128 1254 
L 128 1088 
L 1779 1088 
L 1779 457 
C 1779 224 1766 160 1318 160 
L 1197 160 
L 1197 0 
C 1402 0 1747 0 1965 0 
C 2182 0 2528 0 2733 0 
L 2733 160 
L 2611 160 
C 2163 160 2150 224 2150 457 
L 2150 1088 
L 2803 1088 
L 2803 1254 
L 2150 1254 
L 2150 4122 
z
M 1798 3703 
L 1798 1254 
L 256 1254 
L 1798 3703 
z
" transform="scale(0.015625)"/>
       </defs>
       <use xlink:href="#CMR17-32" transform="scale(0.996264)"/>
       <use xlink:href="#CMR17-34" transform="translate(45.690477 0)scale(0.996264)"/>
       <use xlink:href="#CMR17-30" transform="translate(91.380954 0)scale(0.996264)"/>
      </g>
     </g>
    </g>
    <g id="xtick_7">
     <g id="line2d_7">
      <g>
       <use xlink:href="#md060c0f5fa" x="486.305346" y="166.028575" style="stroke: #000000; stroke-width: 0.8"/>
      </g>
     </g>
     <g id="text_7">
      <!-- $\mathdefault{250}$ -->
      <g transform="translate(476.794237 182.022603)scale(0.13 -0.13)">
       <defs>
        <path id="CMR17-35" d="M 730 3692 
C 794 3666 1056 3584 1325 3584 
C 1920 3584 2246 3911 2432 4100 
C 2432 4157 2432 4192 2394 4192 
C 2387 4192 2374 4192 2323 4163 
C 2099 4058 1837 3973 1517 3973 
C 1325 3973 1037 3999 723 4139 
C 653 4171 640 4171 634 4171 
C 602 4171 595 4164 595 4037 
L 595 2203 
C 595 2089 595 2057 659 2057 
C 691 2057 704 2070 736 2114 
C 941 2401 1222 2522 1542 2522 
C 1766 2522 2246 2382 2246 1289 
C 2246 1085 2246 715 2054 421 
C 1894 159 1645 25 1370 25 
C 947 25 518 320 403 814 
C 429 807 480 795 506 795 
C 589 795 749 840 749 1038 
C 749 1210 627 1280 506 1280 
C 358 1280 262 1190 262 1011 
C 262 454 704 -128 1382 -128 
C 2042 -128 2669 440 2669 1264 
C 2669 2030 2170 2624 1549 2624 
C 1222 2624 947 2503 730 2274 
L 730 3692 
z
" transform="scale(0.015625)"/>
       </defs>
       <use xlink:href="#CMR17-32" transform="scale(0.996264)"/>
       <use xlink:href="#CMR17-35" transform="translate(45.690477 0)scale(0.996264)"/>
       <use xlink:href="#CMR17-30" transform="translate(91.380954 0)scale(0.996264)"/>
      </g>
     </g>
    </g>
    <g id="xtick_8">
     <g id="line2d_8">
      <g>
       <use xlink:href="#md060c0f5fa" x="551.366652" y="166.028575" style="stroke: #000000; stroke-width: 0.8"/>
      </g>
     </g>
     <g id="text_8">
      <!-- $\mathdefault{260}$ -->
      <g transform="translate(541.855542 182.022603)scale(0.13 -0.13)">
       <defs>
        <path id="CMR17-36" d="M 678 2176 
C 678 3690 1395 4032 1811 4032 
C 1946 4032 2272 4009 2400 3776 
C 2298 3776 2106 3776 2106 3553 
C 2106 3381 2246 3323 2336 3323 
C 2394 3323 2566 3348 2566 3560 
C 2566 3954 2246 4179 1805 4179 
C 1043 4179 243 3390 243 1984 
C 243 253 966 -128 1478 -128 
C 2099 -128 2688 427 2688 1283 
C 2688 2081 2170 2662 1517 2662 
C 1126 2662 838 2407 678 1960 
L 678 2176 
z
M 1478 25 
C 691 25 691 1200 691 1436 
C 691 1896 909 2560 1504 2560 
C 1613 2560 1926 2560 2138 2120 
C 2253 1870 2253 1609 2253 1289 
C 2253 944 2253 690 2118 434 
C 1978 171 1773 25 1478 25 
z
" transform="scale(0.015625)"/>
       </defs>
       <use xlink:href="#CMR17-32" transform="scale(0.996264)"/>
       <use xlink:href="#CMR17-36" transform="translate(45.690477 0)scale(0.996264)"/>
       <use xlink:href="#CMR17-30" transform="translate(91.380954 0)scale(0.996264)"/>
      </g>
     </g>
    </g>
    <g id="text_9">
     <!-- spring constant $k_{1,2,3}$ (N/m) -->
     <g transform="translate(220.049496 198.25449)scale(0.13 -0.13)">
      <defs>
       <path id="CMR17-73" d="M 1978 2697 
C 1978 2813 1971 2819 1933 2819 
C 1907 2819 1901 2813 1824 2717 
C 1805 2691 1747 2626 1728 2601 
C 1523 2819 1235 2819 1126 2819 
C 416 2819 160 2447 160 2076 
C 160 1498 813 1365 998 1325 
C 1402 1243 1542 1217 1677 1101 
C 1760 1025 1901 884 1901 654 
C 1901 384 1747 38 1158 38 
C 602 38 403 460 288 1021 
C 269 1110 269 1117 218 1117 
C 166 1117 160 1110 160 983 
L 160 63 
C 160 -51 166 -58 205 -58 
C 237 -58 243 -51 275 0 
C 314 57 410 211 448 276 
C 576 103 800 -64 1158 -64 
C 1792 -64 2131 283 2131 784 
C 2131 1112 1958 1285 1875 1362 
C 1683 1561 1459 1606 1190 1657 
C 838 1735 390 1825 390 2217 
C 390 2383 480 2737 1126 2737 
C 1811 2737 1850 2094 1862 1888 
C 1869 1856 1901 1849 1920 1849 
C 1978 1849 1978 1869 1978 1978 
L 1978 2697 
z
" transform="scale(0.015625)"/>
       <path id="CMR17-70" d="M 1408 -1063 
C 998 -1063 973 -1037 973 -789 
L 973 402 
C 1158 134 1427 -38 1766 -38 
C 2406 -38 3053 523 3053 1388 
C 3053 2191 2496 2802 1837 2802 
C 1453 2802 1139 2592 960 2338 
L 960 2802 
L 198 2732 
L 198 2567 
C 576 2567 634 2528 634 2223 
L 634 -789 
C 634 -1031 608 -1063 198 -1063 
L 198 -1228 
C 352 -1216 634 -1216 800 -1216 
C 966 -1216 1254 -1216 1408 -1228 
L 1408 -1063 
z
M 973 2012 
C 973 2102 973 2235 1222 2471 
C 1254 2497 1472 2688 1792 2688 
C 2259 2688 2643 2108 2643 1382 
C 2643 656 2234 64 1728 64 
C 1498 64 1248 172 1056 472 
C 973 612 973 650 973 752 
L 973 2012 
z
" transform="scale(0.015625)"/>
       <path id="CMR17-72" d="M 960 1497 
C 960 2112 1222 2688 1702 2688 
C 1747 2688 1792 2682 1837 2662 
C 1837 2662 1696 2617 1696 2452 
C 1696 2298 1818 2234 1914 2234 
C 1990 2234 2131 2279 2131 2458 
C 2131 2663 1926 2790 1709 2790 
C 1222 2790 1011 2317 947 2093 
L 941 2093 
L 941 2790 
L 198 2720 
L 198 2554 
C 576 2554 634 2515 634 2208 
L 634 428 
C 634 184 608 153 198 153 
L 198 -13 
C 352 0 646 0 813 0 
C 998 0 1325 0 1498 -13 
L 1498 153 
C 1037 153 960 153 960 440 
L 960 1497 
z
" transform="scale(0.015625)"/>
       <path id="CMR17-69" d="M 992 3909 
C 992 4049 877 4170 730 4170 
C 589 4170 467 4056 467 3909 
C 467 3769 582 3648 730 3648 
C 870 3648 992 3763 992 3909 
z
M 243 2706 
L 243 2541 
C 602 2541 653 2502 653 2197 
L 653 427 
C 653 184 627 153 218 153 
L 218 -13 
C 371 0 646 0 806 0 
C 960 0 1222 0 1370 -13 
L 1370 153 
C 992 153 979 191 979 420 
L 979 2776 
L 243 2706 
z
" transform="scale(0.015625)"/>
       <path id="CMR17-6e" d="M 2656 1933 
C 2656 2259 2592 2790 1837 2790 
C 1331 2790 1069 2400 973 2144 
L 966 2144 
L 966 2790 
L 211 2720 
L 211 2554 
C 589 2554 646 2515 646 2208 
L 646 428 
C 646 184 621 153 211 153 
L 211 -13 
C 365 0 646 0 813 0 
C 979 0 1267 0 1421 -13 
L 1421 153 
C 1011 153 986 178 986 428 
L 986 1658 
C 986 2247 1344 2688 1792 2688 
C 2266 2688 2317 2266 2317 1958 
L 2317 428 
C 2317 184 2291 153 1882 153 
L 1882 -13 
C 2035 0 2317 0 2483 0 
C 2650 0 2938 0 3091 -13 
L 3091 153 
C 2682 153 2656 178 2656 428 
L 2656 1933 
z
" transform="scale(0.015625)"/>
       <path id="CMR17-67" d="M 710 1164 
C 832 1068 1043 960 1299 960 
C 1805 960 2240 1357 2240 1888 
C 2240 2054 2189 2310 1997 2509 
C 2176 2692 2438 2752 2586 2752 
C 2611 2752 2650 2752 2682 2734 
C 2656 2728 2598 2703 2598 2605 
C 2598 2527 2656 2471 2739 2471 
C 2835 2471 2886 2533 2886 2614 
C 2886 2731 2790 2854 2586 2854 
C 2330 2854 2106 2738 1926 2580 
C 1734 2753 1504 2816 1299 2816 
C 794 2816 358 2419 358 1888 
C 358 1522 570 1292 634 1228 
C 442 1004 442 743 442 711 
C 442 545 506 302 723 168 
C 390 85 128 -169 128 -486 
C 128 -943 736 -1280 1466 -1280 
C 2170 -1280 2803 -956 2803 -479 
C 2803 384 1856 384 1363 384 
C 1216 384 954 384 922 391 
C 723 423 589 602 589 826 
C 589 883 589 1024 710 1164 
z
M 1299 1068 
C 736 1068 736 1760 736 1889 
C 736 2016 736 2708 1299 2708 
C 1862 2708 1862 2016 1862 1889 
C 1862 1760 1862 1068 1299 1068 
z
M 1466 -1171 
C 826 -1171 384 -835 384 -486 
C 384 -289 493 -105 634 -4 
C 794 104 858 104 1293 104 
C 1818 104 2547 104 2547 -486 
C 2547 -835 2106 -1171 1466 -1171 
z
" transform="scale(0.015625)"/>
       <path id="CMR17-63" d="M 2234 2240 
C 2112 2240 1933 2240 1933 2017 
C 1933 1838 2080 1787 2163 1787 
C 2208 1787 2394 1807 2394 2024 
C 2394 2467 1958 2803 1466 2803 
C 787 2803 211 2178 211 1363 
C 211 516 813 -64 1466 -64 
C 2259 -64 2458 677 2458 748 
C 2458 774 2451 793 2406 793 
C 2362 793 2355 787 2330 703 
C 2163 180 1798 51 1523 51 
C 1114 51 621 427 621 1369 
C 621 2338 1094 2688 1472 2688 
C 1722 2688 2093 2573 2234 2240 
z
" transform="scale(0.015625)"/>
       <path id="CMR17-6f" d="M 2758 1356 
C 2758 2176 2163 2816 1466 2816 
C 768 2816 173 2176 173 1356 
C 173 551 768 -64 1466 -64 
C 2163 -64 2758 551 2758 1356 
z
M 1466 51 
C 1165 51 909 230 762 480 
C 602 767 582 1126 582 1408 
C 582 1677 595 2010 762 2298 
C 890 2509 1139 2714 1466 2714 
C 1754 2714 1997 2554 2150 2330 
C 2349 2029 2349 1607 2349 1408 
C 2349 1158 2336 775 2163 467 
C 1984 173 1709 51 1466 51 
z
" transform="scale(0.015625)"/>
       <path id="CMR17-74" d="M 966 2560 
L 1862 2560 
L 1862 2725 
L 966 2725 
L 966 3904 
L 851 3904 
C 838 3245 614 2668 70 2668 
L 70 2560 
L 627 2560 
L 627 771 
C 627 650 627 -64 1370 -64 
C 1747 -64 1965 306 1965 777 
L 1965 1140 
L 1850 1140 
L 1850 783 
C 1850 344 1677 51 1408 51 
C 1222 51 966 178 966 758 
L 966 2560 
z
" transform="scale(0.015625)"/>
       <path id="CMR17-61" d="M 2304 1653 
C 2304 2072 2304 2294 2035 2543 
C 1798 2752 1523 2816 1306 2816 
C 800 2816 435 2407 435 1971 
C 435 1728 627 1728 666 1728 
C 749 1728 896 1778 896 1954 
C 896 2112 774 2181 666 2181 
C 640 2181 608 2174 589 2168 
C 723 2592 1069 2714 1293 2714 
C 1613 2714 1965 2429 1965 1885 
L 1965 1600 
C 1587 1600 1133 1549 774 1357 
C 371 1133 256 813 256 570 
C 256 77 832 -64 1171 -64 
C 1523 -64 1850 139 1990 511 
C 2003 233 2182 -18 2464 -18 
C 2598 -18 2938 70 2938 567 
L 2938 920 
L 2822 920 
L 2822 562 
C 2822 178 2650 128 2566 128 
C 2304 128 2304 458 2304 738 
L 2304 1653 
z
M 1965 870 
C 1965 317 1568 38 1216 38 
C 896 38 646 275 646 570 
C 646 761 730 1100 1101 1305 
C 1408 1478 1760 1504 1965 1504 
L 1965 870 
z
" transform="scale(0.015625)"/>
       <path id="CMMI12-6b" d="M 1798 4257 
C 1805 4283 1818 4321 1818 4352 
C 1818 4416 1754 4416 1741 4416 
C 1734 4416 1504 4393 1389 4377 
C 1280 4377 1184 4358 1069 4358 
C 915 4345 870 4339 870 4224 
C 870 4160 934 4160 998 4160 
C 1325 4160 1325 4103 1325 4040 
C 1325 4015 1325 4002 1293 3888 
L 378 248 
C 352 152 352 140 352 101 
C 352 -38 461 -64 525 -64 
C 704 -64 742 77 794 275 
L 1094 1469 
C 1555 1418 1830 1226 1830 920 
C 1830 881 1830 856 1811 760 
C 1786 664 1786 588 1786 556 
C 1786 185 2029 -64 2355 -64 
C 2650 -64 2803 204 2854 294 
C 2989 530 3072 888 3072 913 
C 3072 945 3046 971 3008 971 
C 2950 971 2944 945 2918 843 
C 2829 511 2694 64 2368 64 
C 2240 64 2157 128 2157 370 
C 2157 492 2182 632 2208 728 
C 2234 843 2234 849 2234 926 
C 2234 1303 1894 1514 1306 1590 
C 1536 1731 1766 1980 1856 2076 
C 2221 2484 2470 2689 2765 2689 
C 2912 2689 2950 2650 2995 2612 
C 2758 2586 2669 2420 2669 2293 
C 2669 2139 2790 2088 2880 2088 
C 3053 2088 3206 2235 3206 2440 
C 3206 2625 3059 2816 2771 2816 
C 2419 2816 2131 2567 1677 2056 
C 1613 1980 1376 1737 1139 1648 
L 1798 4257 
z
" transform="scale(0.015625)"/>
       <path id="CMMI12-3b" d="M 1248 -31 
C 1248 343 1126 619 864 619 
C 659 619 557 453 557 313 
C 557 172 653 0 870 0 
C 954 0 1024 26 1082 83 
C 1094 96 1101 96 1107 96 
C 1120 96 1120 5 1120 -27 
C 1120 -240 1082 -659 710 -1080 
C 640 -1157 640 -1170 640 -1183 
C 640 -1216 672 -1248 704 -1248 
C 755 -1248 1248 -771 1248 -31 
z
" transform="scale(0.015625)"/>
       <path id="CMR17-28" d="M 1958 -1561 
C 1958 -1555 1958 -1542 1939 -1523 
C 1645 -1224 858 -407 858 1581 
C 858 3569 1632 4379 1946 4697 
C 1946 4704 1958 4717 1958 4736 
C 1958 4755 1939 4768 1914 4768 
C 1843 4768 1299 4296 986 3594 
C 666 2887 576 2199 576 1588 
C 576 1128 621 351 1005 -471 
C 1312 -1135 1837 -1600 1914 -1600 
C 1946 -1600 1958 -1587 1958 -1561 
z
" transform="scale(0.015625)"/>
       <path id="CMR17-4e" d="M 1312 4250 
C 1267 4320 1261 4320 1139 4320 
L 326 4320 
L 326 4160 
L 448 4160 
C 704 4160 819 4129 838 4122 
L 838 610 
C 838 451 838 153 326 153 
L 326 -13 
C 474 0 742 0 902 0 
C 1062 0 1331 0 1478 -13 
L 1478 153 
C 966 153 966 451 966 610 
L 966 4033 
C 1011 3995 1011 3982 1056 3919 
L 3430 76 
C 3475 0 3494 0 3526 0 
C 3590 0 3590 19 3590 139 
L 3590 3705 
C 3590 3863 3590 4160 4102 4160 
L 4102 4326 
C 3955 4320 3686 4320 3526 4320 
C 3366 4320 3098 4320 2950 4326 
L 2950 4160 
C 3462 4160 3462 3862 3462 3703 
L 3462 763 
L 1312 4250 
z
" transform="scale(0.015625)"/>
       <path id="CMR17-2f" d="M 2605 4545 
C 2637 4627 2637 4640 2637 4653 
C 2637 4729 2579 4768 2528 4768 
C 2451 4768 2426 4717 2400 4640 
L 326 -1377 
C 294 -1460 294 -1473 294 -1486 
C 294 -1562 352 -1600 403 -1600 
C 480 -1600 506 -1549 531 -1473 
L 2605 4545 
z
" transform="scale(0.015625)"/>
       <path id="CMR17-6d" d="M 4326 1933 
C 4326 2252 4269 2790 3507 2790 
C 3072 2790 2771 2496 2656 2151 
L 2650 2151 
C 2573 2676 2195 2790 1837 2790 
C 1331 2790 1069 2400 973 2144 
L 966 2144 
L 966 2790 
L 211 2720 
L 211 2554 
C 589 2554 646 2515 646 2208 
L 646 428 
C 646 184 621 153 211 153 
L 211 -13 
C 365 0 646 0 813 0 
C 979 0 1267 0 1421 -13 
L 1421 153 
C 1011 153 986 178 986 428 
L 986 1658 
C 986 2247 1344 2688 1792 2688 
C 2266 2688 2317 2266 2317 1958 
L 2317 428 
C 2317 184 2291 153 1882 153 
L 1882 -13 
C 2035 0 2317 0 2483 0 
C 2650 0 2938 0 3091 -13 
L 3091 153 
C 2682 153 2656 178 2656 428 
L 2656 1658 
C 2656 2247 3014 2688 3462 2688 
C 3936 2688 3987 2266 3987 1958 
L 3987 428 
C 3987 184 3962 153 3552 153 
L 3552 -13 
C 3706 0 3987 0 4154 0 
C 4320 0 4608 0 4762 -13 
L 4762 153 
C 4352 153 4326 178 4326 428 
L 4326 1933 
z
" transform="scale(0.015625)"/>
       <path id="CMR17-29" d="M 1683 1581 
C 1683 2040 1638 2817 1254 3639 
C 947 4303 422 4768 346 4768 
C 326 4768 301 4761 301 4729 
C 301 4717 307 4710 314 4697 
C 621 4378 1402 3568 1402 1584 
C 1402 -407 627 -1217 314 -1537 
C 307 -1549 301 -1556 301 -1568 
C 301 -1600 326 -1600 346 -1600 
C 416 -1600 960 -1128 1274 -426 
C 1594 281 1683 969 1683 1581 
z
" transform="scale(0.015625)"/>
      </defs>
      <use xlink:href="#CMR17-73" transform="scale(0.996264)"/>
      <use xlink:href="#CMR17-70" transform="translate(35.801338 0)scale(0.996264)"/>
      <use xlink:href="#CMR17-72" transform="translate(86.696707 0)scale(0.996264)"/>
      <use xlink:href="#CMR17-69" transform="translate(121.977475 0)scale(0.996264)"/>
      <use xlink:href="#CMR17-6e" transform="translate(146.848534 0)scale(0.996264)"/>
      <use xlink:href="#CMR17-67" transform="translate(197.743903 0)scale(0.996264)"/>
      <use xlink:href="#CMR17-63" transform="translate(273.510347 0)scale(0.996264)"/>
      <use xlink:href="#CMR17-6f" transform="translate(313.996007 0)scale(0.996264)"/>
      <use xlink:href="#CMR17-6e" transform="translate(359.686485 0)scale(0.996264)"/>
      <use xlink:href="#CMR17-73" transform="translate(410.581854 0)scale(0.996264)"/>
      <use xlink:href="#CMR17-74" transform="translate(446.383192 0)scale(0.996264)"/>
      <use xlink:href="#CMR17-61" transform="translate(481.66396 0)scale(0.996264)"/>
      <use xlink:href="#CMR17-6e" transform="translate(527.354437 0)scale(0.996264)"/>
      <use xlink:href="#CMR17-74" transform="translate(575.647353 0)scale(0.996264)"/>
      <use xlink:href="#CMMI12-6b" transform="translate(641.004087 0)scale(0.996264)"/>
      <use xlink:href="#CMR17-31" transform="translate(691.739275 -14.943915)scale(0.697382)"/>
      <use xlink:href="#CMMI12-3b" transform="translate(723.722457 -14.943915)scale(0.697382)"/>
      <use xlink:href="#CMR17-32" transform="translate(742.69039 -14.943915)scale(0.697382)"/>
      <use xlink:href="#CMMI12-3b" transform="translate(774.673572 -14.943915)scale(0.697382)"/>
      <use xlink:href="#CMR17-33" transform="translate(793.641505 -14.943915)scale(0.697382)"/>
      <use xlink:href="#CMR17-28" transform="translate(856.198785 0)scale(0.996264)"/>
      <use xlink:href="#CMR17-4e" transform="translate(891.479553 0)scale(0.996264)"/>
      <use xlink:href="#CMR17-2f" transform="translate(960.551983 0)scale(0.996264)"/>
      <use xlink:href="#CMR17-6d" transform="translate(1006.24246 0)scale(0.996264)"/>
      <use xlink:href="#CMR17-29" transform="translate(1083.16205 0)scale(0.996264)"/>
     </g>
    </g>
   </g>
   <g id="matplotlib.axis_2">
    <g id="ytick_1">
     <g id="line2d_9">
      <defs>
       <path id="me1ef709d00" d="M 0 0 
L -3.5 0 
" style="stroke: #000000; stroke-width: 0.8"/>
      </defs>
      <g>
       <use xlink:href="#me1ef709d00" x="37.244112" y="166.028575" style="stroke: #000000; stroke-width: 0.8"/>
      </g>
     </g>
     <g id="text_10">
      <!-- $\mathdefault{0.0}$ -->
      <g transform="translate(14.04 170.525589)scale(0.13 -0.13)">
       <defs>
        <path id="CMMI12-3a" d="M 1178 307 
C 1178 492 1024 619 870 619 
C 685 619 557 466 557 313 
C 557 128 710 0 864 0 
C 1050 0 1178 153 1178 307 
z
" transform="scale(0.015625)"/>
       </defs>
       <use xlink:href="#CMR17-30" transform="scale(0.996264)"/>
       <use xlink:href="#CMMI12-3a" transform="translate(45.690477 0)scale(0.996264)"/>
       <use xlink:href="#CMR17-30" transform="translate(72.787654 0)scale(0.996264)"/>
      </g>
     </g>
    </g>
    <g id="ytick_2">
     <g id="line2d_10">
      <g>
       <use xlink:href="#me1ef709d00" x="37.244112" y="122.97971" style="stroke: #000000; stroke-width: 0.8"/>
      </g>
     </g>
     <g id="text_11">
      <!-- $\mathdefault{0.5}$ -->
      <g transform="translate(14.04 127.476724)scale(0.13 -0.13)">
       <use xlink:href="#CMR17-30" transform="scale(0.996264)"/>
       <use xlink:href="#CMMI12-3a" transform="translate(45.690477 0)scale(0.996264)"/>
       <use xlink:href="#CMR17-35" transform="translate(72.787654 0)scale(0.996264)"/>
      </g>
     </g>
    </g>
    <g id="ytick_3">
     <g id="line2d_11">
      <g>
       <use xlink:href="#me1ef709d00" x="37.244112" y="79.930844" style="stroke: #000000; stroke-width: 0.8"/>
      </g>
     </g>
     <g id="text_12">
      <!-- $\mathdefault{1.0}$ -->
      <g transform="translate(14.04 84.427858)scale(0.13 -0.13)">
       <use xlink:href="#CMR17-31" transform="scale(0.996264)"/>
       <use xlink:href="#CMMI12-3a" transform="translate(45.690477 0)scale(0.996264)"/>
       <use xlink:href="#CMR17-30" transform="translate(72.787654 0)scale(0.996264)"/>
      </g>
     </g>
    </g>
    <g id="ytick_4">
     <g id="line2d_12">
      <g>
       <use xlink:href="#me1ef709d00" x="37.244112" y="36.881978" style="stroke: #000000; stroke-width: 0.8"/>
      </g>
     </g>
     <g id="text_13">
      <!-- $\mathdefault{1.5}$ -->
      <g transform="translate(14.04 41.378992)scale(0.13 -0.13)">
       <use xlink:href="#CMR17-31" transform="scale(0.996264)"/>
       <use xlink:href="#CMMI12-3a" transform="translate(45.690477 0)scale(0.996264)"/>
       <use xlink:href="#CMR17-35" transform="translate(72.787654 0)scale(0.996264)"/>
      </g>
     </g>
    </g>
   </g>
   <g id="patch_183">
    <path d="M 37.244112 166.028575 
L 37.244112 14.04 
" style="fill: none; stroke: #000000; stroke-width: 0.8; stroke-linejoin: miter; stroke-linecap: square"/>
   </g>
   <g id="patch_184">
    <path d="M 558.870955 166.028575 
L 558.870955 14.04 
" style="fill: none; stroke: #000000; stroke-width: 0.8; stroke-linejoin: miter; stroke-linecap: square"/>
   </g>
   <g id="patch_185">
    <path d="M 37.244112 166.028575 
L 558.870955 166.028575 
" style="fill: none; stroke: #000000; stroke-width: 0.8; stroke-linejoin: miter; stroke-linecap: square"/>
   </g>
   <g id="patch_186">
    <path d="M 37.244112 14.04 
L 558.870955 14.04 
" style="fill: none; stroke: #000000; stroke-width: 0.8; stroke-linejoin: miter; stroke-linecap: square"/>
   </g>
   <g id="legend_1">
    <g id="patch_187">
     <path d="M 496.916528 78.794936 
L 549.770955 78.794936 
Q 552.370955 78.794936 552.370955 76.194936 
L 552.370955 23.14 
Q 552.370955 20.54 549.770955 20.54 
L 496.916528 20.54 
Q 494.316528 20.54 494.316528 23.14 
L 494.316528 76.194936 
Q 494.316528 78.794936 496.916528 78.794936 
z
" style="fill: #ffffff; opacity: 0.8; stroke: #cccccc; stroke-linejoin: miter"/>
    </g>
    <g id="patch_188">
     <path d="M 499.516528 34.84 
L 525.516528 34.84 
L 525.516528 25.74 
L 499.516528 25.74 
z
" style="fill: #800000; opacity: 0.3"/>
    </g>
    <g id="text_14">
     <!-- $k_1$ -->
     <g transform="translate(535.916528 34.84)scale(0.13 -0.13)">
      <use xlink:href="#CMMI12-6b" transform="scale(0.996264)"/>
      <use xlink:href="#CMR17-31" transform="translate(50.735189 -14.943915)scale(0.697382)"/>
     </g>
    </g>
    <g id="patch_189">
     <path d="M 499.516528 52.958312 
L 525.516528 52.958312 
L 525.516528 43.858312 
L 499.516528 43.858312 
z
" style="fill: #00008b; opacity: 0.3"/>
    </g>
    <g id="text_15">
     <!-- $k_2$ -->
     <g transform="translate(535.916528 52.958312)scale(0.13 -0.13)">
      <use xlink:href="#CMMI12-6b" transform="scale(0.996264)"/>
      <use xlink:href="#CMR17-32" transform="translate(50.735189 -14.943915)scale(0.697382)"/>
     </g>
    </g>
    <g id="patch_190">
     <path d="M 499.516528 71.076624 
L 525.516528 71.076624 
L 525.516528 61.976624 
L 499.516528 61.976624 
z
" style="fill: #006400; opacity: 0.3"/>
    </g>
    <g id="text_16">
     <!-- $k_3$ -->
     <g transform="translate(535.916528 71.076624)scale(0.13 -0.13)">
      <use xlink:href="#CMMI12-6b" transform="scale(0.996264)"/>
      <use xlink:href="#CMR17-33" transform="translate(50.735189 -14.943915)scale(0.697382)"/>
     </g>
    </g>
   </g>
  </g>
 </g>
 <defs>
  <clipPath id="p39e347253d">
   <rect x="37.244112" y="14.04" width="521.626843" height="151.988575"/>
  </clipPath>
 </defs>
</svg>
