<?xml version="1.0" encoding="utf-8" standalone="no"?>
<!DOCTYPE svg PUBLIC "-//W3C//DTD SVG 1.1//EN"
  "http://www.w3.org/Graphics/SVG/1.1/DTD/svg11.dtd">
<svg xmlns:xlink="http://www.w3.org/1999/xlink" width="576pt" height="288pt" viewBox="0 0 576 288" xmlns="http://www.w3.org/2000/svg" version="1.1">
 <metadata>
  <rdf:RDF xmlns:dc="http://purl.org/dc/elements/1.1/" xmlns:cc="http://creativecommons.org/ns#" xmlns:rdf="http://www.w3.org/1999/02/22-rdf-syntax-ns#">
   <cc:Work>
    <dc:type rdf:resource="http://purl.org/dc/dcmitype/StillImage"/>
    <dc:date>2023-06-13T11:47:21.582921</dc:date>
    <dc:format>image/svg+xml</dc:format>
    <dc:creator>
     <cc:Agent>
      <dc:title>Matplotlib v3.5.3, https://matplotlib.org/</dc:title>
     </cc:Agent>
    </dc:creator>
   </cc:Work>
  </rdf:RDF>
 </metadata>
 <defs>
  <style type="text/css">*{stroke-linejoin: round; stroke-linecap: butt}</style>
 </defs>
 <g id="figure_1">
  <g id="patch_1">
   <path d="M 0 288 
L 576 288 
L 576 0 
L 0 0 
L 0 288 
z
" style="fill: none"/>
  </g>
  <g id="axes_1">
   <g id="patch_2">
    <path d="M 72 143.28 
L 518.4 143.28 
L 518.4 34.56 
L 72 34.56 
z
" style="fill: #ffffff"/>
   </g>
   <g id="matplotlib.axis_1"/>
   <g id="matplotlib.axis_2">
    <g id="ytick_1">
     <g id="line2d_1">
      <defs>
       <path id="m766129ce04" d="M 0 0 
L -3.5 0 
" style="stroke: #000000; stroke-width: 0.8"/>
      </defs>
      <g>
       <use xlink:href="#m766129ce04" x="72" y="127.181439" style="stroke: #000000; stroke-width: 0.8"/>
      </g>
     </g>
     <g id="text_1">
      <!-- $\mathdefault{−0.02}$ -->
      <g transform="translate(32.381779 131.678454)scale(0.13 -0.13)">
       <defs>
        <path id="CMSY10-0" d="M 4218 1472 
C 4326 1472 4442 1472 4442 1600 
C 4442 1728 4326 1728 4218 1728 
L 755 1728 
C 646 1728 531 1728 531 1600 
C 531 1472 646 1472 755 1472 
L 4218 1472 
z
" transform="scale(0.015625)"/>
        <path id="CMR17-30" d="M 2688 2025 
C 2688 2416 2682 3080 2413 3591 
C 2176 4039 1798 4198 1466 4198 
C 1158 4198 768 4058 525 3597 
C 269 3118 243 2524 243 2025 
C 243 1661 250 1106 448 619 
C 723 -39 1216 -128 1466 -128 
C 1760 -128 2208 -7 2470 600 
C 2662 1042 2688 1559 2688 2025 
z
M 1466 -26 
C 1056 -26 813 325 723 812 
C 653 1188 653 1738 653 2096 
C 653 2588 653 2997 736 3387 
C 858 3929 1216 4096 1466 4096 
C 1728 4096 2067 3923 2189 3400 
C 2272 3036 2278 2607 2278 2096 
C 2278 1680 2278 1169 2202 792 
C 2067 95 1690 -26 1466 -26 
z
" transform="scale(0.015625)"/>
        <path id="CMMI12-3a" d="M 1178 307 
C 1178 492 1024 619 870 619 
C 685 619 557 466 557 313 
C 557 128 710 0 864 0 
C 1050 0 1178 153 1178 307 
z
" transform="scale(0.015625)"/>
        <path id="CMR17-32" d="M 2669 989 
L 2554 989 
C 2490 536 2438 459 2413 420 
C 2381 369 1920 369 1830 369 
L 602 369 
C 832 619 1280 1072 1824 1597 
C 2214 1967 2669 2402 2669 3035 
C 2669 3790 2067 4224 1395 4224 
C 691 4224 262 3604 262 3030 
C 262 2780 448 2748 525 2748 
C 589 2748 781 2787 781 3010 
C 781 3207 614 3264 525 3264 
C 486 3264 448 3258 422 3245 
C 544 3790 915 4058 1306 4058 
C 1862 4058 2227 3617 2227 3035 
C 2227 2479 1901 2000 1536 1584 
L 262 146 
L 262 0 
L 2515 0 
L 2669 989 
z
" transform="scale(0.015625)"/>
       </defs>
       <use xlink:href="#CMSY10-0" transform="scale(0.996264)"/>
       <use xlink:href="#CMR17-30" transform="translate(77.487468 0)scale(0.996264)"/>
       <use xlink:href="#CMMI12-3a" transform="translate(123.177945 0)scale(0.996264)"/>
       <use xlink:href="#CMR17-30" transform="translate(150.275122 0)scale(0.996264)"/>
       <use xlink:href="#CMR17-32" transform="translate(195.965599 0)scale(0.996264)"/>
      </g>
     </g>
    </g>
    <g id="ytick_2">
     <g id="line2d_2">
      <g>
       <use xlink:href="#m766129ce04" x="72" y="88.930783" style="stroke: #000000; stroke-width: 0.8"/>
      </g>
     </g>
     <g id="text_2">
      <!-- $\mathdefault{0.00}$ -->
      <g transform="translate(42.455149 93.427797)scale(0.13 -0.13)">
       <use xlink:href="#CMR17-30" transform="scale(0.996264)"/>
       <use xlink:href="#CMMI12-3a" transform="translate(45.690477 0)scale(0.996264)"/>
       <use xlink:href="#CMR17-30" transform="translate(72.787654 0)scale(0.996264)"/>
       <use xlink:href="#CMR17-30" transform="translate(118.478131 0)scale(0.996264)"/>
      </g>
     </g>
    </g>
    <g id="ytick_3">
     <g id="line2d_3">
      <g>
       <use xlink:href="#m766129ce04" x="72" y="50.680127" style="stroke: #000000; stroke-width: 0.8"/>
      </g>
     </g>
     <g id="text_3">
      <!-- $\mathdefault{0.02}$ -->
      <g transform="translate(42.455149 55.177141)scale(0.13 -0.13)">
       <use xlink:href="#CMR17-30" transform="scale(0.996264)"/>
       <use xlink:href="#CMMI12-3a" transform="translate(45.690477 0)scale(0.996264)"/>
       <use xlink:href="#CMR17-30" transform="translate(72.787654 0)scale(0.996264)"/>
       <use xlink:href="#CMR17-32" transform="translate(118.478131 0)scale(0.996264)"/>
      </g>
     </g>
    </g>
    <g id="text_4">
     <!-- displacement (m) -->
     <g transform="translate(25.143921 137.039159)rotate(-90)scale(0.13 -0.13)">
      <defs>
       <path id="CMR17-64" d="M 1869 4326 
L 1869 4160 
C 2246 4160 2304 4122 2304 3820 
L 2304 2345 
C 2278 2377 2016 2790 1498 2790 
C 845 2790 211 2208 211 1364 
C 211 525 806 -64 1434 -64 
C 1978 -64 2259 337 2291 380 
L 2291 -63 
L 3066 -63 
L 3066 128 
C 2688 128 2630 166 2630 473 
L 2630 4396 
L 1869 4326 
z
M 2291 755 
C 2291 563 2176 390 2029 262 
C 1811 70 1594 38 1472 38 
C 1286 38 621 134 621 1356 
C 621 2612 1363 2688 1530 2688 
C 1824 2688 2061 2522 2208 2291 
C 2291 2157 2291 2138 2291 2023 
L 2291 755 
z
" transform="scale(0.015625)"/>
       <path id="CMR17-69" d="M 992 3909 
C 992 4049 877 4170 730 4170 
C 589 4170 467 4056 467 3909 
C 467 3769 582 3648 730 3648 
C 870 3648 992 3763 992 3909 
z
M 243 2706 
L 243 2541 
C 602 2541 653 2502 653 2197 
L 653 427 
C 653 184 627 153 218 153 
L 218 -13 
C 371 0 646 0 806 0 
C 960 0 1222 0 1370 -13 
L 1370 153 
C 992 153 979 191 979 420 
L 979 2776 
L 243 2706 
z
" transform="scale(0.015625)"/>
       <path id="CMR17-73" d="M 1978 2697 
C 1978 2813 1971 2819 1933 2819 
C 1907 2819 1901 2813 1824 2717 
C 1805 2691 1747 2626 1728 2601 
C 1523 2819 1235 2819 1126 2819 
C 416 2819 160 2447 160 2076 
C 160 1498 813 1365 998 1325 
C 1402 1243 1542 1217 1677 1101 
C 1760 1025 1901 884 1901 654 
C 1901 384 1747 38 1158 38 
C 602 38 403 460 288 1021 
C 269 1110 269 1117 218 1117 
C 166 1117 160 1110 160 983 
L 160 63 
C 160 -51 166 -58 205 -58 
C 237 -58 243 -51 275 0 
C 314 57 410 211 448 276 
C 576 103 800 -64 1158 -64 
C 1792 -64 2131 283 2131 784 
C 2131 1112 1958 1285 1875 1362 
C 1683 1561 1459 1606 1190 1657 
C 838 1735 390 1825 390 2217 
C 390 2383 480 2737 1126 2737 
C 1811 2737 1850 2094 1862 1888 
C 1869 1856 1901 1849 1920 1849 
C 1978 1849 1978 1869 1978 1978 
L 1978 2697 
z
" transform="scale(0.015625)"/>
       <path id="CMR17-70" d="M 1408 -1063 
C 998 -1063 973 -1037 973 -789 
L 973 402 
C 1158 134 1427 -38 1766 -38 
C 2406 -38 3053 523 3053 1388 
C 3053 2191 2496 2802 1837 2802 
C 1453 2802 1139 2592 960 2338 
L 960 2802 
L 198 2732 
L 198 2567 
C 576 2567 634 2528 634 2223 
L 634 -789 
C 634 -1031 608 -1063 198 -1063 
L 198 -1228 
C 352 -1216 634 -1216 800 -1216 
C 966 -1216 1254 -1216 1408 -1228 
L 1408 -1063 
z
M 973 2012 
C 973 2102 973 2235 1222 2471 
C 1254 2497 1472 2688 1792 2688 
C 2259 2688 2643 2108 2643 1382 
C 2643 656 2234 64 1728 64 
C 1498 64 1248 172 1056 472 
C 973 612 973 650 973 752 
L 973 2012 
z
" transform="scale(0.015625)"/>
       <path id="CMR17-6c" d="M 979 4396 
L 218 4326 
L 218 4160 
C 595 4160 653 4122 653 3817 
L 653 426 
C 653 184 627 153 218 153 
L 218 -13 
C 371 0 653 0 813 0 
C 979 0 1261 0 1414 -13 
L 1414 153 
C 1005 153 979 178 979 426 
L 979 4396 
z
" transform="scale(0.015625)"/>
       <path id="CMR17-61" d="M 2304 1653 
C 2304 2072 2304 2294 2035 2543 
C 1798 2752 1523 2816 1306 2816 
C 800 2816 435 2407 435 1971 
C 435 1728 627 1728 666 1728 
C 749 1728 896 1778 896 1954 
C 896 2112 774 2181 666 2181 
C 640 2181 608 2174 589 2168 
C 723 2592 1069 2714 1293 2714 
C 1613 2714 1965 2429 1965 1885 
L 1965 1600 
C 1587 1600 1133 1549 774 1357 
C 371 1133 256 813 256 570 
C 256 77 832 -64 1171 -64 
C 1523 -64 1850 139 1990 511 
C 2003 233 2182 -18 2464 -18 
C 2598 -18 2938 70 2938 567 
L 2938 920 
L 2822 920 
L 2822 562 
C 2822 178 2650 128 2566 128 
C 2304 128 2304 458 2304 738 
L 2304 1653 
z
M 1965 870 
C 1965 317 1568 38 1216 38 
C 896 38 646 275 646 570 
C 646 761 730 1100 1101 1305 
C 1408 1478 1760 1504 1965 1504 
L 1965 870 
z
" transform="scale(0.015625)"/>
       <path id="CMR17-63" d="M 2234 2240 
C 2112 2240 1933 2240 1933 2017 
C 1933 1838 2080 1787 2163 1787 
C 2208 1787 2394 1807 2394 2024 
C 2394 2467 1958 2803 1466 2803 
C 787 2803 211 2178 211 1363 
C 211 516 813 -64 1466 -64 
C 2259 -64 2458 677 2458 748 
C 2458 774 2451 793 2406 793 
C 2362 793 2355 787 2330 703 
C 2163 180 1798 51 1523 51 
C 1114 51 621 427 621 1369 
C 621 2338 1094 2688 1472 2688 
C 1722 2688 2093 2573 2234 2240 
z
" transform="scale(0.015625)"/>
       <path id="CMR17-65" d="M 2438 1472 
C 2464 1498 2464 1511 2464 1576 
C 2464 2238 2118 2816 1389 2816 
C 710 2816 173 2169 173 1383 
C 173 551 781 -64 1459 -64 
C 2176 -64 2458 607 2458 740 
C 2458 784 2419 784 2406 784 
C 2362 784 2355 771 2330 696 
C 2189 265 1837 51 1504 51 
C 1229 51 954 203 781 480 
C 582 803 582 1176 582 1472 
L 2438 1472 
z
M 589 1568 
C 634 2505 1126 2714 1382 2714 
C 1818 2714 2112 2297 2118 1568 
L 589 1568 
z
" transform="scale(0.015625)"/>
       <path id="CMR17-6d" d="M 4326 1933 
C 4326 2252 4269 2790 3507 2790 
C 3072 2790 2771 2496 2656 2151 
L 2650 2151 
C 2573 2676 2195 2790 1837 2790 
C 1331 2790 1069 2400 973 2144 
L 966 2144 
L 966 2790 
L 211 2720 
L 211 2554 
C 589 2554 646 2515 646 2208 
L 646 428 
C 646 184 621 153 211 153 
L 211 -13 
C 365 0 646 0 813 0 
C 979 0 1267 0 1421 -13 
L 1421 153 
C 1011 153 986 178 986 428 
L 986 1658 
C 986 2247 1344 2688 1792 2688 
C 2266 2688 2317 2266 2317 1958 
L 2317 428 
C 2317 184 2291 153 1882 153 
L 1882 -13 
C 2035 0 2317 0 2483 0 
C 2650 0 2938 0 3091 -13 
L 3091 153 
C 2682 153 2656 178 2656 428 
L 2656 1658 
C 2656 2247 3014 2688 3462 2688 
C 3936 2688 3987 2266 3987 1958 
L 3987 428 
C 3987 184 3962 153 3552 153 
L 3552 -13 
C 3706 0 3987 0 4154 0 
C 4320 0 4608 0 4762 -13 
L 4762 153 
C 4352 153 4326 178 4326 428 
L 4326 1933 
z
" transform="scale(0.015625)"/>
       <path id="CMR17-6e" d="M 2656 1933 
C 2656 2259 2592 2790 1837 2790 
C 1331 2790 1069 2400 973 2144 
L 966 2144 
L 966 2790 
L 211 2720 
L 211 2554 
C 589 2554 646 2515 646 2208 
L 646 428 
C 646 184 621 153 211 153 
L 211 -13 
C 365 0 646 0 813 0 
C 979 0 1267 0 1421 -13 
L 1421 153 
C 1011 153 986 178 986 428 
L 986 1658 
C 986 2247 1344 2688 1792 2688 
C 2266 2688 2317 2266 2317 1958 
L 2317 428 
C 2317 184 2291 153 1882 153 
L 1882 -13 
C 2035 0 2317 0 2483 0 
C 2650 0 2938 0 3091 -13 
L 3091 153 
C 2682 153 2656 178 2656 428 
L 2656 1933 
z
" transform="scale(0.015625)"/>
       <path id="CMR17-74" d="M 966 2560 
L 1862 2560 
L 1862 2725 
L 966 2725 
L 966 3904 
L 851 3904 
C 838 3245 614 2668 70 2668 
L 70 2560 
L 627 2560 
L 627 771 
C 627 650 627 -64 1370 -64 
C 1747 -64 1965 306 1965 777 
L 1965 1140 
L 1850 1140 
L 1850 783 
C 1850 344 1677 51 1408 51 
C 1222 51 966 178 966 758 
L 966 2560 
z
" transform="scale(0.015625)"/>
       <path id="CMR17-28" d="M 1958 -1561 
C 1958 -1555 1958 -1542 1939 -1523 
C 1645 -1224 858 -407 858 1581 
C 858 3569 1632 4379 1946 4697 
C 1946 4704 1958 4717 1958 4736 
C 1958 4755 1939 4768 1914 4768 
C 1843 4768 1299 4296 986 3594 
C 666 2887 576 2199 576 1588 
C 576 1128 621 351 1005 -471 
C 1312 -1135 1837 -1600 1914 -1600 
C 1946 -1600 1958 -1587 1958 -1561 
z
" transform="scale(0.015625)"/>
       <path id="CMR17-29" d="M 1683 1581 
C 1683 2040 1638 2817 1254 3639 
C 947 4303 422 4768 346 4768 
C 326 4768 301 4761 301 4729 
C 301 4717 307 4710 314 4697 
C 621 4378 1402 3568 1402 1584 
C 1402 -407 627 -1217 314 -1537 
C 307 -1549 301 -1556 301 -1568 
C 301 -1600 326 -1600 346 -1600 
C 416 -1600 960 -1128 1274 -426 
C 1594 281 1683 969 1683 1581 
z
" transform="scale(0.015625)"/>
      </defs>
      <use xlink:href="#CMR17-64" transform="scale(0.996264)"/>
      <use xlink:href="#CMR17-69" transform="translate(50.89537 0)scale(0.996264)"/>
      <use xlink:href="#CMR17-73" transform="translate(75.766428 0)scale(0.996264)"/>
      <use xlink:href="#CMR17-70" transform="translate(111.567766 0)scale(0.996264)"/>
      <use xlink:href="#CMR17-6c" transform="translate(162.463136 0)scale(0.996264)"/>
      <use xlink:href="#CMR17-61" transform="translate(187.334194 0)scale(0.996264)"/>
      <use xlink:href="#CMR17-63" transform="translate(233.024671 0)scale(0.996264)"/>
      <use xlink:href="#CMR17-65" transform="translate(273.510332 0)scale(0.996264)"/>
      <use xlink:href="#CMR17-6d" transform="translate(313.995992 0)scale(0.996264)"/>
      <use xlink:href="#CMR17-65" transform="translate(390.915582 0)scale(0.996264)"/>
      <use xlink:href="#CMR17-6e" transform="translate(431.401243 0)scale(0.996264)"/>
      <use xlink:href="#CMR17-74" transform="translate(479.694158 0)scale(0.996264)"/>
      <use xlink:href="#CMR17-28" transform="translate(545.050893 0)scale(0.996264)"/>
      <use xlink:href="#CMR17-6d" transform="translate(580.33166 0)scale(0.996264)"/>
      <use xlink:href="#CMR17-29" transform="translate(657.25125 0)scale(0.996264)"/>
     </g>
    </g>
   </g>
   <g id="line2d_4">
    <path d="M 92.290909 138.134788 
L 93.104172 136.016235 
L 93.917435 129.842836 
L 94.730698 120.1457 
L 96.357224 93.748758 
L 97.983749 65.714766 
L 98.797012 54.103554 
L 99.610275 45.485956 
L 100.423538 40.604072 
L 101.236801 39.878781 
L 102.050064 43.373526 
L 102.863327 50.788818 
L 103.67659 61.48796 
L 105.303115 88.857561 
L 106.929641 116.275334 
L 107.742904 127.03011 
L 108.556167 134.515148 
L 109.36943 138.086508 
L 110.182693 137.436577 
L 110.995956 132.62054 
L 111.809218 124.051658 
L 112.622481 112.465754 
L 115.875533 57.852704 
L 116.688796 48.049058 
L 117.502059 41.756964 
L 118.315322 39.516577 
L 119.128584 41.51981 
L 119.941847 47.593857 
L 120.75511 57.216067 
L 122.381636 83.561076 
L 124.008162 111.689481 
L 124.821425 123.398099 
L 125.634688 132.138692 
L 126.44795 137.160586 
L 127.261213 138.032969 
L 128.074476 134.681899 
L 128.887739 127.396625 
L 129.701002 116.80469 
L 131.327528 89.554035 
L 132.954054 62.10866 
L 133.767316 51.288548 
L 134.580579 43.710954 
L 135.393842 40.027757 
L 136.207105 40.555785 
L 137.020368 45.249569 
L 137.833631 53.705255 
L 138.646894 65.195338 
L 141.899945 119.694462 
L 142.713208 129.538954 
L 143.526471 135.891826 
L 144.339734 138.205713 
L 145.152997 136.280571 
L 145.96626 130.280912 
L 146.779523 120.721692 
L 148.406048 94.444783 
L 150.032574 66.288876 
L 150.845837 54.532852 
L 151.6591 45.728265 
L 152.472363 40.632486 
L 153.285626 39.684173 
L 154.098889 42.965536 
L 154.912152 50.195254 
L 155.725414 60.752629 
L 157.35194 88.015343 
L 158.978466 115.587243 
L 159.791729 126.506181 
L 160.604992 134.197704 
L 161.418255 138.001348 
L 162.231518 137.590811 
L 163.04478 133.001981 
L 163.858043 124.629835 
L 164.671306 113.194462 
L 167.924358 58.559774 
L 168.737621 48.600396 
L 169.550884 42.112449 
L 170.364146 39.65282 
L 171.177409 41.431939 
L 171.990672 47.295722 
L 172.803935 56.738855 
L 173.617198 68.948273 
L 176.87025 122.842475 
L 177.683512 131.731695 
L 178.496775 136.934547 
L 179.310038 138.003505 
L 180.123301 134.846689 
L 180.936564 127.735766 
L 181.749827 117.282583 
L 183.376353 90.157261 
L 185.002878 62.605953 
L 185.816141 51.654971 
L 186.629404 43.908894 
L 187.442667 40.034882 
L 188.25593 40.367133 
L 189.069193 44.878111 
L 189.882456 53.180882 
L 190.695719 64.562353 
L 193.94877 119.208715 
L 194.762033 129.225306 
L 195.575296 135.783195 
L 196.388559 138.318037 
L 197.201822 136.611231 
L 198.015085 130.808736 
L 198.828348 121.408549 
L 199.64161 109.217911 
L 202.894662 55.11968 
L 203.707925 46.122436 
L 204.521188 40.80181 
L 205.334451 39.614517 
L 206.147714 42.662028 
L 206.960976 49.681866 
L 207.774239 60.070184 
L 209.400765 87.166504 
L 211.027291 114.833803 
L 211.840554 125.89057 
L 212.653817 133.765572 
L 213.46708 137.782643 
L 214.280343 137.597424 
L 215.093605 133.226943 
L 215.906868 125.048116 
L 216.720131 113.765302 
L 219.973183 59.164806 
L 220.786446 49.072546 
L 221.599709 42.413585 
L 222.412971 39.760684 
L 223.226234 41.341949 
L 224.039497 47.021218 
L 224.85276 56.309773 
L 225.666023 68.408377 
L 228.919075 122.419253 
L 229.732337 131.463745 
L 230.5456 136.850363 
L 231.358863 138.114844 
L 232.172126 135.147418 
L 232.985389 128.202281 
L 233.798652 117.875767 
L 235.425178 90.842136 
L 237.051703 63.141156 
L 237.864966 52.034894 
L 238.678229 44.095045 
L 239.491492 40.004751 
L 240.304755 40.116331 
L 241.118018 44.420963 
L 241.931281 52.549426 
L 242.744544 63.803811 
L 245.997595 118.565544 
L 246.810858 128.758867 
L 247.624121 135.531685 
L 248.437384 138.302443 
L 249.250647 136.833543 
L 250.06391 131.251759 
L 250.877173 122.037318 
L 251.690435 109.982601 
L 254.943487 55.793561 
L 255.75675 46.627435 
L 256.570013 41.101743 
L 257.383276 39.690572 
L 258.196539 42.514166 
L 259.009801 49.328617 
L 259.823064 59.546875 
L 261.44959 86.459137 
L 263.076116 114.186496 
L 263.889379 125.358518 
L 264.702642 133.392261 
L 265.515905 137.596721 
L 266.329167 137.610351 
L 267.14243 133.432146 
L 267.955693 125.421724 
L 268.768956 114.268395 
L 270.395482 86.559737 
L 272.022008 59.63837 
L 272.835271 49.406104 
L 273.648533 42.572862 
L 274.461796 39.727301 
L 275.275059 41.11515 
L 276.088322 46.618048 
L 276.901585 55.763691 
L 277.714848 67.766416 
L 280.967899 121.978902 
L 281.781162 131.203696 
L 282.594425 136.799382 
L 283.407688 138.284231 
L 284.220951 135.52982 
L 285.034214 128.772097 
L 285.847477 118.591124 
L 287.474003 91.675862 
L 289.100528 63.833467 
L 289.913791 52.568304 
L 290.727054 44.425804 
L 291.540317 40.10527 
L 292.35358 39.97753 
L 293.166843 44.053065 
L 293.980106 51.981128 
L 294.793369 63.079915 
L 296.419894 90.782317 
L 298.04642 117.840108 
L 298.859683 128.18566 
L 299.672946 135.152735 
L 300.486209 138.143297 
L 301.299472 136.901292 
L 302.112735 131.534634 
L 302.925997 122.505889 
L 303.73926 110.592467 
L 306.992312 56.37949 
L 307.805575 47.069083 
L 308.618838 41.364394 
L 309.432101 39.756 
L 310.245363 42.382064 
L 311.058626 49.016456 
L 311.871889 59.088214 
L 313.498415 85.855875 
L 315.124941 113.669687 
L 315.938204 124.964587 
L 316.751467 133.160807 
L 317.564729 137.552493 
L 318.377992 137.760961 
L 319.191255 133.767299 
L 320.004518 125.91402 
L 320.817781 114.87564 
L 322.444307 87.23024 
L 324.070833 60.132591 
L 324.884095 49.735545 
L 325.697358 42.702896 
L 326.510621 39.6399 
L 327.323884 40.810651 
L 328.137147 46.115348 
L 328.95041 55.098852 
L 329.763673 66.989786 
L 333.016724 121.384593 
L 333.829987 130.797549 
L 334.64325 136.615256 
L 335.456513 138.338182 
L 336.269776 135.818713 
L 337.083039 129.27383 
L 337.896302 119.266441 
L 339.522827 92.529399 
L 341.149353 64.603108 
L 341.962616 53.204228 
L 342.775879 44.880605 
L 343.589142 40.346933 
L 344.402405 39.991955 
L 345.215668 43.845077 
L 346.028931 51.573868 
L 346.842193 62.512687 
L 348.468719 90.059092 
L 350.095245 117.207027 
L 350.908508 127.680392 
L 351.721771 134.815658 
L 352.535034 137.999209 
L 353.348297 136.957412 
L 354.161559 131.780142 
L 354.974822 122.913045 
L 355.788085 111.119204 
L 359.041137 56.827797 
L 359.8544 47.36888 
L 360.667663 41.484902 
L 361.480925 39.682867 
L 362.294188 42.118724 
L 363.107451 48.583927 
L 363.920714 58.523337 
L 365.54724 85.183215 
L 367.173766 113.128783 
L 367.987029 124.571083 
L 368.800291 132.95473 
L 369.613554 137.558332 
L 370.426817 137.985354 
L 371.24008 134.198234 
L 372.053343 126.521642 
L 372.866606 115.614591 
L 374.493132 88.053224 
L 376.119657 60.781025 
L 376.93292 50.212343 
L 377.746183 42.968335 
L 378.559446 39.671146 
L 379.372709 40.603722 
L 380.185972 45.685498 
L 380.999235 54.479338 
L 381.812498 66.229125 
L 385.065549 120.692204 
L 385.878812 130.270975 
L 386.692075 136.292639 
L 387.505338 138.240498 
L 388.318601 135.948182 
L 389.131864 129.613917 
L 389.945127 119.783447 
L 391.571652 93.246859 
L 393.198178 65.275998 
L 394.011441 53.767587 
L 394.824704 45.288865 
L 395.637967 40.568997 
L 396.45123 40.013748 
L 397.264493 43.670595 
L 398.077756 51.224654 
L 398.891018 62.025769 
L 400.517544 89.451745 
L 402.14407 116.711034 
L 402.957333 127.316948 
L 403.770596 134.621169 
L 404.583859 137.994566 
L 405.397122 137.146062 
L 406.210384 132.147697 
L 407.023647 123.428464 
L 407.83691 111.73744 
L 411.089962 57.279273 
L 411.903225 47.647079 
L 412.716488 41.559213 
L 413.52975 39.539807 
L 414.343013 41.76332 
L 415.156276 48.039509 
L 415.969539 57.829761 
L 417.596065 84.359789 
L 419.222591 112.433616 
L 420.035854 124.02919 
L 420.849116 132.611221 
L 421.662379 137.442541 
L 422.475642 138.10832 
L 423.288905 134.551723 
L 424.102168 127.078777 
L 424.915431 116.332056 
L 426.541957 88.914614 
L 428.168482 61.522939 
L 428.981745 50.805743 
L 429.795008 43.369373 
L 430.608271 39.852178 
L 431.421534 40.555473 
L 432.234797 45.417661 
L 433.04806 54.019565 
L 433.861323 65.620509 
L 437.114374 120.077035 
L 437.927637 129.795686 
L 438.7409 135.994268 
L 439.554163 138.13984 
L 440.367426 136.048149 
L 441.180689 129.899472 
L 441.993952 120.223096 
L 443.620477 93.850188 
L 445.247003 65.81238 
L 446.060266 54.189168 
L 446.873529 45.554093 
L 447.686792 40.650727 
L 448.500055 39.90171 
L 449.313318 43.372384 
L 450.12658 50.765137 
L 450.939843 61.444972 
L 452.566369 88.79077 
L 454.192895 116.208358 
L 455.006158 126.971414 
L 455.819421 134.469089 
L 456.632684 138.056057 
L 457.445946 137.423098 
L 458.259209 132.623709 
L 459.072472 124.069538 
L 459.885735 112.495014 
L 463.138787 57.879954 
L 463.95205 48.064507 
L 464.765312 41.757911 
L 465.578575 39.501818 
L 466.391838 41.489776 
L 467.205101 47.550601 
L 468.018364 57.163107 
L 469.64489 83.503525 
L 471.271416 111.64972 
L 472.084678 123.374717 
L 472.897941 132.135237 
L 473.711204 137.179063 
L 474.524467 138.073608 
L 475.33773 134.74308 
L 476.150993 127.474965 
L 476.964256 116.895264 
L 478.590782 89.650103 
L 480.217307 62.182964 
L 481.03057 51.343056 
L 481.843833 43.741418 
L 482.657096 40.031666 
L 483.470359 40.532579 
L 484.283622 45.200692 
L 485.096885 53.634052 
L 485.910148 65.106789 
L 489.163199 119.603563 
L 489.976462 129.463856 
L 490.789725 135.837123 
L 491.602988 138.174321 
L 492.416251 136.273537 
L 493.229514 130.297371 
L 494.042776 120.758992 
L 494.856039 108.478026 
L 497.295828 66.358882 
L 498.109091 54.59645 
L 498.109091 54.59645 
" clip-path="url(#p40049fc80b)" style="fill: none; stroke: #ff0000; stroke-linecap: square"/>
   </g>
   <g id="line2d_5">
    <path d="M 92.290909 138.134788 
L 96.357224 128.166529 
L 97.983749 123.06605 
L 98.797012 119.969382 
L 99.610275 116.400219 
L 101.236801 107.825257 
L 102.863327 98.126759 
L 103.67659 92.641933 
L 104.489852 86.198593 
L 106.116378 72.417428 
L 106.929641 68.877231 
L 107.742904 68.478131 
L 108.556167 71.073191 
L 109.36943 76.303483 
L 110.995956 89.630224 
L 111.809218 95.203088 
L 113.435744 103.985149 
L 114.249007 107.934179 
L 115.06227 111.183675 
L 115.875533 113.04509 
L 116.688796 113.032112 
L 117.502059 111.46738 
L 118.315322 108.875768 
L 119.128584 105.616361 
L 119.941847 101.385086 
L 120.75511 95.712078 
L 121.568373 88.279153 
L 123.194899 69.439342 
L 124.008162 59.408318 
L 124.821425 52.199224 
L 125.634688 50.345931 
L 126.44795 52.866154 
L 127.261213 57.898572 
L 128.887739 70.75693 
L 130.514265 87.347261 
L 132.140791 104.329405 
L 132.954054 110.753219 
L 133.767316 115.605924 
L 134.580579 119.170659 
L 135.393842 121.593546 
L 136.207105 122.47264 
L 137.020368 121.268981 
L 137.833631 117.66462 
L 138.646894 112.225659 
L 141.086682 92.024055 
L 142.713208 79.207351 
L 143.526471 74.513388 
L 144.339734 72.280819 
L 145.152997 73.134591 
L 145.96626 76.111349 
L 146.779523 80.073746 
L 147.592786 84.776777 
L 149.219311 96.189827 
L 150.032574 102.092647 
L 150.845837 107.121702 
L 151.6591 110.647448 
L 152.472363 112.663275 
L 153.285626 113.318309 
L 154.098889 112.709592 
L 154.912152 110.725835 
L 155.725414 107.203668 
L 156.538677 102.084936 
L 158.165203 88.613849 
L 159.791729 74.280771 
L 160.604992 68.455753 
L 161.418255 64.349818 
L 162.231518 62.032688 
L 163.04478 61.444954 
L 163.858043 62.636187 
L 164.671306 66.091878 
L 165.484569 72.4065 
L 167.924358 98.959599 
L 168.737621 104.966269 
L 170.364146 114.6168 
L 171.177409 118.144215 
L 171.990672 119.700704 
L 172.803935 118.630867 
L 173.617198 115.255169 
L 174.430461 110.13804 
L 176.056987 96.925157 
L 177.683512 83.443826 
L 178.496775 77.969049 
L 179.310038 74.051278 
L 180.123301 72.044142 
L 180.936564 71.580124 
L 181.749827 72.111423 
L 182.56309 73.252534 
L 183.376353 75.267146 
L 184.189616 78.581248 
L 185.002878 83.41664 
L 187.442667 100.378298 
L 188.25593 104.782539 
L 189.069193 108.045183 
L 189.882456 109.945777 
L 190.695719 110.321352 
L 191.508982 109.023306 
L 192.322244 105.995986 
L 193.135507 101.555519 
L 194.762033 90.004242 
L 196.388559 76.029383 
L 197.201822 68.593163 
L 198.015085 63.106126 
L 198.828348 61.497643 
L 199.64161 63.308679 
L 200.454873 67.483094 
L 201.268136 73.059251 
L 205.334451 104.356726 
L 206.147714 108.777794 
L 206.960976 111.917659 
L 207.774239 113.504098 
L 208.587502 113.369096 
L 209.400765 111.761469 
L 210.214028 109.034235 
L 211.027291 105.523131 
L 212.653817 97.198389 
L 214.280343 88.131505 
L 216.720131 72.657861 
L 217.533394 70.345122 
L 218.346657 70.22461 
L 219.15992 71.767167 
L 219.973183 74.511314 
L 220.786446 78.266296 
L 221.599709 82.909037 
L 224.039497 98.903276 
L 224.85276 103.175692 
L 225.666023 106.461967 
L 226.479286 108.733694 
L 227.292549 109.901102 
L 228.105812 109.628943 
L 228.919075 107.520602 
L 229.732337 103.388424 
L 231.358863 91.854226 
L 232.985389 80.972282 
L 233.798652 76.865433 
L 234.611915 74.094785 
L 235.425178 73.021535 
L 236.238441 74.013027 
L 237.051703 77.090739 
L 237.864966 80.892681 
L 239.491492 86.931742 
L 240.304755 90.007266 
L 241.931281 98.031884 
L 243.557807 106.535402 
L 244.371069 109.872096 
L 245.184332 111.881177 
L 245.997595 112.134155 
L 246.810858 110.671694 
L 247.624121 107.651747 
L 248.437384 103.254342 
L 249.250647 97.747806 
L 250.877173 84.621805 
L 252.503698 71.865526 
L 253.316961 67.133011 
L 254.130224 64.349996 
L 254.943487 64.17168 
L 255.75675 66.947696 
L 256.570013 71.805418 
L 260.636327 101.022347 
L 261.44959 105.258349 
L 262.262853 108.528021 
L 263.076116 110.683473 
L 263.889379 111.575172 
L 264.702642 111.071539 
L 265.515905 109.112827 
L 266.329167 105.657249 
L 267.14243 100.787119 
L 269.582219 83.927949 
L 270.395482 79.614848 
L 271.208745 76.734288 
L 272.022008 75.55006 
L 272.835271 75.655766 
L 273.648533 76.477462 
L 274.461796 77.701683 
L 275.275059 80.056874 
L 276.088322 84.531958 
L 277.714848 98.449732 
L 278.528111 103.169053 
L 279.341374 105.843238 
L 280.154637 107.362135 
L 280.967899 108.376208 
L 281.781162 108.578393 
L 282.594425 107.422243 
L 283.407688 104.589851 
L 286.66074 88.695533 
L 287.474003 83.930876 
L 289.100528 72.07239 
L 289.913791 67.472165 
L 290.727054 65.318134 
L 291.540317 65.350947 
L 292.35358 66.974906 
L 293.166843 69.729601 
L 293.980106 73.695769 
L 294.793369 79.089436 
L 297.233157 99.679218 
L 298.04642 104.564154 
L 298.859683 108.003581 
L 299.672946 110.471367 
L 300.486209 112.270334 
L 301.299472 113.019122 
L 302.112735 112.165325 
L 302.925997 109.416466 
L 306.179049 94.082101 
L 306.992312 88.701279 
L 308.618838 74.952901 
L 309.432101 72.112438 
L 310.245363 72.441675 
L 311.058626 74.701539 
L 311.871889 77.884886 
L 312.685152 81.912298 
L 313.498415 86.936285 
L 315.124941 98.805345 
L 315.938204 103.509748 
L 316.751467 106.127635 
L 317.564729 107.022034 
L 318.377992 106.864877 
L 319.191255 106.181824 
L 320.004518 104.913441 
L 320.817781 102.854022 
L 321.631044 99.831792 
L 322.444307 95.810711 
L 323.25757 90.788672 
L 325.697358 73.94199 
L 326.510621 70.558156 
L 327.323884 69.002281 
L 328.137147 69.280875 
L 328.95041 71.33869 
L 329.763673 74.87345 
L 330.576936 79.521122 
L 333.016724 95.630112 
L 333.829987 100.020938 
L 334.64325 103.684042 
L 335.456513 106.815697 
L 336.269776 109.489741 
L 337.083039 111.290282 
L 337.896302 111.678995 
L 338.709565 110.255574 
L 339.522827 107.171785 
L 340.33609 102.717413 
L 343.589142 81.563175 
L 344.402405 78.411703 
L 345.215668 76.723359 
L 346.028931 76.58084 
L 346.842193 77.672167 
L 347.655456 79.586694 
L 348.468719 81.982893 
L 349.281982 84.795698 
L 350.908508 91.629144 
L 352.535034 98.722951 
L 353.348297 101.561952 
L 354.161559 103.657299 
L 354.974822 104.875842 
L 355.788085 105.112651 
L 356.601348 104.37566 
L 357.414611 102.701019 
L 358.227874 100.111482 
L 359.041137 96.576204 
L 359.8544 92.050944 
L 362.294188 76.504784 
L 363.107451 73.441949 
L 363.920714 72.002361 
L 364.733977 72.034922 
L 365.54724 73.42561 
L 366.360503 76.208698 
L 367.173766 80.455531 
L 368.800291 92.42067 
L 370.426817 103.983889 
L 371.24008 108.255173 
L 372.053343 111.312881 
L 372.866606 113.057884 
L 373.679869 113.496775 
L 374.493132 112.662583 
L 375.306395 110.618371 
L 376.119657 107.547346 
L 376.93292 103.66275 
L 378.559446 94.253618 
L 380.999235 78.935908 
L 381.812498 74.65236 
L 382.625761 71.365154 
L 383.439024 69.364414 
L 384.252286 68.92569 
L 385.065549 70.256223 
L 385.878812 73.290009 
L 386.692075 77.892737 
L 389.131864 96.045405 
L 389.945127 100.620451 
L 390.75839 103.655186 
L 391.571652 105.061631 
L 392.384915 104.833114 
L 393.198178 103.288193 
L 394.011441 100.826737 
L 394.824704 97.795583 
L 396.45123 90.509989 
L 398.077756 82.522216 
L 398.891018 79.045721 
L 399.704281 76.363786 
L 400.517544 74.628279 
L 401.330807 73.947455 
L 402.14407 74.444868 
L 402.957333 76.305284 
L 403.770596 79.728768 
L 404.583859 84.737503 
L 407.023647 101.791253 
L 407.83691 106.027582 
L 408.650173 109.143523 
L 409.463436 111.017065 
L 410.276699 111.601811 
L 411.089962 110.870267 
L 411.903225 108.841942 
L 412.716488 105.724367 
L 413.52975 101.772075 
L 415.156276 92.303079 
L 416.782802 82.158053 
L 417.596065 77.804107 
L 418.409328 74.794434 
L 419.222591 73.568698 
L 420.035854 73.650736 
L 421.662379 75.135365 
L 422.475642 76.434029 
L 423.288905 78.83261 
L 424.102168 82.693936 
L 426.541957 96.342455 
L 427.35522 99.752971 
L 428.168482 102.493373 
L 428.981745 104.566768 
L 429.795008 105.757178 
L 430.608271 105.793858 
L 431.421534 104.464784 
L 432.234797 101.792826 
L 433.04806 97.859579 
L 435.487848 83.603013 
L 436.301111 81.035796 
L 437.114374 79.690321 
L 438.7409 78.14712 
L 439.554163 78.390962 
L 440.367426 80.739678 
L 441.180689 85.848089 
L 442.807214 98.575413 
L 443.620477 103.005317 
L 444.43374 106.051845 
L 446.060266 110.853394 
L 446.873529 112.157468 
L 447.686792 111.176272 
L 448.500055 107.139293 
L 450.939843 89.768393 
L 453.379632 76.995214 
L 454.192895 73.482177 
L 455.006158 71.652415 
L 455.819421 72.122607 
L 457.445946 76.034848 
L 459.072472 78.589903 
L 459.885735 80.859895 
L 460.698998 84.855756 
L 462.325524 94.772205 
L 463.138787 98.71296 
L 463.95205 101.512951 
L 464.765312 103.192814 
L 465.578575 103.787936 
L 466.391838 103.392723 
L 467.205101 102.116331 
L 468.018364 100.070455 
L 468.831627 97.376947 
L 471.271416 87.357072 
L 472.084678 84.985501 
L 472.897941 83.901602 
L 473.711204 83.41968 
L 474.524467 82.586639 
L 475.33773 80.894443 
L 476.150993 79.615295 
L 476.964256 80.466459 
L 477.777519 84.46497 
L 479.404044 94.525474 
L 480.217307 98.362512 
L 481.843833 104.408438 
L 482.657096 106.653835 
L 483.470359 108.110755 
L 484.283622 108.56973 
L 485.096885 107.874009 
L 485.910148 105.880021 
L 486.72341 102.444194 
L 488.349936 92.097869 
L 489.163199 86.859783 
L 489.976462 82.625993 
L 490.789725 79.391152 
L 491.602988 76.963792 
L 492.416251 75.337053 
L 493.229514 75.242513 
L 494.042776 77.301457 
L 494.856039 80.955565 
L 498.109091 98.29673 
L 498.109091 98.29673 
" clip-path="url(#p40049fc80b)" style="fill: none; stroke-dasharray: 3.7,1.6; stroke-dashoffset: 0; stroke: #8b0000"/>
   </g>
   <g id="patch_3">
    <path d="M 72 143.28 
L 72 34.56 
" style="fill: none; stroke: #000000; stroke-width: 0.8; stroke-linejoin: miter; stroke-linecap: square"/>
   </g>
   <g id="patch_4">
    <path d="M 518.4 143.28 
L 518.4 34.56 
" style="fill: none; stroke: #000000; stroke-width: 0.8; stroke-linejoin: miter; stroke-linecap: square"/>
   </g>
   <g id="patch_5">
    <path d="M 72 143.28 
L 518.4 143.28 
" style="fill: none; stroke: #000000; stroke-width: 0.8; stroke-linejoin: miter; stroke-linecap: square"/>
   </g>
   <g id="patch_6">
    <path d="M 72 34.56 
L 518.4 34.56 
" style="fill: none; stroke: #000000; stroke-width: 0.8; stroke-linejoin: miter; stroke-linecap: square"/>
   </g>
   <g id="legend_1">
    <g id="patch_7">
     <path d="M 403.061945 81.196624 
L 509.3 81.196624 
Q 511.9 81.196624 511.9 78.596624 
L 511.9 43.66 
Q 511.9 41.06 509.3 41.06 
L 403.061945 41.06 
Q 400.461945 41.06 400.461945 43.66 
L 400.461945 78.596624 
Q 400.461945 81.196624 403.061945 81.196624 
z
" style="fill: #ffffff; opacity: 0.8; stroke: #cccccc; stroke-linejoin: miter"/>
    </g>
    <g id="line2d_6">
     <path d="M 405.661945 50.81 
L 418.661945 50.81 
L 431.661945 50.81 
" style="fill: none; stroke: #ff0000; stroke-linecap: square"/>
    </g>
    <g id="text_5">
     <!-- MCMC -->
     <g transform="translate(442.061945 55.36)scale(0.13 -0.13)">
      <defs>
       <path id="CMR17-4d" d="M 1338 4224 
C 1299 4320 1293 4320 1158 4320 
L 339 4320 
L 339 4160 
C 781 4160 851 4160 851 3875 
L 851 610 
C 851 451 851 153 339 153 
L 339 -13 
C 486 0 755 0 915 0 
C 1075 0 1344 0 1491 -13 
L 1491 153 
C 979 153 979 451 979 610 
L 979 4135 
L 986 4135 
L 2490 89 
C 2515 25 2528 -13 2579 -13 
C 2630 -13 2643 25 2669 89 
L 4186 4166 
L 4192 4166 
L 4192 438 
C 4192 153 4122 153 3680 153 
L 3680 -13 
C 3853 0 4198 0 4384 0 
C 4570 0 4922 0 5094 -13 
L 5094 153 
C 4653 153 4582 153 4582 438 
L 4582 3875 
C 4582 4160 4653 4160 5094 4160 
L 5094 4320 
L 4282 4320 
C 4147 4320 4141 4314 4102 4218 
L 2720 502 
L 1338 4224 
z
" transform="scale(0.015625)"/>
       <path id="CMR17-43" d="M 3974 4289 
C 3974 4403 3968 4410 3930 4410 
C 3904 4410 3898 4403 3853 4327 
L 3571 3792 
C 3258 4187 2874 4416 2381 4416 
C 1286 4416 294 3456 294 2148 
C 294 826 1286 -128 2387 -128 
C 3366 -128 3974 730 3974 1461 
C 3974 1524 3974 1550 3917 1550 
C 3866 1550 3866 1531 3859 1474 
C 3808 585 3168 38 2477 38 
C 1824 38 781 495 781 2147 
C 781 3805 1843 4250 2464 4250 
C 3187 4250 3712 3628 3834 2745 
C 3846 2668 3846 2655 3904 2655 
C 3974 2655 3974 2668 3974 2783 
L 3974 4289 
z
" transform="scale(0.015625)"/>
      </defs>
      <use xlink:href="#CMR17-4d" transform="scale(0.996264)"/>
      <use xlink:href="#CMR17-43" transform="translate(84.686941 0)scale(0.996264)"/>
      <use xlink:href="#CMR17-4d" transform="translate(151.196821 0)scale(0.996264)"/>
      <use xlink:href="#CMR17-43" transform="translate(235.883762 0)scale(0.996264)"/>
     </g>
    </g>
    <g id="line2d_7">
     <path d="M 405.661945 68.928312 
L 418.661945 68.928312 
L 431.661945 68.928312 
" style="fill: none; stroke-dasharray: 3.7,1.6; stroke-dashoffset: 0; stroke: #8b0000"/>
    </g>
    <g id="text_6">
     <!-- Experiment -->
     <g transform="translate(442.061945 73.478312)scale(0.13 -0.13)">
      <defs>
       <path id="CMR17-45" d="M 3885 1615 
L 3770 1615 
C 3629 676 3546 166 2419 166 
L 1530 166 
C 1274 166 1261 197 1261 414 
L 1261 2176 
L 1862 2176 
C 2464 2176 2522 1960 2522 1430 
L 2637 1430 
L 2637 3081 
L 2522 3081 
C 2522 2557 2464 2342 1862 2342 
L 1261 2342 
L 1261 3913 
C 1261 4128 1274 4160 1530 4160 
L 2406 4160 
C 3398 4160 3514 3769 3603 2929 
L 3718 2929 
L 3565 4325 
L 326 4325 
L 326 4160 
C 768 4160 838 4160 838 3874 
L 838 451 
C 838 166 768 166 326 166 
L 326 0 
L 3654 0 
L 3885 1615 
z
" transform="scale(0.015625)"/>
       <path id="CMR17-78" d="M 1664 1477 
C 1856 1726 2074 2006 2253 2216 
C 2464 2458 2707 2560 2989 2560 
L 2989 2726 
C 2880 2726 2656 2726 2541 2726 
C 2368 2726 2170 2726 2022 2732 
L 2022 2566 
C 2112 2553 2163 2489 2163 2400 
C 2163 2285 2099 2215 2067 2171 
L 1594 1573 
L 1030 2306 
C 973 2376 973 2388 973 2420 
C 973 2497 1037 2560 1146 2560 
L 1146 2732 
C 992 2726 717 2726 557 2726 
C 384 2726 179 2726 38 2732 
L 38 2560 
C 384 2560 461 2534 614 2343 
L 1350 1395 
C 1363 1382 1395 1344 1395 1325 
C 1395 1299 838 619 768 530 
C 480 185 179 160 6 160 
L 6 0 
C 115 0 339 0 454 0 
C 582 0 864 0 979 -6 
L 979 160 
C 941 166 838 179 838 325 
C 838 440 890 510 947 586 
L 1478 1236 
L 2035 512 
C 2086 442 2163 346 2163 301 
C 2163 211 2086 160 1984 160 
L 1984 -6 
C 2138 0 2413 0 2573 0 
C 2746 0 2950 0 3091 -6 
L 3091 160 
C 2771 160 2675 172 2522 370 
L 1664 1477 
z
" transform="scale(0.015625)"/>
       <path id="CMR17-72" d="M 960 1497 
C 960 2112 1222 2688 1702 2688 
C 1747 2688 1792 2682 1837 2662 
C 1837 2662 1696 2617 1696 2452 
C 1696 2298 1818 2234 1914 2234 
C 1990 2234 2131 2279 2131 2458 
C 2131 2663 1926 2790 1709 2790 
C 1222 2790 1011 2317 947 2093 
L 941 2093 
L 941 2790 
L 198 2720 
L 198 2554 
C 576 2554 634 2515 634 2208 
L 634 428 
C 634 184 608 153 198 153 
L 198 -13 
C 352 0 646 0 813 0 
C 998 0 1325 0 1498 -13 
L 1498 153 
C 1037 153 960 153 960 440 
L 960 1497 
z
" transform="scale(0.015625)"/>
      </defs>
      <use xlink:href="#CMR17-45" transform="scale(0.996264)"/>
      <use xlink:href="#CMR17-78" transform="translate(62.586301 0)scale(0.996264)"/>
      <use xlink:href="#CMR17-70" transform="translate(110.879216 0)scale(0.996264)"/>
      <use xlink:href="#CMR17-65" transform="translate(164.377025 0)scale(0.996264)"/>
      <use xlink:href="#CMR17-72" transform="translate(204.862685 0)scale(0.996264)"/>
      <use xlink:href="#CMR17-69" transform="translate(240.143453 0)scale(0.996264)"/>
      <use xlink:href="#CMR17-6d" transform="translate(265.014512 0)scale(0.996264)"/>
      <use xlink:href="#CMR17-65" transform="translate(341.934101 0)scale(0.996264)"/>
      <use xlink:href="#CMR17-6e" transform="translate(382.419762 0)scale(0.996264)"/>
      <use xlink:href="#CMR17-74" transform="translate(430.712678 0)scale(0.996264)"/>
     </g>
    </g>
   </g>
  </g>
  <g id="axes_2">
   <g id="patch_8">
    <path d="M 72 252 
L 518.4 252 
L 518.4 143.28 
L 72 143.28 
z
" style="fill: #ffffff"/>
   </g>
   <g id="matplotlib.axis_3">
    <g id="xtick_1">
     <g id="line2d_8">
      <defs>
       <path id="m3de359266d" d="M 0 0 
L 0 3.5 
" style="stroke: #000000; stroke-width: 0.8"/>
      </defs>
      <g>
       <use xlink:href="#m3de359266d" x="92.290909" y="252" style="stroke: #000000; stroke-width: 0.8"/>
      </g>
     </g>
     <g id="text_7">
      <!-- $\mathdefault{0}$ -->
      <g transform="translate(89.120539 267.994028)scale(0.13 -0.13)">
       <use xlink:href="#CMR17-30" transform="scale(0.996264)"/>
      </g>
     </g>
    </g>
    <g id="xtick_2">
     <g id="line2d_9">
      <g>
       <use xlink:href="#m3de359266d" x="173.617198" y="252" style="stroke: #000000; stroke-width: 0.8"/>
      </g>
     </g>
     <g id="text_8">
      <!-- $\mathdefault{1}$ -->
      <g transform="translate(170.446828 267.994028)scale(0.13 -0.13)">
       <defs>
        <path id="CMR17-31" d="M 1702 4058 
C 1702 4192 1696 4192 1606 4192 
C 1357 3916 979 3827 621 3827 
C 602 3827 570 3827 563 3808 
C 557 3795 557 3782 557 3648 
C 755 3648 1088 3686 1344 3839 
L 1344 461 
C 1344 236 1331 160 781 160 
L 589 160 
L 589 0 
C 896 0 1216 0 1523 0 
C 1830 0 2150 0 2458 0 
L 2458 160 
L 2266 160 
C 1715 160 1702 230 1702 458 
L 1702 4058 
z
" transform="scale(0.015625)"/>
       </defs>
       <use xlink:href="#CMR17-31" transform="scale(0.996264)"/>
      </g>
     </g>
    </g>
    <g id="xtick_3">
     <g id="line2d_10">
      <g>
       <use xlink:href="#m3de359266d" x="254.943487" y="252" style="stroke: #000000; stroke-width: 0.8"/>
      </g>
     </g>
     <g id="text_9">
      <!-- $\mathdefault{2}$ -->
      <g transform="translate(251.773117 267.994028)scale(0.13 -0.13)">
       <use xlink:href="#CMR17-32" transform="scale(0.996264)"/>
      </g>
     </g>
    </g>
    <g id="xtick_4">
     <g id="line2d_11">
      <g>
       <use xlink:href="#m3de359266d" x="336.269776" y="252" style="stroke: #000000; stroke-width: 0.8"/>
      </g>
     </g>
     <g id="text_10">
      <!-- $\mathdefault{3}$ -->
      <g transform="translate(333.099406 267.994028)scale(0.13 -0.13)">
       <defs>
        <path id="CMR17-33" d="M 1414 2157 
C 1984 2157 2234 1662 2234 1090 
C 2234 320 1824 25 1453 25 
C 1114 25 563 194 390 693 
C 422 680 454 680 486 680 
C 640 680 755 782 755 948 
C 755 1133 614 1216 486 1216 
C 378 1216 211 1165 211 926 
C 211 335 787 -128 1466 -128 
C 2176 -128 2720 430 2720 1085 
C 2720 1707 2208 2157 1600 2227 
C 2086 2328 2554 2756 2554 3329 
C 2554 3820 2048 4179 1472 4179 
C 890 4179 378 3829 378 3329 
C 378 3110 544 3072 627 3072 
C 762 3072 877 3155 877 3321 
C 877 3486 762 3569 627 3569 
C 602 3569 570 3569 544 3557 
C 730 3959 1235 4032 1459 4032 
C 1683 4032 2106 3925 2106 3320 
C 2106 3143 2080 2828 1862 2550 
C 1670 2304 1453 2304 1242 2284 
C 1210 2284 1062 2269 1037 2269 
C 992 2263 966 2257 966 2208 
C 966 2163 973 2157 1101 2157 
L 1414 2157 
z
" transform="scale(0.015625)"/>
       </defs>
       <use xlink:href="#CMR17-33" transform="scale(0.996264)"/>
      </g>
     </g>
    </g>
    <g id="xtick_5">
     <g id="line2d_12">
      <g>
       <use xlink:href="#m3de359266d" x="417.596065" y="252" style="stroke: #000000; stroke-width: 0.8"/>
      </g>
     </g>
     <g id="text_11">
      <!-- $\mathdefault{4}$ -->
      <g transform="translate(414.425695 267.994028)scale(0.13 -0.13)">
       <defs>
        <path id="CMR17-34" d="M 2150 4122 
C 2150 4256 2144 4256 2029 4256 
L 128 1254 
L 128 1088 
L 1779 1088 
L 1779 457 
C 1779 224 1766 160 1318 160 
L 1197 160 
L 1197 0 
C 1402 0 1747 0 1965 0 
C 2182 0 2528 0 2733 0 
L 2733 160 
L 2611 160 
C 2163 160 2150 224 2150 457 
L 2150 1088 
L 2803 1088 
L 2803 1254 
L 2150 1254 
L 2150 4122 
z
M 1798 3703 
L 1798 1254 
L 256 1254 
L 1798 3703 
z
" transform="scale(0.015625)"/>
       </defs>
       <use xlink:href="#CMR17-34" transform="scale(0.996264)"/>
      </g>
     </g>
    </g>
    <g id="xtick_6">
     <g id="line2d_13">
      <g>
       <use xlink:href="#m3de359266d" x="498.922354" y="252" style="stroke: #000000; stroke-width: 0.8"/>
      </g>
     </g>
     <g id="text_12">
      <!-- $\mathdefault{5}$ -->
      <g transform="translate(495.751984 267.994028)scale(0.13 -0.13)">
       <defs>
        <path id="CMR17-35" d="M 730 3692 
C 794 3666 1056 3584 1325 3584 
C 1920 3584 2246 3911 2432 4100 
C 2432 4157 2432 4192 2394 4192 
C 2387 4192 2374 4192 2323 4163 
C 2099 4058 1837 3973 1517 3973 
C 1325 3973 1037 3999 723 4139 
C 653 4171 640 4171 634 4171 
C 602 4171 595 4164 595 4037 
L 595 2203 
C 595 2089 595 2057 659 2057 
C 691 2057 704 2070 736 2114 
C 941 2401 1222 2522 1542 2522 
C 1766 2522 2246 2382 2246 1289 
C 2246 1085 2246 715 2054 421 
C 1894 159 1645 25 1370 25 
C 947 25 518 320 403 814 
C 429 807 480 795 506 795 
C 589 795 749 840 749 1038 
C 749 1210 627 1280 506 1280 
C 358 1280 262 1190 262 1011 
C 262 454 704 -128 1382 -128 
C 2042 -128 2669 440 2669 1264 
C 2669 2030 2170 2624 1549 2624 
C 1222 2624 947 2503 730 2274 
L 730 3692 
z
" transform="scale(0.015625)"/>
       </defs>
       <use xlink:href="#CMR17-35" transform="scale(0.996264)"/>
      </g>
     </g>
    </g>
    <g id="text_13">
     <!-- time (sec) -->
     <g transform="translate(267.68824 284.225914)scale(0.13 -0.13)">
      <use xlink:href="#CMR17-74" transform="scale(0.996264)"/>
      <use xlink:href="#CMR17-69" transform="translate(35.280768 0)scale(0.996264)"/>
      <use xlink:href="#CMR17-6d" transform="translate(60.151826 0)scale(0.996264)"/>
      <use xlink:href="#CMR17-65" transform="translate(137.071416 0)scale(0.996264)"/>
      <use xlink:href="#CMR17-28" transform="translate(207.633043 0)scale(0.996264)"/>
      <use xlink:href="#CMR17-73" transform="translate(242.913811 0)scale(0.996264)"/>
      <use xlink:href="#CMR17-65" transform="translate(278.715148 0)scale(0.996264)"/>
      <use xlink:href="#CMR17-63" transform="translate(319.200809 0)scale(0.996264)"/>
      <use xlink:href="#CMR17-29" transform="translate(359.686469 0)scale(0.996264)"/>
     </g>
    </g>
   </g>
   <g id="matplotlib.axis_4">
    <g id="ytick_4">
     <g id="line2d_14">
      <g>
       <use xlink:href="#m766129ce04" x="72" y="230.848478" style="stroke: #000000; stroke-width: 0.8"/>
      </g>
     </g>
     <g id="text_14">
      <!-- $\mathdefault{−0.02}$ -->
      <g transform="translate(32.381779 235.345492)scale(0.13 -0.13)">
       <use xlink:href="#CMSY10-0" transform="scale(0.996264)"/>
       <use xlink:href="#CMR17-30" transform="translate(77.487468 0)scale(0.996264)"/>
       <use xlink:href="#CMMI12-3a" transform="translate(123.177945 0)scale(0.996264)"/>
       <use xlink:href="#CMR17-30" transform="translate(150.275122 0)scale(0.996264)"/>
       <use xlink:href="#CMR17-32" transform="translate(195.965599 0)scale(0.996264)"/>
      </g>
     </g>
    </g>
    <g id="ytick_5">
     <g id="line2d_15">
      <g>
       <use xlink:href="#m766129ce04" x="72" y="193.978036" style="stroke: #000000; stroke-width: 0.8"/>
      </g>
     </g>
     <g id="text_15">
      <!-- $\mathdefault{0.00}$ -->
      <g transform="translate(42.455149 198.47505)scale(0.13 -0.13)">
       <use xlink:href="#CMR17-30" transform="scale(0.996264)"/>
       <use xlink:href="#CMMI12-3a" transform="translate(45.690477 0)scale(0.996264)"/>
       <use xlink:href="#CMR17-30" transform="translate(72.787654 0)scale(0.996264)"/>
       <use xlink:href="#CMR17-30" transform="translate(118.478131 0)scale(0.996264)"/>
      </g>
     </g>
    </g>
    <g id="ytick_6">
     <g id="line2d_16">
      <g>
       <use xlink:href="#m766129ce04" x="72" y="157.107595" style="stroke: #000000; stroke-width: 0.8"/>
      </g>
     </g>
     <g id="text_16">
      <!-- $\mathdefault{0.02}$ -->
      <g transform="translate(42.455149 161.604609)scale(0.13 -0.13)">
       <use xlink:href="#CMR17-30" transform="scale(0.996264)"/>
       <use xlink:href="#CMMI12-3a" transform="translate(45.690477 0)scale(0.996264)"/>
       <use xlink:href="#CMR17-30" transform="translate(72.787654 0)scale(0.996264)"/>
       <use xlink:href="#CMR17-32" transform="translate(118.478131 0)scale(0.996264)"/>
      </g>
     </g>
    </g>
    <g id="text_17">
     <!-- displacement (m) -->
     <g transform="translate(25.143921 245.759159)rotate(-90)scale(0.13 -0.13)">
      <use xlink:href="#CMR17-64" transform="scale(0.996264)"/>
      <use xlink:href="#CMR17-69" transform="translate(50.89537 0)scale(0.996264)"/>
      <use xlink:href="#CMR17-73" transform="translate(75.766428 0)scale(0.996264)"/>
      <use xlink:href="#CMR17-70" transform="translate(111.567766 0)scale(0.996264)"/>
      <use xlink:href="#CMR17-6c" transform="translate(162.463136 0)scale(0.996264)"/>
      <use xlink:href="#CMR17-61" transform="translate(187.334194 0)scale(0.996264)"/>
      <use xlink:href="#CMR17-63" transform="translate(233.024671 0)scale(0.996264)"/>
      <use xlink:href="#CMR17-65" transform="translate(273.510332 0)scale(0.996264)"/>
      <use xlink:href="#CMR17-6d" transform="translate(313.995992 0)scale(0.996264)"/>
      <use xlink:href="#CMR17-65" transform="translate(390.915582 0)scale(0.996264)"/>
      <use xlink:href="#CMR17-6e" transform="translate(431.401243 0)scale(0.996264)"/>
      <use xlink:href="#CMR17-74" transform="translate(479.694158 0)scale(0.996264)"/>
      <use xlink:href="#CMR17-28" transform="translate(545.050893 0)scale(0.996264)"/>
      <use xlink:href="#CMR17-6d" transform="translate(580.33166 0)scale(0.996264)"/>
      <use xlink:href="#CMR17-29" transform="translate(657.25125 0)scale(0.996264)"/>
     </g>
    </g>
   </g>
   <g id="line2d_17">
    <path d="M 92.290909 148.221818 
L 93.104172 150.185655 
L 93.917435 155.908411 
L 94.730698 164.898329 
L 96.357224 189.375389 
L 97.983749 215.385172 
L 98.797012 226.168111 
L 99.610275 234.182214 
L 100.423538 238.739568 
L 101.236801 239.44948 
L 102.050064 236.252031 
L 102.863327 229.423199 
L 103.67659 219.551089 
L 105.303115 194.264054 
L 106.929641 168.905295 
L 107.742904 158.948567 
L 108.556167 152.010266 
L 109.36943 148.68661 
L 110.182693 149.262825 
L 110.995956 153.688637 
L 111.809218 161.58262 
L 112.622481 172.265015 
L 115.875533 222.638802 
L 116.688796 231.674681 
L 117.502059 237.465484 
L 118.315322 239.512392 
L 119.128584 237.638651 
L 119.941847 232.004786 
L 120.75511 223.094823 
L 122.381636 198.72632 
L 124.008162 172.735069 
L 124.821425 161.928031 
L 125.634688 153.8722 
L 126.44795 149.261163 
L 127.261213 148.492425 
L 128.074476 151.6332 
L 128.887739 158.414592 
L 129.701002 168.254683 
L 131.327528 193.54078 
L 132.954054 218.989704 
L 133.767316 229.019752 
L 134.580579 236.042919 
L 135.393842 239.455667 
L 136.207105 238.964692 
L 137.020368 234.612141 
L 137.833631 226.771989 
L 138.646894 216.11789 
L 141.899945 165.554488 
L 142.713208 156.405259 
L 143.526471 150.486715 
L 144.339734 148.306587 
L 145.152997 150.051198 
L 145.96626 155.569477 
L 146.779523 164.385984 
L 147.592786 175.741817 
L 150.032574 214.699293 
L 150.845837 225.581275 
L 151.6591 233.739391 
L 152.472363 238.472505 
L 153.285626 239.374169 
L 154.098889 236.367556 
L 154.912152 229.712041 
L 155.725414 219.980876 
L 157.35194 194.835294 
L 158.978466 169.402358 
L 159.791729 159.335095 
L 160.604992 152.250178 
L 161.418255 148.757719 
L 162.231518 149.158795 
L 163.04478 153.419533 
L 163.858043 161.174007 
L 164.671306 171.755686 
L 167.924358 222.242597 
L 168.737621 231.426898 
L 169.550884 237.395023 
L 170.364146 239.632794 
L 171.177409 237.946697 
L 171.990672 232.480554 
L 172.803935 223.703192 
L 173.617198 212.36817 
L 176.87025 162.390711 
L 177.683512 154.152795 
L 178.496775 149.332767 
L 179.310038 148.344901 
L 180.123301 151.274172 
L 180.936564 157.868951 
L 181.749827 167.562634 
L 183.376353 192.720529 
L 185.002878 218.287841 
L 185.816141 228.460752 
L 186.629404 235.668479 
L 187.442667 239.292446 
L 188.25593 239.022191 
L 189.069193 234.882026 
L 189.882456 227.228917 
L 190.695719 216.721756 
L 193.94877 166.18816 
L 194.762033 156.909747 
L 195.575296 150.824844 
L 196.388559 148.456163 
L 197.201822 150.006697 
L 198.015085 155.342296 
L 198.828348 164.003217 
L 199.64161 175.243694 
L 202.894662 225.143634 
L 203.707925 233.435987 
L 204.521188 238.331201 
L 205.334451 239.40756 
L 206.147714 236.571871 
L 206.960976 230.067497 
L 207.774239 220.453449 
L 209.400765 195.399227 
L 211.027291 169.842968 
L 211.840554 159.642496 
L 212.653817 152.390348 
L 213.46708 148.711089 
L 214.280343 148.922165 
L 215.093605 153.006577 
L 215.906868 160.614304 
L 216.720131 171.092362 
L 219.973183 221.726641 
L 220.786446 231.078823 
L 221.599709 237.247328 
L 222.412971 239.701969 
L 223.226234 238.231686 
L 224.039497 232.962692 
L 224.85276 224.347627 
L 225.666023 213.126654 
L 228.919075 163.006363 
L 229.732337 154.597193 
L 230.5456 149.573389 
L 231.358863 148.365767 
L 232.172126 151.077075 
L 232.985389 157.473187 
L 233.798652 167.003271 
L 235.425178 191.985971 
L 237.051703 217.61396 
L 237.864966 227.899469 
L 238.678229 235.261983 
L 239.491492 239.068908 
L 240.304755 238.993552 
L 241.118018 235.043203 
L 241.931281 227.558472 
L 242.744544 217.183978 
L 245.997595 166.670939 
L 246.810858 157.272571 
L 247.624121 151.034526 
L 248.437384 148.494006 
L 249.250647 149.870126 
L 250.06391 155.045053 
L 250.877173 163.574124 
L 251.690435 174.724067 
L 254.943487 224.781943 
L 255.75675 233.22938 
L 256.570013 238.304988 
L 257.383276 239.57127 
L 258.196539 236.918204 
L 259.009801 230.572741 
L 259.823064 221.079323 
L 261.44959 196.109932 
L 263.076116 170.405638 
L 263.889379 160.053269 
L 264.702642 152.611544 
L 265.515905 148.720092 
L 266.329167 148.713483 
L 267.14243 152.592457 
L 267.955693 160.023862 
L 268.768956 170.369282 
L 270.395482 196.072972 
L 272.022008 221.060506 
L 272.835271 230.568709 
L 273.648533 236.931264 
L 274.461796 239.602248 
L 275.275059 238.353101 
L 276.088322 233.292244 
L 276.901585 224.855721 
L 277.714848 213.769682 
L 280.967899 163.618851 
L 281.781162 155.068503 
L 282.594425 149.869673 
L 283.407688 148.468762 
L 284.220951 150.985443 
L 285.034214 157.202399 
L 285.847477 166.584033 
L 287.474003 191.407493 
L 289.100528 217.092611 
L 289.913791 227.482067 
L 290.727054 234.986622 
L 291.540317 238.960152 
L 292.35358 239.060298 
L 293.166843 235.277925 
L 293.980106 227.937928 
L 294.793369 217.671304 
L 296.419894 192.065495 
L 298.04642 167.08093 
L 298.859683 157.541526 
L 299.672946 151.131752 
L 300.486209 148.403806 
L 301.299472 149.593382 
L 302.112735 154.599365 
L 302.925997 162.992488 
L 303.73926 174.052207 
L 306.992312 224.313978 
L 307.805575 232.938131 
L 308.618838 238.218897 
L 309.432101 239.702282 
L 310.245363 237.2606 
L 311.058626 231.103453 
L 311.871889 221.759721 
L 313.498415 196.928125 
L 315.124941 171.115495 
L 315.938204 160.624082 
L 316.751467 153.000206 
L 317.564729 148.898236 
L 318.377992 148.669762 
L 319.191255 152.333401 
L 320.004518 159.573223 
L 320.817781 169.765948 
L 322.444307 195.323748 
L 324.070833 220.403058 
L 324.884095 230.036953 
L 325.697358 236.564353 
L 326.510621 239.424592 
L 327.323884 238.372492 
L 328.137147 233.499418 
L 328.95041 225.225398 
L 329.763673 214.26297 
L 333.016724 164.085277 
L 333.829987 155.405998 
L 334.64325 150.048108 
L 335.456513 148.473029 
L 336.269776 150.816743 
L 337.083039 156.878091 
L 337.896302 166.136055 
L 339.522827 190.850881 
L 341.149353 216.640896 
L 341.962616 227.155619 
L 342.775879 234.821095 
L 343.589142 238.977168 
L 344.402405 239.26536 
L 345.215668 235.659724 
L 346.028931 228.469117 
L 346.842193 218.310677 
L 348.468719 192.760139 
L 350.095245 167.59993 
L 350.908508 157.898567 
L 351.721771 151.292936 
L 352.535034 148.350912 
L 353.348297 149.325567 
L 354.161559 154.133406 
L 354.974822 162.361538 
L 355.788085 173.303158 
L 359.041137 223.688193 
L 359.8544 232.480566 
L 360.667663 237.96368 
L 361.480925 239.667198 
L 362.294188 237.445691 
L 363.107451 231.491108 
L 363.920714 222.316245 
L 365.54724 197.672593 
L 367.173766 171.811082 
L 367.987029 161.211159 
L 368.800291 153.434748 
L 369.613554 149.149939 
L 370.426817 148.724427 
L 371.24008 152.193921 
L 372.053343 159.259095 
L 372.866606 169.311365 
L 374.493132 194.732805 
L 376.119657 219.893802 
L 376.93292 229.641675 
L 377.746183 236.318368 
L 378.559446 239.34904 
L 379.372709 238.472519 
L 380.185972 233.763777 
L 380.999235 225.627497 
L 381.812498 214.76328 
L 385.065549 164.463658 
L 385.878812 155.636271 
L 386.692075 150.103037 
L 387.505338 148.340838 
L 388.318601 150.502356 
L 389.131864 156.402907 
L 389.945127 165.536285 
L 391.571652 190.153931 
L 393.198178 216.077598 
L 394.011441 226.737808 
L 394.824704 234.58769 
L 395.637967 238.952418 
L 396.45123 239.456624 
L 397.264493 236.056677 
L 398.077756 229.044445 
L 398.891018 219.022213 
L 400.517544 193.576133 
L 402.14407 168.274316 
L 402.957333 158.420532 
L 403.770596 151.622974 
L 404.583859 148.464989 
L 405.397122 149.217053 
L 406.210384 153.813544 
L 407.023647 161.858415 
L 407.83691 172.659276 
L 411.089962 223.051621 
L 411.903225 231.982232 
L 412.716488 237.639457 
L 413.52975 239.537568 
L 414.343013 237.514216 
L 415.156276 231.74436 
L 415.969539 222.725197 
L 417.596065 198.258176 
L 419.222591 172.356405 
L 420.035854 161.65912 
L 420.849116 153.745282 
L 421.662379 149.296134 
L 422.475642 148.694844 
L 423.288905 151.99354 
L 424.102168 158.908814 
L 424.915431 168.846085 
L 426.541957 194.181532 
L 428.168482 219.469685 
L 428.981745 229.35101 
L 429.795008 236.193629 
L 430.608271 239.408084 
L 431.421534 238.716827 
L 432.234797 234.178122 
L 433.04806 226.181073 
L 433.861323 215.412199 
L 437.114374 164.936516 
L 437.927637 155.938178 
L 438.7409 150.204043 
L 439.554163 148.227189 
L 440.367426 150.177838 
L 441.180689 155.888707 
L 441.993952 164.869379 
L 443.620477 189.339843 
L 445.247003 215.361547 
L 446.060266 226.156698 
L 446.873529 234.185957 
L 447.686792 238.760079 
L 448.500055 239.486839 
L 449.313318 236.304721 
L 450.12658 229.488184 
L 450.939843 219.624029 
L 452.566369 194.336424 
L 454.192895 168.953927 
L 455.006158 158.978025 
L 455.819421 152.017296 
L 456.632684 148.669577 
L 457.445946 149.221885 
L 458.259209 153.625765 
L 459.072472 161.501485 
L 459.885735 172.170725 
L 463.138787 222.556768 
L 463.95205 231.610983 
L 464.765312 237.424168 
L 465.578575 239.49584 
L 466.391838 237.647411 
L 467.205101 232.037555 
L 468.018364 223.148573 
L 469.64489 198.807504 
L 471.271416 172.819504 
L 472.084678 162.005073 
L 472.897941 153.936826 
L 473.711204 149.309596 
L 474.524467 148.522398 
L 475.33773 151.644091 
L 476.150993 158.407419 
L 476.964256 168.231953 
L 478.590782 193.498945 
L 480.217307 218.948131 
L 481.03057 228.985115 
L 481.843833 236.018654 
L 482.657096 239.443974 
L 483.470359 238.966343 
L 484.283622 234.62642 
L 485.096885 226.796771 
L 485.910148 216.149856 
L 489.163199 165.570826 
L 489.976462 156.407642 
L 490.789725 150.472996 
L 491.602988 148.276083 
L 492.416251 150.004807 
L 493.229514 155.509658 
L 494.042776 164.316588 
L 494.856039 175.667803 
L 497.295828 214.645903 
L 498.109091 225.545424 
L 498.109091 225.545424 
" clip-path="url(#p56551ad21f)" style="fill: none; stroke: #0000ff; stroke-linecap: square"/>
   </g>
   <g id="line2d_18">
    <path d="M 92.290909 148.221818 
L 93.104172 148.412479 
L 93.917435 150.344867 
L 94.730698 153.568032 
L 96.357224 162.082892 
L 98.797012 175.577635 
L 99.610275 182.574535 
L 102.050064 211.833864 
L 102.863327 217.567459 
L 103.67659 221.874713 
L 104.489852 227.419527 
L 106.116378 242.631217 
L 106.929641 244.811796 
L 107.742904 243.478239 
L 108.556167 241.256477 
L 109.36943 239.863118 
L 110.182693 237.377496 
L 110.995956 230.969624 
L 111.809218 218.89133 
L 113.435744 189.121672 
L 114.249007 178.023188 
L 115.06227 170.442472 
L 115.875533 165.666804 
L 116.688796 163.328731 
L 117.502059 164.44188 
L 118.315322 170.365152 
L 119.128584 181.562035 
L 119.941847 194.914384 
L 120.75511 206.408642 
L 121.568373 213.221799 
L 123.194899 221.752013 
L 124.821425 234.714607 
L 125.634688 237.121781 
L 126.44795 236.12576 
L 127.261213 233.002765 
L 128.074476 228.677611 
L 128.887739 222.669486 
L 129.701002 214.146168 
L 131.327528 189.78598 
L 132.140791 177.180916 
L 132.954054 166.573051 
L 133.767316 158.946995 
L 134.580579 155.116591 
L 135.393842 155.684567 
L 136.207105 160.409203 
L 137.020368 168.837662 
L 137.833631 180.330434 
L 140.27342 218.815077 
L 141.086682 229.188524 
L 141.899945 237.701113 
L 142.713208 243.993864 
L 143.526471 247.058182 
L 144.339734 245.723067 
L 145.152997 239.588494 
L 146.779523 223.778324 
L 148.406048 210.91737 
L 150.032574 198.256626 
L 151.6591 183.140551 
L 152.472363 175.412025 
L 153.285626 169.137893 
L 154.098889 165.422441 
L 154.912152 164.817507 
L 155.725414 167.736816 
L 156.538677 174.371164 
L 157.35194 184.019627 
L 160.604992 229.50534 
L 161.418255 234.396479 
L 162.231518 235.934294 
L 163.04478 235.552093 
L 163.858043 234.131419 
L 164.671306 230.346768 
L 165.484569 222.320871 
L 167.111095 196.769655 
L 167.924358 188.810064 
L 168.737621 184.621406 
L 169.550884 181.747584 
L 170.364146 178.439487 
L 171.177409 175.775955 
L 171.990672 175.542815 
L 172.803935 179.001477 
L 173.617198 185.31568 
L 176.056987 209.725781 
L 178.496775 235.4753 
L 179.310038 241.430294 
L 180.123301 244.250153 
L 180.936564 243.96533 
L 181.749827 240.866703 
L 182.56309 235.391442 
L 186.629404 201.53121 
L 189.069193 175.200447 
L 189.882456 168.971483 
L 190.695719 165.28084 
L 191.508982 164.371072 
L 192.322244 166.44843 
L 193.135507 171.573955 
L 193.94877 179.772382 
L 194.762033 190.858365 
L 197.201822 230.048114 
L 198.015085 239.091655 
L 198.828348 242.383228 
L 199.64161 241.343569 
L 201.268136 234.966563 
L 202.081399 231.033059 
L 202.894662 225.576005 
L 203.707925 218.007622 
L 206.960976 182.723641 
L 207.774239 176.490912 
L 208.587502 172.458132 
L 209.400765 171.260541 
L 210.214028 173.551812 
L 211.027291 179.620755 
L 212.653817 198.044319 
L 215.093605 225.465393 
L 215.906868 233.418666 
L 216.720131 238.317376 
L 217.533394 238.272245 
L 218.346657 234.717014 
L 219.973183 225.562077 
L 220.786446 221.058349 
L 221.599709 215.236479 
L 222.412971 207.330778 
L 224.85276 180.985927 
L 225.666023 174.272035 
L 226.479286 169.006213 
L 227.292549 165.449731 
L 228.105812 164.530191 
L 228.919075 167.341776 
L 229.732337 174.505609 
L 231.358863 196.332477 
L 232.985389 218.218779 
L 233.798652 227.35632 
L 234.611915 234.658495 
L 235.425178 239.675294 
L 236.238441 241.962282 
L 237.051703 241.363354 
L 237.864966 238.8757 
L 238.678229 235.491973 
L 239.491492 231.033368 
L 240.304755 225.028215 
L 241.931281 208.440063 
L 243.557807 191.611735 
L 244.371069 185.062319 
L 245.184332 180.425515 
L 245.997595 178.158264 
L 246.810858 178.621736 
L 247.624121 182.153159 
L 248.437384 188.781847 
L 250.877173 214.260079 
L 251.690435 221.252206 
L 252.503698 227.261511 
L 253.316961 232.19655 
L 254.130224 235.314598 
L 254.943487 235.710109 
L 255.75675 232.686356 
L 256.570013 226.381887 
L 258.196539 207.145354 
L 259.009801 197.417522 
L 259.823064 189.506127 
L 261.44959 177.623362 
L 262.262853 172.680033 
L 263.076116 169.531305 
L 263.889379 169.785759 
L 264.702642 174.455705 
L 265.515905 182.168358 
L 270.395482 235.120623 
L 271.208745 241.367088 
L 272.022008 243.429466 
L 272.835271 242.68628 
L 273.648533 241.209072 
L 274.461796 240.283514 
L 275.275059 238.051815 
L 276.088322 231.870316 
L 277.714848 208.41018 
L 278.528111 200.065451 
L 281.781162 178.575948 
L 282.594425 176.375034 
L 283.407688 178.807468 
L 284.220951 184.645166 
L 289.100528 228.69958 
L 289.913791 233.403073 
L 290.727054 234.691163 
L 291.540317 233.495385 
L 293.166843 228.913462 
L 293.980106 225.683606 
L 294.793369 220.282463 
L 295.606631 211.973188 
L 297.233157 192.771846 
L 298.04642 185.429805 
L 298.859683 180.454073 
L 299.672946 177.844584 
L 300.486209 177.633841 
L 301.299472 179.984618 
L 302.112735 185.09226 
L 304.552523 208.910565 
L 305.365786 213.948718 
L 306.179049 217.745932 
L 306.992312 222.189191 
L 308.618838 233.971931 
L 309.432101 236.645301 
L 310.245363 236.411298 
L 311.058626 233.940328 
L 311.871889 229.797795 
L 312.685152 224.129105 
L 313.498415 216.974657 
L 315.124941 200.382809 
L 315.938204 193.793684 
L 316.751467 189.959847 
L 317.564729 188.185466 
L 319.191255 186.575327 
L 320.004518 186.490791 
L 320.817781 187.968154 
L 321.631044 191.613318 
L 322.444307 196.870951 
L 325.697358 220.414143 
L 326.510621 225.512396 
L 327.323884 229.721012 
L 328.137147 232.565587 
L 328.95041 233.655862 
L 329.763673 232.938149 
L 330.576936 230.442903 
L 331.390199 226.259925 
L 332.203461 220.716396 
L 333.829987 207.115213 
L 335.456513 193.245895 
L 336.269776 187.658267 
L 337.083039 184.550634 
L 337.896302 185.445163 
L 338.709565 191.199309 
L 341.149353 217.488924 
L 343.589142 237.849234 
L 344.402405 242.926046 
L 345.215668 244.290387 
L 346.028931 240.671766 
L 347.655456 227.493268 
L 349.281982 218.382843 
L 350.095245 211.786459 
L 352.535034 181.252467 
L 353.348297 177.418055 
L 354.161559 176.997513 
L 354.974822 177.312597 
L 355.788085 176.537243 
L 356.601348 176.254107 
L 357.414611 178.898026 
L 358.227874 186.059172 
L 359.8544 205.934594 
L 360.667663 214.010336 
L 363.107451 233.858914 
L 363.920714 239.712444 
L 364.733977 242.857707 
L 365.54724 241.943476 
L 366.360503 237.354827 
L 367.173766 229.910915 
L 368.800291 210.175694 
L 369.613554 200.130133 
L 370.426817 191.478384 
L 371.24008 185.263266 
L 372.053343 182.506062 
L 372.866606 183.78492 
L 373.679869 187.905442 
L 376.119657 203.320944 
L 378.559446 217.338551 
L 380.185972 225.134023 
L 380.999235 227.861653 
L 381.812498 229.357858 
L 382.625761 229.284981 
L 383.439024 227.335877 
L 384.252286 223.211029 
L 385.065549 216.795751 
L 386.692075 199.77723 
L 388.318601 182.354395 
L 389.131864 175.189913 
L 389.945127 169.806713 
L 390.75839 166.288919 
L 391.571652 164.608096 
L 392.384915 164.840719 
L 393.198178 167.482909 
L 394.011441 173.135702 
L 394.824704 182.063585 
L 398.077756 226.392594 
L 398.891018 234.16155 
L 399.704281 239.071827 
L 400.517544 240.809016 
L 401.330807 239.149594 
L 402.14407 234.150306 
L 405.397122 205.634736 
L 406.210384 200.893878 
L 407.023647 197.843751 
L 407.83691 196.281833 
L 408.650173 195.895299 
L 409.463436 196.318295 
L 410.276699 196.972835 
L 411.089962 197.227902 
L 411.903225 196.780564 
L 412.716488 196.64023 
L 413.52975 198.144396 
L 414.343013 202.228243 
L 415.156276 208.217686 
L 416.782802 221.605887 
L 417.596065 226.840601 
L 418.409328 229.652822 
L 419.222591 229.257619 
L 420.035854 226.080909 
L 420.849116 220.851321 
L 423.288905 201.504873 
L 424.102168 197.004988 
L 424.915431 193.954067 
L 425.728694 192.023903 
L 428.168482 188.378996 
L 428.981745 186.219915 
L 429.795008 184.471832 
L 430.608271 184.60241 
L 431.421534 187.672213 
L 432.234797 193.113404 
L 433.861323 207.31648 
L 435.487848 221.962701 
L 436.301111 228.557924 
L 437.114374 234.159655 
L 437.927637 238.364781 
L 438.7409 240.723398 
L 439.554163 240.598446 
L 440.367426 237.306072 
L 441.180689 230.6245 
L 442.807214 214.061892 
L 443.620477 207.798226 
L 445.247003 197.433323 
L 446.873529 186.065057 
L 447.686792 183.701717 
L 448.500055 185.669851 
L 450.12658 195.084149 
L 451.753106 201.535596 
L 452.566369 206.67727 
L 454.192895 223.649784 
L 455.006158 229.036559 
L 455.819421 228.605298 
L 457.445946 220.503685 
L 458.259209 218.708749 
L 459.072472 217.568712 
L 459.885735 214.404261 
L 460.698998 207.527331 
L 461.512261 199.214846 
L 462.325524 192.734976 
L 463.138787 190.377237 
L 464.765312 190.549085 
L 466.391838 186.833832 
L 467.205101 187.441434 
L 468.018364 192.285959 
L 469.64489 206.45078 
L 470.458153 211.103202 
L 471.271416 214.683508 
L 472.084678 219.171082 
L 473.711204 232.879467 
L 474.524467 237.938137 
L 475.33773 239.074107 
L 476.150993 236.543437 
L 476.964256 231.143441 
L 477.777519 223.493788 
L 478.590782 213.503569 
L 480.217307 189.517852 
L 481.03057 180.609868 
L 481.843833 176.648307 
L 482.657096 176.218995 
L 483.470359 177.065038 
L 484.283622 177.518382 
L 485.096885 178.266335 
L 485.910148 180.585045 
L 486.72341 185.750661 
L 489.163199 211.775925 
L 489.976462 215.60545 
L 490.789725 217.391101 
L 491.602988 220.013835 
L 492.416251 225.071066 
L 493.229514 229.026025 
L 494.042776 228.221005 
L 494.856039 223.648725 
L 496.482565 211.497797 
L 497.295828 206.27452 
L 498.109091 201.994724 
L 498.109091 201.994724 
" clip-path="url(#p56551ad21f)" style="fill: none; stroke-dasharray: 3.7,1.6; stroke-dashoffset: 0; stroke: #00008b"/>
   </g>
   <g id="patch_9">
    <path d="M 72 252 
L 72 143.28 
" style="fill: none; stroke: #000000; stroke-width: 0.8; stroke-linejoin: miter; stroke-linecap: square"/>
   </g>
   <g id="patch_10">
    <path d="M 518.4 252 
L 518.4 143.28 
" style="fill: none; stroke: #000000; stroke-width: 0.8; stroke-linejoin: miter; stroke-linecap: square"/>
   </g>
   <g id="patch_11">
    <path d="M 72 252 
L 518.4 252 
" style="fill: none; stroke: #000000; stroke-width: 0.8; stroke-linejoin: miter; stroke-linecap: square"/>
   </g>
   <g id="patch_12">
    <path d="M 72 143.28 
L 518.4 143.28 
" style="fill: none; stroke: #000000; stroke-width: 0.8; stroke-linejoin: miter; stroke-linecap: square"/>
   </g>
   <g id="legend_2">
    <g id="patch_13">
     <path d="M 403.061945 189.916624 
L 509.3 189.916624 
Q 511.9 189.916624 511.9 187.316624 
L 511.9 152.38 
Q 511.9 149.78 509.3 149.78 
L 403.061945 149.78 
Q 400.461945 149.78 400.461945 152.38 
L 400.461945 187.316624 
Q 400.461945 189.916624 403.061945 189.916624 
z
" style="fill: #ffffff; opacity: 0.8; stroke: #cccccc; stroke-linejoin: miter"/>
    </g>
    <g id="line2d_19">
     <path d="M 405.661945 159.53 
L 418.661945 159.53 
L 431.661945 159.53 
" style="fill: none; stroke: #0000ff; stroke-linecap: square"/>
    </g>
    <g id="text_18">
     <!-- MCMC -->
     <g transform="translate(442.061945 164.08)scale(0.13 -0.13)">
      <use xlink:href="#CMR17-4d" transform="scale(0.996264)"/>
      <use xlink:href="#CMR17-43" transform="translate(84.686941 0)scale(0.996264)"/>
      <use xlink:href="#CMR17-4d" transform="translate(151.196821 0)scale(0.996264)"/>
      <use xlink:href="#CMR17-43" transform="translate(235.883762 0)scale(0.996264)"/>
     </g>
    </g>
    <g id="line2d_20">
     <path d="M 405.661945 177.648312 
L 418.661945 177.648312 
L 431.661945 177.648312 
" style="fill: none; stroke-dasharray: 3.7,1.6; stroke-dashoffset: 0; stroke: #00008b"/>
    </g>
    <g id="text_19">
     <!-- Experiment -->
     <g transform="translate(442.061945 182.198312)scale(0.13 -0.13)">
      <use xlink:href="#CMR17-45" transform="scale(0.996264)"/>
      <use xlink:href="#CMR17-78" transform="translate(62.586301 0)scale(0.996264)"/>
      <use xlink:href="#CMR17-70" transform="translate(110.879216 0)scale(0.996264)"/>
      <use xlink:href="#CMR17-65" transform="translate(164.377025 0)scale(0.996264)"/>
      <use xlink:href="#CMR17-72" transform="translate(204.862685 0)scale(0.996264)"/>
      <use xlink:href="#CMR17-69" transform="translate(240.143453 0)scale(0.996264)"/>
      <use xlink:href="#CMR17-6d" transform="translate(265.014512 0)scale(0.996264)"/>
      <use xlink:href="#CMR17-65" transform="translate(341.934101 0)scale(0.996264)"/>
      <use xlink:href="#CMR17-6e" transform="translate(382.419762 0)scale(0.996264)"/>
      <use xlink:href="#CMR17-74" transform="translate(430.712678 0)scale(0.996264)"/>
     </g>
    </g>
   </g>
  </g>
 </g>
 <defs>
  <clipPath id="p40049fc80b">
   <rect x="72" y="34.56" width="446.4" height="108.72"/>
  </clipPath>
  <clipPath id="p56551ad21f">
   <rect x="72" y="143.28" width="446.4" height="108.72"/>
  </clipPath>
 </defs>
</svg>
