<?xml version="1.0" encoding="utf-8" standalone="no"?>
<!DOCTYPE svg PUBLIC "-//W3C//DTD SVG 1.1//EN"
  "http://www.w3.org/Graphics/SVG/1.1/DTD/svg11.dtd">
<svg xmlns:xlink="http://www.w3.org/1999/xlink" width="864pt" height="360pt" viewBox="0 0 864 360" xmlns="http://www.w3.org/2000/svg" version="1.1">
 <metadata>
  <rdf:RDF xmlns:dc="http://purl.org/dc/elements/1.1/" xmlns:cc="http://creativecommons.org/ns#" xmlns:rdf="http://www.w3.org/1999/02/22-rdf-syntax-ns#">
   <cc:Work>
    <dc:type rdf:resource="http://purl.org/dc/dcmitype/StillImage"/>
    <dc:date>2023-07-26T16:48:34.208189</dc:date>
    <dc:format>image/svg+xml</dc:format>
    <dc:creator>
     <cc:Agent>
      <dc:title>Matplotlib v3.7.1, https://matplotlib.org/</dc:title>
     </cc:Agent>
    </dc:creator>
   </cc:Work>
  </rdf:RDF>
 </metadata>
 <defs>
  <style type="text/css">*{stroke-linejoin: round; stroke-linecap: butt}</style>
 </defs>
 <g id="figure_1">
  <g id="patch_1">
   <path d="M 0 360 
L 864 360 
L 864 0 
L 0 0 
z
" style="fill: #ffffff"/>
  </g>
  <g id="axes_1">
   <g id="patch_2">
    <path d="M 108 320.4 
L 777.6 320.4 
L 777.6 43.2 
L 108 43.2 
z
" style="fill: #ffffff"/>
   </g>
   <g id="matplotlib.axis_1">
    <g id="xtick_1">
     <g id="line2d_1">
      <path d="M 138.436364 320.4 
L 138.436364 43.2 
" clip-path="url(#p8b10a8bfdd)" style="fill: none; stroke: #b0b0b0; stroke-width: 0.8; stroke-linecap: square"/>
     </g>
     <g id="line2d_2">
      <defs>
       <path id="m47e8043817" d="M 0 0 
L 0 3.5 
" style="stroke: #000000; stroke-width: 0.8"/>
      </defs>
      <g>
       <use xlink:href="#m47e8043817" x="138.436364" y="320.4" style="stroke: #000000; stroke-width: 0.8"/>
      </g>
     </g>
     <g id="text_1">
      <!-- $\mathdefault{0.0}$ -->
      <g transform="translate(130.334308 336.394028) scale(0.13 -0.13)">
       <defs>
        <path id="CMR17-30" d="M 2688 2025 
C 2688 2416 2682 3080 2413 3591 
C 2176 4039 1798 4198 1466 4198 
C 1158 4198 768 4058 525 3597 
C 269 3118 243 2524 243 2025 
C 243 1661 250 1106 448 619 
C 723 -39 1216 -128 1466 -128 
C 1760 -128 2208 -7 2470 600 
C 2662 1042 2688 1559 2688 2025 
z
M 1466 -26 
C 1056 -26 813 325 723 812 
C 653 1188 653 1738 653 2096 
C 653 2588 653 2997 736 3387 
C 858 3929 1216 4096 1466 4096 
C 1728 4096 2067 3923 2189 3400 
C 2272 3036 2278 2607 2278 2096 
C 2278 1680 2278 1169 2202 792 
C 2067 95 1690 -26 1466 -26 
z
" transform="scale(0.015625)"/>
        <path id="CMMI12-3a" d="M 1178 307 
C 1178 492 1024 619 870 619 
C 685 619 557 466 557 313 
C 557 128 710 0 864 0 
C 1050 0 1178 153 1178 307 
z
" transform="scale(0.015625)"/>
       </defs>
       <use xlink:href="#CMR17-30" transform="scale(0.996264)"/>
       <use xlink:href="#CMMI12-3a" transform="translate(45.690477 0) scale(0.996264)"/>
       <use xlink:href="#CMR17-30" transform="translate(72.787654 0) scale(0.996264)"/>
      </g>
     </g>
    </g>
    <g id="xtick_2">
     <g id="line2d_3">
      <path d="M 231.400211 320.4 
L 231.400211 43.2 
" clip-path="url(#p8b10a8bfdd)" style="fill: none; stroke: #b0b0b0; stroke-width: 0.8; stroke-linecap: square"/>
     </g>
     <g id="line2d_4">
      <g>
       <use xlink:href="#m47e8043817" x="231.400211" y="320.4" style="stroke: #000000; stroke-width: 0.8"/>
      </g>
     </g>
     <g id="text_2">
      <!-- $\mathdefault{2.5}$ -->
      <g transform="translate(223.298155 336.394028) scale(0.13 -0.13)">
       <defs>
        <path id="CMR17-32" d="M 2669 989 
L 2554 989 
C 2490 536 2438 459 2413 420 
C 2381 369 1920 369 1830 369 
L 602 369 
C 832 619 1280 1072 1824 1597 
C 2214 1967 2669 2402 2669 3035 
C 2669 3790 2067 4224 1395 4224 
C 691 4224 262 3604 262 3030 
C 262 2780 448 2748 525 2748 
C 589 2748 781 2787 781 3010 
C 781 3207 614 3264 525 3264 
C 486 3264 448 3258 422 3245 
C 544 3790 915 4058 1306 4058 
C 1862 4058 2227 3617 2227 3035 
C 2227 2479 1901 2000 1536 1584 
L 262 146 
L 262 0 
L 2515 0 
L 2669 989 
z
" transform="scale(0.015625)"/>
        <path id="CMR17-35" d="M 730 3692 
C 794 3666 1056 3584 1325 3584 
C 1920 3584 2246 3911 2432 4100 
C 2432 4157 2432 4192 2394 4192 
C 2387 4192 2374 4192 2323 4163 
C 2099 4058 1837 3973 1517 3973 
C 1325 3973 1037 3999 723 4139 
C 653 4171 640 4171 634 4171 
C 602 4171 595 4164 595 4037 
L 595 2203 
C 595 2089 595 2057 659 2057 
C 691 2057 704 2070 736 2114 
C 941 2401 1222 2522 1542 2522 
C 1766 2522 2246 2382 2246 1289 
C 2246 1085 2246 715 2054 421 
C 1894 159 1645 25 1370 25 
C 947 25 518 320 403 814 
C 429 807 480 795 506 795 
C 589 795 749 840 749 1038 
C 749 1210 627 1280 506 1280 
C 358 1280 262 1190 262 1011 
C 262 454 704 -128 1382 -128 
C 2042 -128 2669 440 2669 1264 
C 2669 2030 2170 2624 1549 2624 
C 1222 2624 947 2503 730 2274 
L 730 3692 
z
" transform="scale(0.015625)"/>
       </defs>
       <use xlink:href="#CMR17-32" transform="scale(0.996264)"/>
       <use xlink:href="#CMMI12-3a" transform="translate(45.690477 0) scale(0.996264)"/>
       <use xlink:href="#CMR17-35" transform="translate(72.787654 0) scale(0.996264)"/>
      </g>
     </g>
    </g>
    <g id="xtick_3">
     <g id="line2d_5">
      <path d="M 324.364058 320.4 
L 324.364058 43.2 
" clip-path="url(#p8b10a8bfdd)" style="fill: none; stroke: #b0b0b0; stroke-width: 0.8; stroke-linecap: square"/>
     </g>
     <g id="line2d_6">
      <g>
       <use xlink:href="#m47e8043817" x="324.364058" y="320.4" style="stroke: #000000; stroke-width: 0.8"/>
      </g>
     </g>
     <g id="text_3">
      <!-- $\mathdefault{5.0}$ -->
      <g transform="translate(316.262002 336.394028) scale(0.13 -0.13)">
       <use xlink:href="#CMR17-35" transform="scale(0.996264)"/>
       <use xlink:href="#CMMI12-3a" transform="translate(45.690477 0) scale(0.996264)"/>
       <use xlink:href="#CMR17-30" transform="translate(72.787654 0) scale(0.996264)"/>
      </g>
     </g>
    </g>
    <g id="xtick_4">
     <g id="line2d_7">
      <path d="M 417.327906 320.4 
L 417.327906 43.2 
" clip-path="url(#p8b10a8bfdd)" style="fill: none; stroke: #b0b0b0; stroke-width: 0.8; stroke-linecap: square"/>
     </g>
     <g id="line2d_8">
      <g>
       <use xlink:href="#m47e8043817" x="417.327906" y="320.4" style="stroke: #000000; stroke-width: 0.8"/>
      </g>
     </g>
     <g id="text_4">
      <!-- $\mathdefault{7.5}$ -->
      <g transform="translate(409.22585 336.394028) scale(0.13 -0.13)">
       <defs>
        <path id="CMR17-37" d="M 2886 3941 
L 2886 4081 
L 1382 4081 
C 634 4081 621 4165 595 4288 
L 480 4288 
L 294 3094 
L 410 3094 
C 429 3215 474 3540 550 3661 
C 589 3712 1062 3712 1171 3712 
L 2579 3712 
L 1869 2661 
C 1395 1954 1069 999 1069 165 
C 1069 89 1069 -128 1299 -128 
C 1530 -128 1530 89 1530 171 
L 1530 465 
C 1530 1508 1709 2196 2003 2636 
L 2886 3941 
z
" transform="scale(0.015625)"/>
       </defs>
       <use xlink:href="#CMR17-37" transform="scale(0.996264)"/>
       <use xlink:href="#CMMI12-3a" transform="translate(45.690477 0) scale(0.996264)"/>
       <use xlink:href="#CMR17-35" transform="translate(72.787654 0) scale(0.996264)"/>
      </g>
     </g>
    </g>
    <g id="xtick_5">
     <g id="line2d_9">
      <path d="M 510.291753 320.4 
L 510.291753 43.2 
" clip-path="url(#p8b10a8bfdd)" style="fill: none; stroke: #b0b0b0; stroke-width: 0.8; stroke-linecap: square"/>
     </g>
     <g id="line2d_10">
      <g>
       <use xlink:href="#m47e8043817" x="510.291753" y="320.4" style="stroke: #000000; stroke-width: 0.8"/>
      </g>
     </g>
     <g id="text_5">
      <!-- $\mathdefault{10.0}$ -->
      <g transform="translate(499.019328 336.394028) scale(0.13 -0.13)">
       <defs>
        <path id="CMR17-31" d="M 1702 4058 
C 1702 4192 1696 4192 1606 4192 
C 1357 3916 979 3827 621 3827 
C 602 3827 570 3827 563 3808 
C 557 3795 557 3782 557 3648 
C 755 3648 1088 3686 1344 3839 
L 1344 461 
C 1344 236 1331 160 781 160 
L 589 160 
L 589 0 
C 896 0 1216 0 1523 0 
C 1830 0 2150 0 2458 0 
L 2458 160 
L 2266 160 
C 1715 160 1702 230 1702 458 
L 1702 4058 
z
" transform="scale(0.015625)"/>
       </defs>
       <use xlink:href="#CMR17-31" transform="scale(0.996264)"/>
       <use xlink:href="#CMR17-30" transform="translate(45.690477 0) scale(0.996264)"/>
       <use xlink:href="#CMMI12-3a" transform="translate(91.380954 0) scale(0.996264)"/>
       <use xlink:href="#CMR17-30" transform="translate(118.478131 0) scale(0.996264)"/>
      </g>
     </g>
    </g>
    <g id="xtick_6">
     <g id="line2d_11">
      <path d="M 603.255601 320.4 
L 603.255601 43.2 
" clip-path="url(#p8b10a8bfdd)" style="fill: none; stroke: #b0b0b0; stroke-width: 0.8; stroke-linecap: square"/>
     </g>
     <g id="line2d_12">
      <g>
       <use xlink:href="#m47e8043817" x="603.255601" y="320.4" style="stroke: #000000; stroke-width: 0.8"/>
      </g>
     </g>
     <g id="text_6">
      <!-- $\mathdefault{12.5}$ -->
      <g transform="translate(591.983175 336.394028) scale(0.13 -0.13)">
       <use xlink:href="#CMR17-31" transform="scale(0.996264)"/>
       <use xlink:href="#CMR17-32" transform="translate(45.690477 0) scale(0.996264)"/>
       <use xlink:href="#CMMI12-3a" transform="translate(91.380954 0) scale(0.996264)"/>
       <use xlink:href="#CMR17-35" transform="translate(118.478131 0) scale(0.996264)"/>
      </g>
     </g>
    </g>
    <g id="xtick_7">
     <g id="line2d_13">
      <path d="M 696.219448 320.4 
L 696.219448 43.2 
" clip-path="url(#p8b10a8bfdd)" style="fill: none; stroke: #b0b0b0; stroke-width: 0.8; stroke-linecap: square"/>
     </g>
     <g id="line2d_14">
      <g>
       <use xlink:href="#m47e8043817" x="696.219448" y="320.4" style="stroke: #000000; stroke-width: 0.8"/>
      </g>
     </g>
     <g id="text_7">
      <!-- $\mathdefault{15.0}$ -->
      <g transform="translate(684.947022 336.394028) scale(0.13 -0.13)">
       <use xlink:href="#CMR17-31" transform="scale(0.996264)"/>
       <use xlink:href="#CMR17-35" transform="translate(45.690477 0) scale(0.996264)"/>
       <use xlink:href="#CMMI12-3a" transform="translate(91.380954 0) scale(0.996264)"/>
       <use xlink:href="#CMR17-30" transform="translate(118.478131 0) scale(0.996264)"/>
      </g>
     </g>
    </g>
    <g id="text_8">
     <!-- $t$ (s) -->
     <g transform="translate(430.963961 352.625914) scale(0.13 -0.13)">
      <defs>
       <path id="CMMI12-74" d="M 1286 2566 
L 1875 2566 
C 1997 2566 2061 2566 2061 2681 
C 2061 2752 2022 2752 1894 2752 
L 1331 2752 
L 1568 3692 
C 1594 3781 1594 3794 1594 3840 
C 1594 3943 1510 4000 1427 4000 
C 1376 4000 1229 3981 1178 3775 
L 928 2752 
L 326 2752 
C 198 2752 141 2752 141 2630 
C 141 2566 186 2566 307 2566 
L 877 2566 
L 454 881 
C 403 658 384 594 384 511 
C 384 211 595 -64 954 -64 
C 1600 -64 1946 868 1946 912 
C 1946 951 1920 970 1882 970 
C 1869 970 1843 970 1830 944 
C 1824 938 1818 931 1773 829 
C 1638 511 1344 64 973 64 
C 781 64 768 224 768 364 
C 768 370 768 492 787 568 
L 1286 2566 
z
" transform="scale(0.015625)"/>
       <path id="CMR17-28" d="M 1958 -1561 
C 1958 -1555 1958 -1542 1939 -1523 
C 1645 -1224 858 -407 858 1581 
C 858 3569 1632 4379 1946 4697 
C 1946 4704 1958 4717 1958 4736 
C 1958 4755 1939 4768 1914 4768 
C 1843 4768 1299 4296 986 3594 
C 666 2887 576 2199 576 1588 
C 576 1128 621 351 1005 -471 
C 1312 -1135 1837 -1600 1914 -1600 
C 1946 -1600 1958 -1587 1958 -1561 
z
" transform="scale(0.015625)"/>
       <path id="CMR17-73" d="M 1978 2697 
C 1978 2813 1971 2819 1933 2819 
C 1907 2819 1901 2813 1824 2717 
C 1805 2691 1747 2626 1728 2601 
C 1523 2819 1235 2819 1126 2819 
C 416 2819 160 2447 160 2076 
C 160 1498 813 1365 998 1325 
C 1402 1243 1542 1217 1677 1101 
C 1760 1025 1901 884 1901 654 
C 1901 384 1747 38 1158 38 
C 602 38 403 460 288 1021 
C 269 1110 269 1117 218 1117 
C 166 1117 160 1110 160 983 
L 160 63 
C 160 -51 166 -58 205 -58 
C 237 -58 243 -51 275 0 
C 314 57 410 211 448 276 
C 576 103 800 -64 1158 -64 
C 1792 -64 2131 283 2131 784 
C 2131 1112 1958 1285 1875 1362 
C 1683 1561 1459 1606 1190 1657 
C 838 1735 390 1825 390 2217 
C 390 2383 480 2737 1126 2737 
C 1811 2737 1850 2094 1862 1888 
C 1869 1856 1901 1849 1920 1849 
C 1978 1849 1978 1869 1978 1978 
L 1978 2697 
z
" transform="scale(0.015625)"/>
       <path id="CMR17-29" d="M 1683 1581 
C 1683 2040 1638 2817 1254 3639 
C 947 4303 422 4768 346 4768 
C 326 4768 301 4761 301 4729 
C 301 4717 307 4710 314 4697 
C 621 4378 1402 3568 1402 1584 
C 1402 -407 627 -1217 314 -1537 
C 307 -1549 301 -1556 301 -1568 
C 301 -1600 326 -1600 346 -1600 
C 416 -1600 960 -1128 1274 -426 
C 1594 281 1683 969 1683 1581 
z
" transform="scale(0.015625)"/>
      </defs>
      <use xlink:href="#CMMI12-74" transform="scale(0.996264)"/>
      <use xlink:href="#CMR17-28" transform="translate(65.302297 0) scale(0.996264)"/>
      <use xlink:href="#CMR17-73" transform="translate(100.583064 0) scale(0.996264)"/>
      <use xlink:href="#CMR17-29" transform="translate(136.384402 0) scale(0.996264)"/>
     </g>
    </g>
   </g>
   <g id="matplotlib.axis_2">
    <g id="ytick_1">
     <g id="line2d_15">
      <path d="M 108 288.490126 
L 777.6 288.490126 
" clip-path="url(#p8b10a8bfdd)" style="fill: none; stroke: #b0b0b0; stroke-width: 0.8; stroke-linecap: square"/>
     </g>
     <g id="line2d_16">
      <defs>
       <path id="m89fdfca915" d="M 0 0 
L -3.5 0 
" style="stroke: #000000; stroke-width: 0.8"/>
      </defs>
      <g>
       <use xlink:href="#m89fdfca915" x="108" y="288.490126" style="stroke: #000000; stroke-width: 0.8"/>
      </g>
     </g>
     <g id="text_9">
      <!-- $\mathdefault{−0.02}$ -->
      <g transform="translate(68.381779 292.98714) scale(0.13 -0.13)">
       <defs>
        <path id="CMSY10-0" d="M 4218 1472 
C 4326 1472 4442 1472 4442 1600 
C 4442 1728 4326 1728 4218 1728 
L 755 1728 
C 646 1728 531 1728 531 1600 
C 531 1472 646 1472 755 1472 
L 4218 1472 
z
" transform="scale(0.015625)"/>
       </defs>
       <use xlink:href="#CMSY10-0" transform="scale(0.996264)"/>
       <use xlink:href="#CMR17-30" transform="translate(77.487468 0) scale(0.996264)"/>
       <use xlink:href="#CMMI12-3a" transform="translate(123.177945 0) scale(0.996264)"/>
       <use xlink:href="#CMR17-30" transform="translate(150.275122 0) scale(0.996264)"/>
       <use xlink:href="#CMR17-32" transform="translate(195.965599 0) scale(0.996264)"/>
      </g>
     </g>
    </g>
    <g id="ytick_2">
     <g id="line2d_17">
      <path d="M 108 248.021398 
L 777.6 248.021398 
" clip-path="url(#p8b10a8bfdd)" style="fill: none; stroke: #b0b0b0; stroke-width: 0.8; stroke-linecap: square"/>
     </g>
     <g id="line2d_18">
      <g>
       <use xlink:href="#m89fdfca915" x="108" y="248.021398" style="stroke: #000000; stroke-width: 0.8"/>
      </g>
     </g>
     <g id="text_10">
      <!-- $\mathdefault{−0.01}$ -->
      <g transform="translate(68.381779 252.518413) scale(0.13 -0.13)">
       <use xlink:href="#CMSY10-0" transform="scale(0.996264)"/>
       <use xlink:href="#CMR17-30" transform="translate(77.487468 0) scale(0.996264)"/>
       <use xlink:href="#CMMI12-3a" transform="translate(123.177945 0) scale(0.996264)"/>
       <use xlink:href="#CMR17-30" transform="translate(150.275122 0) scale(0.996264)"/>
       <use xlink:href="#CMR17-31" transform="translate(195.965599 0) scale(0.996264)"/>
      </g>
     </g>
    </g>
    <g id="ytick_3">
     <g id="line2d_19">
      <path d="M 108 207.552671 
L 777.6 207.552671 
" clip-path="url(#p8b10a8bfdd)" style="fill: none; stroke: #b0b0b0; stroke-width: 0.8; stroke-linecap: square"/>
     </g>
     <g id="line2d_20">
      <g>
       <use xlink:href="#m89fdfca915" x="108" y="207.552671" style="stroke: #000000; stroke-width: 0.8"/>
      </g>
     </g>
     <g id="text_11">
      <!-- $\mathdefault{0.00}$ -->
      <g transform="translate(78.455149 212.049685) scale(0.13 -0.13)">
       <use xlink:href="#CMR17-30" transform="scale(0.996264)"/>
       <use xlink:href="#CMMI12-3a" transform="translate(45.690477 0) scale(0.996264)"/>
       <use xlink:href="#CMR17-30" transform="translate(72.787654 0) scale(0.996264)"/>
       <use xlink:href="#CMR17-30" transform="translate(118.478131 0) scale(0.996264)"/>
      </g>
     </g>
    </g>
    <g id="ytick_4">
     <g id="line2d_21">
      <path d="M 108 167.083943 
L 777.6 167.083943 
" clip-path="url(#p8b10a8bfdd)" style="fill: none; stroke: #b0b0b0; stroke-width: 0.8; stroke-linecap: square"/>
     </g>
     <g id="line2d_22">
      <g>
       <use xlink:href="#m89fdfca915" x="108" y="167.083943" style="stroke: #000000; stroke-width: 0.8"/>
      </g>
     </g>
     <g id="text_12">
      <!-- $\mathdefault{0.01}$ -->
      <g transform="translate(78.455149 171.580958) scale(0.13 -0.13)">
       <use xlink:href="#CMR17-30" transform="scale(0.996264)"/>
       <use xlink:href="#CMMI12-3a" transform="translate(45.690477 0) scale(0.996264)"/>
       <use xlink:href="#CMR17-30" transform="translate(72.787654 0) scale(0.996264)"/>
       <use xlink:href="#CMR17-31" transform="translate(118.478131 0) scale(0.996264)"/>
      </g>
     </g>
    </g>
    <g id="ytick_5">
     <g id="line2d_23">
      <path d="M 108 126.615216 
L 777.6 126.615216 
" clip-path="url(#p8b10a8bfdd)" style="fill: none; stroke: #b0b0b0; stroke-width: 0.8; stroke-linecap: square"/>
     </g>
     <g id="line2d_24">
      <g>
       <use xlink:href="#m89fdfca915" x="108" y="126.615216" style="stroke: #000000; stroke-width: 0.8"/>
      </g>
     </g>
     <g id="text_13">
      <!-- $\mathdefault{0.02}$ -->
      <g transform="translate(78.455149 131.11223) scale(0.13 -0.13)">
       <use xlink:href="#CMR17-30" transform="scale(0.996264)"/>
       <use xlink:href="#CMMI12-3a" transform="translate(45.690477 0) scale(0.996264)"/>
       <use xlink:href="#CMR17-30" transform="translate(72.787654 0) scale(0.996264)"/>
       <use xlink:href="#CMR17-32" transform="translate(118.478131 0) scale(0.996264)"/>
      </g>
     </g>
    </g>
    <g id="ytick_6">
     <g id="line2d_25">
      <path d="M 108 86.146488 
L 777.6 86.146488 
" clip-path="url(#p8b10a8bfdd)" style="fill: none; stroke: #b0b0b0; stroke-width: 0.8; stroke-linecap: square"/>
     </g>
     <g id="line2d_26">
      <g>
       <use xlink:href="#m89fdfca915" x="108" y="86.146488" style="stroke: #000000; stroke-width: 0.8"/>
      </g>
     </g>
     <g id="text_14">
      <!-- $\mathdefault{0.03}$ -->
      <g transform="translate(78.455149 90.643503) scale(0.13 -0.13)">
       <defs>
        <path id="CMR17-33" d="M 1414 2157 
C 1984 2157 2234 1662 2234 1090 
C 2234 320 1824 25 1453 25 
C 1114 25 563 194 390 693 
C 422 680 454 680 486 680 
C 640 680 755 782 755 948 
C 755 1133 614 1216 486 1216 
C 378 1216 211 1165 211 926 
C 211 335 787 -128 1466 -128 
C 2176 -128 2720 430 2720 1085 
C 2720 1707 2208 2157 1600 2227 
C 2086 2328 2554 2756 2554 3329 
C 2554 3820 2048 4179 1472 4179 
C 890 4179 378 3829 378 3329 
C 378 3110 544 3072 627 3072 
C 762 3072 877 3155 877 3321 
C 877 3486 762 3569 627 3569 
C 602 3569 570 3569 544 3557 
C 730 3959 1235 4032 1459 4032 
C 1683 4032 2106 3925 2106 3320 
C 2106 3143 2080 2828 1862 2550 
C 1670 2304 1453 2304 1242 2284 
C 1210 2284 1062 2269 1037 2269 
C 992 2263 966 2257 966 2208 
C 966 2163 973 2157 1101 2157 
L 1414 2157 
z
" transform="scale(0.015625)"/>
       </defs>
       <use xlink:href="#CMR17-30" transform="scale(0.996264)"/>
       <use xlink:href="#CMMI12-3a" transform="translate(45.690477 0) scale(0.996264)"/>
       <use xlink:href="#CMR17-30" transform="translate(72.787654 0) scale(0.996264)"/>
       <use xlink:href="#CMR17-33" transform="translate(118.478131 0) scale(0.996264)"/>
      </g>
     </g>
    </g>
    <g id="ytick_7">
     <g id="line2d_27">
      <path d="M 108 45.677761 
L 777.6 45.677761 
" clip-path="url(#p8b10a8bfdd)" style="fill: none; stroke: #b0b0b0; stroke-width: 0.8; stroke-linecap: square"/>
     </g>
     <g id="line2d_28">
      <g>
       <use xlink:href="#m89fdfca915" x="108" y="45.677761" style="stroke: #000000; stroke-width: 0.8"/>
      </g>
     </g>
     <g id="text_15">
      <!-- $\mathdefault{0.04}$ -->
      <g transform="translate(78.455149 50.174775) scale(0.13 -0.13)">
       <defs>
        <path id="CMR17-34" d="M 2150 4122 
C 2150 4256 2144 4256 2029 4256 
L 128 1254 
L 128 1088 
L 1779 1088 
L 1779 457 
C 1779 224 1766 160 1318 160 
L 1197 160 
L 1197 0 
C 1402 0 1747 0 1965 0 
C 2182 0 2528 0 2733 0 
L 2733 160 
L 2611 160 
C 2163 160 2150 224 2150 457 
L 2150 1088 
L 2803 1088 
L 2803 1254 
L 2150 1254 
L 2150 4122 
z
M 1798 3703 
L 1798 1254 
L 256 1254 
L 1798 3703 
z
" transform="scale(0.015625)"/>
       </defs>
       <use xlink:href="#CMR17-30" transform="scale(0.996264)"/>
       <use xlink:href="#CMMI12-3a" transform="translate(45.690477 0) scale(0.996264)"/>
       <use xlink:href="#CMR17-30" transform="translate(72.787654 0) scale(0.996264)"/>
       <use xlink:href="#CMR17-34" transform="translate(118.478131 0) scale(0.996264)"/>
      </g>
     </g>
    </g>
    <g id="text_16">
     <!-- displacement (m) -->
     <g transform="translate(61.143921 229.919159) rotate(-90) scale(0.13 -0.13)">
      <defs>
       <path id="CMR17-64" d="M 1869 4326 
L 1869 4160 
C 2246 4160 2304 4122 2304 3820 
L 2304 2345 
C 2278 2377 2016 2790 1498 2790 
C 845 2790 211 2208 211 1364 
C 211 525 806 -64 1434 -64 
C 1978 -64 2259 337 2291 380 
L 2291 -63 
L 3066 -63 
L 3066 128 
C 2688 128 2630 166 2630 473 
L 2630 4396 
L 1869 4326 
z
M 2291 755 
C 2291 563 2176 390 2029 262 
C 1811 70 1594 38 1472 38 
C 1286 38 621 134 621 1356 
C 621 2612 1363 2688 1530 2688 
C 1824 2688 2061 2522 2208 2291 
C 2291 2157 2291 2138 2291 2023 
L 2291 755 
z
" transform="scale(0.015625)"/>
       <path id="CMR17-69" d="M 992 3909 
C 992 4049 877 4170 730 4170 
C 589 4170 467 4056 467 3909 
C 467 3769 582 3648 730 3648 
C 870 3648 992 3763 992 3909 
z
M 243 2706 
L 243 2541 
C 602 2541 653 2502 653 2197 
L 653 427 
C 653 184 627 153 218 153 
L 218 -13 
C 371 0 646 0 806 0 
C 960 0 1222 0 1370 -13 
L 1370 153 
C 992 153 979 191 979 420 
L 979 2776 
L 243 2706 
z
" transform="scale(0.015625)"/>
       <path id="CMR17-70" d="M 1408 -1063 
C 998 -1063 973 -1037 973 -789 
L 973 402 
C 1158 134 1427 -38 1766 -38 
C 2406 -38 3053 523 3053 1388 
C 3053 2191 2496 2802 1837 2802 
C 1453 2802 1139 2592 960 2338 
L 960 2802 
L 198 2732 
L 198 2567 
C 576 2567 634 2528 634 2223 
L 634 -789 
C 634 -1031 608 -1063 198 -1063 
L 198 -1228 
C 352 -1216 634 -1216 800 -1216 
C 966 -1216 1254 -1216 1408 -1228 
L 1408 -1063 
z
M 973 2012 
C 973 2102 973 2235 1222 2471 
C 1254 2497 1472 2688 1792 2688 
C 2259 2688 2643 2108 2643 1382 
C 2643 656 2234 64 1728 64 
C 1498 64 1248 172 1056 472 
C 973 612 973 650 973 752 
L 973 2012 
z
" transform="scale(0.015625)"/>
       <path id="CMR17-6c" d="M 979 4396 
L 218 4326 
L 218 4160 
C 595 4160 653 4122 653 3817 
L 653 426 
C 653 184 627 153 218 153 
L 218 -13 
C 371 0 653 0 813 0 
C 979 0 1261 0 1414 -13 
L 1414 153 
C 1005 153 979 178 979 426 
L 979 4396 
z
" transform="scale(0.015625)"/>
       <path id="CMR17-61" d="M 2304 1653 
C 2304 2072 2304 2294 2035 2543 
C 1798 2752 1523 2816 1306 2816 
C 800 2816 435 2407 435 1971 
C 435 1728 627 1728 666 1728 
C 749 1728 896 1778 896 1954 
C 896 2112 774 2181 666 2181 
C 640 2181 608 2174 589 2168 
C 723 2592 1069 2714 1293 2714 
C 1613 2714 1965 2429 1965 1885 
L 1965 1600 
C 1587 1600 1133 1549 774 1357 
C 371 1133 256 813 256 570 
C 256 77 832 -64 1171 -64 
C 1523 -64 1850 139 1990 511 
C 2003 233 2182 -18 2464 -18 
C 2598 -18 2938 70 2938 567 
L 2938 920 
L 2822 920 
L 2822 562 
C 2822 178 2650 128 2566 128 
C 2304 128 2304 458 2304 738 
L 2304 1653 
z
M 1965 870 
C 1965 317 1568 38 1216 38 
C 896 38 646 275 646 570 
C 646 761 730 1100 1101 1305 
C 1408 1478 1760 1504 1965 1504 
L 1965 870 
z
" transform="scale(0.015625)"/>
       <path id="CMR17-63" d="M 2234 2240 
C 2112 2240 1933 2240 1933 2017 
C 1933 1838 2080 1787 2163 1787 
C 2208 1787 2394 1807 2394 2024 
C 2394 2467 1958 2803 1466 2803 
C 787 2803 211 2178 211 1363 
C 211 516 813 -64 1466 -64 
C 2259 -64 2458 677 2458 748 
C 2458 774 2451 793 2406 793 
C 2362 793 2355 787 2330 703 
C 2163 180 1798 51 1523 51 
C 1114 51 621 427 621 1369 
C 621 2338 1094 2688 1472 2688 
C 1722 2688 2093 2573 2234 2240 
z
" transform="scale(0.015625)"/>
       <path id="CMR17-65" d="M 2438 1472 
C 2464 1498 2464 1511 2464 1576 
C 2464 2238 2118 2816 1389 2816 
C 710 2816 173 2169 173 1383 
C 173 551 781 -64 1459 -64 
C 2176 -64 2458 607 2458 740 
C 2458 784 2419 784 2406 784 
C 2362 784 2355 771 2330 696 
C 2189 265 1837 51 1504 51 
C 1229 51 954 203 781 480 
C 582 803 582 1176 582 1472 
L 2438 1472 
z
M 589 1568 
C 634 2505 1126 2714 1382 2714 
C 1818 2714 2112 2297 2118 1568 
L 589 1568 
z
" transform="scale(0.015625)"/>
       <path id="CMR17-6d" d="M 4326 1933 
C 4326 2252 4269 2790 3507 2790 
C 3072 2790 2771 2496 2656 2151 
L 2650 2151 
C 2573 2676 2195 2790 1837 2790 
C 1331 2790 1069 2400 973 2144 
L 966 2144 
L 966 2790 
L 211 2720 
L 211 2554 
C 589 2554 646 2515 646 2208 
L 646 428 
C 646 184 621 153 211 153 
L 211 -13 
C 365 0 646 0 813 0 
C 979 0 1267 0 1421 -13 
L 1421 153 
C 1011 153 986 178 986 428 
L 986 1658 
C 986 2247 1344 2688 1792 2688 
C 2266 2688 2317 2266 2317 1958 
L 2317 428 
C 2317 184 2291 153 1882 153 
L 1882 -13 
C 2035 0 2317 0 2483 0 
C 2650 0 2938 0 3091 -13 
L 3091 153 
C 2682 153 2656 178 2656 428 
L 2656 1658 
C 2656 2247 3014 2688 3462 2688 
C 3936 2688 3987 2266 3987 1958 
L 3987 428 
C 3987 184 3962 153 3552 153 
L 3552 -13 
C 3706 0 3987 0 4154 0 
C 4320 0 4608 0 4762 -13 
L 4762 153 
C 4352 153 4326 178 4326 428 
L 4326 1933 
z
" transform="scale(0.015625)"/>
       <path id="CMR17-6e" d="M 2656 1933 
C 2656 2259 2592 2790 1837 2790 
C 1331 2790 1069 2400 973 2144 
L 966 2144 
L 966 2790 
L 211 2720 
L 211 2554 
C 589 2554 646 2515 646 2208 
L 646 428 
C 646 184 621 153 211 153 
L 211 -13 
C 365 0 646 0 813 0 
C 979 0 1267 0 1421 -13 
L 1421 153 
C 1011 153 986 178 986 428 
L 986 1658 
C 986 2247 1344 2688 1792 2688 
C 2266 2688 2317 2266 2317 1958 
L 2317 428 
C 2317 184 2291 153 1882 153 
L 1882 -13 
C 2035 0 2317 0 2483 0 
C 2650 0 2938 0 3091 -13 
L 3091 153 
C 2682 153 2656 178 2656 428 
L 2656 1933 
z
" transform="scale(0.015625)"/>
       <path id="CMR17-74" d="M 966 2560 
L 1862 2560 
L 1862 2725 
L 966 2725 
L 966 3904 
L 851 3904 
C 838 3245 614 2668 70 2668 
L 70 2560 
L 627 2560 
L 627 771 
C 627 650 627 -64 1370 -64 
C 1747 -64 1965 306 1965 777 
L 1965 1140 
L 1850 1140 
L 1850 783 
C 1850 344 1677 51 1408 51 
C 1222 51 966 178 966 758 
L 966 2560 
z
" transform="scale(0.015625)"/>
      </defs>
      <use xlink:href="#CMR17-64" transform="scale(0.996264)"/>
      <use xlink:href="#CMR17-69" transform="translate(50.89537 0) scale(0.996264)"/>
      <use xlink:href="#CMR17-73" transform="translate(75.766428 0) scale(0.996264)"/>
      <use xlink:href="#CMR17-70" transform="translate(111.567766 0) scale(0.996264)"/>
      <use xlink:href="#CMR17-6c" transform="translate(162.463136 0) scale(0.996264)"/>
      <use xlink:href="#CMR17-61" transform="translate(187.334194 0) scale(0.996264)"/>
      <use xlink:href="#CMR17-63" transform="translate(233.024671 0) scale(0.996264)"/>
      <use xlink:href="#CMR17-65" transform="translate(273.510332 0) scale(0.996264)"/>
      <use xlink:href="#CMR17-6d" transform="translate(313.995992 0) scale(0.996264)"/>
      <use xlink:href="#CMR17-65" transform="translate(390.915582 0) scale(0.996264)"/>
      <use xlink:href="#CMR17-6e" transform="translate(431.401243 0) scale(0.996264)"/>
      <use xlink:href="#CMR17-74" transform="translate(479.694158 0) scale(0.996264)"/>
      <use xlink:href="#CMR17-28" transform="translate(545.050893 0) scale(0.996264)"/>
      <use xlink:href="#CMR17-6d" transform="translate(580.33166 0) scale(0.996264)"/>
      <use xlink:href="#CMR17-29" transform="translate(657.25125 0) scale(0.996264)"/>
     </g>
    </g>
   </g>
   <g id="line2d_29">
    <path d="M 138.436364 205.583827 
L 138.808219 201.887192 
L 139.180074 200.225375 
L 139.55193 200.03383 
L 139.923785 200.748015 
L 140.667496 202.635391 
L 141.039351 202.852627 
L 141.411207 202.75621 
L 141.783062 202.820391 
L 142.526773 203.668881 
L 142.898628 203.121016 
L 143.642339 200.056955 
L 144.014194 200.60629 
L 144.38605 201.854234 
L 144.757905 201.976329 
L 145.129761 199.71359 
L 145.873471 192.610709 
L 146.245327 190.568623 
L 146.617182 189.817513 
L 146.989038 189.893523 
L 147.360893 190.457949 
L 147.732748 191.672683 
L 148.104604 193.824771 
L 149.22017 202.381016 
L 149.592025 202.723588 
L 149.963881 201.756101 
L 150.707591 199.293807 
L 151.079447 199.131956 
L 151.823158 201.078065 
L 152.195013 201.00508 
L 152.566868 199.000858 
L 153.310579 192.853522 
L 153.682435 190.902884 
L 154.05429 190.005409 
L 154.426145 189.893523 
L 154.798001 190.382211 
L 155.169856 191.616698 
L 155.541712 193.824771 
L 156.285422 200.239531 
L 156.657278 202.381016 
L 157.029133 202.636787 
L 158.144699 199.543927 
L 158.88841 198.86604 
L 159.260265 198.759297 
L 159.632121 198.889143 
L 160.003976 199.327249 
L 160.375832 200.122307 
L 161.491398 203.839513 
L 161.863253 203.548828 
L 162.235109 201.404514 
L 162.978819 195.62852 
L 163.350675 194.194455 
L 163.72253 193.405637 
L 164.094386 192.252272 
L 164.838096 188.217264 
L 165.209952 187.997274 
L 165.953662 192.737897 
L 166.325518 193.183331 
L 166.697373 192.696563 
L 167.069229 193.200397 
L 167.441084 195.982669 
L 168.184795 202.739454 
L 168.55665 203.470848 
L 169.300361 201.883829 
L 169.672216 201.826184 
L 170.044072 202.199723 
L 170.415927 202.288516 
L 170.787783 201.611268 
L 171.159638 200.625224 
L 171.531493 200.022268 
L 171.903349 200.267856 
L 172.275204 200.921746 
L 172.647059 201.317267 
L 173.018915 201.017921 
L 173.39077 200.507892 
L 173.762626 200.334454 
L 174.506336 200.346018 
L 174.878192 200.036014 
L 175.621903 199.131956 
L 175.993758 198.902679 
L 176.365613 198.904839 
L 176.737469 199.131956 
L 177.853035 200.346018 
L 178.596746 200.427311 
L 178.968601 200.507892 
L 180.084167 201.317267 
L 180.456023 201.135985 
L 181.199733 200.507892 
L 182.3153 200.346018 
L 183.430866 198.645603 
L 183.802721 198.576262 
L 184.174577 199.131956 
L 184.918287 201.438222 
L 185.290143 201.525392 
L 185.661998 199.997738 
L 186.405709 195.339458 
L 186.777564 194.141936 
L 187.14942 194.129765 
L 187.521275 195.25852 
L 188.264986 200.173588 
L 189.008697 205.621611 
L 189.380552 207.501224 
L 189.752407 208.381951 
L 190.124263 208.164957 
L 190.496118 207.636433 
L 190.867974 207.803826 
L 191.239829 209.554564 
L 191.611684 213.29601 
L 192.355395 224.483782 
L 192.727251 227.80694 
L 193.099106 227.309735 
L 194.214672 218.887159 
L 194.958383 215.793509 
L 195.330238 213.3631 
L 195.702094 211.760721 
L 196.073949 213.076323 
L 196.445804 218.587457 
L 197.189515 233.495687 
L 197.561371 238.033466 
L 199.420648 251.059114 
L 199.792503 251.698486 
L 200.164358 251.70927 
L 200.536214 252.330989 
L 201.65178 258.424423 
L 202.023635 258.063818 
L 203.511057 251.396093 
L 203.882912 250.515677 
L 204.254768 249.964578 
L 204.626623 250.293961 
L 204.998478 252.192239 
L 205.370334 256.092578 
L 206.4859 273.10262 
L 208.345177 301.275024 
L 208.717032 301.428844 
L 209.460743 297.332214 
L 209.832598 296.317471 
L 210.204454 296.178445 
L 210.576309 296.210652 
L 210.948165 295.981999 
L 211.32002 296.14996 
L 211.691875 297.644401 
L 212.807442 307.495645 
L 213.179297 307.8 
L 214.294863 303.91943 
L 215.038574 302.80351 
L 215.410429 301.621899 
L 216.525995 295.967839 
L 216.897851 295.978704 
L 217.641562 297.713776 
L 218.013417 297.942454 
L 218.385272 297.862046 
L 218.757128 298.037526 
L 219.128983 298.850176 
L 219.872694 300.789399 
L 220.616405 301.242776 
L 220.98826 302.084398 
L 221.731971 305.701936 
L 222.103826 305.934709 
L 222.475682 303.699159 
L 223.219392 296.915964 
L 223.591248 295.296584 
L 223.963103 294.958232 
L 224.706814 295.479734 
L 225.078669 296.295335 
L 225.450525 298.303463 
L 226.194236 305.405652 
L 226.566091 307.460958 
L 226.937946 306.744172 
L 228.425368 295.808834 
L 228.797223 292.660966 
L 229.540934 283.089049 
L 230.6565 264.880676 
L 231.400211 248.9237 
L 232.515777 218.815704 
L 233.259488 193.593521 
L 234.003199 164.432913 
L 234.375054 156.940687 
L 234.74691 156.096606 
L 235.118765 161.588539 
L 235.862476 186.745449 
L 236.606186 212.646721 
L 237.721753 239.585515 
L 238.093608 246.461361 
L 238.465463 250.400052 
L 238.837319 250.372585 
L 239.209174 247.061653 
L 239.952885 234.681046 
L 240.32474 225.72777 
L 240.696596 213.723823 
L 241.440307 179.154623 
L 242.555873 121.651686 
L 242.927728 117.730163 
L 243.299583 123.062893 
L 244.043294 146.451803 
L 244.787005 177.463843 
L 245.902571 231.957875 
L 246.646282 255.818715 
L 247.018137 263.361607 
L 247.389993 268.488377 
L 247.761848 270.348519 
L 248.133704 267.801605 
L 248.505559 260.174865 
L 249.24927 234.940998 
L 250.736691 178.800224 
L 251.108547 168.867912 
L 251.480402 164.14385 
L 251.852257 165.950411 
L 252.224113 172.249158 
L 252.967824 190.584992 
L 254.827101 245.3267 
L 255.198956 249.592141 
L 255.570811 250.978177 
L 255.942667 249.690147 
L 256.314522 245.492567 
L 256.686378 238.039747 
L 257.430088 213.766722 
L 258.91751 156.050105 
L 259.289365 147.362045 
L 259.661221 142.459055 
L 260.033076 141.215425 
L 260.404931 143.736044 
L 260.776787 151.048201 
L 261.148642 164.409788 
L 262.264208 220.595498 
L 263.007919 243.994431 
L 263.75163 261.189677 
L 264.123485 264.483169 
L 264.495341 262.219421 
L 264.867196 255.076526 
L 265.610907 230.927391 
L 267.098328 176.180006 
L 267.470184 167.890098 
L 267.842039 163.643047 
L 268.213895 162.661198 
L 268.58575 163.785413 
L 268.957605 166.199975 
L 269.329461 170.462846 
L 269.701316 177.475405 
L 270.445027 199.898646 
L 271.188738 223.597429 
L 271.932448 239.820371 
L 272.304304 243.841982 
L 272.676159 244.636689 
L 273.048015 241.890057 
L 273.41987 235.484321 
L 274.163581 214.567885 
L 275.279147 172.075721 
L 276.022858 144.730423 
L 276.394713 141.326913 
L 276.766569 145.15902 
L 277.138424 153.991981 
L 277.882135 179.321091 
L 279.369556 232.015687 
L 280.113267 248.014435 
L 280.485122 251.371302 
L 280.856978 251.085642 
L 281.228833 247.683941 
L 281.972544 234.483771 
L 283.08811 207.561786 
L 283.831821 186.702275 
L 284.575532 164.941662 
L 284.947387 160.047962 
L 285.319243 159.792962 
L 285.691098 163.056976 
L 286.062953 168.863524 
L 286.806664 186.6329 
L 288.294086 229.516647 
L 288.665941 236.470324 
L 289.037796 241.277245 
L 289.409652 243.747451 
L 289.781507 243.171569 
L 290.153363 238.710371 
L 290.525218 229.966782 
L 292.384495 173.844782 
L 292.75635 167.982157 
L 293.128206 165.711187 
L 293.500061 167.809161 
L 295.359338 201.652579 
L 296.474904 227.911002 
L 297.218615 243.686075 
L 297.59047 247.937241 
L 297.962326 248.472536 
L 298.334181 245.378005 
L 298.706037 238.987871 
L 299.449747 218.031372 
L 301.309024 153.251214 
L 301.68088 147.362422 
L 302.052735 146.98511 
L 302.42459 152.859093 
L 303.168301 175.573686 
L 304.655723 224.960221 
L 305.399434 240.842044 
L 305.771289 245.402929 
L 306.143144 247.289741 
L 306.515 246.224066 
L 306.886855 242.079481 
L 307.258711 234.767561 
L 308.002421 212.388843 
L 308.746132 188.788892 
L 309.117987 179.662476 
L 309.489843 173.567282 
L 309.861698 171.061484 
L 310.233554 171.285155 
L 310.605409 173.023845 
L 310.977264 175.614267 
L 311.34912 180.597793 
L 311.720975 190.066961 
L 312.464686 219.516632 
L 312.836541 229.502599 
L 313.208397 235.16111 
L 313.580252 238.375059 
L 313.952108 240.520813 
L 314.323963 240.948631 
L 314.695818 238.502246 
L 315.067674 232.508973 
L 316.926951 188.795086 
L 318.042517 153.968856 
L 318.414372 149.410978 
L 318.786228 149.48041 
L 319.158083 152.916669 
L 319.529938 158.745535 
L 319.901794 167.13785 
L 320.645505 192.946223 
L 321.389215 222.118193 
L 322.132926 239.732342 
L 322.876637 248.760688 
L 323.248492 250.345105 
L 323.620348 248.538491 
L 323.992203 242.721973 
L 325.479625 210.274831 
L 325.85148 198.889143 
L 326.595191 169.79791 
L 326.967046 163.78756 
L 327.338902 164.484218 
L 327.710757 169.266035 
L 328.454468 184.523824 
L 329.198178 207.746074 
L 329.941889 230.223501 
L 330.313745 235.762886 
L 330.6856 237.655412 
L 331.057455 237.322872 
L 331.429311 235.877549 
L 331.801166 233.193683 
L 332.173022 228.836002 
L 332.544877 222.441037 
L 333.288588 203.306016 
L 334.404154 167.658848 
L 334.776009 160.498737 
L 335.147865 157.206544 
L 335.51972 157.796041 
L 335.891575 162.150328 
L 336.263431 169.629795 
L 337.007142 190.814848 
L 338.122708 222.841265 
L 338.866419 237.21881 
L 339.238274 242.877021 
L 339.610129 246.686921 
L 339.981985 247.509429 
L 340.35384 244.497504 
L 340.725696 237.972282 
L 341.469406 216.988866 
L 342.213117 193.165709 
L 342.956828 177.116651 
L 343.328683 173.544157 
L 343.700539 173.24259 
L 344.072394 175.55181 
L 344.816105 184.673202 
L 345.559816 197.466957 
L 347.047237 226.102013 
L 347.419093 230.535716 
L 347.790948 233.114124 
L 348.162803 233.615206 
L 348.534659 232.05575 
L 348.906514 228.512252 
L 349.27837 223.032854 
L 350.02208 205.976952 
L 351.137646 173.081658 
L 351.509502 166.600774 
L 351.881357 163.55464 
L 352.253213 163.623538 
L 352.625068 166.5662 
L 352.996923 172.455146 
L 353.368779 181.441341 
L 355.228056 240.264705 
L 355.599911 246.734742 
L 355.971767 250.427124 
L 356.343622 251.355807 
L 356.715477 249.590678 
L 357.087333 245.265174 
L 357.831043 230.547251 
L 358.94661 199.698518 
L 360.062176 169.161972 
L 360.434031 162.206325 
L 360.805887 157.972808 
L 361.177742 157.044479 
L 361.549597 159.859854 
L 361.921453 166.279272 
L 362.665164 188.50142 
L 363.408874 214.429135 
L 363.78073 224.109819 
L 364.152585 230.531246 
L 364.52444 233.507249 
L 364.896296 233.023711 
L 365.268151 229.754697 
L 366.011862 218.132468 
L 367.127428 194.161357 
L 367.871139 178.458217 
L 368.242994 172.783309 
L 368.61485 169.111019 
L 368.986705 167.670411 
L 369.358561 168.722926 
L 369.730416 172.659521 
L 370.102271 179.903529 
L 370.845982 202.995959 
L 371.589693 226.587208 
L 372.333404 242.144432 
L 372.705259 246.108802 
L 373.077114 247.34611 
L 373.44897 245.79818 
L 373.820825 241.506295 
L 374.564536 226.546628 
L 375.680102 195.686333 
L 376.423813 175.830993 
L 376.795668 169.462597 
L 377.167524 166.86897 
L 377.539379 167.04256 
L 378.28309 170.184001 
L 378.654945 172.931942 
L 379.026801 178.00728 
L 379.770511 196.193603 
L 380.514222 215.057685 
L 381.257933 228.072877 
L 381.629788 232.460129 
L 382.001644 234.979009 
L 382.373499 235.056623 
L 382.745355 232.244334 
L 383.11721 226.590536 
L 383.860921 207.785618 
L 384.604632 188.101337 
L 384.976487 182.669169 
L 385.348342 179.822176 
L 386.092053 176.5568 
L 386.463908 177.072763 
L 386.835764 182.04259 
L 387.579475 206.710045 
L 388.323185 229.156137 
L 389.066896 240.814745 
L 389.438752 245.762478 
L 389.810607 248.521865 
L 390.182462 246.445679 
L 390.554318 237.90353 
L 391.669884 201.14713 
L 392.78545 174.119395 
L 393.157305 166.685895 
L 393.529161 162.814163 
L 393.901016 163.809077 
L 395.016582 174.842885 
L 395.388438 177.493718 
L 395.760293 182.296965 
L 396.504004 201.327822 
L 397.247715 220.073615 
L 397.61957 225.998328 
L 397.991426 229.552876 
L 398.363281 230.812142 
L 398.735136 229.97588 
L 399.106992 227.275065 
L 399.478847 222.946043 
L 400.222558 210.440074 
L 400.966269 196.044834 
L 401.338124 191.026648 
L 401.709979 188.733144 
L 402.081835 187.713408 
L 402.45369 185.950713 
L 403.197401 179.663423 
L 403.569256 181.464466 
L 403.941112 189.925215 
L 404.684823 211.212997 
L 405.428533 226.176628 
L 406.172244 236.876312 
L 406.5441 239.95912 
L 406.915955 240.930301 
L 407.28781 239.458172 
L 407.659666 235.238941 
L 408.031521 227.968815 
L 409.890798 179.189141 
L 410.262653 174.052907 
L 410.634509 170.610767 
L 411.006364 170.410722 
L 411.37822 174.767397 
L 412.12193 191.801335 
L 413.609352 227.720726 
L 414.353063 240.999745 
L 414.724918 244.39893 
L 415.096773 245.571847 
L 415.468629 244.82693 
L 415.840484 242.359868 
L 416.21234 237.915364 
L 416.584195 231.125375 
L 417.327906 210.640626 
L 418.443472 175.345847 
L 418.815327 167.786036 
L 419.187183 164.728161 
L 419.559038 165.712462 
L 419.930894 169.844159 
L 420.674604 184.544852 
L 422.162026 220.360694 
L 422.533881 223.321001 
L 422.905737 223.973124 
L 423.277592 224.384442 
L 423.649447 225.846889 
L 424.021303 226.550628 
L 424.393158 223.910379 
L 424.765014 216.273664 
L 425.88058 187.263731 
L 426.624291 177.290405 
L 426.996146 173.912216 
L 427.368001 171.840701 
L 427.739857 171.751971 
L 428.111712 174.098326 
L 428.483568 178.436824 
L 429.227278 190.577979 
L 429.970989 206.555077 
L 431.086555 234.894748 
L 431.458411 241.205164 
L 431.830266 244.444739 
L 432.202121 244.052243 
L 432.573977 239.809029 
L 433.317688 224.719754 
L 434.433254 198.923831 
L 435.176965 179.314837 
L 435.54882 172.087283 
L 435.920675 168.55638 
L 436.292531 168.444195 
L 436.664386 171.058221 
L 437.036241 175.783467 
L 437.779952 190.425398 
L 438.895518 217.400696 
L 439.267374 223.521038 
L 439.639229 227.29786 
L 440.011085 228.755064 
L 440.38294 227.96363 
L 440.754795 225.182859 
L 441.498506 214.927859 
L 442.985928 190.320537 
L 443.357783 187.396025 
L 443.729638 187.078446 
L 444.101494 188.592676 
L 445.588915 197.952581 
L 446.332626 205.973399 
L 447.820048 225.899128 
L 448.191903 228.574744 
L 448.563759 229.753943 
L 448.935614 229.645376 
L 449.307469 228.344193 
L 449.679325 225.491541 
L 450.05118 220.615069 
L 450.794891 205.175957 
L 451.538602 189.459332 
L 452.282312 179.441029 
L 452.654168 177.249189 
L 453.026023 177.116717 
L 453.397879 179.117279 
L 453.769734 183.194507 
L 454.513445 195.142895 
L 456.000866 220.067026 
L 456.372722 224.74298 
L 456.744577 227.783815 
L 457.116432 228.751338 
L 457.488288 227.869815 
L 457.860143 225.529129 
L 458.231999 222.050772 
L 458.975709 211.804449 
L 460.091276 192.159772 
L 460.463131 187.511917 
L 460.834986 184.497853 
L 461.206842 183.10634 
L 461.578697 183.367159 
L 461.950553 185.474175 
L 462.322408 189.662273 
L 463.066119 203.920436 
L 464.181685 228.79993 
L 464.55354 233.437874 
L 464.925396 234.368412 
L 465.297251 232.560058 
L 466.040962 226.058454 
L 466.412817 221.509457 
L 466.784673 214.510072 
L 468.272094 174.837199 
L 468.64395 170.014376 
L 469.015805 167.254161 
L 469.38766 166.12592 
L 469.759516 167.190068 
L 470.131371 171.254784 
L 470.875082 188.166508 
L 471.618793 206.44192 
L 472.734359 227.414667 
L 473.106214 232.833663 
L 473.47807 236.085685 
L 473.849925 236.454519 
L 474.22178 234.475814 
L 474.965491 226.658357 
L 475.709202 214.336635 
L 476.824768 190.633523 
L 477.196624 187.023309 
L 477.568479 185.869265 
L 477.940334 185.996963 
L 478.31219 186.574341 
L 478.684045 188.138795 
L 479.0559 191.570085 
L 479.799611 204.417864 
L 480.543322 216.765818 
L 480.915177 220.801039 
L 481.287033 223.609755 
L 481.658888 225.383863 
L 482.030744 226.203018 
L 482.402599 226.118816 
L 482.774454 224.980719 
L 483.14631 221.829661 
L 483.518165 215.504447 
L 485.377442 167.713271 
L 486.121153 158.135 
L 486.493008 155.800545 
L 486.864864 157.611041 
L 487.236719 164.817464 
L 489.467851 228.121174 
L 489.839707 236.511365 
L 490.211562 241.970994 
L 490.583418 243.308099 
L 490.955273 240.987713 
L 491.327128 235.889123 
L 492.070839 220.247792 
L 493.558261 182.331653 
L 493.930116 176.489304 
L 494.301971 173.390854 
L 494.673827 173.18572 
L 495.045682 175.78719 
L 497.276815 200.889491 
L 498.764236 216.699594 
L 499.136092 218.684132 
L 499.507947 218.381112 
L 499.879802 215.616793 
L 500.251658 210.359137 
L 500.995368 193.75916 
L 501.739079 176.006791 
L 502.110935 169.869211 
L 502.48279 167.531661 
L 502.854645 169.875165 
L 504.713922 198.299456 
L 506.201344 224.630117 
L 506.573199 228.205395 
L 506.945055 230.639751 
L 507.31691 232.12698 
L 507.688765 232.13944 
L 508.060621 229.969126 
L 508.432476 225.183873 
L 509.176187 210.729137 
L 509.919898 196.09165 
L 510.291753 191.096023 
L 510.663609 188.569088 
L 511.035464 187.675871 
L 511.407319 187.222587 
L 511.779175 186.393495 
L 512.15103 185.885025 
L 512.522886 186.77165 
L 512.894741 189.819828 
L 513.638452 200.230393 
L 514.754018 216.626008 
L 515.125873 220.477386 
L 515.497729 223.051199 
L 515.869584 224.176317 
L 516.241439 223.691391 
L 516.613295 221.474189 
L 516.98515 217.412258 
L 518.100716 199.976018 
L 518.472572 196.554569 
L 518.844427 194.678352 
L 519.588138 192.601809 
L 519.959993 191.990376 
L 520.331849 192.10196 
L 520.703704 193.237091 
L 521.07556 195.388718 
L 521.81927 202.405015 
L 522.562981 212.463511 
L 523.306692 223.486922 
L 523.678547 227.078503 
L 524.050403 228.150963 
L 524.422258 226.850194 
L 524.794113 223.575067 
L 525.537824 212.698338 
L 527.397101 179.027586 
L 528.140812 170.214159 
L 528.512667 167.574075 
L 528.884523 166.972001 
L 529.256378 169.33541 
L 529.628233 175.21013 
L 531.48751 218.048195 
L 531.859366 222.650613 
L 532.231221 225.294256 
L 532.603077 226.46569 
L 532.974932 226.524808 
L 533.346787 225.324817 
L 533.718643 222.592255 
L 534.462354 213.086106 
L 535.206064 203.905033 
L 535.57792 200.828953 
L 535.949775 198.773518 
L 536.32163 197.712043 
L 536.693486 197.644365 
L 537.065341 198.576956 
L 537.437197 200.538715 
L 537.809052 203.648259 
L 538.552763 213.579846 
L 538.924618 218.913663 
L 539.296474 222.418818 
L 539.668329 222.972895 
L 540.040184 221.480915 
L 540.783895 217.621591 
L 541.155751 215.769756 
L 541.527606 212.902886 
L 543.015027 195.233123 
L 543.758738 189.835711 
L 544.502449 183.26051 
L 544.874304 181.684153 
L 545.24616 182.660069 
L 545.618015 185.882821 
L 546.361726 196.577526 
L 547.477292 214.74555 
L 548.221003 223.40163 
L 548.592858 226.053914 
L 548.964714 227.436497 
L 549.336569 227.471627 
L 549.708425 226.144227 
L 550.08028 223.689905 
L 550.823991 216.630804 
L 551.567701 209.572887 
L 552.311412 205.188264 
L 553.055123 200.576123 
L 553.426978 198.194707 
L 553.798834 196.807894 
L 554.170689 197.077609 
L 554.542545 198.94272 
L 554.9144 202.161329 
L 556.401822 218.304551 
L 556.773677 220.348363 
L 557.145532 221.389756 
L 557.517388 221.394513 
L 557.889243 219.834816 
L 558.261098 216.059446 
L 559.004809 202.102136 
L 559.74852 188.296673 
L 560.120375 183.670713 
L 560.492231 180.678216 
L 560.864086 179.364594 
L 561.235942 179.852853 
L 561.607797 182.285403 
L 562.351508 192.099581 
L 563.467074 207.670878 
L 565.326351 231.226339 
L 565.698206 233.778327 
L 566.070062 234.432249 
L 566.441917 232.779965 
L 566.813772 229.007138 
L 567.557483 216.466903 
L 569.044905 184.84174 
L 569.41676 179.475717 
L 569.788616 176.589711 
L 570.160471 175.92043 
L 570.532326 176.978218 
L 570.904182 179.321306 
L 571.647892 186.9104 
L 573.135314 205.259039 
L 573.879025 211.180074 
L 574.25088 213.17105 
L 574.622736 213.787094 
L 574.994591 212.162886 
L 575.366446 207.779256 
L 577.225723 178.111342 
L 577.597579 175.567668 
L 577.969434 174.773286 
L 578.341289 175.694781 
L 578.713145 178.298486 
L 579.085 182.549714 
L 579.828711 195.720079 
L 580.944277 218.750846 
L 581.687988 228.755064 
L 582.059843 231.133107 
L 582.431699 231.678611 
L 582.803554 230.454751 
L 583.17541 227.600526 
L 583.91912 218.846007 
L 585.778397 195.205413 
L 586.150253 192.495084 
L 586.522108 191.509466 
L 586.893963 191.971656 
L 587.265819 193.431646 
L 588.00953 198.105516 
L 589.868807 213.629494 
L 590.240662 215.093221 
L 590.612517 215.620072 
L 590.984373 215.186596 
L 591.356228 213.896526 
L 592.099939 209.291176 
L 593.58736 196.811841 
L 593.959216 195.316333 
L 594.331071 195.567528 
L 595.074782 198.946956 
L 595.818493 202.842111 
L 596.190348 205.826639 
L 598.049625 226.242939 
L 598.421481 227.818502 
L 598.793336 228.197941 
L 599.165191 227.31254 
L 599.537047 225.089754 
L 599.908902 221.505113 
L 600.652613 210.969679 
L 602.140034 186.667588 
L 602.51189 184.632562 
L 602.883745 184.445357 
L 603.627456 185.746621 
L 603.999311 187.030938 
L 604.371167 189.754773 
L 605.114878 200.26508 
L 605.858588 211.542721 
L 606.230444 215.620072 
L 606.602299 217.955737 
L 606.974154 218.692202 
L 607.34601 218.129133 
L 607.717865 216.539704 
L 608.461576 210.924139 
L 609.577142 199.85485 
L 609.948998 198.391956 
L 610.320853 199.373432 
L 610.692708 201.218752 
L 611.064564 201.802892 
L 611.808275 197.386019 
L 612.18013 196.756544 
L 612.551985 197.904462 
L 613.295696 203.11166 
L 614.039407 210.706012 
L 614.783118 219.769044 
L 615.154973 223.089442 
L 615.526828 224.563295 
L 615.898684 224.070018 
L 616.270539 221.644033 
L 616.642395 217.319758 
L 618.129816 194.887468 
L 618.873527 188.055087 
L 619.617238 180.157904 
L 619.989093 179.528476 
L 620.360949 180.986358 
L 621.476515 187.574966 
L 621.84837 191.859147 
L 623.335792 218.438282 
L 623.707647 221.19276 
L 624.079502 222.557568 
L 624.451358 223.078491 
L 624.823213 222.833209 
L 625.195069 221.782372 
L 625.566924 219.886632 
L 625.938779 217.120059 
L 626.68249 209.098825 
L 627.798056 194.483833 
L 628.541767 188.679462 
L 628.913622 186.534243 
L 629.285478 185.15604 
L 629.657333 185.141338 
L 630.029189 186.8337 
L 631.888466 200.022268 
L 632.632176 207.807142 
L 633.004032 209.434137 
L 633.375887 207.71413 
L 634.119598 198.669456 
L 634.863309 190.509309 
L 635.235164 187.870611 
L 635.607019 186.424775 
L 635.978875 186.28276 
L 636.35073 187.303525 
L 636.722586 189.277133 
L 637.466296 195.142895 
L 638.581863 206.173514 
L 639.697429 219.655382 
L 640.44114 229.073062 
L 640.812995 230.801626 
L 641.18485 229.045229 
L 642.672272 213.551914 
L 643.787838 204.919119 
L 644.531549 198.600081 
L 645.27526 194.279331 
L 645.647115 193.119459 
L 646.01897 192.662561 
L 646.390826 192.902363 
L 646.762681 193.824771 
L 647.506392 197.306937 
L 648.250103 201.173937 
L 648.621958 202.234395 
L 648.993814 201.941642 
L 649.365669 199.860449 
L 649.737524 196.180177 
L 650.85309 181.67259 
L 651.224946 180.775163 
L 651.596801 182.279245 
L 652.712367 189.287933 
L 654.9435 201.450208 
L 655.315355 206.185077 
L 656.430921 226.026316 
L 656.802777 227.685871 
L 657.174632 226.029408 
L 657.546487 222.095068 
L 659.033909 201.913572 
L 659.405764 198.922826 
L 659.77762 196.981332 
L 660.149475 195.936156 
L 661.265041 194.122852 
L 662.008752 192.448834 
L 662.380608 192.134674 
L 662.752463 192.721032 
L 663.124318 194.691958 
L 664.239884 205.433515 
L 664.61174 206.752981 
L 664.983595 206.702846 
L 665.727306 205.753022 
L 666.471017 205.50289 
L 667.214728 205.225063 
L 668.330294 204.314897 
L 668.702149 204.520078 
L 669.074005 205.234694 
L 669.44586 205.604066 
L 669.817715 204.543203 
L 670.933282 195.570708 
L 671.305137 196.108444 
L 671.676992 198.770692 
L 673.164414 213.966635 
L 673.908125 223.61247 
L 674.27998 226.592878 
L 674.651835 226.854651 
L 675.023691 224.484361 
L 675.395546 219.851944 
L 676.882968 194.924816 
L 677.998534 183.726428 
L 678.370389 180.814696 
L 678.742245 179.764779 
L 679.1141 181.281299 
L 680.601522 193.582567 
L 680.973377 197.952581 
L 682.088943 217.770695 
L 682.460799 221.186055 
L 682.832654 222.23175 
L 683.204509 221.632568 
L 683.576365 219.945934 
L 683.94822 217.059801 
L 684.320076 212.694761 
L 685.435642 195.801958 
L 685.807497 193.167207 
L 686.179352 192.584231 
L 686.551208 193.454771 
L 687.666774 198.866018 
L 688.038629 199.804071 
L 688.410485 200.172329 
L 689.154196 200.52152 
L 689.526051 201.197356 
L 689.897906 202.693204 
L 691.385328 212.166848 
L 691.757183 212.157541 
L 692.129039 210.23195 
L 693.61646 194.741083 
L 693.988316 193.538823 
L 695.103882 191.677407 
L 696.219448 188.00082 
L 696.591303 189.361649 
L 696.963159 193.863551 
L 698.45058 219.875069 
L 698.822436 222.25921 
L 699.194291 221.793682 
L 699.566146 218.58007 
L 700.681713 201.328829 
L 701.053568 198.385279 
L 702.169134 194.18344 
L 702.54099 192.475321 
L 702.912845 191.893835 
L 703.2847 193.128207 
L 704.028411 197.004457 
L 704.772122 197.913652 
L 705.143977 199.814143 
L 706.259544 212.498198 
L 706.631399 212.449347 
L 707.37511 208.65945 
L 707.746965 208.697871 
L 708.490676 211.041324 
L 708.862531 211.154467 
L 709.234387 210.32001 
L 709.978097 207.084648 
L 710.721808 201.943466 
L 711.465519 193.685996 
L 712.20923 185.939151 
L 712.581085 184.720545 
L 712.952941 185.687662 
L 713.324796 188.760399 
L 714.068507 199.837268 
L 714.812217 211.301128 
L 715.184073 213.955072 
L 715.555928 213.323368 
L 715.927784 211.124751 
L 716.299639 209.700075 
L 716.671494 210.555768 
L 717.04335 211.860576 
L 717.415205 210.948824 
L 717.787061 206.154019 
L 718.530771 195.235395 
L 718.902627 194.715912 
L 719.274482 196.304815 
L 719.646338 197.004457 
L 720.018193 194.780082 
L 720.390048 191.448512 
L 720.761904 189.789461 
L 721.133759 191.708809 
L 721.87747 199.051018 
L 722.249325 200.280695 
L 722.621181 200.509871 
L 722.993036 201.675704 
L 724.108602 212.521323 
L 724.480458 213.095461 
L 724.852313 211.417564 
L 725.596024 204.530367 
L 726.71159 193.344371 
L 727.083445 191.097047 
L 727.455301 190.460086 
L 727.827156 191.74488 
L 729.686433 204.20789 
L 730.430144 207.05502 
L 730.801999 209.411012 
L 731.917565 219.851944 
L 732.289421 220.90411 
L 732.661276 220.480676 
L 733.404987 218.044673 
L 734.148698 214.648822 
L 736.007975 202.652081 
L 736.37983 199.097268 
L 737.495396 184.933214 
L 737.867252 184.505141 
L 738.239107 186.393373 
L 740.470239 202.868969 
L 740.842095 204.62414 
L 741.21395 204.762724 
L 741.585806 204.08243 
L 741.957661 203.710703 
L 742.329516 204.431214 
L 742.701372 205.652532 
L 743.073227 206.439452 
L 743.445082 206.107747 
L 744.932504 201.293992 
L 745.304359 199.814143 
L 746.04807 196.09452 
L 746.419926 195.30477 
L 746.791781 196.323266 
L 747.163636 199.971161 
L 747.163636 199.971161 
" clip-path="url(#p8b10a8bfdd)" style="fill: none; stroke: #ff0000; stroke-linecap: square"/>
   </g>
   <g id="line2d_30">
    <path d="M 138.436364 250.361998 
L 138.808219 218.446504 
L 139.180074 202.796629 
L 139.55193 198.677652 
L 139.923785 201.354852 
L 140.295641 206.093507 
L 140.667496 208.158897 
L 141.039351 204.449274 
L 141.411207 198.394796 
L 141.783062 195.058592 
L 142.154918 197.518093 
L 142.526773 200.907929 
L 142.898628 198.377027 
L 143.642339 176.419852 
L 144.014194 178.266197 
L 144.757905 193.61328 
L 145.129761 191.35995 
L 146.245327 165.536062 
L 146.617182 162.223574 
L 146.989038 163.400484 
L 147.360893 169.205444 
L 148.848315 206.391845 
L 149.22017 209.708271 
L 149.592025 207.624046 
L 150.335736 199.244214 
L 150.707591 199.295779 
L 151.451302 203.239477 
L 151.823158 204.251929 
L 152.195013 204.285462 
L 152.566868 203.123619 
L 152.938724 200.271044 
L 153.310579 195.162654 
L 154.05429 181.354106 
L 154.426145 178.998288 
L 154.798001 183.303397 
L 155.541712 203.811399 
L 156.285422 222.540284 
L 156.657278 225.861075 
L 157.029133 223.363699 
L 158.144699 206.526579 
L 159.260265 194.33402 
L 159.632121 195.995154 
L 160.375832 214.09173 
L 160.747687 218.322329 
L 161.119542 212.515672 
L 161.491398 202.029949 
L 161.863253 194.688592 
L 162.235109 196.149378 
L 163.350675 215.885983 
L 164.094386 220.819827 
L 164.838096 227.901401 
L 165.209952 226.392949 
L 165.581807 218.327682 
L 166.325518 199.010587 
L 166.697373 193.652012 
L 167.069229 192.029218 
L 167.441084 194.041635 
L 167.812939 197.413477 
L 168.184795 199.325152 
L 168.55665 197.754571 
L 169.672216 186.74508 
L 170.044072 185.796368 
L 170.415927 187.115159 
L 171.159638 195.286664 
L 171.531493 199.255777 
L 171.903349 201.525522 
L 172.275204 203.068503 
L 172.647059 205.372336 
L 173.018915 209.003185 
L 173.39077 210.841395 
L 173.762626 208.096882 
L 174.506336 198.966714 
L 174.878192 198.358526 
L 175.250047 198.861186 
L 175.621903 197.024216 
L 175.993758 190.575611 
L 176.737469 174.78954 
L 177.109324 171.695371 
L 177.48118 171.307936 
L 177.853035 171.26298 
L 178.596746 168.621368 
L 178.968601 169.378293 
L 179.340456 173.729597 
L 180.084167 190.549219 
L 180.827878 209.34043 
L 181.199733 214.102019 
L 181.571589 213.382461 
L 183.430866 192.020384 
L 183.802721 190.962168 
L 184.174577 193.89078 
L 185.290143 217.432017 
L 185.661998 218.276962 
L 186.033854 217.233196 
L 186.405709 219.640453 
L 187.14942 239.035508 
L 187.521275 243.147002 
L 187.89313 235.99475 
L 188.636841 209.777646 
L 189.008697 203.728145 
L 189.380552 203.445001 
L 189.752407 206.45921 
L 190.867974 217.790454 
L 191.239829 218.726671 
L 191.611684 214.391081 
L 191.98354 202.56884 
L 193.099106 155.351813 
L 193.842817 136.876124 
L 194.214672 131.584153 
L 194.586527 129.119972 
L 194.958383 129.927065 
L 195.330238 134.30396 
L 195.702094 141.969369 
L 196.445804 165.090275 
L 197.189515 186.987971 
L 197.561371 191.364069 
L 197.933226 189.799647 
L 198.305081 181.865787 
L 199.048792 149.28415 
L 199.792503 110.733052 
L 200.164358 95.82183 
L 200.536214 87.319277 
L 200.908069 87.254869 
L 201.279924 95.283729 
L 201.65178 110.467389 
L 202.767346 167.852044 
L 203.139201 173.981636 
L 203.511057 172.052108 
L 203.882912 165.077046 
L 205.370334 130.090851 
L 205.742189 125.435261 
L 206.114045 122.943319 
L 206.857755 121.322789 
L 207.229611 118.179572 
L 208.345177 99.66802 
L 208.717032 100.656293 
L 209.460743 109.785202 
L 209.832598 112.205172 
L 210.204454 112.289799 
L 210.576309 110.606139 
L 210.948165 107.597064 
L 211.32002 103.208709 
L 212.435586 85.279761 
L 212.807442 86.163027 
L 213.179297 95.140602 
L 213.923008 120.122071 
L 214.294863 126.390929 
L 214.666718 127.664205 
L 215.038574 125.724304 
L 215.782285 118.671879 
L 216.15414 113.147867 
L 216.525995 103.587705 
L 217.269706 75.719124 
L 217.641562 69.709599 
L 218.013417 75.869925 
L 218.757128 103.529893 
L 219.128983 112.316165 
L 219.500839 115.599868 
L 219.872694 114.491136 
L 220.244549 109.983571 
L 220.616405 102.604623 
L 221.360116 81.222837 
L 222.103826 61.951166 
L 222.475682 58.433538 
L 222.847537 58.212927 
L 223.219392 59.164605 
L 223.591248 59.580248 
L 223.963103 59.417143 
L 225.078669 58.235517 
L 225.450525 57.222106 
L 225.82238 55.8 
L 226.194236 55.896477 
L 226.566091 59.893042 
L 227.681657 88.984276 
L 228.053513 92.553258 
L 228.425368 93.708181 
L 228.797223 96.684896 
L 229.169079 104.53297 
L 231.028356 162.22111 
L 232.143922 226.450762 
L 233.631343 278.582433 
L 234.003199 294.056662 
L 234.375054 298.846602 
L 234.74691 295.918176 
L 235.118765 291.038851 
L 235.49062 287.979322 
L 235.862476 282.523194 
L 236.234331 268.457301 
L 236.978042 208.643233 
L 237.721753 152.229997 
L 238.093608 135.588941 
L 238.465463 125.105506 
L 238.837319 119.973017 
L 239.209174 122.416582 
L 239.58103 135.41925 
L 241.068451 229.497538 
L 241.812162 248.222937 
L 242.555873 276.678234 
L 242.927728 281.962427 
L 243.299583 279.775976 
L 243.671439 272.920423 
L 244.043294 263.425909 
L 244.41515 250.23696 
L 244.787005 231.526696 
L 246.646282 110.354279 
L 247.018137 101.945831 
L 247.389993 103.192645 
L 247.761848 113.564096 
L 248.133704 132.066127 
L 248.877414 186.207373 
L 249.621125 241.775818 
L 250.364836 283.234168 
L 250.736691 297.047923 
L 251.108547 303.774669 
L 251.480402 300.843845 
L 251.852257 287.377319 
L 252.967824 238.050189 
L 254.455245 180.894537 
L 255.570811 132.725189 
L 255.942667 124.569083 
L 256.314522 123.241141 
L 256.686378 129.649566 
L 257.058233 144.21319 
L 257.801944 191.162031 
L 258.545654 245.248827 
L 258.91751 265.242928 
L 259.289365 275.979884 
L 259.661221 279.355673 
L 260.033076 278.51667 
L 260.404931 275.398029 
L 260.776787 267.090018 
L 261.148642 249.471686 
L 261.892353 193.38203 
L 262.264208 175.909251 
L 262.636064 166.71437 
L 263.75163 147.296967 
L 264.123485 146.785181 
L 264.495341 154.377584 
L 265.239051 185.380785 
L 267.470184 291.420413 
L 267.842039 297.610525 
L 268.213895 296.985285 
L 268.58575 290.183226 
L 269.329461 263.17183 
L 271.188738 184.610996 
L 271.932448 146.033619 
L 272.304304 132.359889 
L 272.676159 124.258242 
L 273.048015 122.261132 
L 273.41987 126.821319 
L 273.791725 138.072796 
L 274.163581 156.069863 
L 274.907292 208.828623 
L 275.651002 266.434417 
L 276.022858 286.286666 
L 276.394713 293.512278 
L 276.766569 291.230034 
L 277.510279 277.231325 
L 277.882135 268.596553 
L 278.25399 256.617307 
L 278.997701 220.240793 
L 280.113267 162.548426 
L 280.485122 148.86643 
L 280.856978 140.013729 
L 281.228833 137.384796 
L 281.600689 142.414558 
L 281.972544 155.737014 
L 284.575532 284.586979 
L 284.947387 284.487908 
L 285.319243 276.683518 
L 286.806664 233.920133 
L 287.550375 196.493075 
L 288.294086 158.73382 
L 289.037796 132.436127 
L 289.409652 124.628989 
L 289.781507 122.610428 
L 290.153363 128.782379 
L 290.525218 144.50832 
L 292.75635 276.555059 
L 293.128206 287.567861 
L 293.500061 292.588225 
L 293.871916 291.273465 
L 294.243772 285.812604 
L 294.615627 278.384696 
L 294.987483 268.597232 
L 295.731193 238.336681 
L 296.84676 182.059439 
L 297.59047 157.503613 
L 297.962326 152.526576 
L 298.334181 153.543983 
L 298.706037 161.29611 
L 299.449747 194.558227 
L 300.193458 231.776754 
L 300.937169 260.317305 
L 301.309024 271.150631 
L 301.68088 277.995325 
L 302.052735 278.863545 
L 302.42459 272.225847 
L 302.796446 258.386369 
L 304.655723 163.448224 
L 305.399434 140.500843 
L 305.771289 133.588801 
L 306.143144 134.147376 
L 306.515 144.398772 
L 308.002421 216.958686 
L 309.489843 291.281663 
L 309.861698 295.808965 
L 310.233554 294.177535 
L 310.605409 290.934788 
L 310.977264 288.903017 
L 311.34912 284.004023 
L 311.720975 270.434487 
L 312.836541 200.616914 
L 314.323963 153.443469 
L 314.695818 148.612055 
L 315.067674 153.951698 
L 315.811384 182.790786 
L 318.042517 273.799173 
L 318.414372 276.62677 
L 318.786228 274.001817 
L 319.529938 263.943645 
L 319.901794 256.853513 
L 320.273649 244.997001 
L 321.01736 205.209395 
L 321.761071 168.488956 
L 322.132926 157.566302 
L 322.504781 151.837991 
L 322.876637 151.37537 
L 323.248492 156.535762 
L 323.620348 167.747982 
L 325.107769 231.093257 
L 325.85148 249.182624 
L 326.595191 275.047922 
L 326.967046 280.916466 
L 327.338902 280.402786 
L 327.710757 274.978547 
L 328.082612 265.884921 
L 328.826323 237.735755 
L 329.941889 186.849221 
L 330.313745 178.433239 
L 330.6856 174.538144 
L 331.429311 171.003589 
L 331.801166 170.818016 
L 332.173022 174.061103 
L 332.544877 182.062914 
L 333.288588 206.82921 
L 334.776009 256.477675 
L 335.147865 265.716366 
L 335.51972 271.960736 
L 335.891575 274.354092 
L 336.263431 272.778578 
L 336.635286 267.301051 
L 337.007142 258.11864 
L 337.750852 231.642321 
L 339.238274 173.380843 
L 339.610129 166.559013 
L 339.981985 168.522669 
L 340.35384 181.154087 
L 341.841262 254.199015 
L 342.956828 294.703865 
L 343.328683 297.698847 
L 343.700539 289.755301 
L 344.816105 250.489518 
L 345.18796 240.826984 
L 345.559816 226.346699 
L 346.675382 159.318924 
L 347.047237 150.90168 
L 347.419093 149.978512 
L 347.790948 150.670179 
L 348.162803 148.968133 
L 348.534659 148.346598 
L 348.906514 154.150489 
L 349.27837 169.870533 
L 350.393936 231.228521 
L 351.881357 287.649412 
L 352.253213 294.553849 
L 352.625068 292.546941 
L 352.996923 282.474006 
L 353.740634 245.444059 
L 354.8562 181.766709 
L 355.228056 168.123371 
L 355.599911 162.070798 
L 355.971767 164.878128 
L 356.715477 185.612034 
L 358.202899 228.568868 
L 359.318465 255.647076 
L 359.69032 261.634729 
L 360.062176 264.919178 
L 360.434031 264.759199 
L 360.805887 260.480553 
L 361.177742 251.425748 
L 361.921453 219.603544 
L 363.408874 146.010494 
L 363.78073 134.193373 
L 364.152585 126.471164 
L 364.52444 122.781444 
L 364.896296 123.292094 
L 365.268151 129.092193 
L 365.640007 141.501121 
L 366.383717 185.512753 
L 367.499284 258.409873 
L 367.871139 275.464172 
L 368.242994 286.243139 
L 368.61485 290.056592 
L 368.986705 286.413853 
L 369.358561 275.439489 
L 370.845982 212.842527 
L 371.217838 202.435463 
L 371.589693 195.73987 
L 371.961548 192.311169 
L 372.333404 191.462656 
L 372.705259 192.391211 
L 373.077114 193.828048 
L 373.44897 194.387967 
L 373.820825 193.405976 
L 374.192681 193.097917 
L 374.564536 196.399841 
L 374.936391 205.364642 
L 376.423813 259.39333 
L 376.795668 265.566677 
L 377.167524 264.699134 
L 377.539379 257.725667 
L 378.28309 231.970514 
L 379.026801 203.776712 
L 379.398656 193.898629 
L 379.770511 187.201291 
L 380.142367 182.964223 
L 381.257933 174.962978 
L 382.001644 166.386027 
L 382.373499 166.67267 
L 382.745355 173.411456 
L 383.489065 200.365776 
L 384.976487 263.163173 
L 385.720198 284.691042 
L 386.092053 289.868644 
L 386.463908 289.594351 
L 386.835764 282.366981 
L 387.579475 249.162983 
L 388.323185 217.591786 
L 390.182462 164.695484 
L 390.554318 169.015901 
L 391.669884 196.918077 
L 392.041739 203.844154 
L 392.413595 215.131081 
L 393.157305 252.388895 
L 393.529161 264.213866 
L 393.901016 263.267167 
L 394.644727 245.482626 
L 395.016582 241.542408 
L 395.388438 239.039815 
L 395.760293 232.093259 
L 396.875859 184.52516 
L 397.247715 179.349487 
L 397.61957 179.655253 
L 397.991426 179.726725 
L 398.735136 171.571057 
L 399.106992 172.904854 
L 399.478847 183.539486 
L 400.222558 214.633893 
L 401.709979 257.124491 
L 402.45369 283.75448 
L 402.825546 286.248144 
L 403.197401 280.692855 
L 403.569256 268.838863 
L 403.941112 252.046456 
L 404.684823 203.580651 
L 405.428533 157.9083 
L 405.800389 149.211939 
L 406.172244 148.26952 
L 406.5441 150.126742 
L 406.915955 151.121916 
L 407.28781 152.763811 
L 407.659666 157.85381 
L 408.031521 169.193294 
L 409.147087 226.323574 
L 409.518943 234.730092 
L 409.890798 238.649927 
L 410.262653 244.407314 
L 411.006364 264.190741 
L 411.37822 262.423574 
L 411.750075 252.386571 
L 412.865641 214.24697 
L 413.609352 197.880003 
L 413.981207 193.333392 
L 414.353063 191.127344 
L 414.724918 191.166819 
L 415.096773 193.316007 
L 415.468629 197.428903 
L 416.21234 210.547739 
L 417.327906 237.113559 
L 418.815327 278.74792 
L 419.187183 279.237796 
L 419.559038 273.933811 
L 419.930894 264.294803 
L 420.674604 234.985605 
L 421.418315 189.674652 
L 422.162026 146.889243 
L 422.533881 138.086699 
L 422.905737 137.947135 
L 423.277592 144.114245 
L 423.649447 154.495139 
L 424.393158 184.004848 
L 425.508724 234.058882 
L 426.252435 255.284969 
L 426.996146 267.152078 
L 427.368001 270.682175 
L 427.739857 272.781673 
L 428.111712 273.207774 
L 428.483568 270.326421 
L 428.855423 262.155742 
L 429.970989 217.582329 
L 430.342844 210.09821 
L 431.086555 202.65515 
L 431.830266 189.063574 
L 432.202121 185.334535 
L 432.573977 187.487666 
L 433.317688 201.845775 
L 434.061398 218.372606 
L 434.433254 230.809822 
L 435.54882 277.267921 
L 435.920675 279.696763 
L 436.292531 273.068521 
L 436.664386 259.207306 
L 437.408097 217.480298 
L 438.151808 171.371665 
L 438.523663 153.655956 
L 438.895518 144.426432 
L 439.267374 146.108963 
L 439.639229 155.778006 
L 442.242217 248.858874 
L 442.614072 253.349644 
L 442.985928 255.273751 
L 443.357783 258.328556 
L 444.101494 270.878865 
L 444.473349 271.625424 
L 444.845205 263.457335 
L 446.332626 208.045713 
L 446.704482 200.192339 
L 447.076337 195.585335 
L 447.448192 193.123605 
L 448.563759 187.864636 
L 448.935614 187.427346 
L 449.307469 188.833194 
L 450.05118 195.324529 
L 450.423035 199.457296 
L 450.794891 205.240505 
L 451.166746 214.194519 
L 452.282312 249.633561 
L 452.654168 252.5062 
L 453.026023 250.452806 
L 454.513445 234.428882 
L 456.000866 212.62503 
L 456.744577 205.002336 
L 457.860143 189.554845 
L 458.231999 188.16747 
L 458.603854 189.993465 
L 458.975709 195.127967 
L 459.347565 203.590176 
L 460.091276 229.283573 
L 460.834986 258.93311 
L 461.206842 266.341365 
L 461.578697 264.238865 
L 461.950553 254.499714 
L 462.694263 224.121322 
L 464.181685 156.887724 
L 464.55354 151.363928 
L 464.925396 157.095971 
L 466.040962 195.610905 
L 466.784673 210.217021 
L 467.900239 225.988262 
L 468.64395 233.080502 
L 469.015805 234.46357 
L 469.38766 233.825791 
L 469.759516 231.24353 
L 470.131371 226.913261 
L 470.875082 214.245727 
L 471.618793 199.998267 
L 471.990648 195.748452 
L 472.362503 196.792966 
L 473.47807 219.073891 
L 473.849925 216.214842 
L 474.593636 202.169525 
L 474.965491 200.739721 
L 475.337347 203.756961 
L 476.081057 215.901237 
L 476.452913 224.337561 
L 477.196624 250.549613 
L 477.568479 264.180278 
L 477.940334 271.336362 
L 478.31219 268.214554 
L 478.684045 257.378863 
L 480.171467 197.197653 
L 480.915177 164.721747 
L 481.287033 156.578613 
L 481.658888 158.235403 
L 482.774454 180.59946 
L 483.14631 185.068716 
L 483.518165 191.242969 
L 484.261876 213.143742 
L 485.005587 232.997126 
L 485.749297 247.772 
L 486.493008 264.085617 
L 486.864864 265.30074 
L 487.236719 257.702975 
L 488.352285 218.751097 
L 488.724141 211.166436 
L 489.095996 207.627022 
L 489.467851 208.156279 
L 489.839707 211.996606 
L 490.583418 225.639767 
L 490.955273 232.58132 
L 491.327128 237.111381 
L 491.698984 238.044195 
L 492.070839 237.084685 
L 492.442695 236.660444 
L 492.81455 238.69621 
L 493.186405 243.105317 
L 494.301971 261.043901 
L 494.673827 260.421368 
L 495.045682 252.428629 
L 495.789393 230.046697 
L 496.904959 212.749207 
L 497.64867 183.784699 
L 498.392381 154.596637 
L 498.764236 145.070152 
L 499.136092 138.911123 
L 499.507947 136.484896 
L 499.879802 140.277804 
L 500.251658 153.306427 
L 500.995368 206.077767 
L 501.739079 254.743201 
L 502.110935 267.380919 
L 502.48279 271.683237 
L 502.854645 268.089317 
L 503.598356 248.592937 
L 504.713922 216.160142 
L 506.201344 161.417615 
L 506.573199 154.876554 
L 506.945055 153.22549 
L 507.31691 156.914621 
L 507.688765 165.552152 
L 508.432476 194.970276 
L 509.548042 243.449036 
L 509.919898 253.449352 
L 510.291753 259.149494 
L 510.663609 260.334466 
L 511.035464 257.856909 
L 511.779175 246.433502 
L 512.522886 234.822007 
L 513.266596 228.305104 
L 513.638452 221.964514 
L 514.382162 196.599134 
L 515.125873 170.672062 
L 515.869584 155.006114 
L 516.241439 151.213115 
L 516.613295 152.597788 
L 516.98515 162.059235 
L 517.728861 205.080589 
L 518.472572 246.184927 
L 519.216283 270.746675 
L 519.588138 280.873525 
L 519.959993 286.985503 
L 520.331849 285.061042 
L 520.703704 272.557157 
L 523.306692 136.622603 
L 523.678547 129.256441 
L 524.050403 133.492939 
L 524.422258 146.643188 
L 525.537824 203.633807 
L 526.65339 263.943382 
L 527.025246 275.256047 
L 527.397101 277.035196 
L 527.768957 272.483691 
L 528.512667 261.753227 
L 528.884523 257.52001 
L 529.256378 250.847623 
L 530.371944 217.697954 
L 531.48751 199.903276 
L 532.603077 162.880172 
L 532.974932 164.182664 
L 533.346787 173.034926 
L 534.834209 222.727639 
L 535.57792 258.449583 
L 535.949775 267.497614 
L 536.32163 263.848585 
L 537.065341 235.596694 
L 538.552763 183.233509 
L 538.924618 171.330221 
L 539.296474 163.007359 
L 539.668329 159.706669 
L 540.040184 159.089855 
L 540.41204 157.873612 
L 541.155751 150.53469 
L 541.527606 151.629866 
L 541.899461 160.364614 
L 542.643172 192.82703 
L 543.758738 244.187627 
L 544.130594 256.53515 
L 544.502449 262.866712 
L 544.874304 260.074493 
L 545.24616 246.421391 
L 546.733581 166.684461 
L 547.105437 156.416738 
L 547.477292 152.672956 
L 547.849148 154.807541 
L 548.221003 161.793298 
L 548.964714 185.906342 
L 550.08028 228.393135 
L 550.452135 238.49888 
L 550.823991 244.566399 
L 551.939557 253.813448 
L 552.311412 256.997406 
L 552.683268 258.871994 
L 553.055123 258.725148 
L 553.426978 257.950312 
L 553.798834 258.467306 
L 554.170689 261.178931 
L 554.542545 262.919906 
L 554.9144 259.507931 
L 555.286255 248.41087 
L 556.029966 221.085765 
L 556.401822 214.714226 
L 557.145532 210.367333 
L 557.889243 201.974603 
L 558.261098 201.649213 
L 558.632954 207.411706 
L 559.376665 223.594826 
L 559.74852 226.686879 
L 560.120375 228.489218 
L 560.492231 233.503883 
L 561.235942 256.331427 
L 561.607797 262.733867 
L 561.979652 258.732531 
L 562.351508 246.60085 
L 563.467074 198.662556 
L 563.838929 186.698909 
L 564.210785 179.285776 
L 564.58264 177.254409 
L 564.954495 181.287662 
L 565.326351 191.442261 
L 566.441917 232.108753 
L 566.813772 241.712421 
L 567.185628 248.176687 
L 567.929339 254.634014 
L 568.301194 259.843243 
L 569.044905 276.910761 
L 569.41676 278.447295 
L 569.788616 269.439377 
L 570.904182 225.628399 
L 571.647892 210.448271 
L 572.019748 204.579677 
L 572.391603 201.666695 
L 572.763459 204.632336 
L 573.507169 225.903469 
L 573.879025 230.821384 
L 574.25088 224.501494 
L 574.994591 203.834524 
L 575.366446 204.094909 
L 577.225723 236.348256 
L 577.969434 255.032608 
L 578.341289 256.154808 
L 578.713145 245.815029 
L 579.828711 198.564124 
L 580.572422 175.52954 
L 581.316133 141.667408 
L 581.687988 132.493939 
L 582.059843 135.898988 
L 582.431699 149.26979 
L 583.91912 223.710451 
L 584.290976 235.801678 
L 584.662831 244.173383 
L 585.034687 249.818561 
L 585.406542 253.477692 
L 585.778397 254.8812 
L 586.150253 253.506997 
L 586.522108 249.196353 
L 588.00953 226.144674 
L 588.381385 216.021393 
L 589.496951 171.274542 
L 589.868807 166.905729 
L 590.612517 167.932982 
L 591.356228 162.292027 
L 591.728084 164.498921 
L 592.099939 175.085432 
L 593.215505 219.900932 
L 594.702927 266.310745 
L 595.074782 269.278238 
L 595.446637 260.792053 
L 597.305914 181.264537 
L 598.049625 156.808759 
L 598.421481 148.577368 
L 598.793336 144.780534 
L 599.165191 145.236859 
L 599.537047 149.409867 
L 600.280757 165.816084 
L 601.396324 193.136983 
L 601.768179 202.070005 
L 602.140034 214.367956 
L 602.883745 244.5926 
L 603.255601 247.344188 
L 603.627456 234.018523 
L 604.371167 198.85109 
L 604.743022 197.741974 
L 605.114878 200.932338 
L 605.486733 197.864932 
L 606.230444 185.866409 
L 606.602299 186.621831 
L 607.34601 194.006405 
L 607.717865 193.589456 
L 608.089721 191.49963 
L 608.461576 191.007175 
L 608.833431 195.382341 
L 609.205287 206.676005 
L 610.320853 249.561702 
L 610.692708 257.409247 
L 611.064564 260.814493 
L 611.436419 259.549223 
L 611.808275 253.356684 
L 612.551985 229.374844 
L 613.295696 207.226451 
L 614.783118 178.236108 
L 615.154973 173.205479 
L 615.526828 171.14048 
L 615.898684 171.672888 
L 616.270539 174.0787 
L 617.01425 181.984221 
L 617.386105 188.254082 
L 617.757961 197.937653 
L 618.873527 239.539504 
L 619.245382 246.925353 
L 619.617238 247.563875 
L 619.989093 241.154985 
L 620.732804 216.00983 
L 622.592081 147.052973 
L 622.963936 138.009248 
L 623.335792 134.242226 
L 623.707647 135.496994 
L 624.079502 141.050184 
L 624.451358 150.253327 
L 625.195069 178.288854 
L 626.310635 237.949345 
L 627.054346 272.711442 
L 627.426201 281.275624 
L 627.798056 279.696045 
L 628.169912 266.699215 
L 628.913622 233.179776 
L 630.772899 165.366108 
L 631.144755 162.980092 
L 631.51661 165.261591 
L 631.888466 168.476419 
L 632.632176 171.492162 
L 633.004032 175.818602 
L 633.747743 196.416704 
L 634.491453 216.33913 
L 635.607019 237.85138 
L 635.978875 246.886108 
L 636.35073 249.309811 
L 636.722586 238.704605 
L 637.466296 205.233586 
L 637.838152 198.166061 
L 638.210007 197.590398 
L 638.581863 199.047652 
L 638.953718 198.808757 
L 639.325573 196.064168 
L 639.697429 190.734219 
L 640.44114 176.160019 
L 640.812995 172.477042 
L 641.18485 174.407841 
L 641.556706 180.777125 
L 642.300417 199.189685 
L 643.044127 221.946395 
L 644.159693 264.756892 
L 644.531549 268.121989 
L 644.903404 258.639735 
L 645.647115 227.491386 
L 646.01897 220.187528 
L 646.390826 216.729795 
L 646.762681 211.04952 
L 647.878247 178.107976 
L 648.250103 180.258591 
L 648.993814 194.942967 
L 649.365669 196.333763 
L 649.737524 195.852284 
L 650.10938 199.151714 
L 651.224946 229.627027 
L 651.596801 233.166218 
L 651.968657 234.27857 
L 652.340512 234.491192 
L 652.712367 234.237461 
L 653.456078 233.046086 
L 653.827934 232.880567 
L 654.199789 233.792945 
L 654.571644 235.849171 
L 654.9435 236.930279 
L 655.315355 234.37107 
L 655.687211 226.491762 
L 656.802777 196.863397 
L 657.174632 191.822989 
L 657.546487 189.150157 
L 657.918343 188.414608 
L 658.290198 189.602454 
L 658.662054 192.803905 
L 659.77762 208.216709 
L 660.521331 213.986954 
L 660.893186 218.935141 
L 661.636897 235.646323 
L 662.008752 240.036692 
L 662.380608 237.304167 
L 662.752463 229.009554 
L 663.868029 197.340081 
L 664.239884 192.561093 
L 664.61174 193.429049 
L 664.983595 197.02829 
L 665.355451 199.406089 
L 665.727306 197.673668 
L 666.471017 188.410158 
L 666.842872 185.589323 
L 667.214728 186.408166 
L 667.586583 192.387656 
L 667.958438 204.307978 
L 669.074005 251.054773 
L 669.44586 261.397993 
L 669.817715 265.404803 
L 670.189571 261.822371 
L 670.933282 241.678566 
L 671.676992 221.453048 
L 672.420703 208.240639 
L 672.792558 202.580604 
L 673.164414 194.515154 
L 673.908125 171.444829 
L 674.27998 165.215796 
L 674.651835 167.602286 
L 676.511112 206.840773 
L 677.254823 232.548559 
L 677.626679 239.851692 
L 677.998534 237.939294 
L 678.742245 222.346076 
L 679.1141 217.910276 
L 679.485955 215.363677 
L 679.857811 211.65077 
L 680.601522 197.925879 
L 680.973377 194.757967 
L 681.345232 197.901321 
L 681.717088 203.86871 
L 682.088943 207.673272 
L 682.460799 205.679318 
L 683.576365 187.648088 
L 683.94822 185.787375 
L 684.320076 188.144221 
L 684.691931 195.376478 
L 685.435642 221.224515 
L 686.179352 251.46403 
L 686.551208 260.074493 
L 686.923063 260.34919 
L 687.294919 253.900287 
L 688.78234 212.460144 
L 689.154196 208.906634 
L 689.526051 208.366758 
L 689.897906 208.656084 
L 690.269762 208.109587 
L 690.641617 207.139859 
L 691.013473 206.678898 
L 691.757183 207.755059 
L 692.129039 206.678898 
L 692.872749 200.054299 
L 693.244605 200.157651 
L 693.61646 205.659723 
L 694.360171 221.132015 
L 694.732026 224.590293 
L 695.103882 226.034422 
L 695.475737 228.312323 
L 696.219448 237.892255 
L 696.591303 238.695442 
L 697.335014 228.427948 
L 697.70687 228.494954 
L 698.078725 231.18223 
L 698.45058 231.769509 
L 698.822436 226.815141 
L 699.938002 200.09985 
L 700.309857 194.263453 
L 700.681713 191.023281 
L 701.053568 190.62417 
L 701.425423 193.165983 
L 701.797279 198.71234 
L 702.912845 222.704514 
L 703.2847 226.045826 
L 703.656556 226.495927 
L 704.772122 223.352603 
L 705.143977 223.652638 
L 705.887688 226.768955 
L 706.259544 226.392949 
L 706.631399 222.661761 
L 707.003254 215.425508 
L 707.746965 191.822159 
L 708.11882 179.814457 
L 708.490676 173.020479 
L 708.862531 174.323564 
L 709.234387 181.420419 
L 710.349953 207.244525 
L 711.093664 223.976388 
L 711.837374 241.716004 
L 712.20923 245.262939 
L 712.581085 242.194638 
L 713.324796 224.5892 
L 714.068507 209.153271 
L 714.440362 206.657658 
L 714.812217 206.916433 
L 715.555928 209.157613 
L 715.927784 209.586321 
L 716.299639 209.662021 
L 716.671494 209.356703 
L 717.04335 207.89356 
L 717.415205 204.308587 
L 718.158916 193.549541 
L 718.530771 193.56703 
L 718.902627 201.113983 
L 719.646338 225.109512 
L 720.018193 233.300313 
L 720.390048 236.756806 
L 720.761904 235.249819 
L 721.133759 228.994203 
L 722.249325 202.999554 
L 722.621181 197.372851 
L 722.993036 193.671092 
L 723.364891 191.648425 
L 724.108602 189.06922 
L 724.852313 185.253403 
L 725.224168 185.646722 
L 725.596024 189.295699 
L 726.339735 203.291087 
L 727.455301 226.439199 
L 728.199011 236.666698 
L 728.942722 244.434739 
L 729.314578 246.521983 
L 729.686433 245.378564 
L 730.058288 239.980418 
L 731.917565 200.157651 
L 732.289421 195.944225 
L 732.661276 194.448621 
L 733.033132 196.688903 
L 733.776842 209.544867 
L 734.148698 212.702957 
L 734.520553 209.772273 
L 734.892409 204.783782 
L 735.264264 203.406712 
L 735.636119 209.560986 
L 736.37983 230.405135 
L 736.751685 236.574053 
L 737.123541 239.510567 
L 737.867252 242.811202 
L 738.239107 242.656799 
L 738.610962 238.232943 
L 740.098384 199.582087 
L 740.842095 194.21453 
L 741.585806 185.55649 
L 741.957661 187.681721 
L 742.329516 198.516565 
L 743.073227 227.225449 
L 743.445082 234.35473 
L 743.816938 236.469363 
L 744.188793 236.406069 
L 744.560649 236.204273 
L 744.932504 234.714226 
L 745.304359 229.988885 
L 746.419926 203.684212 
L 746.791781 203.209537 
L 747.163636 213.54529 
L 747.163636 213.54529 
" clip-path="url(#p8b10a8bfdd)" style="fill: none; stroke: #0000ff; stroke-linecap: square"/>
   </g>
   <g id="patch_3">
    <path d="M 108 320.4 
L 108 43.2 
" style="fill: none; stroke: #000000; stroke-width: 0.8; stroke-linejoin: miter; stroke-linecap: square"/>
   </g>
   <g id="patch_4">
    <path d="M 777.6 320.4 
L 777.6 43.2 
" style="fill: none; stroke: #000000; stroke-width: 0.8; stroke-linejoin: miter; stroke-linecap: square"/>
   </g>
   <g id="patch_5">
    <path d="M 108 320.4 
L 777.6 320.4 
" style="fill: none; stroke: #000000; stroke-width: 0.8; stroke-linejoin: miter; stroke-linecap: square"/>
   </g>
   <g id="patch_6">
    <path d="M 108 43.2 
L 777.6 43.2 
" style="fill: none; stroke: #000000; stroke-width: 0.8; stroke-linejoin: miter; stroke-linecap: square"/>
   </g>
   <g id="text_17">
    <!-- Original Data -->
    <g transform="translate(396.830981 37.2) scale(0.156 -0.156)">
     <defs>
      <path id="CMR17-4f" d="M 4307 2135 
C 4307 3437 3366 4416 2304 4416 
C 1216 4416 294 3424 294 2135 
C 294 845 1229 -128 2298 -128 
C 3392 -128 4307 864 4307 2135 
z
M 2304 -13 
C 1574 -13 781 711 781 2217 
C 781 3716 1651 4301 2298 4301 
C 2976 4301 3821 3698 3821 2217 
C 3821 686 3008 -13 2304 -13 
z
" transform="scale(0.015625)"/>
      <path id="CMR17-72" d="M 960 1497 
C 960 2112 1222 2688 1702 2688 
C 1747 2688 1792 2682 1837 2662 
C 1837 2662 1696 2617 1696 2452 
C 1696 2298 1818 2234 1914 2234 
C 1990 2234 2131 2279 2131 2458 
C 2131 2663 1926 2790 1709 2790 
C 1222 2790 1011 2317 947 2093 
L 941 2093 
L 941 2790 
L 198 2720 
L 198 2554 
C 576 2554 634 2515 634 2208 
L 634 428 
C 634 184 608 153 198 153 
L 198 -13 
C 352 0 646 0 813 0 
C 998 0 1325 0 1498 -13 
L 1498 153 
C 1037 153 960 153 960 440 
L 960 1497 
z
" transform="scale(0.015625)"/>
      <path id="CMR17-67" d="M 710 1164 
C 832 1068 1043 960 1299 960 
C 1805 960 2240 1357 2240 1888 
C 2240 2054 2189 2310 1997 2509 
C 2176 2692 2438 2752 2586 2752 
C 2611 2752 2650 2752 2682 2734 
C 2656 2728 2598 2703 2598 2605 
C 2598 2527 2656 2471 2739 2471 
C 2835 2471 2886 2533 2886 2614 
C 2886 2731 2790 2854 2586 2854 
C 2330 2854 2106 2738 1926 2580 
C 1734 2753 1504 2816 1299 2816 
C 794 2816 358 2419 358 1888 
C 358 1522 570 1292 634 1228 
C 442 1004 442 743 442 711 
C 442 545 506 302 723 168 
C 390 85 128 -169 128 -486 
C 128 -943 736 -1280 1466 -1280 
C 2170 -1280 2803 -956 2803 -479 
C 2803 384 1856 384 1363 384 
C 1216 384 954 384 922 391 
C 723 423 589 602 589 826 
C 589 883 589 1024 710 1164 
z
M 1299 1068 
C 736 1068 736 1760 736 1889 
C 736 2016 736 2708 1299 2708 
C 1862 2708 1862 2016 1862 1889 
C 1862 1760 1862 1068 1299 1068 
z
M 1466 -1171 
C 826 -1171 384 -835 384 -486 
C 384 -289 493 -105 634 -4 
C 794 104 858 104 1293 104 
C 1818 104 2547 104 2547 -486 
C 2547 -835 2106 -1171 1466 -1171 
z
" transform="scale(0.015625)"/>
      <path id="CMR17-44" d="M 333 4352 
L 333 4186 
C 774 4186 845 4186 845 3900 
L 845 452 
C 845 166 774 166 333 166 
L 333 0 
L 2368 0 
C 3398 0 4224 943 4224 2141 
C 4224 3346 3411 4352 2368 4352 
L 333 4352 
z
M 1523 166 
C 1267 166 1254 197 1254 414 
L 1254 3938 
C 1254 4155 1267 4186 1523 4186 
L 2240 4186 
C 2771 4186 3750 3874 3750 2141 
C 3750 1242 3488 879 3366 707 
C 3213 510 2848 166 2240 166 
L 1523 166 
z
" transform="scale(0.015625)"/>
     </defs>
     <use xlink:href="#CMR17-4f" transform="scale(0.996264)"/>
     <use xlink:href="#CMR17-72" transform="translate(71.714788 0) scale(0.996264)"/>
     <use xlink:href="#CMR17-69" transform="translate(106.995556 0) scale(0.996264)"/>
     <use xlink:href="#CMR17-67" transform="translate(131.866615 0) scale(0.996264)"/>
     <use xlink:href="#CMR17-69" transform="translate(177.557092 0) scale(0.996264)"/>
     <use xlink:href="#CMR17-6e" transform="translate(202.42815 0) scale(0.996264)"/>
     <use xlink:href="#CMR17-61" transform="translate(253.32352 0) scale(0.996264)"/>
     <use xlink:href="#CMR17-6c" transform="translate(299.013997 0) scale(0.996264)"/>
     <use xlink:href="#CMR17-44" transform="translate(353.961022 0) scale(0.996264)"/>
     <use xlink:href="#CMR17-61" transform="translate(424.354578 0) scale(0.996264)"/>
     <use xlink:href="#CMR17-74" transform="translate(470.045055 0) scale(0.996264)"/>
     <use xlink:href="#CMR17-61" transform="translate(505.325823 0) scale(0.996264)"/>
    </g>
   </g>
  </g>
 </g>
 <defs>
  <clipPath id="p8b10a8bfdd">
   <rect x="108" y="43.2" width="669.6" height="277.2"/>
  </clipPath>
 </defs>
</svg>
