<?xml version="1.0" encoding="utf-8" standalone="no"?>
<!DOCTYPE svg PUBLIC "-//W3C//DTD SVG 1.1//EN"
  "http://www.w3.org/Graphics/SVG/1.1/DTD/svg11.dtd">
<svg xmlns:xlink="http://www.w3.org/1999/xlink" width="864pt" height="360pt" viewBox="0 0 864 360" xmlns="http://www.w3.org/2000/svg" version="1.1">
 <metadata>
  <rdf:RDF xmlns:dc="http://purl.org/dc/elements/1.1/" xmlns:cc="http://creativecommons.org/ns#" xmlns:rdf="http://www.w3.org/1999/02/22-rdf-syntax-ns#">
   <cc:Work>
    <dc:type rdf:resource="http://purl.org/dc/dcmitype/StillImage"/>
    <dc:date>2023-07-26T16:58:15.018679</dc:date>
    <dc:format>image/svg+xml</dc:format>
    <dc:creator>
     <cc:Agent>
      <dc:title>Matplotlib v3.7.1, https://matplotlib.org/</dc:title>
     </cc:Agent>
    </dc:creator>
   </cc:Work>
  </rdf:RDF>
 </metadata>
 <defs>
  <style type="text/css">*{stroke-linejoin: round; stroke-linecap: butt}</style>
 </defs>
 <g id="figure_1">
  <g id="patch_1">
   <path d="M 0 360 
L 864 360 
L 864 0 
L 0 0 
z
" style="fill: #ffffff"/>
  </g>
  <g id="axes_1">
   <g id="patch_2">
    <path d="M 108 181.8 
L 777.6 181.8 
L 777.6 43.2 
L 108 43.2 
z
" style="fill: #ffffff"/>
   </g>
   <g id="matplotlib.axis_1"/>
   <g id="matplotlib.axis_2">
    <g id="ytick_1">
     <g id="line2d_1">
      <defs>
       <path id="mece6211a98" d="M 0 0 
L -3.5 0 
" style="stroke: #000000; stroke-width: 0.8"/>
      </defs>
      <g>
       <use xlink:href="#mece6211a98" x="108" y="153.48802" style="stroke: #000000; stroke-width: 0.8"/>
      </g>
     </g>
     <g id="text_1">
      <!-- $\mathdefault{−0.02}$ -->
      <g transform="translate(68.381779 157.985034) scale(0.13 -0.13)">
       <defs>
        <path id="CMSY10-0" d="M 4218 1472 
C 4326 1472 4442 1472 4442 1600 
C 4442 1728 4326 1728 4218 1728 
L 755 1728 
C 646 1728 531 1728 531 1600 
C 531 1472 646 1472 755 1472 
L 4218 1472 
z
" transform="scale(0.015625)"/>
        <path id="CMR17-30" d="M 2688 2025 
C 2688 2416 2682 3080 2413 3591 
C 2176 4039 1798 4198 1466 4198 
C 1158 4198 768 4058 525 3597 
C 269 3118 243 2524 243 2025 
C 243 1661 250 1106 448 619 
C 723 -39 1216 -128 1466 -128 
C 1760 -128 2208 -7 2470 600 
C 2662 1042 2688 1559 2688 2025 
z
M 1466 -26 
C 1056 -26 813 325 723 812 
C 653 1188 653 1738 653 2096 
C 653 2588 653 2997 736 3387 
C 858 3929 1216 4096 1466 4096 
C 1728 4096 2067 3923 2189 3400 
C 2272 3036 2278 2607 2278 2096 
C 2278 1680 2278 1169 2202 792 
C 2067 95 1690 -26 1466 -26 
z
" transform="scale(0.015625)"/>
        <path id="CMMI12-3a" d="M 1178 307 
C 1178 492 1024 619 870 619 
C 685 619 557 466 557 313 
C 557 128 710 0 864 0 
C 1050 0 1178 153 1178 307 
z
" transform="scale(0.015625)"/>
        <path id="CMR17-32" d="M 2669 989 
L 2554 989 
C 2490 536 2438 459 2413 420 
C 2381 369 1920 369 1830 369 
L 602 369 
C 832 619 1280 1072 1824 1597 
C 2214 1967 2669 2402 2669 3035 
C 2669 3790 2067 4224 1395 4224 
C 691 4224 262 3604 262 3030 
C 262 2780 448 2748 525 2748 
C 589 2748 781 2787 781 3010 
C 781 3207 614 3264 525 3264 
C 486 3264 448 3258 422 3245 
C 544 3790 915 4058 1306 4058 
C 1862 4058 2227 3617 2227 3035 
C 2227 2479 1901 2000 1536 1584 
L 262 146 
L 262 0 
L 2515 0 
L 2669 989 
z
" transform="scale(0.015625)"/>
       </defs>
       <use xlink:href="#CMSY10-0" transform="scale(0.996264)"/>
       <use xlink:href="#CMR17-30" transform="translate(77.487468 0) scale(0.996264)"/>
       <use xlink:href="#CMMI12-3a" transform="translate(123.177945 0) scale(0.996264)"/>
       <use xlink:href="#CMR17-30" transform="translate(150.275122 0) scale(0.996264)"/>
       <use xlink:href="#CMR17-32" transform="translate(195.965599 0) scale(0.996264)"/>
      </g>
     </g>
    </g>
    <g id="ytick_2">
     <g id="line2d_2">
      <g>
       <use xlink:href="#mece6211a98" x="108" y="112.844357" style="stroke: #000000; stroke-width: 0.8"/>
      </g>
     </g>
     <g id="text_2">
      <!-- $\mathdefault{0.00}$ -->
      <g transform="translate(78.455149 117.341372) scale(0.13 -0.13)">
       <use xlink:href="#CMR17-30" transform="scale(0.996264)"/>
       <use xlink:href="#CMMI12-3a" transform="translate(45.690477 0) scale(0.996264)"/>
       <use xlink:href="#CMR17-30" transform="translate(72.787654 0) scale(0.996264)"/>
       <use xlink:href="#CMR17-30" transform="translate(118.478131 0) scale(0.996264)"/>
      </g>
     </g>
    </g>
    <g id="ytick_3">
     <g id="line2d_3">
      <g>
       <use xlink:href="#mece6211a98" x="108" y="72.200695" style="stroke: #000000; stroke-width: 0.8"/>
      </g>
     </g>
     <g id="text_3">
      <!-- $\mathdefault{0.02}$ -->
      <g transform="translate(78.455149 76.697709) scale(0.13 -0.13)">
       <use xlink:href="#CMR17-30" transform="scale(0.996264)"/>
       <use xlink:href="#CMMI12-3a" transform="translate(45.690477 0) scale(0.996264)"/>
       <use xlink:href="#CMR17-30" transform="translate(72.787654 0) scale(0.996264)"/>
       <use xlink:href="#CMR17-32" transform="translate(118.478131 0) scale(0.996264)"/>
      </g>
     </g>
    </g>
    <g id="text_4">
     <!-- $x_1$ (m) -->
     <g transform="translate(61.143921 131.010922) rotate(-90) scale(0.13 -0.13)">
      <defs>
       <path id="CMMI12-78" d="M 3034 2606 
C 2829 2567 2752 2414 2752 2293 
C 2752 2139 2874 2088 2963 2088 
C 3155 2088 3290 2254 3290 2427 
C 3290 2695 2982 2816 2714 2816 
C 2323 2816 2106 2433 2048 2312 
C 1901 2816 1504 2816 1389 2816 
C 736 2816 390 1980 390 1839 
C 390 1814 416 1782 461 1782 
C 512 1782 525 1820 538 1846 
C 755 2555 1184 2689 1370 2689 
C 1658 2689 1715 2420 1715 2267 
C 1715 2127 1677 1980 1600 1673 
L 1382 798 
C 1286 415 1101 64 762 64 
C 730 64 570 64 435 147 
C 666 192 717 383 717 460 
C 717 588 621 664 499 664 
C 346 664 179 530 179 326 
C 179 57 480 -64 755 -64 
C 1062 -64 1280 179 1414 441 
C 1517 64 1837 -64 2074 -64 
C 2726 -64 3072 773 3072 913 
C 3072 945 3046 971 3008 971 
C 2950 971 2944 939 2925 888 
C 2752 326 2381 64 2093 64 
C 1869 64 1747 230 1747 492 
C 1747 632 1773 734 1875 1156 
L 2099 2024 
C 2195 2408 2413 2689 2707 2689 
C 2720 2689 2899 2689 3034 2606 
z
" transform="scale(0.015625)"/>
       <path id="CMR17-31" d="M 1702 4058 
C 1702 4192 1696 4192 1606 4192 
C 1357 3916 979 3827 621 3827 
C 602 3827 570 3827 563 3808 
C 557 3795 557 3782 557 3648 
C 755 3648 1088 3686 1344 3839 
L 1344 461 
C 1344 236 1331 160 781 160 
L 589 160 
L 589 0 
C 896 0 1216 0 1523 0 
C 1830 0 2150 0 2458 0 
L 2458 160 
L 2266 160 
C 1715 160 1702 230 1702 458 
L 1702 4058 
z
" transform="scale(0.015625)"/>
       <path id="CMR17-28" d="M 1958 -1561 
C 1958 -1555 1958 -1542 1939 -1523 
C 1645 -1224 858 -407 858 1581 
C 858 3569 1632 4379 1946 4697 
C 1946 4704 1958 4717 1958 4736 
C 1958 4755 1939 4768 1914 4768 
C 1843 4768 1299 4296 986 3594 
C 666 2887 576 2199 576 1588 
C 576 1128 621 351 1005 -471 
C 1312 -1135 1837 -1600 1914 -1600 
C 1946 -1600 1958 -1587 1958 -1561 
z
" transform="scale(0.015625)"/>
       <path id="CMR17-6d" d="M 4326 1933 
C 4326 2252 4269 2790 3507 2790 
C 3072 2790 2771 2496 2656 2151 
L 2650 2151 
C 2573 2676 2195 2790 1837 2790 
C 1331 2790 1069 2400 973 2144 
L 966 2144 
L 966 2790 
L 211 2720 
L 211 2554 
C 589 2554 646 2515 646 2208 
L 646 428 
C 646 184 621 153 211 153 
L 211 -13 
C 365 0 646 0 813 0 
C 979 0 1267 0 1421 -13 
L 1421 153 
C 1011 153 986 178 986 428 
L 986 1658 
C 986 2247 1344 2688 1792 2688 
C 2266 2688 2317 2266 2317 1958 
L 2317 428 
C 2317 184 2291 153 1882 153 
L 1882 -13 
C 2035 0 2317 0 2483 0 
C 2650 0 2938 0 3091 -13 
L 3091 153 
C 2682 153 2656 178 2656 428 
L 2656 1658 
C 2656 2247 3014 2688 3462 2688 
C 3936 2688 3987 2266 3987 1958 
L 3987 428 
C 3987 184 3962 153 3552 153 
L 3552 -13 
C 3706 0 3987 0 4154 0 
C 4320 0 4608 0 4762 -13 
L 4762 153 
C 4352 153 4326 178 4326 428 
L 4326 1933 
z
" transform="scale(0.015625)"/>
       <path id="CMR17-29" d="M 1683 1581 
C 1683 2040 1638 2817 1254 3639 
C 947 4303 422 4768 346 4768 
C 326 4768 301 4761 301 4729 
C 301 4717 307 4710 314 4697 
C 621 4378 1402 3568 1402 1584 
C 1402 -407 627 -1217 314 -1537 
C 307 -1549 301 -1556 301 -1568 
C 301 -1600 326 -1600 346 -1600 
C 416 -1600 960 -1128 1274 -426 
C 1594 281 1683 969 1683 1581 
z
" transform="scale(0.015625)"/>
      </defs>
      <use xlink:href="#CMMI12-78" transform="scale(0.996264)"/>
      <use xlink:href="#CMR17-31" transform="translate(55.43406 -14.943915) scale(0.697382)"/>
      <use xlink:href="#CMR17-28" transform="translate(117.99134 0) scale(0.996264)"/>
      <use xlink:href="#CMR17-6d" transform="translate(153.272108 0) scale(0.996264)"/>
      <use xlink:href="#CMR17-29" transform="translate(230.191698 0) scale(0.996264)"/>
     </g>
    </g>
   </g>
   <g id="line2d_4">
    <path d="M 138.436364 87.965916 
L 141.495295 100.229351 
L 147.613157 127.362057 
L 150.672088 139.791854 
L 153.731019 149.919923 
L 156.78995 156.808833 
L 159.848881 159.804786 
L 162.907812 158.599192 
L 165.966743 153.259609 
L 169.025674 144.226978 
L 172.084605 132.279147 
L 175.143536 118.463708 
L 178.202467 104.005951 
L 181.261398 90.200048 
L 184.320329 78.293144 
L 187.37926 69.372727 
L 190.438191 64.267466 
L 193.497122 63.470531 
L 196.556053 67.092472 
L 199.614984 74.848125 
L 202.673915 86.078967 
L 205.732846 99.809187 
L 211.850708 129.809548 
L 214.909639 143.40469 
L 217.96857 154.387948 
L 221.027501 161.755015 
L 224.086432 164.817115 
L 227.145363 163.26508 
L 230.204294 157.1999 
L 233.263225 147.126771 
L 236.322156 133.912917 
L 239.381087 118.712732 
L 242.440018 102.866697 
L 245.498949 87.782964 
L 248.55788 74.812072 
L 251.616811 65.125961 
L 254.675742 59.612116 
L 257.734673 58.792416 
L 260.793604 62.774084 
L 263.852535 71.237325 
L 266.911466 83.460982 
L 269.970397 98.384162 
L 276.088259 130.96329 
L 279.14719 145.732562 
L 282.206122 157.684136 
L 285.265053 165.737873 
L 288.323984 169.153297 
L 291.382915 167.597508 
L 294.441846 161.177213 
L 297.500777 150.431823 
L 300.559708 136.288017 
L 303.618639 119.979609 
L 306.67757 102.939674 
L 309.736501 86.67437 
L 312.795432 72.6296 
L 315.854363 62.062333 
L 318.913294 55.928037 
L 321.972225 54.794328 
L 325.031156 58.788621 
L 328.090087 67.584602 
L 331.149018 80.428913 
L 334.207949 96.205854 
L 340.325811 130.890006 
L 343.384742 146.737691 
L 346.443673 159.6693 
L 349.502604 168.528115 
L 352.561535 172.512528 
L 355.620466 171.248539 
L 358.679397 164.824663 
L 361.738328 153.786016 
L 364.797259 139.087922 
L 367.85619 122.013029 
L 370.915121 104.059113 
L 373.974052 86.807433 
L 377.032983 71.783211 
L 380.091914 60.320578 
L 383.150845 53.443956 
L 386.209776 51.776441 
L 389.268707 55.483379 
L 392.327638 64.256247 
L 395.386569 77.338387 
L 398.4455 93.590442 
L 404.563362 129.755493 
L 407.622293 146.48713 
L 410.681224 160.306345 
L 413.740155 169.98753 
L 416.799086 174.666697 
L 419.858017 173.918648 
L 422.916948 167.795578 
L 425.975879 156.823601 
L 429.03481 141.957421 
L 432.093741 124.497062 
L 438.211603 88.01622 
L 441.270534 72.205534 
L 444.329466 59.937316 
L 447.388397 52.297495 
L 450.447328 49.966218 
L 453.506259 53.157234 
L 456.56519 61.598343 
L 459.624121 74.554672 
L 462.683052 90.892811 
L 471.859845 145.147052 
L 474.918776 159.663054 
L 477.977707 170.080042 
L 481.036638 175.478808 
L 484.095569 175.381028 
L 487.1545 169.791708 
L 490.213431 159.199037 
L 493.272362 144.531651 
L 496.331293 127.077054 
L 502.449155 90.049439 
L 505.508086 73.730056 
L 508.567017 60.844275 
L 511.625948 52.524132 
L 514.684879 49.5 
L 517.74381 52.036345 
L 520.802741 59.90855 
L 523.861672 72.422835 
L 526.920603 88.477507 
L 536.097396 142.969009 
L 539.156327 157.906368 
L 542.215258 168.874484 
L 545.274189 174.914023 
L 548.33312 175.5 
L 551.392051 170.587522 
L 554.450982 160.615196 
L 557.509913 146.465935 
L 560.568844 129.388676 
L 566.686706 92.591101 
L 569.745637 76.104866 
L 572.804568 62.874005 
L 575.863499 54.054424 
L 578.92243 50.411965 
L 581.981361 52.255739 
L 585.040292 59.41182 
L 588.099223 71.239545 
L 591.158154 86.688908 
L 594.217085 104.393888 
L 597.276016 122.793418 
L 600.334947 140.269271 
L 603.393878 155.288643 
L 606.45281 166.538876 
L 609.511741 173.042433 
L 612.570672 174.242049 
L 615.629603 170.04861 
L 618.688534 160.847648 
L 621.747465 147.463983 
L 624.806396 131.087748 
L 630.924258 95.286421 
L 633.983189 79.013323 
L 637.04212 65.773631 
L 640.101051 56.719731 
L 643.159982 52.631362 
L 646.218913 53.848286 
L 649.277844 60.241987 
L 652.336775 71.228782 
L 655.395706 85.823022 
L 658.454637 102.725551 
L 661.513568 120.439474 
L 664.572499 137.402917 
L 667.63143 152.126978 
L 670.690361 163.32667 
L 673.749292 170.033324 
L 676.808223 171.678586 
L 679.867154 168.142715 
L 682.926085 159.763066 
L 685.985016 147.302174 
L 689.043947 131.878442 
L 695.161809 97.770862 
L 698.22074 82.09996 
L 701.279671 69.225527 
L 704.338602 60.265979 
L 707.397533 55.988244 
L 710.456464 56.741936 
L 713.515395 62.43075 
L 716.574326 72.523443 
L 719.633257 86.103205 
L 722.692188 101.950868 
L 725.751119 118.65439 
L 728.81005 134.734793 
L 731.868981 148.777309 
L 734.927912 159.556079 
L 737.986843 166.141419 
L 741.045774 167.980211 
L 744.104705 164.942488 
L 747.163636 157.330248 
L 747.163636 157.330248 
" clip-path="url(#p4e86993185)" style="fill: none; stroke: #ff0000; stroke-linecap: square"/>
   </g>
   <g id="line2d_5">
    <path d="M 138.436364 87.965916 
L 141.495295 97.940701 
L 144.554226 105.702481 
L 147.613157 111.756974 
L 150.672088 116.609899 
L 153.731019 120.766973 
L 159.848881 128.787166 
L 162.907812 132.28606 
L 165.966743 134.360657 
L 169.025674 134.385134 
L 172.084605 132.710153 
L 175.143536 129.930498 
L 178.202467 126.456948 
L 181.261398 121.964281 
L 184.320329 115.943271 
L 187.37926 108.047989 
L 190.438191 98.585679 
L 196.556053 77.367913 
L 199.614984 69.708202 
L 202.673915 67.739154 
L 205.732846 70.416984 
L 208.791777 75.764107 
L 211.850708 82.161811 
L 214.909639 89.426865 
L 217.96857 97.73491 
L 224.086432 116.531074 
L 227.145363 125.099708 
L 230.204294 131.9254 
L 233.263225 137.081698 
L 236.322156 140.869449 
L 239.381087 143.443916 
L 242.440018 144.378007 
L 245.498949 143.099044 
L 248.55788 139.26919 
L 251.616811 133.489961 
L 254.675742 126.597717 
L 263.852535 104.923032 
L 266.911466 98.405989 
L 269.970397 93.418366 
L 273.029328 91.046125 
L 276.088259 91.95331 
L 279.14719 95.116297 
L 282.206122 99.326587 
L 285.265053 104.323844 
L 288.323984 110.084778 
L 294.441846 122.723017 
L 297.500777 128.066695 
L 300.559708 131.813016 
L 303.618639 133.954955 
L 306.67757 134.650969 
L 309.736501 134.00417 
L 312.795432 131.896307 
L 315.854363 128.153789 
L 318.913294 122.714822 
L 321.972225 115.964814 
L 331.149018 93.171196 
L 334.207949 86.981758 
L 337.26688 82.61895 
L 340.325811 80.156859 
L 343.384742 79.532356 
L 346.443673 80.798113 
L 349.502604 84.469996 
L 352.561535 91.179668 
L 355.620466 100.924507 
L 358.679397 111.164738 
L 361.738328 119.393961 
L 364.797259 125.776416 
L 367.85619 131.144001 
L 370.915121 136.030695 
L 373.974052 139.77879 
L 377.032983 141.432654 
L 380.091914 140.295887 
L 383.150845 136.709002 
L 386.209776 131.271739 
L 389.268707 124.582239 
L 395.386569 109.811885 
L 398.4455 102.907503 
L 401.504431 97.090217 
L 404.563362 92.927346 
L 407.622293 90.794641 
L 410.681224 90.301594 
L 413.740155 90.866131 
L 416.799086 92.078631 
L 419.858017 94.21928 
L 422.916948 97.740717 
L 425.975879 102.878616 
L 432.093741 115.258135 
L 435.152672 120.901415 
L 438.211603 125.581191 
L 441.270534 129.04795 
L 444.329466 131.067448 
L 447.388397 131.466519 
L 450.447328 130.087266 
L 453.506259 126.870553 
L 456.56519 122.152285 
L 459.624121 116.367127 
L 462.683052 109.878346 
L 465.741983 102.763614 
L 471.859845 87.127764 
L 474.918776 81.297452 
L 477.977707 79.588341 
L 481.036638 81.512676 
L 484.095569 85.948248 
L 487.1545 91.873256 
L 490.213431 98.667549 
L 496.331293 112.821548 
L 499.390224 119.360877 
L 502.449155 125.128739 
L 505.508086 129.826394 
L 508.567017 133.162692 
L 511.625948 134.848381 
L 514.684879 134.704934 
L 517.74381 132.996731 
L 520.802741 130.098879 
L 523.861672 126.368116 
L 526.920603 122.087711 
L 533.038465 112.848935 
L 536.097396 107.888449 
L 539.156327 102.374094 
L 542.215258 96.392735 
L 545.274189 91.446755 
L 548.33312 88.989328 
L 551.392051 88.861277 
L 554.450982 90.500338 
L 557.509913 93.416163 
L 560.568844 97.40606 
L 563.627775 102.339257 
L 572.804568 119.334114 
L 575.863499 123.873818 
L 578.92243 127.365686 
L 581.981361 129.779535 
L 585.040292 131.019978 
L 588.099223 130.730792 
L 591.158154 128.490551 
L 594.217085 124.099858 
L 597.276016 118.247443 
L 600.334947 111.844068 
L 603.393878 105.707224 
L 606.45281 100.281336 
L 609.511741 95.917558 
L 612.570672 92.973574 
L 615.629603 91.833181 
L 618.688534 92.886702 
L 621.747465 96.156959 
L 624.806396 100.196755 
L 627.865327 103.602324 
L 630.924258 106.613627 
L 633.983189 109.881559 
L 637.04212 113.88418 
L 646.218913 127.443715 
L 649.277844 130.989157 
L 652.336775 133.123928 
L 655.395706 133.392733 
L 658.454637 131.838779 
L 661.513568 128.6299 
L 664.572499 123.957388 
L 667.63143 118.106356 
L 670.690361 111.385375 
L 676.808223 97.017152 
L 679.867154 90.604851 
L 682.926085 85.576263 
L 685.985016 82.61914 
L 689.043947 82.429668 
L 692.102878 85.379356 
L 695.161809 90.540982 
L 698.22074 96.785747 
L 704.338602 110.102196 
L 707.397533 116.208102 
L 710.456464 121.585757 
L 713.515395 126.086768 
L 716.574326 129.560995 
L 719.633257 131.851295 
L 722.692188 132.798779 
L 725.751119 132.263638 
L 728.81005 130.182387 
L 731.868981 126.510624 
L 734.927912 121.335812 
L 741.045774 109.068686 
L 744.104705 103.421913 
L 747.163636 98.838979 
L 747.163636 98.838979 
" clip-path="url(#p4e86993185)" style="fill: none; stroke-dasharray: 3.7,1.6; stroke-dashoffset: 0; stroke: #8b0000"/>
   </g>
   <g id="patch_3">
    <path d="M 108 181.8 
L 108 43.2 
" style="fill: none; stroke: #000000; stroke-width: 0.8; stroke-linejoin: miter; stroke-linecap: square"/>
   </g>
   <g id="patch_4">
    <path d="M 777.6 181.8 
L 777.6 43.2 
" style="fill: none; stroke: #000000; stroke-width: 0.8; stroke-linejoin: miter; stroke-linecap: square"/>
   </g>
   <g id="patch_5">
    <path d="M 108 181.8 
L 777.6 181.8 
" style="fill: none; stroke: #000000; stroke-width: 0.8; stroke-linejoin: miter; stroke-linecap: square"/>
   </g>
   <g id="patch_6">
    <path d="M 108 43.2 
L 777.6 43.2 
" style="fill: none; stroke: #000000; stroke-width: 0.8; stroke-linejoin: miter; stroke-linecap: square"/>
   </g>
   <g id="legend_1">
    <g id="patch_7">
     <path d="M 650.045139 89.836624 
L 768.5 89.836624 
Q 771.1 89.836624 771.1 87.236624 
L 771.1 52.3 
Q 771.1 49.7 768.5 49.7 
L 650.045139 49.7 
Q 647.445139 49.7 647.445139 52.3 
L 647.445139 87.236624 
Q 647.445139 89.836624 650.045139 89.836624 
z
" style="fill: #ffffff; opacity: 0.8; stroke: #cccccc; stroke-linejoin: miter"/>
    </g>
    <g id="line2d_6">
     <path d="M 652.645139 59.45 
L 665.645139 59.45 
L 678.645139 59.45 
" style="fill: none; stroke: #ff0000; stroke-linecap: square"/>
    </g>
    <g id="text_5">
     <!-- MCMC result -->
     <g transform="translate(689.045139 64) scale(0.13 -0.13)">
      <defs>
       <path id="CMR17-4d" d="M 1338 4224 
C 1299 4320 1293 4320 1158 4320 
L 339 4320 
L 339 4160 
C 781 4160 851 4160 851 3875 
L 851 610 
C 851 451 851 153 339 153 
L 339 -13 
C 486 0 755 0 915 0 
C 1075 0 1344 0 1491 -13 
L 1491 153 
C 979 153 979 451 979 610 
L 979 4135 
L 986 4135 
L 2490 89 
C 2515 25 2528 -13 2579 -13 
C 2630 -13 2643 25 2669 89 
L 4186 4166 
L 4192 4166 
L 4192 438 
C 4192 153 4122 153 3680 153 
L 3680 -13 
C 3853 0 4198 0 4384 0 
C 4570 0 4922 0 5094 -13 
L 5094 153 
C 4653 153 4582 153 4582 438 
L 4582 3875 
C 4582 4160 4653 4160 5094 4160 
L 5094 4320 
L 4282 4320 
C 4147 4320 4141 4314 4102 4218 
L 2720 502 
L 1338 4224 
z
" transform="scale(0.015625)"/>
       <path id="CMR17-43" d="M 3974 4289 
C 3974 4403 3968 4410 3930 4410 
C 3904 4410 3898 4403 3853 4327 
L 3571 3792 
C 3258 4187 2874 4416 2381 4416 
C 1286 4416 294 3456 294 2148 
C 294 826 1286 -128 2387 -128 
C 3366 -128 3974 730 3974 1461 
C 3974 1524 3974 1550 3917 1550 
C 3866 1550 3866 1531 3859 1474 
C 3808 585 3168 38 2477 38 
C 1824 38 781 495 781 2147 
C 781 3805 1843 4250 2464 4250 
C 3187 4250 3712 3628 3834 2745 
C 3846 2668 3846 2655 3904 2655 
C 3974 2655 3974 2668 3974 2783 
L 3974 4289 
z
" transform="scale(0.015625)"/>
       <path id="CMR17-72" d="M 960 1497 
C 960 2112 1222 2688 1702 2688 
C 1747 2688 1792 2682 1837 2662 
C 1837 2662 1696 2617 1696 2452 
C 1696 2298 1818 2234 1914 2234 
C 1990 2234 2131 2279 2131 2458 
C 2131 2663 1926 2790 1709 2790 
C 1222 2790 1011 2317 947 2093 
L 941 2093 
L 941 2790 
L 198 2720 
L 198 2554 
C 576 2554 634 2515 634 2208 
L 634 428 
C 634 184 608 153 198 153 
L 198 -13 
C 352 0 646 0 813 0 
C 998 0 1325 0 1498 -13 
L 1498 153 
C 1037 153 960 153 960 440 
L 960 1497 
z
" transform="scale(0.015625)"/>
       <path id="CMR17-65" d="M 2438 1472 
C 2464 1498 2464 1511 2464 1576 
C 2464 2238 2118 2816 1389 2816 
C 710 2816 173 2169 173 1383 
C 173 551 781 -64 1459 -64 
C 2176 -64 2458 607 2458 740 
C 2458 784 2419 784 2406 784 
C 2362 784 2355 771 2330 696 
C 2189 265 1837 51 1504 51 
C 1229 51 954 203 781 480 
C 582 803 582 1176 582 1472 
L 2438 1472 
z
M 589 1568 
C 634 2505 1126 2714 1382 2714 
C 1818 2714 2112 2297 2118 1568 
L 589 1568 
z
" transform="scale(0.015625)"/>
       <path id="CMR17-73" d="M 1978 2697 
C 1978 2813 1971 2819 1933 2819 
C 1907 2819 1901 2813 1824 2717 
C 1805 2691 1747 2626 1728 2601 
C 1523 2819 1235 2819 1126 2819 
C 416 2819 160 2447 160 2076 
C 160 1498 813 1365 998 1325 
C 1402 1243 1542 1217 1677 1101 
C 1760 1025 1901 884 1901 654 
C 1901 384 1747 38 1158 38 
C 602 38 403 460 288 1021 
C 269 1110 269 1117 218 1117 
C 166 1117 160 1110 160 983 
L 160 63 
C 160 -51 166 -58 205 -58 
C 237 -58 243 -51 275 0 
C 314 57 410 211 448 276 
C 576 103 800 -64 1158 -64 
C 1792 -64 2131 283 2131 784 
C 2131 1112 1958 1285 1875 1362 
C 1683 1561 1459 1606 1190 1657 
C 838 1735 390 1825 390 2217 
C 390 2383 480 2737 1126 2737 
C 1811 2737 1850 2094 1862 1888 
C 1869 1856 1901 1849 1920 1849 
C 1978 1849 1978 1869 1978 1978 
L 1978 2697 
z
" transform="scale(0.015625)"/>
       <path id="CMR17-75" d="M 1882 2693 
L 1882 2528 
C 2259 2528 2317 2489 2317 2186 
L 2317 1032 
C 2317 500 2029 38 1555 38 
C 1030 38 986 348 986 678 
L 986 2763 
L 211 2693 
L 211 2528 
C 467 2528 640 2528 646 2274 
L 646 1058 
C 646 633 646 361 813 183 
C 896 101 1056 -64 1517 -64 
C 2061 -64 2272 377 2323 506 
L 2330 506 
L 2330 -63 
L 3091 -63 
L 3091 128 
C 2714 128 2656 166 2656 473 
L 2656 2763 
L 1882 2693 
z
" transform="scale(0.015625)"/>
       <path id="CMR17-6c" d="M 979 4396 
L 218 4326 
L 218 4160 
C 595 4160 653 4122 653 3817 
L 653 426 
C 653 184 627 153 218 153 
L 218 -13 
C 371 0 653 0 813 0 
C 979 0 1261 0 1414 -13 
L 1414 153 
C 1005 153 979 178 979 426 
L 979 4396 
z
" transform="scale(0.015625)"/>
       <path id="CMR17-74" d="M 966 2560 
L 1862 2560 
L 1862 2725 
L 966 2725 
L 966 3904 
L 851 3904 
C 838 3245 614 2668 70 2668 
L 70 2560 
L 627 2560 
L 627 771 
C 627 650 627 -64 1370 -64 
C 1747 -64 1965 306 1965 777 
L 1965 1140 
L 1850 1140 
L 1850 783 
C 1850 344 1677 51 1408 51 
C 1222 51 966 178 966 758 
L 966 2560 
z
" transform="scale(0.015625)"/>
      </defs>
      <use xlink:href="#CMR17-4d" transform="scale(0.996264)"/>
      <use xlink:href="#CMR17-43" transform="translate(84.686941 0) scale(0.996264)"/>
      <use xlink:href="#CMR17-4d" transform="translate(151.196821 0) scale(0.996264)"/>
      <use xlink:href="#CMR17-43" transform="translate(235.883762 0) scale(0.996264)"/>
      <use xlink:href="#CMR17-72" transform="translate(332.469609 0) scale(0.996264)"/>
      <use xlink:href="#CMR17-65" transform="translate(367.750376 0) scale(0.996264)"/>
      <use xlink:href="#CMR17-73" transform="translate(408.236037 0) scale(0.996264)"/>
      <use xlink:href="#CMR17-75" transform="translate(444.037374 0) scale(0.996264)"/>
      <use xlink:href="#CMR17-6c" transform="translate(494.932744 0) scale(0.996264)"/>
      <use xlink:href="#CMR17-74" transform="translate(519.803803 0) scale(0.996264)"/>
     </g>
    </g>
    <g id="line2d_7">
     <path d="M 652.645139 77.568312 
L 665.645139 77.568312 
L 678.645139 77.568312 
" style="fill: none; stroke-dasharray: 3.7,1.6; stroke-dashoffset: 0; stroke: #8b0000"/>
    </g>
    <g id="text_6">
     <!-- Experiment -->
     <g transform="translate(689.045139 82.118312) scale(0.13 -0.13)">
      <defs>
       <path id="CMR17-45" d="M 3885 1615 
L 3770 1615 
C 3629 676 3546 166 2419 166 
L 1530 166 
C 1274 166 1261 197 1261 414 
L 1261 2176 
L 1862 2176 
C 2464 2176 2522 1960 2522 1430 
L 2637 1430 
L 2637 3081 
L 2522 3081 
C 2522 2557 2464 2342 1862 2342 
L 1261 2342 
L 1261 3913 
C 1261 4128 1274 4160 1530 4160 
L 2406 4160 
C 3398 4160 3514 3769 3603 2929 
L 3718 2929 
L 3565 4325 
L 326 4325 
L 326 4160 
C 768 4160 838 4160 838 3874 
L 838 451 
C 838 166 768 166 326 166 
L 326 0 
L 3654 0 
L 3885 1615 
z
" transform="scale(0.015625)"/>
       <path id="CMR17-78" d="M 1664 1477 
C 1856 1726 2074 2006 2253 2216 
C 2464 2458 2707 2560 2989 2560 
L 2989 2726 
C 2880 2726 2656 2726 2541 2726 
C 2368 2726 2170 2726 2022 2732 
L 2022 2566 
C 2112 2553 2163 2489 2163 2400 
C 2163 2285 2099 2215 2067 2171 
L 1594 1573 
L 1030 2306 
C 973 2376 973 2388 973 2420 
C 973 2497 1037 2560 1146 2560 
L 1146 2732 
C 992 2726 717 2726 557 2726 
C 384 2726 179 2726 38 2732 
L 38 2560 
C 384 2560 461 2534 614 2343 
L 1350 1395 
C 1363 1382 1395 1344 1395 1325 
C 1395 1299 838 619 768 530 
C 480 185 179 160 6 160 
L 6 0 
C 115 0 339 0 454 0 
C 582 0 864 0 979 -6 
L 979 160 
C 941 166 838 179 838 325 
C 838 440 890 510 947 586 
L 1478 1236 
L 2035 512 
C 2086 442 2163 346 2163 301 
C 2163 211 2086 160 1984 160 
L 1984 -6 
C 2138 0 2413 0 2573 0 
C 2746 0 2950 0 3091 -6 
L 3091 160 
C 2771 160 2675 172 2522 370 
L 1664 1477 
z
" transform="scale(0.015625)"/>
       <path id="CMR17-70" d="M 1408 -1063 
C 998 -1063 973 -1037 973 -789 
L 973 402 
C 1158 134 1427 -38 1766 -38 
C 2406 -38 3053 523 3053 1388 
C 3053 2191 2496 2802 1837 2802 
C 1453 2802 1139 2592 960 2338 
L 960 2802 
L 198 2732 
L 198 2567 
C 576 2567 634 2528 634 2223 
L 634 -789 
C 634 -1031 608 -1063 198 -1063 
L 198 -1228 
C 352 -1216 634 -1216 800 -1216 
C 966 -1216 1254 -1216 1408 -1228 
L 1408 -1063 
z
M 973 2012 
C 973 2102 973 2235 1222 2471 
C 1254 2497 1472 2688 1792 2688 
C 2259 2688 2643 2108 2643 1382 
C 2643 656 2234 64 1728 64 
C 1498 64 1248 172 1056 472 
C 973 612 973 650 973 752 
L 973 2012 
z
" transform="scale(0.015625)"/>
       <path id="CMR17-69" d="M 992 3909 
C 992 4049 877 4170 730 4170 
C 589 4170 467 4056 467 3909 
C 467 3769 582 3648 730 3648 
C 870 3648 992 3763 992 3909 
z
M 243 2706 
L 243 2541 
C 602 2541 653 2502 653 2197 
L 653 427 
C 653 184 627 153 218 153 
L 218 -13 
C 371 0 646 0 806 0 
C 960 0 1222 0 1370 -13 
L 1370 153 
C 992 153 979 191 979 420 
L 979 2776 
L 243 2706 
z
" transform="scale(0.015625)"/>
       <path id="CMR17-6e" d="M 2656 1933 
C 2656 2259 2592 2790 1837 2790 
C 1331 2790 1069 2400 973 2144 
L 966 2144 
L 966 2790 
L 211 2720 
L 211 2554 
C 589 2554 646 2515 646 2208 
L 646 428 
C 646 184 621 153 211 153 
L 211 -13 
C 365 0 646 0 813 0 
C 979 0 1267 0 1421 -13 
L 1421 153 
C 1011 153 986 178 986 428 
L 986 1658 
C 986 2247 1344 2688 1792 2688 
C 2266 2688 2317 2266 2317 1958 
L 2317 428 
C 2317 184 2291 153 1882 153 
L 1882 -13 
C 2035 0 2317 0 2483 0 
C 2650 0 2938 0 3091 -13 
L 3091 153 
C 2682 153 2656 178 2656 428 
L 2656 1933 
z
" transform="scale(0.015625)"/>
      </defs>
      <use xlink:href="#CMR17-45" transform="scale(0.996264)"/>
      <use xlink:href="#CMR17-78" transform="translate(62.586301 0) scale(0.996264)"/>
      <use xlink:href="#CMR17-70" transform="translate(110.879216 0) scale(0.996264)"/>
      <use xlink:href="#CMR17-65" transform="translate(164.377025 0) scale(0.996264)"/>
      <use xlink:href="#CMR17-72" transform="translate(204.862685 0) scale(0.996264)"/>
      <use xlink:href="#CMR17-69" transform="translate(240.143453 0) scale(0.996264)"/>
      <use xlink:href="#CMR17-6d" transform="translate(265.014512 0) scale(0.996264)"/>
      <use xlink:href="#CMR17-65" transform="translate(341.934101 0) scale(0.996264)"/>
      <use xlink:href="#CMR17-6e" transform="translate(382.419762 0) scale(0.996264)"/>
      <use xlink:href="#CMR17-74" transform="translate(430.712678 0) scale(0.996264)"/>
     </g>
    </g>
   </g>
  </g>
  <g id="axes_2">
   <g id="patch_8">
    <path d="M 108 320.4 
L 777.6 320.4 
L 777.6 181.8 
L 108 181.8 
z
" style="fill: #ffffff"/>
   </g>
   <g id="matplotlib.axis_3">
    <g id="xtick_1">
     <g id="line2d_8">
      <defs>
       <path id="m2aa8fd0e3f" d="M 0 0 
L 0 3.5 
" style="stroke: #000000; stroke-width: 0.8"/>
      </defs>
      <g>
       <use xlink:href="#m2aa8fd0e3f" x="138.436364" y="320.4" style="stroke: #000000; stroke-width: 0.8"/>
      </g>
     </g>
     <g id="text_7">
      <!-- $\mathdefault{0.00}$ -->
      <g transform="translate(127.163938 336.394028) scale(0.13 -0.13)">
       <use xlink:href="#CMR17-30" transform="scale(0.996264)"/>
       <use xlink:href="#CMMI12-3a" transform="translate(45.690477 0) scale(0.996264)"/>
       <use xlink:href="#CMR17-30" transform="translate(72.787654 0) scale(0.996264)"/>
       <use xlink:href="#CMR17-30" transform="translate(118.478131 0) scale(0.996264)"/>
      </g>
     </g>
    </g>
    <g id="xtick_2">
     <g id="line2d_9">
      <g>
       <use xlink:href="#m2aa8fd0e3f" x="214.909639" y="320.4" style="stroke: #000000; stroke-width: 0.8"/>
      </g>
     </g>
     <g id="text_8">
      <!-- $\mathdefault{0.25}$ -->
      <g transform="translate(203.637213 336.394028) scale(0.13 -0.13)">
       <defs>
        <path id="CMR17-35" d="M 730 3692 
C 794 3666 1056 3584 1325 3584 
C 1920 3584 2246 3911 2432 4100 
C 2432 4157 2432 4192 2394 4192 
C 2387 4192 2374 4192 2323 4163 
C 2099 4058 1837 3973 1517 3973 
C 1325 3973 1037 3999 723 4139 
C 653 4171 640 4171 634 4171 
C 602 4171 595 4164 595 4037 
L 595 2203 
C 595 2089 595 2057 659 2057 
C 691 2057 704 2070 736 2114 
C 941 2401 1222 2522 1542 2522 
C 1766 2522 2246 2382 2246 1289 
C 2246 1085 2246 715 2054 421 
C 1894 159 1645 25 1370 25 
C 947 25 518 320 403 814 
C 429 807 480 795 506 795 
C 589 795 749 840 749 1038 
C 749 1210 627 1280 506 1280 
C 358 1280 262 1190 262 1011 
C 262 454 704 -128 1382 -128 
C 2042 -128 2669 440 2669 1264 
C 2669 2030 2170 2624 1549 2624 
C 1222 2624 947 2503 730 2274 
L 730 3692 
z
" transform="scale(0.015625)"/>
       </defs>
       <use xlink:href="#CMR17-30" transform="scale(0.996264)"/>
       <use xlink:href="#CMMI12-3a" transform="translate(45.690477 0) scale(0.996264)"/>
       <use xlink:href="#CMR17-32" transform="translate(72.787654 0) scale(0.996264)"/>
       <use xlink:href="#CMR17-35" transform="translate(118.478131 0) scale(0.996264)"/>
      </g>
     </g>
    </g>
    <g id="xtick_3">
     <g id="line2d_10">
      <g>
       <use xlink:href="#m2aa8fd0e3f" x="291.382915" y="320.4" style="stroke: #000000; stroke-width: 0.8"/>
      </g>
     </g>
     <g id="text_9">
      <!-- $\mathdefault{0.50}$ -->
      <g transform="translate(280.110489 336.394028) scale(0.13 -0.13)">
       <use xlink:href="#CMR17-30" transform="scale(0.996264)"/>
       <use xlink:href="#CMMI12-3a" transform="translate(45.690477 0) scale(0.996264)"/>
       <use xlink:href="#CMR17-35" transform="translate(72.787654 0) scale(0.996264)"/>
       <use xlink:href="#CMR17-30" transform="translate(118.478131 0) scale(0.996264)"/>
      </g>
     </g>
    </g>
    <g id="xtick_4">
     <g id="line2d_11">
      <g>
       <use xlink:href="#m2aa8fd0e3f" x="367.85619" y="320.4" style="stroke: #000000; stroke-width: 0.8"/>
      </g>
     </g>
     <g id="text_10">
      <!-- $\mathdefault{0.75}$ -->
      <g transform="translate(356.583764 336.394028) scale(0.13 -0.13)">
       <defs>
        <path id="CMR17-37" d="M 2886 3941 
L 2886 4081 
L 1382 4081 
C 634 4081 621 4165 595 4288 
L 480 4288 
L 294 3094 
L 410 3094 
C 429 3215 474 3540 550 3661 
C 589 3712 1062 3712 1171 3712 
L 2579 3712 
L 1869 2661 
C 1395 1954 1069 999 1069 165 
C 1069 89 1069 -128 1299 -128 
C 1530 -128 1530 89 1530 171 
L 1530 465 
C 1530 1508 1709 2196 2003 2636 
L 2886 3941 
z
" transform="scale(0.015625)"/>
       </defs>
       <use xlink:href="#CMR17-30" transform="scale(0.996264)"/>
       <use xlink:href="#CMMI12-3a" transform="translate(45.690477 0) scale(0.996264)"/>
       <use xlink:href="#CMR17-37" transform="translate(72.787654 0) scale(0.996264)"/>
       <use xlink:href="#CMR17-35" transform="translate(118.478131 0) scale(0.996264)"/>
      </g>
     </g>
    </g>
    <g id="xtick_5">
     <g id="line2d_12">
      <g>
       <use xlink:href="#m2aa8fd0e3f" x="444.329466" y="320.4" style="stroke: #000000; stroke-width: 0.8"/>
      </g>
     </g>
     <g id="text_11">
      <!-- $\mathdefault{1.00}$ -->
      <g transform="translate(433.05704 336.394028) scale(0.13 -0.13)">
       <use xlink:href="#CMR17-31" transform="scale(0.996264)"/>
       <use xlink:href="#CMMI12-3a" transform="translate(45.690477 0) scale(0.996264)"/>
       <use xlink:href="#CMR17-30" transform="translate(72.787654 0) scale(0.996264)"/>
       <use xlink:href="#CMR17-30" transform="translate(118.478131 0) scale(0.996264)"/>
      </g>
     </g>
    </g>
    <g id="xtick_6">
     <g id="line2d_13">
      <g>
       <use xlink:href="#m2aa8fd0e3f" x="520.802741" y="320.4" style="stroke: #000000; stroke-width: 0.8"/>
      </g>
     </g>
     <g id="text_12">
      <!-- $\mathdefault{1.25}$ -->
      <g transform="translate(509.530315 336.394028) scale(0.13 -0.13)">
       <use xlink:href="#CMR17-31" transform="scale(0.996264)"/>
       <use xlink:href="#CMMI12-3a" transform="translate(45.690477 0) scale(0.996264)"/>
       <use xlink:href="#CMR17-32" transform="translate(72.787654 0) scale(0.996264)"/>
       <use xlink:href="#CMR17-35" transform="translate(118.478131 0) scale(0.996264)"/>
      </g>
     </g>
    </g>
    <g id="xtick_7">
     <g id="line2d_14">
      <g>
       <use xlink:href="#m2aa8fd0e3f" x="597.276016" y="320.4" style="stroke: #000000; stroke-width: 0.8"/>
      </g>
     </g>
     <g id="text_13">
      <!-- $\mathdefault{1.50}$ -->
      <g transform="translate(586.003591 336.394028) scale(0.13 -0.13)">
       <use xlink:href="#CMR17-31" transform="scale(0.996264)"/>
       <use xlink:href="#CMMI12-3a" transform="translate(45.690477 0) scale(0.996264)"/>
       <use xlink:href="#CMR17-35" transform="translate(72.787654 0) scale(0.996264)"/>
       <use xlink:href="#CMR17-30" transform="translate(118.478131 0) scale(0.996264)"/>
      </g>
     </g>
    </g>
    <g id="xtick_8">
     <g id="line2d_15">
      <g>
       <use xlink:href="#m2aa8fd0e3f" x="673.749292" y="320.4" style="stroke: #000000; stroke-width: 0.8"/>
      </g>
     </g>
     <g id="text_14">
      <!-- $\mathdefault{1.75}$ -->
      <g transform="translate(662.476866 336.394028) scale(0.13 -0.13)">
       <use xlink:href="#CMR17-31" transform="scale(0.996264)"/>
       <use xlink:href="#CMMI12-3a" transform="translate(45.690477 0) scale(0.996264)"/>
       <use xlink:href="#CMR17-37" transform="translate(72.787654 0) scale(0.996264)"/>
       <use xlink:href="#CMR17-35" transform="translate(118.478131 0) scale(0.996264)"/>
      </g>
     </g>
    </g>
    <g id="xtick_9">
     <g id="line2d_16">
      <g>
       <use xlink:href="#m2aa8fd0e3f" x="750.222567" y="320.4" style="stroke: #000000; stroke-width: 0.8"/>
      </g>
     </g>
     <g id="text_15">
      <!-- $\mathdefault{2.00}$ -->
      <g transform="translate(738.950142 336.394028) scale(0.13 -0.13)">
       <use xlink:href="#CMR17-32" transform="scale(0.996264)"/>
       <use xlink:href="#CMMI12-3a" transform="translate(45.690477 0) scale(0.996264)"/>
       <use xlink:href="#CMR17-30" transform="translate(72.787654 0) scale(0.996264)"/>
       <use xlink:href="#CMR17-30" transform="translate(118.478131 0) scale(0.996264)"/>
      </g>
     </g>
    </g>
    <g id="text_16">
     <!-- time (sec) -->
     <g transform="translate(415.28824 352.625914) scale(0.13 -0.13)">
      <defs>
       <path id="CMR17-63" d="M 2234 2240 
C 2112 2240 1933 2240 1933 2017 
C 1933 1838 2080 1787 2163 1787 
C 2208 1787 2394 1807 2394 2024 
C 2394 2467 1958 2803 1466 2803 
C 787 2803 211 2178 211 1363 
C 211 516 813 -64 1466 -64 
C 2259 -64 2458 677 2458 748 
C 2458 774 2451 793 2406 793 
C 2362 793 2355 787 2330 703 
C 2163 180 1798 51 1523 51 
C 1114 51 621 427 621 1369 
C 621 2338 1094 2688 1472 2688 
C 1722 2688 2093 2573 2234 2240 
z
" transform="scale(0.015625)"/>
      </defs>
      <use xlink:href="#CMR17-74" transform="scale(0.996264)"/>
      <use xlink:href="#CMR17-69" transform="translate(35.280768 0) scale(0.996264)"/>
      <use xlink:href="#CMR17-6d" transform="translate(60.151826 0) scale(0.996264)"/>
      <use xlink:href="#CMR17-65" transform="translate(137.071416 0) scale(0.996264)"/>
      <use xlink:href="#CMR17-28" transform="translate(207.633043 0) scale(0.996264)"/>
      <use xlink:href="#CMR17-73" transform="translate(242.913811 0) scale(0.996264)"/>
      <use xlink:href="#CMR17-65" transform="translate(278.715148 0) scale(0.996264)"/>
      <use xlink:href="#CMR17-63" transform="translate(319.200809 0) scale(0.996264)"/>
      <use xlink:href="#CMR17-29" transform="translate(359.686469 0) scale(0.996264)"/>
     </g>
    </g>
   </g>
   <g id="matplotlib.axis_4">
    <g id="ytick_4">
     <g id="line2d_17">
      <g>
       <use xlink:href="#mece6211a98" x="108" y="298.137915" style="stroke: #000000; stroke-width: 0.8"/>
      </g>
     </g>
     <g id="text_17">
      <!-- $\mathdefault{−0.02}$ -->
      <g transform="translate(68.381779 302.634929) scale(0.13 -0.13)">
       <use xlink:href="#CMSY10-0" transform="scale(0.996264)"/>
       <use xlink:href="#CMR17-30" transform="translate(77.487468 0) scale(0.996264)"/>
       <use xlink:href="#CMMI12-3a" transform="translate(123.177945 0) scale(0.996264)"/>
       <use xlink:href="#CMR17-30" transform="translate(150.275122 0) scale(0.996264)"/>
       <use xlink:href="#CMR17-32" transform="translate(195.965599 0) scale(0.996264)"/>
      </g>
     </g>
    </g>
    <g id="ytick_5">
     <g id="line2d_18">
      <g>
       <use xlink:href="#mece6211a98" x="108" y="250.394891" style="stroke: #000000; stroke-width: 0.8"/>
      </g>
     </g>
     <g id="text_18">
      <!-- $\mathdefault{0.00}$ -->
      <g transform="translate(78.455149 254.891905) scale(0.13 -0.13)">
       <use xlink:href="#CMR17-30" transform="scale(0.996264)"/>
       <use xlink:href="#CMMI12-3a" transform="translate(45.690477 0) scale(0.996264)"/>
       <use xlink:href="#CMR17-30" transform="translate(72.787654 0) scale(0.996264)"/>
       <use xlink:href="#CMR17-30" transform="translate(118.478131 0) scale(0.996264)"/>
      </g>
     </g>
    </g>
    <g id="ytick_6">
     <g id="line2d_19">
      <g>
       <use xlink:href="#mece6211a98" x="108" y="202.651867" style="stroke: #000000; stroke-width: 0.8"/>
      </g>
     </g>
     <g id="text_19">
      <!-- $\mathdefault{0.02}$ -->
      <g transform="translate(78.455149 207.148881) scale(0.13 -0.13)">
       <use xlink:href="#CMR17-30" transform="scale(0.996264)"/>
       <use xlink:href="#CMMI12-3a" transform="translate(45.690477 0) scale(0.996264)"/>
       <use xlink:href="#CMR17-30" transform="translate(72.787654 0) scale(0.996264)"/>
       <use xlink:href="#CMR17-32" transform="translate(118.478131 0) scale(0.996264)"/>
      </g>
     </g>
    </g>
    <g id="text_20">
     <!-- $x_2$ (m) -->
     <g transform="translate(61.143921 269.610922) rotate(-90) scale(0.13 -0.13)">
      <use xlink:href="#CMMI12-78" transform="scale(0.996264)"/>
      <use xlink:href="#CMR17-32" transform="translate(55.43406 -14.943915) scale(0.697382)"/>
      <use xlink:href="#CMR17-28" transform="translate(117.99134 0) scale(0.996264)"/>
      <use xlink:href="#CMR17-6d" transform="translate(153.272108 0) scale(0.996264)"/>
      <use xlink:href="#CMR17-29" transform="translate(230.191698 0) scale(0.996264)"/>
     </g>
    </g>
   </g>
   <g id="line2d_20">
    <path d="M 138.436364 311.057588 
L 141.495295 314.1 
L 144.554226 311.878329 
L 147.613157 304.619859 
L 150.672088 292.964952 
L 153.731019 277.910454 
L 156.78995 260.724201 
L 159.848881 242.837959 
L 162.907812 225.727885 
L 165.966743 210.792487 
L 169.025674 199.238219 
L 172.084605 191.982055 
L 175.143536 189.578919 
L 178.202467 192.179694 
L 181.261398 199.522943 
L 184.320329 210.960659 
L 187.37926 225.515542 
L 196.556053 275.055524 
L 199.614984 288.994041 
L 202.673915 299.641739 
L 205.732846 306.163292 
L 208.791777 308.069942 
L 211.850708 305.255527 
L 214.909639 298.000736 
L 217.96857 286.945621 
L 221.027501 273.033039 
L 230.204294 226.31575 
L 233.263225 213.333419 
L 236.322156 203.503468 
L 239.381087 197.587574 
L 242.440018 196.019942 
L 245.498949 198.876194 
L 248.55788 205.87186 
L 251.616811 216.390211 
L 254.675742 229.536722 
L 263.852535 273.334437 
L 266.911466 285.429489 
L 269.970397 294.554655 
L 273.029328 300.011735 
L 276.088259 301.407851 
L 279.14719 298.682839 
L 282.206122 292.109361 
L 285.265053 282.266136 
L 288.323984 269.986902 
L 297.500777 229.119564 
L 300.559708 217.816703 
L 303.618639 209.262551 
L 306.67757 204.103879 
L 309.736501 202.706682 
L 312.795432 205.131211 
L 315.854363 211.131854 
L 318.913294 220.181466 
L 321.972225 231.517768 
L 331.149018 269.530326 
L 334.207949 280.15946 
L 337.26688 288.29323 
L 340.325811 293.322732 
L 343.384742 294.893608 
L 346.443673 292.929979 
L 349.502604 287.635962 
L 352.561535 279.475077 
L 355.620466 269.129578 
L 364.797259 233.812036 
L 367.85619 223.718283 
L 370.915121 215.841842 
L 373.974052 210.768437 
L 377.032983 208.856371 
L 380.091914 210.212237 
L 383.150845 214.686643 
L 386.209776 221.889866 
L 389.268707 231.225885 
L 392.327638 241.941786 
L 398.4455 264.087633 
L 401.504431 273.800151 
L 404.563362 281.589925 
L 407.622293 286.879041 
L 410.681224 289.289779 
L 413.740155 288.670646 
L 416.799086 285.104701 
L 419.858017 278.899863 
L 422.916948 270.562256 
L 425.975879 260.754888 
L 432.093741 239.844681 
L 435.152672 230.347996 
L 438.211603 222.471652 
L 441.270534 216.801353 
L 444.329466 213.749137 
L 447.388397 213.524257 
L 450.447328 216.119651 
L 453.506259 221.31479 
L 456.56519 228.694474 
L 459.624121 237.681949 
L 468.800914 267.095333 
L 471.859845 275.228951 
L 474.918776 281.434691 
L 477.977707 285.252304 
L 481.036638 286.40362 
L 484.095569 284.81228 
L 487.1545 280.608401 
L 490.213431 274.11793 
L 493.272362 265.837546 
L 496.331293 256.397056 
L 502.449155 236.930404 
L 505.508086 228.376379 
L 508.567017 221.496706 
L 511.625948 216.812318 
L 514.684879 214.679433 
L 517.74381 215.262796 
L 520.802741 218.52305 
L 523.861672 224.219221 
L 526.920603 231.926149 
L 529.979534 241.065664 
L 536.097396 260.82924 
L 539.156327 269.954425 
L 542.215258 277.626672 
L 545.274189 283.253681 
L 548.33312 286.394353 
L 551.392051 286.7932 
L 554.450982 284.401134 
L 557.509913 279.380955 
L 560.568844 272.096955 
L 563.627775 263.089223 
L 572.804568 232.865338 
L 575.863499 224.305226 
L 578.92243 217.687522 
L 581.981361 213.542531 
L 585.040292 212.216176 
L 588.099223 213.841063 
L 591.158154 218.323467 
L 594.217085 225.347519 
L 597.276016 234.396533 
L 600.334947 244.790154 
L 606.45281 266.383226 
L 609.511741 275.900334 
L 612.570672 283.527622 
L 615.629603 288.643876 
L 618.688534 290.815717 
L 621.747465 289.83441 
L 624.806396 285.73573 
L 627.865327 278.801001 
L 630.924258 269.53887 
L 633.983189 258.64889 
L 640.101051 235.413655 
L 643.159982 224.898621 
L 646.218913 216.272606 
L 649.277844 210.246754 
L 652.336775 207.336348 
L 655.395706 207.816625 
L 658.454637 211.696917 
L 661.513568 218.715561 
L 664.572499 228.356344 
L 667.63143 239.88561 
L 673.749292 264.932744 
L 676.808223 276.457226 
L 679.867154 286.041687 
L 682.926085 292.88868 
L 685.985016 296.408982 
L 689.043947 296.272445 
L 692.102878 292.438791 
L 695.161809 285.165494 
L 698.22074 274.991705 
L 701.279671 262.699086 
L 707.397533 235.723734 
L 710.456464 223.208028 
L 713.515395 212.733637 
L 716.574326 205.178145 
L 719.633257 201.194565 
L 722.692188 201.154755 
L 725.751119 205.114864 
L 728.81005 212.806021 
L 731.868981 223.651436 
L 734.927912 236.808958 
L 741.045774 265.771999 
L 744.104705 279.231496 
L 747.163636 290.501082 
L 747.163636 290.501082 
" clip-path="url(#pb9104803c7)" style="fill: none; stroke: #0000ff; stroke-linecap: square"/>
   </g>
   <g id="line2d_21">
    <path d="M 138.436364 296.534639 
L 141.495295 311.057588 
L 144.554226 309.349226 
L 147.613157 296.006055 
L 150.672088 275.624577 
L 153.731019 252.801294 
L 156.78995 232.132709 
L 159.848881 217.205737 
L 162.907812 207.568948 
L 165.966743 201.761325 
L 169.025674 198.882661 
L 172.084605 200.275988 
L 175.143536 207.845151 
L 178.202467 222.304039 
L 181.261398 239.606734 
L 184.320329 254.517367 
L 187.37926 263.349959 
L 190.438191 268.618104 
L 193.497122 274.385286 
L 196.556053 283.152448 
L 199.614984 291.170369 
L 202.673915 294.288124 
L 205.732846 292.998151 
L 208.791777 288.953728 
L 211.850708 283.352949 
L 214.909639 275.573174 
L 217.96857 264.536582 
L 221.027501 249.741761 
L 227.145363 216.67079 
L 230.204294 202.934797 
L 233.263225 193.059928 
L 236.322156 188.1 
L 239.381087 188.835469 
L 242.440018 194.953333 
L 245.498949 205.867225 
L 248.55788 220.749055 
L 254.675742 254.994797 
L 257.734673 270.582288 
L 260.793604 284.014721 
L 263.852535 295.037554 
L 266.911466 303.18595 
L 269.970397 307.153893 
L 273.029328 305.425072 
L 276.088259 297.481497 
L 279.14719 286.798472 
L 282.206122 277.009127 
L 285.265053 268.38463 
L 291.382915 252.372189 
L 294.441846 243.961434 
L 297.500777 234.66991 
L 303.618639 214.380277 
L 306.67757 206.25599 
L 309.736501 201.444903 
L 312.795432 200.661582 
L 315.854363 204.441755 
L 318.913294 213.032481 
L 321.972225 225.526142 
L 325.031156 240.726453 
L 328.090087 257.208261 
L 331.149018 272.630931 
L 334.207949 284.424961 
L 337.26688 290.758429 
L 340.325811 292.749725 
L 343.384742 292.254817 
L 346.443673 290.415207 
L 349.502604 285.514515 
L 352.561535 275.121892 
L 358.679397 242.035976 
L 361.738328 231.729211 
L 364.797259 226.305376 
L 367.85619 222.584104 
L 370.915121 218.300496 
L 373.974052 214.851525 
L 377.032983 214.549635 
L 380.091914 219.028208 
L 383.150845 227.204383 
L 386.209776 237.316237 
L 392.327638 258.812684 
L 398.4455 281.694132 
L 401.504431 292.155379 
L 404.563362 299.86642 
L 407.622293 303.517815 
L 410.681224 303.149001 
L 413.740155 299.136633 
L 416.799086 292.046793 
L 425.975879 265.850466 
L 429.03481 257.62204 
L 432.093741 248.201647 
L 435.152672 236.862158 
L 438.211603 224.897369 
L 441.270534 214.106307 
L 444.329466 206.040509 
L 447.388397 201.261546 
L 450.447328 200.083499 
L 453.506259 202.773442 
L 456.56519 209.410413 
L 459.624121 220.026442 
L 462.683052 234.381529 
L 465.741983 251.147544 
L 468.800914 268.724327 
L 471.859845 285.127792 
L 474.918776 296.838148 
L 477.977707 301.100359 
L 481.036638 299.754119 
L 484.095569 295.787801 
L 487.1545 291.496624 
L 490.213431 286.403183 
L 493.272362 279.336919 
L 496.331293 269.536726 
L 499.390224 257.879303 
L 502.449155 245.650805 
L 505.508086 234.040234 
L 508.567017 223.847988 
L 511.625948 215.777313 
L 514.684879 210.555321 
L 517.74381 209.004578 
L 520.802741 211.971512 
L 523.861672 219.830103 
L 526.920603 231.064529 
L 533.038465 256.048492 
L 536.097396 267.865601 
L 539.156327 279.19369 
L 542.215258 289.492273 
L 545.274189 295.835544 
L 548.33312 295.777104 
L 551.392051 291.173486 
L 554.450982 284.956955 
L 560.568844 273.487069 
L 563.627775 265.948411 
L 566.686706 255.711428 
L 572.804568 232.044044 
L 575.863499 221.597845 
L 578.92243 212.90412 
L 581.981361 206.085479 
L 585.040292 201.48024 
L 588.099223 200.28954 
L 591.158154 203.930223 
L 594.217085 213.206571 
L 597.276016 226.472629 
L 603.393878 256.213091 
L 606.45281 269.81015 
L 609.511741 281.642225 
L 612.570672 291.097711 
L 615.629603 297.593893 
L 618.688534 300.555283 
L 621.747465 299.779739 
L 624.806396 296.55851 
L 627.865327 292.176969 
L 630.924258 286.403583 
L 633.983189 278.627594 
L 637.04212 268.553625 
L 643.159982 245.691728 
L 646.218913 235.357057 
L 649.277844 226.876309 
L 652.336775 220.872176 
L 655.395706 217.936344 
L 658.454637 218.536487 
L 661.513568 223.109278 
L 664.572499 231.692674 
L 667.63143 242.729786 
L 670.690361 254.265011 
L 673.749292 264.684084 
L 676.808223 273.738092 
L 679.867154 281.519457 
L 682.926085 287.909771 
L 685.985016 291.947288 
L 689.043947 292.45943 
L 692.102878 288.544015 
L 695.161809 280.380445 
L 698.22074 268.713931 
L 701.279671 255.471325 
L 704.338602 242.87489 
L 707.397533 232.630534 
L 710.456464 224.378757 
L 713.515395 217.243706 
L 716.574326 210.842658 
L 719.633257 206.765414 
L 722.692188 207.094903 
L 725.751119 213.141951 
L 728.81005 223.128958 
L 731.868981 234.506219 
L 737.986843 255.943269 
L 741.045774 267.380702 
L 744.104705 279.994206 
L 747.163636 291.696113 
L 747.163636 291.696113 
" clip-path="url(#pb9104803c7)" style="fill: none; stroke-dasharray: 3.7,1.6; stroke-dashoffset: 0; stroke: #00008b"/>
   </g>
   <g id="patch_9">
    <path d="M 108 320.4 
L 108 181.8 
" style="fill: none; stroke: #000000; stroke-width: 0.8; stroke-linejoin: miter; stroke-linecap: square"/>
   </g>
   <g id="patch_10">
    <path d="M 777.6 320.4 
L 777.6 181.8 
" style="fill: none; stroke: #000000; stroke-width: 0.8; stroke-linejoin: miter; stroke-linecap: square"/>
   </g>
   <g id="patch_11">
    <path d="M 108 320.4 
L 777.6 320.4 
" style="fill: none; stroke: #000000; stroke-width: 0.8; stroke-linejoin: miter; stroke-linecap: square"/>
   </g>
   <g id="patch_12">
    <path d="M 108 181.8 
L 777.6 181.8 
" style="fill: none; stroke: #000000; stroke-width: 0.8; stroke-linejoin: miter; stroke-linecap: square"/>
   </g>
   <g id="legend_2">
    <g id="patch_13">
     <path d="M 650.045139 228.436624 
L 768.5 228.436624 
Q 771.1 228.436624 771.1 225.836624 
L 771.1 190.9 
Q 771.1 188.3 768.5 188.3 
L 650.045139 188.3 
Q 647.445139 188.3 647.445139 190.9 
L 647.445139 225.836624 
Q 647.445139 228.436624 650.045139 228.436624 
z
" style="fill: #ffffff; opacity: 0.8; stroke: #cccccc; stroke-linejoin: miter"/>
    </g>
    <g id="line2d_22">
     <path d="M 652.645139 198.05 
L 665.645139 198.05 
L 678.645139 198.05 
" style="fill: none; stroke: #0000ff; stroke-linecap: square"/>
    </g>
    <g id="text_21">
     <!-- MCMC result -->
     <g transform="translate(689.045139 202.6) scale(0.13 -0.13)">
      <use xlink:href="#CMR17-4d" transform="scale(0.996264)"/>
      <use xlink:href="#CMR17-43" transform="translate(84.686941 0) scale(0.996264)"/>
      <use xlink:href="#CMR17-4d" transform="translate(151.196821 0) scale(0.996264)"/>
      <use xlink:href="#CMR17-43" transform="translate(235.883762 0) scale(0.996264)"/>
      <use xlink:href="#CMR17-72" transform="translate(332.469609 0) scale(0.996264)"/>
      <use xlink:href="#CMR17-65" transform="translate(367.750376 0) scale(0.996264)"/>
      <use xlink:href="#CMR17-73" transform="translate(408.236037 0) scale(0.996264)"/>
      <use xlink:href="#CMR17-75" transform="translate(444.037374 0) scale(0.996264)"/>
      <use xlink:href="#CMR17-6c" transform="translate(494.932744 0) scale(0.996264)"/>
      <use xlink:href="#CMR17-74" transform="translate(519.803803 0) scale(0.996264)"/>
     </g>
    </g>
    <g id="line2d_23">
     <path d="M 652.645139 216.168312 
L 665.645139 216.168312 
L 678.645139 216.168312 
" style="fill: none; stroke-dasharray: 3.7,1.6; stroke-dashoffset: 0; stroke: #00008b"/>
    </g>
    <g id="text_22">
     <!-- Experiment -->
     <g transform="translate(689.045139 220.718312) scale(0.13 -0.13)">
      <use xlink:href="#CMR17-45" transform="scale(0.996264)"/>
      <use xlink:href="#CMR17-78" transform="translate(62.586301 0) scale(0.996264)"/>
      <use xlink:href="#CMR17-70" transform="translate(110.879216 0) scale(0.996264)"/>
      <use xlink:href="#CMR17-65" transform="translate(164.377025 0) scale(0.996264)"/>
      <use xlink:href="#CMR17-72" transform="translate(204.862685 0) scale(0.996264)"/>
      <use xlink:href="#CMR17-69" transform="translate(240.143453 0) scale(0.996264)"/>
      <use xlink:href="#CMR17-6d" transform="translate(265.014512 0) scale(0.996264)"/>
      <use xlink:href="#CMR17-65" transform="translate(341.934101 0) scale(0.996264)"/>
      <use xlink:href="#CMR17-6e" transform="translate(382.419762 0) scale(0.996264)"/>
      <use xlink:href="#CMR17-74" transform="translate(430.712678 0) scale(0.996264)"/>
     </g>
    </g>
   </g>
  </g>
  <g id="text_23">
   <!-- Comparasion of position data and result -->
   <g transform="translate(297.449518 17.99284) scale(0.156 -0.156)">
    <defs>
     <path id="CMR17-6f" d="M 2758 1356 
C 2758 2176 2163 2816 1466 2816 
C 768 2816 173 2176 173 1356 
C 173 551 768 -64 1466 -64 
C 2163 -64 2758 551 2758 1356 
z
M 1466 51 
C 1165 51 909 230 762 480 
C 602 767 582 1126 582 1408 
C 582 1677 595 2010 762 2298 
C 890 2509 1139 2714 1466 2714 
C 1754 2714 1997 2554 2150 2330 
C 2349 2029 2349 1607 2349 1408 
C 2349 1158 2336 775 2163 467 
C 1984 173 1709 51 1466 51 
z
" transform="scale(0.015625)"/>
     <path id="CMR17-61" d="M 2304 1653 
C 2304 2072 2304 2294 2035 2543 
C 1798 2752 1523 2816 1306 2816 
C 800 2816 435 2407 435 1971 
C 435 1728 627 1728 666 1728 
C 749 1728 896 1778 896 1954 
C 896 2112 774 2181 666 2181 
C 640 2181 608 2174 589 2168 
C 723 2592 1069 2714 1293 2714 
C 1613 2714 1965 2429 1965 1885 
L 1965 1600 
C 1587 1600 1133 1549 774 1357 
C 371 1133 256 813 256 570 
C 256 77 832 -64 1171 -64 
C 1523 -64 1850 139 1990 511 
C 2003 233 2182 -18 2464 -18 
C 2598 -18 2938 70 2938 567 
L 2938 920 
L 2822 920 
L 2822 562 
C 2822 178 2650 128 2566 128 
C 2304 128 2304 458 2304 738 
L 2304 1653 
z
M 1965 870 
C 1965 317 1568 38 1216 38 
C 896 38 646 275 646 570 
C 646 761 730 1100 1101 1305 
C 1408 1478 1760 1504 1965 1504 
L 1965 870 
z
" transform="scale(0.015625)"/>
     <path id="CMR17-66" d="M 979 2560 
L 1709 2560 
L 1709 2725 
L 966 2725 
L 966 3494 
C 966 4022 1235 4352 1510 4352 
C 1594 4352 1690 4327 1754 4282 
C 1702 4269 1568 4225 1568 4067 
C 1568 3901 1696 3850 1786 3850 
C 1875 3850 2003 3901 2003 4067 
C 2003 4308 1773 4454 1517 4454 
C 1152 4454 653 4156 653 3481 
L 653 2725 
L 141 2725 
L 141 2560 
L 653 2560 
L 653 427 
C 653 184 627 153 218 153 
L 218 -13 
C 371 0 666 0 832 0 
C 1018 0 1344 0 1517 -13 
L 1517 153 
C 1056 153 979 153 979 439 
L 979 2560 
z
" transform="scale(0.015625)"/>
     <path id="CMR17-64" d="M 1869 4326 
L 1869 4160 
C 2246 4160 2304 4122 2304 3820 
L 2304 2345 
C 2278 2377 2016 2790 1498 2790 
C 845 2790 211 2208 211 1364 
C 211 525 806 -64 1434 -64 
C 1978 -64 2259 337 2291 380 
L 2291 -63 
L 3066 -63 
L 3066 128 
C 2688 128 2630 166 2630 473 
L 2630 4396 
L 1869 4326 
z
M 2291 755 
C 2291 563 2176 390 2029 262 
C 1811 70 1594 38 1472 38 
C 1286 38 621 134 621 1356 
C 621 2612 1363 2688 1530 2688 
C 1824 2688 2061 2522 2208 2291 
C 2291 2157 2291 2138 2291 2023 
L 2291 755 
z
" transform="scale(0.015625)"/>
    </defs>
    <use xlink:href="#CMR17-43" transform="scale(0.996264)"/>
    <use xlink:href="#CMR17-6f" transform="translate(66.509881 0) scale(0.996264)"/>
    <use xlink:href="#CMR17-6d" transform="translate(112.200358 0) scale(0.996264)"/>
    <use xlink:href="#CMR17-70" transform="translate(189.119948 0) scale(0.996264)"/>
    <use xlink:href="#CMR17-61" transform="translate(240.015317 0) scale(0.996264)"/>
    <use xlink:href="#CMR17-72" transform="translate(285.705794 0) scale(0.996264)"/>
    <use xlink:href="#CMR17-61" transform="translate(320.986562 0) scale(0.996264)"/>
    <use xlink:href="#CMR17-73" transform="translate(366.677039 0) scale(0.996264)"/>
    <use xlink:href="#CMR17-69" transform="translate(402.478377 0) scale(0.996264)"/>
    <use xlink:href="#CMR17-6f" transform="translate(427.349435 0) scale(0.996264)"/>
    <use xlink:href="#CMR17-6e" transform="translate(473.039913 0) scale(0.996264)"/>
    <use xlink:href="#CMR17-6f" transform="translate(554.011249 0) scale(0.996264)"/>
    <use xlink:href="#CMR17-66" transform="translate(599.701726 0) scale(0.996264)"/>
    <use xlink:href="#CMR17-70" transform="translate(657.251205 0) scale(0.996264)"/>
    <use xlink:href="#CMR17-6f" transform="translate(710.749013 0) scale(0.996264)"/>
    <use xlink:href="#CMR17-73" transform="translate(756.43949 0) scale(0.996264)"/>
    <use xlink:href="#CMR17-69" transform="translate(792.240828 0) scale(0.996264)"/>
    <use xlink:href="#CMR17-74" transform="translate(817.111886 0) scale(0.996264)"/>
    <use xlink:href="#CMR17-69" transform="translate(852.392654 0) scale(0.996264)"/>
    <use xlink:href="#CMR17-6f" transform="translate(877.263713 0) scale(0.996264)"/>
    <use xlink:href="#CMR17-6e" transform="translate(922.95419 0) scale(0.996264)"/>
    <use xlink:href="#CMR17-64" transform="translate(1003.925526 0) scale(0.996264)"/>
    <use xlink:href="#CMR17-61" transform="translate(1054.820896 0) scale(0.996264)"/>
    <use xlink:href="#CMR17-74" transform="translate(1100.511373 0) scale(0.996264)"/>
    <use xlink:href="#CMR17-61" transform="translate(1135.792141 0) scale(0.996264)"/>
    <use xlink:href="#CMR17-61" transform="translate(1211.558584 0) scale(0.996264)"/>
    <use xlink:href="#CMR17-6e" transform="translate(1257.249061 0) scale(0.996264)"/>
    <use xlink:href="#CMR17-64" transform="translate(1308.144431 0) scale(0.996264)"/>
    <use xlink:href="#CMR17-72" transform="translate(1389.115767 0) scale(0.996264)"/>
    <use xlink:href="#CMR17-65" transform="translate(1424.396535 0) scale(0.996264)"/>
    <use xlink:href="#CMR17-73" transform="translate(1464.882195 0) scale(0.996264)"/>
    <use xlink:href="#CMR17-75" transform="translate(1500.683533 0) scale(0.996264)"/>
    <use xlink:href="#CMR17-6c" transform="translate(1551.578903 0) scale(0.996264)"/>
    <use xlink:href="#CMR17-74" transform="translate(1576.449961 0) scale(0.996264)"/>
   </g>
  </g>
 </g>
 <defs>
  <clipPath id="p4e86993185">
   <rect x="108" y="43.2" width="669.6" height="138.6"/>
  </clipPath>
  <clipPath id="pb9104803c7">
   <rect x="108" y="181.8" width="669.6" height="138.6"/>
  </clipPath>
 </defs>
</svg>
