<?xml version="1.0" encoding="utf-8" standalone="no"?>
<!DOCTYPE svg PUBLIC "-//W3C//DTD SVG 1.1//EN"
  "http://www.w3.org/Graphics/SVG/1.1/DTD/svg11.dtd">
<svg xmlns:xlink="http://www.w3.org/1999/xlink" width="864pt" height="360pt" viewBox="0 0 864 360" xmlns="http://www.w3.org/2000/svg" version="1.1">
 <metadata>
  <rdf:RDF xmlns:dc="http://purl.org/dc/elements/1.1/" xmlns:cc="http://creativecommons.org/ns#" xmlns:rdf="http://www.w3.org/1999/02/22-rdf-syntax-ns#">
   <cc:Work>
    <dc:type rdf:resource="http://purl.org/dc/dcmitype/StillImage"/>
    <dc:date>2023-07-26T16:48:52.962514</dc:date>
    <dc:format>image/svg+xml</dc:format>
    <dc:creator>
     <cc:Agent>
      <dc:title>Matplotlib v3.7.1, https://matplotlib.org/</dc:title>
     </cc:Agent>
    </dc:creator>
   </cc:Work>
  </rdf:RDF>
 </metadata>
 <defs>
  <style type="text/css">*{stroke-linejoin: round; stroke-linecap: butt}</style>
 </defs>
 <g id="figure_1">
  <g id="patch_1">
   <path d="M 0 360 
L 864 360 
L 864 0 
L 0 0 
z
" style="fill: #ffffff"/>
  </g>
  <g id="axes_1">
   <g id="patch_2">
    <path d="M 70.609653 310.496228 
L 849.96 310.496228 
L 849.96 30.83284 
L 70.609653 30.83284 
z
" style="fill: #ffffff"/>
   </g>
   <g id="matplotlib.axis_1">
    <g id="xtick_1">
     <g id="line2d_1">
      <defs>
       <path id="m020e8a6f34" d="M 0 0 
L 0 3.5 
" style="stroke: #000000; stroke-width: 0.8"/>
      </defs>
      <g>
       <use xlink:href="#m020e8a6f34" x="106.034669" y="310.496228" style="stroke: #000000; stroke-width: 0.8"/>
      </g>
     </g>
     <g id="text_1">
      <!-- $\mathdefault{0.00}$ -->
      <g transform="translate(94.762243 326.490256) scale(0.13 -0.13)">
       <defs>
        <path id="CMR17-30" d="M 2688 2025 
C 2688 2416 2682 3080 2413 3591 
C 2176 4039 1798 4198 1466 4198 
C 1158 4198 768 4058 525 3597 
C 269 3118 243 2524 243 2025 
C 243 1661 250 1106 448 619 
C 723 -39 1216 -128 1466 -128 
C 1760 -128 2208 -7 2470 600 
C 2662 1042 2688 1559 2688 2025 
z
M 1466 -26 
C 1056 -26 813 325 723 812 
C 653 1188 653 1738 653 2096 
C 653 2588 653 2997 736 3387 
C 858 3929 1216 4096 1466 4096 
C 1728 4096 2067 3923 2189 3400 
C 2272 3036 2278 2607 2278 2096 
C 2278 1680 2278 1169 2202 792 
C 2067 95 1690 -26 1466 -26 
z
" transform="scale(0.015625)"/>
        <path id="CMMI12-3a" d="M 1178 307 
C 1178 492 1024 619 870 619 
C 685 619 557 466 557 313 
C 557 128 710 0 864 0 
C 1050 0 1178 153 1178 307 
z
" transform="scale(0.015625)"/>
       </defs>
       <use xlink:href="#CMR17-30" transform="scale(0.996264)"/>
       <use xlink:href="#CMMI12-3a" transform="translate(45.690477 0) scale(0.996264)"/>
       <use xlink:href="#CMR17-30" transform="translate(72.787654 0) scale(0.996264)"/>
       <use xlink:href="#CMR17-30" transform="translate(118.478131 0) scale(0.996264)"/>
      </g>
     </g>
    </g>
    <g id="xtick_2">
     <g id="line2d_2">
      <g>
       <use xlink:href="#m020e8a6f34" x="195.042246" y="310.496228" style="stroke: #000000; stroke-width: 0.8"/>
      </g>
     </g>
     <g id="text_2">
      <!-- $\mathdefault{0.25}$ -->
      <g transform="translate(183.769821 326.490256) scale(0.13 -0.13)">
       <defs>
        <path id="CMR17-32" d="M 2669 989 
L 2554 989 
C 2490 536 2438 459 2413 420 
C 2381 369 1920 369 1830 369 
L 602 369 
C 832 619 1280 1072 1824 1597 
C 2214 1967 2669 2402 2669 3035 
C 2669 3790 2067 4224 1395 4224 
C 691 4224 262 3604 262 3030 
C 262 2780 448 2748 525 2748 
C 589 2748 781 2787 781 3010 
C 781 3207 614 3264 525 3264 
C 486 3264 448 3258 422 3245 
C 544 3790 915 4058 1306 4058 
C 1862 4058 2227 3617 2227 3035 
C 2227 2479 1901 2000 1536 1584 
L 262 146 
L 262 0 
L 2515 0 
L 2669 989 
z
" transform="scale(0.015625)"/>
        <path id="CMR17-35" d="M 730 3692 
C 794 3666 1056 3584 1325 3584 
C 1920 3584 2246 3911 2432 4100 
C 2432 4157 2432 4192 2394 4192 
C 2387 4192 2374 4192 2323 4163 
C 2099 4058 1837 3973 1517 3973 
C 1325 3973 1037 3999 723 4139 
C 653 4171 640 4171 634 4171 
C 602 4171 595 4164 595 4037 
L 595 2203 
C 595 2089 595 2057 659 2057 
C 691 2057 704 2070 736 2114 
C 941 2401 1222 2522 1542 2522 
C 1766 2522 2246 2382 2246 1289 
C 2246 1085 2246 715 2054 421 
C 1894 159 1645 25 1370 25 
C 947 25 518 320 403 814 
C 429 807 480 795 506 795 
C 589 795 749 840 749 1038 
C 749 1210 627 1280 506 1280 
C 358 1280 262 1190 262 1011 
C 262 454 704 -128 1382 -128 
C 2042 -128 2669 440 2669 1264 
C 2669 2030 2170 2624 1549 2624 
C 1222 2624 947 2503 730 2274 
L 730 3692 
z
" transform="scale(0.015625)"/>
       </defs>
       <use xlink:href="#CMR17-30" transform="scale(0.996264)"/>
       <use xlink:href="#CMMI12-3a" transform="translate(45.690477 0) scale(0.996264)"/>
       <use xlink:href="#CMR17-32" transform="translate(72.787654 0) scale(0.996264)"/>
       <use xlink:href="#CMR17-35" transform="translate(118.478131 0) scale(0.996264)"/>
      </g>
     </g>
    </g>
    <g id="xtick_3">
     <g id="line2d_3">
      <g>
       <use xlink:href="#m020e8a6f34" x="284.049824" y="310.496228" style="stroke: #000000; stroke-width: 0.8"/>
      </g>
     </g>
     <g id="text_3">
      <!-- $\mathdefault{0.50}$ -->
      <g transform="translate(272.777398 326.490256) scale(0.13 -0.13)">
       <use xlink:href="#CMR17-30" transform="scale(0.996264)"/>
       <use xlink:href="#CMMI12-3a" transform="translate(45.690477 0) scale(0.996264)"/>
       <use xlink:href="#CMR17-35" transform="translate(72.787654 0) scale(0.996264)"/>
       <use xlink:href="#CMR17-30" transform="translate(118.478131 0) scale(0.996264)"/>
      </g>
     </g>
    </g>
    <g id="xtick_4">
     <g id="line2d_4">
      <g>
       <use xlink:href="#m020e8a6f34" x="373.057401" y="310.496228" style="stroke: #000000; stroke-width: 0.8"/>
      </g>
     </g>
     <g id="text_4">
      <!-- $\mathdefault{0.75}$ -->
      <g transform="translate(361.784975 326.490256) scale(0.13 -0.13)">
       <defs>
        <path id="CMR17-37" d="M 2886 3941 
L 2886 4081 
L 1382 4081 
C 634 4081 621 4165 595 4288 
L 480 4288 
L 294 3094 
L 410 3094 
C 429 3215 474 3540 550 3661 
C 589 3712 1062 3712 1171 3712 
L 2579 3712 
L 1869 2661 
C 1395 1954 1069 999 1069 165 
C 1069 89 1069 -128 1299 -128 
C 1530 -128 1530 89 1530 171 
L 1530 465 
C 1530 1508 1709 2196 2003 2636 
L 2886 3941 
z
" transform="scale(0.015625)"/>
       </defs>
       <use xlink:href="#CMR17-30" transform="scale(0.996264)"/>
       <use xlink:href="#CMMI12-3a" transform="translate(45.690477 0) scale(0.996264)"/>
       <use xlink:href="#CMR17-37" transform="translate(72.787654 0) scale(0.996264)"/>
       <use xlink:href="#CMR17-35" transform="translate(118.478131 0) scale(0.996264)"/>
      </g>
     </g>
    </g>
    <g id="xtick_5">
     <g id="line2d_5">
      <g>
       <use xlink:href="#m020e8a6f34" x="462.064978" y="310.496228" style="stroke: #000000; stroke-width: 0.8"/>
      </g>
     </g>
     <g id="text_5">
      <!-- $\mathdefault{1.00}$ -->
      <g transform="translate(450.792553 326.490256) scale(0.13 -0.13)">
       <defs>
        <path id="CMR17-31" d="M 1702 4058 
C 1702 4192 1696 4192 1606 4192 
C 1357 3916 979 3827 621 3827 
C 602 3827 570 3827 563 3808 
C 557 3795 557 3782 557 3648 
C 755 3648 1088 3686 1344 3839 
L 1344 461 
C 1344 236 1331 160 781 160 
L 589 160 
L 589 0 
C 896 0 1216 0 1523 0 
C 1830 0 2150 0 2458 0 
L 2458 160 
L 2266 160 
C 1715 160 1702 230 1702 458 
L 1702 4058 
z
" transform="scale(0.015625)"/>
       </defs>
       <use xlink:href="#CMR17-31" transform="scale(0.996264)"/>
       <use xlink:href="#CMMI12-3a" transform="translate(45.690477 0) scale(0.996264)"/>
       <use xlink:href="#CMR17-30" transform="translate(72.787654 0) scale(0.996264)"/>
       <use xlink:href="#CMR17-30" transform="translate(118.478131 0) scale(0.996264)"/>
      </g>
     </g>
    </g>
    <g id="xtick_6">
     <g id="line2d_6">
      <g>
       <use xlink:href="#m020e8a6f34" x="551.072555" y="310.496228" style="stroke: #000000; stroke-width: 0.8"/>
      </g>
     </g>
     <g id="text_6">
      <!-- $\mathdefault{1.25}$ -->
      <g transform="translate(539.80013 326.490256) scale(0.13 -0.13)">
       <use xlink:href="#CMR17-31" transform="scale(0.996264)"/>
       <use xlink:href="#CMMI12-3a" transform="translate(45.690477 0) scale(0.996264)"/>
       <use xlink:href="#CMR17-32" transform="translate(72.787654 0) scale(0.996264)"/>
       <use xlink:href="#CMR17-35" transform="translate(118.478131 0) scale(0.996264)"/>
      </g>
     </g>
    </g>
    <g id="xtick_7">
     <g id="line2d_7">
      <g>
       <use xlink:href="#m020e8a6f34" x="640.080133" y="310.496228" style="stroke: #000000; stroke-width: 0.8"/>
      </g>
     </g>
     <g id="text_7">
      <!-- $\mathdefault{1.50}$ -->
      <g transform="translate(628.807707 326.490256) scale(0.13 -0.13)">
       <use xlink:href="#CMR17-31" transform="scale(0.996264)"/>
       <use xlink:href="#CMMI12-3a" transform="translate(45.690477 0) scale(0.996264)"/>
       <use xlink:href="#CMR17-35" transform="translate(72.787654 0) scale(0.996264)"/>
       <use xlink:href="#CMR17-30" transform="translate(118.478131 0) scale(0.996264)"/>
      </g>
     </g>
    </g>
    <g id="xtick_8">
     <g id="line2d_8">
      <g>
       <use xlink:href="#m020e8a6f34" x="729.08771" y="310.496228" style="stroke: #000000; stroke-width: 0.8"/>
      </g>
     </g>
     <g id="text_8">
      <!-- $\mathdefault{1.75}$ -->
      <g transform="translate(717.815284 326.490256) scale(0.13 -0.13)">
       <use xlink:href="#CMR17-31" transform="scale(0.996264)"/>
       <use xlink:href="#CMMI12-3a" transform="translate(45.690477 0) scale(0.996264)"/>
       <use xlink:href="#CMR17-37" transform="translate(72.787654 0) scale(0.996264)"/>
       <use xlink:href="#CMR17-35" transform="translate(118.478131 0) scale(0.996264)"/>
      </g>
     </g>
    </g>
    <g id="xtick_9">
     <g id="line2d_9">
      <g>
       <use xlink:href="#m020e8a6f34" x="818.095287" y="310.496228" style="stroke: #000000; stroke-width: 0.8"/>
      </g>
     </g>
     <g id="text_9">
      <!-- $\mathdefault{2.00}$ -->
      <g transform="translate(806.822862 326.490256) scale(0.13 -0.13)">
       <use xlink:href="#CMR17-32" transform="scale(0.996264)"/>
       <use xlink:href="#CMMI12-3a" transform="translate(45.690477 0) scale(0.996264)"/>
       <use xlink:href="#CMR17-30" transform="translate(72.787654 0) scale(0.996264)"/>
       <use xlink:href="#CMR17-30" transform="translate(118.478131 0) scale(0.996264)"/>
      </g>
     </g>
    </g>
    <g id="text_10">
     <!-- $t$ (s) -->
     <g transform="translate(448.448787 342.722142) scale(0.13 -0.13)">
      <defs>
       <path id="CMMI12-74" d="M 1286 2566 
L 1875 2566 
C 1997 2566 2061 2566 2061 2681 
C 2061 2752 2022 2752 1894 2752 
L 1331 2752 
L 1568 3692 
C 1594 3781 1594 3794 1594 3840 
C 1594 3943 1510 4000 1427 4000 
C 1376 4000 1229 3981 1178 3775 
L 928 2752 
L 326 2752 
C 198 2752 141 2752 141 2630 
C 141 2566 186 2566 307 2566 
L 877 2566 
L 454 881 
C 403 658 384 594 384 511 
C 384 211 595 -64 954 -64 
C 1600 -64 1946 868 1946 912 
C 1946 951 1920 970 1882 970 
C 1869 970 1843 970 1830 944 
C 1824 938 1818 931 1773 829 
C 1638 511 1344 64 973 64 
C 781 64 768 224 768 364 
C 768 370 768 492 787 568 
L 1286 2566 
z
" transform="scale(0.015625)"/>
       <path id="CMR17-28" d="M 1958 -1561 
C 1958 -1555 1958 -1542 1939 -1523 
C 1645 -1224 858 -407 858 1581 
C 858 3569 1632 4379 1946 4697 
C 1946 4704 1958 4717 1958 4736 
C 1958 4755 1939 4768 1914 4768 
C 1843 4768 1299 4296 986 3594 
C 666 2887 576 2199 576 1588 
C 576 1128 621 351 1005 -471 
C 1312 -1135 1837 -1600 1914 -1600 
C 1946 -1600 1958 -1587 1958 -1561 
z
" transform="scale(0.015625)"/>
       <path id="CMR17-73" d="M 1978 2697 
C 1978 2813 1971 2819 1933 2819 
C 1907 2819 1901 2813 1824 2717 
C 1805 2691 1747 2626 1728 2601 
C 1523 2819 1235 2819 1126 2819 
C 416 2819 160 2447 160 2076 
C 160 1498 813 1365 998 1325 
C 1402 1243 1542 1217 1677 1101 
C 1760 1025 1901 884 1901 654 
C 1901 384 1747 38 1158 38 
C 602 38 403 460 288 1021 
C 269 1110 269 1117 218 1117 
C 166 1117 160 1110 160 983 
L 160 63 
C 160 -51 166 -58 205 -58 
C 237 -58 243 -51 275 0 
C 314 57 410 211 448 276 
C 576 103 800 -64 1158 -64 
C 1792 -64 2131 283 2131 784 
C 2131 1112 1958 1285 1875 1362 
C 1683 1561 1459 1606 1190 1657 
C 838 1735 390 1825 390 2217 
C 390 2383 480 2737 1126 2737 
C 1811 2737 1850 2094 1862 1888 
C 1869 1856 1901 1849 1920 1849 
C 1978 1849 1978 1869 1978 1978 
L 1978 2697 
z
" transform="scale(0.015625)"/>
       <path id="CMR17-29" d="M 1683 1581 
C 1683 2040 1638 2817 1254 3639 
C 947 4303 422 4768 346 4768 
C 326 4768 301 4761 301 4729 
C 301 4717 307 4710 314 4697 
C 621 4378 1402 3568 1402 1584 
C 1402 -407 627 -1217 314 -1537 
C 307 -1549 301 -1556 301 -1568 
C 301 -1600 326 -1600 346 -1600 
C 416 -1600 960 -1128 1274 -426 
C 1594 281 1683 969 1683 1581 
z
" transform="scale(0.015625)"/>
      </defs>
      <use xlink:href="#CMMI12-74" transform="scale(0.996264)"/>
      <use xlink:href="#CMR17-28" transform="translate(65.302297 0) scale(0.996264)"/>
      <use xlink:href="#CMR17-73" transform="translate(100.583064 0) scale(0.996264)"/>
      <use xlink:href="#CMR17-29" transform="translate(136.384402 0) scale(0.996264)"/>
     </g>
    </g>
   </g>
   <g id="matplotlib.axis_2">
    <g id="ytick_1">
     <g id="line2d_10">
      <defs>
       <path id="maf74b8c8be" d="M 0 0 
L -3.5 0 
" style="stroke: #000000; stroke-width: 0.8"/>
      </defs>
      <g>
       <use xlink:href="#maf74b8c8be" x="70.609653" y="271.070243" style="stroke: #000000; stroke-width: 0.8"/>
      </g>
     </g>
     <g id="text_11">
      <!-- $\mathdefault{−0.02}$ -->
      <g transform="translate(30.991432 275.567257) scale(0.13 -0.13)">
       <defs>
        <path id="CMSY10-0" d="M 4218 1472 
C 4326 1472 4442 1472 4442 1600 
C 4442 1728 4326 1728 4218 1728 
L 755 1728 
C 646 1728 531 1728 531 1600 
C 531 1472 646 1472 755 1472 
L 4218 1472 
z
" transform="scale(0.015625)"/>
       </defs>
       <use xlink:href="#CMSY10-0" transform="scale(0.996264)"/>
       <use xlink:href="#CMR17-30" transform="translate(77.487468 0) scale(0.996264)"/>
       <use xlink:href="#CMMI12-3a" transform="translate(123.177945 0) scale(0.996264)"/>
       <use xlink:href="#CMR17-30" transform="translate(150.275122 0) scale(0.996264)"/>
       <use xlink:href="#CMR17-32" transform="translate(195.965599 0) scale(0.996264)"/>
      </g>
     </g>
    </g>
    <g id="ytick_2">
     <g id="line2d_11">
      <g>
       <use xlink:href="#maf74b8c8be" x="70.609653" y="221.71111" style="stroke: #000000; stroke-width: 0.8"/>
      </g>
     </g>
     <g id="text_12">
      <!-- $\mathdefault{−0.01}$ -->
      <g transform="translate(30.991432 226.208124) scale(0.13 -0.13)">
       <use xlink:href="#CMSY10-0" transform="scale(0.996264)"/>
       <use xlink:href="#CMR17-30" transform="translate(77.487468 0) scale(0.996264)"/>
       <use xlink:href="#CMMI12-3a" transform="translate(123.177945 0) scale(0.996264)"/>
       <use xlink:href="#CMR17-30" transform="translate(150.275122 0) scale(0.996264)"/>
       <use xlink:href="#CMR17-31" transform="translate(195.965599 0) scale(0.996264)"/>
      </g>
     </g>
    </g>
    <g id="ytick_3">
     <g id="line2d_12">
      <g>
       <use xlink:href="#maf74b8c8be" x="70.609653" y="172.351977" style="stroke: #000000; stroke-width: 0.8"/>
      </g>
     </g>
     <g id="text_13">
      <!-- $\mathdefault{0.00}$ -->
      <g transform="translate(41.064802 176.848991) scale(0.13 -0.13)">
       <use xlink:href="#CMR17-30" transform="scale(0.996264)"/>
       <use xlink:href="#CMMI12-3a" transform="translate(45.690477 0) scale(0.996264)"/>
       <use xlink:href="#CMR17-30" transform="translate(72.787654 0) scale(0.996264)"/>
       <use xlink:href="#CMR17-30" transform="translate(118.478131 0) scale(0.996264)"/>
      </g>
     </g>
    </g>
    <g id="ytick_4">
     <g id="line2d_13">
      <g>
       <use xlink:href="#maf74b8c8be" x="70.609653" y="122.992844" style="stroke: #000000; stroke-width: 0.8"/>
      </g>
     </g>
     <g id="text_14">
      <!-- $\mathdefault{0.01}$ -->
      <g transform="translate(41.064802 127.489858) scale(0.13 -0.13)">
       <use xlink:href="#CMR17-30" transform="scale(0.996264)"/>
       <use xlink:href="#CMMI12-3a" transform="translate(45.690477 0) scale(0.996264)"/>
       <use xlink:href="#CMR17-30" transform="translate(72.787654 0) scale(0.996264)"/>
       <use xlink:href="#CMR17-31" transform="translate(118.478131 0) scale(0.996264)"/>
      </g>
     </g>
    </g>
    <g id="ytick_5">
     <g id="line2d_14">
      <g>
       <use xlink:href="#maf74b8c8be" x="70.609653" y="73.633711" style="stroke: #000000; stroke-width: 0.8"/>
      </g>
     </g>
     <g id="text_15">
      <!-- $\mathdefault{0.02}$ -->
      <g transform="translate(41.064802 78.130725) scale(0.13 -0.13)">
       <use xlink:href="#CMR17-30" transform="scale(0.996264)"/>
       <use xlink:href="#CMMI12-3a" transform="translate(45.690477 0) scale(0.996264)"/>
       <use xlink:href="#CMR17-30" transform="translate(72.787654 0) scale(0.996264)"/>
       <use xlink:href="#CMR17-32" transform="translate(118.478131 0) scale(0.996264)"/>
      </g>
     </g>
    </g>
    <g id="text_16">
     <!-- displacement (m) -->
     <g transform="translate(23.753574 218.783693) rotate(-90) scale(0.13 -0.13)">
      <defs>
       <path id="CMR17-64" d="M 1869 4326 
L 1869 4160 
C 2246 4160 2304 4122 2304 3820 
L 2304 2345 
C 2278 2377 2016 2790 1498 2790 
C 845 2790 211 2208 211 1364 
C 211 525 806 -64 1434 -64 
C 1978 -64 2259 337 2291 380 
L 2291 -63 
L 3066 -63 
L 3066 128 
C 2688 128 2630 166 2630 473 
L 2630 4396 
L 1869 4326 
z
M 2291 755 
C 2291 563 2176 390 2029 262 
C 1811 70 1594 38 1472 38 
C 1286 38 621 134 621 1356 
C 621 2612 1363 2688 1530 2688 
C 1824 2688 2061 2522 2208 2291 
C 2291 2157 2291 2138 2291 2023 
L 2291 755 
z
" transform="scale(0.015625)"/>
       <path id="CMR17-69" d="M 992 3909 
C 992 4049 877 4170 730 4170 
C 589 4170 467 4056 467 3909 
C 467 3769 582 3648 730 3648 
C 870 3648 992 3763 992 3909 
z
M 243 2706 
L 243 2541 
C 602 2541 653 2502 653 2197 
L 653 427 
C 653 184 627 153 218 153 
L 218 -13 
C 371 0 646 0 806 0 
C 960 0 1222 0 1370 -13 
L 1370 153 
C 992 153 979 191 979 420 
L 979 2776 
L 243 2706 
z
" transform="scale(0.015625)"/>
       <path id="CMR17-70" d="M 1408 -1063 
C 998 -1063 973 -1037 973 -789 
L 973 402 
C 1158 134 1427 -38 1766 -38 
C 2406 -38 3053 523 3053 1388 
C 3053 2191 2496 2802 1837 2802 
C 1453 2802 1139 2592 960 2338 
L 960 2802 
L 198 2732 
L 198 2567 
C 576 2567 634 2528 634 2223 
L 634 -789 
C 634 -1031 608 -1063 198 -1063 
L 198 -1228 
C 352 -1216 634 -1216 800 -1216 
C 966 -1216 1254 -1216 1408 -1228 
L 1408 -1063 
z
M 973 2012 
C 973 2102 973 2235 1222 2471 
C 1254 2497 1472 2688 1792 2688 
C 2259 2688 2643 2108 2643 1382 
C 2643 656 2234 64 1728 64 
C 1498 64 1248 172 1056 472 
C 973 612 973 650 973 752 
L 973 2012 
z
" transform="scale(0.015625)"/>
       <path id="CMR17-6c" d="M 979 4396 
L 218 4326 
L 218 4160 
C 595 4160 653 4122 653 3817 
L 653 426 
C 653 184 627 153 218 153 
L 218 -13 
C 371 0 653 0 813 0 
C 979 0 1261 0 1414 -13 
L 1414 153 
C 1005 153 979 178 979 426 
L 979 4396 
z
" transform="scale(0.015625)"/>
       <path id="CMR17-61" d="M 2304 1653 
C 2304 2072 2304 2294 2035 2543 
C 1798 2752 1523 2816 1306 2816 
C 800 2816 435 2407 435 1971 
C 435 1728 627 1728 666 1728 
C 749 1728 896 1778 896 1954 
C 896 2112 774 2181 666 2181 
C 640 2181 608 2174 589 2168 
C 723 2592 1069 2714 1293 2714 
C 1613 2714 1965 2429 1965 1885 
L 1965 1600 
C 1587 1600 1133 1549 774 1357 
C 371 1133 256 813 256 570 
C 256 77 832 -64 1171 -64 
C 1523 -64 1850 139 1990 511 
C 2003 233 2182 -18 2464 -18 
C 2598 -18 2938 70 2938 567 
L 2938 920 
L 2822 920 
L 2822 562 
C 2822 178 2650 128 2566 128 
C 2304 128 2304 458 2304 738 
L 2304 1653 
z
M 1965 870 
C 1965 317 1568 38 1216 38 
C 896 38 646 275 646 570 
C 646 761 730 1100 1101 1305 
C 1408 1478 1760 1504 1965 1504 
L 1965 870 
z
" transform="scale(0.015625)"/>
       <path id="CMR17-63" d="M 2234 2240 
C 2112 2240 1933 2240 1933 2017 
C 1933 1838 2080 1787 2163 1787 
C 2208 1787 2394 1807 2394 2024 
C 2394 2467 1958 2803 1466 2803 
C 787 2803 211 2178 211 1363 
C 211 516 813 -64 1466 -64 
C 2259 -64 2458 677 2458 748 
C 2458 774 2451 793 2406 793 
C 2362 793 2355 787 2330 703 
C 2163 180 1798 51 1523 51 
C 1114 51 621 427 621 1369 
C 621 2338 1094 2688 1472 2688 
C 1722 2688 2093 2573 2234 2240 
z
" transform="scale(0.015625)"/>
       <path id="CMR17-65" d="M 2438 1472 
C 2464 1498 2464 1511 2464 1576 
C 2464 2238 2118 2816 1389 2816 
C 710 2816 173 2169 173 1383 
C 173 551 781 -64 1459 -64 
C 2176 -64 2458 607 2458 740 
C 2458 784 2419 784 2406 784 
C 2362 784 2355 771 2330 696 
C 2189 265 1837 51 1504 51 
C 1229 51 954 203 781 480 
C 582 803 582 1176 582 1472 
L 2438 1472 
z
M 589 1568 
C 634 2505 1126 2714 1382 2714 
C 1818 2714 2112 2297 2118 1568 
L 589 1568 
z
" transform="scale(0.015625)"/>
       <path id="CMR17-6d" d="M 4326 1933 
C 4326 2252 4269 2790 3507 2790 
C 3072 2790 2771 2496 2656 2151 
L 2650 2151 
C 2573 2676 2195 2790 1837 2790 
C 1331 2790 1069 2400 973 2144 
L 966 2144 
L 966 2790 
L 211 2720 
L 211 2554 
C 589 2554 646 2515 646 2208 
L 646 428 
C 646 184 621 153 211 153 
L 211 -13 
C 365 0 646 0 813 0 
C 979 0 1267 0 1421 -13 
L 1421 153 
C 1011 153 986 178 986 428 
L 986 1658 
C 986 2247 1344 2688 1792 2688 
C 2266 2688 2317 2266 2317 1958 
L 2317 428 
C 2317 184 2291 153 1882 153 
L 1882 -13 
C 2035 0 2317 0 2483 0 
C 2650 0 2938 0 3091 -13 
L 3091 153 
C 2682 153 2656 178 2656 428 
L 2656 1658 
C 2656 2247 3014 2688 3462 2688 
C 3936 2688 3987 2266 3987 1958 
L 3987 428 
C 3987 184 3962 153 3552 153 
L 3552 -13 
C 3706 0 3987 0 4154 0 
C 4320 0 4608 0 4762 -13 
L 4762 153 
C 4352 153 4326 178 4326 428 
L 4326 1933 
z
" transform="scale(0.015625)"/>
       <path id="CMR17-6e" d="M 2656 1933 
C 2656 2259 2592 2790 1837 2790 
C 1331 2790 1069 2400 973 2144 
L 966 2144 
L 966 2790 
L 211 2720 
L 211 2554 
C 589 2554 646 2515 646 2208 
L 646 428 
C 646 184 621 153 211 153 
L 211 -13 
C 365 0 646 0 813 0 
C 979 0 1267 0 1421 -13 
L 1421 153 
C 1011 153 986 178 986 428 
L 986 1658 
C 986 2247 1344 2688 1792 2688 
C 2266 2688 2317 2266 2317 1958 
L 2317 428 
C 2317 184 2291 153 1882 153 
L 1882 -13 
C 2035 0 2317 0 2483 0 
C 2650 0 2938 0 3091 -13 
L 3091 153 
C 2682 153 2656 178 2656 428 
L 2656 1933 
z
" transform="scale(0.015625)"/>
       <path id="CMR17-74" d="M 966 2560 
L 1862 2560 
L 1862 2725 
L 966 2725 
L 966 3904 
L 851 3904 
C 838 3245 614 2668 70 2668 
L 70 2560 
L 627 2560 
L 627 771 
C 627 650 627 -64 1370 -64 
C 1747 -64 1965 306 1965 777 
L 1965 1140 
L 1850 1140 
L 1850 783 
C 1850 344 1677 51 1408 51 
C 1222 51 966 178 966 758 
L 966 2560 
z
" transform="scale(0.015625)"/>
      </defs>
      <use xlink:href="#CMR17-64" transform="scale(0.996264)"/>
      <use xlink:href="#CMR17-69" transform="translate(50.89537 0) scale(0.996264)"/>
      <use xlink:href="#CMR17-73" transform="translate(75.766428 0) scale(0.996264)"/>
      <use xlink:href="#CMR17-70" transform="translate(111.567766 0) scale(0.996264)"/>
      <use xlink:href="#CMR17-6c" transform="translate(162.463136 0) scale(0.996264)"/>
      <use xlink:href="#CMR17-61" transform="translate(187.334194 0) scale(0.996264)"/>
      <use xlink:href="#CMR17-63" transform="translate(233.024671 0) scale(0.996264)"/>
      <use xlink:href="#CMR17-65" transform="translate(273.510332 0) scale(0.996264)"/>
      <use xlink:href="#CMR17-6d" transform="translate(313.995992 0) scale(0.996264)"/>
      <use xlink:href="#CMR17-65" transform="translate(390.915582 0) scale(0.996264)"/>
      <use xlink:href="#CMR17-6e" transform="translate(431.401243 0) scale(0.996264)"/>
      <use xlink:href="#CMR17-74" transform="translate(479.694158 0) scale(0.996264)"/>
      <use xlink:href="#CMR17-28" transform="translate(545.050893 0) scale(0.996264)"/>
      <use xlink:href="#CMR17-6d" transform="translate(580.33166 0) scale(0.996264)"/>
      <use xlink:href="#CMR17-29" transform="translate(657.25125 0) scale(0.996264)"/>
     </g>
    </g>
   </g>
   <g id="line2d_15">
    <path d="M 106.034669 111.92542 
L 109.594972 136.152898 
L 113.155275 155.005271 
L 116.715578 169.710862 
L 120.275881 181.497996 
L 123.836185 191.594999 
L 130.956791 211.075023 
L 134.517094 219.573391 
L 138.077397 224.61232 
L 141.6377 224.671772 
L 145.198003 220.603458 
L 148.758306 213.852029 
L 152.318609 205.415221 
L 155.878912 194.503106 
L 159.439215 179.878843 
L 162.999519 160.70221 
L 166.559822 137.719468 
L 173.680428 86.184225 
L 177.240731 67.579764 
L 180.801034 62.797199 
L 184.361337 69.301306 
L 187.92164 82.288786 
L 191.481943 97.827991 
L 195.042246 115.473879 
L 198.602549 135.65306 
L 205.723156 181.30654 
L 209.283459 202.118658 
L 212.843762 218.697393 
L 216.404065 231.221381 
L 219.964368 240.421346 
L 223.524671 246.674396 
L 227.084974 248.943184 
L 230.645277 245.836748 
L 234.20558 236.53452 
L 237.765883 222.497512 
L 241.326187 205.757132 
L 252.007096 153.112091 
L 255.567399 137.283025 
L 259.127702 125.168725 
L 262.688005 119.406854 
L 266.248308 121.610291 
L 269.808611 129.292783 
L 273.368914 139.519039 
L 276.929217 151.656739 
L 280.489521 165.64931 
L 287.610127 196.345978 
L 291.17043 209.325092 
L 294.730733 218.424425 
L 298.291036 223.626923 
L 301.851339 225.317451 
L 305.411642 223.746459 
L 308.971945 218.62673 
L 312.532248 209.536631 
L 316.092551 196.326076 
L 319.652855 179.931167 
L 323.213158 161.559554 
L 326.773461 142.525331 
L 330.333764 124.56838 
L 333.894067 109.535027 
L 337.45437 98.938324 
L 341.014673 92.958217 
L 344.574976 91.441379 
L 348.135279 94.515742 
L 351.695582 103.434277 
L 355.255885 119.731214 
L 358.816189 143.400182 
L 362.376492 168.272396 
L 365.936795 188.260128 
L 369.497098 203.762295 
L 373.057401 216.799475 
L 376.617704 228.668631 
L 380.178007 237.772273 
L 383.73831 241.789299 
L 387.298613 239.028237 
L 390.858916 230.31615 
L 394.419219 217.109732 
L 397.979523 200.861792 
L 405.100129 164.986488 
L 408.660432 148.216626 
L 412.220735 134.087183 
L 415.781038 123.976099 
L 419.341341 118.796032 
L 422.901644 117.598484 
L 426.461947 118.969673 
L 430.02225 121.914681 
L 433.582553 127.114044 
L 437.142857 135.667163 
L 440.70316 148.146464 
L 447.823766 178.214735 
L 451.384069 191.921541 
L 454.944372 203.288119 
L 458.504675 211.708433 
L 462.064978 216.613536 
L 465.625281 217.582828 
L 469.185584 214.2328 
L 472.745887 206.419815 
L 476.306191 194.959743 
L 479.866494 180.908334 
L 483.426797 165.147914 
L 486.9871 147.867139 
L 494.107706 109.889657 
L 497.668009 95.728573 
L 501.228312 91.57736 
L 504.788615 96.251326 
L 508.348918 107.024763 
L 511.909221 121.415851 
L 515.469525 137.91832 
L 522.590131 172.296575 
L 526.150434 188.179771 
L 529.710737 202.189171 
L 533.27104 213.599175 
L 536.831343 221.702617 
L 540.391646 225.79694 
L 543.951949 225.448525 
L 547.512252 221.299518 
L 551.072555 214.261005 
L 554.632859 205.199458 
L 558.193162 194.802903 
L 565.313768 172.363095 
L 568.874071 160.314708 
L 572.434374 146.921045 
L 575.994677 132.393089 
L 579.55498 120.379934 
L 583.115283 114.411157 
L 586.675586 114.100138 
L 590.23589 118.081209 
L 593.796193 125.163373 
L 597.356496 134.854325 
L 600.916799 146.836429 
L 604.477102 160.598032 
L 608.037405 174.851397 
L 611.597708 188.114767 
L 615.158011 199.141128 
L 618.718314 207.622429 
L 622.278617 213.485362 
L 625.83892 216.498237 
L 629.399224 215.795842 
L 632.959527 210.354582 
L 636.51983 199.690151 
L 640.080133 185.475383 
L 643.640436 169.922401 
L 647.200739 155.016792 
L 650.761042 141.838002 
L 654.321345 131.238943 
L 657.881648 124.088383 
L 661.441951 121.318512 
L 665.002254 123.877381 
L 668.562558 131.820417 
L 672.122861 141.632566 
L 675.683164 149.904258 
L 679.243467 157.218329 
L 682.80377 165.155719 
L 686.364073 174.877573 
L 697.044982 207.811952 
L 700.605285 216.423378 
L 704.165588 221.608465 
L 707.725892 222.261356 
L 711.286195 218.487 
L 714.846498 210.693045 
L 718.406801 199.34411 
L 721.967104 185.1327 
L 725.527407 168.808295 
L 732.648013 133.909717 
L 736.208316 118.335056 
L 739.768619 106.12126 
L 743.328922 98.938784 
L 746.889226 98.478582 
L 750.449529 105.642995 
L 754.009832 118.179927 
L 757.570135 133.347663 
L 764.690741 165.691618 
L 768.251044 180.522082 
L 771.811347 193.583719 
L 775.37165 204.516102 
L 778.931953 212.954554 
L 782.492256 218.5174 
L 786.05256 220.818718 
L 789.612863 219.518929 
L 793.173166 214.463838 
L 796.733469 205.545592 
L 800.293772 192.976637 
L 807.414378 163.181354 
L 810.974681 149.466062 
L 814.534984 138.334702 
L 814.534984 138.334702 
" clip-path="url(#p2a6a1fbf4d)" style="fill: none; stroke: #ff0000; stroke-linecap: square"/>
   </g>
   <g id="line2d_16">
    <path d="M 106.034669 267.755148 
L 109.594972 297.784255 
L 113.155275 294.251875 
L 116.715578 266.662196 
L 120.275881 224.519407 
L 123.836185 177.327698 
L 127.396488 134.591259 
L 130.956791 103.726754 
L 134.517094 83.800763 
L 138.077397 71.792339 
L 141.6377 65.840124 
L 145.198003 68.721107 
L 148.758306 84.371866 
L 152.318609 114.268513 
L 155.878912 150.045303 
L 159.439215 180.876023 
L 162.999519 199.139177 
L 166.559822 210.032121 
L 170.120125 221.956924 
L 173.680428 240.084788 
L 177.240731 256.663446 
L 180.801034 263.11003 
L 184.361337 260.442753 
L 187.92164 252.080098 
L 191.481943 240.499364 
L 195.042246 224.413122 
L 198.602549 201.592756 
L 202.162853 171.0015 
L 209.283459 102.620643 
L 212.843762 74.218727 
L 216.404065 53.800456 
L 219.964368 43.544812 
L 223.524671 45.065541 
L 227.084974 57.71545 
L 230.645277 80.28211 
L 234.20558 111.053273 
L 241.326187 181.863205 
L 244.88649 214.093465 
L 248.446793 241.867711 
L 252.007096 264.659625 
L 255.567399 281.508067 
L 259.127702 289.712584 
L 262.688005 286.1379 
L 266.248308 269.712969 
L 269.808611 247.623673 
L 273.368914 227.382242 
L 276.929217 209.549367 
L 284.049824 176.440437 
L 287.610127 159.049518 
L 291.17043 139.837429 
L 298.291036 97.884549 
L 301.851339 81.085958 
L 305.411642 71.138072 
L 308.971945 69.518399 
L 312.532248 77.334664 
L 316.092551 95.09771 
L 319.652855 120.930857 
L 323.213158 152.360546 
L 326.773461 186.439984 
L 330.333764 218.329444 
L 333.894067 242.715965 
L 337.45437 255.811678 
L 341.014673 259.929081 
L 344.574976 258.905761 
L 348.135279 255.101998 
L 351.695582 244.968835 
L 355.255885 223.480006 
L 362.376492 155.068247 
L 365.936795 133.756946 
L 369.497098 122.542081 
L 373.057401 114.847605 
L 376.617704 105.990387 
L 380.178007 98.858949 
L 383.73831 98.234731 
L 387.298613 107.495078 
L 390.858916 124.400957 
L 394.419219 145.309242 
L 401.539826 189.757452 
L 408.660432 237.069429 
L 412.220735 258.700153 
L 415.781038 274.644273 
L 419.341341 282.194264 
L 422.901644 281.431668 
L 426.461947 273.135294 
L 430.02225 258.475628 
L 437.142857 221.406922 
L 444.263463 187.295555 
L 447.823766 167.817006 
L 451.384069 144.370342 
L 454.944372 119.630744 
L 458.504675 97.318062 
L 462.064978 80.640407 
L 465.625281 70.758944 
L 469.185584 68.323097 
L 472.745887 73.885092 
L 476.306191 87.608359 
L 479.866494 109.559127 
L 483.426797 139.241144 
L 486.9871 173.908238 
L 490.547403 210.251758 
L 494.107706 244.169208 
L 497.668009 268.382714 
L 501.228312 277.195691 
L 504.788615 274.41207 
L 508.348918 266.210912 
L 511.909221 257.338043 
L 515.469525 246.806334 
L 519.029828 232.195418 
L 522.590131 211.931555 
L 526.150434 187.827499 
L 529.710737 162.54263 
L 533.27104 138.535449 
L 536.831343 117.460937 
L 540.391646 100.773201 
L 543.951949 89.975687 
L 547.512252 86.769215 
L 551.072555 92.903945 
L 554.632859 109.153156 
L 558.193162 132.382583 
L 565.313768 184.041931 
L 568.874071 208.476171 
L 572.434374 231.899264 
L 575.994677 253.193646 
L 579.55498 266.309631 
L 583.115283 266.188794 
L 586.675586 256.669891 
L 590.23589 243.815969 
L 593.796193 232.158128 
L 597.356496 220.099682 
L 600.916799 204.511996 
L 604.477102 183.344984 
L 611.597708 134.407925 
L 615.158011 112.808317 
L 618.718314 94.832298 
L 622.278617 80.733393 
L 625.83892 71.211139 
L 629.399224 68.749128 
L 632.959527 76.276969 
L 636.51983 95.457677 
L 640.080133 122.887909 
L 647.200739 184.382272 
L 650.761042 212.496914 
L 654.321345 236.9621 
L 657.881648 256.513211 
L 661.441951 269.94537 
L 665.002254 276.068636 
L 668.562558 274.465043 
L 672.122861 267.804507 
L 675.683164 258.744794 
L 679.243467 246.807162 
L 682.80377 230.728747 
L 686.364073 209.898798 
L 693.484679 162.627246 
L 697.044982 141.258243 
L 700.605285 123.722599 
L 704.165588 111.30785 
L 707.725892 105.237429 
L 711.286195 106.478346 
L 714.846498 115.933506 
L 718.406801 133.681398 
L 721.967104 156.502838 
L 725.527407 180.354226 
L 729.08771 201.897747 
L 732.648013 220.618721 
L 736.208316 236.708253 
L 739.768619 249.921507 
L 743.328922 258.269883 
L 746.889226 259.328839 
L 750.449529 251.232933 
L 754.009832 234.353118 
L 757.570135 210.230263 
L 761.130438 182.848523 
L 764.690741 156.802868 
L 768.251044 135.62061 
L 771.811347 118.558409 
L 775.37165 103.805262 
L 778.931953 90.569814 
L 782.492256 82.139294 
L 786.05256 82.820579 
L 789.612863 95.324062 
L 793.173166 115.9742 
L 796.733469 139.498967 
L 803.854075 183.82436 
L 807.414378 207.473544 
L 810.974681 233.55449 
L 814.534984 257.750527 
L 814.534984 257.750527 
" clip-path="url(#p2a6a1fbf4d)" style="fill: none; stroke: #00008b; stroke-linecap: square"/>
   </g>
   <g id="patch_3">
    <path d="M 70.609653 310.496228 
L 70.609653 30.83284 
" style="fill: none; stroke: #000000; stroke-width: 0.8; stroke-linejoin: miter; stroke-linecap: square"/>
   </g>
   <g id="patch_4">
    <path d="M 849.96 310.496228 
L 849.96 30.83284 
" style="fill: none; stroke: #000000; stroke-width: 0.8; stroke-linejoin: miter; stroke-linecap: square"/>
   </g>
   <g id="patch_5">
    <path d="M 70.609653 310.496228 
L 849.96 310.496228 
" style="fill: none; stroke: #000000; stroke-width: 0.8; stroke-linejoin: miter; stroke-linecap: square"/>
   </g>
   <g id="patch_6">
    <path d="M 70.609653 30.83284 
L 849.96 30.83284 
" style="fill: none; stroke: #000000; stroke-width: 0.8; stroke-linejoin: miter; stroke-linecap: square"/>
   </g>
   <g id="text_17">
    <!-- Shifted data -->
    <g transform="translate(419.492736 24.83284) scale(0.156 -0.156)">
     <defs>
      <path id="CMR17-53" d="M 2803 4290 
C 2803 4404 2797 4411 2758 4411 
C 2720 4411 2707 4385 2682 4328 
L 2490 3907 
C 2246 4257 1875 4416 1472 4416 
C 819 4416 294 3901 294 3253 
C 294 3056 339 2776 557 2510 
C 794 2218 1018 2167 1530 2033 
C 1722 1982 2042 1899 2106 1874 
C 2470 1722 2662 1341 2662 985 
C 2662 527 2336 38 1779 38 
C 1094 38 454 419 410 1311 
C 403 1413 397 1419 352 1419 
C 301 1419 294 1413 294 1285 
L 294 -1 
C 294 -115 301 -122 339 -122 
C 384 -122 397 -90 486 108 
C 493 127 493 140 614 381 
C 934 -39 1472 -128 1779 -128 
C 2477 -128 2970 451 2970 1124 
C 2970 1454 2848 1708 2778 1823 
C 2509 2230 2221 2306 1914 2382 
C 1869 2402 1856 2402 1498 2490 
C 1152 2579 1005 2624 845 2796 
C 666 2992 602 3196 602 3399 
C 602 3812 934 4263 1478 4263 
C 2157 4263 2579 3786 2675 2993 
C 2694 2878 2701 2872 2746 2872 
C 2803 2872 2803 2891 2803 2999 
L 2803 4290 
z
" transform="scale(0.015625)"/>
      <path id="CMR17-68" d="M 2656 1933 
C 2656 2259 2592 2790 1837 2790 
C 1312 2790 1056 2368 979 2157 
L 973 2157 
L 973 4396 
L 211 4326 
L 211 4160 
C 589 4160 646 4122 646 3817 
L 646 426 
C 646 184 621 153 211 153 
L 211 -13 
C 365 0 646 0 813 0 
C 979 0 1267 0 1421 -13 
L 1421 153 
C 1011 153 986 178 986 428 
L 986 1658 
C 986 2247 1344 2688 1792 2688 
C 2266 2688 2317 2266 2317 1958 
L 2317 428 
C 2317 184 2291 153 1882 153 
L 1882 -13 
C 2035 0 2317 0 2483 0 
C 2650 0 2938 0 3091 -13 
L 3091 153 
C 2682 153 2656 178 2656 428 
L 2656 1933 
z
" transform="scale(0.015625)"/>
      <path id="CMR17-66" d="M 979 2560 
L 1709 2560 
L 1709 2725 
L 966 2725 
L 966 3494 
C 966 4022 1235 4352 1510 4352 
C 1594 4352 1690 4327 1754 4282 
C 1702 4269 1568 4225 1568 4067 
C 1568 3901 1696 3850 1786 3850 
C 1875 3850 2003 3901 2003 4067 
C 2003 4308 1773 4454 1517 4454 
C 1152 4454 653 4156 653 3481 
L 653 2725 
L 141 2725 
L 141 2560 
L 653 2560 
L 653 427 
C 653 184 627 153 218 153 
L 218 -13 
C 371 0 666 0 832 0 
C 1018 0 1344 0 1517 -13 
L 1517 153 
C 1056 153 979 153 979 439 
L 979 2560 
z
" transform="scale(0.015625)"/>
     </defs>
     <use xlink:href="#CMR17-53" transform="scale(0.996264)"/>
     <use xlink:href="#CMR17-68" transform="translate(50.89537 0) scale(0.996264)"/>
     <use xlink:href="#CMR17-69" transform="translate(101.79074 0) scale(0.996264)"/>
     <use xlink:href="#CMR17-66" transform="translate(126.661798 0) scale(0.996264)"/>
     <use xlink:href="#CMR17-74" transform="translate(154.13531 0) scale(0.996264)"/>
     <use xlink:href="#CMR17-65" transform="translate(189.416078 0) scale(0.996264)"/>
     <use xlink:href="#CMR17-64" transform="translate(229.901739 0) scale(0.996264)"/>
     <use xlink:href="#CMR17-64" transform="translate(310.873075 0) scale(0.996264)"/>
     <use xlink:href="#CMR17-61" transform="translate(361.768445 0) scale(0.996264)"/>
     <use xlink:href="#CMR17-74" transform="translate(407.458922 0) scale(0.996264)"/>
     <use xlink:href="#CMR17-61" transform="translate(442.73969 0) scale(0.996264)"/>
    </g>
   </g>
   <g id="legend_1">
    <g id="patch_7">
     <path d="M 787.39472 77.469464 
L 840.86 77.469464 
Q 843.46 77.469464 843.46 74.869464 
L 843.46 39.93284 
Q 843.46 37.33284 840.86 37.33284 
L 787.39472 37.33284 
Q 784.79472 37.33284 784.79472 39.93284 
L 784.79472 74.869464 
Q 784.79472 77.469464 787.39472 77.469464 
z
" style="fill: #ffffff; opacity: 0.8; stroke: #cccccc; stroke-linejoin: miter"/>
    </g>
    <g id="line2d_17">
     <path d="M 789.99472 47.08284 
L 802.99472 47.08284 
L 815.99472 47.08284 
" style="fill: none; stroke: #ff0000; stroke-linecap: square"/>
    </g>
    <g id="text_18">
     <!-- $x_1$ -->
     <g transform="translate(826.39472 51.63284) scale(0.13 -0.13)">
      <defs>
       <path id="CMMI12-78" d="M 3034 2606 
C 2829 2567 2752 2414 2752 2293 
C 2752 2139 2874 2088 2963 2088 
C 3155 2088 3290 2254 3290 2427 
C 3290 2695 2982 2816 2714 2816 
C 2323 2816 2106 2433 2048 2312 
C 1901 2816 1504 2816 1389 2816 
C 736 2816 390 1980 390 1839 
C 390 1814 416 1782 461 1782 
C 512 1782 525 1820 538 1846 
C 755 2555 1184 2689 1370 2689 
C 1658 2689 1715 2420 1715 2267 
C 1715 2127 1677 1980 1600 1673 
L 1382 798 
C 1286 415 1101 64 762 64 
C 730 64 570 64 435 147 
C 666 192 717 383 717 460 
C 717 588 621 664 499 664 
C 346 664 179 530 179 326 
C 179 57 480 -64 755 -64 
C 1062 -64 1280 179 1414 441 
C 1517 64 1837 -64 2074 -64 
C 2726 -64 3072 773 3072 913 
C 3072 945 3046 971 3008 971 
C 2950 971 2944 939 2925 888 
C 2752 326 2381 64 2093 64 
C 1869 64 1747 230 1747 492 
C 1747 632 1773 734 1875 1156 
L 2099 2024 
C 2195 2408 2413 2689 2707 2689 
C 2720 2689 2899 2689 3034 2606 
z
" transform="scale(0.015625)"/>
      </defs>
      <use xlink:href="#CMMI12-78" transform="scale(0.996264)"/>
      <use xlink:href="#CMR17-31" transform="translate(55.43406 -14.943915) scale(0.697382)"/>
     </g>
    </g>
    <g id="line2d_18">
     <path d="M 789.99472 65.201152 
L 802.99472 65.201152 
L 815.99472 65.201152 
" style="fill: none; stroke: #00008b; stroke-linecap: square"/>
    </g>
    <g id="text_19">
     <!-- $x_2$ -->
     <g transform="translate(826.39472 69.751152) scale(0.13 -0.13)">
      <use xlink:href="#CMMI12-78" transform="scale(0.996264)"/>
      <use xlink:href="#CMR17-32" transform="translate(55.43406 -14.943915) scale(0.697382)"/>
     </g>
    </g>
   </g>
  </g>
 </g>
 <defs>
  <clipPath id="p2a6a1fbf4d">
   <rect x="70.609653" y="30.83284" width="779.350347" height="279.663388"/>
  </clipPath>
 </defs>
</svg>
