<?xml version="1.0" encoding="utf-8" standalone="no"?>
<!DOCTYPE svg PUBLIC "-//W3C//DTD SVG 1.1//EN"
  "http://www.w3.org/Graphics/SVG/1.1/DTD/svg11.dtd">
<svg xmlns:xlink="http://www.w3.org/1999/xlink" width="864pt" height="360pt" viewBox="0 0 864 360" xmlns="http://www.w3.org/2000/svg" version="1.1">
 <metadata>
  <rdf:RDF xmlns:dc="http://purl.org/dc/elements/1.1/" xmlns:cc="http://creativecommons.org/ns#" xmlns:rdf="http://www.w3.org/1999/02/22-rdf-syntax-ns#">
   <cc:Work>
    <dc:type rdf:resource="http://purl.org/dc/dcmitype/StillImage"/>
    <dc:date>2023-07-26T16:48:38.577602</dc:date>
    <dc:format>image/svg+xml</dc:format>
    <dc:creator>
     <cc:Agent>
      <dc:title>Matplotlib v3.7.1, https://matplotlib.org/</dc:title>
     </cc:Agent>
    </dc:creator>
   </cc:Work>
  </rdf:RDF>
 </metadata>
 <defs>
  <style type="text/css">*{stroke-linejoin: round; stroke-linecap: butt}</style>
 </defs>
 <g id="figure_1">
  <g id="patch_1">
   <path d="M 0 360 
L 864 360 
L 864 0 
L 0 0 
z
" style="fill: #ffffff"/>
  </g>
  <g id="axes_1">
   <g id="patch_2">
    <path d="M 108 320.4 
L 777.6 320.4 
L 777.6 43.2 
L 108 43.2 
z
" style="fill: #ffffff"/>
   </g>
   <g id="matplotlib.axis_1">
    <g id="xtick_1">
     <g id="line2d_1">
      <path d="M 138.436364 320.4 
L 138.436364 43.2 
" clip-path="url(#p9885f7561c)" style="fill: none; stroke: #b0b0b0; stroke-width: 0.8; stroke-linecap: square"/>
     </g>
     <g id="line2d_2">
      <defs>
       <path id="m528fc290c4" d="M 0 0 
L 0 3.5 
" style="stroke: #000000; stroke-width: 0.8"/>
      </defs>
      <g>
       <use xlink:href="#m528fc290c4" x="138.436364" y="320.4" style="stroke: #000000; stroke-width: 0.8"/>
      </g>
     </g>
     <g id="text_1">
      <!-- $\mathdefault{1.50}$ -->
      <g transform="translate(127.163938 336.394028) scale(0.13 -0.13)">
       <defs>
        <path id="CMR17-31" d="M 1702 4058 
C 1702 4192 1696 4192 1606 4192 
C 1357 3916 979 3827 621 3827 
C 602 3827 570 3827 563 3808 
C 557 3795 557 3782 557 3648 
C 755 3648 1088 3686 1344 3839 
L 1344 461 
C 1344 236 1331 160 781 160 
L 589 160 
L 589 0 
C 896 0 1216 0 1523 0 
C 1830 0 2150 0 2458 0 
L 2458 160 
L 2266 160 
C 1715 160 1702 230 1702 458 
L 1702 4058 
z
" transform="scale(0.015625)"/>
        <path id="CMMI12-3a" d="M 1178 307 
C 1178 492 1024 619 870 619 
C 685 619 557 466 557 313 
C 557 128 710 0 864 0 
C 1050 0 1178 153 1178 307 
z
" transform="scale(0.015625)"/>
        <path id="CMR17-35" d="M 730 3692 
C 794 3666 1056 3584 1325 3584 
C 1920 3584 2246 3911 2432 4100 
C 2432 4157 2432 4192 2394 4192 
C 2387 4192 2374 4192 2323 4163 
C 2099 4058 1837 3973 1517 3973 
C 1325 3973 1037 3999 723 4139 
C 653 4171 640 4171 634 4171 
C 602 4171 595 4164 595 4037 
L 595 2203 
C 595 2089 595 2057 659 2057 
C 691 2057 704 2070 736 2114 
C 941 2401 1222 2522 1542 2522 
C 1766 2522 2246 2382 2246 1289 
C 2246 1085 2246 715 2054 421 
C 1894 159 1645 25 1370 25 
C 947 25 518 320 403 814 
C 429 807 480 795 506 795 
C 589 795 749 840 749 1038 
C 749 1210 627 1280 506 1280 
C 358 1280 262 1190 262 1011 
C 262 454 704 -128 1382 -128 
C 2042 -128 2669 440 2669 1264 
C 2669 2030 2170 2624 1549 2624 
C 1222 2624 947 2503 730 2274 
L 730 3692 
z
" transform="scale(0.015625)"/>
        <path id="CMR17-30" d="M 2688 2025 
C 2688 2416 2682 3080 2413 3591 
C 2176 4039 1798 4198 1466 4198 
C 1158 4198 768 4058 525 3597 
C 269 3118 243 2524 243 2025 
C 243 1661 250 1106 448 619 
C 723 -39 1216 -128 1466 -128 
C 1760 -128 2208 -7 2470 600 
C 2662 1042 2688 1559 2688 2025 
z
M 1466 -26 
C 1056 -26 813 325 723 812 
C 653 1188 653 1738 653 2096 
C 653 2588 653 2997 736 3387 
C 858 3929 1216 4096 1466 4096 
C 1728 4096 2067 3923 2189 3400 
C 2272 3036 2278 2607 2278 2096 
C 2278 1680 2278 1169 2202 792 
C 2067 95 1690 -26 1466 -26 
z
" transform="scale(0.015625)"/>
       </defs>
       <use xlink:href="#CMR17-31" transform="scale(0.996264)"/>
       <use xlink:href="#CMMI12-3a" transform="translate(45.690477 0) scale(0.996264)"/>
       <use xlink:href="#CMR17-35" transform="translate(72.787654 0) scale(0.996264)"/>
       <use xlink:href="#CMR17-30" transform="translate(118.478131 0) scale(0.996264)"/>
      </g>
     </g>
    </g>
    <g id="xtick_2">
     <g id="line2d_3">
      <path d="M 214.909639 320.4 
L 214.909639 43.2 
" clip-path="url(#p9885f7561c)" style="fill: none; stroke: #b0b0b0; stroke-width: 0.8; stroke-linecap: square"/>
     </g>
     <g id="line2d_4">
      <g>
       <use xlink:href="#m528fc290c4" x="214.909639" y="320.4" style="stroke: #000000; stroke-width: 0.8"/>
      </g>
     </g>
     <g id="text_2">
      <!-- $\mathdefault{1.75}$ -->
      <g transform="translate(203.637213 336.394028) scale(0.13 -0.13)">
       <defs>
        <path id="CMR17-37" d="M 2886 3941 
L 2886 4081 
L 1382 4081 
C 634 4081 621 4165 595 4288 
L 480 4288 
L 294 3094 
L 410 3094 
C 429 3215 474 3540 550 3661 
C 589 3712 1062 3712 1171 3712 
L 2579 3712 
L 1869 2661 
C 1395 1954 1069 999 1069 165 
C 1069 89 1069 -128 1299 -128 
C 1530 -128 1530 89 1530 171 
L 1530 465 
C 1530 1508 1709 2196 2003 2636 
L 2886 3941 
z
" transform="scale(0.015625)"/>
       </defs>
       <use xlink:href="#CMR17-31" transform="scale(0.996264)"/>
       <use xlink:href="#CMMI12-3a" transform="translate(45.690477 0) scale(0.996264)"/>
       <use xlink:href="#CMR17-37" transform="translate(72.787654 0) scale(0.996264)"/>
       <use xlink:href="#CMR17-35" transform="translate(118.478131 0) scale(0.996264)"/>
      </g>
     </g>
    </g>
    <g id="xtick_3">
     <g id="line2d_5">
      <path d="M 291.382915 320.4 
L 291.382915 43.2 
" clip-path="url(#p9885f7561c)" style="fill: none; stroke: #b0b0b0; stroke-width: 0.8; stroke-linecap: square"/>
     </g>
     <g id="line2d_6">
      <g>
       <use xlink:href="#m528fc290c4" x="291.382915" y="320.4" style="stroke: #000000; stroke-width: 0.8"/>
      </g>
     </g>
     <g id="text_3">
      <!-- $\mathdefault{2.00}$ -->
      <g transform="translate(280.110489 336.394028) scale(0.13 -0.13)">
       <defs>
        <path id="CMR17-32" d="M 2669 989 
L 2554 989 
C 2490 536 2438 459 2413 420 
C 2381 369 1920 369 1830 369 
L 602 369 
C 832 619 1280 1072 1824 1597 
C 2214 1967 2669 2402 2669 3035 
C 2669 3790 2067 4224 1395 4224 
C 691 4224 262 3604 262 3030 
C 262 2780 448 2748 525 2748 
C 589 2748 781 2787 781 3010 
C 781 3207 614 3264 525 3264 
C 486 3264 448 3258 422 3245 
C 544 3790 915 4058 1306 4058 
C 1862 4058 2227 3617 2227 3035 
C 2227 2479 1901 2000 1536 1584 
L 262 146 
L 262 0 
L 2515 0 
L 2669 989 
z
" transform="scale(0.015625)"/>
       </defs>
       <use xlink:href="#CMR17-32" transform="scale(0.996264)"/>
       <use xlink:href="#CMMI12-3a" transform="translate(45.690477 0) scale(0.996264)"/>
       <use xlink:href="#CMR17-30" transform="translate(72.787654 0) scale(0.996264)"/>
       <use xlink:href="#CMR17-30" transform="translate(118.478131 0) scale(0.996264)"/>
      </g>
     </g>
    </g>
    <g id="xtick_4">
     <g id="line2d_7">
      <path d="M 367.85619 320.4 
L 367.85619 43.2 
" clip-path="url(#p9885f7561c)" style="fill: none; stroke: #b0b0b0; stroke-width: 0.8; stroke-linecap: square"/>
     </g>
     <g id="line2d_8">
      <g>
       <use xlink:href="#m528fc290c4" x="367.85619" y="320.4" style="stroke: #000000; stroke-width: 0.8"/>
      </g>
     </g>
     <g id="text_4">
      <!-- $\mathdefault{2.25}$ -->
      <g transform="translate(356.583764 336.394028) scale(0.13 -0.13)">
       <use xlink:href="#CMR17-32" transform="scale(0.996264)"/>
       <use xlink:href="#CMMI12-3a" transform="translate(45.690477 0) scale(0.996264)"/>
       <use xlink:href="#CMR17-32" transform="translate(72.787654 0) scale(0.996264)"/>
       <use xlink:href="#CMR17-35" transform="translate(118.478131 0) scale(0.996264)"/>
      </g>
     </g>
    </g>
    <g id="xtick_5">
     <g id="line2d_9">
      <path d="M 444.329466 320.4 
L 444.329466 43.2 
" clip-path="url(#p9885f7561c)" style="fill: none; stroke: #b0b0b0; stroke-width: 0.8; stroke-linecap: square"/>
     </g>
     <g id="line2d_10">
      <g>
       <use xlink:href="#m528fc290c4" x="444.329466" y="320.4" style="stroke: #000000; stroke-width: 0.8"/>
      </g>
     </g>
     <g id="text_5">
      <!-- $\mathdefault{2.50}$ -->
      <g transform="translate(433.05704 336.394028) scale(0.13 -0.13)">
       <use xlink:href="#CMR17-32" transform="scale(0.996264)"/>
       <use xlink:href="#CMMI12-3a" transform="translate(45.690477 0) scale(0.996264)"/>
       <use xlink:href="#CMR17-35" transform="translate(72.787654 0) scale(0.996264)"/>
       <use xlink:href="#CMR17-30" transform="translate(118.478131 0) scale(0.996264)"/>
      </g>
     </g>
    </g>
    <g id="xtick_6">
     <g id="line2d_11">
      <path d="M 520.802741 320.4 
L 520.802741 43.2 
" clip-path="url(#p9885f7561c)" style="fill: none; stroke: #b0b0b0; stroke-width: 0.8; stroke-linecap: square"/>
     </g>
     <g id="line2d_12">
      <g>
       <use xlink:href="#m528fc290c4" x="520.802741" y="320.4" style="stroke: #000000; stroke-width: 0.8"/>
      </g>
     </g>
     <g id="text_6">
      <!-- $\mathdefault{2.75}$ -->
      <g transform="translate(509.530315 336.394028) scale(0.13 -0.13)">
       <use xlink:href="#CMR17-32" transform="scale(0.996264)"/>
       <use xlink:href="#CMMI12-3a" transform="translate(45.690477 0) scale(0.996264)"/>
       <use xlink:href="#CMR17-37" transform="translate(72.787654 0) scale(0.996264)"/>
       <use xlink:href="#CMR17-35" transform="translate(118.478131 0) scale(0.996264)"/>
      </g>
     </g>
    </g>
    <g id="xtick_7">
     <g id="line2d_13">
      <path d="M 597.276016 320.4 
L 597.276016 43.2 
" clip-path="url(#p9885f7561c)" style="fill: none; stroke: #b0b0b0; stroke-width: 0.8; stroke-linecap: square"/>
     </g>
     <g id="line2d_14">
      <g>
       <use xlink:href="#m528fc290c4" x="597.276016" y="320.4" style="stroke: #000000; stroke-width: 0.8"/>
      </g>
     </g>
     <g id="text_7">
      <!-- $\mathdefault{3.00}$ -->
      <g transform="translate(586.003591 336.394028) scale(0.13 -0.13)">
       <defs>
        <path id="CMR17-33" d="M 1414 2157 
C 1984 2157 2234 1662 2234 1090 
C 2234 320 1824 25 1453 25 
C 1114 25 563 194 390 693 
C 422 680 454 680 486 680 
C 640 680 755 782 755 948 
C 755 1133 614 1216 486 1216 
C 378 1216 211 1165 211 926 
C 211 335 787 -128 1466 -128 
C 2176 -128 2720 430 2720 1085 
C 2720 1707 2208 2157 1600 2227 
C 2086 2328 2554 2756 2554 3329 
C 2554 3820 2048 4179 1472 4179 
C 890 4179 378 3829 378 3329 
C 378 3110 544 3072 627 3072 
C 762 3072 877 3155 877 3321 
C 877 3486 762 3569 627 3569 
C 602 3569 570 3569 544 3557 
C 730 3959 1235 4032 1459 4032 
C 1683 4032 2106 3925 2106 3320 
C 2106 3143 2080 2828 1862 2550 
C 1670 2304 1453 2304 1242 2284 
C 1210 2284 1062 2269 1037 2269 
C 992 2263 966 2257 966 2208 
C 966 2163 973 2157 1101 2157 
L 1414 2157 
z
" transform="scale(0.015625)"/>
       </defs>
       <use xlink:href="#CMR17-33" transform="scale(0.996264)"/>
       <use xlink:href="#CMMI12-3a" transform="translate(45.690477 0) scale(0.996264)"/>
       <use xlink:href="#CMR17-30" transform="translate(72.787654 0) scale(0.996264)"/>
       <use xlink:href="#CMR17-30" transform="translate(118.478131 0) scale(0.996264)"/>
      </g>
     </g>
    </g>
    <g id="xtick_8">
     <g id="line2d_15">
      <path d="M 673.749292 320.4 
L 673.749292 43.2 
" clip-path="url(#p9885f7561c)" style="fill: none; stroke: #b0b0b0; stroke-width: 0.8; stroke-linecap: square"/>
     </g>
     <g id="line2d_16">
      <g>
       <use xlink:href="#m528fc290c4" x="673.749292" y="320.4" style="stroke: #000000; stroke-width: 0.8"/>
      </g>
     </g>
     <g id="text_8">
      <!-- $\mathdefault{3.25}$ -->
      <g transform="translate(662.476866 336.394028) scale(0.13 -0.13)">
       <use xlink:href="#CMR17-33" transform="scale(0.996264)"/>
       <use xlink:href="#CMMI12-3a" transform="translate(45.690477 0) scale(0.996264)"/>
       <use xlink:href="#CMR17-32" transform="translate(72.787654 0) scale(0.996264)"/>
       <use xlink:href="#CMR17-35" transform="translate(118.478131 0) scale(0.996264)"/>
      </g>
     </g>
    </g>
    <g id="xtick_9">
     <g id="line2d_17">
      <path d="M 750.222567 320.4 
L 750.222567 43.2 
" clip-path="url(#p9885f7561c)" style="fill: none; stroke: #b0b0b0; stroke-width: 0.8; stroke-linecap: square"/>
     </g>
     <g id="line2d_18">
      <g>
       <use xlink:href="#m528fc290c4" x="750.222567" y="320.4" style="stroke: #000000; stroke-width: 0.8"/>
      </g>
     </g>
     <g id="text_9">
      <!-- $\mathdefault{3.50}$ -->
      <g transform="translate(738.950142 336.394028) scale(0.13 -0.13)">
       <use xlink:href="#CMR17-33" transform="scale(0.996264)"/>
       <use xlink:href="#CMMI12-3a" transform="translate(45.690477 0) scale(0.996264)"/>
       <use xlink:href="#CMR17-35" transform="translate(72.787654 0) scale(0.996264)"/>
       <use xlink:href="#CMR17-30" transform="translate(118.478131 0) scale(0.996264)"/>
      </g>
     </g>
    </g>
    <g id="text_10">
     <!-- $t$ (s) -->
     <g transform="translate(430.963961 352.625914) scale(0.13 -0.13)">
      <defs>
       <path id="CMMI12-74" d="M 1286 2566 
L 1875 2566 
C 1997 2566 2061 2566 2061 2681 
C 2061 2752 2022 2752 1894 2752 
L 1331 2752 
L 1568 3692 
C 1594 3781 1594 3794 1594 3840 
C 1594 3943 1510 4000 1427 4000 
C 1376 4000 1229 3981 1178 3775 
L 928 2752 
L 326 2752 
C 198 2752 141 2752 141 2630 
C 141 2566 186 2566 307 2566 
L 877 2566 
L 454 881 
C 403 658 384 594 384 511 
C 384 211 595 -64 954 -64 
C 1600 -64 1946 868 1946 912 
C 1946 951 1920 970 1882 970 
C 1869 970 1843 970 1830 944 
C 1824 938 1818 931 1773 829 
C 1638 511 1344 64 973 64 
C 781 64 768 224 768 364 
C 768 370 768 492 787 568 
L 1286 2566 
z
" transform="scale(0.015625)"/>
       <path id="CMR17-28" d="M 1958 -1561 
C 1958 -1555 1958 -1542 1939 -1523 
C 1645 -1224 858 -407 858 1581 
C 858 3569 1632 4379 1946 4697 
C 1946 4704 1958 4717 1958 4736 
C 1958 4755 1939 4768 1914 4768 
C 1843 4768 1299 4296 986 3594 
C 666 2887 576 2199 576 1588 
C 576 1128 621 351 1005 -471 
C 1312 -1135 1837 -1600 1914 -1600 
C 1946 -1600 1958 -1587 1958 -1561 
z
" transform="scale(0.015625)"/>
       <path id="CMR17-73" d="M 1978 2697 
C 1978 2813 1971 2819 1933 2819 
C 1907 2819 1901 2813 1824 2717 
C 1805 2691 1747 2626 1728 2601 
C 1523 2819 1235 2819 1126 2819 
C 416 2819 160 2447 160 2076 
C 160 1498 813 1365 998 1325 
C 1402 1243 1542 1217 1677 1101 
C 1760 1025 1901 884 1901 654 
C 1901 384 1747 38 1158 38 
C 602 38 403 460 288 1021 
C 269 1110 269 1117 218 1117 
C 166 1117 160 1110 160 983 
L 160 63 
C 160 -51 166 -58 205 -58 
C 237 -58 243 -51 275 0 
C 314 57 410 211 448 276 
C 576 103 800 -64 1158 -64 
C 1792 -64 2131 283 2131 784 
C 2131 1112 1958 1285 1875 1362 
C 1683 1561 1459 1606 1190 1657 
C 838 1735 390 1825 390 2217 
C 390 2383 480 2737 1126 2737 
C 1811 2737 1850 2094 1862 1888 
C 1869 1856 1901 1849 1920 1849 
C 1978 1849 1978 1869 1978 1978 
L 1978 2697 
z
" transform="scale(0.015625)"/>
       <path id="CMR17-29" d="M 1683 1581 
C 1683 2040 1638 2817 1254 3639 
C 947 4303 422 4768 346 4768 
C 326 4768 301 4761 301 4729 
C 301 4717 307 4710 314 4697 
C 621 4378 1402 3568 1402 1584 
C 1402 -407 627 -1217 314 -1537 
C 307 -1549 301 -1556 301 -1568 
C 301 -1600 326 -1600 346 -1600 
C 416 -1600 960 -1128 1274 -426 
C 1594 281 1683 969 1683 1581 
z
" transform="scale(0.015625)"/>
      </defs>
      <use xlink:href="#CMMI12-74" transform="scale(0.996264)"/>
      <use xlink:href="#CMR17-28" transform="translate(65.302297 0) scale(0.996264)"/>
      <use xlink:href="#CMR17-73" transform="translate(100.583064 0) scale(0.996264)"/>
      <use xlink:href="#CMR17-29" transform="translate(136.384402 0) scale(0.996264)"/>
     </g>
    </g>
   </g>
   <g id="matplotlib.axis_2">
    <g id="ytick_1">
     <g id="line2d_19">
      <path d="M 108 288.490126 
L 777.6 288.490126 
" clip-path="url(#p9885f7561c)" style="fill: none; stroke: #b0b0b0; stroke-width: 0.8; stroke-linecap: square"/>
     </g>
     <g id="line2d_20">
      <defs>
       <path id="m2d2fef663c" d="M 0 0 
L -3.5 0 
" style="stroke: #000000; stroke-width: 0.8"/>
      </defs>
      <g>
       <use xlink:href="#m2d2fef663c" x="108" y="288.490126" style="stroke: #000000; stroke-width: 0.8"/>
      </g>
     </g>
     <g id="text_11">
      <!-- $\mathdefault{−0.02}$ -->
      <g transform="translate(68.381779 292.98714) scale(0.13 -0.13)">
       <defs>
        <path id="CMSY10-0" d="M 4218 1472 
C 4326 1472 4442 1472 4442 1600 
C 4442 1728 4326 1728 4218 1728 
L 755 1728 
C 646 1728 531 1728 531 1600 
C 531 1472 646 1472 755 1472 
L 4218 1472 
z
" transform="scale(0.015625)"/>
       </defs>
       <use xlink:href="#CMSY10-0" transform="scale(0.996264)"/>
       <use xlink:href="#CMR17-30" transform="translate(77.487468 0) scale(0.996264)"/>
       <use xlink:href="#CMMI12-3a" transform="translate(123.177945 0) scale(0.996264)"/>
       <use xlink:href="#CMR17-30" transform="translate(150.275122 0) scale(0.996264)"/>
       <use xlink:href="#CMR17-32" transform="translate(195.965599 0) scale(0.996264)"/>
      </g>
     </g>
    </g>
    <g id="ytick_2">
     <g id="line2d_21">
      <path d="M 108 248.021398 
L 777.6 248.021398 
" clip-path="url(#p9885f7561c)" style="fill: none; stroke: #b0b0b0; stroke-width: 0.8; stroke-linecap: square"/>
     </g>
     <g id="line2d_22">
      <g>
       <use xlink:href="#m2d2fef663c" x="108" y="248.021398" style="stroke: #000000; stroke-width: 0.8"/>
      </g>
     </g>
     <g id="text_12">
      <!-- $\mathdefault{−0.01}$ -->
      <g transform="translate(68.381779 252.518413) scale(0.13 -0.13)">
       <use xlink:href="#CMSY10-0" transform="scale(0.996264)"/>
       <use xlink:href="#CMR17-30" transform="translate(77.487468 0) scale(0.996264)"/>
       <use xlink:href="#CMMI12-3a" transform="translate(123.177945 0) scale(0.996264)"/>
       <use xlink:href="#CMR17-30" transform="translate(150.275122 0) scale(0.996264)"/>
       <use xlink:href="#CMR17-31" transform="translate(195.965599 0) scale(0.996264)"/>
      </g>
     </g>
    </g>
    <g id="ytick_3">
     <g id="line2d_23">
      <path d="M 108 207.552671 
L 777.6 207.552671 
" clip-path="url(#p9885f7561c)" style="fill: none; stroke: #b0b0b0; stroke-width: 0.8; stroke-linecap: square"/>
     </g>
     <g id="line2d_24">
      <g>
       <use xlink:href="#m2d2fef663c" x="108" y="207.552671" style="stroke: #000000; stroke-width: 0.8"/>
      </g>
     </g>
     <g id="text_13">
      <!-- $\mathdefault{0.00}$ -->
      <g transform="translate(78.455149 212.049685) scale(0.13 -0.13)">
       <use xlink:href="#CMR17-30" transform="scale(0.996264)"/>
       <use xlink:href="#CMMI12-3a" transform="translate(45.690477 0) scale(0.996264)"/>
       <use xlink:href="#CMR17-30" transform="translate(72.787654 0) scale(0.996264)"/>
       <use xlink:href="#CMR17-30" transform="translate(118.478131 0) scale(0.996264)"/>
      </g>
     </g>
    </g>
    <g id="ytick_4">
     <g id="line2d_25">
      <path d="M 108 167.083943 
L 777.6 167.083943 
" clip-path="url(#p9885f7561c)" style="fill: none; stroke: #b0b0b0; stroke-width: 0.8; stroke-linecap: square"/>
     </g>
     <g id="line2d_26">
      <g>
       <use xlink:href="#m2d2fef663c" x="108" y="167.083943" style="stroke: #000000; stroke-width: 0.8"/>
      </g>
     </g>
     <g id="text_14">
      <!-- $\mathdefault{0.01}$ -->
      <g transform="translate(78.455149 171.580958) scale(0.13 -0.13)">
       <use xlink:href="#CMR17-30" transform="scale(0.996264)"/>
       <use xlink:href="#CMMI12-3a" transform="translate(45.690477 0) scale(0.996264)"/>
       <use xlink:href="#CMR17-30" transform="translate(72.787654 0) scale(0.996264)"/>
       <use xlink:href="#CMR17-31" transform="translate(118.478131 0) scale(0.996264)"/>
      </g>
     </g>
    </g>
    <g id="ytick_5">
     <g id="line2d_27">
      <path d="M 108 126.615216 
L 777.6 126.615216 
" clip-path="url(#p9885f7561c)" style="fill: none; stroke: #b0b0b0; stroke-width: 0.8; stroke-linecap: square"/>
     </g>
     <g id="line2d_28">
      <g>
       <use xlink:href="#m2d2fef663c" x="108" y="126.615216" style="stroke: #000000; stroke-width: 0.8"/>
      </g>
     </g>
     <g id="text_15">
      <!-- $\mathdefault{0.02}$ -->
      <g transform="translate(78.455149 131.11223) scale(0.13 -0.13)">
       <use xlink:href="#CMR17-30" transform="scale(0.996264)"/>
       <use xlink:href="#CMMI12-3a" transform="translate(45.690477 0) scale(0.996264)"/>
       <use xlink:href="#CMR17-30" transform="translate(72.787654 0) scale(0.996264)"/>
       <use xlink:href="#CMR17-32" transform="translate(118.478131 0) scale(0.996264)"/>
      </g>
     </g>
    </g>
    <g id="ytick_6">
     <g id="line2d_29">
      <path d="M 108 86.146488 
L 777.6 86.146488 
" clip-path="url(#p9885f7561c)" style="fill: none; stroke: #b0b0b0; stroke-width: 0.8; stroke-linecap: square"/>
     </g>
     <g id="line2d_30">
      <g>
       <use xlink:href="#m2d2fef663c" x="108" y="86.146488" style="stroke: #000000; stroke-width: 0.8"/>
      </g>
     </g>
     <g id="text_16">
      <!-- $\mathdefault{0.03}$ -->
      <g transform="translate(78.455149 90.643503) scale(0.13 -0.13)">
       <use xlink:href="#CMR17-30" transform="scale(0.996264)"/>
       <use xlink:href="#CMMI12-3a" transform="translate(45.690477 0) scale(0.996264)"/>
       <use xlink:href="#CMR17-30" transform="translate(72.787654 0) scale(0.996264)"/>
       <use xlink:href="#CMR17-33" transform="translate(118.478131 0) scale(0.996264)"/>
      </g>
     </g>
    </g>
    <g id="ytick_7">
     <g id="line2d_31">
      <path d="M 108 45.677761 
L 777.6 45.677761 
" clip-path="url(#p9885f7561c)" style="fill: none; stroke: #b0b0b0; stroke-width: 0.8; stroke-linecap: square"/>
     </g>
     <g id="line2d_32">
      <g>
       <use xlink:href="#m2d2fef663c" x="108" y="45.677761" style="stroke: #000000; stroke-width: 0.8"/>
      </g>
     </g>
     <g id="text_17">
      <!-- $\mathdefault{0.04}$ -->
      <g transform="translate(78.455149 50.174775) scale(0.13 -0.13)">
       <defs>
        <path id="CMR17-34" d="M 2150 4122 
C 2150 4256 2144 4256 2029 4256 
L 128 1254 
L 128 1088 
L 1779 1088 
L 1779 457 
C 1779 224 1766 160 1318 160 
L 1197 160 
L 1197 0 
C 1402 0 1747 0 1965 0 
C 2182 0 2528 0 2733 0 
L 2733 160 
L 2611 160 
C 2163 160 2150 224 2150 457 
L 2150 1088 
L 2803 1088 
L 2803 1254 
L 2150 1254 
L 2150 4122 
z
M 1798 3703 
L 1798 1254 
L 256 1254 
L 1798 3703 
z
" transform="scale(0.015625)"/>
       </defs>
       <use xlink:href="#CMR17-30" transform="scale(0.996264)"/>
       <use xlink:href="#CMMI12-3a" transform="translate(45.690477 0) scale(0.996264)"/>
       <use xlink:href="#CMR17-30" transform="translate(72.787654 0) scale(0.996264)"/>
       <use xlink:href="#CMR17-34" transform="translate(118.478131 0) scale(0.996264)"/>
      </g>
     </g>
    </g>
    <g id="text_18">
     <!-- displacement (m) -->
     <g transform="translate(61.143921 229.919159) rotate(-90) scale(0.13 -0.13)">
      <defs>
       <path id="CMR17-64" d="M 1869 4326 
L 1869 4160 
C 2246 4160 2304 4122 2304 3820 
L 2304 2345 
C 2278 2377 2016 2790 1498 2790 
C 845 2790 211 2208 211 1364 
C 211 525 806 -64 1434 -64 
C 1978 -64 2259 337 2291 380 
L 2291 -63 
L 3066 -63 
L 3066 128 
C 2688 128 2630 166 2630 473 
L 2630 4396 
L 1869 4326 
z
M 2291 755 
C 2291 563 2176 390 2029 262 
C 1811 70 1594 38 1472 38 
C 1286 38 621 134 621 1356 
C 621 2612 1363 2688 1530 2688 
C 1824 2688 2061 2522 2208 2291 
C 2291 2157 2291 2138 2291 2023 
L 2291 755 
z
" transform="scale(0.015625)"/>
       <path id="CMR17-69" d="M 992 3909 
C 992 4049 877 4170 730 4170 
C 589 4170 467 4056 467 3909 
C 467 3769 582 3648 730 3648 
C 870 3648 992 3763 992 3909 
z
M 243 2706 
L 243 2541 
C 602 2541 653 2502 653 2197 
L 653 427 
C 653 184 627 153 218 153 
L 218 -13 
C 371 0 646 0 806 0 
C 960 0 1222 0 1370 -13 
L 1370 153 
C 992 153 979 191 979 420 
L 979 2776 
L 243 2706 
z
" transform="scale(0.015625)"/>
       <path id="CMR17-70" d="M 1408 -1063 
C 998 -1063 973 -1037 973 -789 
L 973 402 
C 1158 134 1427 -38 1766 -38 
C 2406 -38 3053 523 3053 1388 
C 3053 2191 2496 2802 1837 2802 
C 1453 2802 1139 2592 960 2338 
L 960 2802 
L 198 2732 
L 198 2567 
C 576 2567 634 2528 634 2223 
L 634 -789 
C 634 -1031 608 -1063 198 -1063 
L 198 -1228 
C 352 -1216 634 -1216 800 -1216 
C 966 -1216 1254 -1216 1408 -1228 
L 1408 -1063 
z
M 973 2012 
C 973 2102 973 2235 1222 2471 
C 1254 2497 1472 2688 1792 2688 
C 2259 2688 2643 2108 2643 1382 
C 2643 656 2234 64 1728 64 
C 1498 64 1248 172 1056 472 
C 973 612 973 650 973 752 
L 973 2012 
z
" transform="scale(0.015625)"/>
       <path id="CMR17-6c" d="M 979 4396 
L 218 4326 
L 218 4160 
C 595 4160 653 4122 653 3817 
L 653 426 
C 653 184 627 153 218 153 
L 218 -13 
C 371 0 653 0 813 0 
C 979 0 1261 0 1414 -13 
L 1414 153 
C 1005 153 979 178 979 426 
L 979 4396 
z
" transform="scale(0.015625)"/>
       <path id="CMR17-61" d="M 2304 1653 
C 2304 2072 2304 2294 2035 2543 
C 1798 2752 1523 2816 1306 2816 
C 800 2816 435 2407 435 1971 
C 435 1728 627 1728 666 1728 
C 749 1728 896 1778 896 1954 
C 896 2112 774 2181 666 2181 
C 640 2181 608 2174 589 2168 
C 723 2592 1069 2714 1293 2714 
C 1613 2714 1965 2429 1965 1885 
L 1965 1600 
C 1587 1600 1133 1549 774 1357 
C 371 1133 256 813 256 570 
C 256 77 832 -64 1171 -64 
C 1523 -64 1850 139 1990 511 
C 2003 233 2182 -18 2464 -18 
C 2598 -18 2938 70 2938 567 
L 2938 920 
L 2822 920 
L 2822 562 
C 2822 178 2650 128 2566 128 
C 2304 128 2304 458 2304 738 
L 2304 1653 
z
M 1965 870 
C 1965 317 1568 38 1216 38 
C 896 38 646 275 646 570 
C 646 761 730 1100 1101 1305 
C 1408 1478 1760 1504 1965 1504 
L 1965 870 
z
" transform="scale(0.015625)"/>
       <path id="CMR17-63" d="M 2234 2240 
C 2112 2240 1933 2240 1933 2017 
C 1933 1838 2080 1787 2163 1787 
C 2208 1787 2394 1807 2394 2024 
C 2394 2467 1958 2803 1466 2803 
C 787 2803 211 2178 211 1363 
C 211 516 813 -64 1466 -64 
C 2259 -64 2458 677 2458 748 
C 2458 774 2451 793 2406 793 
C 2362 793 2355 787 2330 703 
C 2163 180 1798 51 1523 51 
C 1114 51 621 427 621 1369 
C 621 2338 1094 2688 1472 2688 
C 1722 2688 2093 2573 2234 2240 
z
" transform="scale(0.015625)"/>
       <path id="CMR17-65" d="M 2438 1472 
C 2464 1498 2464 1511 2464 1576 
C 2464 2238 2118 2816 1389 2816 
C 710 2816 173 2169 173 1383 
C 173 551 781 -64 1459 -64 
C 2176 -64 2458 607 2458 740 
C 2458 784 2419 784 2406 784 
C 2362 784 2355 771 2330 696 
C 2189 265 1837 51 1504 51 
C 1229 51 954 203 781 480 
C 582 803 582 1176 582 1472 
L 2438 1472 
z
M 589 1568 
C 634 2505 1126 2714 1382 2714 
C 1818 2714 2112 2297 2118 1568 
L 589 1568 
z
" transform="scale(0.015625)"/>
       <path id="CMR17-6d" d="M 4326 1933 
C 4326 2252 4269 2790 3507 2790 
C 3072 2790 2771 2496 2656 2151 
L 2650 2151 
C 2573 2676 2195 2790 1837 2790 
C 1331 2790 1069 2400 973 2144 
L 966 2144 
L 966 2790 
L 211 2720 
L 211 2554 
C 589 2554 646 2515 646 2208 
L 646 428 
C 646 184 621 153 211 153 
L 211 -13 
C 365 0 646 0 813 0 
C 979 0 1267 0 1421 -13 
L 1421 153 
C 1011 153 986 178 986 428 
L 986 1658 
C 986 2247 1344 2688 1792 2688 
C 2266 2688 2317 2266 2317 1958 
L 2317 428 
C 2317 184 2291 153 1882 153 
L 1882 -13 
C 2035 0 2317 0 2483 0 
C 2650 0 2938 0 3091 -13 
L 3091 153 
C 2682 153 2656 178 2656 428 
L 2656 1658 
C 2656 2247 3014 2688 3462 2688 
C 3936 2688 3987 2266 3987 1958 
L 3987 428 
C 3987 184 3962 153 3552 153 
L 3552 -13 
C 3706 0 3987 0 4154 0 
C 4320 0 4608 0 4762 -13 
L 4762 153 
C 4352 153 4326 178 4326 428 
L 4326 1933 
z
" transform="scale(0.015625)"/>
       <path id="CMR17-6e" d="M 2656 1933 
C 2656 2259 2592 2790 1837 2790 
C 1331 2790 1069 2400 973 2144 
L 966 2144 
L 966 2790 
L 211 2720 
L 211 2554 
C 589 2554 646 2515 646 2208 
L 646 428 
C 646 184 621 153 211 153 
L 211 -13 
C 365 0 646 0 813 0 
C 979 0 1267 0 1421 -13 
L 1421 153 
C 1011 153 986 178 986 428 
L 986 1658 
C 986 2247 1344 2688 1792 2688 
C 2266 2688 2317 2266 2317 1958 
L 2317 428 
C 2317 184 2291 153 1882 153 
L 1882 -13 
C 2035 0 2317 0 2483 0 
C 2650 0 2938 0 3091 -13 
L 3091 153 
C 2682 153 2656 178 2656 428 
L 2656 1933 
z
" transform="scale(0.015625)"/>
       <path id="CMR17-74" d="M 966 2560 
L 1862 2560 
L 1862 2725 
L 966 2725 
L 966 3904 
L 851 3904 
C 838 3245 614 2668 70 2668 
L 70 2560 
L 627 2560 
L 627 771 
C 627 650 627 -64 1370 -64 
C 1747 -64 1965 306 1965 777 
L 1965 1140 
L 1850 1140 
L 1850 783 
C 1850 344 1677 51 1408 51 
C 1222 51 966 178 966 758 
L 966 2560 
z
" transform="scale(0.015625)"/>
      </defs>
      <use xlink:href="#CMR17-64" transform="scale(0.996264)"/>
      <use xlink:href="#CMR17-69" transform="translate(50.89537 0) scale(0.996264)"/>
      <use xlink:href="#CMR17-73" transform="translate(75.766428 0) scale(0.996264)"/>
      <use xlink:href="#CMR17-70" transform="translate(111.567766 0) scale(0.996264)"/>
      <use xlink:href="#CMR17-6c" transform="translate(162.463136 0) scale(0.996264)"/>
      <use xlink:href="#CMR17-61" transform="translate(187.334194 0) scale(0.996264)"/>
      <use xlink:href="#CMR17-63" transform="translate(233.024671 0) scale(0.996264)"/>
      <use xlink:href="#CMR17-65" transform="translate(273.510332 0) scale(0.996264)"/>
      <use xlink:href="#CMR17-6d" transform="translate(313.995992 0) scale(0.996264)"/>
      <use xlink:href="#CMR17-65" transform="translate(390.915582 0) scale(0.996264)"/>
      <use xlink:href="#CMR17-6e" transform="translate(431.401243 0) scale(0.996264)"/>
      <use xlink:href="#CMR17-74" transform="translate(479.694158 0) scale(0.996264)"/>
      <use xlink:href="#CMR17-28" transform="translate(545.050893 0) scale(0.996264)"/>
      <use xlink:href="#CMR17-6d" transform="translate(580.33166 0) scale(0.996264)"/>
      <use xlink:href="#CMR17-29" transform="translate(657.25125 0) scale(0.996264)"/>
     </g>
    </g>
   </g>
   <g id="line2d_33">
    <path d="M 138.436364 218.887159 
L 141.495295 217.475564 
L 144.554226 215.793509 
L 147.613157 213.3631 
L 150.672088 211.760721 
L 153.731019 213.076323 
L 156.78995 218.587457 
L 159.848881 226.322065 
L 162.907812 233.495687 
L 165.966743 238.033466 
L 169.025674 240.69897 
L 172.084605 242.965369 
L 178.202467 248.921675 
L 181.261398 251.059114 
L 184.320329 251.698486 
L 187.37926 251.70927 
L 190.438191 252.330989 
L 193.497122 254.364921 
L 196.556053 256.859377 
L 199.614984 258.424423 
L 202.673915 258.063818 
L 205.732846 256.356096 
L 208.791777 254.273488 
L 211.850708 252.603666 
L 214.909639 251.396093 
L 217.96857 250.515677 
L 221.027501 249.964578 
L 224.086432 250.293961 
L 227.145363 252.192239 
L 230.204294 256.092578 
L 233.263225 261.407145 
L 242.440018 278.973323 
L 245.498949 285.237845 
L 248.55788 291.916172 
L 251.616811 297.776723 
L 254.675742 301.275024 
L 257.734673 301.428844 
L 260.793604 299.504915 
L 263.852535 297.332214 
L 266.911466 296.317471 
L 269.970397 296.178445 
L 273.029328 296.210652 
L 276.088259 295.981999 
L 279.14719 296.14996 
L 282.206122 297.644401 
L 285.265053 300.954831 
L 288.323984 304.809336 
L 291.382915 307.495645 
L 294.441846 307.8 
L 297.500777 306.502691 
L 300.559708 304.882522 
L 303.618639 303.91943 
L 309.736501 302.80351 
L 312.795432 301.621899 
L 315.854363 299.581557 
L 318.913294 297.382551 
L 321.972225 295.967839 
L 325.031156 295.978704 
L 331.149018 297.713776 
L 334.207949 297.942454 
L 337.26688 297.862046 
L 340.325811 298.037526 
L 343.384742 298.850176 
L 346.443673 299.946522 
L 349.502604 300.789399 
L 355.620466 301.242776 
L 358.679397 302.084398 
L 364.797259 305.701936 
L 367.85619 305.934709 
L 370.915121 303.699159 
L 373.974052 300.138701 
L 377.032983 296.915964 
L 380.091914 295.296584 
L 383.150845 294.958232 
L 389.268707 295.479734 
L 392.327638 296.295335 
L 395.386569 298.303463 
L 401.504431 305.405652 
L 404.563362 307.460958 
L 407.622293 306.744172 
L 410.681224 304.12108 
L 413.740155 300.974399 
L 419.858017 295.808834 
L 422.916948 292.660966 
L 425.975879 288.342886 
L 429.03481 283.089049 
L 435.152672 271.351589 
L 438.211603 264.880676 
L 441.270534 257.499423 
L 444.329466 248.9237 
L 447.388397 239.40061 
L 450.447328 229.310064 
L 453.506259 218.815704 
L 456.56519 207.216092 
L 459.624121 193.593521 
L 462.683052 178.008314 
L 465.741983 164.432913 
L 468.800914 156.940687 
L 471.859845 156.096606 
L 474.918776 161.588539 
L 477.977707 172.656045 
L 484.095569 200.854767 
L 487.1545 212.646721 
L 490.213431 222.442859 
L 493.272362 231.229438 
L 496.331293 239.585515 
L 499.390224 246.461361 
L 502.449155 250.400052 
L 505.508086 250.372585 
L 508.567017 247.061653 
L 511.625948 241.57787 
L 514.684879 234.681046 
L 517.74381 225.72777 
L 520.802741 213.723823 
L 523.861672 197.995934 
L 526.920603 179.154623 
L 533.038465 136.905952 
L 536.097396 121.651686 
L 539.156327 117.730163 
L 542.215258 123.062893 
L 545.274189 133.711367 
L 548.33312 146.451803 
L 551.392051 160.919338 
L 554.450982 177.463843 
L 560.568844 214.894349 
L 563.627775 231.957875 
L 566.686706 245.550509 
L 569.745637 255.818715 
L 572.804568 263.361607 
L 575.863499 268.488377 
L 578.92243 270.348519 
L 581.981361 267.801605 
L 585.040292 260.174865 
L 588.099223 248.666157 
L 591.158154 234.940998 
L 600.334947 191.77821 
L 603.393878 178.800224 
L 606.45281 168.867912 
L 609.511741 164.14385 
L 612.570672 165.950411 
L 615.629603 172.249158 
L 618.688534 180.633494 
L 621.747465 190.584992 
L 624.806396 202.057267 
L 630.924258 227.224951 
L 633.983189 237.866309 
L 637.04212 245.3267 
L 640.101051 249.592141 
L 643.159982 250.978177 
L 646.218913 249.690147 
L 649.277844 245.492567 
L 652.336775 238.039747 
L 655.395706 227.208634 
L 658.454637 213.766722 
L 667.63143 168.375699 
L 670.690361 156.050105 
L 673.749292 147.362045 
L 676.808223 142.459055 
L 679.867154 141.215425 
L 682.926085 143.736044 
L 685.985016 151.048201 
L 689.043947 164.409788 
L 692.102878 183.815578 
L 695.161809 204.20789 
L 698.22074 220.595498 
L 701.279671 233.305465 
L 704.338602 243.994431 
L 707.397533 253.725753 
L 710.456464 261.189677 
L 713.515395 264.483169 
L 716.574326 262.219421 
L 719.633257 255.076526 
L 722.692188 244.248806 
L 725.751119 230.927391 
L 731.868981 201.513829 
L 734.927912 187.7645 
L 737.986843 176.180006 
L 741.045774 167.890098 
L 744.104705 163.643047 
L 747.163636 162.661198 
L 747.163636 162.661198 
" clip-path="url(#p9885f7561c)" style="fill: none; stroke: #ff0000; stroke-linecap: square"/>
   </g>
   <g id="line2d_34">
    <path d="M 138.436364 131.584153 
L 141.495295 129.119972 
L 144.554226 129.927065 
L 147.613157 134.30396 
L 150.672088 141.969369 
L 153.731019 152.497053 
L 159.848881 177.470319 
L 162.907812 186.987971 
L 165.966743 191.364069 
L 169.025674 189.799647 
L 172.084605 181.865787 
L 175.143536 167.64733 
L 178.202467 149.28415 
L 181.261398 129.429878 
L 184.320329 110.733052 
L 187.37926 95.82183 
L 190.438191 87.319277 
L 193.497122 87.254869 
L 196.556053 95.283729 
L 199.614984 110.467389 
L 205.732846 152.112514 
L 208.791777 167.852044 
L 211.850708 173.981636 
L 214.909639 172.052108 
L 217.96857 165.077046 
L 221.027501 155.809933 
L 224.086432 145.963843 
L 227.145363 136.991749 
L 230.204294 130.090851 
L 233.263225 125.435261 
L 236.322156 122.943319 
L 242.440018 121.322789 
L 245.498949 118.179572 
L 248.55788 111.550422 
L 251.616811 104.148963 
L 254.675742 99.66802 
L 257.734673 100.656293 
L 260.793604 105.085991 
L 263.852535 109.785202 
L 266.911466 112.205172 
L 269.970397 112.289799 
L 273.029328 110.606139 
L 276.088259 107.597064 
L 279.14719 103.208709 
L 282.206122 97.263021 
L 285.265053 90.243489 
L 288.323984 85.279761 
L 291.382915 86.163027 
L 294.441846 95.140602 
L 297.500777 108.284302 
L 300.559708 120.122071 
L 303.618639 126.390929 
L 306.67757 127.664205 
L 309.736501 125.724304 
L 312.795432 122.353632 
L 315.854363 118.671879 
L 318.913294 113.147867 
L 321.972225 103.587705 
L 325.031156 89.31447 
L 328.090087 75.719124 
L 331.149018 69.709599 
L 334.207949 75.869925 
L 340.325811 103.529893 
L 343.384742 112.316165 
L 346.443673 115.599868 
L 349.502604 114.491136 
L 352.561535 109.983571 
L 355.620466 102.604623 
L 358.679397 92.765211 
L 361.738328 81.222837 
L 364.797259 70.121344 
L 367.85619 61.951166 
L 370.915121 58.433538 
L 373.974052 58.212927 
L 377.032983 59.164605 
L 380.091914 59.580248 
L 383.150845 59.417143 
L 392.327638 58.235517 
L 395.386569 57.222106 
L 398.4455 55.8 
L 401.504431 55.896477 
L 404.563362 59.893042 
L 407.622293 69.055863 
L 410.681224 80.189775 
L 413.740155 88.984276 
L 416.799086 92.553258 
L 419.858017 93.708181 
L 422.916948 96.684896 
L 425.975879 104.53297 
L 432.093741 126.874567 
L 435.152672 136.658001 
L 438.211603 147.293503 
L 441.270534 162.22111 
L 444.329466 183.373221 
L 447.388397 206.651697 
L 450.447328 226.450762 
L 453.506259 239.081323 
L 456.56519 248.521022 
L 459.624121 260.66418 
L 462.683052 278.582433 
L 465.741983 294.056662 
L 468.800914 298.846602 
L 471.859845 295.918176 
L 474.918776 291.038851 
L 477.977707 287.979322 
L 481.036638 282.523194 
L 484.095569 268.457301 
L 487.1545 241.943436 
L 490.213431 208.643233 
L 493.272362 176.593289 
L 496.331293 152.229997 
L 499.390224 135.588941 
L 502.449155 125.105506 
L 505.508086 119.973017 
L 508.567017 122.416582 
L 511.625948 135.41925 
L 514.684879 159.99848 
L 517.74381 189.309362 
L 520.802741 214.541393 
L 523.861672 229.497538 
L 526.920603 238.434622 
L 529.979534 248.222937 
L 533.038465 263.088252 
L 536.097396 276.678234 
L 539.156327 281.962427 
L 542.215258 279.775976 
L 545.274189 272.920423 
L 548.33312 263.425909 
L 551.392051 250.23696 
L 554.450982 231.526696 
L 557.509913 206.445347 
L 563.627775 150.381117 
L 566.686706 127.094885 
L 569.745637 110.354279 
L 572.804568 101.945831 
L 575.863499 103.192645 
L 578.92243 113.564096 
L 581.981361 132.066127 
L 585.040292 157.29489 
L 591.158154 215.350768 
L 594.217085 241.775818 
L 597.276016 264.547458 
L 600.334947 283.234168 
L 603.393878 297.047923 
L 606.45281 303.774669 
L 609.511741 300.843845 
L 612.570672 287.377319 
L 615.629603 269.266675 
L 618.688534 252.671065 
L 621.747465 238.050189 
L 627.865327 210.90473 
L 630.924258 196.646207 
L 633.983189 180.894537 
L 640.101051 146.498072 
L 643.159982 132.725189 
L 646.218913 124.569083 
L 649.277844 123.241141 
L 652.336775 129.649566 
L 655.395706 144.21319 
L 658.454637 165.393355 
L 661.513568 191.162031 
L 664.572499 219.103192 
L 667.63143 245.248827 
L 670.690361 265.242928 
L 673.749292 275.979884 
L 676.808223 279.355673 
L 679.867154 278.51667 
L 682.926085 275.398029 
L 685.985016 267.090018 
L 689.043947 249.471686 
L 695.161809 193.38203 
L 698.22074 175.909251 
L 701.279671 166.71437 
L 704.338602 160.405798 
L 707.397533 153.143913 
L 710.456464 147.296967 
L 713.515395 146.785181 
L 716.574326 154.377584 
L 719.633257 168.238431 
L 722.692188 185.380785 
L 728.81005 221.823128 
L 734.927912 260.613427 
L 737.986843 278.348096 
L 741.045774 291.420413 
L 744.104705 297.610525 
L 747.163636 296.985285 
L 747.163636 296.985285 
" clip-path="url(#p9885f7561c)" style="fill: none; stroke: #0000ff; stroke-linecap: square"/>
   </g>
   <g id="patch_3">
    <path d="M 108 320.4 
L 108 43.2 
" style="fill: none; stroke: #000000; stroke-width: 0.8; stroke-linejoin: miter; stroke-linecap: square"/>
   </g>
   <g id="patch_4">
    <path d="M 777.6 320.4 
L 777.6 43.2 
" style="fill: none; stroke: #000000; stroke-width: 0.8; stroke-linejoin: miter; stroke-linecap: square"/>
   </g>
   <g id="patch_5">
    <path d="M 108 320.4 
L 777.6 320.4 
" style="fill: none; stroke: #000000; stroke-width: 0.8; stroke-linejoin: miter; stroke-linecap: square"/>
   </g>
   <g id="patch_6">
    <path d="M 108 43.2 
L 777.6 43.2 
" style="fill: none; stroke: #000000; stroke-width: 0.8; stroke-linejoin: miter; stroke-linecap: square"/>
   </g>
   <g id="text_19">
    <!-- Zooming data -->
    <g transform="translate(396.512602 37.2) scale(0.156 -0.156)">
     <defs>
      <path id="CMR17-5a" d="M 3302 4230 
C 3302 4352 3296 4352 3162 4352 
L 442 4352 
L 378 2948 
L 493 2948 
C 531 3675 723 4192 1760 4192 
L 2816 4192 
L 339 204 
C 294 134 294 127 294 83 
C 294 0 307 0 435 0 
L 3245 0 
L 3334 1666 
L 3219 1666 
C 3162 829 3117 178 1894 178 
L 781 178 
L 3302 4230 
z
" transform="scale(0.015625)"/>
      <path id="CMR17-6f" d="M 2758 1356 
C 2758 2176 2163 2816 1466 2816 
C 768 2816 173 2176 173 1356 
C 173 551 768 -64 1466 -64 
C 2163 -64 2758 551 2758 1356 
z
M 1466 51 
C 1165 51 909 230 762 480 
C 602 767 582 1126 582 1408 
C 582 1677 595 2010 762 2298 
C 890 2509 1139 2714 1466 2714 
C 1754 2714 1997 2554 2150 2330 
C 2349 2029 2349 1607 2349 1408 
C 2349 1158 2336 775 2163 467 
C 1984 173 1709 51 1466 51 
z
" transform="scale(0.015625)"/>
      <path id="CMR17-67" d="M 710 1164 
C 832 1068 1043 960 1299 960 
C 1805 960 2240 1357 2240 1888 
C 2240 2054 2189 2310 1997 2509 
C 2176 2692 2438 2752 2586 2752 
C 2611 2752 2650 2752 2682 2734 
C 2656 2728 2598 2703 2598 2605 
C 2598 2527 2656 2471 2739 2471 
C 2835 2471 2886 2533 2886 2614 
C 2886 2731 2790 2854 2586 2854 
C 2330 2854 2106 2738 1926 2580 
C 1734 2753 1504 2816 1299 2816 
C 794 2816 358 2419 358 1888 
C 358 1522 570 1292 634 1228 
C 442 1004 442 743 442 711 
C 442 545 506 302 723 168 
C 390 85 128 -169 128 -486 
C 128 -943 736 -1280 1466 -1280 
C 2170 -1280 2803 -956 2803 -479 
C 2803 384 1856 384 1363 384 
C 1216 384 954 384 922 391 
C 723 423 589 602 589 826 
C 589 883 589 1024 710 1164 
z
M 1299 1068 
C 736 1068 736 1760 736 1889 
C 736 2016 736 2708 1299 2708 
C 1862 2708 1862 2016 1862 1889 
C 1862 1760 1862 1068 1299 1068 
z
M 1466 -1171 
C 826 -1171 384 -835 384 -486 
C 384 -289 493 -105 634 -4 
C 794 104 858 104 1293 104 
C 1818 104 2547 104 2547 -486 
C 2547 -835 2106 -1171 1466 -1171 
z
" transform="scale(0.015625)"/>
     </defs>
     <use xlink:href="#CMR17-5a" transform="scale(0.996264)"/>
     <use xlink:href="#CMR17-6f" transform="translate(56.100171 0) scale(0.996264)"/>
     <use xlink:href="#CMR17-6f" transform="translate(104.393087 0) scale(0.996264)"/>
     <use xlink:href="#CMR17-6d" transform="translate(150.083564 0) scale(0.996264)"/>
     <use xlink:href="#CMR17-69" transform="translate(227.003154 0) scale(0.996264)"/>
     <use xlink:href="#CMR17-6e" transform="translate(251.874213 0) scale(0.996264)"/>
     <use xlink:href="#CMR17-67" transform="translate(302.769582 0) scale(0.996264)"/>
     <use xlink:href="#CMR17-64" transform="translate(378.536026 0) scale(0.996264)"/>
     <use xlink:href="#CMR17-61" transform="translate(429.431396 0) scale(0.996264)"/>
     <use xlink:href="#CMR17-74" transform="translate(475.121873 0) scale(0.996264)"/>
     <use xlink:href="#CMR17-61" transform="translate(510.40264 0) scale(0.996264)"/>
    </g>
   </g>
  </g>
 </g>
 <defs>
  <clipPath id="p9885f7561c">
   <rect x="108" y="43.2" width="669.6" height="277.2"/>
  </clipPath>
 </defs>
</svg>
