<svg xmlns="http://www.w3.org/2000/svg" xmlns:xlink="http://www.w3.org/1999/xlink" version="1.1" width="205.23pt" height="75.08pt" viewBox="0 0 205.23 75.08">
<path transform="matrix(1,0,0,-1,-34.496004,-26.219994)" stroke-width=".74721" stroke-linecap="butt" stroke-miterlimit="10" stroke-linejoin="miter" fill="none" stroke="#000000" d="M221.63672-36.56085V-82.05086"/>
<path transform="matrix(1,0,0,-1,-34.496004,-26.219994)" stroke-width=".74721" stroke-linecap="butt" stroke-miterlimit="10" stroke-linejoin="miter" fill="none" stroke="#000000" d="M52.30453-59.5898H61.71935"/>
<path transform="matrix(1,0,0,-1,-34.496004,-26.219994)" stroke-width=".74721" stroke-linecap="butt" stroke-miterlimit="10" stroke-linejoin="miter" fill="none" stroke="#000000" d="M63.60979-63.35571 67.37569-55.81639"/>
<path transform="matrix(1,0,0,-1,-34.496004,-26.219994)" d="M94.30507-59.30586C94.30507-53.37303 99.11708-48.5685 105.04243-48.5685 110.97527-48.5685 115.77982-53.37303 115.77982-59.30586 115.77982-65.23122 110.97527-70.04323 105.04243-70.04323 99.11708-70.04323 94.30507-65.23122 94.30507-59.30586Z" fill="#d0021b"/>
<path transform="matrix(1,0,0,-1,-34.496004,-26.219994)" stroke-width=".74721" stroke-linecap="butt" stroke-miterlimit="10" stroke-linejoin="miter" fill="none" stroke="#000000" d="M94.30507-59.30586C94.30507-53.37303 99.11708-48.5685 105.04243-48.5685 110.97527-48.5685 115.77982-53.37303 115.77982-59.30586 115.77982-65.23122 110.97527-70.04323 105.04243-70.04323 99.11708-70.04323 94.30507-65.23122 94.30507-59.30586Z"/>
<path transform="matrix(1,0,0,-1,-34.496004,-26.219994)" d="M157.97463-59.67946C157.97463-53.7541 162.77918-48.9421 168.71199-48.9421 174.63736-48.9421 179.44937-53.7541 179.44937-59.67946 179.44937-65.61229 174.63736-70.41684 168.71199-70.41684 162.77918-70.41684 157.97463-65.61229 157.97463-59.67946Z" fill="#4a90e2"/>
<path transform="matrix(1,0,0,-1,-34.496004,-26.219994)" stroke-width=".74721" stroke-linecap="butt" stroke-miterlimit="10" stroke-linejoin="miter" fill="none" stroke="#000000" d="M157.97463-59.67946C157.97463-53.7541 162.77918-48.9421 168.71199-48.9421 174.63736-48.9421 179.44937-53.7541 179.44937-59.67946 179.44937-65.61229 174.63736-70.41684 168.71199-70.41684 162.77918-70.41684 157.97463-65.61229 157.97463-59.67946Z"/>
<path transform="matrix(1,0,0,-1,-34.496004,-26.219994)" stroke-width=".74721" stroke-linecap="butt" stroke-miterlimit="10" stroke-linejoin="miter" fill="none" stroke="#000000" d="M67.37569-55.81639 71.14163-63.35571"/>
<path transform="matrix(1,0,0,-1,-34.496004,-26.219994)" stroke-width=".74721" stroke-linecap="butt" stroke-miterlimit="10" stroke-linejoin="miter" fill="none" stroke="#000000" d="M71.14163-63.35571 74.90756-55.81639"/>
<path transform="matrix(1,0,0,-1,-34.496004,-26.219994)" stroke-width=".74721" stroke-linecap="butt" stroke-miterlimit="10" stroke-linejoin="miter" fill="none" stroke="#000000" d="M74.90756-55.81639 78.67346-63.35571"/>
<path transform="matrix(1,0,0,-1,-34.496004,-26.219994)" stroke-width=".74721" stroke-linecap="butt" stroke-miterlimit="10" stroke-linejoin="miter" fill="none" stroke="#000000" d="M61.71935-59.5898 63.60979-63.35571"/>
<path transform="matrix(1,0,0,-1,-34.496004,-26.219994)" stroke-width=".74721" stroke-linecap="butt" stroke-miterlimit="10" stroke-linejoin="miter" fill="none" stroke="#000000" d="M78.67346-63.35571 82.4394-55.81639"/>
<path transform="matrix(1,0,0,-1,-34.496004,-26.219994)" stroke-width=".74721" stroke-linecap="butt" stroke-miterlimit="10" stroke-linejoin="miter" fill="none" stroke="#000000" d="M84.32237-59.67946H94.30507"/>
<path transform="matrix(1,0,0,-1,-34.496004,-26.219994)" stroke-width=".74721" stroke-linecap="butt" stroke-miterlimit="10" stroke-linejoin="miter" fill="none" stroke="#000000" d="M84.32237-59.67946 82.4394-55.81639"/>
<path transform="matrix(1,0,0,-1,-34.496004,-26.219994)" stroke-width=".74721" stroke-linecap="butt" stroke-miterlimit="10" stroke-linejoin="miter" fill="none" stroke="#000000" d="M179.63617-59.20872H189.051"/>
<path transform="matrix(1,0,0,-1,-34.496004,-26.219994)" stroke-width=".74721" stroke-linecap="butt" stroke-miterlimit="10" stroke-linejoin="miter" fill="none" stroke="#000000" d="M190.93396-62.97464 194.70735-55.4428"/>
<path transform="matrix(1,0,0,-1,-34.496004,-26.219994)" stroke-width=".74721" stroke-linecap="butt" stroke-miterlimit="10" stroke-linejoin="miter" fill="none" stroke="#000000" d="M194.70735-55.4428 198.47328-62.97464"/>
<path transform="matrix(1,0,0,-1,-34.496004,-26.219994)" stroke-width=".74721" stroke-linecap="butt" stroke-miterlimit="10" stroke-linejoin="miter" fill="none" stroke="#000000" d="M198.47328-62.97464 202.23921-55.4428"/>
<path transform="matrix(1,0,0,-1,-34.496004,-26.219994)" stroke-width=".74721" stroke-linecap="butt" stroke-miterlimit="10" stroke-linejoin="miter" fill="none" stroke="#000000" d="M202.23921-55.4428 206.00513-62.97464"/>
<path transform="matrix(1,0,0,-1,-34.496004,-26.219994)" stroke-width=".74721" stroke-linecap="butt" stroke-miterlimit="10" stroke-linejoin="miter" fill="none" stroke="#000000" d="M189.051-59.20872 190.93396-62.97464"/>
<path transform="matrix(1,0,0,-1,-34.496004,-26.219994)" stroke-width=".74721" stroke-linecap="butt" stroke-miterlimit="10" stroke-linejoin="miter" fill="none" stroke="#000000" d="M206.00513-62.97464 209.77106-55.4428"/>
<path transform="matrix(1,0,0,-1,-34.496004,-26.219994)" stroke-width=".74721" stroke-linecap="butt" stroke-miterlimit="10" stroke-linejoin="miter" fill="none" stroke="#000000" d="M211.65402-59.30586H221.63672"/>
<path transform="matrix(1,0,0,-1,-34.496004,-26.219994)" stroke-width=".74721" stroke-linecap="butt" stroke-miterlimit="10" stroke-linejoin="miter" fill="none" stroke="#000000" d="M211.65402-59.30586 209.77106-55.4428"/>
<path transform="matrix(1,0,0,-1,-34.496004,-26.219994)" stroke-width=".74721" stroke-linecap="butt" stroke-miterlimit="10" stroke-linejoin="miter" fill="none" stroke="#000000" d="M115.96661-59.5898H125.3889"/>
<path transform="matrix(1,0,0,-1,-34.496004,-26.219994)" stroke-width=".74721" stroke-linecap="butt" stroke-miterlimit="10" stroke-linejoin="miter" fill="none" stroke="#000000" d="M127.27187-63.35571 131.0378-55.81639"/>
<path transform="matrix(1,0,0,-1,-34.496004,-26.219994)" stroke-width=".74721" stroke-linecap="butt" stroke-miterlimit="10" stroke-linejoin="miter" fill="none" stroke="#000000" d="M131.0378-55.81639 134.80371-63.35571"/>
<path transform="matrix(1,0,0,-1,-34.496004,-26.219994)" stroke-width=".74721" stroke-linecap="butt" stroke-miterlimit="10" stroke-linejoin="miter" fill="none" stroke="#000000" d="M134.80371-63.35571 138.56964-55.81639"/>
<path transform="matrix(1,0,0,-1,-34.496004,-26.219994)" stroke-width=".74721" stroke-linecap="butt" stroke-miterlimit="10" stroke-linejoin="miter" fill="none" stroke="#000000" d="M138.56964-55.81639 142.34305-63.35571"/>
<path transform="matrix(1,0,0,-1,-34.496004,-26.219994)" stroke-width=".74721" stroke-linecap="butt" stroke-miterlimit="10" stroke-linejoin="miter" fill="none" stroke="#000000" d="M125.3889-59.5898 127.27187-63.35571"/>
<path transform="matrix(1,0,0,-1,-34.496004,-26.219994)" stroke-width=".74721" stroke-linecap="butt" stroke-miterlimit="10" stroke-linejoin="miter" fill="none" stroke="#000000" d="M142.34305-63.35571 146.10897-55.81639"/>
<path transform="matrix(1,0,0,-1,-34.496004,-26.219994)" stroke-width=".74721" stroke-linecap="butt" stroke-miterlimit="10" stroke-linejoin="miter" fill="none" stroke="#000000" d="M147.99195-59.67946H157.97463"/>
<path transform="matrix(1,0,0,-1,-34.496004,-26.219994)" stroke-width=".74721" stroke-linecap="butt" stroke-miterlimit="10" stroke-linejoin="miter" fill="none" stroke="#000000" d="M147.99195-59.67946 146.10897-55.81639"/>
<path transform="matrix(1,0,0,-1,-34.496004,-26.219994)" stroke-width=".74721" stroke-linecap="butt" stroke-miterlimit="10" stroke-linejoin="miter" fill="none" stroke="#d0021b" d="M105.04243-70.04323V-80.69843"/>
<path transform="matrix(1,0,0,-1,-34.496004,-26.219994)" stroke-width=".74721" stroke-linecap="butt" stroke-miterlimit="10" stroke-linejoin="miter" fill="none" stroke="#d0021b" d="M105.04243-80.69843H117.3116"/>
<path transform="matrix(1,0,0,-1,-34.496004,-26.219994)" stroke-width=".74721" stroke-linecap="butt" stroke-miterlimit="10" stroke-linejoin="miter" fill="none" stroke="#d0021b" d="M110.63904-83.15671C113.61292-81.74449 116.33275-80.92258 118.80602-80.69843 116.33275-80.47426 113.61292-79.65234 110.63904-78.24013"/>
<path transform="matrix(1,0,0,-1,-34.496004,-26.219994)" stroke-width=".74721" stroke-linecap="butt" stroke-miterlimit="10" stroke-linejoin="miter" fill="none" stroke="#000000" d="M52.30453-36.98677V-82.19284"/>
<path transform="matrix(1,0,0,-1,-34.496004,-26.219994)" stroke-width=".74721" stroke-linecap="butt" stroke-miterlimit="10" stroke-linejoin="miter" fill="none" stroke="#4a90e2" d="M168.71199-70.41684V-81.07202"/>
<path transform="matrix(1,0,0,-1,-34.496004,-26.219994)" stroke-width=".74721" stroke-linecap="butt" stroke-miterlimit="10" stroke-linejoin="miter" fill="none" stroke="#4a90e2" d="M168.71199-81.07202H180.97368"/>
<path transform="matrix(1,0,0,-1,-34.496004,-26.219994)" stroke-width=".74721" stroke-linecap="butt" stroke-miterlimit="10" stroke-linejoin="miter" fill="none" stroke="#4a90e2" d="M174.30112-83.53032C177.27501-82.1181 179.99485-81.29617 182.4681-81.07202 179.99485-80.84787 177.27501-80.02594 174.30112-78.61372"/>
<path transform="matrix(1,0,0,-1,-34.496004,-26.219994)" stroke-width=".74721" stroke-linecap="butt" stroke-miterlimit="10" stroke-linejoin="miter" fill="none" stroke="#000000" d="M44.83246-37.36038 52.30453-44.83246"/>
<path transform="matrix(1,0,0,-1,-34.496004,-26.219994)" stroke-width=".74721" stroke-linecap="butt" stroke-miterlimit="10" stroke-linejoin="miter" fill="none" stroke="#000000" d="M44.83246-44.83246 52.30453-52.30453"/>
<path transform="matrix(1,0,0,-1,-34.496004,-26.219994)" stroke-width=".74721" stroke-linecap="butt" stroke-miterlimit="10" stroke-linejoin="miter" fill="none" stroke="#000000" d="M44.83246-52.11772 52.30453-59.5898"/>
<path transform="matrix(1,0,0,-1,-34.496004,-26.219994)" stroke-width=".74721" stroke-linecap="butt" stroke-miterlimit="10" stroke-linejoin="miter" fill="none" stroke="#000000" d="M44.83246-59.5898 52.30453-67.06187"/>
<path transform="matrix(1,0,0,-1,-34.496004,-26.219994)" stroke-width=".74721" stroke-linecap="butt" stroke-miterlimit="10" stroke-linejoin="miter" fill="none" stroke="#000000" d="M44.83246-67.06187 52.30453-74.53395"/>
<path transform="matrix(1,0,0,-1,-34.496004,-26.219994)" stroke-width=".74721" stroke-linecap="butt" stroke-miterlimit="10" stroke-linejoin="miter" fill="none" stroke="#000000" d="M44.83246-74.72076 52.30453-82.19284"/>
<path transform="matrix(1,0,0,-1,-34.496004,-26.219994)" stroke-width=".74721" stroke-linecap="butt" stroke-miterlimit="10" stroke-linejoin="miter" fill="none" stroke="#000000" d="M222.05516-79.92133 229.17606-72.89009"/>
<path transform="matrix(1,0,0,-1,-34.496004,-26.219994)" stroke-width=".74721" stroke-linecap="butt" stroke-miterlimit="10" stroke-linejoin="miter" fill="none" stroke="#000000" d="M222.09999-72.84526 229.22089-65.81404"/>
<path transform="matrix(1,0,0,-1,-34.496004,-26.219994)" stroke-width=".74721" stroke-linecap="butt" stroke-miterlimit="10" stroke-linejoin="miter" fill="none" stroke="#000000" d="M222.14482-65.95601 229.26572-58.91731"/>
<path transform="matrix(1,0,0,-1,-34.496004,-26.219994)" stroke-width=".74721" stroke-linecap="butt" stroke-miterlimit="10" stroke-linejoin="miter" fill="none" stroke="#000000" d="M222.18965-58.87994 229.30307-51.84126"/>
<path transform="matrix(1,0,0,-1,-34.496004,-26.219994)" stroke-width=".74721" stroke-linecap="butt" stroke-miterlimit="10" stroke-linejoin="miter" fill="none" stroke="#000000" d="M222.227-51.8039 229.3479-44.7652"/>
<path transform="matrix(1,0,0,-1,-34.496004,-26.219994)" stroke-width=".74721" stroke-linecap="butt" stroke-miterlimit="10" stroke-linejoin="miter" fill="none" stroke="#000000" d="M222.27184-44.54851 229.39275-37.51729"/>
<path transform="matrix(1,0,0,-1,-34.496004,-26.219994)" stroke-width=".74721" stroke-linecap="butt" stroke-miterlimit="10" stroke-linejoin="miter" fill="none" stroke="#000000" d="M105.04243-48.5685"/>
<text xml:space="preserve" transform="matrix(1 0 -0 1 170.43399 117.957)" font-size="9.9626" font-family="CMMI10" font-style="italic"><tspan y="-98.224" x="-106.496">m</tspan></text>
<text xml:space="preserve" transform="matrix(1 0 -0 1 170.43399 117.957)" font-size="6.9738" font-family="CMR7"><tspan y="-96.729999" x="-97.748">1</tspan></text>
<path transform="matrix(1,0,0,-1,-34.496004,-26.219994)" stroke-width=".74721" stroke-linecap="butt" stroke-miterlimit="10" stroke-linejoin="miter" fill="none" stroke="#000000" d="M168.89879-48.47134"/>
<text xml:space="preserve" transform="matrix(1 0 -0 1 234.29 117.86)" font-size="9.9626" font-family="CMMI10" font-style="italic"><tspan y="-98.224" x="-106.496">m</tspan></text>
<text xml:space="preserve" transform="matrix(1 0 -0 1 234.29 117.86)" font-size="6.9738" font-family="CMR7"><tspan y="-96.729999" x="-97.748">2</tspan></text>
<path transform="matrix(1,0,0,-1,-34.496004,-26.219994)" stroke-width=".74721" stroke-linecap="butt" stroke-miterlimit="10" stroke-linejoin="miter" fill="none" stroke="#000000" d="M74.90756-55.81639"/>
<text xml:space="preserve" transform="matrix(1 0 -0 1 142.08 125.205)" font-size="9.9626" font-family="CMMI10" font-style="italic"><tspan y="-98.224" x="-106.496">k</tspan></text>
<text xml:space="preserve" transform="matrix(1 0 -0 1 142.08 125.205)" font-size="6.9738" font-family="CMR7"><tspan y="-96.729999" x="-101.309009">1</tspan></text>
<path transform="matrix(1,0,0,-1,-34.496004,-26.219994)" stroke-width=".74721" stroke-linecap="butt" stroke-miterlimit="10" stroke-linejoin="miter" fill="none" stroke="#000000" d="M138.56964-55.81639"/>
<text xml:space="preserve" transform="matrix(1 0 -0 1 205.742 125.205)" font-size="9.9626" font-family="CMMI10" font-style="italic"><tspan y="-98.224" x="-106.496">k</tspan></text>
<text xml:space="preserve" transform="matrix(1 0 -0 1 205.742 125.205)" font-size="6.9738" font-family="CMR7"><tspan y="-96.729999" x="-101.309009">2</tspan></text>
<path transform="matrix(1,0,0,-1,-34.496004,-26.219994)" stroke-width=".74721" stroke-linecap="butt" stroke-miterlimit="10" stroke-linejoin="miter" fill="none" stroke="#000000" d="M202.23921-55.4428"/>
<text xml:space="preserve" transform="matrix(1 0 -0 1 269.411 124.832)" font-size="9.9626" font-family="CMMI10" font-style="italic"><tspan y="-98.224" x="-106.496">k</tspan></text>
<text xml:space="preserve" transform="matrix(1 0 -0 1 269.411 124.832)" font-size="6.9738" font-family="CMR7"><tspan y="-96.729999" x="-101.309009">3</tspan></text>
<path transform="matrix(1,0,0,-1,-34.496004,-26.219994)" stroke-width=".74721" stroke-linecap="butt" stroke-miterlimit="10" stroke-linejoin="miter" fill="none" stroke="#000000" d="M118.80602-83.68726"/>
<text fill="#d0021b" xml:space="preserve" transform="matrix(1 0 -0 1 179.522 161.102)" font-size="9.9626" font-family="CMMI10" font-style="italic"><tspan y="-98.224" x="-106.496">x</tspan></text>
<text fill="#d0021b" xml:space="preserve" transform="matrix(1 0 -0 1 179.522 161.102)" font-size="6.9738" font-family="CMR7"><tspan y="-96.729999" x="-100.802">1</tspan></text>
<path transform="matrix(1,0,0,-1,-34.496004,-26.219994)" stroke-width=".74721" stroke-linecap="butt" stroke-miterlimit="10" stroke-linejoin="miter" fill="none" stroke="#000000" d="M182.4681-83.68726"/>
<text fill="#4a90e2" xml:space="preserve" transform="matrix(1 0 -0 1 243.184 161.102)" font-size="9.9626" font-family="CMMI10" font-style="italic"><tspan y="-98.224" x="-106.496">x</tspan></text>
<text fill="#4a90e2" xml:space="preserve" transform="matrix(1 0 -0 1 243.184 161.102)" font-size="6.9738" font-family="CMR7"><tspan y="-96.729999" x="-100.802">2</tspan></text>
</svg>
