<?xml version="1.0" encoding="utf-8" standalone="no"?>
<!DOCTYPE svg PUBLIC "-//W3C//DTD SVG 1.1//EN"
  "http://www.w3.org/Graphics/SVG/1.1/DTD/svg11.dtd">
<svg xmlns:xlink="http://www.w3.org/1999/xlink" width="576pt" height="288pt" viewBox="0 0 576 288" xmlns="http://www.w3.org/2000/svg" version="1.1">
 <metadata>
  <rdf:RDF xmlns:dc="http://purl.org/dc/elements/1.1/" xmlns:cc="http://creativecommons.org/ns#" xmlns:rdf="http://www.w3.org/1999/02/22-rdf-syntax-ns#">
   <cc:Work>
    <dc:type rdf:resource="http://purl.org/dc/dcmitype/StillImage"/>
    <dc:date>2023-06-14T15:32:38.061208</dc:date>
    <dc:format>image/svg+xml</dc:format>
    <dc:creator>
     <cc:Agent>
      <dc:title>Matplotlib v3.5.3, https://matplotlib.org/</dc:title>
     </cc:Agent>
    </dc:creator>
   </cc:Work>
  </rdf:RDF>
 </metadata>
 <defs>
  <style type="text/css">*{stroke-linejoin: round; stroke-linecap: butt}</style>
 </defs>
 <g id="figure_1">
  <g id="patch_1">
   <path d="M 0 288 
L 576 288 
L 576 0 
L 0 0 
L 0 288 
z
" style="fill: none"/>
  </g>
  <g id="axes_1">
   <g id="patch_2">
    <path d="M 72 143.28 
L 518.4 143.28 
L 518.4 34.56 
L 72 34.56 
z
" style="fill: #ffffff"/>
   </g>
   <g id="matplotlib.axis_1"/>
   <g id="matplotlib.axis_2">
    <g id="ytick_1">
     <g id="line2d_1">
      <defs>
       <path id="me8296197bc" d="M 0 0 
L -3.5 0 
" style="stroke: #000000; stroke-width: 0.8"/>
      </defs>
      <g>
       <use xlink:href="#me8296197bc" x="72" y="124.338399" style="stroke: #000000; stroke-width: 0.8"/>
      </g>
     </g>
     <g id="text_1">
      <!-- $\mathdefault{−0.02}$ -->
      <g transform="translate(32.381779 128.835413)scale(0.13 -0.13)">
       <defs>
        <path id="CMSY10-0" d="M 4218 1472 
C 4326 1472 4442 1472 4442 1600 
C 4442 1728 4326 1728 4218 1728 
L 755 1728 
C 646 1728 531 1728 531 1600 
C 531 1472 646 1472 755 1472 
L 4218 1472 
z
" transform="scale(0.015625)"/>
        <path id="CMR17-30" d="M 2688 2025 
C 2688 2416 2682 3080 2413 3591 
C 2176 4039 1798 4198 1466 4198 
C 1158 4198 768 4058 525 3597 
C 269 3118 243 2524 243 2025 
C 243 1661 250 1106 448 619 
C 723 -39 1216 -128 1466 -128 
C 1760 -128 2208 -7 2470 600 
C 2662 1042 2688 1559 2688 2025 
z
M 1466 -26 
C 1056 -26 813 325 723 812 
C 653 1188 653 1738 653 2096 
C 653 2588 653 2997 736 3387 
C 858 3929 1216 4096 1466 4096 
C 1728 4096 2067 3923 2189 3400 
C 2272 3036 2278 2607 2278 2096 
C 2278 1680 2278 1169 2202 792 
C 2067 95 1690 -26 1466 -26 
z
" transform="scale(0.015625)"/>
        <path id="CMMI12-3a" d="M 1178 307 
C 1178 492 1024 619 870 619 
C 685 619 557 466 557 313 
C 557 128 710 0 864 0 
C 1050 0 1178 153 1178 307 
z
" transform="scale(0.015625)"/>
        <path id="CMR17-32" d="M 2669 989 
L 2554 989 
C 2490 536 2438 459 2413 420 
C 2381 369 1920 369 1830 369 
L 602 369 
C 832 619 1280 1072 1824 1597 
C 2214 1967 2669 2402 2669 3035 
C 2669 3790 2067 4224 1395 4224 
C 691 4224 262 3604 262 3030 
C 262 2780 448 2748 525 2748 
C 589 2748 781 2787 781 3010 
C 781 3207 614 3264 525 3264 
C 486 3264 448 3258 422 3245 
C 544 3790 915 4058 1306 4058 
C 1862 4058 2227 3617 2227 3035 
C 2227 2479 1901 2000 1536 1584 
L 262 146 
L 262 0 
L 2515 0 
L 2669 989 
z
" transform="scale(0.015625)"/>
       </defs>
       <use xlink:href="#CMSY10-0" transform="scale(0.996264)"/>
       <use xlink:href="#CMR17-30" transform="translate(77.487468 0)scale(0.996264)"/>
       <use xlink:href="#CMMI12-3a" transform="translate(123.177945 0)scale(0.996264)"/>
       <use xlink:href="#CMR17-30" transform="translate(150.275122 0)scale(0.996264)"/>
       <use xlink:href="#CMR17-32" transform="translate(195.965599 0)scale(0.996264)"/>
      </g>
     </g>
    </g>
    <g id="ytick_2">
     <g id="line2d_2">
      <g>
       <use xlink:href="#me8296197bc" x="72" y="88.41868" style="stroke: #000000; stroke-width: 0.8"/>
      </g>
     </g>
     <g id="text_2">
      <!-- $\mathdefault{0.00}$ -->
      <g transform="translate(42.455149 92.915694)scale(0.13 -0.13)">
       <use xlink:href="#CMR17-30" transform="scale(0.996264)"/>
       <use xlink:href="#CMMI12-3a" transform="translate(45.690477 0)scale(0.996264)"/>
       <use xlink:href="#CMR17-30" transform="translate(72.787654 0)scale(0.996264)"/>
       <use xlink:href="#CMR17-30" transform="translate(118.478131 0)scale(0.996264)"/>
      </g>
     </g>
    </g>
    <g id="ytick_3">
     <g id="line2d_3">
      <g>
       <use xlink:href="#me8296197bc" x="72" y="52.49896" style="stroke: #000000; stroke-width: 0.8"/>
      </g>
     </g>
     <g id="text_3">
      <!-- $\mathdefault{0.02}$ -->
      <g transform="translate(42.455149 56.995974)scale(0.13 -0.13)">
       <use xlink:href="#CMR17-30" transform="scale(0.996264)"/>
       <use xlink:href="#CMMI12-3a" transform="translate(45.690477 0)scale(0.996264)"/>
       <use xlink:href="#CMR17-30" transform="translate(72.787654 0)scale(0.996264)"/>
       <use xlink:href="#CMR17-32" transform="translate(118.478131 0)scale(0.996264)"/>
      </g>
     </g>
    </g>
    <g id="text_4">
     <!-- displacement (m) -->
     <g transform="translate(25.143921 137.039159)rotate(-90)scale(0.13 -0.13)">
      <defs>
       <path id="CMR17-64" d="M 1869 4326 
L 1869 4160 
C 2246 4160 2304 4122 2304 3820 
L 2304 2345 
C 2278 2377 2016 2790 1498 2790 
C 845 2790 211 2208 211 1364 
C 211 525 806 -64 1434 -64 
C 1978 -64 2259 337 2291 380 
L 2291 -63 
L 3066 -63 
L 3066 128 
C 2688 128 2630 166 2630 473 
L 2630 4396 
L 1869 4326 
z
M 2291 755 
C 2291 563 2176 390 2029 262 
C 1811 70 1594 38 1472 38 
C 1286 38 621 134 621 1356 
C 621 2612 1363 2688 1530 2688 
C 1824 2688 2061 2522 2208 2291 
C 2291 2157 2291 2138 2291 2023 
L 2291 755 
z
" transform="scale(0.015625)"/>
       <path id="CMR17-69" d="M 992 3909 
C 992 4049 877 4170 730 4170 
C 589 4170 467 4056 467 3909 
C 467 3769 582 3648 730 3648 
C 870 3648 992 3763 992 3909 
z
M 243 2706 
L 243 2541 
C 602 2541 653 2502 653 2197 
L 653 427 
C 653 184 627 153 218 153 
L 218 -13 
C 371 0 646 0 806 0 
C 960 0 1222 0 1370 -13 
L 1370 153 
C 992 153 979 191 979 420 
L 979 2776 
L 243 2706 
z
" transform="scale(0.015625)"/>
       <path id="CMR17-73" d="M 1978 2697 
C 1978 2813 1971 2819 1933 2819 
C 1907 2819 1901 2813 1824 2717 
C 1805 2691 1747 2626 1728 2601 
C 1523 2819 1235 2819 1126 2819 
C 416 2819 160 2447 160 2076 
C 160 1498 813 1365 998 1325 
C 1402 1243 1542 1217 1677 1101 
C 1760 1025 1901 884 1901 654 
C 1901 384 1747 38 1158 38 
C 602 38 403 460 288 1021 
C 269 1110 269 1117 218 1117 
C 166 1117 160 1110 160 983 
L 160 63 
C 160 -51 166 -58 205 -58 
C 237 -58 243 -51 275 0 
C 314 57 410 211 448 276 
C 576 103 800 -64 1158 -64 
C 1792 -64 2131 283 2131 784 
C 2131 1112 1958 1285 1875 1362 
C 1683 1561 1459 1606 1190 1657 
C 838 1735 390 1825 390 2217 
C 390 2383 480 2737 1126 2737 
C 1811 2737 1850 2094 1862 1888 
C 1869 1856 1901 1849 1920 1849 
C 1978 1849 1978 1869 1978 1978 
L 1978 2697 
z
" transform="scale(0.015625)"/>
       <path id="CMR17-70" d="M 1408 -1063 
C 998 -1063 973 -1037 973 -789 
L 973 402 
C 1158 134 1427 -38 1766 -38 
C 2406 -38 3053 523 3053 1388 
C 3053 2191 2496 2802 1837 2802 
C 1453 2802 1139 2592 960 2338 
L 960 2802 
L 198 2732 
L 198 2567 
C 576 2567 634 2528 634 2223 
L 634 -789 
C 634 -1031 608 -1063 198 -1063 
L 198 -1228 
C 352 -1216 634 -1216 800 -1216 
C 966 -1216 1254 -1216 1408 -1228 
L 1408 -1063 
z
M 973 2012 
C 973 2102 973 2235 1222 2471 
C 1254 2497 1472 2688 1792 2688 
C 2259 2688 2643 2108 2643 1382 
C 2643 656 2234 64 1728 64 
C 1498 64 1248 172 1056 472 
C 973 612 973 650 973 752 
L 973 2012 
z
" transform="scale(0.015625)"/>
       <path id="CMR17-6c" d="M 979 4396 
L 218 4326 
L 218 4160 
C 595 4160 653 4122 653 3817 
L 653 426 
C 653 184 627 153 218 153 
L 218 -13 
C 371 0 653 0 813 0 
C 979 0 1261 0 1414 -13 
L 1414 153 
C 1005 153 979 178 979 426 
L 979 4396 
z
" transform="scale(0.015625)"/>
       <path id="CMR17-61" d="M 2304 1653 
C 2304 2072 2304 2294 2035 2543 
C 1798 2752 1523 2816 1306 2816 
C 800 2816 435 2407 435 1971 
C 435 1728 627 1728 666 1728 
C 749 1728 896 1778 896 1954 
C 896 2112 774 2181 666 2181 
C 640 2181 608 2174 589 2168 
C 723 2592 1069 2714 1293 2714 
C 1613 2714 1965 2429 1965 1885 
L 1965 1600 
C 1587 1600 1133 1549 774 1357 
C 371 1133 256 813 256 570 
C 256 77 832 -64 1171 -64 
C 1523 -64 1850 139 1990 511 
C 2003 233 2182 -18 2464 -18 
C 2598 -18 2938 70 2938 567 
L 2938 920 
L 2822 920 
L 2822 562 
C 2822 178 2650 128 2566 128 
C 2304 128 2304 458 2304 738 
L 2304 1653 
z
M 1965 870 
C 1965 317 1568 38 1216 38 
C 896 38 646 275 646 570 
C 646 761 730 1100 1101 1305 
C 1408 1478 1760 1504 1965 1504 
L 1965 870 
z
" transform="scale(0.015625)"/>
       <path id="CMR17-63" d="M 2234 2240 
C 2112 2240 1933 2240 1933 2017 
C 1933 1838 2080 1787 2163 1787 
C 2208 1787 2394 1807 2394 2024 
C 2394 2467 1958 2803 1466 2803 
C 787 2803 211 2178 211 1363 
C 211 516 813 -64 1466 -64 
C 2259 -64 2458 677 2458 748 
C 2458 774 2451 793 2406 793 
C 2362 793 2355 787 2330 703 
C 2163 180 1798 51 1523 51 
C 1114 51 621 427 621 1369 
C 621 2338 1094 2688 1472 2688 
C 1722 2688 2093 2573 2234 2240 
z
" transform="scale(0.015625)"/>
       <path id="CMR17-65" d="M 2438 1472 
C 2464 1498 2464 1511 2464 1576 
C 2464 2238 2118 2816 1389 2816 
C 710 2816 173 2169 173 1383 
C 173 551 781 -64 1459 -64 
C 2176 -64 2458 607 2458 740 
C 2458 784 2419 784 2406 784 
C 2362 784 2355 771 2330 696 
C 2189 265 1837 51 1504 51 
C 1229 51 954 203 781 480 
C 582 803 582 1176 582 1472 
L 2438 1472 
z
M 589 1568 
C 634 2505 1126 2714 1382 2714 
C 1818 2714 2112 2297 2118 1568 
L 589 1568 
z
" transform="scale(0.015625)"/>
       <path id="CMR17-6d" d="M 4326 1933 
C 4326 2252 4269 2790 3507 2790 
C 3072 2790 2771 2496 2656 2151 
L 2650 2151 
C 2573 2676 2195 2790 1837 2790 
C 1331 2790 1069 2400 973 2144 
L 966 2144 
L 966 2790 
L 211 2720 
L 211 2554 
C 589 2554 646 2515 646 2208 
L 646 428 
C 646 184 621 153 211 153 
L 211 -13 
C 365 0 646 0 813 0 
C 979 0 1267 0 1421 -13 
L 1421 153 
C 1011 153 986 178 986 428 
L 986 1658 
C 986 2247 1344 2688 1792 2688 
C 2266 2688 2317 2266 2317 1958 
L 2317 428 
C 2317 184 2291 153 1882 153 
L 1882 -13 
C 2035 0 2317 0 2483 0 
C 2650 0 2938 0 3091 -13 
L 3091 153 
C 2682 153 2656 178 2656 428 
L 2656 1658 
C 2656 2247 3014 2688 3462 2688 
C 3936 2688 3987 2266 3987 1958 
L 3987 428 
C 3987 184 3962 153 3552 153 
L 3552 -13 
C 3706 0 3987 0 4154 0 
C 4320 0 4608 0 4762 -13 
L 4762 153 
C 4352 153 4326 178 4326 428 
L 4326 1933 
z
" transform="scale(0.015625)"/>
       <path id="CMR17-6e" d="M 2656 1933 
C 2656 2259 2592 2790 1837 2790 
C 1331 2790 1069 2400 973 2144 
L 966 2144 
L 966 2790 
L 211 2720 
L 211 2554 
C 589 2554 646 2515 646 2208 
L 646 428 
C 646 184 621 153 211 153 
L 211 -13 
C 365 0 646 0 813 0 
C 979 0 1267 0 1421 -13 
L 1421 153 
C 1011 153 986 178 986 428 
L 986 1658 
C 986 2247 1344 2688 1792 2688 
C 2266 2688 2317 2266 2317 1958 
L 2317 428 
C 2317 184 2291 153 1882 153 
L 1882 -13 
C 2035 0 2317 0 2483 0 
C 2650 0 2938 0 3091 -13 
L 3091 153 
C 2682 153 2656 178 2656 428 
L 2656 1933 
z
" transform="scale(0.015625)"/>
       <path id="CMR17-74" d="M 966 2560 
L 1862 2560 
L 1862 2725 
L 966 2725 
L 966 3904 
L 851 3904 
C 838 3245 614 2668 70 2668 
L 70 2560 
L 627 2560 
L 627 771 
C 627 650 627 -64 1370 -64 
C 1747 -64 1965 306 1965 777 
L 1965 1140 
L 1850 1140 
L 1850 783 
C 1850 344 1677 51 1408 51 
C 1222 51 966 178 966 758 
L 966 2560 
z
" transform="scale(0.015625)"/>
       <path id="CMR17-28" d="M 1958 -1561 
C 1958 -1555 1958 -1542 1939 -1523 
C 1645 -1224 858 -407 858 1581 
C 858 3569 1632 4379 1946 4697 
C 1946 4704 1958 4717 1958 4736 
C 1958 4755 1939 4768 1914 4768 
C 1843 4768 1299 4296 986 3594 
C 666 2887 576 2199 576 1588 
C 576 1128 621 351 1005 -471 
C 1312 -1135 1837 -1600 1914 -1600 
C 1946 -1600 1958 -1587 1958 -1561 
z
" transform="scale(0.015625)"/>
       <path id="CMR17-29" d="M 1683 1581 
C 1683 2040 1638 2817 1254 3639 
C 947 4303 422 4768 346 4768 
C 326 4768 301 4761 301 4729 
C 301 4717 307 4710 314 4697 
C 621 4378 1402 3568 1402 1584 
C 1402 -407 627 -1217 314 -1537 
C 307 -1549 301 -1556 301 -1568 
C 301 -1600 326 -1600 346 -1600 
C 416 -1600 960 -1128 1274 -426 
C 1594 281 1683 969 1683 1581 
z
" transform="scale(0.015625)"/>
      </defs>
      <use xlink:href="#CMR17-64" transform="scale(0.996264)"/>
      <use xlink:href="#CMR17-69" transform="translate(50.89537 0)scale(0.996264)"/>
      <use xlink:href="#CMR17-73" transform="translate(75.766428 0)scale(0.996264)"/>
      <use xlink:href="#CMR17-70" transform="translate(111.567766 0)scale(0.996264)"/>
      <use xlink:href="#CMR17-6c" transform="translate(162.463136 0)scale(0.996264)"/>
      <use xlink:href="#CMR17-61" transform="translate(187.334194 0)scale(0.996264)"/>
      <use xlink:href="#CMR17-63" transform="translate(233.024671 0)scale(0.996264)"/>
      <use xlink:href="#CMR17-65" transform="translate(273.510332 0)scale(0.996264)"/>
      <use xlink:href="#CMR17-6d" transform="translate(313.995992 0)scale(0.996264)"/>
      <use xlink:href="#CMR17-65" transform="translate(390.915582 0)scale(0.996264)"/>
      <use xlink:href="#CMR17-6e" transform="translate(431.401243 0)scale(0.996264)"/>
      <use xlink:href="#CMR17-74" transform="translate(479.694158 0)scale(0.996264)"/>
      <use xlink:href="#CMR17-28" transform="translate(545.050893 0)scale(0.996264)"/>
      <use xlink:href="#CMR17-6d" transform="translate(580.33166 0)scale(0.996264)"/>
      <use xlink:href="#CMR17-29" transform="translate(657.25125 0)scale(0.996264)"/>
     </g>
    </g>
   </g>
   <g id="line2d_4">
    <path d="M 92.290909 122.461166 
L 93.104172 122.231529 
L 93.917435 121.531318 
L 94.730698 120.328314 
L 95.543961 118.574269 
L 96.357224 116.212562 
L 97.170486 113.187888 
L 97.983749 109.457092 
L 98.797012 105.000096 
L 100.423538 94.000354 
L 102.050064 80.811586 
L 104.489852 60.060782 
L 106.116378 48.541966 
L 106.929641 44.292219 
L 107.742904 41.366125 
L 108.556167 39.945347 
L 109.36943 40.15029 
L 110.182693 42.030283 
L 110.995956 45.55791 
L 111.809218 50.627978 
L 112.622481 57.061298 
L 114.249007 72.985492 
L 117.502059 107.804731 
L 118.315322 115.152309 
L 119.128584 121.391654 
L 119.941847 126.335214 
L 120.75511 129.863966 
L 121.568373 131.929691 
L 122.381636 132.552699 
L 123.194899 131.815338 
L 124.008162 129.851934 
L 124.821425 126.83607 
L 125.634688 122.966253 
L 127.261213 113.495542 
L 131.327528 87.697901 
L 132.954054 78.557186 
L 134.580579 70.345904 
L 136.207105 63.029836 
L 137.833631 56.791103 
L 138.646894 54.23574 
L 139.460157 52.191076 
L 140.27342 50.781422 
L 141.086682 50.139599 
L 141.899945 50.395785 
L 142.713208 51.665024 
L 143.526471 54.034468 
L 144.339734 57.551453 
L 145.152997 62.2135 
L 145.96626 67.961199 
L 147.592786 82.174623 
L 151.6591 121.964416 
L 152.472363 128.171484 
L 153.285626 133.097049 
L 154.098889 136.520863 
L 154.912152 138.288537 
L 155.725414 138.320768 
L 156.538677 136.618056 
L 157.35194 133.260587 
L 158.165203 128.403278 
L 158.978466 122.266365 
L 160.604992 107.279105 
L 163.858043 75.347402 
L 164.671306 68.659772 
L 165.484569 62.91852 
L 166.297832 58.240685 
L 167.111095 54.683792 
L 167.924358 52.249557 
L 168.737621 50.891162 
L 169.550884 50.523335 
L 170.364146 51.034262 
L 171.177409 52.298238 
L 171.990672 54.187953 
L 172.803935 56.58537 
L 174.430461 62.52602 
L 176.056987 69.610482 
L 177.683512 77.696978 
L 179.310038 86.839454 
L 181.749827 102.355331 
L 184.189616 118.200648 
L 185.002878 122.853757 
L 185.816141 126.856864 
L 186.629404 129.996538 
L 187.442667 132.070472 
L 188.25593 132.902395 
L 189.069193 132.356452 
L 189.882456 130.349891 
L 190.695719 126.863008 
L 191.508982 121.945444 
L 192.322244 115.718223 
L 193.94877 100.156007 
L 197.201822 65.08017 
L 198.015085 57.495695 
L 198.828348 51.025154 
L 199.64161 45.912179 
L 200.454873 42.334583 
L 201.268136 40.396188 
L 202.081399 40.123299 
L 202.894662 41.465972 
L 203.707925 44.303895 
L 204.521188 48.456356 
L 205.334451 53.695493 
L 206.960976 66.380685 
L 210.214028 93.24015 
L 211.840554 104.181801 
L 212.653817 108.651716 
L 213.46708 112.42527 
L 214.280343 115.522122 
L 215.093605 117.983481 
L 215.906868 119.861235 
L 216.720131 121.207272 
L 217.533394 122.064031 
L 218.346657 122.457168 
L 219.15992 122.391031 
L 219.973183 121.847378 
L 220.786446 120.787448 
L 221.599709 119.157226 
L 222.412971 116.8954 
L 223.226234 113.943301 
L 224.039497 110.255875 
L 224.85276 105.812669 
L 226.479286 94.757442 
L 228.105812 81.423722 
L 230.5456 60.367067 
L 232.172126 48.639015 
L 232.985389 44.293626 
L 233.798652 41.280578 
L 234.611915 39.782406 
L 235.425178 39.919549 
L 236.238441 41.740691 
L 237.051703 45.217306 
L 237.864966 50.242863 
L 238.678229 56.636861 
L 240.304755 72.494203 
L 243.557807 107.231465 
L 244.371069 114.577325 
L 245.184332 120.826944 
L 245.997595 125.795143 
L 246.810858 129.364933 
L 247.624121 131.489517 
L 248.437384 132.189783 
L 249.250647 131.547621 
L 250.06391 129.695758 
L 250.877173 126.805 
L 251.690435 123.069966 
L 253.316961 113.877708 
L 258.196539 83.885477 
L 260.636327 71.085482 
L 262.262853 63.539319 
L 263.889379 57.004179 
L 264.702642 54.29174 
L 265.515905 52.092969 
L 266.329167 50.538392 
L 267.14243 49.766278 
L 267.955693 49.911205 
L 268.768956 51.091379 
L 269.582219 53.395772 
L 270.395482 56.872191 
L 271.208745 61.517366 
L 272.022008 67.270006 
L 273.648533 81.547202 
L 277.714848 121.652514 
L 278.528111 127.927571 
L 279.341374 132.919664 
L 280.154637 136.408614 
L 280.967899 138.240628 
L 281.781162 138.337315 
L 282.594425 136.700179 
L 283.407688 133.410252 
L 284.220951 128.622919 
L 285.034214 122.55831 
L 286.66074 107.71861 
L 289.913791 76.025342 
L 290.727054 69.365522 
L 291.540317 63.632215 
L 292.35358 58.939668 
L 293.166843 55.34353 
L 293.980106 52.844779 
L 294.793369 51.39716 
L 295.606631 50.917342 
L 296.419894 51.29681 
L 297.233157 52.4144 
L 298.04642 54.148378 
L 298.859683 56.387031 
L 300.486209 62.028027 
L 302.112735 68.879454 
L 303.73926 76.83974 
L 305.365786 85.982271 
L 307.805575 101.716997 
L 310.245363 117.943007 
L 311.871889 126.867343 
L 312.685152 130.129492 
L 313.498415 132.312916 
L 314.311678 133.238741 
L 315.124941 132.769654 
L 315.938204 130.822555 
L 316.751467 127.37837 
L 317.564729 122.48816 
L 318.377992 116.274921 
L 320.004518 100.709579 
L 324.070833 57.939955 
L 324.884095 51.434295 
L 325.697358 46.280021 
L 326.510621 42.653504 
L 327.323884 40.657163 
L 328.137147 40.316191 
L 328.95041 41.580062 
L 329.763673 44.328616 
L 330.576936 48.382176 
L 331.390199 53.514875 
L 333.016724 65.977262 
L 336.269776 92.477054 
L 337.896302 103.358043 
L 338.709565 107.840007 
L 339.522827 111.655697 
L 340.33609 114.824309 
L 341.149353 117.385059 
L 341.962616 119.38637 
L 342.775879 120.87535 
L 343.589142 121.888595 
L 344.402405 122.445175 
L 345.215668 122.542483 
L 346.028931 122.155343 
L 346.842193 121.238482 
L 347.655456 119.732153 
L 348.468719 117.570407 
L 349.281982 114.691259 
L 350.095245 111.047809 
L 350.908508 106.619264 
L 352.535034 95.511189 
L 354.161559 82.036284 
L 356.601348 60.680596 
L 358.227874 48.747514 
L 359.041137 44.308146 
L 359.8544 41.209382 
L 360.667663 39.634543 
L 361.480925 39.704042 
L 362.294188 41.465891 
L 363.107451 44.890454 
L 363.920714 49.869899 
L 364.733977 56.222478 
L 366.360503 72.007677 
L 369.613554 106.651558 
L 370.426817 113.993424 
L 371.24008 120.251472 
L 372.053343 125.242957 
L 372.866606 128.852951 
L 373.679869 131.036081 
L 374.493132 131.81378 
L 375.306395 131.267431 
L 376.119657 129.528088 
L 376.93292 126.763696 
L 377.746183 123.164894 
L 379.372709 114.25421 
L 385.065549 80.285394 
L 387.505338 67.848561 
L 389.131864 60.489608 
L 390.75839 54.355954 
L 391.571652 52.003968 
L 392.384915 50.305272 
L 393.198178 49.403512 
L 394.011441 49.437594 
L 394.824704 50.528817 
L 395.637967 52.767912 
L 396.45123 56.203111 
L 397.264493 60.83033 
L 398.077756 66.58639 
L 399.704281 80.923154 
L 403.770596 121.330712 
L 404.583859 127.671581 
L 405.397122 132.728457 
L 406.210384 136.281326 
L 407.023647 138.177049 
L 407.83691 138.338182 
L 408.650173 136.767226 
L 409.463436 133.546028 
L 410.276699 128.830375 
L 411.089962 122.840201 
L 412.716488 108.153156 
L 415.969539 76.708382 
L 417.596065 64.354367 
L 418.409328 59.648182 
L 419.222591 56.013467 
L 420.035854 53.450488 
L 420.849116 51.913601 
L 421.662379 51.321476 
L 422.475642 51.568963 
L 423.288905 52.539506 
L 424.102168 54.117009 
L 424.915431 56.196138 
L 426.541957 61.536009 
L 428.168482 68.153054 
L 429.795008 75.985748 
L 431.421534 85.126626 
L 433.04806 95.527701 
L 437.114374 122.602431 
L 437.927637 126.86747 
L 438.7409 130.250723 
L 439.554163 132.542568 
L 440.367426 133.561611 
L 441.180689 133.169157 
L 441.993952 131.281808 
L 442.807214 127.881146 
L 443.620477 123.019652 
L 444.43374 116.822259 
L 446.060266 101.258745 
L 450.12658 58.393978 
L 450.939843 51.855305 
L 451.753106 46.66134 
L 452.566369 42.986953 
L 453.379632 40.933129 
L 454.192895 40.523949 
L 455.006158 41.708337 
L 455.819421 44.366343 
L 456.632684 48.319411 
L 457.445946 53.343768 
L 459.072472 65.579037 
L 462.325524 91.711294 
L 463.95205 102.529083 
L 464.765312 107.022229 
L 465.578575 110.879421 
L 466.391838 114.119355 
L 467.205101 116.779205 
L 468.018364 118.903878 
L 468.831627 120.535663 
L 469.64489 121.705278 
L 470.458153 122.42519 
L 471.271416 122.685831 
L 472.084678 122.455106 
L 472.897941 121.681259 
L 473.711204 120.298856 
L 474.524467 118.237358 
L 475.33773 115.431518 
L 476.150993 111.832638 
L 476.964256 107.419628 
L 477.777519 102.208797 
L 479.404044 89.68793 
L 483.470359 54.512704 
L 484.283622 48.867464 
L 485.096885 44.335809 
L 485.910148 41.152585 
L 486.72341 39.501818 
L 487.536673 39.50384 
L 488.349936 41.205959 
L 489.163199 44.577436 
L 489.976462 49.509173 
L 490.789725 55.81824 
L 492.416251 71.526016 
L 495.669302 106.065153 
L 496.482565 113.400759 
L 497.295828 119.665399 
L 498.109091 124.67882 
L 498.109091 124.67882 
" clip-path="url(#p03d32b466d)" style="fill: none; stroke: #ff0000; stroke-linecap: square"/>
   </g>
   <g id="line2d_5">
    <path d="M 92.290909 122.461166 
L 93.104172 126.406707 
L 93.917435 129.124058 
L 94.730698 130.702876 
L 95.543961 131.232816 
L 96.357224 130.803533 
L 97.170486 129.504685 
L 97.983749 127.425927 
L 98.797012 124.656914 
L 99.610275 121.287303 
L 101.236801 113.104907 
L 103.67659 98.568219 
L 106.929641 78.727071 
L 108.556167 70.223631 
L 110.182693 63.520659 
L 110.995956 60.917561 
L 111.809218 58.832311 
L 112.622481 57.279101 
L 113.435744 56.272126 
L 114.249007 55.825575 
L 115.06227 55.953643 
L 115.875533 56.670521 
L 116.688796 57.990401 
L 117.502059 59.912381 
L 118.315322 62.375175 
L 119.941847 68.617673 
L 121.568373 76.106841 
L 126.44795 99.938691 
L 128.074476 106.268133 
L 128.887739 108.771689 
L 129.701002 110.727505 
L 130.514265 112.055356 
L 131.327528 112.67502 
L 132.140791 112.506272 
L 132.954054 111.500391 
L 133.767316 109.734654 
L 134.580579 107.31784 
L 135.393842 104.358729 
L 137.020368 97.248729 
L 141.899945 74.139546 
L 143.526471 68.256228 
L 144.339734 65.923764 
L 145.152997 64.065421 
L 145.96626 62.732194 
L 146.779523 61.975074 
L 147.592786 61.845056 
L 148.406048 62.393133 
L 149.219311 63.645182 
L 150.032574 65.526623 
L 150.845837 67.937758 
L 152.472363 73.950322 
L 157.35194 94.345521 
L 158.978466 99.609086 
L 159.791729 101.76039 
L 160.604992 103.565156 
L 161.418255 105.003719 
L 162.231518 106.056417 
L 163.04478 106.703584 
L 163.858043 106.925557 
L 164.671306 106.702672 
L 165.484569 106.024617 
L 166.297832 104.918489 
L 167.111095 103.420738 
L 167.924358 101.567815 
L 169.550884 96.942246 
L 171.177409 91.333382 
L 173.617198 81.723989 
L 176.056987 72.144757 
L 177.683512 66.995388 
L 178.496775 65.075963 
L 179.310038 63.719697 
L 180.123301 63.021331 
L 180.936564 63.075607 
L 181.749827 63.941942 
L 182.56309 65.538462 
L 183.376353 67.747971 
L 185.002878 73.537165 
L 189.882456 93.447097 
L 191.508982 98.289849 
L 192.322244 100.213997 
L 193.135507 101.803211 
L 193.94877 103.054904 
L 194.762033 103.966488 
L 195.575296 104.535377 
L 196.388559 104.758984 
L 197.201822 104.634722 
L 198.015085 104.163836 
L 198.828348 103.362894 
L 199.64161 102.252299 
L 200.454873 100.852451 
L 202.081399 97.266605 
L 203.707925 92.768565 
L 205.334451 87.521542 
L 209.400765 73.584283 
L 210.214028 71.313741 
L 211.027291 69.418342 
L 211.840554 67.985017 
L 212.653817 67.100695 
L 213.46708 66.852309 
L 214.280343 67.298971 
L 215.093605 68.388522 
L 215.906868 70.040985 
L 216.720131 72.176383 
L 218.346657 77.576076 
L 220.786446 87.2982 
L 223.226234 97.088317 
L 224.85276 102.819559 
L 226.479286 107.447644 
L 227.292549 109.223701 
L 228.105812 110.574805 
L 228.919075 111.451236 
L 229.732337 111.803272 
L 230.5456 111.598584 
L 231.358863 110.874411 
L 232.172126 109.685383 
L 232.985389 108.086129 
L 233.798652 106.131279 
L 235.425178 101.373315 
L 237.864966 92.935157 
L 241.118018 81.518302 
L 242.744544 76.676506 
L 243.557807 74.653132 
L 244.371069 72.963675 
L 245.184332 71.65981 
L 245.997595 70.793215 
L 246.810858 70.402729 
L 247.624121 70.475847 
L 248.437384 70.987226 
L 249.250647 71.911527 
L 250.06391 73.223406 
L 250.877173 74.897523 
L 251.690435 76.908537 
L 253.316961 81.839887 
L 254.943487 87.803034 
L 258.196539 100.622483 
L 259.823064 105.962618 
L 260.636327 108.031068 
L 261.44959 109.571118 
L 262.262853 110.509283 
L 263.076116 110.860097 
L 263.889379 110.660101 
L 264.702642 109.945835 
L 265.515905 108.75384 
L 266.329167 107.120658 
L 267.14243 105.082827 
L 268.768956 99.939383 
L 270.395482 93.625518 
L 274.461796 76.654274 
L 276.088322 71.369084 
L 276.901585 69.427221 
L 277.714848 68.078711 
L 278.528111 67.390932 
L 279.341374 67.322172 
L 280.154637 67.803449 
L 280.967899 68.765781 
L 281.781162 70.140185 
L 282.594425 71.857679 
L 284.220951 76.046004 
L 289.913791 92.276136 
L 291.540317 96.145876 
L 293.166843 99.29193 
L 293.980106 100.529612 
L 294.793369 101.510305 
L 295.606631 102.21188 
L 296.419894 102.612894 
L 297.233157 102.691906 
L 298.04642 102.427476 
L 298.859683 101.79816 
L 299.672946 100.78252 
L 300.486209 99.359112 
L 301.299472 97.506496 
L 302.112735 95.20323 
L 303.73926 89.356362 
L 307.805575 73.123621 
L 308.618838 70.612845 
L 309.432101 68.642704 
L 310.245363 67.339791 
L 311.058626 66.7955 
L 311.871889 66.960445 
L 312.685152 67.750045 
L 313.498415 69.079718 
L 314.311678 70.864883 
L 315.938204 75.463363 
L 319.191255 86.414791 
L 321.631044 94.121935 
L 323.25757 98.565484 
L 324.884095 102.232163 
L 325.697358 103.714917 
L 326.510621 104.932343 
L 327.323884 105.862731 
L 328.137147 106.49235 
L 328.95041 106.80946 
L 329.763673 106.802322 
L 330.576936 106.459199 
L 331.390199 105.768351 
L 332.203461 104.718041 
L 333.016724 103.296529 
L 333.829987 101.492077 
L 334.64325 99.292947 
L 336.269776 93.813706 
L 340.33609 78.293661 
L 341.149353 75.683468 
L 341.962616 73.473008 
L 342.775879 71.763048 
L 343.589142 70.629586 
L 344.402405 70.049533 
L 345.215668 69.975026 
L 346.028931 70.358204 
L 346.842193 71.151205 
L 347.655456 72.306169 
L 348.468719 73.775234 
L 350.095245 77.464218 
L 351.721771 81.835461 
L 355.788085 93.275999 
L 357.414611 97.07629 
L 358.227874 98.623366 
L 359.041137 99.872794 
L 359.8544 100.786555 
L 360.667663 101.361351 
L 361.480925 101.602562 
L 362.294188 101.515571 
L 363.107451 101.105758 
L 363.920714 100.378506 
L 364.733977 99.339196 
L 365.54724 97.99321 
L 366.360503 96.345928 
L 367.987029 92.180583 
L 370.426817 84.519295 
L 372.866606 76.937302 
L 374.493132 72.9245 
L 375.306395 71.455165 
L 376.119657 70.426791 
L 376.93292 69.829906 
L 377.746183 69.638173 
L 378.559446 69.825256 
L 379.372709 70.364821 
L 380.185972 71.23053 
L 380.999235 72.396049 
L 381.812498 73.83504 
L 383.439024 77.428101 
L 385.065549 81.743102 
L 387.505338 88.479238 
L 389.131864 92.349179 
L 389.945127 93.893071 
L 390.75839 95.085208 
L 391.571652 95.872354 
L 392.384915 96.261438 
L 393.198178 96.274435 
L 394.011441 95.933315 
L 394.824704 95.260051 
L 395.637967 94.276617 
L 396.45123 93.004984 
L 397.264493 91.467124 
L 398.891018 87.680615 
L 400.517544 83.151433 
L 403.770596 73.798006 
L 405.397122 70.028084 
L 406.210384 68.600454 
L 407.023647 67.565572 
L 407.83691 66.97322 
L 408.650173 66.808732 
L 409.463436 67.041326 
L 410.276699 67.640225 
L 411.089962 68.574647 
L 411.903225 69.813812 
L 412.716488 71.326942 
L 414.343013 75.051976 
L 415.969539 79.499682 
L 420.035854 91.368368 
L 421.662379 95.290956 
L 422.475642 96.86054 
L 423.288905 98.097333 
L 424.102168 98.958194 
L 424.915431 99.442357 
L 425.728694 99.559649 
L 426.541957 99.3199 
L 427.35522 98.732937 
L 428.168482 97.808589 
L 428.981745 96.556685 
L 429.795008 94.987052 
L 430.608271 93.109519 
L 432.234797 88.482585 
L 437.114374 72.477517 
L 437.927637 70.386495 
L 438.7409 68.686661 
L 439.554163 67.462944 
L 440.367426 66.778385 
L 441.180689 66.60847 
L 441.993952 66.906796 
L 442.807214 67.626962 
L 443.620477 68.722566 
L 444.43374 70.147205 
L 446.060266 73.79798 
L 447.686792 78.208072 
L 453.379632 94.670471 
L 455.006158 98.361598 
L 455.819421 99.842005 
L 456.632684 101.030716 
L 457.445946 101.909045 
L 458.259209 102.462425 
L 459.072472 102.67629 
L 459.885735 102.536076 
L 460.698998 102.027215 
L 461.512261 101.135142 
L 462.325524 99.845291 
L 463.138787 98.143095 
L 463.95205 96.01399 
L 465.578575 90.583881 
L 469.64489 75.097476 
L 470.458153 72.558622 
L 471.271416 70.464341 
L 472.084678 68.92539 
L 472.897941 68.023042 
L 473.711204 67.720637 
L 474.524467 67.952036 
L 475.33773 68.651094 
L 476.150993 69.751672 
L 476.964256 71.187627 
L 478.590782 74.801102 
L 485.096885 90.932541 
L 486.72341 94.036656 
L 487.536673 95.31131 
L 488.349936 96.368056 
L 489.163199 97.18497 
L 489.976462 97.751371 
L 490.789725 98.059387 
L 491.602988 98.101144 
L 492.416251 97.86877 
L 493.229514 97.354392 
L 494.042776 96.550138 
L 494.856039 95.448135 
L 495.669302 94.04051 
L 496.482565 92.31939 
L 498.109091 88.011613 
L 498.109091 88.011613 
" clip-path="url(#p03d32b466d)" style="fill: none; stroke-dasharray: 3.7,1.6; stroke-dashoffset: 0; stroke: #8b0000"/>
   </g>
   <g id="patch_3">
    <path d="M 72 143.28 
L 72 34.56 
" style="fill: none; stroke: #000000; stroke-width: 0.8; stroke-linejoin: miter; stroke-linecap: square"/>
   </g>
   <g id="patch_4">
    <path d="M 518.4 143.28 
L 518.4 34.56 
" style="fill: none; stroke: #000000; stroke-width: 0.8; stroke-linejoin: miter; stroke-linecap: square"/>
   </g>
   <g id="patch_5">
    <path d="M 72 143.28 
L 518.4 143.28 
" style="fill: none; stroke: #000000; stroke-width: 0.8; stroke-linejoin: miter; stroke-linecap: square"/>
   </g>
   <g id="patch_6">
    <path d="M 72 34.56 
L 518.4 34.56 
" style="fill: none; stroke: #000000; stroke-width: 0.8; stroke-linejoin: miter; stroke-linecap: square"/>
   </g>
   <g id="legend_1">
    <g id="patch_7">
     <path d="M 403.061945 81.196624 
L 509.3 81.196624 
Q 511.9 81.196624 511.9 78.596624 
L 511.9 43.66 
Q 511.9 41.06 509.3 41.06 
L 403.061945 41.06 
Q 400.461945 41.06 400.461945 43.66 
L 400.461945 78.596624 
Q 400.461945 81.196624 403.061945 81.196624 
z
" style="fill: #ffffff; opacity: 0.8; stroke: #cccccc; stroke-linejoin: miter"/>
    </g>
    <g id="line2d_6">
     <path d="M 405.661945 50.81 
L 418.661945 50.81 
L 431.661945 50.81 
" style="fill: none; stroke: #ff0000; stroke-linecap: square"/>
    </g>
    <g id="text_5">
     <!-- MCMC -->
     <g transform="translate(442.061945 55.36)scale(0.13 -0.13)">
      <defs>
       <path id="CMR17-4d" d="M 1338 4224 
C 1299 4320 1293 4320 1158 4320 
L 339 4320 
L 339 4160 
C 781 4160 851 4160 851 3875 
L 851 610 
C 851 451 851 153 339 153 
L 339 -13 
C 486 0 755 0 915 0 
C 1075 0 1344 0 1491 -13 
L 1491 153 
C 979 153 979 451 979 610 
L 979 4135 
L 986 4135 
L 2490 89 
C 2515 25 2528 -13 2579 -13 
C 2630 -13 2643 25 2669 89 
L 4186 4166 
L 4192 4166 
L 4192 438 
C 4192 153 4122 153 3680 153 
L 3680 -13 
C 3853 0 4198 0 4384 0 
C 4570 0 4922 0 5094 -13 
L 5094 153 
C 4653 153 4582 153 4582 438 
L 4582 3875 
C 4582 4160 4653 4160 5094 4160 
L 5094 4320 
L 4282 4320 
C 4147 4320 4141 4314 4102 4218 
L 2720 502 
L 1338 4224 
z
" transform="scale(0.015625)"/>
       <path id="CMR17-43" d="M 3974 4289 
C 3974 4403 3968 4410 3930 4410 
C 3904 4410 3898 4403 3853 4327 
L 3571 3792 
C 3258 4187 2874 4416 2381 4416 
C 1286 4416 294 3456 294 2148 
C 294 826 1286 -128 2387 -128 
C 3366 -128 3974 730 3974 1461 
C 3974 1524 3974 1550 3917 1550 
C 3866 1550 3866 1531 3859 1474 
C 3808 585 3168 38 2477 38 
C 1824 38 781 495 781 2147 
C 781 3805 1843 4250 2464 4250 
C 3187 4250 3712 3628 3834 2745 
C 3846 2668 3846 2655 3904 2655 
C 3974 2655 3974 2668 3974 2783 
L 3974 4289 
z
" transform="scale(0.015625)"/>
      </defs>
      <use xlink:href="#CMR17-4d" transform="scale(0.996264)"/>
      <use xlink:href="#CMR17-43" transform="translate(84.686941 0)scale(0.996264)"/>
      <use xlink:href="#CMR17-4d" transform="translate(151.196821 0)scale(0.996264)"/>
      <use xlink:href="#CMR17-43" transform="translate(235.883762 0)scale(0.996264)"/>
     </g>
    </g>
    <g id="line2d_7">
     <path d="M 405.661945 68.928312 
L 418.661945 68.928312 
L 431.661945 68.928312 
" style="fill: none; stroke-dasharray: 3.7,1.6; stroke-dashoffset: 0; stroke: #8b0000"/>
    </g>
    <g id="text_6">
     <!-- Experiment -->
     <g transform="translate(442.061945 73.478312)scale(0.13 -0.13)">
      <defs>
       <path id="CMR17-45" d="M 3885 1615 
L 3770 1615 
C 3629 676 3546 166 2419 166 
L 1530 166 
C 1274 166 1261 197 1261 414 
L 1261 2176 
L 1862 2176 
C 2464 2176 2522 1960 2522 1430 
L 2637 1430 
L 2637 3081 
L 2522 3081 
C 2522 2557 2464 2342 1862 2342 
L 1261 2342 
L 1261 3913 
C 1261 4128 1274 4160 1530 4160 
L 2406 4160 
C 3398 4160 3514 3769 3603 2929 
L 3718 2929 
L 3565 4325 
L 326 4325 
L 326 4160 
C 768 4160 838 4160 838 3874 
L 838 451 
C 838 166 768 166 326 166 
L 326 0 
L 3654 0 
L 3885 1615 
z
" transform="scale(0.015625)"/>
       <path id="CMR17-78" d="M 1664 1477 
C 1856 1726 2074 2006 2253 2216 
C 2464 2458 2707 2560 2989 2560 
L 2989 2726 
C 2880 2726 2656 2726 2541 2726 
C 2368 2726 2170 2726 2022 2732 
L 2022 2566 
C 2112 2553 2163 2489 2163 2400 
C 2163 2285 2099 2215 2067 2171 
L 1594 1573 
L 1030 2306 
C 973 2376 973 2388 973 2420 
C 973 2497 1037 2560 1146 2560 
L 1146 2732 
C 992 2726 717 2726 557 2726 
C 384 2726 179 2726 38 2732 
L 38 2560 
C 384 2560 461 2534 614 2343 
L 1350 1395 
C 1363 1382 1395 1344 1395 1325 
C 1395 1299 838 619 768 530 
C 480 185 179 160 6 160 
L 6 0 
C 115 0 339 0 454 0 
C 582 0 864 0 979 -6 
L 979 160 
C 941 166 838 179 838 325 
C 838 440 890 510 947 586 
L 1478 1236 
L 2035 512 
C 2086 442 2163 346 2163 301 
C 2163 211 2086 160 1984 160 
L 1984 -6 
C 2138 0 2413 0 2573 0 
C 2746 0 2950 0 3091 -6 
L 3091 160 
C 2771 160 2675 172 2522 370 
L 1664 1477 
z
" transform="scale(0.015625)"/>
       <path id="CMR17-72" d="M 960 1497 
C 960 2112 1222 2688 1702 2688 
C 1747 2688 1792 2682 1837 2662 
C 1837 2662 1696 2617 1696 2452 
C 1696 2298 1818 2234 1914 2234 
C 1990 2234 2131 2279 2131 2458 
C 2131 2663 1926 2790 1709 2790 
C 1222 2790 1011 2317 947 2093 
L 941 2093 
L 941 2790 
L 198 2720 
L 198 2554 
C 576 2554 634 2515 634 2208 
L 634 428 
C 634 184 608 153 198 153 
L 198 -13 
C 352 0 646 0 813 0 
C 998 0 1325 0 1498 -13 
L 1498 153 
C 1037 153 960 153 960 440 
L 960 1497 
z
" transform="scale(0.015625)"/>
      </defs>
      <use xlink:href="#CMR17-45" transform="scale(0.996264)"/>
      <use xlink:href="#CMR17-78" transform="translate(62.586301 0)scale(0.996264)"/>
      <use xlink:href="#CMR17-70" transform="translate(110.879216 0)scale(0.996264)"/>
      <use xlink:href="#CMR17-65" transform="translate(164.377025 0)scale(0.996264)"/>
      <use xlink:href="#CMR17-72" transform="translate(204.862685 0)scale(0.996264)"/>
      <use xlink:href="#CMR17-69" transform="translate(240.143453 0)scale(0.996264)"/>
      <use xlink:href="#CMR17-6d" transform="translate(265.014512 0)scale(0.996264)"/>
      <use xlink:href="#CMR17-65" transform="translate(341.934101 0)scale(0.996264)"/>
      <use xlink:href="#CMR17-6e" transform="translate(382.419762 0)scale(0.996264)"/>
      <use xlink:href="#CMR17-74" transform="translate(430.712678 0)scale(0.996264)"/>
     </g>
    </g>
   </g>
  </g>
  <g id="axes_2">
   <g id="patch_8">
    <path d="M 72 252 
L 518.4 252 
L 518.4 143.28 
L 72 143.28 
z
" style="fill: #ffffff"/>
   </g>
   <g id="matplotlib.axis_3">
    <g id="xtick_1">
     <g id="line2d_8">
      <defs>
       <path id="m4e8ba6c754" d="M 0 0 
L 0 3.5 
" style="stroke: #000000; stroke-width: 0.8"/>
      </defs>
      <g>
       <use xlink:href="#m4e8ba6c754" x="92.290909" y="252" style="stroke: #000000; stroke-width: 0.8"/>
      </g>
     </g>
     <g id="text_7">
      <!-- $\mathdefault{0}$ -->
      <g transform="translate(89.120539 267.994028)scale(0.13 -0.13)">
       <use xlink:href="#CMR17-30" transform="scale(0.996264)"/>
      </g>
     </g>
    </g>
    <g id="xtick_2">
     <g id="line2d_9">
      <g>
       <use xlink:href="#m4e8ba6c754" x="173.617198" y="252" style="stroke: #000000; stroke-width: 0.8"/>
      </g>
     </g>
     <g id="text_8">
      <!-- $\mathdefault{1}$ -->
      <g transform="translate(170.446828 267.994028)scale(0.13 -0.13)">
       <defs>
        <path id="CMR17-31" d="M 1702 4058 
C 1702 4192 1696 4192 1606 4192 
C 1357 3916 979 3827 621 3827 
C 602 3827 570 3827 563 3808 
C 557 3795 557 3782 557 3648 
C 755 3648 1088 3686 1344 3839 
L 1344 461 
C 1344 236 1331 160 781 160 
L 589 160 
L 589 0 
C 896 0 1216 0 1523 0 
C 1830 0 2150 0 2458 0 
L 2458 160 
L 2266 160 
C 1715 160 1702 230 1702 458 
L 1702 4058 
z
" transform="scale(0.015625)"/>
       </defs>
       <use xlink:href="#CMR17-31" transform="scale(0.996264)"/>
      </g>
     </g>
    </g>
    <g id="xtick_3">
     <g id="line2d_10">
      <g>
       <use xlink:href="#m4e8ba6c754" x="254.943487" y="252" style="stroke: #000000; stroke-width: 0.8"/>
      </g>
     </g>
     <g id="text_9">
      <!-- $\mathdefault{2}$ -->
      <g transform="translate(251.773117 267.994028)scale(0.13 -0.13)">
       <use xlink:href="#CMR17-32" transform="scale(0.996264)"/>
      </g>
     </g>
    </g>
    <g id="xtick_4">
     <g id="line2d_11">
      <g>
       <use xlink:href="#m4e8ba6c754" x="336.269776" y="252" style="stroke: #000000; stroke-width: 0.8"/>
      </g>
     </g>
     <g id="text_10">
      <!-- $\mathdefault{3}$ -->
      <g transform="translate(333.099406 267.994028)scale(0.13 -0.13)">
       <defs>
        <path id="CMR17-33" d="M 1414 2157 
C 1984 2157 2234 1662 2234 1090 
C 2234 320 1824 25 1453 25 
C 1114 25 563 194 390 693 
C 422 680 454 680 486 680 
C 640 680 755 782 755 948 
C 755 1133 614 1216 486 1216 
C 378 1216 211 1165 211 926 
C 211 335 787 -128 1466 -128 
C 2176 -128 2720 430 2720 1085 
C 2720 1707 2208 2157 1600 2227 
C 2086 2328 2554 2756 2554 3329 
C 2554 3820 2048 4179 1472 4179 
C 890 4179 378 3829 378 3329 
C 378 3110 544 3072 627 3072 
C 762 3072 877 3155 877 3321 
C 877 3486 762 3569 627 3569 
C 602 3569 570 3569 544 3557 
C 730 3959 1235 4032 1459 4032 
C 1683 4032 2106 3925 2106 3320 
C 2106 3143 2080 2828 1862 2550 
C 1670 2304 1453 2304 1242 2284 
C 1210 2284 1062 2269 1037 2269 
C 992 2263 966 2257 966 2208 
C 966 2163 973 2157 1101 2157 
L 1414 2157 
z
" transform="scale(0.015625)"/>
       </defs>
       <use xlink:href="#CMR17-33" transform="scale(0.996264)"/>
      </g>
     </g>
    </g>
    <g id="xtick_5">
     <g id="line2d_12">
      <g>
       <use xlink:href="#m4e8ba6c754" x="417.596065" y="252" style="stroke: #000000; stroke-width: 0.8"/>
      </g>
     </g>
     <g id="text_11">
      <!-- $\mathdefault{4}$ -->
      <g transform="translate(414.425695 267.994028)scale(0.13 -0.13)">
       <defs>
        <path id="CMR17-34" d="M 2150 4122 
C 2150 4256 2144 4256 2029 4256 
L 128 1254 
L 128 1088 
L 1779 1088 
L 1779 457 
C 1779 224 1766 160 1318 160 
L 1197 160 
L 1197 0 
C 1402 0 1747 0 1965 0 
C 2182 0 2528 0 2733 0 
L 2733 160 
L 2611 160 
C 2163 160 2150 224 2150 457 
L 2150 1088 
L 2803 1088 
L 2803 1254 
L 2150 1254 
L 2150 4122 
z
M 1798 3703 
L 1798 1254 
L 256 1254 
L 1798 3703 
z
" transform="scale(0.015625)"/>
       </defs>
       <use xlink:href="#CMR17-34" transform="scale(0.996264)"/>
      </g>
     </g>
    </g>
    <g id="xtick_6">
     <g id="line2d_13">
      <g>
       <use xlink:href="#m4e8ba6c754" x="498.922354" y="252" style="stroke: #000000; stroke-width: 0.8"/>
      </g>
     </g>
     <g id="text_12">
      <!-- $\mathdefault{5}$ -->
      <g transform="translate(495.751984 267.994028)scale(0.13 -0.13)">
       <defs>
        <path id="CMR17-35" d="M 730 3692 
C 794 3666 1056 3584 1325 3584 
C 1920 3584 2246 3911 2432 4100 
C 2432 4157 2432 4192 2394 4192 
C 2387 4192 2374 4192 2323 4163 
C 2099 4058 1837 3973 1517 3973 
C 1325 3973 1037 3999 723 4139 
C 653 4171 640 4171 634 4171 
C 602 4171 595 4164 595 4037 
L 595 2203 
C 595 2089 595 2057 659 2057 
C 691 2057 704 2070 736 2114 
C 941 2401 1222 2522 1542 2522 
C 1766 2522 2246 2382 2246 1289 
C 2246 1085 2246 715 2054 421 
C 1894 159 1645 25 1370 25 
C 947 25 518 320 403 814 
C 429 807 480 795 506 795 
C 589 795 749 840 749 1038 
C 749 1210 627 1280 506 1280 
C 358 1280 262 1190 262 1011 
C 262 454 704 -128 1382 -128 
C 2042 -128 2669 440 2669 1264 
C 2669 2030 2170 2624 1549 2624 
C 1222 2624 947 2503 730 2274 
L 730 3692 
z
" transform="scale(0.015625)"/>
       </defs>
       <use xlink:href="#CMR17-35" transform="scale(0.996264)"/>
      </g>
     </g>
    </g>
    <g id="text_13">
     <!-- time (sec) -->
     <g transform="translate(267.68824 284.225914)scale(0.13 -0.13)">
      <use xlink:href="#CMR17-74" transform="scale(0.996264)"/>
      <use xlink:href="#CMR17-69" transform="translate(35.280768 0)scale(0.996264)"/>
      <use xlink:href="#CMR17-6d" transform="translate(60.151826 0)scale(0.996264)"/>
      <use xlink:href="#CMR17-65" transform="translate(137.071416 0)scale(0.996264)"/>
      <use xlink:href="#CMR17-28" transform="translate(207.633043 0)scale(0.996264)"/>
      <use xlink:href="#CMR17-73" transform="translate(242.913811 0)scale(0.996264)"/>
      <use xlink:href="#CMR17-65" transform="translate(278.715148 0)scale(0.996264)"/>
      <use xlink:href="#CMR17-63" transform="translate(319.200809 0)scale(0.996264)"/>
      <use xlink:href="#CMR17-29" transform="translate(359.686469 0)scale(0.996264)"/>
     </g>
    </g>
   </g>
   <g id="matplotlib.axis_4">
    <g id="ytick_4">
     <g id="line2d_14">
      <g>
       <use xlink:href="#me8296197bc" x="72" y="230.790567" style="stroke: #000000; stroke-width: 0.8"/>
      </g>
     </g>
     <g id="text_14">
      <!-- $\mathdefault{−0.02}$ -->
      <g transform="translate(32.381779 235.287581)scale(0.13 -0.13)">
       <use xlink:href="#CMSY10-0" transform="scale(0.996264)"/>
       <use xlink:href="#CMR17-30" transform="translate(77.487468 0)scale(0.996264)"/>
       <use xlink:href="#CMMI12-3a" transform="translate(123.177945 0)scale(0.996264)"/>
       <use xlink:href="#CMR17-30" transform="translate(150.275122 0)scale(0.996264)"/>
       <use xlink:href="#CMR17-32" transform="translate(195.965599 0)scale(0.996264)"/>
      </g>
     </g>
    </g>
    <g id="ytick_5">
     <g id="line2d_15">
      <g>
       <use xlink:href="#me8296197bc" x="72" y="197.140065" style="stroke: #000000; stroke-width: 0.8"/>
      </g>
     </g>
     <g id="text_15">
      <!-- $\mathdefault{0.00}$ -->
      <g transform="translate(42.455149 201.637079)scale(0.13 -0.13)">
       <use xlink:href="#CMR17-30" transform="scale(0.996264)"/>
       <use xlink:href="#CMMI12-3a" transform="translate(45.690477 0)scale(0.996264)"/>
       <use xlink:href="#CMR17-30" transform="translate(72.787654 0)scale(0.996264)"/>
       <use xlink:href="#CMR17-30" transform="translate(118.478131 0)scale(0.996264)"/>
      </g>
     </g>
    </g>
    <g id="ytick_6">
     <g id="line2d_16">
      <g>
       <use xlink:href="#me8296197bc" x="72" y="163.489562" style="stroke: #000000; stroke-width: 0.8"/>
      </g>
     </g>
     <g id="text_16">
      <!-- $\mathdefault{0.02}$ -->
      <g transform="translate(42.455149 167.986576)scale(0.13 -0.13)">
       <use xlink:href="#CMR17-30" transform="scale(0.996264)"/>
       <use xlink:href="#CMMI12-3a" transform="translate(45.690477 0)scale(0.996264)"/>
       <use xlink:href="#CMR17-30" transform="translate(72.787654 0)scale(0.996264)"/>
       <use xlink:href="#CMR17-32" transform="translate(118.478131 0)scale(0.996264)"/>
      </g>
     </g>
    </g>
    <g id="text_17">
     <!-- displacement (m) -->
     <g transform="translate(25.143921 245.759159)rotate(-90)scale(0.13 -0.13)">
      <use xlink:href="#CMR17-64" transform="scale(0.996264)"/>
      <use xlink:href="#CMR17-69" transform="translate(50.89537 0)scale(0.996264)"/>
      <use xlink:href="#CMR17-73" transform="translate(75.766428 0)scale(0.996264)"/>
      <use xlink:href="#CMR17-70" transform="translate(111.567766 0)scale(0.996264)"/>
      <use xlink:href="#CMR17-6c" transform="translate(162.463136 0)scale(0.996264)"/>
      <use xlink:href="#CMR17-61" transform="translate(187.334194 0)scale(0.996264)"/>
      <use xlink:href="#CMR17-63" transform="translate(233.024671 0)scale(0.996264)"/>
      <use xlink:href="#CMR17-65" transform="translate(273.510332 0)scale(0.996264)"/>
      <use xlink:href="#CMR17-6d" transform="translate(313.995992 0)scale(0.996264)"/>
      <use xlink:href="#CMR17-65" transform="translate(390.915582 0)scale(0.996264)"/>
      <use xlink:href="#CMR17-6e" transform="translate(431.401243 0)scale(0.996264)"/>
      <use xlink:href="#CMR17-74" transform="translate(479.694158 0)scale(0.996264)"/>
      <use xlink:href="#CMR17-28" transform="translate(545.050893 0)scale(0.996264)"/>
      <use xlink:href="#CMR17-6d" transform="translate(580.33166 0)scale(0.996264)"/>
      <use xlink:href="#CMR17-29" transform="translate(657.25125 0)scale(0.996264)"/>
     </g>
    </g>
   </g>
   <g id="line2d_17">
    <path d="M 92.290909 247.058182 
L 93.104172 246.210097 
L 93.917435 243.703609 
L 94.730698 239.649777 
L 95.543961 234.226414 
L 97.170486 220.250643 
L 101.236801 180.959992 
L 102.050064 174.592019 
L 102.863327 169.189571 
L 103.67659 164.850672 
L 104.489852 161.618963 
L 105.303115 159.488162 
L 106.116378 158.409514 
L 106.929641 158.301433 
L 107.742904 159.060443 
L 108.556167 160.572394 
L 109.36943 162.722999 
L 110.182693 165.406809 
L 111.809218 172.033836 
L 113.435744 179.970229 
L 115.06227 189.005792 
L 117.502059 204.34869 
L 120.75511 225.812777 
L 122.381636 234.689405 
L 123.194899 238.025403 
L 124.008162 240.370226 
L 124.821425 241.552793 
L 125.634688 241.434844 
L 126.44795 239.92316 
L 127.261213 236.979708 
L 128.074476 232.628854 
L 128.887739 226.960953 
L 129.701002 220.131866 
L 131.327528 203.909073 
L 134.580579 169.799284 
L 135.393842 162.84068 
L 136.207105 157.087171 
L 137.020368 152.744036 
L 137.833631 149.950698 
L 138.646894 148.775024 
L 139.460157 149.211967 
L 140.27342 151.186572 
L 141.086682 154.561023 
L 141.899945 159.145144 
L 143.526471 171.000312 
L 147.592786 204.59892 
L 149.219311 215.421517 
L 150.032574 219.835507 
L 150.845837 223.553726 
L 151.6591 226.587834 
L 152.472363 228.966782 
L 153.285626 230.727372 
L 154.098889 231.905357 
L 154.912152 232.527944 
L 155.725414 232.608443 
L 156.538677 232.143534 
L 157.35194 231.113463 
L 158.165203 229.485106 
L 158.978466 227.217657 
L 159.791729 224.270375 
L 160.604992 220.611669 
L 161.418255 216.228639 
L 163.04478 205.384292 
L 164.671306 192.30937 
L 167.924358 164.981405 
L 168.737621 159.310352 
L 169.550884 154.623771 
L 170.364146 151.153476 
L 171.177409 149.091218 
L 171.990672 148.575587 
L 172.803935 149.681614 
L 173.617198 152.413877 
L 174.430461 156.703697 
L 175.243724 162.410703 
L 176.87025 177.195862 
L 180.936564 219.542169 
L 181.749827 226.381865 
L 182.56309 232.073867 
L 183.376353 236.464093 
L 184.189616 239.463512 
L 185.002878 241.048397 
L 185.816141 241.256552 
L 186.629404 240.179976 
L 187.442667 237.954647 
L 188.25593 234.748331 
L 189.069193 230.747427 
L 190.695719 221.123188 
L 195.575296 189.871331 
L 197.201822 180.743355 
L 198.828348 172.604628 
L 200.454873 165.699343 
L 201.268136 162.862412 
L 202.081399 160.557821 
L 202.894662 158.8972 
L 203.707925 158.000484 
L 204.521188 157.986651 
L 205.334451 158.962957 
L 206.147714 161.013573 
L 206.960976 164.188589 
L 207.774239 168.494396 
L 208.587502 173.886341 
L 210.214028 187.472714 
L 215.093605 233.931425 
L 215.906868 239.427336 
L 216.720131 243.553183 
L 217.533394 246.131115 
L 218.346657 247.050411 
L 219.15992 246.273836 
L 219.973183 243.839668 
L 220.786446 239.859262 
L 221.599709 234.510323 
L 223.226234 220.683141 
L 227.292549 181.661556 
L 228.105812 175.305462 
L 228.919075 169.893872 
L 229.732337 165.522844 
L 230.5456 162.235016 
L 231.358863 160.024242 
L 232.172126 158.843145 
L 232.985389 158.612785 
L 233.798652 159.233523 
L 234.611915 160.596098 
L 235.425178 162.591925 
L 236.238441 165.121786 
L 237.864966 171.46888 
L 239.491492 179.20129 
L 241.118018 188.142687 
L 242.744544 198.197567 
L 247.624121 230.349913 
L 248.437384 234.620562 
L 249.250647 238.084916 
L 250.06391 240.548162 
L 250.877173 241.835985 
L 251.690435 241.807918 
L 252.503698 240.369571 
L 253.316961 237.482719 
L 254.130224 233.172378 
L 254.943487 227.530204 
L 255.75675 220.713796 
L 257.383276 204.484878 
L 260.636327 170.278382 
L 261.44959 163.281483 
L 262.262853 157.483299 
L 263.076116 153.08817 
L 263.889379 150.234527 
L 264.702642 148.989404 
L 265.515905 149.347299 
L 266.329167 151.233372 
L 267.14243 154.510646 
L 267.955693 158.990605 
L 269.582219 170.627321 
L 273.648533 203.810141 
L 275.275059 214.60848 
L 276.088322 219.052561 
L 276.901585 222.82965 
L 277.714848 225.950131 
L 278.528111 228.440277 
L 279.341374 230.33291 
L 280.154637 231.658691 
L 280.967899 232.438893 
L 281.781162 232.680361 
L 282.594425 232.373144 
L 283.407688 231.491052 
L 284.220951 229.995077 
L 285.034214 227.839394 
L 285.847477 224.979363 
L 286.66074 221.380797 
L 287.474003 217.02959 
L 289.100528 206.166021 
L 290.727054 192.976857 
L 293.980106 165.261929 
L 294.793369 159.486215 
L 295.606631 154.698903 
L 296.419894 151.13412 
L 297.233157 148.985107 
L 298.04642 148.391163 
L 298.859683 149.427356 
L 299.672946 152.097784 
L 300.486209 156.332973 
L 301.299472 161.991654 
L 302.112735 168.866894 
L 303.73926 185.175053 
L 306.179049 211.175481 
L 307.805575 225.793098 
L 308.618838 231.507576 
L 309.432101 235.936032 
L 310.245363 238.990776 
L 311.058626 240.648709 
L 311.871889 240.947377 
L 312.685152 239.977497 
L 313.498415 237.872698 
L 314.311678 234.797353 
L 315.124941 230.933525 
L 316.751467 221.580923 
L 322.444307 186.028952 
L 324.070833 177.229294 
L 325.697358 169.417251 
L 327.323884 163.010138 
L 328.137147 160.552401 
L 328.95041 158.743863 
L 329.763673 157.710052 
L 330.576936 157.574707 
L 331.390199 158.448805 
L 332.203461 160.419045 
L 333.016724 163.536807 
L 333.829987 167.80856 
L 334.64325 173.188633 
L 336.269776 186.80937 
L 341.149353 233.62541 
L 341.962616 239.191979 
L 342.775879 243.388416 
L 343.589142 246.036903 
L 344.402405 247.027103 
L 345.215668 246.322323 
L 346.028931 243.96134 
L 346.842193 240.055758 
L 347.655456 234.7831 
L 349.281982 221.109216 
L 353.348297 182.368939 
L 354.161559 176.026458 
L 354.974822 170.607084 
L 355.788085 166.204893 
L 356.601348 162.861529 
L 357.414611 160.571013 
L 358.227874 159.287392 
L 359.041137 158.934422 
L 359.8544 159.416367 
L 360.667663 160.628908 
L 361.480925 162.46922 
L 362.294188 164.844352 
L 363.920714 170.909938 
L 365.54724 178.436783 
L 367.173766 187.282292 
L 368.800291 197.363829 
L 373.679869 230.138563 
L 374.493132 234.541795 
L 375.306395 238.133138 
L 376.119657 240.713702 
L 376.93292 242.106019 
L 377.746183 242.167485 
L 378.559446 240.802599 
L 379.372709 237.972973 
L 380.185972 233.704282 
L 380.999235 228.089467 
L 381.812498 221.28781 
L 383.439024 205.05793 
L 386.692075 170.765938 
L 387.505338 163.733007 
L 388.318601 157.891981 
L 389.131864 153.446186 
L 389.945127 150.533014 
L 390.75839 149.21865 
L 391.571652 149.497152 
L 392.384915 151.293834 
L 393.198178 154.472623 
L 394.011441 158.846746 
L 395.637967 170.260961 
L 400.517544 208.692904 
L 402.14407 218.263082 
L 402.957333 222.098383 
L 403.770596 225.30476 
L 404.583859 227.905767 
L 405.397122 229.930208 
L 406.210384 231.40362 
L 407.023647 232.341318 
L 407.83691 232.743673 
L 408.650173 232.594107 
L 409.463436 231.860011 
L 410.276699 230.496524 
L 411.089962 228.452838 
L 411.903225 225.680458 
L 412.716488 222.142643 
L 413.52975 217.824119 
L 414.343013 212.740131 
L 415.969539 200.531505 
L 420.849116 159.672714 
L 421.662379 154.786429 
L 422.475642 151.128537 
L 423.288905 148.893684 
L 424.102168 148.221818 
L 424.915431 149.188 
L 425.728694 151.795841 
L 426.541957 155.975091 
L 427.35522 161.583631 
L 428.168482 168.413814 
L 429.795008 184.645967 
L 432.234797 210.576442 
L 433.861323 225.194813 
L 434.674586 230.930143 
L 435.487848 235.395686 
L 436.301111 238.505104 
L 437.114374 240.235921 
L 437.927637 240.625383 
L 438.7409 239.762878 
L 439.554163 237.779612 
L 440.367426 234.836483 
L 441.180689 231.111143 
L 442.807214 222.033183 
L 449.313318 182.301183 
L 450.939843 173.763016 
L 452.566369 166.306613 
L 453.379632 163.166144 
L 454.192895 160.556155 
L 455.006158 158.600503 
L 455.819421 157.430248 
L 456.632684 157.173832 
L 457.445946 157.945883 
L 458.259209 159.835575 
L 459.072472 162.895532 
L 459.885735 167.132273 
L 460.698998 172.499101 
L 462.325524 186.150305 
L 464.765312 210.747474 
L 466.391838 226.538943 
L 467.205101 233.308427 
L 468.018364 238.94375 
L 468.831627 243.209338 
L 469.64489 245.92748 
L 470.458153 246.988263 
L 471.271416 246.355553 
L 472.084678 244.068608 
L 472.897941 240.239234 
L 473.711204 235.044699 
L 475.33773 221.528779 
L 479.404044 183.081941 
L 480.217307 176.754795 
L 481.03057 171.328988 
L 481.843833 166.896602 
L 482.657096 163.498296 
L 483.470359 161.12829 
L 484.283622 159.742096 
L 485.096885 159.266224 
L 485.910148 159.608897 
L 486.72341 160.670798 
L 487.536673 162.354908 
L 488.349936 164.574586 
L 489.163199 167.259241 
L 490.789725 173.835478 
L 492.416251 181.874728 
L 494.042776 191.318067 
L 495.669302 202.018507 
L 498.109091 219.239977 
L 498.109091 219.239977 
" clip-path="url(#pf03d586afd)" style="fill: none; stroke: #0000ff; stroke-linecap: square"/>
   </g>
   <g id="line2d_18">
    <path d="M 92.290909 247.058182 
L 93.104172 246.801286 
L 93.917435 245.905394 
L 94.730698 244.424227 
L 95.543961 242.411505 
L 96.357224 239.920948 
L 97.983749 233.721209 
L 99.610275 226.254774 
L 102.050064 213.62017 
L 106.116378 192.317308 
L 107.742904 184.963821 
L 109.36943 178.917489 
L 110.182693 176.489895 
L 110.995956 174.494787 
L 111.809218 172.957564 
L 112.622481 171.903622 
L 113.435744 171.358362 
L 114.249007 171.347181 
L 115.06227 171.895477 
L 115.875533 173.028649 
L 116.688796 174.772095 
L 117.502059 177.127748 
L 119.128584 183.284494 
L 121.568373 194.402296 
L 123.194899 201.723016 
L 124.821425 207.893804 
L 125.634688 210.281702 
L 126.44795 212.169219 
L 127.261213 213.574247 
L 128.074476 214.514678 
L 128.887739 215.008403 
L 129.701002 215.073314 
L 130.514265 214.727303 
L 131.327528 213.98826 
L 132.140791 212.874078 
L 132.954054 211.407643 
L 134.580579 207.594462 
L 136.207105 202.92659 
L 141.899945 185.375667 
L 143.526471 181.527503 
L 144.339734 180.006125 
L 145.152997 178.80672 
L 145.96626 177.969417 
L 146.779523 177.534341 
L 147.592786 177.541622 
L 148.406048 178.031387 
L 149.219311 179.027805 
L 150.032574 180.491221 
L 150.845837 182.366018 
L 152.472363 187.127299 
L 154.098889 192.866733 
L 159.791729 214.14179 
L 160.604992 216.52714 
L 161.418255 218.557559 
L 162.231518 220.168767 
L 163.04478 221.296487 
L 163.858043 221.876438 
L 164.671306 221.844341 
L 165.484569 221.160564 
L 166.297832 219.88406 
L 167.111095 218.09843 
L 167.924358 215.887274 
L 169.550884 210.522785 
L 174.430461 192.840179 
L 176.056987 188.196327 
L 176.87025 186.281095 
L 177.683512 184.67752 
L 178.496775 183.415999 
L 179.310038 182.526929 
L 180.123301 182.040705 
L 180.936564 181.987724 
L 181.749827 182.387626 
L 182.56309 183.217023 
L 183.376353 184.441768 
L 184.189616 186.027718 
L 185.002878 187.940728 
L 186.629404 192.611343 
L 188.25593 198.180454 
L 193.135507 216.262561 
L 193.94877 218.584461 
L 194.762033 220.453716 
L 195.575296 221.774521 
L 196.388559 222.451069 
L 197.201822 222.387556 
L 198.015085 221.521412 
L 198.828348 219.92301 
L 199.64161 217.695961 
L 200.454873 214.943876 
L 202.081399 208.279036 
L 206.960976 186.359092 
L 208.587502 180.540233 
L 210.214028 175.980059 
L 211.027291 174.243502 
L 211.840554 172.907444 
L 212.653817 172.000494 
L 213.46708 171.551261 
L 214.280343 171.577935 
L 215.093605 172.057024 
L 215.906868 172.954616 
L 216.720131 174.236801 
L 217.533394 175.869666 
L 219.15992 180.051794 
L 220.786446 185.229709 
L 223.226234 194.215764 
L 225.666023 203.174192 
L 227.292549 208.138073 
L 228.105812 210.093204 
L 228.919075 211.597444 
L 229.732337 212.576031 
L 230.5456 212.975017 
L 231.358863 212.823712 
L 232.172126 212.172242 
L 232.985389 211.070733 
L 233.798652 209.56931 
L 234.611915 207.718099 
L 236.238441 203.166813 
L 237.864966 197.817882 
L 241.931281 183.823443 
L 243.557807 179.252243 
L 244.371069 177.432438 
L 245.184332 176.005101 
L 245.997595 175.031685 
L 246.810858 174.558458 
L 247.624121 174.570948 
L 248.437384 175.039496 
L 249.250647 175.934444 
L 250.06391 177.226132 
L 250.877173 178.884903 
L 251.690435 180.881099 
L 253.316961 185.767128 
L 254.943487 191.636355 
L 258.196539 204.114304 
L 259.823064 209.241787 
L 260.636327 211.201316 
L 261.44959 212.633718 
L 262.262853 213.468915 
L 263.076116 213.729481 
L 263.889379 213.461153 
L 264.702642 212.709667 
L 265.515905 211.520759 
L 266.329167 209.940167 
L 267.14243 208.013627 
L 268.768956 203.305647 
L 270.395482 197.76624 
L 274.461796 183.415545 
L 276.088322 178.875795 
L 276.901585 177.130781 
L 277.714848 175.824875 
L 278.528111 175.007308 
L 279.341374 174.656623 
L 280.154637 174.733691 
L 280.967899 175.199384 
L 281.781162 176.014575 
L 282.594425 177.140134 
L 283.407688 178.536933 
L 285.034214 181.987739 
L 286.66074 186.053969 
L 291.540317 198.815641 
L 293.166843 202.214106 
L 293.980106 203.576925 
L 294.793369 204.668619 
L 295.606631 205.476591 
L 296.419894 205.993547 
L 297.233157 206.212196 
L 298.04642 206.125245 
L 298.859683 205.7254 
L 299.672946 205.00537 
L 300.486209 203.95786 
L 301.299472 202.57558 
L 302.112735 200.851235 
L 303.73926 196.479797 
L 307.805575 184.276322 
L 308.618838 182.354428 
L 309.432101 180.820528 
L 310.245363 179.766791 
L 311.058626 179.259112 
L 311.871889 179.258285 
L 312.685152 179.698831 
L 313.498415 180.51527 
L 314.311678 181.642123 
L 315.938204 184.565152 
L 320.004518 192.81498 
L 322.444307 197.040149 
L 324.884095 200.735009 
L 327.323884 204.016644 
L 328.95041 205.788902 
L 329.763673 206.399894 
L 330.576936 206.753441 
L 331.390199 206.794025 
L 332.203461 206.466133 
L 333.016724 205.714247 
L 333.829987 204.482853 
L 334.64325 202.716434 
L 335.456513 200.391882 
L 337.083039 194.526877 
L 340.33609 181.823309 
L 341.149353 179.255018 
L 341.962616 177.207627 
L 342.775879 175.820068 
L 343.589142 175.191976 
L 344.402405 175.265814 
L 345.215668 175.944749 
L 346.028931 177.131952 
L 346.842193 178.73059 
L 348.468719 182.774845 
L 351.721771 191.558866 
L 353.348297 195.221043 
L 354.974822 198.401569 
L 357.414611 202.555915 
L 360.667663 207.520931 
L 361.480925 208.552058 
L 362.294188 209.375953 
L 363.107451 209.925456 
L 363.920714 210.133406 
L 364.733977 209.932643 
L 365.54724 209.256006 
L 366.360503 208.036336 
L 367.173766 206.206472 
L 367.987029 203.734377 
L 369.613554 197.332442 
L 373.679869 179.524462 
L 374.493132 176.802391 
L 375.306395 174.69518 
L 376.119657 173.310575 
L 376.93292 172.612988 
L 377.746183 172.530997 
L 378.559446 172.99318 
L 379.372709 173.928117 
L 380.185972 175.264385 
L 380.999235 176.930562 
L 382.625761 180.966959 
L 389.945127 200.926995 
L 391.571652 204.552465 
L 393.198178 207.451967 
L 394.011441 208.535701 
L 394.824704 209.324838 
L 395.637967 209.781437 
L 396.45123 209.867558 
L 397.264493 209.54526 
L 398.077756 208.776604 
L 398.891018 207.523649 
L 399.704281 205.771777 
L 400.517544 203.599664 
L 402.14407 198.402702 
L 405.397122 187.453764 
L 406.210384 185.195885 
L 407.023647 183.333744 
L 407.83691 181.949668 
L 408.650173 181.047299 
L 409.463436 180.610611 
L 410.276699 180.623578 
L 411.089962 181.070172 
L 411.903225 181.934367 
L 412.716488 183.200136 
L 413.52975 184.851452 
L 414.343013 186.872288 
L 415.969539 191.947027 
L 417.596065 198.022818 
L 420.849116 210.512304 
L 422.475642 215.576292 
L 423.288905 217.517848 
L 424.102168 218.971518 
L 424.915431 219.944015 
L 425.728694 220.46027 
L 426.541957 220.54521 
L 427.35522 220.223765 
L 428.168482 219.520862 
L 428.981745 218.461432 
L 429.795008 217.070401 
L 430.608271 215.372701 
L 432.234797 211.162733 
L 433.861323 206.168512 
L 437.114374 195.708261 
L 438.7409 191.191303 
L 439.554163 189.318727 
L 440.367426 187.773056 
L 441.180689 186.566357 
L 441.993952 185.701241 
L 442.807214 185.180322 
L 443.620477 185.006214 
L 444.43374 185.181529 
L 445.247003 185.708882 
L 446.060266 186.590884 
L 446.873529 187.83015 
L 447.686792 189.429293 
L 449.313318 193.611036 
L 451.753106 201.248596 
L 453.379632 206.347782 
L 455.006158 210.730961 
L 455.819421 212.460658 
L 456.632684 213.795227 
L 457.445946 214.737018 
L 458.259209 215.304322 
L 459.072472 215.515429 
L 459.885735 215.388631 
L 460.698998 214.94222 
L 461.512261 214.194485 
L 462.325524 213.163719 
L 463.138787 211.868212 
L 464.765312 208.561822 
L 466.391838 204.558036 
L 469.64489 196.117667 
L 471.271416 192.519304 
L 472.084678 191.058938 
L 472.897941 189.884424 
L 473.711204 188.998762 
L 474.524467 188.395072 
L 475.33773 188.066479 
L 476.150993 188.006104 
L 476.964256 188.20707 
L 477.777519 188.662498 
L 478.590782 189.365511 
L 479.404044 190.309231 
L 480.217307 191.48678 
L 481.843833 194.464821 
L 484.283622 199.843814 
L 486.72341 205.233413 
L 488.349936 208.230309 
L 489.163199 209.420456 
L 489.976462 210.376938 
L 490.789725 211.090683 
L 491.602988 211.552622 
L 492.416251 211.753684 
L 493.229514 211.684797 
L 494.042776 211.336891 
L 494.856039 210.700897 
L 495.669302 209.767742 
L 496.482565 208.528356 
L 497.295828 206.985774 
L 498.109091 205.191444 
L 498.109091 205.191444 
" clip-path="url(#pf03d586afd)" style="fill: none; stroke-dasharray: 3.7,1.6; stroke-dashoffset: 0; stroke: #00008b"/>
   </g>
   <g id="patch_9">
    <path d="M 72 252 
L 72 143.28 
" style="fill: none; stroke: #000000; stroke-width: 0.8; stroke-linejoin: miter; stroke-linecap: square"/>
   </g>
   <g id="patch_10">
    <path d="M 518.4 252 
L 518.4 143.28 
" style="fill: none; stroke: #000000; stroke-width: 0.8; stroke-linejoin: miter; stroke-linecap: square"/>
   </g>
   <g id="patch_11">
    <path d="M 72 252 
L 518.4 252 
" style="fill: none; stroke: #000000; stroke-width: 0.8; stroke-linejoin: miter; stroke-linecap: square"/>
   </g>
   <g id="patch_12">
    <path d="M 72 143.28 
L 518.4 143.28 
" style="fill: none; stroke: #000000; stroke-width: 0.8; stroke-linejoin: miter; stroke-linecap: square"/>
   </g>
   <g id="legend_2">
    <g id="patch_13">
     <path d="M 403.061945 189.916624 
L 509.3 189.916624 
Q 511.9 189.916624 511.9 187.316624 
L 511.9 152.38 
Q 511.9 149.78 509.3 149.78 
L 403.061945 149.78 
Q 400.461945 149.78 400.461945 152.38 
L 400.461945 187.316624 
Q 400.461945 189.916624 403.061945 189.916624 
z
" style="fill: #ffffff; opacity: 0.8; stroke: #cccccc; stroke-linejoin: miter"/>
    </g>
    <g id="line2d_19">
     <path d="M 405.661945 159.53 
L 418.661945 159.53 
L 431.661945 159.53 
" style="fill: none; stroke: #0000ff; stroke-linecap: square"/>
    </g>
    <g id="text_18">
     <!-- MCMC -->
     <g transform="translate(442.061945 164.08)scale(0.13 -0.13)">
      <use xlink:href="#CMR17-4d" transform="scale(0.996264)"/>
      <use xlink:href="#CMR17-43" transform="translate(84.686941 0)scale(0.996264)"/>
      <use xlink:href="#CMR17-4d" transform="translate(151.196821 0)scale(0.996264)"/>
      <use xlink:href="#CMR17-43" transform="translate(235.883762 0)scale(0.996264)"/>
     </g>
    </g>
    <g id="line2d_20">
     <path d="M 405.661945 177.648312 
L 418.661945 177.648312 
L 431.661945 177.648312 
" style="fill: none; stroke-dasharray: 3.7,1.6; stroke-dashoffset: 0; stroke: #00008b"/>
    </g>
    <g id="text_19">
     <!-- Experiment -->
     <g transform="translate(442.061945 182.198312)scale(0.13 -0.13)">
      <use xlink:href="#CMR17-45" transform="scale(0.996264)"/>
      <use xlink:href="#CMR17-78" transform="translate(62.586301 0)scale(0.996264)"/>
      <use xlink:href="#CMR17-70" transform="translate(110.879216 0)scale(0.996264)"/>
      <use xlink:href="#CMR17-65" transform="translate(164.377025 0)scale(0.996264)"/>
      <use xlink:href="#CMR17-72" transform="translate(204.862685 0)scale(0.996264)"/>
      <use xlink:href="#CMR17-69" transform="translate(240.143453 0)scale(0.996264)"/>
      <use xlink:href="#CMR17-6d" transform="translate(265.014512 0)scale(0.996264)"/>
      <use xlink:href="#CMR17-65" transform="translate(341.934101 0)scale(0.996264)"/>
      <use xlink:href="#CMR17-6e" transform="translate(382.419762 0)scale(0.996264)"/>
      <use xlink:href="#CMR17-74" transform="translate(430.712678 0)scale(0.996264)"/>
     </g>
    </g>
   </g>
  </g>
 </g>
 <defs>
  <clipPath id="p03d32b466d">
   <rect x="72" y="34.56" width="446.4" height="108.72"/>
  </clipPath>
  <clipPath id="pf03d586afd">
   <rect x="72" y="143.28" width="446.4" height="108.72"/>
  </clipPath>
 </defs>
</svg>
