<?xml version="1.0" encoding="utf-8" standalone="no"?>
<!DOCTYPE svg PUBLIC "-//W3C//DTD SVG 1.1//EN"
  "http://www.w3.org/Graphics/SVG/1.1/DTD/svg11.dtd">
<svg xmlns:xlink="http://www.w3.org/1999/xlink" width="864pt" height="360pt" viewBox="0 0 864 360" xmlns="http://www.w3.org/2000/svg" version="1.1">
 <metadata>
  <rdf:RDF xmlns:dc="http://purl.org/dc/elements/1.1/" xmlns:cc="http://creativecommons.org/ns#" xmlns:rdf="http://www.w3.org/1999/02/22-rdf-syntax-ns#">
   <cc:Work>
    <dc:type rdf:resource="http://purl.org/dc/dcmitype/StillImage"/>
    <dc:date>2023-07-26T17:18:03.181335</dc:date>
    <dc:format>image/svg+xml</dc:format>
    <dc:creator>
     <cc:Agent>
      <dc:title>Matplotlib v3.7.1, https://matplotlib.org/</dc:title>
     </cc:Agent>
    </dc:creator>
   </cc:Work>
  </rdf:RDF>
 </metadata>
 <defs>
  <style type="text/css">*{stroke-linejoin: round; stroke-linecap: butt}</style>
 </defs>
 <g id="figure_1">
  <g id="patch_1">
   <path d="M 0 360 
L 864 360 
L 864 0 
L 0 0 
z
" style="fill: #ffffff"/>
  </g>
  <g id="axes_1">
   <g id="patch_2">
    <path d="M 108 320.4 
L 777.6 320.4 
L 777.6 43.2 
L 108 43.2 
z
" style="fill: #ffffff"/>
   </g>
   <g id="matplotlib.axis_1">
    <g id="xtick_1">
     <g id="line2d_1">
      <path d="M 138.436364 320.4 
L 138.436364 43.2 
" clip-path="url(#p6bafcc9077)" style="fill: none; stroke: #b0b0b0; stroke-width: 0.8; stroke-linecap: square"/>
     </g>
     <g id="line2d_2">
      <defs>
       <path id="m7be1babfc6" d="M 0 0 
L 0 3.5 
" style="stroke: #000000; stroke-width: 0.8"/>
      </defs>
      <g>
       <use xlink:href="#m7be1babfc6" x="138.436364" y="320.4" style="stroke: #000000; stroke-width: 0.8"/>
      </g>
     </g>
     <g id="text_1">
      <!-- $\mathdefault{0}$ -->
      <g transform="translate(135.265994 336.394028) scale(0.13 -0.13)">
       <defs>
        <path id="CMR17-30" d="M 2688 2025 
C 2688 2416 2682 3080 2413 3591 
C 2176 4039 1798 4198 1466 4198 
C 1158 4198 768 4058 525 3597 
C 269 3118 243 2524 243 2025 
C 243 1661 250 1106 448 619 
C 723 -39 1216 -128 1466 -128 
C 1760 -128 2208 -7 2470 600 
C 2662 1042 2688 1559 2688 2025 
z
M 1466 -26 
C 1056 -26 813 325 723 812 
C 653 1188 653 1738 653 2096 
C 653 2588 653 2997 736 3387 
C 858 3929 1216 4096 1466 4096 
C 1728 4096 2067 3923 2189 3400 
C 2272 3036 2278 2607 2278 2096 
C 2278 1680 2278 1169 2202 792 
C 2067 95 1690 -26 1466 -26 
z
" transform="scale(0.015625)"/>
       </defs>
       <use xlink:href="#CMR17-30" transform="scale(0.996264)"/>
      </g>
     </g>
    </g>
    <g id="xtick_2">
     <g id="line2d_3">
      <path d="M 268.729016 320.4 
L 268.729016 43.2 
" clip-path="url(#p6bafcc9077)" style="fill: none; stroke: #b0b0b0; stroke-width: 0.8; stroke-linecap: square"/>
     </g>
     <g id="line2d_4">
      <g>
       <use xlink:href="#m7be1babfc6" x="268.729016" y="320.4" style="stroke: #000000; stroke-width: 0.8"/>
      </g>
     </g>
     <g id="text_2">
      <!-- $\mathdefault{5}$ -->
      <g transform="translate(265.558646 336.394028) scale(0.13 -0.13)">
       <defs>
        <path id="CMR17-35" d="M 730 3692 
C 794 3666 1056 3584 1325 3584 
C 1920 3584 2246 3911 2432 4100 
C 2432 4157 2432 4192 2394 4192 
C 2387 4192 2374 4192 2323 4163 
C 2099 4058 1837 3973 1517 3973 
C 1325 3973 1037 3999 723 4139 
C 653 4171 640 4171 634 4171 
C 602 4171 595 4164 595 4037 
L 595 2203 
C 595 2089 595 2057 659 2057 
C 691 2057 704 2070 736 2114 
C 941 2401 1222 2522 1542 2522 
C 1766 2522 2246 2382 2246 1289 
C 2246 1085 2246 715 2054 421 
C 1894 159 1645 25 1370 25 
C 947 25 518 320 403 814 
C 429 807 480 795 506 795 
C 589 795 749 840 749 1038 
C 749 1210 627 1280 506 1280 
C 358 1280 262 1190 262 1011 
C 262 454 704 -128 1382 -128 
C 2042 -128 2669 440 2669 1264 
C 2669 2030 2170 2624 1549 2624 
C 1222 2624 947 2503 730 2274 
L 730 3692 
z
" transform="scale(0.015625)"/>
       </defs>
       <use xlink:href="#CMR17-35" transform="scale(0.996264)"/>
      </g>
     </g>
    </g>
    <g id="xtick_3">
     <g id="line2d_5">
      <path d="M 399.021669 320.4 
L 399.021669 43.2 
" clip-path="url(#p6bafcc9077)" style="fill: none; stroke: #b0b0b0; stroke-width: 0.8; stroke-linecap: square"/>
     </g>
     <g id="line2d_6">
      <g>
       <use xlink:href="#m7be1babfc6" x="399.021669" y="320.4" style="stroke: #000000; stroke-width: 0.8"/>
      </g>
     </g>
     <g id="text_3">
      <!-- $\mathdefault{10}$ -->
      <g transform="translate(392.680929 336.394028) scale(0.13 -0.13)">
       <defs>
        <path id="CMR17-31" d="M 1702 4058 
C 1702 4192 1696 4192 1606 4192 
C 1357 3916 979 3827 621 3827 
C 602 3827 570 3827 563 3808 
C 557 3795 557 3782 557 3648 
C 755 3648 1088 3686 1344 3839 
L 1344 461 
C 1344 236 1331 160 781 160 
L 589 160 
L 589 0 
C 896 0 1216 0 1523 0 
C 1830 0 2150 0 2458 0 
L 2458 160 
L 2266 160 
C 1715 160 1702 230 1702 458 
L 1702 4058 
z
" transform="scale(0.015625)"/>
       </defs>
       <use xlink:href="#CMR17-31" transform="scale(0.996264)"/>
       <use xlink:href="#CMR17-30" transform="translate(45.690477 0) scale(0.996264)"/>
      </g>
     </g>
    </g>
    <g id="xtick_4">
     <g id="line2d_7">
      <path d="M 529.314321 320.4 
L 529.314321 43.2 
" clip-path="url(#p6bafcc9077)" style="fill: none; stroke: #b0b0b0; stroke-width: 0.8; stroke-linecap: square"/>
     </g>
     <g id="line2d_8">
      <g>
       <use xlink:href="#m7be1babfc6" x="529.314321" y="320.4" style="stroke: #000000; stroke-width: 0.8"/>
      </g>
     </g>
     <g id="text_4">
      <!-- $\mathdefault{15}$ -->
      <g transform="translate(522.973582 336.394028) scale(0.13 -0.13)">
       <use xlink:href="#CMR17-31" transform="scale(0.996264)"/>
       <use xlink:href="#CMR17-35" transform="translate(45.690477 0) scale(0.996264)"/>
      </g>
     </g>
    </g>
    <g id="xtick_5">
     <g id="line2d_9">
      <path d="M 659.606974 320.4 
L 659.606974 43.2 
" clip-path="url(#p6bafcc9077)" style="fill: none; stroke: #b0b0b0; stroke-width: 0.8; stroke-linecap: square"/>
     </g>
     <g id="line2d_10">
      <g>
       <use xlink:href="#m7be1babfc6" x="659.606974" y="320.4" style="stroke: #000000; stroke-width: 0.8"/>
      </g>
     </g>
     <g id="text_5">
      <!-- $\mathdefault{20}$ -->
      <g transform="translate(653.266234 336.394028) scale(0.13 -0.13)">
       <defs>
        <path id="CMR17-32" d="M 2669 989 
L 2554 989 
C 2490 536 2438 459 2413 420 
C 2381 369 1920 369 1830 369 
L 602 369 
C 832 619 1280 1072 1824 1597 
C 2214 1967 2669 2402 2669 3035 
C 2669 3790 2067 4224 1395 4224 
C 691 4224 262 3604 262 3030 
C 262 2780 448 2748 525 2748 
C 589 2748 781 2787 781 3010 
C 781 3207 614 3264 525 3264 
C 486 3264 448 3258 422 3245 
C 544 3790 915 4058 1306 4058 
C 1862 4058 2227 3617 2227 3035 
C 2227 2479 1901 2000 1536 1584 
L 262 146 
L 262 0 
L 2515 0 
L 2669 989 
z
" transform="scale(0.015625)"/>
       </defs>
       <use xlink:href="#CMR17-32" transform="scale(0.996264)"/>
       <use xlink:href="#CMR17-30" transform="translate(45.690477 0) scale(0.996264)"/>
      </g>
     </g>
    </g>
    <g id="text_6">
     <!-- $t$ (s) -->
     <g transform="translate(430.963961 352.625914) scale(0.13 -0.13)">
      <defs>
       <path id="CMMI12-74" d="M 1286 2566 
L 1875 2566 
C 1997 2566 2061 2566 2061 2681 
C 2061 2752 2022 2752 1894 2752 
L 1331 2752 
L 1568 3692 
C 1594 3781 1594 3794 1594 3840 
C 1594 3943 1510 4000 1427 4000 
C 1376 4000 1229 3981 1178 3775 
L 928 2752 
L 326 2752 
C 198 2752 141 2752 141 2630 
C 141 2566 186 2566 307 2566 
L 877 2566 
L 454 881 
C 403 658 384 594 384 511 
C 384 211 595 -64 954 -64 
C 1600 -64 1946 868 1946 912 
C 1946 951 1920 970 1882 970 
C 1869 970 1843 970 1830 944 
C 1824 938 1818 931 1773 829 
C 1638 511 1344 64 973 64 
C 781 64 768 224 768 364 
C 768 370 768 492 787 568 
L 1286 2566 
z
" transform="scale(0.015625)"/>
       <path id="CMR17-28" d="M 1958 -1561 
C 1958 -1555 1958 -1542 1939 -1523 
C 1645 -1224 858 -407 858 1581 
C 858 3569 1632 4379 1946 4697 
C 1946 4704 1958 4717 1958 4736 
C 1958 4755 1939 4768 1914 4768 
C 1843 4768 1299 4296 986 3594 
C 666 2887 576 2199 576 1588 
C 576 1128 621 351 1005 -471 
C 1312 -1135 1837 -1600 1914 -1600 
C 1946 -1600 1958 -1587 1958 -1561 
z
" transform="scale(0.015625)"/>
       <path id="CMR17-73" d="M 1978 2697 
C 1978 2813 1971 2819 1933 2819 
C 1907 2819 1901 2813 1824 2717 
C 1805 2691 1747 2626 1728 2601 
C 1523 2819 1235 2819 1126 2819 
C 416 2819 160 2447 160 2076 
C 160 1498 813 1365 998 1325 
C 1402 1243 1542 1217 1677 1101 
C 1760 1025 1901 884 1901 654 
C 1901 384 1747 38 1158 38 
C 602 38 403 460 288 1021 
C 269 1110 269 1117 218 1117 
C 166 1117 160 1110 160 983 
L 160 63 
C 160 -51 166 -58 205 -58 
C 237 -58 243 -51 275 0 
C 314 57 410 211 448 276 
C 576 103 800 -64 1158 -64 
C 1792 -64 2131 283 2131 784 
C 2131 1112 1958 1285 1875 1362 
C 1683 1561 1459 1606 1190 1657 
C 838 1735 390 1825 390 2217 
C 390 2383 480 2737 1126 2737 
C 1811 2737 1850 2094 1862 1888 
C 1869 1856 1901 1849 1920 1849 
C 1978 1849 1978 1869 1978 1978 
L 1978 2697 
z
" transform="scale(0.015625)"/>
       <path id="CMR17-29" d="M 1683 1581 
C 1683 2040 1638 2817 1254 3639 
C 947 4303 422 4768 346 4768 
C 326 4768 301 4761 301 4729 
C 301 4717 307 4710 314 4697 
C 621 4378 1402 3568 1402 1584 
C 1402 -407 627 -1217 314 -1537 
C 307 -1549 301 -1556 301 -1568 
C 301 -1600 326 -1600 346 -1600 
C 416 -1600 960 -1128 1274 -426 
C 1594 281 1683 969 1683 1581 
z
" transform="scale(0.015625)"/>
      </defs>
      <use xlink:href="#CMMI12-74" transform="scale(0.996264)"/>
      <use xlink:href="#CMR17-28" transform="translate(65.302297 0) scale(0.996264)"/>
      <use xlink:href="#CMR17-73" transform="translate(100.583064 0) scale(0.996264)"/>
      <use xlink:href="#CMR17-29" transform="translate(136.384402 0) scale(0.996264)"/>
     </g>
    </g>
   </g>
   <g id="matplotlib.axis_2">
    <g id="ytick_1">
     <g id="line2d_11">
      <path d="M 108 285.719025 
L 777.6 285.719025 
" clip-path="url(#p6bafcc9077)" style="fill: none; stroke: #b0b0b0; stroke-width: 0.8; stroke-linecap: square"/>
     </g>
     <g id="line2d_12">
      <defs>
       <path id="m0b517b67e5" d="M 0 0 
L -3.5 0 
" style="stroke: #000000; stroke-width: 0.8"/>
      </defs>
      <g>
       <use xlink:href="#m0b517b67e5" x="108" y="285.719025" style="stroke: #000000; stroke-width: 0.8"/>
      </g>
     </g>
     <g id="text_7">
      <!-- $\mathdefault{−0.02}$ -->
      <g transform="translate(68.381779 290.216039) scale(0.13 -0.13)">
       <defs>
        <path id="CMSY10-0" d="M 4218 1472 
C 4326 1472 4442 1472 4442 1600 
C 4442 1728 4326 1728 4218 1728 
L 755 1728 
C 646 1728 531 1728 531 1600 
C 531 1472 646 1472 755 1472 
L 4218 1472 
z
" transform="scale(0.015625)"/>
        <path id="CMMI12-3a" d="M 1178 307 
C 1178 492 1024 619 870 619 
C 685 619 557 466 557 313 
C 557 128 710 0 864 0 
C 1050 0 1178 153 1178 307 
z
" transform="scale(0.015625)"/>
       </defs>
       <use xlink:href="#CMSY10-0" transform="scale(0.996264)"/>
       <use xlink:href="#CMR17-30" transform="translate(77.487468 0) scale(0.996264)"/>
       <use xlink:href="#CMMI12-3a" transform="translate(123.177945 0) scale(0.996264)"/>
       <use xlink:href="#CMR17-30" transform="translate(150.275122 0) scale(0.996264)"/>
       <use xlink:href="#CMR17-32" transform="translate(195.965599 0) scale(0.996264)"/>
      </g>
     </g>
    </g>
    <g id="ytick_2">
     <g id="line2d_13">
      <path d="M 108 245.496211 
L 777.6 245.496211 
" clip-path="url(#p6bafcc9077)" style="fill: none; stroke: #b0b0b0; stroke-width: 0.8; stroke-linecap: square"/>
     </g>
     <g id="line2d_14">
      <g>
       <use xlink:href="#m0b517b67e5" x="108" y="245.496211" style="stroke: #000000; stroke-width: 0.8"/>
      </g>
     </g>
     <g id="text_8">
      <!-- $\mathdefault{−0.01}$ -->
      <g transform="translate(68.381779 249.993225) scale(0.13 -0.13)">
       <use xlink:href="#CMSY10-0" transform="scale(0.996264)"/>
       <use xlink:href="#CMR17-30" transform="translate(77.487468 0) scale(0.996264)"/>
       <use xlink:href="#CMMI12-3a" transform="translate(123.177945 0) scale(0.996264)"/>
       <use xlink:href="#CMR17-30" transform="translate(150.275122 0) scale(0.996264)"/>
       <use xlink:href="#CMR17-31" transform="translate(195.965599 0) scale(0.996264)"/>
      </g>
     </g>
    </g>
    <g id="ytick_3">
     <g id="line2d_15">
      <path d="M 108 205.273397 
L 777.6 205.273397 
" clip-path="url(#p6bafcc9077)" style="fill: none; stroke: #b0b0b0; stroke-width: 0.8; stroke-linecap: square"/>
     </g>
     <g id="line2d_16">
      <g>
       <use xlink:href="#m0b517b67e5" x="108" y="205.273397" style="stroke: #000000; stroke-width: 0.8"/>
      </g>
     </g>
     <g id="text_9">
      <!-- $\mathdefault{0.00}$ -->
      <g transform="translate(78.455149 209.770412) scale(0.13 -0.13)">
       <use xlink:href="#CMR17-30" transform="scale(0.996264)"/>
       <use xlink:href="#CMMI12-3a" transform="translate(45.690477 0) scale(0.996264)"/>
       <use xlink:href="#CMR17-30" transform="translate(72.787654 0) scale(0.996264)"/>
       <use xlink:href="#CMR17-30" transform="translate(118.478131 0) scale(0.996264)"/>
      </g>
     </g>
    </g>
    <g id="ytick_4">
     <g id="line2d_17">
      <path d="M 108 165.050584 
L 777.6 165.050584 
" clip-path="url(#p6bafcc9077)" style="fill: none; stroke: #b0b0b0; stroke-width: 0.8; stroke-linecap: square"/>
     </g>
     <g id="line2d_18">
      <g>
       <use xlink:href="#m0b517b67e5" x="108" y="165.050584" style="stroke: #000000; stroke-width: 0.8"/>
      </g>
     </g>
     <g id="text_10">
      <!-- $\mathdefault{0.01}$ -->
      <g transform="translate(78.455149 169.547598) scale(0.13 -0.13)">
       <use xlink:href="#CMR17-30" transform="scale(0.996264)"/>
       <use xlink:href="#CMMI12-3a" transform="translate(45.690477 0) scale(0.996264)"/>
       <use xlink:href="#CMR17-30" transform="translate(72.787654 0) scale(0.996264)"/>
       <use xlink:href="#CMR17-31" transform="translate(118.478131 0) scale(0.996264)"/>
      </g>
     </g>
    </g>
    <g id="ytick_5">
     <g id="line2d_19">
      <path d="M 108 124.82777 
L 777.6 124.82777 
" clip-path="url(#p6bafcc9077)" style="fill: none; stroke: #b0b0b0; stroke-width: 0.8; stroke-linecap: square"/>
     </g>
     <g id="line2d_20">
      <g>
       <use xlink:href="#m0b517b67e5" x="108" y="124.82777" style="stroke: #000000; stroke-width: 0.8"/>
      </g>
     </g>
     <g id="text_11">
      <!-- $\mathdefault{0.02}$ -->
      <g transform="translate(78.455149 129.324784) scale(0.13 -0.13)">
       <use xlink:href="#CMR17-30" transform="scale(0.996264)"/>
       <use xlink:href="#CMMI12-3a" transform="translate(45.690477 0) scale(0.996264)"/>
       <use xlink:href="#CMR17-30" transform="translate(72.787654 0) scale(0.996264)"/>
       <use xlink:href="#CMR17-32" transform="translate(118.478131 0) scale(0.996264)"/>
      </g>
     </g>
    </g>
    <g id="ytick_6">
     <g id="line2d_21">
      <path d="M 108 84.604957 
L 777.6 84.604957 
" clip-path="url(#p6bafcc9077)" style="fill: none; stroke: #b0b0b0; stroke-width: 0.8; stroke-linecap: square"/>
     </g>
     <g id="line2d_22">
      <g>
       <use xlink:href="#m0b517b67e5" x="108" y="84.604957" style="stroke: #000000; stroke-width: 0.8"/>
      </g>
     </g>
     <g id="text_12">
      <!-- $\mathdefault{0.03}$ -->
      <g transform="translate(78.455149 89.101971) scale(0.13 -0.13)">
       <defs>
        <path id="CMR17-33" d="M 1414 2157 
C 1984 2157 2234 1662 2234 1090 
C 2234 320 1824 25 1453 25 
C 1114 25 563 194 390 693 
C 422 680 454 680 486 680 
C 640 680 755 782 755 948 
C 755 1133 614 1216 486 1216 
C 378 1216 211 1165 211 926 
C 211 335 787 -128 1466 -128 
C 2176 -128 2720 430 2720 1085 
C 2720 1707 2208 2157 1600 2227 
C 2086 2328 2554 2756 2554 3329 
C 2554 3820 2048 4179 1472 4179 
C 890 4179 378 3829 378 3329 
C 378 3110 544 3072 627 3072 
C 762 3072 877 3155 877 3321 
C 877 3486 762 3569 627 3569 
C 602 3569 570 3569 544 3557 
C 730 3959 1235 4032 1459 4032 
C 1683 4032 2106 3925 2106 3320 
C 2106 3143 2080 2828 1862 2550 
C 1670 2304 1453 2304 1242 2284 
C 1210 2284 1062 2269 1037 2269 
C 992 2263 966 2257 966 2208 
C 966 2163 973 2157 1101 2157 
L 1414 2157 
z
" transform="scale(0.015625)"/>
       </defs>
       <use xlink:href="#CMR17-30" transform="scale(0.996264)"/>
       <use xlink:href="#CMMI12-3a" transform="translate(45.690477 0) scale(0.996264)"/>
       <use xlink:href="#CMR17-30" transform="translate(72.787654 0) scale(0.996264)"/>
       <use xlink:href="#CMR17-33" transform="translate(118.478131 0) scale(0.996264)"/>
      </g>
     </g>
    </g>
    <g id="ytick_7">
     <g id="line2d_23">
      <path d="M 108 44.382143 
L 777.6 44.382143 
" clip-path="url(#p6bafcc9077)" style="fill: none; stroke: #b0b0b0; stroke-width: 0.8; stroke-linecap: square"/>
     </g>
     <g id="line2d_24">
      <g>
       <use xlink:href="#m0b517b67e5" x="108" y="44.382143" style="stroke: #000000; stroke-width: 0.8"/>
      </g>
     </g>
     <g id="text_13">
      <!-- $\mathdefault{0.04}$ -->
      <g transform="translate(78.455149 48.879157) scale(0.13 -0.13)">
       <defs>
        <path id="CMR17-34" d="M 2150 4122 
C 2150 4256 2144 4256 2029 4256 
L 128 1254 
L 128 1088 
L 1779 1088 
L 1779 457 
C 1779 224 1766 160 1318 160 
L 1197 160 
L 1197 0 
C 1402 0 1747 0 1965 0 
C 2182 0 2528 0 2733 0 
L 2733 160 
L 2611 160 
C 2163 160 2150 224 2150 457 
L 2150 1088 
L 2803 1088 
L 2803 1254 
L 2150 1254 
L 2150 4122 
z
M 1798 3703 
L 1798 1254 
L 256 1254 
L 1798 3703 
z
" transform="scale(0.015625)"/>
       </defs>
       <use xlink:href="#CMR17-30" transform="scale(0.996264)"/>
       <use xlink:href="#CMMI12-3a" transform="translate(45.690477 0) scale(0.996264)"/>
       <use xlink:href="#CMR17-30" transform="translate(72.787654 0) scale(0.996264)"/>
       <use xlink:href="#CMR17-34" transform="translate(118.478131 0) scale(0.996264)"/>
      </g>
     </g>
    </g>
    <g id="text_14">
     <!-- displacement (m) -->
     <g transform="translate(61.143921 229.919159) rotate(-90) scale(0.13 -0.13)">
      <defs>
       <path id="CMR17-64" d="M 1869 4326 
L 1869 4160 
C 2246 4160 2304 4122 2304 3820 
L 2304 2345 
C 2278 2377 2016 2790 1498 2790 
C 845 2790 211 2208 211 1364 
C 211 525 806 -64 1434 -64 
C 1978 -64 2259 337 2291 380 
L 2291 -63 
L 3066 -63 
L 3066 128 
C 2688 128 2630 166 2630 473 
L 2630 4396 
L 1869 4326 
z
M 2291 755 
C 2291 563 2176 390 2029 262 
C 1811 70 1594 38 1472 38 
C 1286 38 621 134 621 1356 
C 621 2612 1363 2688 1530 2688 
C 1824 2688 2061 2522 2208 2291 
C 2291 2157 2291 2138 2291 2023 
L 2291 755 
z
" transform="scale(0.015625)"/>
       <path id="CMR17-69" d="M 992 3909 
C 992 4049 877 4170 730 4170 
C 589 4170 467 4056 467 3909 
C 467 3769 582 3648 730 3648 
C 870 3648 992 3763 992 3909 
z
M 243 2706 
L 243 2541 
C 602 2541 653 2502 653 2197 
L 653 427 
C 653 184 627 153 218 153 
L 218 -13 
C 371 0 646 0 806 0 
C 960 0 1222 0 1370 -13 
L 1370 153 
C 992 153 979 191 979 420 
L 979 2776 
L 243 2706 
z
" transform="scale(0.015625)"/>
       <path id="CMR17-70" d="M 1408 -1063 
C 998 -1063 973 -1037 973 -789 
L 973 402 
C 1158 134 1427 -38 1766 -38 
C 2406 -38 3053 523 3053 1388 
C 3053 2191 2496 2802 1837 2802 
C 1453 2802 1139 2592 960 2338 
L 960 2802 
L 198 2732 
L 198 2567 
C 576 2567 634 2528 634 2223 
L 634 -789 
C 634 -1031 608 -1063 198 -1063 
L 198 -1228 
C 352 -1216 634 -1216 800 -1216 
C 966 -1216 1254 -1216 1408 -1228 
L 1408 -1063 
z
M 973 2012 
C 973 2102 973 2235 1222 2471 
C 1254 2497 1472 2688 1792 2688 
C 2259 2688 2643 2108 2643 1382 
C 2643 656 2234 64 1728 64 
C 1498 64 1248 172 1056 472 
C 973 612 973 650 973 752 
L 973 2012 
z
" transform="scale(0.015625)"/>
       <path id="CMR17-6c" d="M 979 4396 
L 218 4326 
L 218 4160 
C 595 4160 653 4122 653 3817 
L 653 426 
C 653 184 627 153 218 153 
L 218 -13 
C 371 0 653 0 813 0 
C 979 0 1261 0 1414 -13 
L 1414 153 
C 1005 153 979 178 979 426 
L 979 4396 
z
" transform="scale(0.015625)"/>
       <path id="CMR17-61" d="M 2304 1653 
C 2304 2072 2304 2294 2035 2543 
C 1798 2752 1523 2816 1306 2816 
C 800 2816 435 2407 435 1971 
C 435 1728 627 1728 666 1728 
C 749 1728 896 1778 896 1954 
C 896 2112 774 2181 666 2181 
C 640 2181 608 2174 589 2168 
C 723 2592 1069 2714 1293 2714 
C 1613 2714 1965 2429 1965 1885 
L 1965 1600 
C 1587 1600 1133 1549 774 1357 
C 371 1133 256 813 256 570 
C 256 77 832 -64 1171 -64 
C 1523 -64 1850 139 1990 511 
C 2003 233 2182 -18 2464 -18 
C 2598 -18 2938 70 2938 567 
L 2938 920 
L 2822 920 
L 2822 562 
C 2822 178 2650 128 2566 128 
C 2304 128 2304 458 2304 738 
L 2304 1653 
z
M 1965 870 
C 1965 317 1568 38 1216 38 
C 896 38 646 275 646 570 
C 646 761 730 1100 1101 1305 
C 1408 1478 1760 1504 1965 1504 
L 1965 870 
z
" transform="scale(0.015625)"/>
       <path id="CMR17-63" d="M 2234 2240 
C 2112 2240 1933 2240 1933 2017 
C 1933 1838 2080 1787 2163 1787 
C 2208 1787 2394 1807 2394 2024 
C 2394 2467 1958 2803 1466 2803 
C 787 2803 211 2178 211 1363 
C 211 516 813 -64 1466 -64 
C 2259 -64 2458 677 2458 748 
C 2458 774 2451 793 2406 793 
C 2362 793 2355 787 2330 703 
C 2163 180 1798 51 1523 51 
C 1114 51 621 427 621 1369 
C 621 2338 1094 2688 1472 2688 
C 1722 2688 2093 2573 2234 2240 
z
" transform="scale(0.015625)"/>
       <path id="CMR17-65" d="M 2438 1472 
C 2464 1498 2464 1511 2464 1576 
C 2464 2238 2118 2816 1389 2816 
C 710 2816 173 2169 173 1383 
C 173 551 781 -64 1459 -64 
C 2176 -64 2458 607 2458 740 
C 2458 784 2419 784 2406 784 
C 2362 784 2355 771 2330 696 
C 2189 265 1837 51 1504 51 
C 1229 51 954 203 781 480 
C 582 803 582 1176 582 1472 
L 2438 1472 
z
M 589 1568 
C 634 2505 1126 2714 1382 2714 
C 1818 2714 2112 2297 2118 1568 
L 589 1568 
z
" transform="scale(0.015625)"/>
       <path id="CMR17-6d" d="M 4326 1933 
C 4326 2252 4269 2790 3507 2790 
C 3072 2790 2771 2496 2656 2151 
L 2650 2151 
C 2573 2676 2195 2790 1837 2790 
C 1331 2790 1069 2400 973 2144 
L 966 2144 
L 966 2790 
L 211 2720 
L 211 2554 
C 589 2554 646 2515 646 2208 
L 646 428 
C 646 184 621 153 211 153 
L 211 -13 
C 365 0 646 0 813 0 
C 979 0 1267 0 1421 -13 
L 1421 153 
C 1011 153 986 178 986 428 
L 986 1658 
C 986 2247 1344 2688 1792 2688 
C 2266 2688 2317 2266 2317 1958 
L 2317 428 
C 2317 184 2291 153 1882 153 
L 1882 -13 
C 2035 0 2317 0 2483 0 
C 2650 0 2938 0 3091 -13 
L 3091 153 
C 2682 153 2656 178 2656 428 
L 2656 1658 
C 2656 2247 3014 2688 3462 2688 
C 3936 2688 3987 2266 3987 1958 
L 3987 428 
C 3987 184 3962 153 3552 153 
L 3552 -13 
C 3706 0 3987 0 4154 0 
C 4320 0 4608 0 4762 -13 
L 4762 153 
C 4352 153 4326 178 4326 428 
L 4326 1933 
z
" transform="scale(0.015625)"/>
       <path id="CMR17-6e" d="M 2656 1933 
C 2656 2259 2592 2790 1837 2790 
C 1331 2790 1069 2400 973 2144 
L 966 2144 
L 966 2790 
L 211 2720 
L 211 2554 
C 589 2554 646 2515 646 2208 
L 646 428 
C 646 184 621 153 211 153 
L 211 -13 
C 365 0 646 0 813 0 
C 979 0 1267 0 1421 -13 
L 1421 153 
C 1011 153 986 178 986 428 
L 986 1658 
C 986 2247 1344 2688 1792 2688 
C 2266 2688 2317 2266 2317 1958 
L 2317 428 
C 2317 184 2291 153 1882 153 
L 1882 -13 
C 2035 0 2317 0 2483 0 
C 2650 0 2938 0 3091 -13 
L 3091 153 
C 2682 153 2656 178 2656 428 
L 2656 1933 
z
" transform="scale(0.015625)"/>
       <path id="CMR17-74" d="M 966 2560 
L 1862 2560 
L 1862 2725 
L 966 2725 
L 966 3904 
L 851 3904 
C 838 3245 614 2668 70 2668 
L 70 2560 
L 627 2560 
L 627 771 
C 627 650 627 -64 1370 -64 
C 1747 -64 1965 306 1965 777 
L 1965 1140 
L 1850 1140 
L 1850 783 
C 1850 344 1677 51 1408 51 
C 1222 51 966 178 966 758 
L 966 2560 
z
" transform="scale(0.015625)"/>
      </defs>
      <use xlink:href="#CMR17-64" transform="scale(0.996264)"/>
      <use xlink:href="#CMR17-69" transform="translate(50.89537 0) scale(0.996264)"/>
      <use xlink:href="#CMR17-73" transform="translate(75.766428 0) scale(0.996264)"/>
      <use xlink:href="#CMR17-70" transform="translate(111.567766 0) scale(0.996264)"/>
      <use xlink:href="#CMR17-6c" transform="translate(162.463136 0) scale(0.996264)"/>
      <use xlink:href="#CMR17-61" transform="translate(187.334194 0) scale(0.996264)"/>
      <use xlink:href="#CMR17-63" transform="translate(233.024671 0) scale(0.996264)"/>
      <use xlink:href="#CMR17-65" transform="translate(273.510332 0) scale(0.996264)"/>
      <use xlink:href="#CMR17-6d" transform="translate(313.995992 0) scale(0.996264)"/>
      <use xlink:href="#CMR17-65" transform="translate(390.915582 0) scale(0.996264)"/>
      <use xlink:href="#CMR17-6e" transform="translate(431.401243 0) scale(0.996264)"/>
      <use xlink:href="#CMR17-74" transform="translate(479.694158 0) scale(0.996264)"/>
      <use xlink:href="#CMR17-28" transform="translate(545.050893 0) scale(0.996264)"/>
      <use xlink:href="#CMR17-6d" transform="translate(580.33166 0) scale(0.996264)"/>
      <use xlink:href="#CMR17-29" transform="translate(657.25125 0) scale(0.996264)"/>
     </g>
    </g>
   </g>
   <g id="line2d_25">
    <path d="M 138.436364 209.381724 
L 138.957534 213.64335 
L 139.478705 216.427637 
L 139.999875 217.954521 
L 140.260461 218.315166 
L 140.521046 218.443937 
L 140.781631 218.368324 
L 141.302802 217.713919 
L 141.823973 216.571885 
L 143.64807 211.910016 
L 144.16924 211.220317 
L 145.732752 209.860576 
L 146.253923 208.876066 
L 147.035679 206.441824 
L 148.07802 203.025381 
L 148.599191 202.054898 
L 148.859776 201.911773 
L 149.120361 202.041185 
L 149.641532 202.970013 
L 150.423288 205.309139 
L 151.205044 207.616715 
L 151.726214 208.503262 
L 152.247385 208.748778 
L 152.768555 208.613302 
L 153.550311 208.294766 
L 154.071482 208.404885 
L 154.592653 209.030553 
L 155.113823 210.136021 
L 155.895579 212.480196 
L 156.93792 216.402994 
L 157.980262 221.224702 
L 158.762017 225.7936 
L 159.804359 233.51839 
L 162.410212 254.306117 
L 163.191968 258.848567 
L 163.973724 262.070449 
L 164.494894 263.36885 
L 165.016065 263.992627 
L 165.27665 264.082703 
L 165.537235 264.042261 
L 166.058406 263.621898 
L 166.579577 262.835686 
L 168.403674 259.431389 
L 168.664259 259.266382 
L 168.924844 259.281049 
L 169.18543 259.508545 
L 169.446015 259.982024 
L 169.967186 261.709642 
L 170.748941 265.794758 
L 173.61538 282.992281 
L 174.397136 285.96479 
L 174.918306 287.299392 
L 175.439477 288.070086 
L 175.700062 288.239928 
L 175.960648 288.264152 
L 176.221233 288.141296 
L 176.742403 287.448497 
L 177.263574 286.149837 
L 178.04533 283.21355 
L 179.348257 277.948456 
L 179.869427 276.576808 
L 180.130012 276.189573 
L 180.390598 276.013714 
L 180.651183 276.044563 
L 180.911768 276.277455 
L 181.432939 277.3307 
L 181.95411 279.136117 
L 182.735866 283.165376 
L 184.559963 294.286076 
L 185.081133 296.148079 
L 185.341719 296.632148 
L 185.602304 296.865915 
L 186.123474 296.896623 
L 186.644645 296.868359 
L 186.90523 297.028413 
L 187.165816 297.409283 
L 187.426401 298.089489 
L 187.947572 300.615548 
L 188.989913 307.048643 
L 189.250498 307.796531 
L 189.511083 307.8 
L 189.771669 306.858918 
L 190.032254 304.773151 
L 190.292839 301.342568 
L 190.81401 290.248233 
L 191.595766 266.41604 
L 192.898692 224.225145 
L 193.680448 205.78121 
L 194.462204 193.385853 
L 194.983375 188.335913 
L 195.504545 185.744993 
L 195.765131 185.287808 
L 196.025716 185.304265 
L 196.286301 185.72816 
L 196.807472 187.53344 
L 197.589228 191.642008 
L 198.892154 198.537143 
L 200.195081 204.230758 
L 200.976837 207.045338 
L 201.237422 207.675646 
L 201.498007 208.011662 
L 201.758593 207.967718 
L 202.019178 207.458146 
L 202.279763 206.397277 
L 202.800934 202.278976 
L 203.322105 194.989181 
L 204.885616 167.787531 
L 205.146202 165.437652 
L 205.406787 164.470642 
L 205.667372 165.171106 
L 205.927958 167.70984 
L 206.449128 177.050563 
L 207.752055 206.686564 
L 208.01264 210.505091 
L 208.273225 212.691487 
L 208.533811 212.974754 
L 208.794396 211.592878 
L 209.315567 205.294624 
L 210.618493 185.975251 
L 210.879078 184.420596 
L 211.139664 184.373973 
L 211.400249 185.631035 
L 211.92142 190.783162 
L 212.963761 202.728039 
L 213.224346 204.199517 
L 213.484932 204.428572 
L 213.745517 203.204029 
L 214.266687 197.369958 
L 215.569614 178.171609 
L 215.830199 176.135263 
L 216.090785 175.456654 
L 216.35137 176.360976 
L 216.611955 178.677125 
L 217.133126 186.464182 
L 218.696638 215.610514 
L 219.217808 220.511612 
L 219.478394 221.623381 
L 219.738979 221.944444 
L 219.999564 221.551164 
L 220.260149 220.519902 
L 220.78132 216.848878 
L 221.563076 208.470366 
L 223.126588 190.229546 
L 223.647758 186.609114 
L 223.908344 185.707726 
L 224.168929 185.501198 
L 224.429514 185.870753 
L 224.950685 187.688396 
L 225.732441 190.674774 
L 225.993026 191.089831 
L 226.253611 190.943974 
L 226.514197 190.074774 
L 227.035367 186.060314 
L 228.338294 173.403105 
L 228.598879 172.384994 
L 228.859465 172.443767 
L 229.12005 173.824757 
L 229.64122 180.719311 
L 231.204732 209.726494 
L 231.465318 211.929556 
L 231.725903 212.404182 
L 231.986488 210.914779 
L 232.507659 203.322218 
L 234.071171 173.698308 
L 234.331756 172.146891 
L 234.592341 172.54191 
L 234.852927 174.628715 
L 235.374097 182.321329 
L 236.416438 200.88809 
L 236.677024 203.922914 
L 236.937609 205.642875 
L 237.198194 206.189187 
L 237.45878 205.809126 
L 237.97995 203.25899 
L 238.761706 198.667884 
L 239.022291 197.922378 
L 239.282877 197.98143 
L 239.543462 199.019011 
L 240.064633 203.479483 
L 241.88873 223.919398 
L 242.149315 224.929018 
L 242.4099 225.13537 
L 242.670486 224.608825 
L 242.931071 223.419759 
L 243.452242 219.335552 
L 244.233998 209.999659 
L 246.058095 184.697338 
L 246.579265 180.426768 
L 246.839851 179.359332 
L 247.100436 179.157153 
L 247.361021 179.880238 
L 247.882192 183.407016 
L 249.185118 194.324982 
L 249.445704 195.148315 
L 249.706289 195.016434 
L 249.966874 193.794204 
L 250.488045 188.896763 
L 251.530386 176.694725 
L 251.790971 174.685384 
L 252.051557 173.621423 
L 252.312142 173.767296 
L 252.572727 175.290758 
L 253.093898 181.497521 
L 254.396824 200.711433 
L 254.65741 202.66192 
L 254.917995 203.244872 
L 255.17858 202.254561 
L 255.699751 196.601726 
L 257.002677 177.121191 
L 257.263263 175.063543 
L 257.523848 174.422353 
L 257.784433 175.4334 
L 258.045019 177.897902 
L 258.566189 185.957585 
L 259.869116 210.022769 
L 260.390286 214.841352 
L 260.650872 215.505978 
L 260.911457 215.225981 
L 261.172042 214.185718 
L 261.693213 210.561819 
L 262.735554 202.302509 
L 263.256725 200.2601 
L 263.51731 199.826317 
L 263.777895 199.673255 
L 264.038481 199.717745 
L 264.820237 200.204842 
L 265.080822 200.207852 
L 265.341407 199.992571 
L 265.601993 199.497297 
L 266.123163 197.784956 
L 266.904919 194.096686 
L 267.94726 189.005996 
L 268.468431 187.211035 
L 268.729016 186.665563 
L 268.989601 186.418488 
L 269.250187 186.5176 
L 269.510772 187.010692 
L 269.771357 187.945557 
L 270.292528 191.33177 
L 270.813699 197.014934 
L 272.37721 217.136606 
L 272.637796 218.709688 
L 272.898381 219.203216 
L 273.158966 218.403127 
L 273.419552 216.182759 
L 273.940722 208.460334 
L 275.243649 184.493426 
L 275.764819 179.559381 
L 276.025405 179.230826 
L 276.28599 180.208954 
L 276.807161 184.929269 
L 277.849502 197.334178 
L 278.110087 199.36714 
L 278.370672 200.394799 
L 278.631258 200.222593 
L 278.891843 199.033704 
L 279.413014 194.71636 
L 280.19477 187.555711 
L 280.455355 186.096737 
L 280.71594 185.564416 
L 280.976526 186.236368 
L 281.237111 188.290796 
L 281.758281 195.569818 
L 283.061208 217.379044 
L 283.321793 219.809012 
L 283.582379 220.850972 
L 283.842964 220.290697 
L 284.103549 218.332551 
L 284.62472 211.458704 
L 285.927646 191.44235 
L 286.188232 189.354278 
L 286.448817 188.220619 
L 286.709402 187.921545 
L 286.969988 188.337224 
L 287.230573 189.347827 
L 287.751743 192.674484 
L 289.575841 206.430288 
L 290.097011 208.790536 
L 290.618182 210.000276 
L 290.878767 210.105551 
L 291.139352 209.841414 
L 291.399938 209.199963 
L 291.921108 207.082646 
L 293.224035 201.070698 
L 293.48462 200.456327 
L 293.745205 200.2454 
L 294.005791 200.488019 
L 294.526961 201.874714 
L 295.048132 203.504041 
L 295.308717 204.049952 
L 295.569303 204.224832 
L 295.829888 203.884787 
L 296.090473 202.885919 
L 296.351059 201.084333 
L 296.872229 195.036636 
L 298.175156 177.028686 
L 298.435741 175.016009 
L 298.696326 174.140839 
L 298.956912 174.66369 
L 299.217497 176.743328 
L 299.738667 184.478275 
L 301.041594 208.341093 
L 301.302179 211.08957 
L 301.562765 212.34672 
L 301.82335 211.877289 
L 302.083935 209.904938 
L 302.605106 202.805049 
L 303.908032 182.441728 
L 304.168618 180.628159 
L 304.429203 180.255118 
L 304.689788 181.150563 
L 305.210959 185.650404 
L 306.513885 199.909589 
L 306.774471 201.084333 
L 307.035056 201.142609 
L 307.295641 200.221263 
L 307.816812 196.315868 
L 308.859153 186.387397 
L 309.119738 184.741832 
L 309.380324 183.868968 
L 309.640909 183.928034 
L 309.901494 184.839003 
L 310.422665 188.65729 
L 311.204421 197.278002 
L 312.246762 208.323687 
L 312.767933 211.735748 
L 313.289103 213.562133 
L 313.549689 213.889227 
L 313.810274 213.830137 
L 314.070859 213.388275 
L 314.331445 212.567052 
L 314.852615 209.817337 
L 316.676712 197.45638 
L 316.937298 196.754063 
L 317.197883 196.636839 
L 317.458468 197.164786 
L 317.979639 199.608958 
L 319.02198 205.246918 
L 319.282565 205.81185 
L 319.543151 205.695852 
L 319.803736 204.72737 
L 320.324907 200.117282 
L 321.888418 182.218112 
L 322.149004 181.333207 
L 322.409589 181.731413 
L 322.670174 183.573078 
L 323.191345 190.596134 
L 324.494271 212.717883 
L 324.754857 215.367344 
L 325.015442 216.679292 
L 325.276027 216.434289 
L 325.536613 214.813786 
L 326.057783 208.572989 
L 327.36071 188.617092 
L 327.621295 186.132938 
L 327.88188 184.729727 
L 328.142466 184.295919 
L 328.403051 184.641328 
L 328.924222 186.909067 
L 329.966563 192.427074 
L 330.227148 192.901863 
L 330.487733 192.693903 
L 330.748319 191.910529 
L 331.269489 189.284891 
L 332.051245 185.201789 
L 332.311831 184.469538 
L 332.572416 184.329741 
L 332.833001 184.949238 
L 333.093587 186.443776 
L 333.614757 191.652399 
L 334.396513 202.91852 
L 335.438854 218.518049 
L 335.960025 224.180961 
L 336.481196 227.623647 
L 336.741781 228.407323 
L 337.002366 228.509843 
L 337.262951 227.889173 
L 337.523537 226.503282 
L 338.044707 221.306248 
L 338.826463 209.091518 
L 339.868804 192.397302 
L 340.389975 187.282161 
L 340.65056 186.132681 
L 340.911146 185.841839 
L 341.171731 186.224905 
L 341.692902 188.27383 
L 342.474658 191.783228 
L 342.735243 192.330371 
L 342.995828 192.258298 
L 343.256413 191.447102 
L 343.777584 188.229687 
L 344.55934 182.479075 
L 344.819925 181.132491 
L 345.080511 180.411391 
L 345.341096 180.519979 
L 345.601681 181.66246 
L 346.122852 187.202645 
L 347.686364 210.077634 
L 347.946949 211.723126 
L 348.207534 211.967477 
L 348.46812 210.619808 
L 348.98929 204.125194 
L 350.552802 177.357208 
L 350.813387 175.203825 
L 351.073973 174.473688 
L 351.334558 175.027287 
L 351.595143 176.633018 
L 352.116314 182.074456 
L 353.41924 197.878 
L 353.940411 200.685529 
L 354.200996 201.190164 
L 354.461582 201.256412 
L 354.722167 201.005046 
L 355.764508 199.238925 
L 356.025093 199.211099 
L 356.285679 199.556023 
L 356.806849 201.127366 
L 358.109776 206.235815 
L 358.370361 206.780616 
L 358.630946 206.968356 
L 358.891532 206.736393 
L 359.152117 206.111117 
L 359.673288 203.875198 
L 360.455044 198.787578 
L 362.018555 187.350493 
L 362.539726 185.082559 
L 362.800311 184.610634 
L 363.060897 184.693463 
L 363.321482 185.416091 
L 363.582067 186.863561 
L 364.103238 192.219294 
L 365.145579 208.793416 
L 365.66675 216.25076 
L 366.18792 220.611656 
L 366.448506 221.034848 
L 366.709091 220.053922 
L 367.230262 214.717224 
L 369.054359 189.304794 
L 369.314944 188.379673 
L 369.575529 188.465913 
L 369.836115 189.33078 
L 370.357285 192.465453 
L 371.139041 197.188791 
L 371.399626 197.837985 
L 371.660212 197.636663 
L 371.920797 196.433396 
L 372.441968 191.797534 
L 373.484309 180.75149 
L 373.744894 179.108452 
L 374.005479 178.423018 
L 374.266065 178.950293 
L 374.52665 180.856306 
L 375.047821 187.954309 
L 376.611333 215.421628 
L 376.871918 217.966422 
L 377.132503 219.262729 
L 377.393088 219.418069 
L 377.653674 218.617342 
L 378.174844 214.88728 
L 379.738356 199.940817 
L 380.259527 197.620274 
L 380.520112 197.020874 
L 380.780697 196.720782 
L 381.041283 196.664046 
L 381.301868 196.794712 
L 381.823039 197.394435 
L 382.604795 198.365863 
L 383.125965 198.77788 
L 383.647136 198.931026 
L 384.168306 198.768689 
L 384.689477 198.234259 
L 385.731818 196.712565 
L 385.992403 196.636831 
L 386.252989 196.835675 
L 386.513574 197.385445 
L 386.774159 198.362494 
L 387.29533 201.859706 
L 388.858842 215.589037 
L 389.119427 216.390706 
L 389.380012 216.265292 
L 389.640598 215.024411 
L 390.161768 209.066928 
L 391.20411 190.458573 
L 391.72528 182.284103 
L 391.985866 179.458507 
L 392.246451 177.847039 
L 392.507036 177.638703 
L 392.767621 178.659435 
L 393.288792 183.328761 
L 394.591719 197.972324 
L 394.852304 199.291544 
L 395.112889 199.540712 
L 395.373474 198.876956 
L 395.894645 195.776749 
L 396.676401 190.317509 
L 396.936986 189.248129 
L 397.197572 188.956465 
L 397.458157 189.684038 
L 397.718742 191.587458 
L 398.239913 198.104797 
L 399.542839 217.705383 
L 399.803425 220.048911 
L 400.06401 221.241708 
L 400.324595 221.100664 
L 400.585181 219.781992 
L 401.106351 214.575945 
L 402.409278 197.825499 
L 402.669863 195.763429 
L 402.930448 194.632655 
L 403.191034 194.371803 
L 403.451619 194.859018 
L 403.712204 195.972444 
L 404.233375 199.590505 
L 406.057472 214.520288 
L 406.578643 216.799943 
L 406.839228 217.45244 
L 407.099813 217.752021 
L 407.360399 217.677661 
L 407.620984 217.20834 
L 407.881569 216.323033 
L 408.40274 213.364406 
L 409.445081 204.987129 
L 410.226837 199.29222 
L 410.748007 197.050286 
L 411.269178 196.128814 
L 412.311519 195.288721 
L 412.572105 194.731693 
L 412.83269 193.845257 
L 413.353861 190.749564 
L 414.656787 180.479441 
L 414.917372 179.4465 
L 415.177958 179.184107 
L 415.438543 179.876628 
L 415.699128 181.708429 
L 416.220299 188.873404 
L 417.783811 217.649275 
L 418.044396 220.293198 
L 418.304981 221.50603 
L 418.565567 221.082016 
L 418.826152 219.216715 
L 419.347323 212.345793 
L 420.650249 190.657952 
L 421.17142 186.312208 
L 421.432005 185.7478 
L 421.69259 186.036945 
L 421.953176 186.995576 
L 422.474346 190.185039 
L 423.256102 195.388751 
L 423.516687 196.498932 
L 423.777273 197.042305 
L 424.037858 197.09562 
L 424.298443 196.787792 
L 425.340785 194.523313 
L 425.60137 194.343469 
L 425.861955 194.575963 
L 426.12254 195.349709 
L 426.643711 198.699061 
L 427.425467 206.57502 
L 428.467808 217.181576 
L 428.988979 220.31809 
L 429.249564 221.063205 
L 429.510149 221.282081 
L 429.770735 220.997744 
L 430.03132 220.233222 
L 430.552491 217.355733 
L 431.073661 212.833833 
L 431.855417 203.499322 
L 433.158344 187.501538 
L 433.679514 183.727289 
L 433.9401 182.880636 
L 434.200685 182.839959 
L 434.46127 183.489728 
L 434.982441 186.210458 
L 436.024782 192.785679 
L 436.285367 193.717558 
L 436.545953 194.039594 
L 436.806538 193.651953 
L 437.327709 191.414208 
L 438.109465 187.606465 
L 438.37005 187.071592 
L 438.630635 187.260019 
L 438.89122 188.385416 
L 439.412391 193.658063 
L 440.975903 215.561028 
L 441.236488 217.27307 
L 441.497073 217.713593 
L 441.757659 216.703555 
L 442.018244 214.424265 
L 442.539415 207.143519 
L 443.842341 185.727528 
L 444.363512 181.501384 
L 444.624097 180.942383 
L 444.884682 181.218316 
L 445.145268 182.159989 
L 445.666438 185.363783 
L 446.70878 192.315759 
L 446.969365 193.226552 
L 447.22995 193.727609 
L 447.490535 193.927807 
L 448.011706 193.86113 
L 448.272291 193.812007 
L 448.532877 193.89753 
L 448.793462 194.226575 
L 449.054047 194.908018 
L 449.314633 196.050735 
L 449.835803 199.860635 
L 450.878144 210.729607 
L 451.6599 218.187863 
L 452.181071 221.172377 
L 452.441656 221.896548 
L 452.702242 222.163025 
L 452.962827 222.019235 
L 453.223412 221.512605 
L 453.744583 219.600532 
L 454.526339 215.196794 
L 455.829265 207.4543 
L 456.350436 205.850011 
L 456.611021 205.659255 
L 456.871606 205.973267 
L 457.132192 206.864926 
L 457.653362 210.345356 
L 458.956289 221.367386 
L 459.216874 222.588595 
L 459.47746 223.07926 
L 459.738045 222.666745 
L 459.99863 221.240225 
L 460.519801 215.952593 
L 462.343898 192.695003 
L 462.604483 191.351953 
L 462.865068 190.752919 
L 463.125654 190.735604 
L 463.386239 191.137711 
L 464.42858 193.694431 
L 464.689166 193.759202 
L 464.949751 193.269615 
L 465.210336 192.121616 
L 465.731507 188.424291 
L 466.513263 182.182352 
L 467.034433 179.740603 
L 467.295019 179.597066 
L 467.555604 180.421299 
L 467.816189 182.330521 
L 468.33736 188.683879 
L 469.900872 211.28564 
L 470.161457 213.128192 
L 470.422042 213.870008 
L 470.682628 213.623647 
L 470.943213 212.570679 
L 471.464384 208.771185 
L 472.76731 197.866508 
L 473.027895 196.851954 
L 473.288481 196.394078 
L 473.549066 196.403627 
L 473.809651 196.791348 
L 474.330822 198.344299 
L 475.373163 202.061172 
L 475.894334 202.969879 
L 476.415504 203.215109 
L 477.718431 203.044482 
L 477.979016 203.198903 
L 478.500187 203.961786 
L 479.021357 205.331251 
L 479.542528 207.285771 
L 480.324284 211.267441 
L 481.887796 220.732514 
L 482.148381 221.604941 
L 482.408966 222.012037 
L 482.669552 221.85456 
L 482.930137 221.033268 
L 483.190722 219.44892 
L 483.711893 213.967661 
L 485.796575 186.50069 
L 486.057161 185.373321 
L 486.317746 185.037991 
L 486.578331 185.339661 
L 487.099502 187.233851 
L 488.141843 191.844578 
L 488.402428 192.309601 
L 488.663014 192.443765 
L 489.184184 192.189123 
L 489.44477 192.035124 
L 489.705355 192.019877 
L 489.96594 192.260786 
L 490.226526 192.875253 
L 490.487111 193.980682 
L 491.008281 198.083756 
L 491.790037 207.763323 
L 492.571793 217.340432 
L 493.092964 221.211076 
L 493.353549 221.839304 
L 493.614134 221.409612 
L 493.87472 220.03367 
L 494.39589 215.126485 
L 496.219988 193.225154 
L 496.741158 190.337841 
L 497.001743 189.598554 
L 497.262329 189.267883 
L 497.522914 189.3001 
L 497.783499 189.649483 
L 498.30467 191.116846 
L 499.086426 194.556055 
L 500.389352 200.637064 
L 500.910523 202.16905 
L 501.171108 202.566831 
L 501.431694 202.680877 
L 501.692279 202.56818 
L 502.995205 201.303899 
L 503.255791 201.450954 
L 503.516376 201.911336 
L 503.776961 202.762199 
L 504.298132 205.653624 
L 505.340473 212.54854 
L 505.601059 213.683722 
L 505.861644 214.302265 
L 506.122229 214.263557 
L 506.382814 213.42699 
L 506.903985 209.271234 
L 508.467497 191.435837 
L 508.728082 189.932034 
L 508.988667 189.419717 
L 509.249253 190.035782 
L 509.509838 191.606955 
L 510.031009 196.611366 
L 510.812765 205.010898 
L 511.333935 208.279677 
L 511.594521 208.462346 
L 511.855106 207.42723 
L 512.376276 202.473826 
L 513.939788 182.971879 
L 514.200374 181.731413 
L 514.460959 181.669559 
L 514.721544 182.652248 
L 515.242715 186.903021 
L 516.545641 200.965342 
L 516.806227 202.670261 
L 517.066812 203.573251 
L 517.327397 203.772545 
L 517.587983 203.428432 
L 518.109153 201.751143 
L 518.630324 199.8237 
L 518.890909 199.166894 
L 519.151494 198.928417 
L 519.41208 199.26856 
L 519.672665 200.298751 
L 520.193836 204.044357 
L 522.017933 220.896941 
L 522.278518 222.035461 
L 522.539103 222.615547 
L 522.799689 222.668607 
L 523.060274 222.226051 
L 523.320859 221.319288 
L 523.84203 218.238776 
L 524.3632 213.678346 
L 525.144956 204.69585 
L 526.447883 189.236039 
L 526.969054 185.0662 
L 527.229639 183.788523 
L 527.490224 183.140065 
L 527.750809 183.043942 
L 528.011395 183.389108 
L 528.532565 184.95913 
L 529.314321 187.847713 
L 529.574907 188.508675 
L 529.835492 188.833613 
L 530.096077 188.752568 
L 530.617248 187.791177 
L 531.138418 186.667225 
L 531.399004 186.38298 
L 531.659589 186.464523 
L 531.920174 187.047332 
L 532.18076 188.266882 
L 532.70193 193.095889 
L 533.483686 204.675173 
L 534.265442 215.860746 
L 534.786613 219.927602 
L 535.047198 220.230392 
L 535.307783 219.145034 
L 535.828954 213.59633 
L 536.871295 196.230072 
L 537.392466 188.551429 
L 537.913636 184.229949 
L 538.174222 183.535258 
L 538.434807 183.612604 
L 538.695392 184.290048 
L 539.216563 186.757475 
L 539.998319 190.660878 
L 540.258904 191.373526 
L 540.519489 191.754701 
L 540.780075 191.904464 
L 541.561831 191.96591 
L 541.822416 192.190652 
L 542.083001 192.684294 
L 542.343587 193.546898 
L 542.864757 196.743848 
L 543.646513 204.631241 
L 544.94944 218.676445 
L 545.47061 222.014652 
L 545.731196 222.90834 
L 545.991781 223.333376 
L 546.252366 223.332438 
L 546.512951 222.948201 
L 547.034122 221.20054 
L 547.555293 218.431807 
L 549.639975 205.232519 
L 549.90056 204.368864 
L 550.161146 203.895445 
L 550.421731 203.876945 
L 550.682316 204.347718 
L 551.203487 206.378844 
L 552.245828 211.514794 
L 552.506413 212.338172 
L 552.766999 212.742691 
L 553.027584 212.611042 
L 553.288169 211.867441 
L 553.80934 208.947162 
L 555.372852 198.213957 
L 555.633437 197.521741 
L 555.894022 197.450052 
L 556.154608 197.908893 
L 556.675778 199.880709 
L 557.457534 203.4583 
L 557.71812 204.27867 
L 557.978705 204.689021 
L 558.23929 204.554987 
L 558.499875 203.791128 
L 559.021046 200.863888 
L 560.063387 193.868378 
L 560.323973 192.810341 
L 560.584558 192.347002 
L 560.845143 192.637542 
L 561.105729 193.786679 
L 561.626899 198.153772 
L 563.450996 217.564194 
L 563.711582 218.673334 
L 563.972167 219.133295 
L 564.232752 219.05774 
L 564.493337 218.560334 
L 565.014508 216.754625 
L 565.796264 213.723786 
L 566.056849 213.082223 
L 566.317435 212.783641 
L 566.57802 212.787616 
L 566.838605 213.022903 
L 567.620361 214.404222 
L 568.141532 215.175554 
L 568.402117 215.302628 
L 568.662702 215.162317 
L 568.923288 214.705118 
L 569.444458 213.011588 
L 571.529141 204.518105 
L 571.789726 204.159337 
L 572.050311 204.029784 
L 572.310897 204.117426 
L 572.571482 204.410243 
L 573.092653 205.56333 
L 573.613823 207.39289 
L 574.656164 212.436224 
L 575.43792 215.650626 
L 575.698506 216.242312 
L 575.959091 216.477558 
L 576.219676 216.286438 
L 576.480262 215.599022 
L 577.001432 212.702904 
L 578.043773 203.81381 
L 578.825529 198.07729 
L 579.086115 196.958621 
L 579.3467 196.392167 
L 579.607285 196.307813 
L 579.86787 196.598313 
L 580.389041 197.874888 
L 581.170797 199.919982 
L 581.431382 200.207421 
L 581.691968 200.118985 
L 581.952553 199.58696 
L 582.473724 197.593327 
L 583.255479 194.228106 
L 583.516065 193.526209 
L 583.77665 193.250809 
L 584.037235 193.531852 
L 584.297821 194.499283 
L 584.818991 198.592354 
L 586.643088 217.194708 
L 586.903674 217.920453 
L 587.164259 217.669117 
L 587.424844 216.568496 
L 587.946015 212.581313 
L 589.248941 201.084333 
L 589.509527 199.998074 
L 589.770112 199.485427 
L 590.030697 199.445463 
L 590.291283 199.777255 
L 590.812453 201.152394 
L 591.594209 203.480073 
L 591.854795 203.922914 
L 592.11538 204.057721 
L 592.375965 203.917091 
L 592.897136 203.046727 
L 594.200062 200.20182 
L 594.460648 199.992571 
L 594.721233 200.028152 
L 594.981818 200.300611 
L 595.502989 201.470544 
L 596.024159 203.331137 
L 596.805915 207.042436 
L 598.369427 215.100751 
L 598.890598 216.724723 
L 599.151183 217.120832 
L 599.411768 217.175394 
L 599.672354 216.840183 
L 599.932939 216.090585 
L 600.45411 213.651093 
L 601.757036 206.427033 
L 602.017621 205.536689 
L 602.278207 205.049153 
L 602.538792 205.023108 
L 602.799377 205.378273 
L 603.320548 206.772146 
L 604.102304 208.846492 
L 604.362889 209.073464 
L 604.623474 208.876495 
L 604.88406 208.140563 
L 605.40523 204.945565 
L 606.968742 191.693489 
L 607.229328 190.528772 
L 607.489913 190.063282 
L 607.750498 190.396847 
L 608.011083 191.427186 
L 608.532254 194.966953 
L 609.835181 205.313309 
L 610.095766 206.416728 
L 610.356351 206.887521 
L 610.616936 206.802265 
L 610.877522 206.283414 
L 611.398692 204.434748 
L 612.180448 201.471165 
L 612.441034 200.922301 
L 612.701619 200.797027 
L 612.962204 201.18358 
L 613.22279 202.03333 
L 613.74396 204.791022 
L 615.568057 216.870162 
L 616.089228 218.669694 
L 616.349813 219.181421 
L 616.610399 219.44633 
L 616.870984 219.473327 
L 617.131569 219.271318 
L 617.65274 218.215908 
L 618.17391 216.354274 
L 618.955666 212.380547 
L 621.822105 196.026968 
L 622.603861 193.004701 
L 623.385616 190.873615 
L 623.906787 190.103109 
L 624.167372 189.995774 
L 624.427958 190.11369 
L 624.688543 190.486839 
L 624.949128 191.1452 
L 625.470299 193.437478 
L 625.991469 197.20338 
L 627.554981 210.754593 
L 627.815567 211.968188 
L 628.076152 212.531385 
L 628.336737 212.312244 
L 628.597323 211.228154 
L 629.118493 206.973335 
L 630.94259 187.397084 
L 631.203176 186.149498 
L 631.463761 185.531319 
L 631.724346 185.445728 
L 631.984932 185.795905 
L 632.506102 187.416287 
L 633.809029 192.343223 
L 634.590785 193.717072 
L 635.111955 194.660008 
L 635.633126 196.254253 
L 636.154296 199.013483 
L 637.196638 207.08626 
L 637.978394 212.623814 
L 638.499564 214.737105 
L 638.760149 215.079748 
L 639.020735 214.966439 
L 639.28132 214.46414 
L 639.802491 212.560427 
L 641.887173 202.481414 
L 642.408344 201.094187 
L 642.929514 200.312434 
L 643.1901 200.15094 
L 643.450685 200.143607 
L 643.71127 200.291369 
L 644.232441 201.009592 
L 646.056538 204.534545 
L 646.317123 204.715878 
L 646.577709 204.727906 
L 647.098879 204.374382 
L 648.14122 203.334932 
L 648.401806 203.251216 
L 648.662391 203.322096 
L 648.922976 203.589639 
L 649.444147 204.721056 
L 650.486488 207.30846 
L 650.747073 207.559871 
L 651.007659 207.494344 
L 651.268244 207.032496 
L 651.528829 206.094946 
L 652.05 202.760688 
L 653.613512 190.213829 
L 653.874097 189.166274 
L 654.134682 188.776152 
L 654.395268 189.132722 
L 654.655853 190.143395 
L 655.177024 193.574835 
L 656.47995 203.936479 
L 657.001121 205.932394 
L 657.261706 206.151292 
L 657.522291 205.951667 
L 658.043462 204.636558 
L 659.346389 199.969586 
L 659.867559 199.165234 
L 660.128144 199.049157 
L 660.649315 199.178704 
L 661.691656 199.705787 
L 661.952242 199.647804 
L 662.473412 199.11885 
L 664.036924 196.886612 
L 664.297509 196.840071 
L 664.558095 196.993098 
L 664.81868 197.374897 
L 665.339851 198.758701 
L 666.121606 202.015965 
L 668.466874 213.519049 
L 668.72746 214.121793 
L 668.988045 214.404214 
L 669.24863 214.314 
L 669.509215 213.798836 
L 669.769801 212.80641 
L 670.290971 209.4009 
L 672.115068 193.848725 
L 672.375654 192.672018 
L 672.636239 192.059384 
L 672.896824 191.943224 
L 673.15741 192.219825 
L 673.67858 193.53646 
L 674.460336 195.864302 
L 674.720922 196.319501 
L 674.981507 196.441471 
L 675.242092 196.163149 
L 675.763263 194.760414 
L 676.545019 192.283841 
L 676.805604 191.823727 
L 677.066189 191.739957 
L 677.326775 192.148715 
L 677.58736 193.166184 
L 678.108531 197.129695 
L 679.932628 215.871216 
L 680.193213 217.093012 
L 680.453798 217.530997 
L 680.714384 217.263136 
L 680.974969 216.414097 
L 681.496139 213.471154 
L 682.799066 204.669909 
L 683.320237 202.918969 
L 683.841407 202.204571 
L 684.623163 201.70251 
L 684.883748 201.372979 
L 685.144334 200.831504 
L 685.665504 198.999872 
L 687.229016 192.325332 
L 687.489601 191.800991 
L 687.750187 191.637718 
L 688.010772 191.887796 
L 688.271357 192.523073 
L 688.792528 194.756186 
L 689.574284 199.78834 
L 691.398381 212.761702 
L 691.919552 215.297864 
L 692.440722 216.786396 
L 692.701308 217.049149 
L 692.961893 216.943613 
L 693.222478 216.452983 
L 693.743649 214.566342 
L 695.307161 207.16903 
L 695.567746 206.485682 
L 695.828331 206.137657 
L 696.088917 206.073424 
L 696.349502 206.215849 
L 697.391843 207.309493 
L 697.652428 207.328227 
L 697.913014 207.090827 
L 698.173599 206.520159 
L 698.69477 204.314687 
L 699.997696 197.18481 
L 700.258281 196.329894 
L 700.518867 195.9127 
L 700.779452 196.039243 
L 701.040037 196.776569 
L 701.561208 199.689301 
L 703.12472 210.73091 
L 703.385305 211.565249 
L 703.64589 211.812952 
L 703.906476 211.55402 
L 704.427646 210.002479 
L 705.469988 206.168317 
L 705.730573 205.766557 
L 705.991158 205.830625 
L 706.251743 206.443647 
L 706.772914 208.995717 
L 708.597011 220.402775 
L 708.857597 220.919958 
L 709.118182 220.987852 
L 709.378767 220.66011 
L 709.899938 219.032339 
L 710.681694 214.964774 
L 712.505791 204.508091 
L 713.287547 201.108327 
L 713.808717 199.429451 
L 714.329888 198.300521 
L 714.851059 197.697442 
L 715.372229 197.573786 
L 715.8934 197.883123 
L 716.41457 198.579026 
L 716.935741 199.647894 
L 717.456912 201.207441 
L 717.978082 203.40821 
L 718.499253 206.400742 
L 719.281009 212.680592 
L 720.583935 224.371042 
L 721.105106 226.826916 
L 721.365691 227.106755 
L 721.626276 226.597089 
L 721.886862 225.224707 
L 722.408032 220.361751 
L 723.450374 206.394996 
L 724.23213 196.970113 
L 724.7533 193.14761 
L 725.274471 191.11085 
L 725.795641 190.230302 
L 726.837983 189.419717 
L 727.619738 187.899527 
L 728.140909 187.098653 
L 728.401494 187.015807 
L 728.66208 187.257493 
L 728.922665 187.908318 
L 729.18325 189.052885 
L 729.704421 193.124287 
L 730.486177 202.750662 
L 731.528518 216.393248 
L 732.049689 221.04634 
L 732.310274 222.377578 
L 732.570859 223.049015 
L 732.831445 223.134701 
L 733.09203 222.708682 
L 733.6132 220.617717 
L 734.394956 215.494663 
L 735.958468 204.399092 
L 736.740224 200.269704 
L 737.261395 198.488389 
L 737.782565 197.52529 
L 738.303736 197.209903 
L 738.824907 197.363894 
L 739.606663 198.08486 
L 741.170174 199.666643 
L 741.95193 200.125068 
L 742.473101 200.200286 
L 743.776027 200.19103 
L 744.297198 200.557457 
L 744.818369 201.394623 
L 745.339539 202.875354 
L 745.86071 205.172476 
L 746.38188 208.458812 
L 746.903051 212.90719 
L 747.163636 215.621151 
L 747.163636 215.621151 
" clip-path="url(#p6bafcc9077)" style="fill: none; stroke: #ff0000; stroke-linecap: square"/>
   </g>
   <g id="line2d_26">
    <path d="M 138.436364 230.915392 
L 139.21812 224.647764 
L 139.999875 220.107777 
L 140.781631 216.984989 
L 141.563387 214.968953 
L 142.345143 213.749227 
L 143.126899 213.015365 
L 144.690411 212.00139 
L 145.211582 211.87585 
L 145.732752 211.99569 
L 146.253923 212.447375 
L 147.035679 213.715955 
L 147.817435 214.895746 
L 148.07802 215.091256 
L 148.338605 215.124309 
L 148.599191 214.956757 
L 148.859776 214.550453 
L 149.380946 213.004372 
L 151.205044 206.191462 
L 151.465629 205.88531 
L 151.726214 205.910209 
L 151.9868 206.200148 
L 153.289726 208.409364 
L 153.550311 208.359894 
L 153.810897 207.932246 
L 154.071482 207.034533 
L 154.592653 203.739309 
L 155.634994 194.135824 
L 156.41675 187.96892 
L 156.93792 185.826373 
L 157.459091 184.926715 
L 158.501432 184.032048 
L 158.762017 183.482055 
L 159.283188 181.402923 
L 160.064944 176.29419 
L 161.107285 169.586258 
L 161.628456 167.949451 
L 161.889041 167.849494 
L 162.149626 168.15991 
L 162.670797 169.517344 
L 163.191968 171.032722 
L 163.452553 171.540566 
L 163.713138 171.717009 
L 163.973724 171.43842 
L 164.234309 170.581172 
L 164.755479 166.922104 
L 165.27665 161.180402 
L 166.318991 146.355179 
L 167.621918 128.54537 
L 168.924844 114.133216 
L 171.009527 93.618691 
L 171.791283 87.919654 
L 172.312453 85.338246 
L 172.833624 83.710986 
L 173.354795 82.702531 
L 174.657721 80.608484 
L 175.178892 79.121507 
L 176.221233 75.1709 
L 177.263574 71.276792 
L 178.04533 69.247986 
L 178.566501 68.388626 
L 179.087671 67.900013 
L 179.608842 67.761752 
L 180.130012 67.953188 
L 180.651183 68.447693 
L 181.172354 69.212665 
L 181.95411 70.795367 
L 182.996451 73.53268 
L 184.559963 77.683389 
L 185.081133 78.643313 
L 185.602304 79.182793 
L 185.862889 79.222963 
L 186.123474 79.066741 
L 186.38406 78.681618 
L 186.90523 77.094634 
L 187.426401 74.201939 
L 187.947572 69.778124 
L 189.250498 57.52707 
L 189.511083 56.261409 
L 189.771669 55.8 
L 190.032254 56.318301 
L 190.292839 57.991771 
L 190.81401 65.062755 
L 191.335181 76.200159 
L 192.377522 105.649882 
L 194.201619 158.593721 
L 195.24396 183.774255 
L 196.286301 203.348385 
L 197.068057 214.595142 
L 197.849813 223.330519 
L 198.631569 229.697881 
L 199.15274 232.228509 
L 199.413325 232.859158 
L 199.67391 233.013196 
L 199.934496 232.650494 
L 200.195081 231.730927 
L 200.716252 228.09684 
L 202.540349 210.285557 
L 202.800934 209.435682 
L 203.061519 209.53984 
L 203.322105 210.706459 
L 203.843275 215.498561 
L 205.146202 230.930015 
L 205.406787 232.740707 
L 205.667372 233.58159 
L 205.927958 233.302519 
L 206.188543 232.086385 
L 206.709714 227.90752 
L 207.491469 221.264969 
L 207.752055 220.01558 
L 208.01264 219.692171 
L 208.273225 220.560891 
L 208.533811 222.783053 
L 209.054981 230.150766 
L 210.097323 246.419653 
L 210.357908 248.689659 
L 210.618493 249.515056 
L 210.879078 248.532985 
L 211.139664 245.50784 
L 211.660834 234.549254 
L 213.484932 186.727759 
L 213.745517 183.92752 
L 214.006102 182.711471 
L 214.266687 182.827398 
L 214.527273 184.023091 
L 215.048443 188.644925 
L 216.090785 199.748458 
L 216.611955 202.685698 
L 216.87254 203.415704 
L 217.133126 203.807947 
L 217.654296 204.043084 
L 217.914882 204.117946 
L 218.175467 204.318985 
L 218.436052 204.762183 
L 218.696638 205.563528 
L 219.217808 208.420166 
L 220.260149 216.708335 
L 221.041905 222.111492 
L 221.563076 223.885209 
L 221.823661 224.047751 
L 222.084247 223.741326 
L 222.344832 222.981053 
L 222.866002 220.159432 
L 223.387173 215.703835 
L 224.168929 206.247993 
L 225.21127 192.323916 
L 225.732441 187.830246 
L 225.993026 186.813876 
L 226.253611 186.851484 
L 226.514197 188.118319 
L 226.774782 190.712941 
L 227.295953 198.976084 
L 228.859465 227.845147 
L 229.12005 230.260335 
L 229.380635 231.322307 
L 229.64122 231.20185 
L 229.901806 230.160886 
L 230.422976 226.365124 
L 231.204732 220.315725 
L 231.465318 219.252078 
L 231.725903 219.101377 
L 231.986488 220.037064 
L 232.507659 224.357199 
L 233.55 235.261621 
L 233.810585 236.890488 
L 234.071171 237.54254 
L 234.331756 236.948814 
L 234.592341 234.945195 
L 235.113512 227.834144 
L 236.155853 211.279576 
L 236.416438 208.755585 
L 236.677024 207.597653 
L 236.937609 208.055328 
L 237.198194 209.935953 
L 237.719365 216.753207 
L 239.022291 237.473227 
L 239.282877 239.821873 
L 239.543462 240.942718 
L 239.804047 240.923273 
L 240.064633 239.929189 
L 240.585803 235.679717 
L 241.628144 222.773824 
L 242.4099 214.191545 
L 243.191656 208.137856 
L 243.973412 203.755549 
L 245.276339 197.959888 
L 246.058095 195.166955 
L 246.579265 193.810622 
L 247.100436 192.991025 
L 247.361021 192.822278 
L 247.621606 192.856342 
L 247.882192 193.133505 
L 248.142777 193.694058 
L 248.663948 195.826485 
L 249.185118 199.575938 
L 249.706289 205.26473 
L 251.790971 232.87737 
L 252.051557 233.630618 
L 252.312142 233.098917 
L 252.572727 231.159668 
L 253.093898 223.979086 
L 254.65741 197.072496 
L 254.917995 194.875751 
L 255.17858 194.023816 
L 255.439166 194.366504 
L 255.699751 195.665116 
L 256.220922 200.175316 
L 257.263263 210.164035 
L 257.523848 211.470535 
L 257.784433 211.893368 
L 258.045019 211.543854 
L 258.566189 209.253074 
L 259.608531 203.381545 
L 259.869116 202.702636 
L 260.129701 202.701962 
L 260.390286 203.501069 
L 260.911457 206.968613 
L 262.214384 218.266214 
L 262.474969 219.557687 
L 262.735554 220.112694 
L 262.996139 219.804619 
L 263.256725 218.709731 
L 263.777895 214.667464 
L 264.559651 205.877666 
L 265.601993 194.384289 
L 266.123163 190.572234 
L 266.644334 188.421321 
L 266.904919 188.018132 
L 267.165504 188.089433 
L 267.42609 188.654961 
L 267.686675 189.73445 
L 268.207846 193.487055 
L 269.250187 204.709907 
L 270.031943 211.908685 
L 270.292528 213.311104 
L 270.553113 213.975842 
L 270.813699 213.81725 
L 271.074284 212.980915 
L 271.595455 210.088602 
L 272.37721 205.751965 
L 272.637796 205.120492 
L 272.898381 205.235048 
L 273.158966 206.29903 
L 273.680137 211.455744 
L 275.243649 232.878518 
L 275.504234 234.466967 
L 275.764819 234.76529 
L 276.025405 233.60125 
L 276.546575 227.883545 
L 277.849502 208.925594 
L 278.110087 206.924651 
L 278.370672 206.276046 
L 278.631258 207.194593 
L 278.891843 209.459287 
L 279.413014 216.707284 
L 280.455355 232.838884 
L 280.71594 235.28778 
L 280.976526 236.443156 
L 281.237111 236.07615 
L 281.497696 234.362274 
L 282.018867 228.000334 
L 283.321793 207.887685 
L 283.842964 203.888166 
L 284.103549 203.358438 
L 284.364134 203.563672 
L 284.885305 205.36378 
L 285.667061 208.480867 
L 285.927646 208.815829 
L 286.188232 208.509009 
L 286.448817 207.606275 
L 286.969988 204.396291 
L 288.012329 195.040834 
L 288.794085 188.461632 
L 289.315255 185.423899 
L 289.836426 183.741015 
L 290.097011 183.467951 
L 290.357597 183.605969 
L 290.618182 184.179194 
L 290.878767 185.21175 
L 291.399938 188.724376 
L 293.224035 205.346963 
L 293.48462 206.447385 
L 293.745205 206.816181 
L 294.005791 206.369909 
L 294.266376 205.242118 
L 294.787547 201.693165 
L 295.569303 195.953258 
L 295.829888 194.680081 
L 296.090473 194.039961 
L 296.351059 194.220694 
L 296.611644 195.343931 
L 297.132814 199.780012 
L 298.435741 213.885624 
L 298.696326 215.550991 
L 298.956912 216.343242 
L 299.217497 216.127424 
L 299.478082 215.065124 
L 299.999253 211.343959 
L 300.781009 205.30661 
L 301.041594 204.115548 
L 301.302179 203.728047 
L 301.562765 204.379828 
L 301.82335 206.222379 
L 302.344521 212.653802 
L 303.647447 232.167907 
L 303.908032 234.502308 
L 304.168618 235.684669 
L 304.429203 235.52873 
L 304.689788 234.181877 
L 305.210959 228.838614 
L 306.774471 208.229726 
L 307.035056 206.494054 
L 307.295641 205.53682 
L 307.556227 205.250204 
L 307.816812 205.52639 
L 308.077397 206.257559 
L 308.598568 208.653575 
L 309.640909 214.180448 
L 310.16208 216.062007 
L 310.68325 217.252324 
L 311.204421 217.802371 
L 311.465006 217.853222 
L 311.725592 217.763119 
L 312.246762 217.190004 
L 313.028518 215.707139 
L 313.810274 214.264449 
L 314.331445 213.767225 
L 314.59203 213.757489 
L 315.1132 214.211663 
L 315.634371 214.725379 
L 315.894956 214.768827 
L 316.155542 214.544274 
L 316.416127 213.957425 
L 316.676712 212.913985 
L 317.197883 209.080151 
L 317.719054 202.711467 
L 319.02198 185.556377 
L 319.282565 183.697917 
L 319.543151 182.883975 
L 319.803736 183.33755 
L 320.064321 185.197246 
L 320.585492 192.254672 
L 322.149004 219.727951 
L 322.409589 222.250249 
L 322.670174 223.517357 
L 322.93076 223.68631 
L 323.191345 223.002222 
L 323.712516 220.055388 
L 324.494271 215.36523 
L 324.754857 214.710332 
L 325.015442 214.918205 
L 325.276027 216.148469 
L 325.797198 220.861259 
L 326.839539 231.796095 
L 327.100125 233.281777 
L 327.36071 233.73255 
L 327.621295 232.880564 
L 327.88188 230.556949 
L 328.403051 222.501993 
L 329.705978 197.700717 
L 329.966563 194.54914 
L 330.227148 192.761181 
L 330.487733 192.563819 
L 330.748319 193.787852 
L 331.269489 199.42711 
L 332.833001 222.560539 
L 333.354172 225.726758 
L 333.614757 226.155884 
L 333.875342 225.9945 
L 334.135928 225.376717 
L 334.657098 223.308397 
L 335.438854 220.135678 
L 335.69944 219.562987 
L 335.960025 219.27569 
L 336.22061 219.210921 
L 336.741781 219.497492 
L 337.262951 219.919761 
L 337.523537 220.024613 
L 337.784122 219.974787 
L 338.044707 219.721689 
L 338.565878 218.653979 
L 339.087049 216.989455 
L 340.12939 212.598949 
L 341.171731 208.183366 
L 341.692902 206.90446 
L 341.953487 206.712433 
L 342.214072 206.900982 
L 342.474658 207.531828 
L 342.735243 208.666687 
L 343.256413 212.655072 
L 345.080511 231.134181 
L 345.341096 231.968406 
L 345.601681 231.811787 
L 345.862267 230.552276 
L 346.383437 225.428379 
L 347.946949 205.545273 
L 348.207534 203.954615 
L 348.46812 203.387737 
L 348.728705 203.70497 
L 348.98929 204.693361 
L 350.552802 212.792562 
L 350.813387 212.516328 
L 351.073973 211.28219 
L 351.595143 206.654453 
L 352.637484 195.326972 
L 352.89807 193.431316 
L 353.158655 192.379135 
L 353.41924 192.404921 
L 353.679826 193.662835 
L 354.200996 199.12597 
L 355.764508 221.272418 
L 356.025093 223.204104 
L 356.285679 224.040809 
L 356.546264 223.873778 
L 356.806849 222.862013 
L 357.32802 218.940277 
L 359.152117 201.718259 
L 359.673288 199.375675 
L 360.194458 198.168508 
L 360.455044 197.901073 
L 360.715629 197.809934 
L 361.2368 198.013131 
L 362.018555 198.832528 
L 363.321482 200.389312 
L 363.842653 200.702313 
L 364.884994 200.846491 
L 365.145579 201.063691 
L 365.406164 201.463437 
L 365.927335 203.03074 
L 366.448506 205.98874 
L 367.230262 213.056918 
L 368.012017 220.093339 
L 368.533188 222.716476 
L 368.793773 222.946415 
L 369.054359 222.250249 
L 369.314944 220.539464 
L 369.836115 214.829174 
L 371.139041 198.296157 
L 371.399626 196.504346 
L 371.660212 195.772146 
L 371.920797 196.260371 
L 372.181382 197.822227 
L 372.702553 203.272031 
L 374.005479 220.026114 
L 374.52665 223.343254 
L 374.787235 223.767487 
L 375.047821 223.541013 
L 375.308406 222.80831 
L 375.829577 220.402129 
L 376.611333 216.608095 
L 376.871918 215.87206 
L 377.132503 215.59778 
L 377.393088 215.712915 
L 377.914259 216.648614 
L 378.43543 217.753524 
L 378.696015 218.080174 
L 378.9566 218.102015 
L 379.217186 217.703343 
L 379.477771 216.768454 
L 379.998941 213.148691 
L 380.780697 205.024244 
L 381.823039 194.428397 
L 382.344209 191.464677 
L 382.604795 190.851759 
L 382.86538 190.797011 
L 383.125965 191.278451 
L 383.38655 192.274095 
L 383.907721 195.72006 
L 384.428892 200.95904 
L 385.210648 211.604345 
L 386.252989 225.736768 
L 386.774159 229.824797 
L 387.034745 230.547641 
L 387.29533 230.231394 
L 387.555915 229.018091 
L 388.077086 224.713881 
L 389.119427 214.28999 
L 389.640598 211.424566 
L 389.901183 211.226105 
L 390.161768 211.77901 
L 390.682939 214.410532 
L 391.72528 220.677712 
L 391.985866 221.391472 
L 392.246451 221.399824 
L 392.507036 220.584759 
L 393.028207 217.101845 
L 394.070548 208.392968 
L 394.331133 207.033467 
L 394.591719 206.405918 
L 394.852304 206.712751 
L 395.112889 208.082067 
L 395.63406 213.256902 
L 396.936986 229.039007 
L 397.197572 230.73466 
L 397.458157 231.375082 
L 397.718742 230.792474 
L 397.979328 229.122088 
L 398.500498 223.362029 
L 400.06401 201.92049 
L 400.585181 198.57871 
L 400.845766 197.837695 
L 401.106351 197.563462 
L 401.366936 197.641157 
L 401.888107 198.39293 
L 402.409278 199.174201 
L 402.669863 199.288769 
L 402.930448 199.095955 
L 403.451619 197.954561 
L 405.015131 193.088174 
L 405.275716 192.738196 
L 405.536301 192.675808 
L 405.796887 192.891629 
L 406.057472 193.361611 
L 406.578643 194.967876 
L 407.360399 198.682321 
L 409.445081 210.540227 
L 409.966252 211.907393 
L 410.226837 212.049767 
L 410.487422 211.757841 
L 410.748007 211.008047 
L 411.269178 208.577017 
L 412.050934 204.614946 
L 412.311519 203.746936 
L 412.572105 203.328943 
L 412.83269 203.495172 
L 413.093275 204.379828 
L 413.614446 208.419321 
L 414.656787 220.898345 
L 415.177958 226.4221 
L 415.699128 229.524832 
L 415.959714 229.772015 
L 416.220299 229.222973 
L 416.741469 226.430221 
L 418.044396 217.659566 
L 418.304981 216.986807 
L 418.565567 217.023258 
L 418.826152 217.661998 
L 419.347323 220.094317 
L 420.129078 224.184782 
L 420.389664 225.014106 
L 420.650249 225.304668 
L 420.910834 224.893463 
L 421.17142 223.676677 
L 421.69259 219.417429 
L 422.995517 207.087132 
L 423.256102 205.870001 
L 423.516687 205.517559 
L 423.777273 206.159804 
L 424.037858 207.678079 
L 424.559029 212.619431 
L 425.861955 227.64581 
L 426.383126 230.973754 
L 426.643711 231.625295 
L 426.904296 231.709252 
L 427.164882 231.317516 
L 427.686052 229.474534 
L 429.510149 221.010113 
L 431.855417 213.313737 
L 432.897758 208.059964 
L 435.243026 195.174701 
L 435.503611 194.658346 
L 435.764197 194.606984 
L 436.024782 195.10224 
L 436.285367 196.225737 
L 436.806538 200.639209 
L 437.588294 211.260066 
L 438.630635 225.167048 
L 439.151806 228.702446 
L 439.412391 229.299005 
L 439.672976 229.27947 
L 439.933562 228.780833 
L 440.454732 226.894226 
L 441.236488 223.895872 
L 441.497073 223.399472 
L 441.757659 223.339739 
L 442.018244 223.637759 
L 443.321171 226.220914 
L 443.581756 226.101504 
L 443.842341 225.485196 
L 444.102927 224.249898 
L 444.624097 219.840833 
L 446.187609 203.472786 
L 446.448194 202.208913 
L 446.70878 201.851537 
L 446.969365 202.520791 
L 447.22995 204.085092 
L 447.751121 209.120781 
L 449.054047 223.757377 
L 449.314633 225.479566 
L 449.575218 226.395147 
L 449.835803 226.554436 
L 450.096389 226.056717 
L 450.617559 223.487394 
L 451.399315 217.187951 
L 452.702242 206.401385 
L 453.483998 201.891306 
L 454.005168 199.958644 
L 454.526339 199.012955 
L 454.786924 198.936356 
L 455.047509 199.099067 
L 455.56868 200.003204 
L 456.350436 202.284153 
L 457.653362 206.322632 
L 458.695704 209.475242 
L 459.216874 211.681442 
L 459.738045 214.665376 
L 461.301557 225.429942 
L 461.562142 226.315329 
L 461.822727 226.620375 
L 462.083313 226.224816 
L 462.343898 225.008385 
L 462.865068 220.068304 
L 464.689166 197.04982 
L 464.949751 195.79513 
L 465.210336 195.606016 
L 465.470922 196.36917 
L 465.992092 200.042741 
L 467.816189 216.868327 
L 468.076775 217.728811 
L 468.33736 218.157468 
L 468.597945 218.260487 
L 469.119116 217.914354 
L 469.640286 217.539905 
L 469.900872 217.607527 
L 470.161457 217.986631 
L 470.682628 219.811356 
L 471.985554 225.733269 
L 472.246139 226.244285 
L 472.506725 226.266443 
L 472.76731 225.686427 
L 473.027895 224.428153 
L 473.549066 220.20547 
L 474.330822 211.257358 
L 475.373163 199.070416 
L 475.894334 194.699274 
L 476.415504 191.853735 
L 476.936675 190.518025 
L 477.19726 190.411425 
L 477.457846 190.676366 
L 477.718431 191.310876 
L 478.239601 193.668701 
L 479.021357 199.188977 
L 480.324284 208.789432 
L 480.845455 211.066298 
L 481.366625 212.167227 
L 482.669552 213.593968 
L 483.190722 215.205511 
L 483.711893 218.048311 
L 484.754234 224.335022 
L 485.014819 225.325282 
L 485.275405 225.840694 
L 485.53599 225.760118 
L 485.796575 224.962416 
L 486.317746 221.158099 
L 487.881258 205.557275 
L 488.141843 204.437289 
L 488.402428 204.212257 
L 488.663014 204.78649 
L 489.184184 207.71414 
L 490.747696 219.595543 
L 491.008281 220.445055 
L 491.268867 220.794956 
L 491.529452 220.73825 
L 491.790037 220.367938 
L 492.311208 219.058505 
L 493.092964 217.06736 
L 493.353549 216.768454 
L 493.614134 216.779904 
L 493.87472 217.05945 
L 494.39589 218.145583 
L 495.177646 220.052703 
L 495.438232 220.485275 
L 495.698817 220.700759 
L 495.959402 220.629844 
L 496.219988 220.222643 
L 496.741158 218.530047 
L 497.522914 214.504201 
L 499.086426 205.713267 
L 499.868182 202.647128 
L 500.389352 201.194401 
L 500.910523 200.218029 
L 501.431694 199.717298 
L 501.952864 199.610778 
L 502.73462 199.834344 
L 503.516376 200.020949 
L 504.037547 199.862057 
L 504.558717 199.606003 
L 504.819303 199.584818 
L 505.079888 199.713943 
L 505.340473 200.052689 
L 505.601059 200.660368 
L 506.122229 202.919771 
L 506.6434 206.935517 
L 507.685741 218.429884 
L 508.467497 226.120443 
L 508.988667 228.892759 
L 509.249253 229.232607 
L 509.509838 228.931433 
L 509.770423 228.116543 
L 510.291594 225.454849 
L 511.333935 219.568416 
L 511.594521 218.722134 
L 511.855106 218.343132 
L 512.115691 218.371392 
L 512.376276 218.709429 
L 513.158032 220.607351 
L 513.679203 221.634296 
L 513.939788 221.783814 
L 514.200374 221.560715 
L 514.460959 220.900402 
L 514.98213 218.568802 
L 516.285056 211.501284 
L 516.545641 210.674119 
L 516.806227 210.275343 
L 517.066812 210.373915 
L 517.327397 210.915307 
L 517.848568 212.98496 
L 519.41208 220.940135 
L 519.93325 222.070637 
L 520.193836 222.260005 
L 520.454421 222.25893 
L 520.975592 221.865883 
L 522.017933 220.779243 
L 522.539103 220.711455 
L 523.320859 221.079938 
L 523.84203 221.325898 
L 524.3632 221.321592 
L 524.623786 221.158487 
L 525.144956 220.387857 
L 525.666127 218.900255 
L 526.187298 216.551061 
L 526.708468 213.195654 
L 527.229639 208.689415 
L 529.314321 187.438107 
L 529.574907 186.202551 
L 529.835492 185.658981 
L 530.096077 185.880996 
L 530.356663 186.785093 
L 530.877833 190.14843 
L 532.70193 205.38979 
L 533.223101 207.502696 
L 533.744271 208.768259 
L 534.526027 210.309066 
L 535.047198 211.918732 
L 535.828954 215.792353 
L 536.350125 218.281487 
L 536.61071 219.161342 
L 536.871295 219.648401 
L 537.13188 219.63042 
L 537.392466 218.995158 
L 537.653051 217.630372 
L 538.174222 212.705409 
L 539.477148 197.179023 
L 539.737733 195.277738 
L 539.998319 194.289648 
L 540.258904 194.370223 
L 540.519489 195.419346 
L 541.04066 199.767163 
L 542.083001 212.868602 
L 542.864757 221.416176 
L 543.385928 224.864763 
L 543.907098 226.687784 
L 544.167684 227.074055 
L 544.428269 227.155151 
L 544.688854 226.964811 
L 545.210025 225.904779 
L 545.731196 224.153497 
L 546.773537 219.438981 
L 548.076463 213.409402 
L 549.118804 209.814029 
L 550.161146 207.029789 
L 551.203487 204.742387 
L 551.724658 204.128087 
L 551.985243 204.065929 
L 552.245828 204.210328 
L 552.506413 204.593707 
L 552.766999 205.248488 
L 553.288169 207.479961 
L 555.112267 217.44897 
L 555.372852 217.830681 
L 555.633437 217.653356 
L 555.894022 216.858651 
L 556.415193 213.882956 
L 557.71812 205.231632 
L 557.978705 204.47208 
L 558.23929 204.379828 
L 558.499875 205.052077 
L 559.021046 208.227011 
L 560.584558 221.354102 
L 560.845143 222.457109 
L 561.105729 222.888145 
L 561.366314 222.728439 
L 561.626899 222.10614 
L 562.14807 219.986348 
L 562.929826 216.540883 
L 563.190411 215.834109 
L 563.450996 215.56177 
L 563.711582 215.811098 
L 563.972167 216.505658 
L 564.493337 218.761079 
L 565.275093 222.549715 
L 565.796264 223.976727 
L 566.056849 224.008561 
L 566.317435 223.466081 
L 566.838605 220.957416 
L 567.620361 215.169043 
L 568.402117 209.404444 
L 568.923288 206.91385 
L 569.183873 206.23107 
L 569.444458 205.874162 
L 569.705044 205.800222 
L 569.965629 205.966344 
L 570.4868 206.847165 
L 571.529141 209.610521 
L 573.092653 214.059836 
L 574.134994 217.869308 
L 576.480262 227.70906 
L 577.001432 229.127107 
L 577.522603 229.817744 
L 577.783188 229.803014 
L 578.043773 229.501707 
L 578.304359 228.878918 
L 578.825529 226.529258 
L 579.3467 222.501127 
L 581.431382 202.837059 
L 581.691968 202.000936 
L 581.952553 201.892954 
L 582.213138 202.421123 
L 582.734309 204.845776 
L 584.037235 212.587635 
L 584.297821 213.343769 
L 584.558406 213.559398 
L 584.818991 213.292763 
L 585.340162 211.700282 
L 586.643088 206.062135 
L 586.903674 205.425621 
L 587.164259 205.148877 
L 587.424844 205.178673 
L 587.946015 205.824874 
L 588.727771 207.011885 
L 588.988356 207.132597 
L 589.248941 206.977072 
L 589.509527 206.489928 
L 590.030697 204.773033 
L 591.073039 200.719858 
L 591.333624 200.067326 
L 591.594209 199.72703 
L 591.854795 199.782935 
L 592.11538 200.29109 
L 592.63655 202.413763 
L 594.721233 213.420787 
L 594.981818 213.814238 
L 595.242403 213.885627 
L 595.502989 213.651514 
L 595.763574 213.12846 
L 596.284745 211.281775 
L 596.805915 208.478061 
L 597.587671 202.865017 
L 598.630012 195.664039 
L 599.151183 193.787425 
L 599.411768 193.593043 
L 599.672354 194.013834 
L 599.932939 195.102082 
L 600.45411 198.858854 
L 602.017621 213.168615 
L 602.538792 215.435188 
L 602.799377 215.751989 
L 603.059963 215.653989 
L 603.581133 214.642247 
L 604.362889 212.692757 
L 604.623474 212.356419 
L 604.88406 212.355437 
L 605.144645 212.760997 
L 605.665816 214.464875 
L 606.708157 218.40005 
L 606.968742 218.859637 
L 607.229328 218.89214 
L 607.489913 218.388859 
L 607.750498 217.283075 
L 608.271669 213.710797 
L 609.574595 203.524674 
L 609.835181 202.417723 
L 610.095766 201.954967 
L 610.356351 202.234891 
L 610.616936 203.177194 
L 611.138107 206.54893 
L 612.701619 219.561067 
L 613.22279 221.764482 
L 613.483375 222.298042 
L 613.74396 222.519931 
L 614.004545 222.480472 
L 614.265131 222.229984 
L 614.786301 221.297212 
L 616.349813 218.072558 
L 618.955666 213.385434 
L 619.737422 211.113726 
L 620.519178 207.770036 
L 622.08269 199.687214 
L 622.343275 198.987664 
L 622.603861 198.687991 
L 622.864446 198.868764 
L 623.125031 199.610551 
L 623.646202 202.847101 
L 624.427958 210.611706 
L 625.730884 224.066022 
L 626.252055 227.299238 
L 626.773225 229.129412 
L 627.294396 229.934828 
L 627.815567 230.093769 
L 628.857908 229.869756 
L 629.379078 229.5497 
L 629.900249 228.708967 
L 630.42142 227.032171 
L 630.94259 224.203929 
L 631.724346 217.787552 
L 632.766687 209.25724 
L 633.287858 206.992549 
L 633.548443 206.747228 
L 633.809029 207.201067 
L 634.069614 208.266702 
L 634.590785 211.725565 
L 635.893711 222.192788 
L 636.414882 224.62111 
L 636.675467 225.248429 
L 636.936052 225.49457 
L 637.196638 225.367068 
L 637.457223 224.873459 
L 637.978394 222.818067 
L 638.499564 219.388683 
L 639.28132 212.122898 
L 640.584247 199.255258 
L 641.105417 195.6917 
L 641.626588 193.805377 
L 641.887173 193.421617 
L 642.147758 193.338006 
L 642.408344 193.499953 
L 642.929514 194.342165 
L 644.493026 197.511036 
L 645.014197 198.5883 
L 645.535367 200.139786 
L 646.056538 202.486346 
L 646.577709 205.92428 
L 648.14122 217.818433 
L 648.401806 218.91623 
L 648.662391 219.475386 
L 648.922976 219.388683 
L 649.183562 218.594598 
L 649.704732 215.414945 
L 651.007659 205.972497 
L 651.268244 205.163495 
L 651.528829 205.103838 
L 651.789415 205.903174 
L 652.310585 209.543486 
L 653.874097 224.067934 
L 654.134682 225.157784 
L 654.395268 225.449123 
L 654.655853 225.031214 
L 655.177024 222.637545 
L 656.47995 214.214677 
L 656.740535 213.251831 
L 657.001121 212.818052 
L 657.261706 212.836077 
L 657.522291 213.184694 
L 658.564633 215.460859 
L 658.825218 215.644269 
L 659.085803 215.431004 
L 659.346389 214.699852 
L 659.867559 211.499879 
L 660.649315 203.733914 
L 661.952242 189.842154 
L 662.473412 186.234921 
L 662.994583 184.15396 
L 663.255168 183.656502 
L 663.515753 183.505416 
L 663.776339 183.688972 
L 664.036924 184.195436 
L 664.558095 186.130163 
L 665.079265 189.170184 
L 666.121606 197.23394 
L 667.424533 207.255894 
L 668.206289 211.632643 
L 668.988045 214.901822 
L 669.769801 217.389035 
L 670.290971 218.676477 
L 670.551557 219.092289 
L 670.812142 219.275175 
L 671.072727 219.164395 
L 671.333313 218.69921 
L 671.593898 217.81888 
L 672.115068 214.569826 
L 672.636239 208.974913 
L 674.199751 187.773266 
L 674.460336 185.685227 
L 674.720922 184.545768 
L 674.981507 184.555727 
L 675.242092 185.842924 
L 675.763263 191.519103 
L 677.58736 219.043916 
L 677.847945 220.85193 
L 678.108531 221.800556 
L 678.369116 222.052585 
L 678.629701 221.770811 
L 679.150872 220.257017 
L 679.672042 218.561512 
L 679.932628 218.052597 
L 680.193213 217.986631 
L 680.453798 218.472669 
L 680.974969 220.623465 
L 681.756725 224.402092 
L 682.01731 225.170449 
L 682.277895 225.427174 
L 682.538481 225.01264 
L 682.799066 223.767224 
L 683.320237 218.688247 
L 684.883748 199.489413 
L 685.144334 198.311929 
L 685.404919 198.298236 
L 685.665504 199.32417 
L 686.186675 203.700827 
L 687.750187 221.135503 
L 688.010772 222.633139 
L 688.271357 223.476623 
L 688.531943 223.758877 
L 688.792528 223.572825 
L 689.053113 223.011388 
L 689.574284 221.134052 
L 690.616625 216.942691 
L 691.398381 215.074525 
L 692.701308 212.692544 
L 693.222478 211.276897 
L 694.004234 208.417494 
L 695.828331 201.385234 
L 696.349502 200.082863 
L 696.870672 199.406327 
L 697.131258 199.354569 
L 697.391843 199.521453 
L 697.652428 199.927709 
L 698.173599 201.541246 
L 698.69477 204.235052 
L 700.258281 213.654785 
L 700.779452 215.274464 
L 701.040037 215.493393 
L 701.300623 215.358482 
L 701.821793 214.35506 
L 702.864134 211.709273 
L 703.12472 211.392933 
L 703.385305 211.378597 
L 703.64589 211.719409 
L 704.167061 213.188823 
L 705.209402 216.729664 
L 705.469988 217.209222 
L 705.730573 217.344437 
L 705.991158 217.044268 
L 706.251743 216.249861 
L 706.772914 213.490079 
L 708.336426 203.192536 
L 708.597011 202.253765 
L 708.857597 201.779888 
L 709.118182 201.725736 
L 709.378767 202.016689 
L 709.899938 203.335431 
L 711.202864 207.448254 
L 711.46345 207.828423 
L 711.724035 207.970209 
L 711.98462 207.887079 
L 712.245205 207.592502 
L 712.766376 206.422876 
L 713.287547 204.569075 
L 714.069303 200.747308 
L 715.372229 193.779085 
L 715.8934 191.918618 
L 716.153985 191.38665 
L 716.41457 191.186745 
L 716.675156 191.353456 
L 716.935741 191.859883 
L 717.456912 193.722843 
L 718.238667 198.008617 
L 720.583935 212.40233 
L 721.886862 218.739647 
L 722.408032 220.65408 
L 722.929203 221.753463 
L 723.189788 221.878404 
L 723.450374 221.656653 
L 723.710959 221.040569 
L 723.971544 219.982509 
L 724.492715 216.382109 
L 726.316812 199.208764 
L 726.577397 198.103247 
L 726.837983 197.771794 
L 727.098568 198.309778 
L 727.359153 199.611259 
L 727.880324 203.87963 
L 729.443836 218.75661 
L 729.704421 219.938513 
L 729.965006 220.567756 
L 730.225592 220.734613 
L 730.486177 220.529354 
L 731.007347 219.363579 
L 732.049689 216.53861 
L 732.310274 216.232167 
L 732.570859 216.131841 
L 733.09203 216.334849 
L 733.873786 216.84343 
L 734.134371 216.852687 
L 734.394956 216.692356 
L 734.655542 216.308765 
L 735.176712 214.812767 
L 737.000809 208.137788 
L 737.261395 207.824648 
L 737.52198 207.758747 
L 737.782565 207.896641 
L 738.303736 208.61004 
L 739.606663 210.918908 
L 740.127833 211.244812 
L 741.43076 211.378643 
L 741.95193 211.893699 
L 742.473101 213.077679 
L 743.254857 215.874521 
L 744.036613 218.720032 
L 744.557783 219.976364 
L 744.818369 220.262093 
L 745.078954 220.252758 
L 745.339539 219.898283 
L 745.600125 219.148587 
L 746.121295 216.263221 
L 746.642466 211.196034 
L 747.163636 203.546398 
L 747.163636 203.546398 
" clip-path="url(#p6bafcc9077)" style="fill: none; stroke: #0000ff; stroke-linecap: square"/>
   </g>
   <g id="patch_3">
    <path d="M 108 320.4 
L 108 43.2 
" style="fill: none; stroke: #000000; stroke-width: 0.8; stroke-linejoin: miter; stroke-linecap: square"/>
   </g>
   <g id="patch_4">
    <path d="M 777.6 320.4 
L 777.6 43.2 
" style="fill: none; stroke: #000000; stroke-width: 0.8; stroke-linejoin: miter; stroke-linecap: square"/>
   </g>
   <g id="patch_5">
    <path d="M 108 320.4 
L 777.6 320.4 
" style="fill: none; stroke: #000000; stroke-width: 0.8; stroke-linejoin: miter; stroke-linecap: square"/>
   </g>
   <g id="patch_6">
    <path d="M 108 43.2 
L 777.6 43.2 
" style="fill: none; stroke: #000000; stroke-width: 0.8; stroke-linejoin: miter; stroke-linecap: square"/>
   </g>
   <g id="text_15">
    <!-- Original Data -->
    <g transform="translate(396.830981 37.2) scale(0.156 -0.156)">
     <defs>
      <path id="CMR17-4f" d="M 4307 2135 
C 4307 3437 3366 4416 2304 4416 
C 1216 4416 294 3424 294 2135 
C 294 845 1229 -128 2298 -128 
C 3392 -128 4307 864 4307 2135 
z
M 2304 -13 
C 1574 -13 781 711 781 2217 
C 781 3716 1651 4301 2298 4301 
C 2976 4301 3821 3698 3821 2217 
C 3821 686 3008 -13 2304 -13 
z
" transform="scale(0.015625)"/>
      <path id="CMR17-72" d="M 960 1497 
C 960 2112 1222 2688 1702 2688 
C 1747 2688 1792 2682 1837 2662 
C 1837 2662 1696 2617 1696 2452 
C 1696 2298 1818 2234 1914 2234 
C 1990 2234 2131 2279 2131 2458 
C 2131 2663 1926 2790 1709 2790 
C 1222 2790 1011 2317 947 2093 
L 941 2093 
L 941 2790 
L 198 2720 
L 198 2554 
C 576 2554 634 2515 634 2208 
L 634 428 
C 634 184 608 153 198 153 
L 198 -13 
C 352 0 646 0 813 0 
C 998 0 1325 0 1498 -13 
L 1498 153 
C 1037 153 960 153 960 440 
L 960 1497 
z
" transform="scale(0.015625)"/>
      <path id="CMR17-67" d="M 710 1164 
C 832 1068 1043 960 1299 960 
C 1805 960 2240 1357 2240 1888 
C 2240 2054 2189 2310 1997 2509 
C 2176 2692 2438 2752 2586 2752 
C 2611 2752 2650 2752 2682 2734 
C 2656 2728 2598 2703 2598 2605 
C 2598 2527 2656 2471 2739 2471 
C 2835 2471 2886 2533 2886 2614 
C 2886 2731 2790 2854 2586 2854 
C 2330 2854 2106 2738 1926 2580 
C 1734 2753 1504 2816 1299 2816 
C 794 2816 358 2419 358 1888 
C 358 1522 570 1292 634 1228 
C 442 1004 442 743 442 711 
C 442 545 506 302 723 168 
C 390 85 128 -169 128 -486 
C 128 -943 736 -1280 1466 -1280 
C 2170 -1280 2803 -956 2803 -479 
C 2803 384 1856 384 1363 384 
C 1216 384 954 384 922 391 
C 723 423 589 602 589 826 
C 589 883 589 1024 710 1164 
z
M 1299 1068 
C 736 1068 736 1760 736 1889 
C 736 2016 736 2708 1299 2708 
C 1862 2708 1862 2016 1862 1889 
C 1862 1760 1862 1068 1299 1068 
z
M 1466 -1171 
C 826 -1171 384 -835 384 -486 
C 384 -289 493 -105 634 -4 
C 794 104 858 104 1293 104 
C 1818 104 2547 104 2547 -486 
C 2547 -835 2106 -1171 1466 -1171 
z
" transform="scale(0.015625)"/>
      <path id="CMR17-44" d="M 333 4352 
L 333 4186 
C 774 4186 845 4186 845 3900 
L 845 452 
C 845 166 774 166 333 166 
L 333 0 
L 2368 0 
C 3398 0 4224 943 4224 2141 
C 4224 3346 3411 4352 2368 4352 
L 333 4352 
z
M 1523 166 
C 1267 166 1254 197 1254 414 
L 1254 3938 
C 1254 4155 1267 4186 1523 4186 
L 2240 4186 
C 2771 4186 3750 3874 3750 2141 
C 3750 1242 3488 879 3366 707 
C 3213 510 2848 166 2240 166 
L 1523 166 
z
" transform="scale(0.015625)"/>
     </defs>
     <use xlink:href="#CMR17-4f" transform="scale(0.996264)"/>
     <use xlink:href="#CMR17-72" transform="translate(71.714788 0) scale(0.996264)"/>
     <use xlink:href="#CMR17-69" transform="translate(106.995556 0) scale(0.996264)"/>
     <use xlink:href="#CMR17-67" transform="translate(131.866615 0) scale(0.996264)"/>
     <use xlink:href="#CMR17-69" transform="translate(177.557092 0) scale(0.996264)"/>
     <use xlink:href="#CMR17-6e" transform="translate(202.42815 0) scale(0.996264)"/>
     <use xlink:href="#CMR17-61" transform="translate(253.32352 0) scale(0.996264)"/>
     <use xlink:href="#CMR17-6c" transform="translate(299.013997 0) scale(0.996264)"/>
     <use xlink:href="#CMR17-44" transform="translate(353.961022 0) scale(0.996264)"/>
     <use xlink:href="#CMR17-61" transform="translate(424.354578 0) scale(0.996264)"/>
     <use xlink:href="#CMR17-74" transform="translate(470.045055 0) scale(0.996264)"/>
     <use xlink:href="#CMR17-61" transform="translate(505.325823 0) scale(0.996264)"/>
    </g>
   </g>
  </g>
 </g>
 <defs>
  <clipPath id="p6bafcc9077">
   <rect x="108" y="43.2" width="669.6" height="277.2"/>
  </clipPath>
 </defs>
</svg>
