<?xml version="1.0" encoding="utf-8" standalone="no"?>
<!DOCTYPE svg PUBLIC "-//W3C//DTD SVG 1.1//EN"
  "http://www.w3.org/Graphics/SVG/1.1/DTD/svg11.dtd">
<svg xmlns:xlink="http://www.w3.org/1999/xlink" width="864pt" height="360pt" viewBox="0 0 864 360" xmlns="http://www.w3.org/2000/svg" version="1.1">
 <metadata>
  <rdf:RDF xmlns:dc="http://purl.org/dc/elements/1.1/" xmlns:cc="http://creativecommons.org/ns#" xmlns:rdf="http://www.w3.org/1999/02/22-rdf-syntax-ns#">
   <cc:Work>
    <dc:type rdf:resource="http://purl.org/dc/dcmitype/StillImage"/>
    <dc:date>2023-07-29T00:39:30.137481</dc:date>
    <dc:format>image/svg+xml</dc:format>
    <dc:creator>
     <cc:Agent>
      <dc:title>Matplotlib v3.7.1, https://matplotlib.org/</dc:title>
     </cc:Agent>
    </dc:creator>
   </cc:Work>
  </rdf:RDF>
 </metadata>
 <defs>
  <style type="text/css">*{stroke-linejoin: round; stroke-linecap: butt}</style>
 </defs>
 <g id="figure_1">
  <g id="patch_1">
   <path d="M 0 360 
L 864 360 
L 864 0 
L 0 0 
z
" style="fill: #ffffff"/>
  </g>
  <g id="axes_1">
   <g id="patch_2">
    <path d="M 108 320.4 
L 777.6 320.4 
L 777.6 43.2 
L 108 43.2 
z
" style="fill: #ffffff"/>
   </g>
   <g id="matplotlib.axis_1">
    <g id="xtick_1">
     <g id="line2d_1">
      <path d="M 138.436364 320.4 
L 138.436364 43.2 
" clip-path="url(#p86fed9d98e)" style="fill: none; stroke: #b0b0b0; stroke-width: 0.8; stroke-linecap: square"/>
     </g>
     <g id="line2d_2">
      <defs>
       <path id="m5a15d07464" d="M 0 0 
L 0 3.5 
" style="stroke: #000000; stroke-width: 0.8"/>
      </defs>
      <g>
       <use xlink:href="#m5a15d07464" x="138.436364" y="320.4" style="stroke: #000000; stroke-width: 0.8"/>
      </g>
     </g>
     <g id="text_1">
      <!-- $\mathdefault{0}$ -->
      <g transform="translate(135.265994 336.394028) scale(0.13 -0.13)">
       <defs>
        <path id="CMR17-30" d="M 2688 2025 
C 2688 2416 2682 3080 2413 3591 
C 2176 4039 1798 4198 1466 4198 
C 1158 4198 768 4058 525 3597 
C 269 3118 243 2524 243 2025 
C 243 1661 250 1106 448 619 
C 723 -39 1216 -128 1466 -128 
C 1760 -128 2208 -7 2470 600 
C 2662 1042 2688 1559 2688 2025 
z
M 1466 -26 
C 1056 -26 813 325 723 812 
C 653 1188 653 1738 653 2096 
C 653 2588 653 2997 736 3387 
C 858 3929 1216 4096 1466 4096 
C 1728 4096 2067 3923 2189 3400 
C 2272 3036 2278 2607 2278 2096 
C 2278 1680 2278 1169 2202 792 
C 2067 95 1690 -26 1466 -26 
z
" transform="scale(0.015625)"/>
       </defs>
       <use xlink:href="#CMR17-30" transform="scale(0.996264)"/>
      </g>
     </g>
    </g>
    <g id="xtick_2">
     <g id="line2d_3">
      <path d="M 221.143874 320.4 
L 221.143874 43.2 
" clip-path="url(#p86fed9d98e)" style="fill: none; stroke: #b0b0b0; stroke-width: 0.8; stroke-linecap: square"/>
     </g>
     <g id="line2d_4">
      <g>
       <use xlink:href="#m5a15d07464" x="221.143874" y="320.4" style="stroke: #000000; stroke-width: 0.8"/>
      </g>
     </g>
     <g id="text_2">
      <!-- $\mathdefault{1}$ -->
      <g transform="translate(217.973504 336.394028) scale(0.13 -0.13)">
       <defs>
        <path id="CMR17-31" d="M 1702 4058 
C 1702 4192 1696 4192 1606 4192 
C 1357 3916 979 3827 621 3827 
C 602 3827 570 3827 563 3808 
C 557 3795 557 3782 557 3648 
C 755 3648 1088 3686 1344 3839 
L 1344 461 
C 1344 236 1331 160 781 160 
L 589 160 
L 589 0 
C 896 0 1216 0 1523 0 
C 1830 0 2150 0 2458 0 
L 2458 160 
L 2266 160 
C 1715 160 1702 230 1702 458 
L 1702 4058 
z
" transform="scale(0.015625)"/>
       </defs>
       <use xlink:href="#CMR17-31" transform="scale(0.996264)"/>
      </g>
     </g>
    </g>
    <g id="xtick_3">
     <g id="line2d_5">
      <path d="M 303.851383 320.4 
L 303.851383 43.2 
" clip-path="url(#p86fed9d98e)" style="fill: none; stroke: #b0b0b0; stroke-width: 0.8; stroke-linecap: square"/>
     </g>
     <g id="line2d_6">
      <g>
       <use xlink:href="#m5a15d07464" x="303.851383" y="320.4" style="stroke: #000000; stroke-width: 0.8"/>
      </g>
     </g>
     <g id="text_3">
      <!-- $\mathdefault{2}$ -->
      <g transform="translate(300.681014 336.394028) scale(0.13 -0.13)">
       <defs>
        <path id="CMR17-32" d="M 2669 989 
L 2554 989 
C 2490 536 2438 459 2413 420 
C 2381 369 1920 369 1830 369 
L 602 369 
C 832 619 1280 1072 1824 1597 
C 2214 1967 2669 2402 2669 3035 
C 2669 3790 2067 4224 1395 4224 
C 691 4224 262 3604 262 3030 
C 262 2780 448 2748 525 2748 
C 589 2748 781 2787 781 3010 
C 781 3207 614 3264 525 3264 
C 486 3264 448 3258 422 3245 
C 544 3790 915 4058 1306 4058 
C 1862 4058 2227 3617 2227 3035 
C 2227 2479 1901 2000 1536 1584 
L 262 146 
L 262 0 
L 2515 0 
L 2669 989 
z
" transform="scale(0.015625)"/>
       </defs>
       <use xlink:href="#CMR17-32" transform="scale(0.996264)"/>
      </g>
     </g>
    </g>
    <g id="xtick_4">
     <g id="line2d_7">
      <path d="M 386.558893 320.4 
L 386.558893 43.2 
" clip-path="url(#p86fed9d98e)" style="fill: none; stroke: #b0b0b0; stroke-width: 0.8; stroke-linecap: square"/>
     </g>
     <g id="line2d_8">
      <g>
       <use xlink:href="#m5a15d07464" x="386.558893" y="320.4" style="stroke: #000000; stroke-width: 0.8"/>
      </g>
     </g>
     <g id="text_4">
      <!-- $\mathdefault{3}$ -->
      <g transform="translate(383.388524 336.394028) scale(0.13 -0.13)">
       <defs>
        <path id="CMR17-33" d="M 1414 2157 
C 1984 2157 2234 1662 2234 1090 
C 2234 320 1824 25 1453 25 
C 1114 25 563 194 390 693 
C 422 680 454 680 486 680 
C 640 680 755 782 755 948 
C 755 1133 614 1216 486 1216 
C 378 1216 211 1165 211 926 
C 211 335 787 -128 1466 -128 
C 2176 -128 2720 430 2720 1085 
C 2720 1707 2208 2157 1600 2227 
C 2086 2328 2554 2756 2554 3329 
C 2554 3820 2048 4179 1472 4179 
C 890 4179 378 3829 378 3329 
C 378 3110 544 3072 627 3072 
C 762 3072 877 3155 877 3321 
C 877 3486 762 3569 627 3569 
C 602 3569 570 3569 544 3557 
C 730 3959 1235 4032 1459 4032 
C 1683 4032 2106 3925 2106 3320 
C 2106 3143 2080 2828 1862 2550 
C 1670 2304 1453 2304 1242 2284 
C 1210 2284 1062 2269 1037 2269 
C 992 2263 966 2257 966 2208 
C 966 2163 973 2157 1101 2157 
L 1414 2157 
z
" transform="scale(0.015625)"/>
       </defs>
       <use xlink:href="#CMR17-33" transform="scale(0.996264)"/>
      </g>
     </g>
    </g>
    <g id="xtick_5">
     <g id="line2d_9">
      <path d="M 469.266403 320.4 
L 469.266403 43.2 
" clip-path="url(#p86fed9d98e)" style="fill: none; stroke: #b0b0b0; stroke-width: 0.8; stroke-linecap: square"/>
     </g>
     <g id="line2d_10">
      <g>
       <use xlink:href="#m5a15d07464" x="469.266403" y="320.4" style="stroke: #000000; stroke-width: 0.8"/>
      </g>
     </g>
     <g id="text_5">
      <!-- $\mathdefault{4}$ -->
      <g transform="translate(466.096033 336.394028) scale(0.13 -0.13)">
       <defs>
        <path id="CMR17-34" d="M 2150 4122 
C 2150 4256 2144 4256 2029 4256 
L 128 1254 
L 128 1088 
L 1779 1088 
L 1779 457 
C 1779 224 1766 160 1318 160 
L 1197 160 
L 1197 0 
C 1402 0 1747 0 1965 0 
C 2182 0 2528 0 2733 0 
L 2733 160 
L 2611 160 
C 2163 160 2150 224 2150 457 
L 2150 1088 
L 2803 1088 
L 2803 1254 
L 2150 1254 
L 2150 4122 
z
M 1798 3703 
L 1798 1254 
L 256 1254 
L 1798 3703 
z
" transform="scale(0.015625)"/>
       </defs>
       <use xlink:href="#CMR17-34" transform="scale(0.996264)"/>
      </g>
     </g>
    </g>
    <g id="xtick_6">
     <g id="line2d_11">
      <path d="M 551.973913 320.4 
L 551.973913 43.2 
" clip-path="url(#p86fed9d98e)" style="fill: none; stroke: #b0b0b0; stroke-width: 0.8; stroke-linecap: square"/>
     </g>
     <g id="line2d_12">
      <g>
       <use xlink:href="#m5a15d07464" x="551.973913" y="320.4" style="stroke: #000000; stroke-width: 0.8"/>
      </g>
     </g>
     <g id="text_6">
      <!-- $\mathdefault{5}$ -->
      <g transform="translate(548.803543 336.394028) scale(0.13 -0.13)">
       <defs>
        <path id="CMR17-35" d="M 730 3692 
C 794 3666 1056 3584 1325 3584 
C 1920 3584 2246 3911 2432 4100 
C 2432 4157 2432 4192 2394 4192 
C 2387 4192 2374 4192 2323 4163 
C 2099 4058 1837 3973 1517 3973 
C 1325 3973 1037 3999 723 4139 
C 653 4171 640 4171 634 4171 
C 602 4171 595 4164 595 4037 
L 595 2203 
C 595 2089 595 2057 659 2057 
C 691 2057 704 2070 736 2114 
C 941 2401 1222 2522 1542 2522 
C 1766 2522 2246 2382 2246 1289 
C 2246 1085 2246 715 2054 421 
C 1894 159 1645 25 1370 25 
C 947 25 518 320 403 814 
C 429 807 480 795 506 795 
C 589 795 749 840 749 1038 
C 749 1210 627 1280 506 1280 
C 358 1280 262 1190 262 1011 
C 262 454 704 -128 1382 -128 
C 2042 -128 2669 440 2669 1264 
C 2669 2030 2170 2624 1549 2624 
C 1222 2624 947 2503 730 2274 
L 730 3692 
z
" transform="scale(0.015625)"/>
       </defs>
       <use xlink:href="#CMR17-35" transform="scale(0.996264)"/>
      </g>
     </g>
    </g>
    <g id="xtick_7">
     <g id="line2d_13">
      <path d="M 634.681423 320.4 
L 634.681423 43.2 
" clip-path="url(#p86fed9d98e)" style="fill: none; stroke: #b0b0b0; stroke-width: 0.8; stroke-linecap: square"/>
     </g>
     <g id="line2d_14">
      <g>
       <use xlink:href="#m5a15d07464" x="634.681423" y="320.4" style="stroke: #000000; stroke-width: 0.8"/>
      </g>
     </g>
     <g id="text_7">
      <!-- $\mathdefault{6}$ -->
      <g transform="translate(631.511053 336.394028) scale(0.13 -0.13)">
       <defs>
        <path id="CMR17-36" d="M 678 2176 
C 678 3690 1395 4032 1811 4032 
C 1946 4032 2272 4009 2400 3776 
C 2298 3776 2106 3776 2106 3553 
C 2106 3381 2246 3323 2336 3323 
C 2394 3323 2566 3348 2566 3560 
C 2566 3954 2246 4179 1805 4179 
C 1043 4179 243 3390 243 1984 
C 243 253 966 -128 1478 -128 
C 2099 -128 2688 427 2688 1283 
C 2688 2081 2170 2662 1517 2662 
C 1126 2662 838 2407 678 1960 
L 678 2176 
z
M 1478 25 
C 691 25 691 1200 691 1436 
C 691 1896 909 2560 1504 2560 
C 1613 2560 1926 2560 2138 2120 
C 2253 1870 2253 1609 2253 1289 
C 2253 944 2253 690 2118 434 
C 1978 171 1773 25 1478 25 
z
" transform="scale(0.015625)"/>
       </defs>
       <use xlink:href="#CMR17-36" transform="scale(0.996264)"/>
      </g>
     </g>
    </g>
    <g id="xtick_8">
     <g id="line2d_15">
      <path d="M 717.388933 320.4 
L 717.388933 43.2 
" clip-path="url(#p86fed9d98e)" style="fill: none; stroke: #b0b0b0; stroke-width: 0.8; stroke-linecap: square"/>
     </g>
     <g id="line2d_16">
      <g>
       <use xlink:href="#m5a15d07464" x="717.388933" y="320.4" style="stroke: #000000; stroke-width: 0.8"/>
      </g>
     </g>
     <g id="text_8">
      <!-- $\mathdefault{7}$ -->
      <g transform="translate(714.218563 336.394028) scale(0.13 -0.13)">
       <defs>
        <path id="CMR17-37" d="M 2886 3941 
L 2886 4081 
L 1382 4081 
C 634 4081 621 4165 595 4288 
L 480 4288 
L 294 3094 
L 410 3094 
C 429 3215 474 3540 550 3661 
C 589 3712 1062 3712 1171 3712 
L 2579 3712 
L 1869 2661 
C 1395 1954 1069 999 1069 165 
C 1069 89 1069 -128 1299 -128 
C 1530 -128 1530 89 1530 171 
L 1530 465 
C 1530 1508 1709 2196 2003 2636 
L 2886 3941 
z
" transform="scale(0.015625)"/>
       </defs>
       <use xlink:href="#CMR17-37" transform="scale(0.996264)"/>
      </g>
     </g>
    </g>
    <g id="text_9">
     <!-- $t$ (s) -->
     <g transform="translate(430.963961 352.625914) scale(0.13 -0.13)">
      <defs>
       <path id="CMMI12-74" d="M 1286 2566 
L 1875 2566 
C 1997 2566 2061 2566 2061 2681 
C 2061 2752 2022 2752 1894 2752 
L 1331 2752 
L 1568 3692 
C 1594 3781 1594 3794 1594 3840 
C 1594 3943 1510 4000 1427 4000 
C 1376 4000 1229 3981 1178 3775 
L 928 2752 
L 326 2752 
C 198 2752 141 2752 141 2630 
C 141 2566 186 2566 307 2566 
L 877 2566 
L 454 881 
C 403 658 384 594 384 511 
C 384 211 595 -64 954 -64 
C 1600 -64 1946 868 1946 912 
C 1946 951 1920 970 1882 970 
C 1869 970 1843 970 1830 944 
C 1824 938 1818 931 1773 829 
C 1638 511 1344 64 973 64 
C 781 64 768 224 768 364 
C 768 370 768 492 787 568 
L 1286 2566 
z
" transform="scale(0.015625)"/>
       <path id="CMR17-28" d="M 1958 -1561 
C 1958 -1555 1958 -1542 1939 -1523 
C 1645 -1224 858 -407 858 1581 
C 858 3569 1632 4379 1946 4697 
C 1946 4704 1958 4717 1958 4736 
C 1958 4755 1939 4768 1914 4768 
C 1843 4768 1299 4296 986 3594 
C 666 2887 576 2199 576 1588 
C 576 1128 621 351 1005 -471 
C 1312 -1135 1837 -1600 1914 -1600 
C 1946 -1600 1958 -1587 1958 -1561 
z
" transform="scale(0.015625)"/>
       <path id="CMR17-73" d="M 1978 2697 
C 1978 2813 1971 2819 1933 2819 
C 1907 2819 1901 2813 1824 2717 
C 1805 2691 1747 2626 1728 2601 
C 1523 2819 1235 2819 1126 2819 
C 416 2819 160 2447 160 2076 
C 160 1498 813 1365 998 1325 
C 1402 1243 1542 1217 1677 1101 
C 1760 1025 1901 884 1901 654 
C 1901 384 1747 38 1158 38 
C 602 38 403 460 288 1021 
C 269 1110 269 1117 218 1117 
C 166 1117 160 1110 160 983 
L 160 63 
C 160 -51 166 -58 205 -58 
C 237 -58 243 -51 275 0 
C 314 57 410 211 448 276 
C 576 103 800 -64 1158 -64 
C 1792 -64 2131 283 2131 784 
C 2131 1112 1958 1285 1875 1362 
C 1683 1561 1459 1606 1190 1657 
C 838 1735 390 1825 390 2217 
C 390 2383 480 2737 1126 2737 
C 1811 2737 1850 2094 1862 1888 
C 1869 1856 1901 1849 1920 1849 
C 1978 1849 1978 1869 1978 1978 
L 1978 2697 
z
" transform="scale(0.015625)"/>
       <path id="CMR17-29" d="M 1683 1581 
C 1683 2040 1638 2817 1254 3639 
C 947 4303 422 4768 346 4768 
C 326 4768 301 4761 301 4729 
C 301 4717 307 4710 314 4697 
C 621 4378 1402 3568 1402 1584 
C 1402 -407 627 -1217 314 -1537 
C 307 -1549 301 -1556 301 -1568 
C 301 -1600 326 -1600 346 -1600 
C 416 -1600 960 -1128 1274 -426 
C 1594 281 1683 969 1683 1581 
z
" transform="scale(0.015625)"/>
      </defs>
      <use xlink:href="#CMMI12-74" transform="scale(0.996264)"/>
      <use xlink:href="#CMR17-28" transform="translate(65.302297 0) scale(0.996264)"/>
      <use xlink:href="#CMR17-73" transform="translate(100.583064 0) scale(0.996264)"/>
      <use xlink:href="#CMR17-29" transform="translate(136.384402 0) scale(0.996264)"/>
     </g>
    </g>
   </g>
   <g id="matplotlib.axis_2">
    <g id="ytick_1">
     <g id="line2d_17">
      <path d="M 108 303.691336 
L 777.6 303.691336 
" clip-path="url(#p86fed9d98e)" style="fill: none; stroke: #b0b0b0; stroke-width: 0.8; stroke-linecap: square"/>
     </g>
     <g id="line2d_18">
      <defs>
       <path id="md49ef39ac0" d="M 0 0 
L -3.5 0 
" style="stroke: #000000; stroke-width: 0.8"/>
      </defs>
      <g>
       <use xlink:href="#md49ef39ac0" x="108" y="303.691336" style="stroke: #000000; stroke-width: 0.8"/>
      </g>
     </g>
     <g id="text_10">
      <!-- $\mathdefault{−0.04}$ -->
      <g transform="translate(68.381779 308.18835) scale(0.13 -0.13)">
       <defs>
        <path id="CMSY10-0" d="M 4218 1472 
C 4326 1472 4442 1472 4442 1600 
C 4442 1728 4326 1728 4218 1728 
L 755 1728 
C 646 1728 531 1728 531 1600 
C 531 1472 646 1472 755 1472 
L 4218 1472 
z
" transform="scale(0.015625)"/>
        <path id="CMMI12-3a" d="M 1178 307 
C 1178 492 1024 619 870 619 
C 685 619 557 466 557 313 
C 557 128 710 0 864 0 
C 1050 0 1178 153 1178 307 
z
" transform="scale(0.015625)"/>
       </defs>
       <use xlink:href="#CMSY10-0" transform="scale(0.996264)"/>
       <use xlink:href="#CMR17-30" transform="translate(77.487468 0) scale(0.996264)"/>
       <use xlink:href="#CMMI12-3a" transform="translate(123.177945 0) scale(0.996264)"/>
       <use xlink:href="#CMR17-30" transform="translate(150.275122 0) scale(0.996264)"/>
       <use xlink:href="#CMR17-34" transform="translate(195.965599 0) scale(0.996264)"/>
      </g>
     </g>
    </g>
    <g id="ytick_2">
     <g id="line2d_19">
      <path d="M 108 248.023575 
L 777.6 248.023575 
" clip-path="url(#p86fed9d98e)" style="fill: none; stroke: #b0b0b0; stroke-width: 0.8; stroke-linecap: square"/>
     </g>
     <g id="line2d_20">
      <g>
       <use xlink:href="#md49ef39ac0" x="108" y="248.023575" style="stroke: #000000; stroke-width: 0.8"/>
      </g>
     </g>
     <g id="text_11">
      <!-- $\mathdefault{−0.02}$ -->
      <g transform="translate(68.381779 252.520589) scale(0.13 -0.13)">
       <use xlink:href="#CMSY10-0" transform="scale(0.996264)"/>
       <use xlink:href="#CMR17-30" transform="translate(77.487468 0) scale(0.996264)"/>
       <use xlink:href="#CMMI12-3a" transform="translate(123.177945 0) scale(0.996264)"/>
       <use xlink:href="#CMR17-30" transform="translate(150.275122 0) scale(0.996264)"/>
       <use xlink:href="#CMR17-32" transform="translate(195.965599 0) scale(0.996264)"/>
      </g>
     </g>
    </g>
    <g id="ytick_3">
     <g id="line2d_21">
      <path d="M 108 192.355814 
L 777.6 192.355814 
" clip-path="url(#p86fed9d98e)" style="fill: none; stroke: #b0b0b0; stroke-width: 0.8; stroke-linecap: square"/>
     </g>
     <g id="line2d_22">
      <g>
       <use xlink:href="#md49ef39ac0" x="108" y="192.355814" style="stroke: #000000; stroke-width: 0.8"/>
      </g>
     </g>
     <g id="text_12">
      <!-- $\mathdefault{0.00}$ -->
      <g transform="translate(78.455149 196.852829) scale(0.13 -0.13)">
       <use xlink:href="#CMR17-30" transform="scale(0.996264)"/>
       <use xlink:href="#CMMI12-3a" transform="translate(45.690477 0) scale(0.996264)"/>
       <use xlink:href="#CMR17-30" transform="translate(72.787654 0) scale(0.996264)"/>
       <use xlink:href="#CMR17-30" transform="translate(118.478131 0) scale(0.996264)"/>
      </g>
     </g>
    </g>
    <g id="ytick_4">
     <g id="line2d_23">
      <path d="M 108 136.688054 
L 777.6 136.688054 
" clip-path="url(#p86fed9d98e)" style="fill: none; stroke: #b0b0b0; stroke-width: 0.8; stroke-linecap: square"/>
     </g>
     <g id="line2d_24">
      <g>
       <use xlink:href="#md49ef39ac0" x="108" y="136.688054" style="stroke: #000000; stroke-width: 0.8"/>
      </g>
     </g>
     <g id="text_13">
      <!-- $\mathdefault{0.02}$ -->
      <g transform="translate(78.455149 141.185068) scale(0.13 -0.13)">
       <use xlink:href="#CMR17-30" transform="scale(0.996264)"/>
       <use xlink:href="#CMMI12-3a" transform="translate(45.690477 0) scale(0.996264)"/>
       <use xlink:href="#CMR17-30" transform="translate(72.787654 0) scale(0.996264)"/>
       <use xlink:href="#CMR17-32" transform="translate(118.478131 0) scale(0.996264)"/>
      </g>
     </g>
    </g>
    <g id="ytick_5">
     <g id="line2d_25">
      <path d="M 108 81.020293 
L 777.6 81.020293 
" clip-path="url(#p86fed9d98e)" style="fill: none; stroke: #b0b0b0; stroke-width: 0.8; stroke-linecap: square"/>
     </g>
     <g id="line2d_26">
      <g>
       <use xlink:href="#md49ef39ac0" x="108" y="81.020293" style="stroke: #000000; stroke-width: 0.8"/>
      </g>
     </g>
     <g id="text_14">
      <!-- $\mathdefault{0.04}$ -->
      <g transform="translate(78.455149 85.517307) scale(0.13 -0.13)">
       <use xlink:href="#CMR17-30" transform="scale(0.996264)"/>
       <use xlink:href="#CMMI12-3a" transform="translate(45.690477 0) scale(0.996264)"/>
       <use xlink:href="#CMR17-30" transform="translate(72.787654 0) scale(0.996264)"/>
       <use xlink:href="#CMR17-34" transform="translate(118.478131 0) scale(0.996264)"/>
      </g>
     </g>
    </g>
    <g id="text_15">
     <!-- displacement (m) -->
     <g transform="translate(61.143921 229.919159) rotate(-90) scale(0.13 -0.13)">
      <defs>
       <path id="CMR17-64" d="M 1869 4326 
L 1869 4160 
C 2246 4160 2304 4122 2304 3820 
L 2304 2345 
C 2278 2377 2016 2790 1498 2790 
C 845 2790 211 2208 211 1364 
C 211 525 806 -64 1434 -64 
C 1978 -64 2259 337 2291 380 
L 2291 -63 
L 3066 -63 
L 3066 128 
C 2688 128 2630 166 2630 473 
L 2630 4396 
L 1869 4326 
z
M 2291 755 
C 2291 563 2176 390 2029 262 
C 1811 70 1594 38 1472 38 
C 1286 38 621 134 621 1356 
C 621 2612 1363 2688 1530 2688 
C 1824 2688 2061 2522 2208 2291 
C 2291 2157 2291 2138 2291 2023 
L 2291 755 
z
" transform="scale(0.015625)"/>
       <path id="CMR17-69" d="M 992 3909 
C 992 4049 877 4170 730 4170 
C 589 4170 467 4056 467 3909 
C 467 3769 582 3648 730 3648 
C 870 3648 992 3763 992 3909 
z
M 243 2706 
L 243 2541 
C 602 2541 653 2502 653 2197 
L 653 427 
C 653 184 627 153 218 153 
L 218 -13 
C 371 0 646 0 806 0 
C 960 0 1222 0 1370 -13 
L 1370 153 
C 992 153 979 191 979 420 
L 979 2776 
L 243 2706 
z
" transform="scale(0.015625)"/>
       <path id="CMR17-70" d="M 1408 -1063 
C 998 -1063 973 -1037 973 -789 
L 973 402 
C 1158 134 1427 -38 1766 -38 
C 2406 -38 3053 523 3053 1388 
C 3053 2191 2496 2802 1837 2802 
C 1453 2802 1139 2592 960 2338 
L 960 2802 
L 198 2732 
L 198 2567 
C 576 2567 634 2528 634 2223 
L 634 -789 
C 634 -1031 608 -1063 198 -1063 
L 198 -1228 
C 352 -1216 634 -1216 800 -1216 
C 966 -1216 1254 -1216 1408 -1228 
L 1408 -1063 
z
M 973 2012 
C 973 2102 973 2235 1222 2471 
C 1254 2497 1472 2688 1792 2688 
C 2259 2688 2643 2108 2643 1382 
C 2643 656 2234 64 1728 64 
C 1498 64 1248 172 1056 472 
C 973 612 973 650 973 752 
L 973 2012 
z
" transform="scale(0.015625)"/>
       <path id="CMR17-6c" d="M 979 4396 
L 218 4326 
L 218 4160 
C 595 4160 653 4122 653 3817 
L 653 426 
C 653 184 627 153 218 153 
L 218 -13 
C 371 0 653 0 813 0 
C 979 0 1261 0 1414 -13 
L 1414 153 
C 1005 153 979 178 979 426 
L 979 4396 
z
" transform="scale(0.015625)"/>
       <path id="CMR17-61" d="M 2304 1653 
C 2304 2072 2304 2294 2035 2543 
C 1798 2752 1523 2816 1306 2816 
C 800 2816 435 2407 435 1971 
C 435 1728 627 1728 666 1728 
C 749 1728 896 1778 896 1954 
C 896 2112 774 2181 666 2181 
C 640 2181 608 2174 589 2168 
C 723 2592 1069 2714 1293 2714 
C 1613 2714 1965 2429 1965 1885 
L 1965 1600 
C 1587 1600 1133 1549 774 1357 
C 371 1133 256 813 256 570 
C 256 77 832 -64 1171 -64 
C 1523 -64 1850 139 1990 511 
C 2003 233 2182 -18 2464 -18 
C 2598 -18 2938 70 2938 567 
L 2938 920 
L 2822 920 
L 2822 562 
C 2822 178 2650 128 2566 128 
C 2304 128 2304 458 2304 738 
L 2304 1653 
z
M 1965 870 
C 1965 317 1568 38 1216 38 
C 896 38 646 275 646 570 
C 646 761 730 1100 1101 1305 
C 1408 1478 1760 1504 1965 1504 
L 1965 870 
z
" transform="scale(0.015625)"/>
       <path id="CMR17-63" d="M 2234 2240 
C 2112 2240 1933 2240 1933 2017 
C 1933 1838 2080 1787 2163 1787 
C 2208 1787 2394 1807 2394 2024 
C 2394 2467 1958 2803 1466 2803 
C 787 2803 211 2178 211 1363 
C 211 516 813 -64 1466 -64 
C 2259 -64 2458 677 2458 748 
C 2458 774 2451 793 2406 793 
C 2362 793 2355 787 2330 703 
C 2163 180 1798 51 1523 51 
C 1114 51 621 427 621 1369 
C 621 2338 1094 2688 1472 2688 
C 1722 2688 2093 2573 2234 2240 
z
" transform="scale(0.015625)"/>
       <path id="CMR17-65" d="M 2438 1472 
C 2464 1498 2464 1511 2464 1576 
C 2464 2238 2118 2816 1389 2816 
C 710 2816 173 2169 173 1383 
C 173 551 781 -64 1459 -64 
C 2176 -64 2458 607 2458 740 
C 2458 784 2419 784 2406 784 
C 2362 784 2355 771 2330 696 
C 2189 265 1837 51 1504 51 
C 1229 51 954 203 781 480 
C 582 803 582 1176 582 1472 
L 2438 1472 
z
M 589 1568 
C 634 2505 1126 2714 1382 2714 
C 1818 2714 2112 2297 2118 1568 
L 589 1568 
z
" transform="scale(0.015625)"/>
       <path id="CMR17-6d" d="M 4326 1933 
C 4326 2252 4269 2790 3507 2790 
C 3072 2790 2771 2496 2656 2151 
L 2650 2151 
C 2573 2676 2195 2790 1837 2790 
C 1331 2790 1069 2400 973 2144 
L 966 2144 
L 966 2790 
L 211 2720 
L 211 2554 
C 589 2554 646 2515 646 2208 
L 646 428 
C 646 184 621 153 211 153 
L 211 -13 
C 365 0 646 0 813 0 
C 979 0 1267 0 1421 -13 
L 1421 153 
C 1011 153 986 178 986 428 
L 986 1658 
C 986 2247 1344 2688 1792 2688 
C 2266 2688 2317 2266 2317 1958 
L 2317 428 
C 2317 184 2291 153 1882 153 
L 1882 -13 
C 2035 0 2317 0 2483 0 
C 2650 0 2938 0 3091 -13 
L 3091 153 
C 2682 153 2656 178 2656 428 
L 2656 1658 
C 2656 2247 3014 2688 3462 2688 
C 3936 2688 3987 2266 3987 1958 
L 3987 428 
C 3987 184 3962 153 3552 153 
L 3552 -13 
C 3706 0 3987 0 4154 0 
C 4320 0 4608 0 4762 -13 
L 4762 153 
C 4352 153 4326 178 4326 428 
L 4326 1933 
z
" transform="scale(0.015625)"/>
       <path id="CMR17-6e" d="M 2656 1933 
C 2656 2259 2592 2790 1837 2790 
C 1331 2790 1069 2400 973 2144 
L 966 2144 
L 966 2790 
L 211 2720 
L 211 2554 
C 589 2554 646 2515 646 2208 
L 646 428 
C 646 184 621 153 211 153 
L 211 -13 
C 365 0 646 0 813 0 
C 979 0 1267 0 1421 -13 
L 1421 153 
C 1011 153 986 178 986 428 
L 986 1658 
C 986 2247 1344 2688 1792 2688 
C 2266 2688 2317 2266 2317 1958 
L 2317 428 
C 2317 184 2291 153 1882 153 
L 1882 -13 
C 2035 0 2317 0 2483 0 
C 2650 0 2938 0 3091 -13 
L 3091 153 
C 2682 153 2656 178 2656 428 
L 2656 1933 
z
" transform="scale(0.015625)"/>
       <path id="CMR17-74" d="M 966 2560 
L 1862 2560 
L 1862 2725 
L 966 2725 
L 966 3904 
L 851 3904 
C 838 3245 614 2668 70 2668 
L 70 2560 
L 627 2560 
L 627 771 
C 627 650 627 -64 1370 -64 
C 1747 -64 1965 306 1965 777 
L 1965 1140 
L 1850 1140 
L 1850 783 
C 1850 344 1677 51 1408 51 
C 1222 51 966 178 966 758 
L 966 2560 
z
" transform="scale(0.015625)"/>
      </defs>
      <use xlink:href="#CMR17-64" transform="scale(0.996264)"/>
      <use xlink:href="#CMR17-69" transform="translate(50.89537 0) scale(0.996264)"/>
      <use xlink:href="#CMR17-73" transform="translate(75.766428 0) scale(0.996264)"/>
      <use xlink:href="#CMR17-70" transform="translate(111.567766 0) scale(0.996264)"/>
      <use xlink:href="#CMR17-6c" transform="translate(162.463136 0) scale(0.996264)"/>
      <use xlink:href="#CMR17-61" transform="translate(187.334194 0) scale(0.996264)"/>
      <use xlink:href="#CMR17-63" transform="translate(233.024671 0) scale(0.996264)"/>
      <use xlink:href="#CMR17-65" transform="translate(273.510332 0) scale(0.996264)"/>
      <use xlink:href="#CMR17-6d" transform="translate(313.995992 0) scale(0.996264)"/>
      <use xlink:href="#CMR17-65" transform="translate(390.915582 0) scale(0.996264)"/>
      <use xlink:href="#CMR17-6e" transform="translate(431.401243 0) scale(0.996264)"/>
      <use xlink:href="#CMR17-74" transform="translate(479.694158 0) scale(0.996264)"/>
      <use xlink:href="#CMR17-28" transform="translate(545.050893 0) scale(0.996264)"/>
      <use xlink:href="#CMR17-6d" transform="translate(580.33166 0) scale(0.996264)"/>
      <use xlink:href="#CMR17-29" transform="translate(657.25125 0) scale(0.996264)"/>
     </g>
    </g>
   </g>
   <g id="line2d_27">
    <path d="M 138.436364 192.306308 
L 140.090514 192.337064 
L 143.398814 192.306308 
L 145.052964 192.429332 
L 145.88004 192.306308 
L 147.53419 191.704208 
L 148.361265 191.805298 
L 149.18834 192.487065 
L 150.84249 194.310347 
L 151.669565 194.736082 
L 154.977866 195.305524 
L 155.804941 194.97836 
L 157.459091 193.087841 
L 158.286166 192.75165 
L 159.113241 193.439538 
L 159.940316 194.281942 
L 160.767391 194.095628 
L 161.594466 192.127773 
L 162.421542 189.347181 
L 163.248617 187.153063 
L 164.075692 186.569618 
L 164.902767 187.12098 
L 165.729842 187.95627 
L 166.556917 188.483987 
L 167.383992 189.150144 
L 168.211067 190.660132 
L 169.038142 193.248279 
L 169.865217 195.264651 
L 170.692292 195.167259 
L 172.346443 192.306308 
L 173.173518 191.956547 
L 174.000593 192.572532 
L 175.654743 195.063365 
L 176.481818 195.921011 
L 177.308893 195.709993 
L 178.135968 194.064426 
L 179.790119 189.268438 
L 180.617194 187.701828 
L 181.444269 186.850865 
L 182.271344 186.45324 
L 183.098419 186.331711 
L 183.925494 186.649295 
L 184.752569 187.654073 
L 187.233794 193.093609 
L 188.06087 193.78914 
L 188.887945 193.823621 
L 189.71502 193.642334 
L 190.542095 193.608165 
L 191.36917 193.754419 
L 193.850395 194.532523 
L 194.67747 194.310347 
L 196.331621 192.918653 
L 197.158696 192.739091 
L 198.812846 192.974321 
L 199.639921 192.774189 
L 201.294071 192.139304 
L 202.121146 192.11325 
L 203.775296 192.306308 
L 206.256522 192.139304 
L 207.910672 192.822354 
L 208.737747 193.117466 
L 209.564822 193.150379 
L 211.218972 192.680077 
L 212.873123 192.125029 
L 213.700198 191.996159 
L 215.354348 192.138277 
L 217.835573 192.461651 
L 218.662648 193.061799 
L 220.316798 195.111738 
L 221.143874 195.097648 
L 221.970949 193.628998 
L 222.798024 191.557956 
L 223.625099 190.071645 
L 224.452174 190.027531 
L 225.279249 190.964452 
L 226.106324 192.091589 
L 228.587549 194.421682 
L 230.2417 197.723774 
L 231.068775 198.755815 
L 231.89585 198.631656 
L 232.722925 197.883621 
L 233.55 197.300501 
L 234.377075 197.498391 
L 235.20415 198.402611 
L 237.685375 202.411901 
L 238.512451 202.557128 
L 239.339526 201.351236 
L 240.993676 197.356169 
L 241.820751 195.946398 
L 243.474901 193.793432 
L 245.129051 191.17744 
L 245.956126 190.866898 
L 246.783202 191.862344 
L 247.610277 193.446571 
L 248.437352 194.620496 
L 249.264427 194.681644 
L 250.091502 194.113961 
L 250.918577 193.698002 
L 251.745652 193.985147 
L 252.572727 194.610092 
L 253.399802 194.97836 
L 254.226877 194.678166 
L 255.053953 194.028488 
L 255.881028 193.530998 
L 256.708103 193.55807 
L 262.497628 196.436648 
L 264.978854 198.149411 
L 265.805929 198.445666 
L 267.460079 198.48402 
L 268.287154 198.954629 
L 269.114229 200.135866 
L 270.768379 203.368287 
L 272.42253 205.850631 
L 274.903755 209.568432 
L 275.73083 209.618981 
L 276.557905 208.281401 
L 277.38498 206.376281 
L 278.212055 205.022415 
L 279.03913 204.922703 
L 279.866206 205.116474 
L 280.693281 204.227161 
L 281.520356 201.298981 
L 284.001581 188.918494 
L 284.828656 185.397161 
L 285.655731 181.323854 
L 287.309881 171.85094 
L 288.136957 169.593861 
L 288.964032 170.817071 
L 289.791107 174.548328 
L 291.445257 184.281924 
L 292.272332 192.282571 
L 293.099407 206.787878 
L 294.753557 251.632235 
L 295.580632 266.637135 
L 296.407708 274.571831 
L 297.234783 277.947181 
L 298.061858 278.722167 
L 298.888933 276.648269 
L 299.716008 270.925091 
L 300.543083 261.040815 
L 301.370158 247.637932 
L 303.024308 213.939248 
L 306.332609 138.969103 
L 307.159684 124.200779 
L 307.986759 113.445929 
L 308.813834 106.443883 
L 309.640909 102.593735 
L 310.467984 101.487501 
L 311.295059 103.488901 
L 312.122134 109.154578 
L 312.949209 118.749915 
L 313.776285 131.375244 
L 317.084585 189.61835 
L 317.91166 201.267881 
L 318.738735 209.987413 
L 319.56581 214.931276 
L 320.392885 215.561309 
L 321.21996 212.569383 
L 322.047036 206.954881 
L 322.874111 199.979284 
L 323.701186 193.952483 
L 324.528261 190.879339 
L 325.355336 190.496204 
L 326.182411 191.972301 
L 327.009486 194.612659 
L 327.836561 198.265535 
L 328.663636 202.914992 
L 332.799012 230.172808 
L 334.453162 239.775138 
L 335.280237 243.361727 
L 336.107312 244.15685 
L 336.934387 240.915843 
L 337.761462 233.681903 
L 338.588538 222.820193 
L 339.415613 208.774029 
L 341.069763 174.23019 
L 342.723913 137.48494 
L 343.550988 121.632109 
L 344.378063 109.119606 
L 345.205138 99.952953 
L 346.032213 93.845944 
L 346.859289 91.003448 
L 347.686364 93.594617 
L 348.513439 104.279673 
L 349.340514 124.026361 
L 350.994664 167.219104 
L 352.648814 198.883056 
L 354.302964 223.592367 
L 355.13004 232.832437 
L 355.957115 239.488237 
L 356.78419 243.871075 
L 357.611265 246.455134 
L 358.43834 247.535536 
L 359.265415 246.691162 
L 360.09249 243.321834 
L 360.919565 237.176623 
L 363.400791 214.63537 
L 365.054941 203.590958 
L 365.882016 198.974789 
L 366.709091 195.975395 
L 367.536166 195.908807 
L 368.363241 199.523047 
L 370.017391 211.129963 
L 370.844466 215.300955 
L 371.671542 217.526813 
L 372.498617 217.88962 
L 373.325692 216.35027 
L 374.152767 212.384903 
L 374.979842 205.348469 
L 375.806917 194.966617 
L 379.115217 145.684231 
L 380.769368 125.796215 
L 381.596443 118.012369 
L 382.423518 112.685505 
L 383.250593 110.791998 
L 384.077668 114.021162 
L 384.904743 124.240541 
L 385.731818 141.932534 
L 386.558893 162.038951 
L 387.385968 179.428242 
L 389.040119 207.82966 
L 390.694269 234.318497 
L 391.521344 246.025697 
L 392.348419 255.750692 
L 393.175494 263.052001 
L 394.002569 267.553215 
L 394.829644 268.872886 
L 395.656719 266.609416 
L 396.483794 260.356169 
L 397.31087 250.113996 
L 399.792095 212.974094 
L 401.446245 193.014083 
L 402.27332 184.061675 
L 403.100395 176.909157 
L 403.92747 173.045262 
L 404.754545 173.250289 
L 407.235771 179.622511 
L 408.062846 182.508782 
L 409.716996 190.424816 
L 410.544071 192.409691 
L 411.371146 191.21577 
L 412.198221 187.335393 
L 413.025296 181.705575 
L 414.679447 167.858084 
L 417.160672 144.51533 
L 417.987747 139.016356 
L 418.814822 136.379728 
L 419.641897 136.776389 
L 420.468972 140.177426 
L 421.296047 146.468693 
L 422.123123 155.19512 
L 423.777273 177.771641 
L 427.912648 242.510675 
L 428.739723 258.297884 
L 429.566798 270.869423 
L 430.393874 275.705503 
L 431.220949 273.574563 
L 432.048024 266.5671 
L 432.875099 256.573911 
L 434.529249 231.798607 
L 437.010474 193.928625 
L 438.664625 172.910823 
L 440.318775 155.047002 
L 441.14585 148.154595 
L 441.972925 144.074169 
L 442.8 143.571834 
L 443.627075 145.894984 
L 444.45415 149.911332 
L 446.1083 159.703752 
L 448.589526 174.741336 
L 449.416601 179.097143 
L 450.243676 182.75138 
L 451.070751 185.029736 
L 451.897826 185.38696 
L 452.724901 184.204446 
L 453.551976 182.09525 
L 455.206126 177.334457 
L 456.033202 175.613932 
L 456.860277 174.96558 
L 457.687352 175.988662 
L 458.514427 179.311862 
L 459.341502 185.317759 
L 460.168577 193.404501 
L 462.649802 222.453387 
L 464.303953 241.506648 
L 465.131028 249.32568 
L 465.958103 254.654199 
L 466.785178 256.731734 
L 467.612253 255.943305 
L 468.439328 252.960309 
L 469.266403 248.287373 
L 470.093478 241.762045 
L 470.920553 233.055108 
L 471.747628 222.031897 
L 473.401779 195.805424 
L 475.055929 167.526561 
L 476.710079 134.807529 
L 477.537154 122.594366 
L 478.364229 119.900192 
L 479.191304 124.461419 
L 482.499605 155.867782 
L 484.98083 183.828903 
L 485.807905 190.539096 
L 486.63498 195.251271 
L 487.462055 198.2389 
L 488.28913 199.793189 
L 489.116206 200.276264 
L 489.943281 200.067984 
L 490.770356 199.412874 
L 491.597431 198.014129 
L 492.424506 195.439607 
L 494.078656 188.290391 
L 494.905731 187.328019 
L 495.732806 190.166565 
L 496.559881 195.715171 
L 501.522332 234.273393 
L 502.349407 236.920041 
L 503.176482 235.034475 
L 504.003557 231.496411 
L 505.657708 227.012287 
L 506.484783 222.81224 
L 507.311858 214.991798 
L 508.138933 204.040185 
L 509.793083 176.766399 
L 511.447233 148.408302 
L 512.274308 135.967398 
L 513.101383 125.969153 
L 513.928458 119.437209 
L 514.755534 117.117951 
L 515.582609 118.648726 
L 516.409684 123.38962 
L 517.236759 130.752046 
L 518.063834 140.352724 
L 519.717984 164.820649 
L 521.372134 191.24862 
L 522.199209 202.712781 
L 523.026285 212.168032 
L 523.85336 219.193836 
L 524.680435 223.588903 
L 525.50751 226.028917 
L 526.334585 227.408807 
L 527.16166 228.39905 
L 527.988735 228.772315 
L 528.81581 228.07682 
L 529.642885 225.948207 
L 530.46996 222.371819 
L 531.297036 217.42042 
L 533.778261 198.827388 
L 534.605336 194.31827 
L 535.432411 192.339824 
L 536.259486 193.984293 
L 537.086561 199.543047 
L 537.913636 206.10396 
L 538.740711 210.650265 
L 539.567787 212.950144 
L 540.394862 213.468009 
L 541.221937 212.558457 
L 542.049012 210.136799 
L 542.876087 206.008529 
L 543.703162 200.038201 
L 544.530237 192.326619 
L 545.357312 183.033649 
L 549.492688 131.341171 
L 550.319763 126.371821 
L 551.146838 125.602633 
L 551.973913 128.661946 
L 552.800988 134.857179 
L 553.628063 143.488633 
L 555.282213 165.14044 
L 557.763439 199.384066 
L 559.417589 219.248448 
L 560.244664 227.695098 
L 561.071739 234.799762 
L 561.898814 239.611011 
L 562.725889 241.015598 
L 563.552964 238.388192 
L 564.38004 233.055108 
L 566.03419 219.346623 
L 568.515415 196.230591 
L 569.34249 190.373841 
L 570.169565 186.716796 
L 570.99664 184.804194 
L 571.823715 183.900476 
L 572.650791 183.414898 
L 573.477866 183.335989 
L 574.304941 183.797093 
L 575.132016 184.845829 
L 576.786166 187.439355 
L 577.613241 188.31919 
L 579.267391 189.475204 
L 580.094466 189.96818 
L 580.921542 189.681652 
L 581.748617 187.701788 
L 582.575692 183.398861 
L 583.402767 177.279549 
L 585.883992 156.102545 
L 586.711067 151.032639 
L 587.538142 148.317609 
L 588.365217 148.035057 
L 589.192292 150.09424 
L 590.019368 154.566268 
L 590.846443 162.169674 
L 591.673518 173.784848 
L 593.327668 205.181465 
L 594.154743 217.531671 
L 594.981818 226.606637 
L 595.808893 233.564071 
L 596.635968 239.267803 
L 597.463043 243.406159 
L 598.290119 245.373589 
L 599.117194 244.706561 
L 599.944269 241.509626 
L 600.771344 236.029357 
L 601.598419 228.620136 
L 604.906719 195.12169 
L 606.56087 180.592491 
L 608.21502 168.297598 
L 609.042095 163.681066 
L 609.86917 160.515736 
L 610.696245 159.144227 
L 611.52332 159.827914 
L 612.350395 162.503188 
L 613.17747 167.025192 
L 614.831621 178.564323 
L 615.658696 182.344044 
L 616.485771 184.498767 
L 617.312846 185.689797 
L 618.139921 186.446548 
L 618.966996 186.770881 
L 619.794071 186.532766 
L 620.621146 185.67277 
L 623.102372 181.882579 
L 623.929447 181.252181 
L 624.756522 181.506762 
L 625.583597 182.996832 
L 626.410672 186.081348 
L 627.237747 191.121379 
L 628.064822 198.203569 
L 629.718972 214.175785 
L 630.546047 220.791653 
L 632.200198 231.385076 
L 633.027273 236.107905 
L 633.854348 239.800063 
L 634.681423 241.484798 
L 635.508498 240.543292 
L 636.335573 237.788456 
L 637.989723 231.070068 
L 638.816798 226.735593 
L 639.643874 219.845944 
L 640.470949 209.413253 
L 643.779249 159.340606 
L 645.433399 137.256129 
L 646.260474 130.324232 
L 647.087549 130.082518 
L 647.914625 134.90406 
L 651.222925 163.868034 
L 653.70415 187.654073 
L 654.531225 194.37725 
L 655.3583 199.687184 
L 656.185375 203.153568 
L 657.012451 204.531172 
L 657.839526 204.315062 
L 658.666601 203.185378 
L 660.320751 200.079214 
L 661.974901 196.621002 
L 662.801976 195.525334 
L 663.629051 195.702041 
L 664.456126 197.635325 
L 665.283202 201.095527 
L 666.110277 205.674523 
L 669.418577 226.930961 
L 670.245652 230.646387 
L 671.072727 232.506383 
L 671.899802 232.052654 
L 672.726877 229.653041 
L 673.553953 225.88192 
L 674.381028 221.159072 
L 675.208103 215.285894 
L 676.035178 207.909186 
L 677.689328 188.708105 
L 681.824704 135.666376 
L 682.651779 128.860965 
L 683.478854 129.925395 
L 684.305929 136.719365 
L 685.960079 153.85874 
L 687.614229 169.96763 
L 690.095455 198.588812 
L 690.92253 205.964587 
L 692.57668 217.38861 
L 693.403755 222.516145 
L 694.23083 226.392779 
L 695.057905 227.695098 
L 695.88498 225.601029 
L 699.193281 208.920403 
L 700.847431 201.738081 
L 701.674506 199.097774 
L 702.501581 198.725095 
L 703.328656 200.10583 
L 705.809881 206.367106 
L 706.636957 207.805803 
L 707.464032 208.599299 
L 708.291107 208.401311 
L 709.118182 206.827641 
L 709.945257 203.582653 
L 710.772332 198.72496 
L 711.599407 192.401738 
L 713.253557 176.633093 
L 714.907708 160.781909 
L 716.561858 147.724384 
L 717.388933 142.54775 
L 718.216008 139.003968 
L 719.043083 137.887095 
L 719.870158 139.674496 
L 720.697233 143.576771 
L 722.351383 153.865652 
L 723.178458 161.424546 
L 724.005534 173.442889 
L 725.659684 207.909186 
L 726.486759 219.752277 
L 727.313834 226.572173 
L 728.140909 230.14448 
L 728.967984 231.962595 
L 729.795059 232.391088 
L 730.622134 231.512316 
L 731.449209 229.409301 
L 732.276285 226.167702 
L 733.10336 221.873841 
L 735.584585 206.286868 
L 736.41166 202.215314 
L 738.892885 192.327115 
L 739.71996 189.74365 
L 740.547036 188.775381 
L 741.374111 189.998875 
L 743.028261 195.097648 
L 743.855336 196.674493 
L 744.682411 197.064691 
L 745.509486 196.290529 
L 746.336561 194.374294 
L 747.163636 191.338274 
L 747.163636 191.338274 
" clip-path="url(#p86fed9d98e)" style="fill: none; stroke: #ff0000; stroke-linecap: square"/>
   </g>
   <g id="line2d_28">
    <path d="M 138.436364 180.877506 
L 139.263439 188.601165 
L 140.090514 190.594429 
L 140.917589 188.909568 
L 142.571739 182.714563 
L 143.398814 182.308962 
L 144.225889 185.541357 
L 145.052964 189.999175 
L 145.88004 192.376875 
L 146.707115 190.553262 
L 147.53419 187.144531 
L 148.361265 185.951224 
L 149.18834 189.466617 
L 150.015415 194.954922 
L 150.84249 198.373088 
L 151.669565 197.020387 
L 152.49664 193.565395 
L 153.323715 192.01901 
L 154.150791 195.135281 
L 154.977866 200.640849 
L 155.804941 205.005504 
L 156.632016 205.621641 
L 157.459091 203.572077 
L 158.286166 200.862232 
L 159.940316 196.93968 
L 160.767391 193.49023 
L 162.421542 182.399438 
L 163.248617 179.923201 
L 164.075692 182.489872 
L 166.556917 200.188113 
L 167.383992 203.760831 
L 168.211067 206.047286 
L 169.038142 207.198717 
L 169.865217 206.691442 
L 170.692292 204.236417 
L 171.519368 201.158082 
L 172.346443 199.184246 
L 173.173518 199.601395 
L 174.000593 201.930705 
L 175.654743 208.641595 
L 176.481818 211.161081 
L 177.308893 211.868543 
L 178.135968 210.152716 
L 178.963043 206.725055 
L 180.617194 198.711177 
L 183.098419 188.203865 
L 183.925494 185.276466 
L 184.752569 183.167836 
L 185.579644 182.171412 
L 186.406719 182.217113 
L 187.233794 183.143979 
L 188.06087 184.743904 
L 189.71502 188.329033 
L 191.36917 191.108526 
L 192.196245 193.545898 
L 193.850395 201.348404 
L 194.67747 204.027342 
L 195.504545 204.195248 
L 196.331621 202.07897 
L 197.158696 198.299862 
L 199.639921 184.965323 
L 200.466996 182.157946 
L 201.294071 180.917268 
L 202.121146 181.533655 
L 202.948221 183.898668 
L 203.775296 187.804166 
L 206.256522 202.428882 
L 207.083597 204.795121 
L 207.910672 205.13312 
L 208.737747 203.542237 
L 209.564822 200.265712 
L 211.218972 192.074678 
L 212.046047 189.099652 
L 212.873123 188.230825 
L 213.700198 190.515981 
L 214.527273 196.473559 
L 216.181423 212.480889 
L 217.008498 218.499289 
L 217.835573 221.557589 
L 218.662648 220.878768 
L 219.489723 215.979964 
L 220.316798 207.554965 
L 221.970949 184.225295 
L 222.798024 172.179244 
L 223.625099 162.324236 
L 224.452174 156.010876 
L 225.279249 152.509502 
L 226.106324 150.570386 
L 226.933399 149.187473 
L 227.760474 148.329401 
L 228.587549 148.208483 
L 229.414625 148.701691 
L 230.2417 148.344644 
L 231.068775 145.337617 
L 231.89585 138.537648 
L 234.377075 112.328093 
L 236.8583 91.533418 
L 237.685375 86.142759 
L 238.512451 85.240293 
L 239.339526 90.3116 
L 240.166601 97.887646 
L 240.993676 103.260742 
L 241.820751 102.974949 
L 242.647826 98.581326 
L 243.474901 92.882681 
L 244.301976 88.11629 
L 245.956126 80.715299 
L 246.783202 77.534469 
L 247.610277 77.297177 
L 248.437352 83.220348 
L 249.264427 96.795939 
L 250.091502 112.616013 
L 250.918577 123.547665 
L 251.745652 124.357969 
L 252.572727 117.413929 
L 255.881028 76.866271 
L 256.708103 67.348775 
L 257.535178 59.670018 
L 258.362253 55.8 
L 259.189328 56.788028 
L 260.016403 60.000643 
L 260.843478 61.883691 
L 261.670553 60.063523 
L 262.497628 56.888498 
L 263.324704 55.887478 
L 264.151779 59.516317 
L 265.805929 72.245847 
L 266.633004 76.030377 
L 267.460079 76.894313 
L 268.287154 74.941757 
L 269.114229 70.550628 
L 269.941304 65.194118 
L 270.768379 60.619238 
L 271.595455 58.360724 
L 272.42253 59.104221 
L 273.249605 63.3231 
L 274.07668 71.140272 
L 276.557905 102.011698 
L 277.38498 109.478756 
L 278.212055 113.0026 
L 279.03913 111.970632 
L 279.866206 109.327471 
L 280.693281 108.907044 
L 281.520356 113.683986 
L 282.347431 123.195783 
L 283.174506 136.120626 
L 284.001581 151.435171 
L 284.828656 169.309907 
L 285.655731 190.213784 
L 287.309881 237.532645 
L 288.136957 257.388866 
L 288.964032 270.81676 
L 289.791107 278.866163 
L 290.618182 283.520904 
L 291.445257 286.210687 
L 292.272332 286.148704 
L 293.099407 281.994017 
L 293.926482 273.081918 
L 295.580632 249.181114 
L 296.407708 235.776736 
L 297.234783 220.107372 
L 298.888933 183.660107 
L 299.716008 169.163418 
L 300.543083 161.194607 
L 301.370158 159.97204 
L 302.197233 165.051957 
L 303.024308 175.515679 
L 304.678458 200.846327 
L 305.505534 209.745784 
L 306.332609 215.045051 
L 307.159684 217.164933 
L 307.986759 216.304131 
L 308.813834 211.772929 
L 309.640909 202.659505 
L 310.467984 188.682259 
L 312.122134 155.72363 
L 312.949209 141.991522 
L 313.776285 131.305045 
L 314.60336 123.59538 
L 315.430435 118.996935 
L 316.25751 118.457022 
L 317.084585 123.12618 
L 317.91166 133.318383 
L 319.56581 157.306185 
L 320.392885 165.080364 
L 321.21996 174.036486 
L 322.047036 190.603459 
L 324.528261 270.468289 
L 325.355336 285.022712 
L 326.182411 293.270714 
L 327.009486 296.596148 
L 327.836561 295.412552 
L 328.663636 289.890886 
L 329.490711 280.36469 
L 330.317787 267.817816 
L 331.971937 238.075058 
L 336.107312 160.161146 
L 336.934387 150.525828 
L 337.761462 145.178281 
L 338.588538 144.637793 
L 339.415613 149.061989 
L 340.242688 157.161832 
L 343.550988 197.060919 
L 344.378063 204.067552 
L 345.205138 209.026721 
L 346.032213 211.963974 
L 346.859289 212.664017 
L 347.686364 209.94821 
L 348.513439 202.397071 
L 350.994664 164.08069 
L 351.821739 156.981081 
L 352.648814 155.015855 
L 353.475889 158.572542 
L 354.302964 166.209187 
L 355.957115 186.488385 
L 357.611265 209.379399 
L 362.573715 285.779424 
L 363.400791 296.932953 
L 364.227866 305.166355 
L 365.054941 307.8 
L 365.882016 302.694414 
L 366.709091 289.870735 
L 367.536166 269.890255 
L 370.017391 191.89177 
L 370.844466 174.093814 
L 371.671542 161.806841 
L 373.325692 144.641464 
L 374.152767 138.358312 
L 374.979842 134.776647 
L 375.806917 134.561858 
L 376.633992 136.96141 
L 377.461067 140.868291 
L 378.288142 145.65999 
L 379.115217 152.65201 
L 379.942292 163.644357 
L 382.423518 211.884448 
L 383.250593 221.099843 
L 384.077668 224.731474 
L 384.904743 223.821207 
L 386.558893 215.439233 
L 387.385968 213.183205 
L 388.213043 211.963701 
L 389.040119 209.888362 
L 390.694269 201.407084 
L 391.521344 199.200151 
L 392.348419 200.930034 
L 393.175494 205.548195 
L 395.656719 223.440393 
L 396.483794 232.115703 
L 398.96502 265.484549 
L 399.792095 270.561847 
L 400.61917 272.440458 
L 402.27332 274.501281 
L 403.100395 271.638822 
L 403.92747 259.488336 
L 405.581621 210.842666 
L 406.408696 194.658459 
L 408.062846 174.531381 
L 410.544071 130.61747 
L 411.371146 122.164078 
L 412.198221 118.512692 
L 413.025296 118.243322 
L 413.852372 120.532876 
L 414.679447 126.945841 
L 415.506522 139.6436 
L 416.333597 159.5709 
L 417.987747 204.21025 
L 418.814822 219.842146 
L 419.641897 230.546866 
L 420.468972 238.366397 
L 421.296047 244.783769 
L 422.123123 249.046189 
L 422.950198 249.841909 
L 423.777273 246.573387 
L 424.604348 241.499917 
L 425.431423 237.595001 
L 426.258498 236.758659 
L 427.085573 236.596984 
L 427.912648 233.64259 
L 429.566798 217.323984 
L 430.393874 212.200701 
L 431.220949 210.442027 
L 432.048024 210.850619 
L 432.875099 212.529361 
L 433.702174 215.782066 
L 434.529249 221.212775 
L 437.010474 243.336733 
L 437.837549 245.719095 
L 438.664625 243.856779 
L 439.4917 237.762005 
L 440.318775 227.681477 
L 441.972925 200.536178 
L 446.935375 114.887352 
L 447.762451 107.641914 
L 448.589526 105.124018 
L 449.416601 107.507397 
L 450.243676 114.986924 
L 451.070751 127.842035 
L 451.897826 145.858997 
L 454.379051 206.592033 
L 455.206126 222.806349 
L 456.033202 236.505504 
L 456.860277 247.6776 
L 457.687352 255.934158 
L 458.514427 260.792552 
L 459.341502 261.984566 
L 460.168577 260.099611 
L 460.995652 255.941505 
L 462.649802 244.159817 
L 463.476877 238.334587 
L 465.131028 228.516645 
L 465.958103 222.437465 
L 467.612253 207.157926 
L 468.439328 202.834461 
L 469.266403 203.461901 
L 470.920553 210.60409 
L 471.747628 212.05179 
L 472.574704 212.66216 
L 473.401779 214.564453 
L 475.055929 223.149081 
L 475.883004 223.622393 
L 476.710079 218.119405 
L 478.364229 202.057819 
L 479.191304 194.353172 
L 480.018379 185.036683 
L 482.499605 149.894421 
L 483.32668 142.893899 
L 484.153755 138.870222 
L 484.98083 136.422823 
L 485.807905 134.644528 
L 486.63498 134.601746 
L 487.462055 137.854279 
L 488.28913 145.453379 
L 489.116206 156.416088 
L 490.770356 182.869306 
L 491.597431 197.794864 
L 492.424506 214.954128 
L 494.078656 253.128254 
L 494.905731 266.987579 
L 495.732806 273.185205 
L 496.559881 273.432874 
L 497.386957 270.582126 
L 498.214032 266.880224 
L 499.041107 262.157324 
L 499.868182 255.639308 
L 500.695257 246.782279 
L 502.349407 223.789397 
L 504.003557 198.746857 
L 504.830632 188.193008 
L 505.657708 179.671911 
L 506.484783 173.3385 
L 507.311858 169.406859 
L 508.138933 168.327673 
L 508.966008 170.61078 
L 509.793083 176.355682 
L 511.447233 191.653194 
L 512.274308 197.572365 
L 513.101383 201.1804 
L 513.928458 202.150543 
L 514.755534 200.299519 
L 515.582609 196.017969 
L 516.409684 189.840015 
L 518.063834 175.35863 
L 518.890909 170.085913 
L 519.717984 167.857248 
L 520.545059 168.240469 
L 521.372134 170.396062 
L 522.199209 173.663083 
L 523.026285 178.09487 
L 523.85336 183.923327 
L 524.680435 191.309647 
L 525.50751 200.132167 
L 527.16166 221.23002 
L 528.81581 243.607119 
L 530.46996 262.465267 
L 531.297036 269.993638 
L 532.124111 275.977984 
L 532.951186 279.674363 
L 533.778261 280.212648 
L 534.605336 276.635766 
L 535.432411 267.63884 
L 536.259486 251.830043 
L 537.913636 207.081116 
L 538.740711 191.248085 
L 539.567787 181.150887 
L 540.394862 174.205327 
L 542.049012 163.077117 
L 542.876087 158.737642 
L 543.703162 155.394807 
L 544.530237 153.103203 
L 545.357312 151.89846 
L 546.184387 152.003435 
L 547.011462 154.38989 
L 547.838538 160.216814 
L 548.665613 170.029004 
L 550.319763 193.347084 
L 551.146838 202.373937 
L 551.973913 209.335364 
L 553.628063 220.261239 
L 554.455138 223.321768 
L 555.282213 222.509038 
L 556.109289 216.894532 
L 556.936364 209.105822 
L 557.763439 202.659505 
L 558.590514 200.143207 
L 559.417589 200.428671 
L 560.244664 201.458672 
L 561.071739 202.026785 
L 561.898814 204.329785 
L 562.725889 211.415249 
L 564.38004 238.549306 
L 565.207115 247.638517 
L 566.03419 252.820685 
L 568.515415 264.398762 
L 569.34249 265.420929 
L 570.169565 262.585049 
L 570.99664 256.559519 
L 571.823715 248.513835 
L 572.650791 239.33789 
L 573.477866 228.803154 
L 574.304941 216.40149 
L 575.959091 188.095189 
L 576.786166 176.853522 
L 577.613241 170.140545 
L 579.267391 162.49124 
L 581.748617 146.053345 
L 582.575692 143.674185 
L 583.402767 144.232192 
L 584.229842 147.802903 
L 585.056917 154.486004 
L 585.883992 164.477786 
L 586.711067 177.998687 
L 589.192292 227.932669 
L 590.019368 239.004629 
L 590.846443 244.813198 
L 591.673518 245.022671 
L 592.500593 239.969695 
L 594.154743 226.080872 
L 595.808893 213.530624 
L 597.463043 199.533999 
L 598.290119 195.534032 
L 599.117194 195.651745 
L 599.944269 199.125297 
L 600.771344 204.639687 
L 604.079644 230.515843 
L 604.906719 235.030365 
L 605.733794 236.847463 
L 606.56087 235.195099 
L 607.387945 230.699891 
L 608.21502 224.338122 
L 609.86917 208.724299 
L 611.52332 190.027877 
L 612.350395 178.758454 
L 613.17747 165.107624 
L 614.831621 135.198132 
L 615.658696 127.037119 
L 616.485771 124.025524 
L 617.312846 124.295203 
L 618.139921 126.505747 
L 618.966996 131.427696 
L 619.794071 140.359328 
L 620.621146 154.001569 
L 623.929447 218.691851 
L 624.756522 231.137541 
L 625.583597 241.373572 
L 626.410672 249.138056 
L 627.237747 254.160136 
L 628.064822 256.370171 
L 628.891897 256.503371 
L 629.718972 255.496163 
L 630.546047 253.965352 
L 631.373123 251.249275 
L 632.200198 246.36665 
L 633.027273 238.797278 
L 634.681423 221.35592 
L 635.508498 214.759353 
L 636.335573 210.385722 
L 637.162648 208.250139 
L 637.989723 208.250212 
L 638.816798 209.813551 
L 641.298024 217.018062 
L 642.125099 218.015855 
L 642.952174 217.274674 
L 643.779249 214.485689 
L 644.606324 209.411209 
L 645.433399 201.956613 
L 647.087549 182.117619 
L 647.914625 171.916032 
L 648.7417 163.55688 
L 649.568775 158.151921 
L 650.39585 155.011572 
L 652.05 151.179215 
L 652.877075 149.492566 
L 653.70415 148.081242 
L 654.531225 147.20392 
L 655.3583 147.572857 
L 656.185375 150.013709 
L 657.012451 155.398307 
L 657.839526 164.783194 
L 658.666601 179.271093 
L 660.320751 221.686977 
L 661.147826 243.185635 
L 661.974901 260.553283 
L 662.801976 272.606355 
L 663.629051 278.645998 
L 664.456126 278.382296 
L 665.283202 273.161054 
L 666.110277 264.737011 
L 667.764427 243.277277 
L 670.245652 206.039514 
L 671.072727 196.15433 
L 671.899802 189.489388 
L 672.726877 185.201155 
L 674.381028 178.862791 
L 675.208103 176.208412 
L 676.035178 174.722242 
L 676.862253 174.856669 
L 677.689328 176.063735 
L 679.343478 178.887204 
L 680.170553 181.209157 
L 680.997628 186.014845 
L 681.824704 193.677771 
L 682.651779 200.051073 
L 683.478854 201.191557 
L 684.305929 198.491055 
L 685.133004 194.675158 
L 685.960079 192.029921 
L 686.787154 191.083266 
L 687.614229 191.92358 
L 688.441304 194.37818 
L 689.268379 197.230108 
L 690.095455 199.001338 
L 690.92253 198.57664 
L 691.749605 196.291968 
L 693.403755 189.187003 
L 694.23083 187.25997 
L 695.057905 189.25948 
L 695.88498 196.754359 
L 696.712055 208.810702 
L 699.193281 254.141243 
L 700.020356 262.645494 
L 700.847431 263.114275 
L 701.674506 257.412724 
L 702.501581 248.179265 
L 704.155731 224.513078 
L 705.809881 198.306989 
L 706.636957 182.42825 
L 708.291107 146.322226 
L 709.118182 133.559909 
L 709.945257 128.837828 
L 710.772332 131.033905 
L 711.599407 137.965615 
L 712.426482 147.608778 
L 714.907708 179.472107 
L 715.734783 186.580476 
L 716.561858 189.35491 
L 717.388933 187.2284 
L 718.216008 183.745342 
L 719.043083 183.477985 
L 719.870158 189.459398 
L 720.697233 198.565934 
L 721.524308 206.134764 
L 722.351383 208.761103 
L 723.178458 208.072333 
L 724.005534 206.953875 
L 724.832609 207.320004 
L 725.659684 207.200404 
L 726.486759 204.641893 
L 727.313834 201.644425 
L 728.140909 201.196238 
L 728.967984 205.278576 
L 730.622134 217.840899 
L 731.449209 221.050495 
L 732.276285 222.605083 
L 733.10336 224.473315 
L 734.75751 231.832237 
L 735.584585 234.119742 
L 736.41166 233.49504 
L 738.892885 225.977253 
L 739.71996 224.040113 
L 740.547036 221.173012 
L 741.374111 216.559837 
L 742.201186 210.453751 
L 746.336561 175.171127 
L 747.163636 170.489293 
L 747.163636 170.489293 
" clip-path="url(#p86fed9d98e)" style="fill: none; stroke: #0000ff; stroke-linecap: square"/>
   </g>
   <g id="patch_3">
    <path d="M 108 320.4 
L 108 43.2 
" style="fill: none; stroke: #000000; stroke-width: 0.8; stroke-linejoin: miter; stroke-linecap: square"/>
   </g>
   <g id="patch_4">
    <path d="M 777.6 320.4 
L 777.6 43.2 
" style="fill: none; stroke: #000000; stroke-width: 0.8; stroke-linejoin: miter; stroke-linecap: square"/>
   </g>
   <g id="patch_5">
    <path d="M 108 320.4 
L 777.6 320.4 
" style="fill: none; stroke: #000000; stroke-width: 0.8; stroke-linejoin: miter; stroke-linecap: square"/>
   </g>
   <g id="patch_6">
    <path d="M 108 43.2 
L 777.6 43.2 
" style="fill: none; stroke: #000000; stroke-width: 0.8; stroke-linejoin: miter; stroke-linecap: square"/>
   </g>
   <g id="text_16">
    <!-- Original Data -->
    <g transform="translate(396.830981 37.2) scale(0.156 -0.156)">
     <defs>
      <path id="CMR17-4f" d="M 4307 2135 
C 4307 3437 3366 4416 2304 4416 
C 1216 4416 294 3424 294 2135 
C 294 845 1229 -128 2298 -128 
C 3392 -128 4307 864 4307 2135 
z
M 2304 -13 
C 1574 -13 781 711 781 2217 
C 781 3716 1651 4301 2298 4301 
C 2976 4301 3821 3698 3821 2217 
C 3821 686 3008 -13 2304 -13 
z
" transform="scale(0.015625)"/>
      <path id="CMR17-72" d="M 960 1497 
C 960 2112 1222 2688 1702 2688 
C 1747 2688 1792 2682 1837 2662 
C 1837 2662 1696 2617 1696 2452 
C 1696 2298 1818 2234 1914 2234 
C 1990 2234 2131 2279 2131 2458 
C 2131 2663 1926 2790 1709 2790 
C 1222 2790 1011 2317 947 2093 
L 941 2093 
L 941 2790 
L 198 2720 
L 198 2554 
C 576 2554 634 2515 634 2208 
L 634 428 
C 634 184 608 153 198 153 
L 198 -13 
C 352 0 646 0 813 0 
C 998 0 1325 0 1498 -13 
L 1498 153 
C 1037 153 960 153 960 440 
L 960 1497 
z
" transform="scale(0.015625)"/>
      <path id="CMR17-67" d="M 710 1164 
C 832 1068 1043 960 1299 960 
C 1805 960 2240 1357 2240 1888 
C 2240 2054 2189 2310 1997 2509 
C 2176 2692 2438 2752 2586 2752 
C 2611 2752 2650 2752 2682 2734 
C 2656 2728 2598 2703 2598 2605 
C 2598 2527 2656 2471 2739 2471 
C 2835 2471 2886 2533 2886 2614 
C 2886 2731 2790 2854 2586 2854 
C 2330 2854 2106 2738 1926 2580 
C 1734 2753 1504 2816 1299 2816 
C 794 2816 358 2419 358 1888 
C 358 1522 570 1292 634 1228 
C 442 1004 442 743 442 711 
C 442 545 506 302 723 168 
C 390 85 128 -169 128 -486 
C 128 -943 736 -1280 1466 -1280 
C 2170 -1280 2803 -956 2803 -479 
C 2803 384 1856 384 1363 384 
C 1216 384 954 384 922 391 
C 723 423 589 602 589 826 
C 589 883 589 1024 710 1164 
z
M 1299 1068 
C 736 1068 736 1760 736 1889 
C 736 2016 736 2708 1299 2708 
C 1862 2708 1862 2016 1862 1889 
C 1862 1760 1862 1068 1299 1068 
z
M 1466 -1171 
C 826 -1171 384 -835 384 -486 
C 384 -289 493 -105 634 -4 
C 794 104 858 104 1293 104 
C 1818 104 2547 104 2547 -486 
C 2547 -835 2106 -1171 1466 -1171 
z
" transform="scale(0.015625)"/>
      <path id="CMR17-44" d="M 333 4352 
L 333 4186 
C 774 4186 845 4186 845 3900 
L 845 452 
C 845 166 774 166 333 166 
L 333 0 
L 2368 0 
C 3398 0 4224 943 4224 2141 
C 4224 3346 3411 4352 2368 4352 
L 333 4352 
z
M 1523 166 
C 1267 166 1254 197 1254 414 
L 1254 3938 
C 1254 4155 1267 4186 1523 4186 
L 2240 4186 
C 2771 4186 3750 3874 3750 2141 
C 3750 1242 3488 879 3366 707 
C 3213 510 2848 166 2240 166 
L 1523 166 
z
" transform="scale(0.015625)"/>
     </defs>
     <use xlink:href="#CMR17-4f" transform="scale(0.996264)"/>
     <use xlink:href="#CMR17-72" transform="translate(71.714788 0) scale(0.996264)"/>
     <use xlink:href="#CMR17-69" transform="translate(106.995556 0) scale(0.996264)"/>
     <use xlink:href="#CMR17-67" transform="translate(131.866615 0) scale(0.996264)"/>
     <use xlink:href="#CMR17-69" transform="translate(177.557092 0) scale(0.996264)"/>
     <use xlink:href="#CMR17-6e" transform="translate(202.42815 0) scale(0.996264)"/>
     <use xlink:href="#CMR17-61" transform="translate(253.32352 0) scale(0.996264)"/>
     <use xlink:href="#CMR17-6c" transform="translate(299.013997 0) scale(0.996264)"/>
     <use xlink:href="#CMR17-44" transform="translate(353.961022 0) scale(0.996264)"/>
     <use xlink:href="#CMR17-61" transform="translate(424.354578 0) scale(0.996264)"/>
     <use xlink:href="#CMR17-74" transform="translate(470.045055 0) scale(0.996264)"/>
     <use xlink:href="#CMR17-61" transform="translate(505.325823 0) scale(0.996264)"/>
    </g>
   </g>
  </g>
 </g>
 <defs>
  <clipPath id="p86fed9d98e">
   <rect x="108" y="43.2" width="669.6" height="277.2"/>
  </clipPath>
 </defs>
</svg>
