<?xml version="1.0" encoding="utf-8" standalone="no"?>
<!DOCTYPE svg PUBLIC "-//W3C//DTD SVG 1.1//EN"
  "http://www.w3.org/Graphics/SVG/1.1/DTD/svg11.dtd">
<svg xmlns:xlink="http://www.w3.org/1999/xlink" width="504pt" height="288pt" viewBox="0 0 504 288" xmlns="http://www.w3.org/2000/svg" version="1.1">
 <metadata>
  <rdf:RDF xmlns:dc="http://purl.org/dc/elements/1.1/" xmlns:cc="http://creativecommons.org/ns#" xmlns:rdf="http://www.w3.org/1999/02/22-rdf-syntax-ns#">
   <cc:Work>
    <dc:type rdf:resource="http://purl.org/dc/dcmitype/StillImage"/>
    <dc:date>2023-08-15T15:10:09.604324</dc:date>
    <dc:format>image/svg+xml</dc:format>
    <dc:creator>
     <cc:Agent>
      <dc:title>Matplotlib v3.7.1, https://matplotlib.org/</dc:title>
     </cc:Agent>
    </dc:creator>
   </cc:Work>
  </rdf:RDF>
 </metadata>
 <defs>
  <style type="text/css">*{stroke-linejoin: round; stroke-linecap: butt}</style>
 </defs>
 <g id="figure_1">
  <g id="patch_1">
   <path d="M 0 288 
L 504 288 
L 504 0 
L 0 0 
L 0 288 
z
" style="fill: none"/>
  </g>
  <g id="axes_1">
   <g id="patch_2">
    <path d="M 76.950393 126.268114 
L 489.96 126.268114 
L 489.96 14.04 
L 76.950393 14.04 
z
" style="fill: #ffffff"/>
   </g>
   <g id="matplotlib.axis_1"/>
   <g id="matplotlib.axis_2">
    <g id="ytick_1">
     <g id="line2d_1">
      <defs>
       <path id="m0815e62feb" d="M 0 0 
L -3.5 0 
" style="stroke: #000000; stroke-width: 0.8"/>
      </defs>
      <g>
       <use xlink:href="#m0815e62feb" x="76.950393" y="100.784612" style="stroke: #000000; stroke-width: 0.8"/>
      </g>
     </g>
     <g id="text_1">
      <!-- $\mathdefault{−0.025}$ -->
      <g transform="translate(30.991432 105.281626) scale(0.13 -0.13)">
       <defs>
        <path id="CMSY10-0" d="M 4218 1472 
C 4326 1472 4442 1472 4442 1600 
C 4442 1728 4326 1728 4218 1728 
L 755 1728 
C 646 1728 531 1728 531 1600 
C 531 1472 646 1472 755 1472 
L 4218 1472 
z
" transform="scale(0.015625)"/>
        <path id="CMR17-30" d="M 2688 2025 
C 2688 2416 2682 3080 2413 3591 
C 2176 4039 1798 4198 1466 4198 
C 1158 4198 768 4058 525 3597 
C 269 3118 243 2524 243 2025 
C 243 1661 250 1106 448 619 
C 723 -39 1216 -128 1466 -128 
C 1760 -128 2208 -7 2470 600 
C 2662 1042 2688 1559 2688 2025 
z
M 1466 -26 
C 1056 -26 813 325 723 812 
C 653 1188 653 1738 653 2096 
C 653 2588 653 2997 736 3387 
C 858 3929 1216 4096 1466 4096 
C 1728 4096 2067 3923 2189 3400 
C 2272 3036 2278 2607 2278 2096 
C 2278 1680 2278 1169 2202 792 
C 2067 95 1690 -26 1466 -26 
z
" transform="scale(0.015625)"/>
        <path id="CMMI12-3a" d="M 1178 307 
C 1178 492 1024 619 870 619 
C 685 619 557 466 557 313 
C 557 128 710 0 864 0 
C 1050 0 1178 153 1178 307 
z
" transform="scale(0.015625)"/>
        <path id="CMR17-32" d="M 2669 989 
L 2554 989 
C 2490 536 2438 459 2413 420 
C 2381 369 1920 369 1830 369 
L 602 369 
C 832 619 1280 1072 1824 1597 
C 2214 1967 2669 2402 2669 3035 
C 2669 3790 2067 4224 1395 4224 
C 691 4224 262 3604 262 3030 
C 262 2780 448 2748 525 2748 
C 589 2748 781 2787 781 3010 
C 781 3207 614 3264 525 3264 
C 486 3264 448 3258 422 3245 
C 544 3790 915 4058 1306 4058 
C 1862 4058 2227 3617 2227 3035 
C 2227 2479 1901 2000 1536 1584 
L 262 146 
L 262 0 
L 2515 0 
L 2669 989 
z
" transform="scale(0.015625)"/>
        <path id="CMR17-35" d="M 730 3692 
C 794 3666 1056 3584 1325 3584 
C 1920 3584 2246 3911 2432 4100 
C 2432 4157 2432 4192 2394 4192 
C 2387 4192 2374 4192 2323 4163 
C 2099 4058 1837 3973 1517 3973 
C 1325 3973 1037 3999 723 4139 
C 653 4171 640 4171 634 4171 
C 602 4171 595 4164 595 4037 
L 595 2203 
C 595 2089 595 2057 659 2057 
C 691 2057 704 2070 736 2114 
C 941 2401 1222 2522 1542 2522 
C 1766 2522 2246 2382 2246 1289 
C 2246 1085 2246 715 2054 421 
C 1894 159 1645 25 1370 25 
C 947 25 518 320 403 814 
C 429 807 480 795 506 795 
C 589 795 749 840 749 1038 
C 749 1210 627 1280 506 1280 
C 358 1280 262 1190 262 1011 
C 262 454 704 -128 1382 -128 
C 2042 -128 2669 440 2669 1264 
C 2669 2030 2170 2624 1549 2624 
C 1222 2624 947 2503 730 2274 
L 730 3692 
z
" transform="scale(0.015625)"/>
       </defs>
       <use xlink:href="#CMSY10-0" transform="scale(0.996264)"/>
       <use xlink:href="#CMR17-30" transform="translate(77.487468 0) scale(0.996264)"/>
       <use xlink:href="#CMMI12-3a" transform="translate(123.177945 0) scale(0.996264)"/>
       <use xlink:href="#CMR17-30" transform="translate(150.275122 0) scale(0.996264)"/>
       <use xlink:href="#CMR17-32" transform="translate(195.965599 0) scale(0.996264)"/>
       <use xlink:href="#CMR17-35" transform="translate(241.656076 0) scale(0.996264)"/>
      </g>
     </g>
    </g>
    <g id="ytick_2">
     <g id="line2d_2">
      <g>
       <use xlink:href="#m0815e62feb" x="76.950393" y="71.411073" style="stroke: #000000; stroke-width: 0.8"/>
      </g>
     </g>
     <g id="text_2">
      <!-- $\mathdefault{0.000}$ -->
      <g transform="translate(41.064802 75.908087) scale(0.13 -0.13)">
       <use xlink:href="#CMR17-30" transform="scale(0.996264)"/>
       <use xlink:href="#CMMI12-3a" transform="translate(45.690477 0) scale(0.996264)"/>
       <use xlink:href="#CMR17-30" transform="translate(72.787654 0) scale(0.996264)"/>
       <use xlink:href="#CMR17-30" transform="translate(118.478131 0) scale(0.996264)"/>
       <use xlink:href="#CMR17-30" transform="translate(164.168608 0) scale(0.996264)"/>
      </g>
     </g>
    </g>
    <g id="ytick_3">
     <g id="line2d_3">
      <g>
       <use xlink:href="#m0815e62feb" x="76.950393" y="42.037534" style="stroke: #000000; stroke-width: 0.8"/>
      </g>
     </g>
     <g id="text_3">
      <!-- $\mathdefault{0.025}$ -->
      <g transform="translate(41.064802 46.534548) scale(0.13 -0.13)">
       <use xlink:href="#CMR17-30" transform="scale(0.996264)"/>
       <use xlink:href="#CMMI12-3a" transform="translate(45.690477 0) scale(0.996264)"/>
       <use xlink:href="#CMR17-30" transform="translate(72.787654 0) scale(0.996264)"/>
       <use xlink:href="#CMR17-32" transform="translate(118.478131 0) scale(0.996264)"/>
       <use xlink:href="#CMR17-35" transform="translate(164.168608 0) scale(0.996264)"/>
      </g>
     </g>
    </g>
    <g id="text_4">
     <!-- $x_1$ (m) -->
     <g transform="translate(23.753574 88.664978) rotate(-90) scale(0.13 -0.13)">
      <defs>
       <path id="CMMI12-78" d="M 3034 2606 
C 2829 2567 2752 2414 2752 2293 
C 2752 2139 2874 2088 2963 2088 
C 3155 2088 3290 2254 3290 2427 
C 3290 2695 2982 2816 2714 2816 
C 2323 2816 2106 2433 2048 2312 
C 1901 2816 1504 2816 1389 2816 
C 736 2816 390 1980 390 1839 
C 390 1814 416 1782 461 1782 
C 512 1782 525 1820 538 1846 
C 755 2555 1184 2689 1370 2689 
C 1658 2689 1715 2420 1715 2267 
C 1715 2127 1677 1980 1600 1673 
L 1382 798 
C 1286 415 1101 64 762 64 
C 730 64 570 64 435 147 
C 666 192 717 383 717 460 
C 717 588 621 664 499 664 
C 346 664 179 530 179 326 
C 179 57 480 -64 755 -64 
C 1062 -64 1280 179 1414 441 
C 1517 64 1837 -64 2074 -64 
C 2726 -64 3072 773 3072 913 
C 3072 945 3046 971 3008 971 
C 2950 971 2944 939 2925 888 
C 2752 326 2381 64 2093 64 
C 1869 64 1747 230 1747 492 
C 1747 632 1773 734 1875 1156 
L 2099 2024 
C 2195 2408 2413 2689 2707 2689 
C 2720 2689 2899 2689 3034 2606 
z
" transform="scale(0.015625)"/>
       <path id="CMR17-31" d="M 1702 4058 
C 1702 4192 1696 4192 1606 4192 
C 1357 3916 979 3827 621 3827 
C 602 3827 570 3827 563 3808 
C 557 3795 557 3782 557 3648 
C 755 3648 1088 3686 1344 3839 
L 1344 461 
C 1344 236 1331 160 781 160 
L 589 160 
L 589 0 
C 896 0 1216 0 1523 0 
C 1830 0 2150 0 2458 0 
L 2458 160 
L 2266 160 
C 1715 160 1702 230 1702 458 
L 1702 4058 
z
" transform="scale(0.015625)"/>
       <path id="CMR17-28" d="M 1958 -1561 
C 1958 -1555 1958 -1542 1939 -1523 
C 1645 -1224 858 -407 858 1581 
C 858 3569 1632 4379 1946 4697 
C 1946 4704 1958 4717 1958 4736 
C 1958 4755 1939 4768 1914 4768 
C 1843 4768 1299 4296 986 3594 
C 666 2887 576 2199 576 1588 
C 576 1128 621 351 1005 -471 
C 1312 -1135 1837 -1600 1914 -1600 
C 1946 -1600 1958 -1587 1958 -1561 
z
" transform="scale(0.015625)"/>
       <path id="CMR17-6d" d="M 4326 1933 
C 4326 2252 4269 2790 3507 2790 
C 3072 2790 2771 2496 2656 2151 
L 2650 2151 
C 2573 2676 2195 2790 1837 2790 
C 1331 2790 1069 2400 973 2144 
L 966 2144 
L 966 2790 
L 211 2720 
L 211 2554 
C 589 2554 646 2515 646 2208 
L 646 428 
C 646 184 621 153 211 153 
L 211 -13 
C 365 0 646 0 813 0 
C 979 0 1267 0 1421 -13 
L 1421 153 
C 1011 153 986 178 986 428 
L 986 1658 
C 986 2247 1344 2688 1792 2688 
C 2266 2688 2317 2266 2317 1958 
L 2317 428 
C 2317 184 2291 153 1882 153 
L 1882 -13 
C 2035 0 2317 0 2483 0 
C 2650 0 2938 0 3091 -13 
L 3091 153 
C 2682 153 2656 178 2656 428 
L 2656 1658 
C 2656 2247 3014 2688 3462 2688 
C 3936 2688 3987 2266 3987 1958 
L 3987 428 
C 3987 184 3962 153 3552 153 
L 3552 -13 
C 3706 0 3987 0 4154 0 
C 4320 0 4608 0 4762 -13 
L 4762 153 
C 4352 153 4326 178 4326 428 
L 4326 1933 
z
" transform="scale(0.015625)"/>
       <path id="CMR17-29" d="M 1683 1581 
C 1683 2040 1638 2817 1254 3639 
C 947 4303 422 4768 346 4768 
C 326 4768 301 4761 301 4729 
C 301 4717 307 4710 314 4697 
C 621 4378 1402 3568 1402 1584 
C 1402 -407 627 -1217 314 -1537 
C 307 -1549 301 -1556 301 -1568 
C 301 -1600 326 -1600 346 -1600 
C 416 -1600 960 -1128 1274 -426 
C 1594 281 1683 969 1683 1581 
z
" transform="scale(0.015625)"/>
      </defs>
      <use xlink:href="#CMMI12-78" transform="scale(0.996264)"/>
      <use xlink:href="#CMR17-31" transform="translate(55.43406 -14.943915) scale(0.697382)"/>
      <use xlink:href="#CMR17-28" transform="translate(117.99134 0) scale(0.996264)"/>
      <use xlink:href="#CMR17-6d" transform="translate(153.272108 0) scale(0.996264)"/>
      <use xlink:href="#CMR17-29" transform="translate(230.191698 0) scale(0.996264)"/>
     </g>
    </g>
   </g>
   <g id="line2d_4">
    <path d="M 95.809279 108.59386 
L 97.695168 109.77619 
L 99.581056 109.345566 
L 101.466945 107.128313 
L 103.352833 103.063645 
L 105.238722 97.21372 
L 107.124611 89.764556 
L 109.010499 81.017617 
L 112.782277 61.302641 
L 114.668165 51.323687 
L 116.554054 41.96038 
L 118.439942 33.710895 
L 120.325831 27.013385 
L 122.21172 22.216537 
L 124.097608 19.556412 
L 125.983497 19.141278 
L 127.869385 20.945555 
L 129.755274 24.813257 
L 131.641163 30.47064 
L 133.527051 37.547033 
L 135.41294 45.60224 
L 141.070606 70.876247 
L 142.956494 78.193377 
L 144.842383 84.377491 
L 146.728272 89.223487 
L 148.61416 92.638337 
L 150.500049 94.641639 
L 152.385937 95.357347 
L 154.271826 94.997511 
L 156.157715 93.839423 
L 158.043603 92.198145 
L 161.815381 88.736223 
L 163.701269 87.469028 
L 165.587158 86.77589 
L 167.473046 86.750274 
L 169.358935 87.390234 
L 171.244824 88.598795 
L 176.90249 93.478472 
L 178.788378 94.551115 
L 180.674267 94.827885 
L 182.560155 94.03891 
L 184.446044 91.980533 
L 186.331933 88.537302 
L 188.217821 83.69728 
L 190.10371 77.559344 
L 191.989598 70.331782 
L 195.761376 53.918964 
L 197.647264 45.566846 
L 199.533153 37.73642 
L 201.419042 30.891737 
L 203.30493 25.457367 
L 205.190819 21.787764 
L 207.076707 20.141214 
L 208.962596 20.660366 
L 210.848485 23.360848 
L 212.734373 28.128852 
L 214.620262 34.727891 
L 216.50615 42.814249 
L 218.392039 51.95997 
L 224.049705 80.838585 
L 225.935594 89.32608 
L 227.821482 96.555468 
L 229.707371 102.241929 
L 231.593259 106.211583 
L 233.479148 108.408737 
L 235.365037 108.894249 
L 237.250925 107.835302 
L 239.136814 105.487504 
L 241.022703 102.170857 
L 244.79448 94.061878 
L 246.680368 89.970666 
L 248.566257 86.256576 
L 250.452146 83.136347 
L 252.338034 80.739664 
L 254.223923 79.101789 
L 256.109811 78.164452 
L 257.9957 77.78483 
L 263.653366 77.676825 
L 265.539255 77.088518 
L 267.425143 75.80968 
L 269.311032 73.666891 
L 271.19692 70.566716 
L 273.082809 66.508925 
L 274.968698 61.591986 
L 276.854586 56.010275 
L 282.512252 38.378599 
L 284.398141 33.471277 
L 286.284029 29.699555 
L 288.169918 27.401433 
L 290.055807 26.840485 
L 291.941695 28.183367 
L 293.827584 31.484023 
L 295.713472 36.675896 
L 297.599361 43.572819 
L 299.48525 51.878615 
L 301.371138 61.204748 
L 307.028804 90.580849 
L 308.914693 99.201532 
L 310.800581 106.498988 
L 312.68647 112.140446 
L 314.572359 115.897695 
L 316.458247 117.659929 
L 318.344136 117.438093 
L 320.230024 115.360493 
L 322.115913 111.660111 
L 324.001802 106.654686 
L 325.88769 100.721159 
L 331.545356 81.389908 
L 333.431245 75.664922 
L 335.317133 70.765538 
L 337.203022 66.843682 
L 339.088911 63.953525 
L 340.974799 62.053193 
L 342.860688 61.014335 
L 344.746576 60.638651 
L 346.632465 60.679914 
L 348.518354 60.86963 
L 350.404242 60.94416 
L 352.290131 60.671047 
L 354.17602 59.872363 
L 356.061908 58.443127 
L 357.947797 56.363266 
L 359.833685 53.702094 
L 363.605463 47.331929 
L 365.491351 44.140443 
L 367.37724 41.361524 
L 369.263128 39.323209 
L 371.149017 38.332248 
L 373.034906 38.646717 
L 374.920794 40.451696 
L 376.806683 43.840019 
L 378.692572 48.799702 
L 380.57846 55.209148 
L 382.464349 62.840626 
L 386.236126 80.405135 
L 390.007903 98.162797 
L 391.893792 105.95757 
L 393.779681 112.457214 
L 395.665569 117.311747 
L 397.551458 120.264001 
L 399.437346 121.166836 
L 401.323235 119.992634 
L 403.209124 116.83437 
L 405.095012 111.89822 
L 406.980901 105.488295 
L 408.866789 97.98468 
L 416.410344 65.718619 
L 418.296233 59.116115 
L 420.182121 53.704027 
L 422.06801 49.628348 
L 423.953898 46.931776 
L 425.839787 45.556859 
L 427.725676 45.356768 
L 429.611564 46.112735 
L 431.497453 47.556613 
L 437.155119 53.141393 
L 439.041007 54.579615 
L 440.926896 55.521595 
L 442.812785 55.910341 
L 444.698673 55.773563 
L 446.584562 55.220026 
L 450.356339 53.631341 
L 452.242228 53.090731 
L 454.128116 53.07508 
L 456.014005 53.832003 
L 457.899894 55.563444 
L 459.785782 58.403907 
L 461.671671 62.403781 
L 463.557559 67.51921 
L 465.443448 73.609434 
L 467.329337 80.441933 
L 471.101114 95.027624 
L 471.101114 95.027624 
" clip-path="url(#p3c3b1230fc)" style="fill: none; stroke: #ff0000; stroke-linecap: square"/>
   </g>
   <g id="line2d_5">
    <path d="M 95.809279 108.870811 
L 101.466945 104.05355 
L 107.124611 89.014298 
L 112.782277 64.223031 
L 118.439942 42.016635 
L 124.097608 32.382115 
L 129.755274 38.021834 
L 135.41294 48.36132 
L 141.070606 73.035093 
L 146.728272 81.847155 
L 152.385937 77.029894 
L 156.157715 71.390175 
L 161.815381 71.390175 
L 167.473046 75.384976 
L 173.130712 83.374579 
L 178.788378 89.719263 
L 184.446044 91.364181 
L 190.10371 89.014298 
L 195.761376 61.050689 
L 201.419042 41.194176 
L 207.076707 31.559655 
L 212.734373 30.032231 
L 216.50615 54.706004 
L 222.163816 74.680011 
L 227.821482 87.36938 
L 233.479148 96.181442 
L 239.136814 91.364181 
L 244.79448 85.724462 
L 250.452146 73.857552 
L 256.109811 73.857552 
L 261.767477 77.029894 
L 267.425143 85.724462 
L 273.082809 75.384976 
L 278.740475 62.695607 
L 284.398141 46.716402 
L 290.055807 38.021834 
L 295.713472 40.371717 
L 299.48525 60.345724 
L 305.142915 77.852353 
L 310.800581 93.009099 
L 316.458247 104.876009 
L 322.115913 100.176243 
L 327.773579 85.724462 
L 333.431245 69.040291 
L 339.088911 65.867949 
L 342.860688 61.050689 
L 348.518354 69.862751 
L 354.17602 69.862751 
L 359.833685 69.040291 
L 365.491351 57.055887 
L 371.149017 48.36132 
L 376.806683 49.183779 
L 382.464349 59.523265 
L 388.122015 77.029894 
L 393.779681 91.364181 
L 397.551458 104.876009 
L 403.209124 105.698468 
L 408.866789 85.724462 
L 414.524455 71.390175 
L 420.182121 61.873148 
L 425.839787 48.36132 
L 431.497453 52.356121 
L 437.155119 64.223031 
L 442.812785 61.050689 
L 446.584562 71.390175 
L 452.242228 68.217832 
L 457.899894 60.345724 
L 463.557559 69.862751 
L 469.215225 72.212634 
L 474.872891 89.014298 
L 480.530557 100.176243 
L 486.188223 94.536523 
L 491.845889 89.719263 
L 497.503554 74.680011 
L 503.16122 51.533662 
L 505 47.63865 
L 505 47.63865 
" clip-path="url(#p3c3b1230fc)" style="fill: none; stroke-dasharray: 3.7,1.6; stroke-dashoffset: 0; stroke: #8b0000"/>
   </g>
   <g id="patch_3">
    <path d="M 76.950393 126.268114 
L 76.950393 14.04 
" style="fill: none; stroke: #000000; stroke-width: 0.8; stroke-linejoin: miter; stroke-linecap: square"/>
   </g>
   <g id="patch_4">
    <path d="M 489.96 126.268114 
L 489.96 14.04 
" style="fill: none; stroke: #000000; stroke-width: 0.8; stroke-linejoin: miter; stroke-linecap: square"/>
   </g>
   <g id="patch_5">
    <path d="M 76.950393 126.268114 
L 489.96 126.268114 
" style="fill: none; stroke: #000000; stroke-width: 0.8; stroke-linejoin: miter; stroke-linecap: square"/>
   </g>
   <g id="patch_6">
    <path d="M 76.950393 14.04 
L 489.96 14.04 
" style="fill: none; stroke: #000000; stroke-width: 0.8; stroke-linejoin: miter; stroke-linecap: square"/>
   </g>
   <g id="legend_1">
    <g id="patch_7">
     <path d="M 362.405139 60.676624 
L 480.86 60.676624 
Q 483.46 60.676624 483.46 58.076624 
L 483.46 23.14 
Q 483.46 20.54 480.86 20.54 
L 362.405139 20.54 
Q 359.805139 20.54 359.805139 23.14 
L 359.805139 58.076624 
Q 359.805139 60.676624 362.405139 60.676624 
z
" style="fill: #ffffff; opacity: 0.8; stroke: #cccccc; stroke-linejoin: miter"/>
    </g>
    <g id="line2d_6">
     <path d="M 365.005139 30.29 
L 378.005139 30.29 
L 391.005139 30.29 
" style="fill: none; stroke: #ff0000; stroke-linecap: square"/>
    </g>
    <g id="text_5">
     <!-- MCMC result -->
     <g transform="translate(401.405139 34.84) scale(0.13 -0.13)">
      <defs>
       <path id="CMR17-4d" d="M 1338 4224 
C 1299 4320 1293 4320 1158 4320 
L 339 4320 
L 339 4160 
C 781 4160 851 4160 851 3875 
L 851 610 
C 851 451 851 153 339 153 
L 339 -13 
C 486 0 755 0 915 0 
C 1075 0 1344 0 1491 -13 
L 1491 153 
C 979 153 979 451 979 610 
L 979 4135 
L 986 4135 
L 2490 89 
C 2515 25 2528 -13 2579 -13 
C 2630 -13 2643 25 2669 89 
L 4186 4166 
L 4192 4166 
L 4192 438 
C 4192 153 4122 153 3680 153 
L 3680 -13 
C 3853 0 4198 0 4384 0 
C 4570 0 4922 0 5094 -13 
L 5094 153 
C 4653 153 4582 153 4582 438 
L 4582 3875 
C 4582 4160 4653 4160 5094 4160 
L 5094 4320 
L 4282 4320 
C 4147 4320 4141 4314 4102 4218 
L 2720 502 
L 1338 4224 
z
" transform="scale(0.015625)"/>
       <path id="CMR17-43" d="M 3974 4289 
C 3974 4403 3968 4410 3930 4410 
C 3904 4410 3898 4403 3853 4327 
L 3571 3792 
C 3258 4187 2874 4416 2381 4416 
C 1286 4416 294 3456 294 2148 
C 294 826 1286 -128 2387 -128 
C 3366 -128 3974 730 3974 1461 
C 3974 1524 3974 1550 3917 1550 
C 3866 1550 3866 1531 3859 1474 
C 3808 585 3168 38 2477 38 
C 1824 38 781 495 781 2147 
C 781 3805 1843 4250 2464 4250 
C 3187 4250 3712 3628 3834 2745 
C 3846 2668 3846 2655 3904 2655 
C 3974 2655 3974 2668 3974 2783 
L 3974 4289 
z
" transform="scale(0.015625)"/>
       <path id="CMR17-72" d="M 960 1497 
C 960 2112 1222 2688 1702 2688 
C 1747 2688 1792 2682 1837 2662 
C 1837 2662 1696 2617 1696 2452 
C 1696 2298 1818 2234 1914 2234 
C 1990 2234 2131 2279 2131 2458 
C 2131 2663 1926 2790 1709 2790 
C 1222 2790 1011 2317 947 2093 
L 941 2093 
L 941 2790 
L 198 2720 
L 198 2554 
C 576 2554 634 2515 634 2208 
L 634 428 
C 634 184 608 153 198 153 
L 198 -13 
C 352 0 646 0 813 0 
C 998 0 1325 0 1498 -13 
L 1498 153 
C 1037 153 960 153 960 440 
L 960 1497 
z
" transform="scale(0.015625)"/>
       <path id="CMR17-65" d="M 2438 1472 
C 2464 1498 2464 1511 2464 1576 
C 2464 2238 2118 2816 1389 2816 
C 710 2816 173 2169 173 1383 
C 173 551 781 -64 1459 -64 
C 2176 -64 2458 607 2458 740 
C 2458 784 2419 784 2406 784 
C 2362 784 2355 771 2330 696 
C 2189 265 1837 51 1504 51 
C 1229 51 954 203 781 480 
C 582 803 582 1176 582 1472 
L 2438 1472 
z
M 589 1568 
C 634 2505 1126 2714 1382 2714 
C 1818 2714 2112 2297 2118 1568 
L 589 1568 
z
" transform="scale(0.015625)"/>
       <path id="CMR17-73" d="M 1978 2697 
C 1978 2813 1971 2819 1933 2819 
C 1907 2819 1901 2813 1824 2717 
C 1805 2691 1747 2626 1728 2601 
C 1523 2819 1235 2819 1126 2819 
C 416 2819 160 2447 160 2076 
C 160 1498 813 1365 998 1325 
C 1402 1243 1542 1217 1677 1101 
C 1760 1025 1901 884 1901 654 
C 1901 384 1747 38 1158 38 
C 602 38 403 460 288 1021 
C 269 1110 269 1117 218 1117 
C 166 1117 160 1110 160 983 
L 160 63 
C 160 -51 166 -58 205 -58 
C 237 -58 243 -51 275 0 
C 314 57 410 211 448 276 
C 576 103 800 -64 1158 -64 
C 1792 -64 2131 283 2131 784 
C 2131 1112 1958 1285 1875 1362 
C 1683 1561 1459 1606 1190 1657 
C 838 1735 390 1825 390 2217 
C 390 2383 480 2737 1126 2737 
C 1811 2737 1850 2094 1862 1888 
C 1869 1856 1901 1849 1920 1849 
C 1978 1849 1978 1869 1978 1978 
L 1978 2697 
z
" transform="scale(0.015625)"/>
       <path id="CMR17-75" d="M 1882 2693 
L 1882 2528 
C 2259 2528 2317 2489 2317 2186 
L 2317 1032 
C 2317 500 2029 38 1555 38 
C 1030 38 986 348 986 678 
L 986 2763 
L 211 2693 
L 211 2528 
C 467 2528 640 2528 646 2274 
L 646 1058 
C 646 633 646 361 813 183 
C 896 101 1056 -64 1517 -64 
C 2061 -64 2272 377 2323 506 
L 2330 506 
L 2330 -63 
L 3091 -63 
L 3091 128 
C 2714 128 2656 166 2656 473 
L 2656 2763 
L 1882 2693 
z
" transform="scale(0.015625)"/>
       <path id="CMR17-6c" d="M 979 4396 
L 218 4326 
L 218 4160 
C 595 4160 653 4122 653 3817 
L 653 426 
C 653 184 627 153 218 153 
L 218 -13 
C 371 0 653 0 813 0 
C 979 0 1261 0 1414 -13 
L 1414 153 
C 1005 153 979 178 979 426 
L 979 4396 
z
" transform="scale(0.015625)"/>
       <path id="CMR17-74" d="M 966 2560 
L 1862 2560 
L 1862 2725 
L 966 2725 
L 966 3904 
L 851 3904 
C 838 3245 614 2668 70 2668 
L 70 2560 
L 627 2560 
L 627 771 
C 627 650 627 -64 1370 -64 
C 1747 -64 1965 306 1965 777 
L 1965 1140 
L 1850 1140 
L 1850 783 
C 1850 344 1677 51 1408 51 
C 1222 51 966 178 966 758 
L 966 2560 
z
" transform="scale(0.015625)"/>
      </defs>
      <use xlink:href="#CMR17-4d" transform="scale(0.996264)"/>
      <use xlink:href="#CMR17-43" transform="translate(84.686941 0) scale(0.996264)"/>
      <use xlink:href="#CMR17-4d" transform="translate(151.196821 0) scale(0.996264)"/>
      <use xlink:href="#CMR17-43" transform="translate(235.883762 0) scale(0.996264)"/>
      <use xlink:href="#CMR17-72" transform="translate(332.469609 0) scale(0.996264)"/>
      <use xlink:href="#CMR17-65" transform="translate(367.750376 0) scale(0.996264)"/>
      <use xlink:href="#CMR17-73" transform="translate(408.236037 0) scale(0.996264)"/>
      <use xlink:href="#CMR17-75" transform="translate(444.037374 0) scale(0.996264)"/>
      <use xlink:href="#CMR17-6c" transform="translate(494.932744 0) scale(0.996264)"/>
      <use xlink:href="#CMR17-74" transform="translate(519.803803 0) scale(0.996264)"/>
     </g>
    </g>
    <g id="line2d_7">
     <path d="M 365.005139 48.408312 
L 378.005139 48.408312 
L 391.005139 48.408312 
" style="fill: none; stroke-dasharray: 3.7,1.6; stroke-dashoffset: 0; stroke: #8b0000"/>
    </g>
    <g id="text_6">
     <!-- Experiment -->
     <g transform="translate(401.405139 52.958312) scale(0.13 -0.13)">
      <defs>
       <path id="CMR17-45" d="M 3885 1615 
L 3770 1615 
C 3629 676 3546 166 2419 166 
L 1530 166 
C 1274 166 1261 197 1261 414 
L 1261 2176 
L 1862 2176 
C 2464 2176 2522 1960 2522 1430 
L 2637 1430 
L 2637 3081 
L 2522 3081 
C 2522 2557 2464 2342 1862 2342 
L 1261 2342 
L 1261 3913 
C 1261 4128 1274 4160 1530 4160 
L 2406 4160 
C 3398 4160 3514 3769 3603 2929 
L 3718 2929 
L 3565 4325 
L 326 4325 
L 326 4160 
C 768 4160 838 4160 838 3874 
L 838 451 
C 838 166 768 166 326 166 
L 326 0 
L 3654 0 
L 3885 1615 
z
" transform="scale(0.015625)"/>
       <path id="CMR17-78" d="M 1664 1477 
C 1856 1726 2074 2006 2253 2216 
C 2464 2458 2707 2560 2989 2560 
L 2989 2726 
C 2880 2726 2656 2726 2541 2726 
C 2368 2726 2170 2726 2022 2732 
L 2022 2566 
C 2112 2553 2163 2489 2163 2400 
C 2163 2285 2099 2215 2067 2171 
L 1594 1573 
L 1030 2306 
C 973 2376 973 2388 973 2420 
C 973 2497 1037 2560 1146 2560 
L 1146 2732 
C 992 2726 717 2726 557 2726 
C 384 2726 179 2726 38 2732 
L 38 2560 
C 384 2560 461 2534 614 2343 
L 1350 1395 
C 1363 1382 1395 1344 1395 1325 
C 1395 1299 838 619 768 530 
C 480 185 179 160 6 160 
L 6 0 
C 115 0 339 0 454 0 
C 582 0 864 0 979 -6 
L 979 160 
C 941 166 838 179 838 325 
C 838 440 890 510 947 586 
L 1478 1236 
L 2035 512 
C 2086 442 2163 346 2163 301 
C 2163 211 2086 160 1984 160 
L 1984 -6 
C 2138 0 2413 0 2573 0 
C 2746 0 2950 0 3091 -6 
L 3091 160 
C 2771 160 2675 172 2522 370 
L 1664 1477 
z
" transform="scale(0.015625)"/>
       <path id="CMR17-70" d="M 1408 -1063 
C 998 -1063 973 -1037 973 -789 
L 973 402 
C 1158 134 1427 -38 1766 -38 
C 2406 -38 3053 523 3053 1388 
C 3053 2191 2496 2802 1837 2802 
C 1453 2802 1139 2592 960 2338 
L 960 2802 
L 198 2732 
L 198 2567 
C 576 2567 634 2528 634 2223 
L 634 -789 
C 634 -1031 608 -1063 198 -1063 
L 198 -1228 
C 352 -1216 634 -1216 800 -1216 
C 966 -1216 1254 -1216 1408 -1228 
L 1408 -1063 
z
M 973 2012 
C 973 2102 973 2235 1222 2471 
C 1254 2497 1472 2688 1792 2688 
C 2259 2688 2643 2108 2643 1382 
C 2643 656 2234 64 1728 64 
C 1498 64 1248 172 1056 472 
C 973 612 973 650 973 752 
L 973 2012 
z
" transform="scale(0.015625)"/>
       <path id="CMR17-69" d="M 992 3909 
C 992 4049 877 4170 730 4170 
C 589 4170 467 4056 467 3909 
C 467 3769 582 3648 730 3648 
C 870 3648 992 3763 992 3909 
z
M 243 2706 
L 243 2541 
C 602 2541 653 2502 653 2197 
L 653 427 
C 653 184 627 153 218 153 
L 218 -13 
C 371 0 646 0 806 0 
C 960 0 1222 0 1370 -13 
L 1370 153 
C 992 153 979 191 979 420 
L 979 2776 
L 243 2706 
z
" transform="scale(0.015625)"/>
       <path id="CMR17-6e" d="M 2656 1933 
C 2656 2259 2592 2790 1837 2790 
C 1331 2790 1069 2400 973 2144 
L 966 2144 
L 966 2790 
L 211 2720 
L 211 2554 
C 589 2554 646 2515 646 2208 
L 646 428 
C 646 184 621 153 211 153 
L 211 -13 
C 365 0 646 0 813 0 
C 979 0 1267 0 1421 -13 
L 1421 153 
C 1011 153 986 178 986 428 
L 986 1658 
C 986 2247 1344 2688 1792 2688 
C 2266 2688 2317 2266 2317 1958 
L 2317 428 
C 2317 184 2291 153 1882 153 
L 1882 -13 
C 2035 0 2317 0 2483 0 
C 2650 0 2938 0 3091 -13 
L 3091 153 
C 2682 153 2656 178 2656 428 
L 2656 1933 
z
" transform="scale(0.015625)"/>
      </defs>
      <use xlink:href="#CMR17-45" transform="scale(0.996264)"/>
      <use xlink:href="#CMR17-78" transform="translate(62.586301 0) scale(0.996264)"/>
      <use xlink:href="#CMR17-70" transform="translate(110.879216 0) scale(0.996264)"/>
      <use xlink:href="#CMR17-65" transform="translate(164.377025 0) scale(0.996264)"/>
      <use xlink:href="#CMR17-72" transform="translate(204.862685 0) scale(0.996264)"/>
      <use xlink:href="#CMR17-69" transform="translate(240.143453 0) scale(0.996264)"/>
      <use xlink:href="#CMR17-6d" transform="translate(265.014512 0) scale(0.996264)"/>
      <use xlink:href="#CMR17-65" transform="translate(341.934101 0) scale(0.996264)"/>
      <use xlink:href="#CMR17-6e" transform="translate(382.419762 0) scale(0.996264)"/>
      <use xlink:href="#CMR17-74" transform="translate(430.712678 0) scale(0.996264)"/>
     </g>
    </g>
   </g>
  </g>
  <g id="axes_2">
   <g id="patch_8">
    <path d="M 76.950393 238.496228 
L 489.96 238.496228 
L 489.96 126.268114 
L 76.950393 126.268114 
z
" style="fill: #ffffff"/>
   </g>
   <g id="matplotlib.axis_3">
    <g id="xtick_1">
     <g id="line2d_8">
      <defs>
       <path id="mb855303d1b" d="M 0 0 
L 0 3.5 
" style="stroke: #000000; stroke-width: 0.8"/>
      </defs>
      <g>
       <use xlink:href="#mb855303d1b" x="95.809279" y="238.496228" style="stroke: #000000; stroke-width: 0.8"/>
      </g>
     </g>
     <g id="text_7">
      <!-- $\mathdefault{0.00}$ -->
      <g transform="translate(84.536853 254.490256) scale(0.13 -0.13)">
       <use xlink:href="#CMR17-30" transform="scale(0.996264)"/>
       <use xlink:href="#CMMI12-3a" transform="translate(45.690477 0) scale(0.996264)"/>
       <use xlink:href="#CMR17-30" transform="translate(72.787654 0) scale(0.996264)"/>
       <use xlink:href="#CMR17-30" transform="translate(118.478131 0) scale(0.996264)"/>
      </g>
     </g>
    </g>
    <g id="xtick_2">
     <g id="line2d_9">
      <g>
       <use xlink:href="#mb855303d1b" x="142.956494" y="238.496228" style="stroke: #000000; stroke-width: 0.8"/>
      </g>
     </g>
     <g id="text_8">
      <!-- $\mathdefault{0.25}$ -->
      <g transform="translate(131.684069 254.490256) scale(0.13 -0.13)">
       <use xlink:href="#CMR17-30" transform="scale(0.996264)"/>
       <use xlink:href="#CMMI12-3a" transform="translate(45.690477 0) scale(0.996264)"/>
       <use xlink:href="#CMR17-32" transform="translate(72.787654 0) scale(0.996264)"/>
       <use xlink:href="#CMR17-35" transform="translate(118.478131 0) scale(0.996264)"/>
      </g>
     </g>
    </g>
    <g id="xtick_3">
     <g id="line2d_10">
      <g>
       <use xlink:href="#mb855303d1b" x="190.10371" y="238.496228" style="stroke: #000000; stroke-width: 0.8"/>
      </g>
     </g>
     <g id="text_9">
      <!-- $\mathdefault{0.50}$ -->
      <g transform="translate(178.831284 254.490256) scale(0.13 -0.13)">
       <use xlink:href="#CMR17-30" transform="scale(0.996264)"/>
       <use xlink:href="#CMMI12-3a" transform="translate(45.690477 0) scale(0.996264)"/>
       <use xlink:href="#CMR17-35" transform="translate(72.787654 0) scale(0.996264)"/>
       <use xlink:href="#CMR17-30" transform="translate(118.478131 0) scale(0.996264)"/>
      </g>
     </g>
    </g>
    <g id="xtick_4">
     <g id="line2d_11">
      <g>
       <use xlink:href="#mb855303d1b" x="237.250925" y="238.496228" style="stroke: #000000; stroke-width: 0.8"/>
      </g>
     </g>
     <g id="text_10">
      <!-- $\mathdefault{0.75}$ -->
      <g transform="translate(225.9785 254.490256) scale(0.13 -0.13)">
       <defs>
        <path id="CMR17-37" d="M 2886 3941 
L 2886 4081 
L 1382 4081 
C 634 4081 621 4165 595 4288 
L 480 4288 
L 294 3094 
L 410 3094 
C 429 3215 474 3540 550 3661 
C 589 3712 1062 3712 1171 3712 
L 2579 3712 
L 1869 2661 
C 1395 1954 1069 999 1069 165 
C 1069 89 1069 -128 1299 -128 
C 1530 -128 1530 89 1530 171 
L 1530 465 
C 1530 1508 1709 2196 2003 2636 
L 2886 3941 
z
" transform="scale(0.015625)"/>
       </defs>
       <use xlink:href="#CMR17-30" transform="scale(0.996264)"/>
       <use xlink:href="#CMMI12-3a" transform="translate(45.690477 0) scale(0.996264)"/>
       <use xlink:href="#CMR17-37" transform="translate(72.787654 0) scale(0.996264)"/>
       <use xlink:href="#CMR17-35" transform="translate(118.478131 0) scale(0.996264)"/>
      </g>
     </g>
    </g>
    <g id="xtick_5">
     <g id="line2d_12">
      <g>
       <use xlink:href="#mb855303d1b" x="284.398141" y="238.496228" style="stroke: #000000; stroke-width: 0.8"/>
      </g>
     </g>
     <g id="text_11">
      <!-- $\mathdefault{1.00}$ -->
      <g transform="translate(273.125715 254.490256) scale(0.13 -0.13)">
       <use xlink:href="#CMR17-31" transform="scale(0.996264)"/>
       <use xlink:href="#CMMI12-3a" transform="translate(45.690477 0) scale(0.996264)"/>
       <use xlink:href="#CMR17-30" transform="translate(72.787654 0) scale(0.996264)"/>
       <use xlink:href="#CMR17-30" transform="translate(118.478131 0) scale(0.996264)"/>
      </g>
     </g>
    </g>
    <g id="xtick_6">
     <g id="line2d_13">
      <g>
       <use xlink:href="#mb855303d1b" x="331.545356" y="238.496228" style="stroke: #000000; stroke-width: 0.8"/>
      </g>
     </g>
     <g id="text_12">
      <!-- $\mathdefault{1.25}$ -->
      <g transform="translate(320.27293 254.490256) scale(0.13 -0.13)">
       <use xlink:href="#CMR17-31" transform="scale(0.996264)"/>
       <use xlink:href="#CMMI12-3a" transform="translate(45.690477 0) scale(0.996264)"/>
       <use xlink:href="#CMR17-32" transform="translate(72.787654 0) scale(0.996264)"/>
       <use xlink:href="#CMR17-35" transform="translate(118.478131 0) scale(0.996264)"/>
      </g>
     </g>
    </g>
    <g id="xtick_7">
     <g id="line2d_14">
      <g>
       <use xlink:href="#mb855303d1b" x="378.692572" y="238.496228" style="stroke: #000000; stroke-width: 0.8"/>
      </g>
     </g>
     <g id="text_13">
      <!-- $\mathdefault{1.50}$ -->
      <g transform="translate(367.420146 254.490256) scale(0.13 -0.13)">
       <use xlink:href="#CMR17-31" transform="scale(0.996264)"/>
       <use xlink:href="#CMMI12-3a" transform="translate(45.690477 0) scale(0.996264)"/>
       <use xlink:href="#CMR17-35" transform="translate(72.787654 0) scale(0.996264)"/>
       <use xlink:href="#CMR17-30" transform="translate(118.478131 0) scale(0.996264)"/>
      </g>
     </g>
    </g>
    <g id="xtick_8">
     <g id="line2d_15">
      <g>
       <use xlink:href="#mb855303d1b" x="425.839787" y="238.496228" style="stroke: #000000; stroke-width: 0.8"/>
      </g>
     </g>
     <g id="text_14">
      <!-- $\mathdefault{1.75}$ -->
      <g transform="translate(414.567361 254.490256) scale(0.13 -0.13)">
       <use xlink:href="#CMR17-31" transform="scale(0.996264)"/>
       <use xlink:href="#CMMI12-3a" transform="translate(45.690477 0) scale(0.996264)"/>
       <use xlink:href="#CMR17-37" transform="translate(72.787654 0) scale(0.996264)"/>
       <use xlink:href="#CMR17-35" transform="translate(118.478131 0) scale(0.996264)"/>
      </g>
     </g>
    </g>
    <g id="xtick_9">
     <g id="line2d_16">
      <g>
       <use xlink:href="#mb855303d1b" x="472.987002" y="238.496228" style="stroke: #000000; stroke-width: 0.8"/>
      </g>
     </g>
     <g id="text_15">
      <!-- $\mathdefault{2.00}$ -->
      <g transform="translate(461.714577 254.490256) scale(0.13 -0.13)">
       <use xlink:href="#CMR17-32" transform="scale(0.996264)"/>
       <use xlink:href="#CMMI12-3a" transform="translate(45.690477 0) scale(0.996264)"/>
       <use xlink:href="#CMR17-30" transform="translate(72.787654 0) scale(0.996264)"/>
       <use xlink:href="#CMR17-30" transform="translate(118.478131 0) scale(0.996264)"/>
      </g>
     </g>
    </g>
    <g id="text_16">
     <!-- time (sec) -->
     <g transform="translate(255.943436 270.722142) scale(0.13 -0.13)">
      <defs>
       <path id="CMR17-63" d="M 2234 2240 
C 2112 2240 1933 2240 1933 2017 
C 1933 1838 2080 1787 2163 1787 
C 2208 1787 2394 1807 2394 2024 
C 2394 2467 1958 2803 1466 2803 
C 787 2803 211 2178 211 1363 
C 211 516 813 -64 1466 -64 
C 2259 -64 2458 677 2458 748 
C 2458 774 2451 793 2406 793 
C 2362 793 2355 787 2330 703 
C 2163 180 1798 51 1523 51 
C 1114 51 621 427 621 1369 
C 621 2338 1094 2688 1472 2688 
C 1722 2688 2093 2573 2234 2240 
z
" transform="scale(0.015625)"/>
      </defs>
      <use xlink:href="#CMR17-74" transform="scale(0.996264)"/>
      <use xlink:href="#CMR17-69" transform="translate(35.280768 0) scale(0.996264)"/>
      <use xlink:href="#CMR17-6d" transform="translate(60.151826 0) scale(0.996264)"/>
      <use xlink:href="#CMR17-65" transform="translate(137.071416 0) scale(0.996264)"/>
      <use xlink:href="#CMR17-28" transform="translate(207.633043 0) scale(0.996264)"/>
      <use xlink:href="#CMR17-73" transform="translate(242.913811 0) scale(0.996264)"/>
      <use xlink:href="#CMR17-65" transform="translate(278.715148 0) scale(0.996264)"/>
      <use xlink:href="#CMR17-63" transform="translate(319.200809 0) scale(0.996264)"/>
      <use xlink:href="#CMR17-29" transform="translate(359.686469 0) scale(0.996264)"/>
     </g>
    </g>
   </g>
   <g id="matplotlib.axis_4">
    <g id="ytick_4">
     <g id="line2d_17">
      <g>
       <use xlink:href="#m0815e62feb" x="76.950393" y="210.373166" style="stroke: #000000; stroke-width: 0.8"/>
      </g>
     </g>
     <g id="text_17">
      <!-- $\mathdefault{−0.025}$ -->
      <g transform="translate(30.991432 214.87018) scale(0.13 -0.13)">
       <use xlink:href="#CMSY10-0" transform="scale(0.996264)"/>
       <use xlink:href="#CMR17-30" transform="translate(77.487468 0) scale(0.996264)"/>
       <use xlink:href="#CMMI12-3a" transform="translate(123.177945 0) scale(0.996264)"/>
       <use xlink:href="#CMR17-30" transform="translate(150.275122 0) scale(0.996264)"/>
       <use xlink:href="#CMR17-32" transform="translate(195.965599 0) scale(0.996264)"/>
       <use xlink:href="#CMR17-35" transform="translate(241.656076 0) scale(0.996264)"/>
      </g>
     </g>
    </g>
    <g id="ytick_5">
     <g id="line2d_18">
      <g>
       <use xlink:href="#m0815e62feb" x="76.950393" y="180.39761" style="stroke: #000000; stroke-width: 0.8"/>
      </g>
     </g>
     <g id="text_18">
      <!-- $\mathdefault{0.000}$ -->
      <g transform="translate(41.064802 184.894624) scale(0.13 -0.13)">
       <use xlink:href="#CMR17-30" transform="scale(0.996264)"/>
       <use xlink:href="#CMMI12-3a" transform="translate(45.690477 0) scale(0.996264)"/>
       <use xlink:href="#CMR17-30" transform="translate(72.787654 0) scale(0.996264)"/>
       <use xlink:href="#CMR17-30" transform="translate(118.478131 0) scale(0.996264)"/>
       <use xlink:href="#CMR17-30" transform="translate(164.168608 0) scale(0.996264)"/>
      </g>
     </g>
    </g>
    <g id="ytick_6">
     <g id="line2d_19">
      <g>
       <use xlink:href="#m0815e62feb" x="76.950393" y="150.422054" style="stroke: #000000; stroke-width: 0.8"/>
      </g>
     </g>
     <g id="text_19">
      <!-- $\mathdefault{0.025}$ -->
      <g transform="translate(41.064802 154.919068) scale(0.13 -0.13)">
       <use xlink:href="#CMR17-30" transform="scale(0.996264)"/>
       <use xlink:href="#CMMI12-3a" transform="translate(45.690477 0) scale(0.996264)"/>
       <use xlink:href="#CMR17-30" transform="translate(72.787654 0) scale(0.996264)"/>
       <use xlink:href="#CMR17-32" transform="translate(118.478131 0) scale(0.996264)"/>
       <use xlink:href="#CMR17-35" transform="translate(164.168608 0) scale(0.996264)"/>
      </g>
     </g>
    </g>
    <g id="text_20">
     <!-- $x_2$ (m) -->
     <g transform="translate(23.753574 200.893092) rotate(-90) scale(0.13 -0.13)">
      <use xlink:href="#CMMI12-78" transform="scale(0.996264)"/>
      <use xlink:href="#CMR17-32" transform="translate(55.43406 -14.943915) scale(0.697382)"/>
      <use xlink:href="#CMR17-28" transform="translate(117.99134 0) scale(0.996264)"/>
      <use xlink:href="#CMR17-6d" transform="translate(153.272108 0) scale(0.996264)"/>
      <use xlink:href="#CMR17-29" transform="translate(230.191698 0) scale(0.996264)"/>
     </g>
    </g>
   </g>
   <g id="line2d_20">
    <path d="M 95.809279 183.619282 
L 97.695168 174.090706 
L 99.581056 165.951832 
L 101.466945 159.703597 
L 103.352833 155.681138 
L 105.238722 154.031318 
L 107.124611 154.705337 
L 109.010499 157.466863 
L 110.896388 161.914963 
L 112.782277 167.519897 
L 116.554054 179.718074 
L 118.439942 185.046769 
L 120.325831 189.109223 
L 122.21172 191.480242 
L 124.097608 191.890742 
L 125.983497 190.250525 
L 127.869385 186.656448 
L 129.755274 181.385342 
L 131.641163 174.872241 
L 135.41294 160.432509 
L 137.298829 153.806713 
L 139.184717 148.434761 
L 141.070606 144.873334 
L 142.956494 143.552684 
L 144.842383 144.739615 
L 146.728272 148.513021 
L 148.61416 154.753963 
L 150.500049 163.151122 
L 152.385937 173.221282 
L 158.043603 206.845682 
L 159.929492 216.731567 
L 161.815381 224.791202 
L 163.701269 230.475134 
L 165.587158 233.39495 
L 167.473046 233.352198 
L 169.358935 230.353031 
L 171.244824 224.607458 
L 173.130712 216.51329 
L 175.016601 206.626037 
L 182.560155 163.229534 
L 184.446044 154.940437 
L 186.331933 148.794634 
L 188.217821 145.089409 
L 190.10371 143.93176 
L 191.989598 145.234454 
L 193.875487 148.727157 
L 195.761376 153.981647 
L 197.647264 160.44904 
L 201.419042 174.506252 
L 203.30493 180.83331 
L 205.190819 185.950202 
L 207.076707 189.442323 
L 208.962596 191.050027 
L 210.848485 190.688422 
L 212.734373 188.452846 
L 214.620262 184.609647 
L 216.50615 179.57303 
L 220.277928 168.095305 
L 222.163816 162.862665 
L 224.049705 158.751766 
L 225.935594 156.259659 
L 227.821482 155.75781 
L 229.707371 157.45912 
L 231.593259 161.397453 
L 233.479148 167.421346 
L 235.365037 175.20246 
L 237.250925 184.258173 
L 241.022703 203.711368 
L 242.908591 212.73264 
L 244.79448 220.380507 
L 246.680368 226.066534 
L 248.566257 229.329481 
L 250.452146 229.871638 
L 252.338034 227.582925 
L 254.223923 222.550877 
L 256.109811 215.055707 
L 257.9957 205.550819 
L 259.881589 194.630234 
L 263.653366 171.355002 
L 265.539255 160.470671 
L 267.425143 151.004339 
L 269.311032 143.51967 
L 271.19692 138.43222 
L 273.082809 135.98101 
L 274.968698 136.213688 
L 276.854586 138.986317 
L 278.740475 143.977724 
L 280.626363 150.717196 
L 282.512252 158.62328 
L 286.284029 175.341013 
L 288.169918 182.874993 
L 290.055807 189.119388 
L 291.941695 193.667672 
L 293.827584 196.269692 
L 295.713472 196.848597 
L 297.599361 195.503721 
L 299.48525 192.499267 
L 301.371138 188.23979 
L 307.028804 173.277707 
L 308.914693 169.452069 
L 310.800581 167.036293 
L 312.68647 166.366711 
L 314.572359 167.626442 
L 316.458247 170.828242 
L 318.344136 175.811154 
L 320.230024 182.25124 
L 324.001802 197.547812 
L 325.88769 205.212001 
L 327.773579 212.042138 
L 329.659468 217.442647 
L 331.545356 220.906367 
L 333.431245 222.056094 
L 335.317133 220.676396 
L 337.203022 216.733194 
L 339.088911 210.379514 
L 340.974799 201.946902 
L 342.860688 191.923129 
L 348.518354 158.74176 
L 350.404242 148.978896 
L 352.290131 140.947739 
L 354.17602 135.146652 
L 356.061908 131.918892 
L 357.947797 131.42847 
L 359.833685 133.649546 
L 361.719574 138.370111 
L 363.605463 145.209634 
L 365.491351 153.64924 
L 371.149017 182.196878 
L 373.034906 190.613628 
L 374.920794 197.538552 
L 376.806683 202.582568 
L 378.692572 205.51641 
L 380.57846 206.284566 
L 382.464349 205.005408 
L 384.350237 201.957626 
L 386.236126 197.55414 
L 391.893792 181.538209 
L 393.779681 177.119137 
L 395.665569 173.962924 
L 397.551458 172.390437 
L 399.437346 172.573379 
L 401.323235 174.519928 
L 403.209124 178.073785 
L 405.095012 182.926694 
L 408.866789 194.69733 
L 410.752678 200.513328 
L 412.638567 205.515441 
L 414.524455 209.17457 
L 416.410344 211.05302 
L 418.296233 210.842133 
L 420.182121 208.390016 
L 422.06801 203.717132 
L 423.953898 197.018461 
L 425.839787 188.651986 
L 429.611564 169.005446 
L 431.497453 158.984846 
L 433.383341 149.723065 
L 435.26923 141.851761 
L 437.155119 135.916493 
L 439.041007 132.335749 
L 440.926896 131.369392 
L 442.812785 133.098957 
L 444.698673 137.421316 
L 446.584562 144.056175 
L 448.47045 152.566838 
L 450.356339 162.392607 
L 454.128116 183.381869 
L 456.014005 193.203865 
L 457.899894 201.755954 
L 459.785782 208.543766 
L 461.671671 213.213439 
L 463.557559 215.575051 
L 465.443448 215.613254 
L 467.329337 213.48438 
L 469.215225 209.500368 
L 471.101114 204.100857 
L 471.101114 204.100857 
" clip-path="url(#pf0d8fdd767)" style="fill: none; stroke: #0000ff; stroke-linecap: square"/>
   </g>
   <g id="line2d_21">
    <path d="M 95.809279 198.374887 
L 101.466945 164.322655 
L 107.124611 165.881384 
L 112.782277 189.502122 
L 118.439942 189.502122 
L 124.097608 183.746816 
L 129.755274 171.636691 
L 135.41294 139.862601 
L 141.070606 157.008619 
L 146.728272 164.322655 
L 152.385937 178.111411 
L 156.157715 203.290878 
L 161.815381 226.911617 
L 167.473046 223.554354 
L 173.130712 203.290878 
L 178.788378 189.502122 
L 184.446044 165.881384 
L 190.10371 155.329988 
L 195.761376 173.19542 
L 201.419042 182.188087 
L 207.076707 186.984176 
L 212.734373 189.502122 
L 216.50615 169.95806 
L 222.163816 164.322655 
L 227.821482 171.636691 
L 233.479148 191.060851 
L 239.136814 201.612247 
L 244.79448 221.15631 
L 250.452146 230.86839 
L 256.109811 217.91895 
L 261.767477 178.111411 
L 267.425143 155.329988 
L 273.082809 169.118744 
L 278.740475 146.337321 
L 284.398141 171.636691 
L 290.055807 191.060851 
L 295.713472 192.739482 
L 299.48525 191.060851 
L 305.142915 186.264762 
L 310.800581 186.984176 
L 316.458247 182.188087 
L 322.115913 203.290878 
L 327.773579 207.367554 
L 333.431245 218.758265 
L 339.088911 208.926283 
L 342.860688 189.502122 
L 348.518354 167.560015 
L 354.17602 163.48334 
L 359.833685 137.464557 
L 365.491351 162.644024 
L 371.149017 183.746816 
L 376.806683 203.290878 
L 382.464349 203.290878 
L 388.122015 201.612247 
L 393.779681 194.298211 
L 397.551458 197.535571 
L 403.209124 182.188087 
L 414.524455 204.969509 
L 420.182121 198.374887 
L 425.839787 186.264762 
L 431.497453 162.644024 
L 437.155119 148.855268 
L 442.812785 140.701917 
L 446.584562 155.329988 
L 452.242228 173.19542 
L 457.899894 206.528238 
L 463.557559 206.528238 
L 469.215225 207.367554 
L 474.872891 204.130194 
L 480.530557 186.984176 
L 486.188223 191.900167 
L 491.845889 180.509455 
L 497.503554 195.976843 
L 503.16122 191.060851 
L 505 189.89178 
L 505 189.89178 
" clip-path="url(#pf0d8fdd767)" style="fill: none; stroke-dasharray: 3.7,1.6; stroke-dashoffset: 0; stroke: #00008b"/>
   </g>
   <g id="patch_9">
    <path d="M 76.950393 238.496228 
L 76.950393 126.268114 
" style="fill: none; stroke: #000000; stroke-width: 0.8; stroke-linejoin: miter; stroke-linecap: square"/>
   </g>
   <g id="patch_10">
    <path d="M 489.96 238.496228 
L 489.96 126.268114 
" style="fill: none; stroke: #000000; stroke-width: 0.8; stroke-linejoin: miter; stroke-linecap: square"/>
   </g>
   <g id="patch_11">
    <path d="M 76.950393 238.496228 
L 489.96 238.496228 
" style="fill: none; stroke: #000000; stroke-width: 0.8; stroke-linejoin: miter; stroke-linecap: square"/>
   </g>
   <g id="patch_12">
    <path d="M 76.950393 126.268114 
L 489.96 126.268114 
" style="fill: none; stroke: #000000; stroke-width: 0.8; stroke-linejoin: miter; stroke-linecap: square"/>
   </g>
   <g id="legend_2">
    <g id="patch_13">
     <path d="M 362.405139 172.904738 
L 480.86 172.904738 
Q 483.46 172.904738 483.46 170.304738 
L 483.46 135.368114 
Q 483.46 132.768114 480.86 132.768114 
L 362.405139 132.768114 
Q 359.805139 132.768114 359.805139 135.368114 
L 359.805139 170.304738 
Q 359.805139 172.904738 362.405139 172.904738 
z
" style="fill: #ffffff; opacity: 0.8; stroke: #cccccc; stroke-linejoin: miter"/>
    </g>
    <g id="line2d_22">
     <path d="M 365.005139 142.518114 
L 378.005139 142.518114 
L 391.005139 142.518114 
" style="fill: none; stroke: #0000ff; stroke-linecap: square"/>
    </g>
    <g id="text_21">
     <!-- MCMC result -->
     <g transform="translate(401.405139 147.068114) scale(0.13 -0.13)">
      <use xlink:href="#CMR17-4d" transform="scale(0.996264)"/>
      <use xlink:href="#CMR17-43" transform="translate(84.686941 0) scale(0.996264)"/>
      <use xlink:href="#CMR17-4d" transform="translate(151.196821 0) scale(0.996264)"/>
      <use xlink:href="#CMR17-43" transform="translate(235.883762 0) scale(0.996264)"/>
      <use xlink:href="#CMR17-72" transform="translate(332.469609 0) scale(0.996264)"/>
      <use xlink:href="#CMR17-65" transform="translate(367.750376 0) scale(0.996264)"/>
      <use xlink:href="#CMR17-73" transform="translate(408.236037 0) scale(0.996264)"/>
      <use xlink:href="#CMR17-75" transform="translate(444.037374 0) scale(0.996264)"/>
      <use xlink:href="#CMR17-6c" transform="translate(494.932744 0) scale(0.996264)"/>
      <use xlink:href="#CMR17-74" transform="translate(519.803803 0) scale(0.996264)"/>
     </g>
    </g>
    <g id="line2d_23">
     <path d="M 365.005139 160.636426 
L 378.005139 160.636426 
L 391.005139 160.636426 
" style="fill: none; stroke-dasharray: 3.7,1.6; stroke-dashoffset: 0; stroke: #00008b"/>
    </g>
    <g id="text_22">
     <!-- Experiment -->
     <g transform="translate(401.405139 165.186426) scale(0.13 -0.13)">
      <use xlink:href="#CMR17-45" transform="scale(0.996264)"/>
      <use xlink:href="#CMR17-78" transform="translate(62.586301 0) scale(0.996264)"/>
      <use xlink:href="#CMR17-70" transform="translate(110.879216 0) scale(0.996264)"/>
      <use xlink:href="#CMR17-65" transform="translate(164.377025 0) scale(0.996264)"/>
      <use xlink:href="#CMR17-72" transform="translate(204.862685 0) scale(0.996264)"/>
      <use xlink:href="#CMR17-69" transform="translate(240.143453 0) scale(0.996264)"/>
      <use xlink:href="#CMR17-6d" transform="translate(265.014512 0) scale(0.996264)"/>
      <use xlink:href="#CMR17-65" transform="translate(341.934101 0) scale(0.996264)"/>
      <use xlink:href="#CMR17-6e" transform="translate(382.419762 0) scale(0.996264)"/>
      <use xlink:href="#CMR17-74" transform="translate(430.712678 0) scale(0.996264)"/>
     </g>
    </g>
   </g>
  </g>
 </g>
 <defs>
  <clipPath id="p3c3b1230fc">
   <rect x="76.950393" y="14.04" width="413.009607" height="112.228114"/>
  </clipPath>
  <clipPath id="pf0d8fdd767">
   <rect x="76.950393" y="126.268114" width="413.009607" height="112.228114"/>
  </clipPath>
 </defs>
</svg>
