<?xml version="1.0" encoding="utf-8" standalone="no"?>
<!DOCTYPE svg PUBLIC "-//W3C//DTD SVG 1.1//EN"
  "http://www.w3.org/Graphics/SVG/1.1/DTD/svg11.dtd">
<svg xmlns:xlink="http://www.w3.org/1999/xlink" width="864pt" height="288pt" viewBox="0 0 864 288" xmlns="http://www.w3.org/2000/svg" version="1.1">
 <metadata>
  <rdf:RDF xmlns:dc="http://purl.org/dc/elements/1.1/" xmlns:cc="http://creativecommons.org/ns#" xmlns:rdf="http://www.w3.org/1999/02/22-rdf-syntax-ns#">
   <cc:Work>
    <dc:type rdf:resource="http://purl.org/dc/dcmitype/StillImage"/>
    <dc:date>2023-08-15T15:09:23.762310</dc:date>
    <dc:format>image/svg+xml</dc:format>
    <dc:creator>
     <cc:Agent>
      <dc:title>Matplotlib v3.7.1, https://matplotlib.org/</dc:title>
     </cc:Agent>
    </dc:creator>
   </cc:Work>
  </rdf:RDF>
 </metadata>
 <defs>
  <style type="text/css">*{stroke-linejoin: round; stroke-linecap: butt}</style>
 </defs>
 <g id="figure_1">
  <g id="patch_1">
   <path d="M 0 288 
L 864 288 
L 864 0 
L 0 0 
L 0 288 
z
" style="fill: none"/>
  </g>
  <g id="axes_1">
   <g id="patch_2">
    <path d="M 70.609653 257.008568 
L 849.96 257.008568 
L 849.96 14.04 
L 70.609653 14.04 
z
" style="fill: #ffffff"/>
   </g>
   <g id="matplotlib.axis_1">
    <g id="text_1">
     <!-- time (sec) -->
     <g transform="translate(432.773067 270.722142) scale(0.13 -0.13)">
      <defs>
       <path id="CMR17-74" d="M 966 2560 
L 1862 2560 
L 1862 2725 
L 966 2725 
L 966 3904 
L 851 3904 
C 838 3245 614 2668 70 2668 
L 70 2560 
L 627 2560 
L 627 771 
C 627 650 627 -64 1370 -64 
C 1747 -64 1965 306 1965 777 
L 1965 1140 
L 1850 1140 
L 1850 783 
C 1850 344 1677 51 1408 51 
C 1222 51 966 178 966 758 
L 966 2560 
z
" transform="scale(0.015625)"/>
       <path id="CMR17-69" d="M 992 3909 
C 992 4049 877 4170 730 4170 
C 589 4170 467 4056 467 3909 
C 467 3769 582 3648 730 3648 
C 870 3648 992 3763 992 3909 
z
M 243 2706 
L 243 2541 
C 602 2541 653 2502 653 2197 
L 653 427 
C 653 184 627 153 218 153 
L 218 -13 
C 371 0 646 0 806 0 
C 960 0 1222 0 1370 -13 
L 1370 153 
C 992 153 979 191 979 420 
L 979 2776 
L 243 2706 
z
" transform="scale(0.015625)"/>
       <path id="CMR17-6d" d="M 4326 1933 
C 4326 2252 4269 2790 3507 2790 
C 3072 2790 2771 2496 2656 2151 
L 2650 2151 
C 2573 2676 2195 2790 1837 2790 
C 1331 2790 1069 2400 973 2144 
L 966 2144 
L 966 2790 
L 211 2720 
L 211 2554 
C 589 2554 646 2515 646 2208 
L 646 428 
C 646 184 621 153 211 153 
L 211 -13 
C 365 0 646 0 813 0 
C 979 0 1267 0 1421 -13 
L 1421 153 
C 1011 153 986 178 986 428 
L 986 1658 
C 986 2247 1344 2688 1792 2688 
C 2266 2688 2317 2266 2317 1958 
L 2317 428 
C 2317 184 2291 153 1882 153 
L 1882 -13 
C 2035 0 2317 0 2483 0 
C 2650 0 2938 0 3091 -13 
L 3091 153 
C 2682 153 2656 178 2656 428 
L 2656 1658 
C 2656 2247 3014 2688 3462 2688 
C 3936 2688 3987 2266 3987 1958 
L 3987 428 
C 3987 184 3962 153 3552 153 
L 3552 -13 
C 3706 0 3987 0 4154 0 
C 4320 0 4608 0 4762 -13 
L 4762 153 
C 4352 153 4326 178 4326 428 
L 4326 1933 
z
" transform="scale(0.015625)"/>
       <path id="CMR17-65" d="M 2438 1472 
C 2464 1498 2464 1511 2464 1576 
C 2464 2238 2118 2816 1389 2816 
C 710 2816 173 2169 173 1383 
C 173 551 781 -64 1459 -64 
C 2176 -64 2458 607 2458 740 
C 2458 784 2419 784 2406 784 
C 2362 784 2355 771 2330 696 
C 2189 265 1837 51 1504 51 
C 1229 51 954 203 781 480 
C 582 803 582 1176 582 1472 
L 2438 1472 
z
M 589 1568 
C 634 2505 1126 2714 1382 2714 
C 1818 2714 2112 2297 2118 1568 
L 589 1568 
z
" transform="scale(0.015625)"/>
       <path id="CMR17-28" d="M 1958 -1561 
C 1958 -1555 1958 -1542 1939 -1523 
C 1645 -1224 858 -407 858 1581 
C 858 3569 1632 4379 1946 4697 
C 1946 4704 1958 4717 1958 4736 
C 1958 4755 1939 4768 1914 4768 
C 1843 4768 1299 4296 986 3594 
C 666 2887 576 2199 576 1588 
C 576 1128 621 351 1005 -471 
C 1312 -1135 1837 -1600 1914 -1600 
C 1946 -1600 1958 -1587 1958 -1561 
z
" transform="scale(0.015625)"/>
       <path id="CMR17-73" d="M 1978 2697 
C 1978 2813 1971 2819 1933 2819 
C 1907 2819 1901 2813 1824 2717 
C 1805 2691 1747 2626 1728 2601 
C 1523 2819 1235 2819 1126 2819 
C 416 2819 160 2447 160 2076 
C 160 1498 813 1365 998 1325 
C 1402 1243 1542 1217 1677 1101 
C 1760 1025 1901 884 1901 654 
C 1901 384 1747 38 1158 38 
C 602 38 403 460 288 1021 
C 269 1110 269 1117 218 1117 
C 166 1117 160 1110 160 983 
L 160 63 
C 160 -51 166 -58 205 -58 
C 237 -58 243 -51 275 0 
C 314 57 410 211 448 276 
C 576 103 800 -64 1158 -64 
C 1792 -64 2131 283 2131 784 
C 2131 1112 1958 1285 1875 1362 
C 1683 1561 1459 1606 1190 1657 
C 838 1735 390 1825 390 2217 
C 390 2383 480 2737 1126 2737 
C 1811 2737 1850 2094 1862 1888 
C 1869 1856 1901 1849 1920 1849 
C 1978 1849 1978 1869 1978 1978 
L 1978 2697 
z
" transform="scale(0.015625)"/>
       <path id="CMR17-63" d="M 2234 2240 
C 2112 2240 1933 2240 1933 2017 
C 1933 1838 2080 1787 2163 1787 
C 2208 1787 2394 1807 2394 2024 
C 2394 2467 1958 2803 1466 2803 
C 787 2803 211 2178 211 1363 
C 211 516 813 -64 1466 -64 
C 2259 -64 2458 677 2458 748 
C 2458 774 2451 793 2406 793 
C 2362 793 2355 787 2330 703 
C 2163 180 1798 51 1523 51 
C 1114 51 621 427 621 1369 
C 621 2338 1094 2688 1472 2688 
C 1722 2688 2093 2573 2234 2240 
z
" transform="scale(0.015625)"/>
       <path id="CMR17-29" d="M 1683 1581 
C 1683 2040 1638 2817 1254 3639 
C 947 4303 422 4768 346 4768 
C 326 4768 301 4761 301 4729 
C 301 4717 307 4710 314 4697 
C 621 4378 1402 3568 1402 1584 
C 1402 -407 627 -1217 314 -1537 
C 307 -1549 301 -1556 301 -1568 
C 301 -1600 326 -1600 346 -1600 
C 416 -1600 960 -1128 1274 -426 
C 1594 281 1683 969 1683 1581 
z
" transform="scale(0.015625)"/>
      </defs>
      <use xlink:href="#CMR17-74" transform="scale(0.996264)"/>
      <use xlink:href="#CMR17-69" transform="translate(35.280768 0) scale(0.996264)"/>
      <use xlink:href="#CMR17-6d" transform="translate(60.151826 0) scale(0.996264)"/>
      <use xlink:href="#CMR17-65" transform="translate(137.071416 0) scale(0.996264)"/>
      <use xlink:href="#CMR17-28" transform="translate(207.633043 0) scale(0.996264)"/>
      <use xlink:href="#CMR17-73" transform="translate(242.913811 0) scale(0.996264)"/>
      <use xlink:href="#CMR17-65" transform="translate(278.715148 0) scale(0.996264)"/>
      <use xlink:href="#CMR17-63" transform="translate(319.200809 0) scale(0.996264)"/>
      <use xlink:href="#CMR17-29" transform="translate(359.686469 0) scale(0.996264)"/>
     </g>
    </g>
   </g>
   <g id="matplotlib.axis_2">
    <g id="ytick_1">
     <g id="line2d_1">
      <defs>
       <path id="m5d2b16654a" d="M 0 0 
L -3.5 0 
" style="stroke: #000000; stroke-width: 0.8"/>
      </defs>
      <g>
       <use xlink:href="#m5d2b16654a" x="70.609653" y="235.503096" style="stroke: #000000; stroke-width: 0.8"/>
      </g>
     </g>
     <g id="text_2">
      <!-- $\mathdefault{−0.04}$ -->
      <g transform="translate(30.991432 240.00011) scale(0.13 -0.13)">
       <defs>
        <path id="CMSY10-0" d="M 4218 1472 
C 4326 1472 4442 1472 4442 1600 
C 4442 1728 4326 1728 4218 1728 
L 755 1728 
C 646 1728 531 1728 531 1600 
C 531 1472 646 1472 755 1472 
L 4218 1472 
z
" transform="scale(0.015625)"/>
        <path id="CMR17-30" d="M 2688 2025 
C 2688 2416 2682 3080 2413 3591 
C 2176 4039 1798 4198 1466 4198 
C 1158 4198 768 4058 525 3597 
C 269 3118 243 2524 243 2025 
C 243 1661 250 1106 448 619 
C 723 -39 1216 -128 1466 -128 
C 1760 -128 2208 -7 2470 600 
C 2662 1042 2688 1559 2688 2025 
z
M 1466 -26 
C 1056 -26 813 325 723 812 
C 653 1188 653 1738 653 2096 
C 653 2588 653 2997 736 3387 
C 858 3929 1216 4096 1466 4096 
C 1728 4096 2067 3923 2189 3400 
C 2272 3036 2278 2607 2278 2096 
C 2278 1680 2278 1169 2202 792 
C 2067 95 1690 -26 1466 -26 
z
" transform="scale(0.015625)"/>
        <path id="CMMI12-3a" d="M 1178 307 
C 1178 492 1024 619 870 619 
C 685 619 557 466 557 313 
C 557 128 710 0 864 0 
C 1050 0 1178 153 1178 307 
z
" transform="scale(0.015625)"/>
        <path id="CMR17-34" d="M 2150 4122 
C 2150 4256 2144 4256 2029 4256 
L 128 1254 
L 128 1088 
L 1779 1088 
L 1779 457 
C 1779 224 1766 160 1318 160 
L 1197 160 
L 1197 0 
C 1402 0 1747 0 1965 0 
C 2182 0 2528 0 2733 0 
L 2733 160 
L 2611 160 
C 2163 160 2150 224 2150 457 
L 2150 1088 
L 2803 1088 
L 2803 1254 
L 2150 1254 
L 2150 4122 
z
M 1798 3703 
L 1798 1254 
L 256 1254 
L 1798 3703 
z
" transform="scale(0.015625)"/>
       </defs>
       <use xlink:href="#CMSY10-0" transform="scale(0.996264)"/>
       <use xlink:href="#CMR17-30" transform="translate(77.487468 0) scale(0.996264)"/>
       <use xlink:href="#CMMI12-3a" transform="translate(123.177945 0) scale(0.996264)"/>
       <use xlink:href="#CMR17-30" transform="translate(150.275122 0) scale(0.996264)"/>
       <use xlink:href="#CMR17-34" transform="translate(195.965599 0) scale(0.996264)"/>
      </g>
     </g>
    </g>
    <g id="ytick_2">
     <g id="line2d_2">
      <g>
       <use xlink:href="#m5d2b16654a" x="70.609653" y="185.692187" style="stroke: #000000; stroke-width: 0.8"/>
      </g>
     </g>
     <g id="text_3">
      <!-- $\mathdefault{−0.02}$ -->
      <g transform="translate(30.991432 190.189201) scale(0.13 -0.13)">
       <defs>
        <path id="CMR17-32" d="M 2669 989 
L 2554 989 
C 2490 536 2438 459 2413 420 
C 2381 369 1920 369 1830 369 
L 602 369 
C 832 619 1280 1072 1824 1597 
C 2214 1967 2669 2402 2669 3035 
C 2669 3790 2067 4224 1395 4224 
C 691 4224 262 3604 262 3030 
C 262 2780 448 2748 525 2748 
C 589 2748 781 2787 781 3010 
C 781 3207 614 3264 525 3264 
C 486 3264 448 3258 422 3245 
C 544 3790 915 4058 1306 4058 
C 1862 4058 2227 3617 2227 3035 
C 2227 2479 1901 2000 1536 1584 
L 262 146 
L 262 0 
L 2515 0 
L 2669 989 
z
" transform="scale(0.015625)"/>
       </defs>
       <use xlink:href="#CMSY10-0" transform="scale(0.996264)"/>
       <use xlink:href="#CMR17-30" transform="translate(77.487468 0) scale(0.996264)"/>
       <use xlink:href="#CMMI12-3a" transform="translate(123.177945 0) scale(0.996264)"/>
       <use xlink:href="#CMR17-30" transform="translate(150.275122 0) scale(0.996264)"/>
       <use xlink:href="#CMR17-32" transform="translate(195.965599 0) scale(0.996264)"/>
      </g>
     </g>
    </g>
    <g id="ytick_3">
     <g id="line2d_3">
      <g>
       <use xlink:href="#m5d2b16654a" x="70.609653" y="135.881279" style="stroke: #000000; stroke-width: 0.8"/>
      </g>
     </g>
     <g id="text_4">
      <!-- $\mathdefault{0.00}$ -->
      <g transform="translate(41.064802 140.378293) scale(0.13 -0.13)">
       <use xlink:href="#CMR17-30" transform="scale(0.996264)"/>
       <use xlink:href="#CMMI12-3a" transform="translate(45.690477 0) scale(0.996264)"/>
       <use xlink:href="#CMR17-30" transform="translate(72.787654 0) scale(0.996264)"/>
       <use xlink:href="#CMR17-30" transform="translate(118.478131 0) scale(0.996264)"/>
      </g>
     </g>
    </g>
    <g id="ytick_4">
     <g id="line2d_4">
      <g>
       <use xlink:href="#m5d2b16654a" x="70.609653" y="86.07037" style="stroke: #000000; stroke-width: 0.8"/>
      </g>
     </g>
     <g id="text_5">
      <!-- $\mathdefault{0.02}$ -->
      <g transform="translate(41.064802 90.567384) scale(0.13 -0.13)">
       <use xlink:href="#CMR17-30" transform="scale(0.996264)"/>
       <use xlink:href="#CMMI12-3a" transform="translate(45.690477 0) scale(0.996264)"/>
       <use xlink:href="#CMR17-30" transform="translate(72.787654 0) scale(0.996264)"/>
       <use xlink:href="#CMR17-32" transform="translate(118.478131 0) scale(0.996264)"/>
      </g>
     </g>
    </g>
    <g id="ytick_5">
     <g id="line2d_5">
      <g>
       <use xlink:href="#m5d2b16654a" x="70.609653" y="36.259462" style="stroke: #000000; stroke-width: 0.8"/>
      </g>
     </g>
     <g id="text_6">
      <!-- $\mathdefault{0.04}$ -->
      <g transform="translate(41.064802 40.756476) scale(0.13 -0.13)">
       <use xlink:href="#CMR17-30" transform="scale(0.996264)"/>
       <use xlink:href="#CMMI12-3a" transform="translate(45.690477 0) scale(0.996264)"/>
       <use xlink:href="#CMR17-30" transform="translate(72.787654 0) scale(0.996264)"/>
       <use xlink:href="#CMR17-34" transform="translate(118.478131 0) scale(0.996264)"/>
      </g>
     </g>
    </g>
    <g id="text_7">
     <!-- $x_2$ (m) -->
     <g transform="translate(23.753574 154.035206) rotate(-90) scale(0.13 -0.13)">
      <defs>
       <path id="CMMI12-78" d="M 3034 2606 
C 2829 2567 2752 2414 2752 2293 
C 2752 2139 2874 2088 2963 2088 
C 3155 2088 3290 2254 3290 2427 
C 3290 2695 2982 2816 2714 2816 
C 2323 2816 2106 2433 2048 2312 
C 1901 2816 1504 2816 1389 2816 
C 736 2816 390 1980 390 1839 
C 390 1814 416 1782 461 1782 
C 512 1782 525 1820 538 1846 
C 755 2555 1184 2689 1370 2689 
C 1658 2689 1715 2420 1715 2267 
C 1715 2127 1677 1980 1600 1673 
L 1382 798 
C 1286 415 1101 64 762 64 
C 730 64 570 64 435 147 
C 666 192 717 383 717 460 
C 717 588 621 664 499 664 
C 346 664 179 530 179 326 
C 179 57 480 -64 755 -64 
C 1062 -64 1280 179 1414 441 
C 1517 64 1837 -64 2074 -64 
C 2726 -64 3072 773 3072 913 
C 3072 945 3046 971 3008 971 
C 2950 971 2944 939 2925 888 
C 2752 326 2381 64 2093 64 
C 1869 64 1747 230 1747 492 
C 1747 632 1773 734 1875 1156 
L 2099 2024 
C 2195 2408 2413 2689 2707 2689 
C 2720 2689 2899 2689 3034 2606 
z
" transform="scale(0.015625)"/>
      </defs>
      <use xlink:href="#CMMI12-78" transform="scale(0.996264)"/>
      <use xlink:href="#CMR17-32" transform="translate(55.43406 -14.943915) scale(0.697382)"/>
      <use xlink:href="#CMR17-28" transform="translate(117.99134 0) scale(0.996264)"/>
      <use xlink:href="#CMR17-6d" transform="translate(153.272108 0) scale(0.996264)"/>
      <use xlink:href="#CMR17-29" transform="translate(230.191698 0) scale(0.996264)"/>
     </g>
    </g>
   </g>
   <g id="line2d_6">
    <path d="M 106.196427 214.698322 
L 109.755105 217.204529 
L 113.313782 216.291728 
L 116.872459 211.591774 
L 120.431137 202.975822 
L 123.989814 190.575628 
L 127.548491 174.785497 
L 131.107169 156.244449 
L 134.665846 135.799735 
L 141.783201 93.301675 
L 145.341878 73.454101 
L 148.900556 55.967513 
L 152.459233 41.770676 
L 156.017911 31.60271 
L 159.576588 25.963992 
L 163.135265 25.084026 
L 166.693943 28.908585 
L 170.25262 37.107024 
L 173.811297 49.099084 
L 177.369975 64.099047 
L 180.928652 81.173818 
L 188.046007 117.487858 
L 191.604684 134.747598 
L 195.163362 150.257855 
L 198.722039 163.366435 
L 202.280716 173.638583 
L 205.839394 180.877105 
L 209.398071 185.12354 
L 212.956749 186.640641 
L 216.515426 185.87789 
L 220.074103 183.423069 
L 223.632781 179.944021 
L 227.191458 176.125409 
L 230.750136 172.605721 
L 234.308813 169.919624 
L 237.86749 168.450366 
L 241.426168 168.396069 
L 244.984845 169.752603 
L 248.543522 172.314412 
L 252.1022 175.693186 
L 255.660877 179.352844 
L 259.219555 182.657954 
L 262.778232 184.931654 
L 266.336909 185.51833 
L 269.895587 183.845924 
L 273.454264 179.482745 
L 277.012942 172.184065 
L 280.571619 161.924579 
L 284.130296 148.913884 
L 287.688974 133.593486 
L 291.247651 116.615288 
L 298.365006 81.098793 
L 301.923683 64.500494 
L 305.482361 49.991691 
L 309.041038 38.472357 
L 312.599715 30.693833 
L 316.158393 27.20361 
L 319.71707 28.304065 
L 323.275747 34.028328 
L 326.834425 44.135154 
L 330.393102 58.123259 
L 333.95178 75.264061 
L 337.510457 94.650415 
L 348.186489 155.864952 
L 351.745167 173.856051 
L 355.303844 189.18032 
L 358.862521 201.234015 
L 362.421199 209.648565 
L 365.979876 214.305913 
L 369.538553 215.335063 
L 373.097231 213.090392 
L 376.655908 208.113721 
L 380.214586 201.083363 
L 383.773263 192.754341 
L 390.890618 175.222393 
L 394.449295 167.349568 
L 398.007972 160.735559 
L 401.56665 155.655266 
L 405.125327 152.183433 
L 408.684005 150.196541 
L 412.242682 149.391849 
L 415.801359 149.321889 
L 419.360037 149.441421 
L 422.918714 149.16291 
L 426.477392 147.915865 
L 430.036069 145.205088 
L 433.594746 140.662979 
L 437.153424 134.09148 
L 440.712101 125.490106 
L 444.270778 115.067579 
L 447.829456 103.235923 
L 454.946811 77.854907 
L 458.505488 65.861731 
L 462.064165 55.45959 
L 465.622843 47.464602 
L 469.18152 42.593229 
L 472.740198 41.404178 
L 476.298875 44.25071 
L 479.857552 51.247172 
L 483.41623 62.25248 
L 486.974907 76.872017 
L 490.533584 94.477967 
L 494.092262 114.246742 
L 504.768294 176.515808 
L 508.326971 194.78923 
L 511.885649 210.257784 
L 515.444326 222.216087 
L 519.003003 230.180397 
L 522.561681 233.915837 
L 526.120358 233.445608 
L 529.679036 229.04168 
L 533.237713 221.197912 
L 536.79639 210.58782 
L 540.355068 198.010412 
L 551.0311 157.0336 
L 554.589777 144.898243 
L 558.148455 134.512927 
L 561.707132 126.199696 
L 565.265809 120.073376 
L 568.824487 116.045207 
L 572.383164 113.843121 
L 575.941842 113.046776 
L 579.500519 113.134242 
L 583.059196 113.536388 
L 586.617874 113.69437 
L 590.176551 113.115447 
L 593.735228 111.422462 
L 597.293906 108.392884 
L 600.852583 103.984165 
L 604.411261 98.343227 
L 607.969938 91.79926 
L 615.087293 78.07522 
L 618.64597 72.184694 
L 622.204648 67.864038 
L 625.763325 65.76348 
L 629.322002 66.430066 
L 632.88068 70.256113 
L 636.439357 77.438405 
L 639.998034 87.951538 
L 643.556712 101.537759 
L 647.115389 117.714343 
L 650.674067 135.798214 
L 657.791421 174.207793 
L 661.350099 192.587405 
L 664.908776 209.11013 
L 668.467454 222.887546 
L 672.026131 233.177789 
L 675.584808 239.435736 
L 679.143486 241.349492 
L 682.702163 238.860515 
L 686.26084 232.165884 
L 689.819518 221.702635 
L 693.378195 208.115399 
L 696.936873 192.209847 
L 707.612905 139.815691 
L 711.171582 123.81488 
L 714.730259 109.819428 
L 718.288937 98.347327 
L 721.847614 89.708033 
L 725.406292 83.99206 
L 728.964969 81.077622 
L 732.523646 80.653487 
L 736.082324 82.255922 
L 739.641001 85.316538 
L 743.199679 89.217008 
L 746.758356 93.346151 
L 750.317033 97.154699 
L 753.875711 100.203326 
L 757.434388 102.200057 
L 760.993065 103.024091 
L 764.551743 102.73416 
L 768.11042 101.560816 
L 775.227775 98.193252 
L 778.786452 97.047311 
L 782.34513 97.014136 
L 785.903807 98.618599 
L 789.462485 102.288767 
L 793.021162 108.309749 
L 796.579839 116.788355 
L 800.138517 127.631625 
L 803.697194 140.541185 
L 807.255871 155.024161 
L 814.373226 185.941721 
L 814.373226 185.941721 
" clip-path="url(#p0977820521)" style="fill: none; stroke: #ff0000; stroke-linecap: square"/>
   </g>
   <g id="line2d_7">
    <path d="M 106.196427 215.285379 
L 116.872459 205.074143 
L 127.548491 173.195162 
L 138.224524 120.644654 
L 148.900556 73.573345 
L 159.576588 53.150873 
L 170.25262 65.105491 
L 180.928652 87.02229 
L 191.604684 139.323744 
L 202.280716 158.002835 
L 212.956749 147.791599 
L 220.074103 135.836981 
L 230.750136 135.836981 
L 241.426168 144.304835 
L 252.1022 161.240544 
L 262.778232 174.689489 
L 273.454264 178.176253 
L 284.130296 173.195162 
L 294.806328 113.920181 
L 305.482361 71.829963 
L 316.158393 51.407491 
L 326.834425 48.169782 
L 333.95178 100.471236 
L 344.627812 142.810508 
L 355.303844 169.708398 
L 365.979876 188.387489 
L 376.655908 178.176253 
L 387.33194 166.221635 
L 398.007972 141.067126 
L 408.684005 141.067126 
L 419.360037 147.791599 
L 430.036069 166.221635 
L 440.712101 144.304835 
L 451.388133 117.406944 
L 462.064165 83.535527 
L 472.740198 65.105491 
L 483.41623 70.086581 
L 490.533584 112.425854 
L 501.209617 149.53498 
L 511.885649 181.663016 
L 522.561681 206.817525 
L 533.237713 196.855343 
L 543.913745 166.221635 
L 554.589777 130.85589 
L 565.265809 124.131417 
L 572.383164 113.920181 
L 583.059196 132.599272 
L 593.735228 132.599272 
L 604.411261 130.85589 
L 615.087293 105.452326 
L 625.763325 87.02229 
L 636.439357 88.765672 
L 647.115389 110.682472 
L 657.791421 147.791599 
L 668.467454 178.176253 
L 675.584808 206.817525 
L 686.26084 208.560907 
L 696.936873 166.221635 
L 707.612905 135.836981 
L 718.288937 115.663563 
L 728.964969 87.02229 
L 739.641001 95.490145 
L 750.317033 120.644654 
L 760.993065 113.920181 
L 768.11042 135.836981 
L 778.786452 129.112508 
L 789.462485 112.425854 
L 800.138517 132.599272 
L 810.814549 137.580362 
L 821.490581 173.195162 
L 832.166613 196.855343 
L 842.842645 184.900725 
L 853.518677 174.689489 
L 864.19471 142.810508 
L 865 139.109642 
L 865 139.109642 
" clip-path="url(#p0977820521)" style="fill: none; stroke-dasharray: 3.7,1.6; stroke-dashoffset: 0; stroke: #8b0000"/>
   </g>
   <g id="line2d_8">
    <path d="M 106.196427 142.573164 
L 109.755105 122.780913 
L 113.313782 105.875275 
L 116.872459 92.896773 
L 120.431137 84.541533 
L 123.989814 81.114617 
L 127.548491 82.514652 
L 131.107169 88.250748 
L 134.665846 97.490104 
L 138.224524 109.132376 
L 145.341878 134.469783 
L 148.900556 145.538265 
L 152.459233 153.97658 
L 156.017911 158.901535 
L 159.576588 159.754204 
L 163.135265 156.347231 
L 166.693943 148.881805 
L 170.25262 137.932944 
L 173.811297 124.404275 
L 180.928652 94.410829 
L 184.48733 80.648079 
L 188.046007 69.489744 
L 191.604684 62.092137 
L 195.163362 59.348954 
L 198.722039 61.814383 
L 202.280716 69.652302 
L 205.839394 82.615655 
L 209.398071 100.057789 
L 212.956749 120.974991 
L 223.632781 190.817811 
L 227.191458 211.352247 
L 230.750136 228.093293 
L 234.308813 239.899655 
L 237.86749 245.964542 
L 241.426168 245.87574 
L 244.984845 239.646029 
L 248.543522 227.71163 
L 252.1022 210.898854 
L 255.660877 190.361576 
L 259.219555 167.494405 
L 262.778232 143.828288 
L 266.336909 120.916625 
L 269.895587 100.220663 
L 273.454264 83.00299 
L 277.012942 70.237254 
L 280.571619 62.540958 
L 284.130296 60.13635 
L 287.688974 62.842236 
L 291.247651 70.097093 
L 294.806328 81.011443 
L 298.365006 94.445167 
L 305.482361 123.644062 
L 309.041038 136.786292 
L 312.599715 147.414829 
L 316.158393 154.668477 
L 319.71707 158.007915 
L 323.275747 157.256807 
L 326.834425 152.613188 
L 330.393102 144.630298 
L 333.95178 134.168506 
L 341.069134 110.327583 
L 344.627812 99.458621 
L 348.186489 90.919679 
L 351.745167 85.743207 
L 355.303844 84.700794 
L 358.862521 88.234665 
L 362.421199 96.41516 
L 365.979876 108.927671 
L 369.538553 125.090189 
L 373.097231 143.900236 
L 380.214586 184.307381 
L 383.773263 203.045888 
L 387.33194 218.931632 
L 390.890618 230.742346 
L 394.449295 237.519966 
L 398.007972 238.646106 
L 401.56665 233.892113 
L 405.125327 223.439808 
L 408.684005 207.87124 
L 412.242682 188.12819 
L 415.801359 165.44453 
L 422.918714 117.098454 
L 426.477392 94.490099 
L 430.036069 74.827136 
L 433.594746 59.280379 
L 437.153424 48.712996 
L 440.712101 43.621473 
L 444.270778 44.10478 
L 447.829456 49.863938 
L 451.388133 60.231824 
L 454.946811 74.230697 
L 458.505488 90.652795 
L 465.622843 125.377985 
L 469.18152 141.027168 
L 472.740198 153.997693 
L 476.298875 163.445148 
L 479.857552 168.849926 
L 483.41623 170.052397 
L 486.974907 167.258891 
L 490.533584 161.018198 
L 494.092262 152.170639 
L 497.650939 141.773894 
L 501.209617 131.011617 
L 504.768294 121.092194 
L 508.326971 113.145781 
L 511.885649 108.12786 
L 515.444326 106.737041 
L 519.003003 109.353686 
L 522.561681 116.004296 
L 526.120358 126.354536 
L 529.679036 139.731541 
L 533.237713 155.173803 
L 540.355068 187.424416 
L 543.913745 201.611615 
L 547.472423 212.829265 
L 551.0311 220.023921 
L 554.589777 222.412072 
L 558.148455 219.546236 
L 561.707132 211.355627 
L 565.265809 198.158099 
L 568.824487 180.642326 
L 572.383164 159.821475 
L 583.059196 90.898897 
L 586.617874 70.619992 
L 590.176551 53.9381 
L 593.735228 41.88839 
L 597.293906 35.183857 
L 600.852583 34.165179 
L 604.411261 38.778679 
L 607.969938 48.583986 
L 611.528615 62.790682 
L 615.087293 80.320984 
L 618.64597 99.893527 
L 622.204648 120.121659 
L 625.763325 139.618624 
L 629.322002 157.101449 
L 632.88068 171.485535 
L 636.439357 181.962696 
L 639.998034 188.056717 
L 643.556712 189.652291 
L 647.115389 186.995292 
L 650.674067 180.6646 
L 654.232744 171.517912 
L 657.791421 160.616019 
L 661.350099 149.131687 
L 664.908776 138.250471 
L 668.467454 129.071408 
L 672.026131 122.51549 
L 675.584808 119.249204 
L 679.143486 119.629202 
L 682.702163 123.67247 
L 686.26084 131.054352 
L 689.819518 141.134557 
L 693.378195 153.009081 
L 696.936873 165.583899 
L 700.49555 177.664581 
L 704.054227 188.054706 
L 707.612905 195.655254 
L 711.171582 199.55707 
L 714.730259 199.119027 
L 718.288937 194.02562 
L 721.847614 184.319354 
L 725.406292 170.405229 
L 728.964969 153.02683 
L 732.523646 133.215738 
L 739.641001 91.403821 
L 743.199679 72.16574 
L 746.758356 55.815886 
L 750.317033 43.487463 
L 753.875711 36.049731 
L 757.434388 34.042464 
L 760.993065 37.635027 
L 764.551743 46.613201 
L 768.11042 60.394778 
L 771.669098 78.072675 
L 775.227775 98.482242 
L 782.34513 142.080023 
L 785.903807 162.481753 
L 789.462485 180.245698 
L 793.021162 194.344982 
L 796.579839 204.044578 
L 800.138517 208.949994 
L 803.697194 209.029346 
L 807.255871 204.607362 
L 810.814549 196.331983 
L 814.373226 185.116405 
L 814.373226 185.116405 
" clip-path="url(#p0977820521)" style="fill: none; stroke: #0000ff; stroke-linecap: square"/>
   </g>
   <g id="line2d_9">
    <path d="M 106.196427 173.222725 
L 116.872459 102.491235 
L 127.548491 105.728944 
L 138.224524 154.792689 
L 148.900556 154.792689 
L 159.576588 142.838071 
L 170.25262 117.683562 
L 180.928652 51.684109 
L 191.604684 87.298908 
L 202.280716 102.491235 
L 212.956749 131.132508 
L 220.074103 183.433961 
L 230.750136 232.497706 
L 241.426168 225.524179 
L 252.1022 183.433961 
L 262.778232 154.792689 
L 273.454264 105.728944 
L 284.130296 83.812145 
L 294.806328 120.921271 
L 305.482361 139.600362 
L 316.158393 149.562544 
L 326.834425 154.792689 
L 333.95178 114.196799 
L 344.627812 102.491235 
L 355.303844 117.683562 
L 365.979876 158.030398 
L 376.655908 179.947198 
L 387.33194 220.543088 
L 398.007972 240.716506 
L 408.684005 213.818616 
L 419.360037 131.132508 
L 430.036069 83.812145 
L 440.712101 112.453417 
L 451.388133 65.133054 
L 462.064165 117.683562 
L 472.740198 158.030398 
L 483.41623 161.517162 
L 490.533584 158.030398 
L 501.209617 148.068216 
L 511.885649 149.562544 
L 522.561681 139.600362 
L 533.237713 183.433961 
L 543.913745 191.901816 
L 554.589777 215.561997 
L 565.265809 195.139525 
L 572.383164 154.792689 
L 583.059196 109.215708 
L 593.735228 100.747853 
L 604.411261 46.703018 
L 615.087293 99.004472 
L 625.763325 142.838071 
L 636.439357 183.433961 
L 647.115389 183.433961 
L 657.791421 179.947198 
L 668.467454 164.754871 
L 675.584808 171.479343 
L 686.26084 139.600362 
L 707.612905 186.920725 
L 718.288937 173.222725 
L 728.964969 148.068216 
L 739.641001 99.004472 
L 750.317033 70.363199 
L 760.993065 53.427491 
L 768.11042 83.812145 
L 778.786452 120.921271 
L 789.462485 190.158434 
L 800.138517 190.158434 
L 810.814549 191.901816 
L 821.490581 185.177343 
L 832.166613 149.562544 
L 842.842645 159.77378 
L 853.518677 136.113598 
L 864.19471 168.241634 
L 865 167.471403 
L 865 167.471403 
" clip-path="url(#p0977820521)" style="fill: none; stroke-dasharray: 3.7,1.6; stroke-dashoffset: 0; stroke: #00008b"/>
   </g>
   <g id="patch_3">
    <path d="M 70.609653 257.008568 
L 70.609653 14.04 
" style="fill: none; stroke: #000000; stroke-width: 0.8; stroke-linejoin: miter; stroke-linecap: square"/>
   </g>
   <g id="patch_4">
    <path d="M 849.96 257.008568 
L 849.96 14.04 
" style="fill: none; stroke: #000000; stroke-width: 0.8; stroke-linejoin: miter; stroke-linecap: square"/>
   </g>
   <g id="patch_5">
    <path d="M 70.609653 257.008568 
L 849.96 257.008568 
" style="fill: none; stroke: #000000; stroke-width: 0.8; stroke-linejoin: miter; stroke-linecap: square"/>
   </g>
   <g id="patch_6">
    <path d="M 70.609653 14.04 
L 849.96 14.04 
" style="fill: none; stroke: #000000; stroke-width: 0.8; stroke-linejoin: miter; stroke-linecap: square"/>
   </g>
   <g id="legend_1">
    <g id="patch_7">
     <path d="M 722.405139 96.913248 
L 840.86 96.913248 
Q 843.46 96.913248 843.46 94.313248 
L 843.46 23.14 
Q 843.46 20.54 840.86 20.54 
L 722.405139 20.54 
Q 719.805139 20.54 719.805139 23.14 
L 719.805139 94.313248 
Q 719.805139 96.913248 722.405139 96.913248 
z
" style="fill: #ffffff; opacity: 0.8; stroke: #cccccc; stroke-linejoin: miter"/>
    </g>
    <g id="line2d_10">
     <path d="M 725.005139 30.29 
L 738.005139 30.29 
L 751.005139 30.29 
" style="fill: none; stroke: #ff0000; stroke-linecap: square"/>
    </g>
    <g id="text_8">
     <!-- MCMC result -->
     <g transform="translate(761.405139 34.84) scale(0.13 -0.13)">
      <defs>
       <path id="CMR17-4d" d="M 1338 4224 
C 1299 4320 1293 4320 1158 4320 
L 339 4320 
L 339 4160 
C 781 4160 851 4160 851 3875 
L 851 610 
C 851 451 851 153 339 153 
L 339 -13 
C 486 0 755 0 915 0 
C 1075 0 1344 0 1491 -13 
L 1491 153 
C 979 153 979 451 979 610 
L 979 4135 
L 986 4135 
L 2490 89 
C 2515 25 2528 -13 2579 -13 
C 2630 -13 2643 25 2669 89 
L 4186 4166 
L 4192 4166 
L 4192 438 
C 4192 153 4122 153 3680 153 
L 3680 -13 
C 3853 0 4198 0 4384 0 
C 4570 0 4922 0 5094 -13 
L 5094 153 
C 4653 153 4582 153 4582 438 
L 4582 3875 
C 4582 4160 4653 4160 5094 4160 
L 5094 4320 
L 4282 4320 
C 4147 4320 4141 4314 4102 4218 
L 2720 502 
L 1338 4224 
z
" transform="scale(0.015625)"/>
       <path id="CMR17-43" d="M 3974 4289 
C 3974 4403 3968 4410 3930 4410 
C 3904 4410 3898 4403 3853 4327 
L 3571 3792 
C 3258 4187 2874 4416 2381 4416 
C 1286 4416 294 3456 294 2148 
C 294 826 1286 -128 2387 -128 
C 3366 -128 3974 730 3974 1461 
C 3974 1524 3974 1550 3917 1550 
C 3866 1550 3866 1531 3859 1474 
C 3808 585 3168 38 2477 38 
C 1824 38 781 495 781 2147 
C 781 3805 1843 4250 2464 4250 
C 3187 4250 3712 3628 3834 2745 
C 3846 2668 3846 2655 3904 2655 
C 3974 2655 3974 2668 3974 2783 
L 3974 4289 
z
" transform="scale(0.015625)"/>
       <path id="CMR17-72" d="M 960 1497 
C 960 2112 1222 2688 1702 2688 
C 1747 2688 1792 2682 1837 2662 
C 1837 2662 1696 2617 1696 2452 
C 1696 2298 1818 2234 1914 2234 
C 1990 2234 2131 2279 2131 2458 
C 2131 2663 1926 2790 1709 2790 
C 1222 2790 1011 2317 947 2093 
L 941 2093 
L 941 2790 
L 198 2720 
L 198 2554 
C 576 2554 634 2515 634 2208 
L 634 428 
C 634 184 608 153 198 153 
L 198 -13 
C 352 0 646 0 813 0 
C 998 0 1325 0 1498 -13 
L 1498 153 
C 1037 153 960 153 960 440 
L 960 1497 
z
" transform="scale(0.015625)"/>
       <path id="CMR17-75" d="M 1882 2693 
L 1882 2528 
C 2259 2528 2317 2489 2317 2186 
L 2317 1032 
C 2317 500 2029 38 1555 38 
C 1030 38 986 348 986 678 
L 986 2763 
L 211 2693 
L 211 2528 
C 467 2528 640 2528 646 2274 
L 646 1058 
C 646 633 646 361 813 183 
C 896 101 1056 -64 1517 -64 
C 2061 -64 2272 377 2323 506 
L 2330 506 
L 2330 -63 
L 3091 -63 
L 3091 128 
C 2714 128 2656 166 2656 473 
L 2656 2763 
L 1882 2693 
z
" transform="scale(0.015625)"/>
       <path id="CMR17-6c" d="M 979 4396 
L 218 4326 
L 218 4160 
C 595 4160 653 4122 653 3817 
L 653 426 
C 653 184 627 153 218 153 
L 218 -13 
C 371 0 653 0 813 0 
C 979 0 1261 0 1414 -13 
L 1414 153 
C 1005 153 979 178 979 426 
L 979 4396 
z
" transform="scale(0.015625)"/>
      </defs>
      <use xlink:href="#CMR17-4d" transform="scale(0.996264)"/>
      <use xlink:href="#CMR17-43" transform="translate(84.686941 0) scale(0.996264)"/>
      <use xlink:href="#CMR17-4d" transform="translate(151.196821 0) scale(0.996264)"/>
      <use xlink:href="#CMR17-43" transform="translate(235.883762 0) scale(0.996264)"/>
      <use xlink:href="#CMR17-72" transform="translate(332.469609 0) scale(0.996264)"/>
      <use xlink:href="#CMR17-65" transform="translate(367.750376 0) scale(0.996264)"/>
      <use xlink:href="#CMR17-73" transform="translate(408.236037 0) scale(0.996264)"/>
      <use xlink:href="#CMR17-75" transform="translate(444.037374 0) scale(0.996264)"/>
      <use xlink:href="#CMR17-6c" transform="translate(494.932744 0) scale(0.996264)"/>
      <use xlink:href="#CMR17-74" transform="translate(519.803803 0) scale(0.996264)"/>
     </g>
    </g>
    <g id="line2d_11">
     <path d="M 725.005139 48.408312 
L 738.005139 48.408312 
L 751.005139 48.408312 
" style="fill: none; stroke-dasharray: 3.7,1.6; stroke-dashoffset: 0; stroke: #8b0000"/>
    </g>
    <g id="text_9">
     <!-- Experiment -->
     <g transform="translate(761.405139 52.958312) scale(0.13 -0.13)">
      <defs>
       <path id="CMR17-45" d="M 3885 1615 
L 3770 1615 
C 3629 676 3546 166 2419 166 
L 1530 166 
C 1274 166 1261 197 1261 414 
L 1261 2176 
L 1862 2176 
C 2464 2176 2522 1960 2522 1430 
L 2637 1430 
L 2637 3081 
L 2522 3081 
C 2522 2557 2464 2342 1862 2342 
L 1261 2342 
L 1261 3913 
C 1261 4128 1274 4160 1530 4160 
L 2406 4160 
C 3398 4160 3514 3769 3603 2929 
L 3718 2929 
L 3565 4325 
L 326 4325 
L 326 4160 
C 768 4160 838 4160 838 3874 
L 838 451 
C 838 166 768 166 326 166 
L 326 0 
L 3654 0 
L 3885 1615 
z
" transform="scale(0.015625)"/>
       <path id="CMR17-78" d="M 1664 1477 
C 1856 1726 2074 2006 2253 2216 
C 2464 2458 2707 2560 2989 2560 
L 2989 2726 
C 2880 2726 2656 2726 2541 2726 
C 2368 2726 2170 2726 2022 2732 
L 2022 2566 
C 2112 2553 2163 2489 2163 2400 
C 2163 2285 2099 2215 2067 2171 
L 1594 1573 
L 1030 2306 
C 973 2376 973 2388 973 2420 
C 973 2497 1037 2560 1146 2560 
L 1146 2732 
C 992 2726 717 2726 557 2726 
C 384 2726 179 2726 38 2732 
L 38 2560 
C 384 2560 461 2534 614 2343 
L 1350 1395 
C 1363 1382 1395 1344 1395 1325 
C 1395 1299 838 619 768 530 
C 480 185 179 160 6 160 
L 6 0 
C 115 0 339 0 454 0 
C 582 0 864 0 979 -6 
L 979 160 
C 941 166 838 179 838 325 
C 838 440 890 510 947 586 
L 1478 1236 
L 2035 512 
C 2086 442 2163 346 2163 301 
C 2163 211 2086 160 1984 160 
L 1984 -6 
C 2138 0 2413 0 2573 0 
C 2746 0 2950 0 3091 -6 
L 3091 160 
C 2771 160 2675 172 2522 370 
L 1664 1477 
z
" transform="scale(0.015625)"/>
       <path id="CMR17-70" d="M 1408 -1063 
C 998 -1063 973 -1037 973 -789 
L 973 402 
C 1158 134 1427 -38 1766 -38 
C 2406 -38 3053 523 3053 1388 
C 3053 2191 2496 2802 1837 2802 
C 1453 2802 1139 2592 960 2338 
L 960 2802 
L 198 2732 
L 198 2567 
C 576 2567 634 2528 634 2223 
L 634 -789 
C 634 -1031 608 -1063 198 -1063 
L 198 -1228 
C 352 -1216 634 -1216 800 -1216 
C 966 -1216 1254 -1216 1408 -1228 
L 1408 -1063 
z
M 973 2012 
C 973 2102 973 2235 1222 2471 
C 1254 2497 1472 2688 1792 2688 
C 2259 2688 2643 2108 2643 1382 
C 2643 656 2234 64 1728 64 
C 1498 64 1248 172 1056 472 
C 973 612 973 650 973 752 
L 973 2012 
z
" transform="scale(0.015625)"/>
       <path id="CMR17-6e" d="M 2656 1933 
C 2656 2259 2592 2790 1837 2790 
C 1331 2790 1069 2400 973 2144 
L 966 2144 
L 966 2790 
L 211 2720 
L 211 2554 
C 589 2554 646 2515 646 2208 
L 646 428 
C 646 184 621 153 211 153 
L 211 -13 
C 365 0 646 0 813 0 
C 979 0 1267 0 1421 -13 
L 1421 153 
C 1011 153 986 178 986 428 
L 986 1658 
C 986 2247 1344 2688 1792 2688 
C 2266 2688 2317 2266 2317 1958 
L 2317 428 
C 2317 184 2291 153 1882 153 
L 1882 -13 
C 2035 0 2317 0 2483 0 
C 2650 0 2938 0 3091 -13 
L 3091 153 
C 2682 153 2656 178 2656 428 
L 2656 1933 
z
" transform="scale(0.015625)"/>
      </defs>
      <use xlink:href="#CMR17-45" transform="scale(0.996264)"/>
      <use xlink:href="#CMR17-78" transform="translate(62.586301 0) scale(0.996264)"/>
      <use xlink:href="#CMR17-70" transform="translate(110.879216 0) scale(0.996264)"/>
      <use xlink:href="#CMR17-65" transform="translate(164.377025 0) scale(0.996264)"/>
      <use xlink:href="#CMR17-72" transform="translate(204.862685 0) scale(0.996264)"/>
      <use xlink:href="#CMR17-69" transform="translate(240.143453 0) scale(0.996264)"/>
      <use xlink:href="#CMR17-6d" transform="translate(265.014512 0) scale(0.996264)"/>
      <use xlink:href="#CMR17-65" transform="translate(341.934101 0) scale(0.996264)"/>
      <use xlink:href="#CMR17-6e" transform="translate(382.419762 0) scale(0.996264)"/>
      <use xlink:href="#CMR17-74" transform="translate(430.712678 0) scale(0.996264)"/>
     </g>
    </g>
    <g id="line2d_12">
     <path d="M 725.005139 66.526624 
L 738.005139 66.526624 
L 751.005139 66.526624 
" style="fill: none; stroke: #0000ff; stroke-linecap: square"/>
    </g>
    <g id="text_10">
     <!-- MCMC result -->
     <g transform="translate(761.405139 71.076624) scale(0.13 -0.13)">
      <use xlink:href="#CMR17-4d" transform="scale(0.996264)"/>
      <use xlink:href="#CMR17-43" transform="translate(84.686941 0) scale(0.996264)"/>
      <use xlink:href="#CMR17-4d" transform="translate(151.196821 0) scale(0.996264)"/>
      <use xlink:href="#CMR17-43" transform="translate(235.883762 0) scale(0.996264)"/>
      <use xlink:href="#CMR17-72" transform="translate(332.469609 0) scale(0.996264)"/>
      <use xlink:href="#CMR17-65" transform="translate(367.750376 0) scale(0.996264)"/>
      <use xlink:href="#CMR17-73" transform="translate(408.236037 0) scale(0.996264)"/>
      <use xlink:href="#CMR17-75" transform="translate(444.037374 0) scale(0.996264)"/>
      <use xlink:href="#CMR17-6c" transform="translate(494.932744 0) scale(0.996264)"/>
      <use xlink:href="#CMR17-74" transform="translate(519.803803 0) scale(0.996264)"/>
     </g>
    </g>
    <g id="line2d_13">
     <path d="M 725.005139 84.644936 
L 738.005139 84.644936 
L 751.005139 84.644936 
" style="fill: none; stroke-dasharray: 3.7,1.6; stroke-dashoffset: 0; stroke: #00008b"/>
    </g>
    <g id="text_11">
     <!-- Experiment -->
     <g transform="translate(761.405139 89.194936) scale(0.13 -0.13)">
      <use xlink:href="#CMR17-45" transform="scale(0.996264)"/>
      <use xlink:href="#CMR17-78" transform="translate(62.586301 0) scale(0.996264)"/>
      <use xlink:href="#CMR17-70" transform="translate(110.879216 0) scale(0.996264)"/>
      <use xlink:href="#CMR17-65" transform="translate(164.377025 0) scale(0.996264)"/>
      <use xlink:href="#CMR17-72" transform="translate(204.862685 0) scale(0.996264)"/>
      <use xlink:href="#CMR17-69" transform="translate(240.143453 0) scale(0.996264)"/>
      <use xlink:href="#CMR17-6d" transform="translate(265.014512 0) scale(0.996264)"/>
      <use xlink:href="#CMR17-65" transform="translate(341.934101 0) scale(0.996264)"/>
      <use xlink:href="#CMR17-6e" transform="translate(382.419762 0) scale(0.996264)"/>
      <use xlink:href="#CMR17-74" transform="translate(430.712678 0) scale(0.996264)"/>
     </g>
    </g>
   </g>
  </g>
 </g>
 <defs>
  <clipPath id="p0977820521">
   <rect x="70.609653" y="14.04" width="779.350347" height="242.968568"/>
  </clipPath>
 </defs>
</svg>
