<?xml version="1.0" encoding="utf-8" standalone="no"?>
<!DOCTYPE svg PUBLIC "-//W3C//DTD SVG 1.1//EN"
  "http://www.w3.org/Graphics/SVG/1.1/DTD/svg11.dtd">
<svg xmlns:xlink="http://www.w3.org/1999/xlink" width="864pt" height="360pt" viewBox="0 0 864 360" xmlns="http://www.w3.org/2000/svg" version="1.1">
 <metadata>
  <rdf:RDF xmlns:dc="http://purl.org/dc/elements/1.1/" xmlns:cc="http://creativecommons.org/ns#" xmlns:rdf="http://www.w3.org/1999/02/22-rdf-syntax-ns#">
   <cc:Work>
    <dc:type rdf:resource="http://purl.org/dc/dcmitype/StillImage"/>
    <dc:date>2023-07-29T00:56:43.827000</dc:date>
    <dc:format>image/svg+xml</dc:format>
    <dc:creator>
     <cc:Agent>
      <dc:title>Matplotlib v3.7.1, https://matplotlib.org/</dc:title>
     </cc:Agent>
    </dc:creator>
   </cc:Work>
  </rdf:RDF>
 </metadata>
 <defs>
  <style type="text/css">*{stroke-linejoin: round; stroke-linecap: butt}</style>
 </defs>
 <g id="figure_1">
  <g id="patch_1">
   <path d="M 0 360 
L 864 360 
L 864 0 
L 0 0 
z
" style="fill: #ffffff"/>
  </g>
  <g id="axes_1">
   <g id="patch_2">
    <path d="M 108 181.8 
L 777.6 181.8 
L 777.6 43.2 
L 108 43.2 
z
" style="fill: #ffffff"/>
   </g>
   <g id="matplotlib.axis_1"/>
   <g id="matplotlib.axis_2">
    <g id="ytick_1">
     <g id="line2d_1">
      <defs>
       <path id="m797290ce71" d="M 0 0 
L -3.5 0 
" style="stroke: #000000; stroke-width: 0.8"/>
      </defs>
      <g>
       <use xlink:href="#m797290ce71" x="108" y="172.355813" style="stroke: #000000; stroke-width: 0.8"/>
      </g>
     </g>
     <g id="text_1">
      <!-- $\mathdefault{−0.04}$ -->
      <g transform="translate(68.381779 176.852827) scale(0.13 -0.13)">
       <defs>
        <path id="CMSY10-0" d="M 4218 1472 
C 4326 1472 4442 1472 4442 1600 
C 4442 1728 4326 1728 4218 1728 
L 755 1728 
C 646 1728 531 1728 531 1600 
C 531 1472 646 1472 755 1472 
L 4218 1472 
z
" transform="scale(0.015625)"/>
        <path id="CMR17-30" d="M 2688 2025 
C 2688 2416 2682 3080 2413 3591 
C 2176 4039 1798 4198 1466 4198 
C 1158 4198 768 4058 525 3597 
C 269 3118 243 2524 243 2025 
C 243 1661 250 1106 448 619 
C 723 -39 1216 -128 1466 -128 
C 1760 -128 2208 -7 2470 600 
C 2662 1042 2688 1559 2688 2025 
z
M 1466 -26 
C 1056 -26 813 325 723 812 
C 653 1188 653 1738 653 2096 
C 653 2588 653 2997 736 3387 
C 858 3929 1216 4096 1466 4096 
C 1728 4096 2067 3923 2189 3400 
C 2272 3036 2278 2607 2278 2096 
C 2278 1680 2278 1169 2202 792 
C 2067 95 1690 -26 1466 -26 
z
" transform="scale(0.015625)"/>
        <path id="CMMI12-3a" d="M 1178 307 
C 1178 492 1024 619 870 619 
C 685 619 557 466 557 313 
C 557 128 710 0 864 0 
C 1050 0 1178 153 1178 307 
z
" transform="scale(0.015625)"/>
        <path id="CMR17-34" d="M 2150 4122 
C 2150 4256 2144 4256 2029 4256 
L 128 1254 
L 128 1088 
L 1779 1088 
L 1779 457 
C 1779 224 1766 160 1318 160 
L 1197 160 
L 1197 0 
C 1402 0 1747 0 1965 0 
C 2182 0 2528 0 2733 0 
L 2733 160 
L 2611 160 
C 2163 160 2150 224 2150 457 
L 2150 1088 
L 2803 1088 
L 2803 1254 
L 2150 1254 
L 2150 4122 
z
M 1798 3703 
L 1798 1254 
L 256 1254 
L 1798 3703 
z
" transform="scale(0.015625)"/>
       </defs>
       <use xlink:href="#CMSY10-0" transform="scale(0.996264)"/>
       <use xlink:href="#CMR17-30" transform="translate(77.487468 0) scale(0.996264)"/>
       <use xlink:href="#CMMI12-3a" transform="translate(123.177945 0) scale(0.996264)"/>
       <use xlink:href="#CMR17-30" transform="translate(150.275122 0) scale(0.996264)"/>
       <use xlink:href="#CMR17-34" transform="translate(195.965599 0) scale(0.996264)"/>
      </g>
     </g>
    </g>
    <g id="ytick_2">
     <g id="line2d_2">
      <g>
       <use xlink:href="#m797290ce71" x="108" y="143.200044" style="stroke: #000000; stroke-width: 0.8"/>
      </g>
     </g>
     <g id="text_2">
      <!-- $\mathdefault{−0.02}$ -->
      <g transform="translate(68.381779 147.697058) scale(0.13 -0.13)">
       <defs>
        <path id="CMR17-32" d="M 2669 989 
L 2554 989 
C 2490 536 2438 459 2413 420 
C 2381 369 1920 369 1830 369 
L 602 369 
C 832 619 1280 1072 1824 1597 
C 2214 1967 2669 2402 2669 3035 
C 2669 3790 2067 4224 1395 4224 
C 691 4224 262 3604 262 3030 
C 262 2780 448 2748 525 2748 
C 589 2748 781 2787 781 3010 
C 781 3207 614 3264 525 3264 
C 486 3264 448 3258 422 3245 
C 544 3790 915 4058 1306 4058 
C 1862 4058 2227 3617 2227 3035 
C 2227 2479 1901 2000 1536 1584 
L 262 146 
L 262 0 
L 2515 0 
L 2669 989 
z
" transform="scale(0.015625)"/>
       </defs>
       <use xlink:href="#CMSY10-0" transform="scale(0.996264)"/>
       <use xlink:href="#CMR17-30" transform="translate(77.487468 0) scale(0.996264)"/>
       <use xlink:href="#CMMI12-3a" transform="translate(123.177945 0) scale(0.996264)"/>
       <use xlink:href="#CMR17-30" transform="translate(150.275122 0) scale(0.996264)"/>
       <use xlink:href="#CMR17-32" transform="translate(195.965599 0) scale(0.996264)"/>
      </g>
     </g>
    </g>
    <g id="ytick_3">
     <g id="line2d_3">
      <g>
       <use xlink:href="#m797290ce71" x="108" y="114.044276" style="stroke: #000000; stroke-width: 0.8"/>
      </g>
     </g>
     <g id="text_3">
      <!-- $\mathdefault{0.00}$ -->
      <g transform="translate(78.455149 118.54129) scale(0.13 -0.13)">
       <use xlink:href="#CMR17-30" transform="scale(0.996264)"/>
       <use xlink:href="#CMMI12-3a" transform="translate(45.690477 0) scale(0.996264)"/>
       <use xlink:href="#CMR17-30" transform="translate(72.787654 0) scale(0.996264)"/>
       <use xlink:href="#CMR17-30" transform="translate(118.478131 0) scale(0.996264)"/>
      </g>
     </g>
    </g>
    <g id="ytick_4">
     <g id="line2d_4">
      <g>
       <use xlink:href="#m797290ce71" x="108" y="84.888508" style="stroke: #000000; stroke-width: 0.8"/>
      </g>
     </g>
     <g id="text_4">
      <!-- $\mathdefault{0.02}$ -->
      <g transform="translate(78.455149 89.385522) scale(0.13 -0.13)">
       <use xlink:href="#CMR17-30" transform="scale(0.996264)"/>
       <use xlink:href="#CMMI12-3a" transform="translate(45.690477 0) scale(0.996264)"/>
       <use xlink:href="#CMR17-30" transform="translate(72.787654 0) scale(0.996264)"/>
       <use xlink:href="#CMR17-32" transform="translate(118.478131 0) scale(0.996264)"/>
      </g>
     </g>
    </g>
    <g id="ytick_5">
     <g id="line2d_5">
      <g>
       <use xlink:href="#m797290ce71" x="108" y="55.732739" style="stroke: #000000; stroke-width: 0.8"/>
      </g>
     </g>
     <g id="text_5">
      <!-- $\mathdefault{0.04}$ -->
      <g transform="translate(78.455149 60.229753) scale(0.13 -0.13)">
       <use xlink:href="#CMR17-30" transform="scale(0.996264)"/>
       <use xlink:href="#CMMI12-3a" transform="translate(45.690477 0) scale(0.996264)"/>
       <use xlink:href="#CMR17-30" transform="translate(72.787654 0) scale(0.996264)"/>
       <use xlink:href="#CMR17-34" transform="translate(118.478131 0) scale(0.996264)"/>
      </g>
     </g>
    </g>
    <g id="text_6">
     <!-- $x_1$ (m) -->
     <g transform="translate(61.143921 131.010922) rotate(-90) scale(0.13 -0.13)">
      <defs>
       <path id="CMMI12-78" d="M 3034 2606 
C 2829 2567 2752 2414 2752 2293 
C 2752 2139 2874 2088 2963 2088 
C 3155 2088 3290 2254 3290 2427 
C 3290 2695 2982 2816 2714 2816 
C 2323 2816 2106 2433 2048 2312 
C 1901 2816 1504 2816 1389 2816 
C 736 2816 390 1980 390 1839 
C 390 1814 416 1782 461 1782 
C 512 1782 525 1820 538 1846 
C 755 2555 1184 2689 1370 2689 
C 1658 2689 1715 2420 1715 2267 
C 1715 2127 1677 1980 1600 1673 
L 1382 798 
C 1286 415 1101 64 762 64 
C 730 64 570 64 435 147 
C 666 192 717 383 717 460 
C 717 588 621 664 499 664 
C 346 664 179 530 179 326 
C 179 57 480 -64 755 -64 
C 1062 -64 1280 179 1414 441 
C 1517 64 1837 -64 2074 -64 
C 2726 -64 3072 773 3072 913 
C 3072 945 3046 971 3008 971 
C 2950 971 2944 939 2925 888 
C 2752 326 2381 64 2093 64 
C 1869 64 1747 230 1747 492 
C 1747 632 1773 734 1875 1156 
L 2099 2024 
C 2195 2408 2413 2689 2707 2689 
C 2720 2689 2899 2689 3034 2606 
z
" transform="scale(0.015625)"/>
       <path id="CMR17-31" d="M 1702 4058 
C 1702 4192 1696 4192 1606 4192 
C 1357 3916 979 3827 621 3827 
C 602 3827 570 3827 563 3808 
C 557 3795 557 3782 557 3648 
C 755 3648 1088 3686 1344 3839 
L 1344 461 
C 1344 236 1331 160 781 160 
L 589 160 
L 589 0 
C 896 0 1216 0 1523 0 
C 1830 0 2150 0 2458 0 
L 2458 160 
L 2266 160 
C 1715 160 1702 230 1702 458 
L 1702 4058 
z
" transform="scale(0.015625)"/>
       <path id="CMR17-28" d="M 1958 -1561 
C 1958 -1555 1958 -1542 1939 -1523 
C 1645 -1224 858 -407 858 1581 
C 858 3569 1632 4379 1946 4697 
C 1946 4704 1958 4717 1958 4736 
C 1958 4755 1939 4768 1914 4768 
C 1843 4768 1299 4296 986 3594 
C 666 2887 576 2199 576 1588 
C 576 1128 621 351 1005 -471 
C 1312 -1135 1837 -1600 1914 -1600 
C 1946 -1600 1958 -1587 1958 -1561 
z
" transform="scale(0.015625)"/>
       <path id="CMR17-6d" d="M 4326 1933 
C 4326 2252 4269 2790 3507 2790 
C 3072 2790 2771 2496 2656 2151 
L 2650 2151 
C 2573 2676 2195 2790 1837 2790 
C 1331 2790 1069 2400 973 2144 
L 966 2144 
L 966 2790 
L 211 2720 
L 211 2554 
C 589 2554 646 2515 646 2208 
L 646 428 
C 646 184 621 153 211 153 
L 211 -13 
C 365 0 646 0 813 0 
C 979 0 1267 0 1421 -13 
L 1421 153 
C 1011 153 986 178 986 428 
L 986 1658 
C 986 2247 1344 2688 1792 2688 
C 2266 2688 2317 2266 2317 1958 
L 2317 428 
C 2317 184 2291 153 1882 153 
L 1882 -13 
C 2035 0 2317 0 2483 0 
C 2650 0 2938 0 3091 -13 
L 3091 153 
C 2682 153 2656 178 2656 428 
L 2656 1658 
C 2656 2247 3014 2688 3462 2688 
C 3936 2688 3987 2266 3987 1958 
L 3987 428 
C 3987 184 3962 153 3552 153 
L 3552 -13 
C 3706 0 3987 0 4154 0 
C 4320 0 4608 0 4762 -13 
L 4762 153 
C 4352 153 4326 178 4326 428 
L 4326 1933 
z
" transform="scale(0.015625)"/>
       <path id="CMR17-29" d="M 1683 1581 
C 1683 2040 1638 2817 1254 3639 
C 947 4303 422 4768 346 4768 
C 326 4768 301 4761 301 4729 
C 301 4717 307 4710 314 4697 
C 621 4378 1402 3568 1402 1584 
C 1402 -407 627 -1217 314 -1537 
C 307 -1549 301 -1556 301 -1568 
C 301 -1600 326 -1600 346 -1600 
C 416 -1600 960 -1128 1274 -426 
C 1594 281 1683 969 1683 1581 
z
" transform="scale(0.015625)"/>
      </defs>
      <use xlink:href="#CMMI12-78" transform="scale(0.996264)"/>
      <use xlink:href="#CMR17-31" transform="translate(55.43406 -14.943915) scale(0.697382)"/>
      <use xlink:href="#CMR17-28" transform="translate(117.99134 0) scale(0.996264)"/>
      <use xlink:href="#CMR17-6d" transform="translate(153.272108 0) scale(0.996264)"/>
      <use xlink:href="#CMR17-29" transform="translate(230.191698 0) scale(0.996264)"/>
     </g>
    </g>
   </g>
   <g id="line2d_6">
    <path d="M 138.436364 160.178176 
L 141.495295 161.653529 
L 144.554226 161.145287 
L 147.613157 158.438337 
L 150.672088 153.455765 
L 153.731019 146.271416 
L 156.78995 137.111265 
L 159.848881 126.343342 
L 162.907812 114.456838 
L 169.025674 89.701964 
L 172.084605 78.112432 
L 175.143536 67.877021 
L 178.202467 59.536764 
L 181.261398 53.523679 
L 184.320329 50.132136 
L 187.37926 49.5 
L 190.438191 51.600919 
L 193.497122 56.248265 
L 196.556053 63.110378 
L 199.614984 71.735887 
L 202.673915 81.587135 
L 208.791777 102.621021 
L 211.850708 112.65701 
L 214.909639 121.703527 
L 217.96857 129.380012 
L 221.027501 135.430994 
L 224.086432 139.737962 
L 227.145363 142.320289 
L 230.204294 143.325341 
L 233.263225 143.008746 
L 236.322156 141.706581 
L 239.381087 139.801827 
L 242.440018 137.687891 
L 245.498949 135.732217 
L 248.55788 134.24294 
L 251.616811 133.441309 
L 254.675742 133.442102 
L 257.734673 134.243616 
L 260.793604 135.728011 
L 263.852535 137.671985 
L 266.911466 139.766878 
L 269.970397 141.646575 
L 273.029328 142.920923 
L 276.088259 143.211927 
L 279.14719 142.189764 
L 282.206122 139.605647 
L 285.265053 135.318803 
L 288.323984 129.315293 
L 291.382915 121.717032 
L 294.441846 112.780118 
L 297.500777 102.882448 
L 303.618639 82.183279 
L 306.67757 72.506452 
L 309.736501 64.041466 
L 312.795432 57.310601 
L 315.854363 52.750268 
L 318.913294 50.678993 
L 321.972225 51.273464 
L 325.031156 54.554475 
L 328.090087 60.383872 
L 331.149018 68.472754 
L 334.207949 78.400342 
L 337.26688 89.642111 
L 346.443673 125.221004 
L 349.502604 135.708908 
L 352.561535 144.663226 
L 355.620466 151.732266 
L 358.679397 156.700126 
L 361.738328 159.495671 
L 364.797259 160.190629 
L 367.85619 158.987142 
L 370.915121 156.195924 
L 373.974052 152.206867 
L 377.032983 147.454537 
L 383.150845 137.401336 
L 386.209776 132.867495 
L 389.268707 129.045083 
L 392.327638 126.093093 
L 395.386569 124.055213 
L 398.4455 122.860896 
L 401.504431 122.336354 
L 410.681224 121.961132 
L 413.740155 121.144728 
L 416.799086 119.47894 
L 419.858017 116.753894 
L 422.916948 112.857766 
L 425.975879 107.792909 
L 429.03481 101.6825 
L 432.093741 94.767041 
L 438.211603 79.979575 
L 441.270534 73.010121 
L 444.329466 66.975744 
L 447.388397 62.34853 
L 450.447328 59.542447 
L 453.506259 58.879777 
L 456.56519 60.563582 
L 459.624121 64.658422 
L 462.683052 71.080876 
L 465.741983 79.600739 
L 468.800914 89.852872 
L 471.859845 101.358942 
L 481.036638 137.590985 
L 484.095569 148.227489 
L 487.1545 157.23753 
L 490.213431 164.212412 
L 493.272362 168.871829 
L 496.331293 171.079559 
L 499.390224 170.848727 
L 502.449155 168.336368 
L 505.508086 163.827815 
L 508.567017 157.712231 
L 511.625948 150.451258 
L 520.802741 126.740201 
L 523.861672 119.69822 
L 526.920603 113.657647 
L 529.979534 108.804399 
L 533.038465 105.204862 
L 536.097396 102.808083 
L 539.156327 101.457578 
L 542.215258 100.911639 
L 545.274189 100.870358 
L 548.33312 101.007054 
L 551.392051 101.001466 
L 554.450982 100.571921 
L 557.509913 99.503815 
L 560.568844 97.672025 
L 563.627775 95.055377 
L 566.686706 91.741939 
L 569.745637 87.924664 
L 575.863499 79.984115 
L 578.92243 76.607755 
L 581.981361 74.159831 
L 585.040292 73.01455 
L 588.099223 73.485562 
L 591.158154 75.796279 
L 594.217085 80.056459 
L 597.276016 86.247013 
L 600.334947 94.214368 
L 603.393878 103.674983 
L 606.45281 114.229833 
L 612.570672 136.596867 
L 615.629603 147.279224 
L 618.688534 156.870382 
L 621.747465 164.856698 
L 624.806396 170.810163 
L 627.865327 174.41728 
L 630.924258 175.5 
L 633.983189 174.027137 
L 637.04212 170.115461 
L 640.101051 164.020409 
L 643.159982 156.117165 
L 646.218913 146.873565 
L 655.395706 116.449607 
L 658.454637 107.158893 
L 661.513568 99.02855 
L 664.572499 92.356795 
L 667.63143 87.321161 
L 670.690361 83.972696 
L 673.749292 82.240022 
L 676.808223 81.942735 
L 679.867154 82.812916 
L 682.926085 84.522884 
L 692.102878 91.189535 
L 695.161809 92.903173 
L 698.22074 94.019666 
L 701.279671 94.472721 
L 704.338602 94.299458 
L 707.397533 93.635673 
L 713.515395 91.783773 
L 716.574326 91.20141 
L 719.633257 91.28182 
L 722.692188 92.325143 
L 725.751119 94.574438 
L 728.81005 98.189225 
L 731.868981 103.225344 
L 734.927912 109.622885 
L 737.986843 117.203297 
L 741.045774 125.676076 
L 747.163636 143.68037 
L 747.163636 143.68037 
" clip-path="url(#pe0b81b0411)" style="fill: none; stroke: #ff0000; stroke-linecap: square"/>
   </g>
   <g id="line2d_7">
    <path d="M 138.436364 160.178176 
L 141.495295 161.182126 
L 144.554226 159.639631 
L 147.613157 155.863816 
L 150.672088 150.167809 
L 153.731019 142.864736 
L 156.78995 134.267722 
L 162.907812 114.869345 
L 165.966743 105.278558 
L 169.025674 96.493251 
L 172.084605 88.599003 
L 175.143536 81.572142 
L 178.202467 75.483645 
L 181.261398 70.783091 
L 184.320329 68.01471 
L 187.37926 67.581165 
L 190.438191 69.318851 
L 193.497122 72.922597 
L 196.556053 78.054407 
L 199.614984 84.24499 
L 208.791777 104.261944 
L 211.850708 109.936539 
L 214.909639 114.51405 
L 217.96857 118.071969 
L 221.027501 120.78665 
L 224.086432 122.721993 
L 227.145363 123.492064 
L 230.204294 122.598473 
L 233.263225 119.935565 
L 236.322156 116.968633 
L 239.381087 115.197662 
L 242.440018 114.690465 
L 245.498949 115.15681 
L 248.55788 116.330402 
L 251.616811 118.04069 
L 254.675742 120.141058 
L 257.734673 122.523035 
L 260.793604 125.230712 
L 263.852535 128.346325 
L 269.970397 135.246885 
L 273.029328 137.981612 
L 276.088259 139.541551 
L 279.14719 139.726435 
L 282.206122 138.412007 
L 285.265053 135.536212 
L 288.323984 131.285804 
L 291.382915 125.909735 
L 294.441846 119.618816 
L 297.500777 112.471273 
L 300.559708 104.487187 
L 306.67757 87.106885 
L 309.736501 79.149436 
L 312.795432 72.624963 
L 315.854363 67.81925 
L 318.913294 64.918645 
L 321.972225 64.18109 
L 325.031156 66.150901 
L 328.090087 71.443983 
L 331.149018 80.122578 
L 334.207949 90.034257 
L 337.26688 99.007448 
L 340.325811 107.008675 
L 346.443673 121.915836 
L 349.502604 128.722326 
L 352.561535 134.357966 
L 355.620466 138.355065 
L 358.679397 140.777127 
L 361.738328 141.820455 
L 364.797259 141.684953 
L 367.85619 140.584924 
L 370.915121 138.738273 
L 373.974052 136.336287 
L 377.032983 133.463786 
L 380.091914 130.178973 
L 383.150845 126.631863 
L 386.209776 123.339716 
L 389.268707 120.911604 
L 392.327638 119.78103 
L 395.386569 119.679232 
L 398.4455 120.161884 
L 401.504431 120.862902 
L 404.563362 121.729191 
L 407.622293 122.785903 
L 410.681224 123.96679 
L 413.740155 124.840015 
L 416.799086 124.882342 
L 419.858017 123.687419 
L 422.916948 121.316428 
L 425.975879 117.947434 
L 429.03481 113.724574 
L 432.093741 108.65627 
L 435.152672 102.717016 
L 441.270534 89.399373 
L 444.329466 83.724115 
L 447.388397 79.721588 
L 450.447328 77.199534 
L 453.506259 75.740988 
L 456.56519 75.192457 
L 459.624121 76.454344 
L 462.683052 80.690527 
L 465.741983 88.424935 
L 468.800914 97.621698 
L 471.859845 106.13057 
L 477.977707 121.418359 
L 481.036638 128.969071 
L 484.095569 136.116241 
L 487.1545 142.236966 
L 490.213431 146.811789 
L 493.272362 149.735047 
L 496.331293 151.004522 
L 499.390224 150.666584 
L 502.449155 148.961953 
L 505.508086 146.179936 
L 508.567017 142.560922 
L 511.625948 138.149621 
L 514.684879 132.941829 
L 520.802741 121.058054 
L 523.861672 115.663565 
L 526.920603 111.426621 
L 529.979534 108.347134 
L 533.038465 106.285127 
L 536.097396 105.16138 
L 539.156327 105.139721 
L 542.215258 106.290031 
L 548.33312 109.756051 
L 551.392051 110.80144 
L 554.450982 111.180832 
L 557.509913 111.012526 
L 560.568844 110.359727 
L 563.627775 109.065254 
L 566.686706 106.916835 
L 569.745637 103.822349 
L 575.863499 96.469351 
L 578.92243 93.167977 
L 581.981361 90.47394 
L 585.040292 88.534817 
L 588.099223 87.502542 
L 591.158154 87.546457 
L 594.217085 88.840258 
L 597.276016 91.501169 
L 600.334947 95.420514 
L 603.393878 100.433147 
L 606.45281 106.355841 
L 609.511741 112.933051 
L 618.688534 134.075468 
L 621.747465 141.056851 
L 624.806396 147.544245 
L 627.865327 152.052741 
L 630.924258 153.305692 
L 633.983189 151.960479 
L 637.04212 149.15799 
L 640.101051 145.791055 
L 643.159982 141.760276 
L 646.218913 136.718195 
L 649.277844 130.464319 
L 652.336775 123.386012 
L 658.454637 108.906874 
L 661.513568 102.655485 
L 664.572499 97.878547 
L 667.63143 94.972095 
L 670.690361 93.455864 
L 673.749292 92.630508 
L 676.808223 91.967654 
L 679.867154 91.622806 
L 682.926085 91.92244 
L 685.985016 93.122884 
L 689.043947 95.199883 
L 692.102878 98.059035 
L 698.22074 104.82954 
L 701.279671 107.291695 
L 704.338602 108.342157 
L 707.397533 108.430158 
L 710.456464 108.160916 
L 716.574326 107.437474 
L 722.692188 107.159195 
L 728.81005 106.997771 
L 731.868981 107.419036 
L 734.927912 108.923029 
L 737.986843 111.915021 
L 741.045774 116.062645 
L 747.163636 125.791044 
L 747.163636 125.791044 
" clip-path="url(#pe0b81b0411)" style="fill: none; stroke-dasharray: 3.7,1.6; stroke-dashoffset: 0; stroke: #8b0000"/>
   </g>
   <g id="patch_3">
    <path d="M 108 181.8 
L 108 43.2 
" style="fill: none; stroke: #000000; stroke-width: 0.8; stroke-linejoin: miter; stroke-linecap: square"/>
   </g>
   <g id="patch_4">
    <path d="M 777.6 181.8 
L 777.6 43.2 
" style="fill: none; stroke: #000000; stroke-width: 0.8; stroke-linejoin: miter; stroke-linecap: square"/>
   </g>
   <g id="patch_5">
    <path d="M 108 181.8 
L 777.6 181.8 
" style="fill: none; stroke: #000000; stroke-width: 0.8; stroke-linejoin: miter; stroke-linecap: square"/>
   </g>
   <g id="patch_6">
    <path d="M 108 43.2 
L 777.6 43.2 
" style="fill: none; stroke: #000000; stroke-width: 0.8; stroke-linejoin: miter; stroke-linecap: square"/>
   </g>
   <g id="legend_1">
    <g id="patch_7">
     <path d="M 650.045139 89.836624 
L 768.5 89.836624 
Q 771.1 89.836624 771.1 87.236624 
L 771.1 52.3 
Q 771.1 49.7 768.5 49.7 
L 650.045139 49.7 
Q 647.445139 49.7 647.445139 52.3 
L 647.445139 87.236624 
Q 647.445139 89.836624 650.045139 89.836624 
z
" style="fill: #ffffff; opacity: 0.8; stroke: #cccccc; stroke-linejoin: miter"/>
    </g>
    <g id="line2d_8">
     <path d="M 652.645139 59.45 
L 665.645139 59.45 
L 678.645139 59.45 
" style="fill: none; stroke: #ff0000; stroke-linecap: square"/>
    </g>
    <g id="text_7">
     <!-- MCMC result -->
     <g transform="translate(689.045139 64) scale(0.13 -0.13)">
      <defs>
       <path id="CMR17-4d" d="M 1338 4224 
C 1299 4320 1293 4320 1158 4320 
L 339 4320 
L 339 4160 
C 781 4160 851 4160 851 3875 
L 851 610 
C 851 451 851 153 339 153 
L 339 -13 
C 486 0 755 0 915 0 
C 1075 0 1344 0 1491 -13 
L 1491 153 
C 979 153 979 451 979 610 
L 979 4135 
L 986 4135 
L 2490 89 
C 2515 25 2528 -13 2579 -13 
C 2630 -13 2643 25 2669 89 
L 4186 4166 
L 4192 4166 
L 4192 438 
C 4192 153 4122 153 3680 153 
L 3680 -13 
C 3853 0 4198 0 4384 0 
C 4570 0 4922 0 5094 -13 
L 5094 153 
C 4653 153 4582 153 4582 438 
L 4582 3875 
C 4582 4160 4653 4160 5094 4160 
L 5094 4320 
L 4282 4320 
C 4147 4320 4141 4314 4102 4218 
L 2720 502 
L 1338 4224 
z
" transform="scale(0.015625)"/>
       <path id="CMR17-43" d="M 3974 4289 
C 3974 4403 3968 4410 3930 4410 
C 3904 4410 3898 4403 3853 4327 
L 3571 3792 
C 3258 4187 2874 4416 2381 4416 
C 1286 4416 294 3456 294 2148 
C 294 826 1286 -128 2387 -128 
C 3366 -128 3974 730 3974 1461 
C 3974 1524 3974 1550 3917 1550 
C 3866 1550 3866 1531 3859 1474 
C 3808 585 3168 38 2477 38 
C 1824 38 781 495 781 2147 
C 781 3805 1843 4250 2464 4250 
C 3187 4250 3712 3628 3834 2745 
C 3846 2668 3846 2655 3904 2655 
C 3974 2655 3974 2668 3974 2783 
L 3974 4289 
z
" transform="scale(0.015625)"/>
       <path id="CMR17-72" d="M 960 1497 
C 960 2112 1222 2688 1702 2688 
C 1747 2688 1792 2682 1837 2662 
C 1837 2662 1696 2617 1696 2452 
C 1696 2298 1818 2234 1914 2234 
C 1990 2234 2131 2279 2131 2458 
C 2131 2663 1926 2790 1709 2790 
C 1222 2790 1011 2317 947 2093 
L 941 2093 
L 941 2790 
L 198 2720 
L 198 2554 
C 576 2554 634 2515 634 2208 
L 634 428 
C 634 184 608 153 198 153 
L 198 -13 
C 352 0 646 0 813 0 
C 998 0 1325 0 1498 -13 
L 1498 153 
C 1037 153 960 153 960 440 
L 960 1497 
z
" transform="scale(0.015625)"/>
       <path id="CMR17-65" d="M 2438 1472 
C 2464 1498 2464 1511 2464 1576 
C 2464 2238 2118 2816 1389 2816 
C 710 2816 173 2169 173 1383 
C 173 551 781 -64 1459 -64 
C 2176 -64 2458 607 2458 740 
C 2458 784 2419 784 2406 784 
C 2362 784 2355 771 2330 696 
C 2189 265 1837 51 1504 51 
C 1229 51 954 203 781 480 
C 582 803 582 1176 582 1472 
L 2438 1472 
z
M 589 1568 
C 634 2505 1126 2714 1382 2714 
C 1818 2714 2112 2297 2118 1568 
L 589 1568 
z
" transform="scale(0.015625)"/>
       <path id="CMR17-73" d="M 1978 2697 
C 1978 2813 1971 2819 1933 2819 
C 1907 2819 1901 2813 1824 2717 
C 1805 2691 1747 2626 1728 2601 
C 1523 2819 1235 2819 1126 2819 
C 416 2819 160 2447 160 2076 
C 160 1498 813 1365 998 1325 
C 1402 1243 1542 1217 1677 1101 
C 1760 1025 1901 884 1901 654 
C 1901 384 1747 38 1158 38 
C 602 38 403 460 288 1021 
C 269 1110 269 1117 218 1117 
C 166 1117 160 1110 160 983 
L 160 63 
C 160 -51 166 -58 205 -58 
C 237 -58 243 -51 275 0 
C 314 57 410 211 448 276 
C 576 103 800 -64 1158 -64 
C 1792 -64 2131 283 2131 784 
C 2131 1112 1958 1285 1875 1362 
C 1683 1561 1459 1606 1190 1657 
C 838 1735 390 1825 390 2217 
C 390 2383 480 2737 1126 2737 
C 1811 2737 1850 2094 1862 1888 
C 1869 1856 1901 1849 1920 1849 
C 1978 1849 1978 1869 1978 1978 
L 1978 2697 
z
" transform="scale(0.015625)"/>
       <path id="CMR17-75" d="M 1882 2693 
L 1882 2528 
C 2259 2528 2317 2489 2317 2186 
L 2317 1032 
C 2317 500 2029 38 1555 38 
C 1030 38 986 348 986 678 
L 986 2763 
L 211 2693 
L 211 2528 
C 467 2528 640 2528 646 2274 
L 646 1058 
C 646 633 646 361 813 183 
C 896 101 1056 -64 1517 -64 
C 2061 -64 2272 377 2323 506 
L 2330 506 
L 2330 -63 
L 3091 -63 
L 3091 128 
C 2714 128 2656 166 2656 473 
L 2656 2763 
L 1882 2693 
z
" transform="scale(0.015625)"/>
       <path id="CMR17-6c" d="M 979 4396 
L 218 4326 
L 218 4160 
C 595 4160 653 4122 653 3817 
L 653 426 
C 653 184 627 153 218 153 
L 218 -13 
C 371 0 653 0 813 0 
C 979 0 1261 0 1414 -13 
L 1414 153 
C 1005 153 979 178 979 426 
L 979 4396 
z
" transform="scale(0.015625)"/>
       <path id="CMR17-74" d="M 966 2560 
L 1862 2560 
L 1862 2725 
L 966 2725 
L 966 3904 
L 851 3904 
C 838 3245 614 2668 70 2668 
L 70 2560 
L 627 2560 
L 627 771 
C 627 650 627 -64 1370 -64 
C 1747 -64 1965 306 1965 777 
L 1965 1140 
L 1850 1140 
L 1850 783 
C 1850 344 1677 51 1408 51 
C 1222 51 966 178 966 758 
L 966 2560 
z
" transform="scale(0.015625)"/>
      </defs>
      <use xlink:href="#CMR17-4d" transform="scale(0.996264)"/>
      <use xlink:href="#CMR17-43" transform="translate(84.686941 0) scale(0.996264)"/>
      <use xlink:href="#CMR17-4d" transform="translate(151.196821 0) scale(0.996264)"/>
      <use xlink:href="#CMR17-43" transform="translate(235.883762 0) scale(0.996264)"/>
      <use xlink:href="#CMR17-72" transform="translate(332.469609 0) scale(0.996264)"/>
      <use xlink:href="#CMR17-65" transform="translate(367.750376 0) scale(0.996264)"/>
      <use xlink:href="#CMR17-73" transform="translate(408.236037 0) scale(0.996264)"/>
      <use xlink:href="#CMR17-75" transform="translate(444.037374 0) scale(0.996264)"/>
      <use xlink:href="#CMR17-6c" transform="translate(494.932744 0) scale(0.996264)"/>
      <use xlink:href="#CMR17-74" transform="translate(519.803803 0) scale(0.996264)"/>
     </g>
    </g>
    <g id="line2d_9">
     <path d="M 652.645139 77.568312 
L 665.645139 77.568312 
L 678.645139 77.568312 
" style="fill: none; stroke-dasharray: 3.7,1.6; stroke-dashoffset: 0; stroke: #8b0000"/>
    </g>
    <g id="text_8">
     <!-- Experiment -->
     <g transform="translate(689.045139 82.118312) scale(0.13 -0.13)">
      <defs>
       <path id="CMR17-45" d="M 3885 1615 
L 3770 1615 
C 3629 676 3546 166 2419 166 
L 1530 166 
C 1274 166 1261 197 1261 414 
L 1261 2176 
L 1862 2176 
C 2464 2176 2522 1960 2522 1430 
L 2637 1430 
L 2637 3081 
L 2522 3081 
C 2522 2557 2464 2342 1862 2342 
L 1261 2342 
L 1261 3913 
C 1261 4128 1274 4160 1530 4160 
L 2406 4160 
C 3398 4160 3514 3769 3603 2929 
L 3718 2929 
L 3565 4325 
L 326 4325 
L 326 4160 
C 768 4160 838 4160 838 3874 
L 838 451 
C 838 166 768 166 326 166 
L 326 0 
L 3654 0 
L 3885 1615 
z
" transform="scale(0.015625)"/>
       <path id="CMR17-78" d="M 1664 1477 
C 1856 1726 2074 2006 2253 2216 
C 2464 2458 2707 2560 2989 2560 
L 2989 2726 
C 2880 2726 2656 2726 2541 2726 
C 2368 2726 2170 2726 2022 2732 
L 2022 2566 
C 2112 2553 2163 2489 2163 2400 
C 2163 2285 2099 2215 2067 2171 
L 1594 1573 
L 1030 2306 
C 973 2376 973 2388 973 2420 
C 973 2497 1037 2560 1146 2560 
L 1146 2732 
C 992 2726 717 2726 557 2726 
C 384 2726 179 2726 38 2732 
L 38 2560 
C 384 2560 461 2534 614 2343 
L 1350 1395 
C 1363 1382 1395 1344 1395 1325 
C 1395 1299 838 619 768 530 
C 480 185 179 160 6 160 
L 6 0 
C 115 0 339 0 454 0 
C 582 0 864 0 979 -6 
L 979 160 
C 941 166 838 179 838 325 
C 838 440 890 510 947 586 
L 1478 1236 
L 2035 512 
C 2086 442 2163 346 2163 301 
C 2163 211 2086 160 1984 160 
L 1984 -6 
C 2138 0 2413 0 2573 0 
C 2746 0 2950 0 3091 -6 
L 3091 160 
C 2771 160 2675 172 2522 370 
L 1664 1477 
z
" transform="scale(0.015625)"/>
       <path id="CMR17-70" d="M 1408 -1063 
C 998 -1063 973 -1037 973 -789 
L 973 402 
C 1158 134 1427 -38 1766 -38 
C 2406 -38 3053 523 3053 1388 
C 3053 2191 2496 2802 1837 2802 
C 1453 2802 1139 2592 960 2338 
L 960 2802 
L 198 2732 
L 198 2567 
C 576 2567 634 2528 634 2223 
L 634 -789 
C 634 -1031 608 -1063 198 -1063 
L 198 -1228 
C 352 -1216 634 -1216 800 -1216 
C 966 -1216 1254 -1216 1408 -1228 
L 1408 -1063 
z
M 973 2012 
C 973 2102 973 2235 1222 2471 
C 1254 2497 1472 2688 1792 2688 
C 2259 2688 2643 2108 2643 1382 
C 2643 656 2234 64 1728 64 
C 1498 64 1248 172 1056 472 
C 973 612 973 650 973 752 
L 973 2012 
z
" transform="scale(0.015625)"/>
       <path id="CMR17-69" d="M 992 3909 
C 992 4049 877 4170 730 4170 
C 589 4170 467 4056 467 3909 
C 467 3769 582 3648 730 3648 
C 870 3648 992 3763 992 3909 
z
M 243 2706 
L 243 2541 
C 602 2541 653 2502 653 2197 
L 653 427 
C 653 184 627 153 218 153 
L 218 -13 
C 371 0 646 0 806 0 
C 960 0 1222 0 1370 -13 
L 1370 153 
C 992 153 979 191 979 420 
L 979 2776 
L 243 2706 
z
" transform="scale(0.015625)"/>
       <path id="CMR17-6e" d="M 2656 1933 
C 2656 2259 2592 2790 1837 2790 
C 1331 2790 1069 2400 973 2144 
L 966 2144 
L 966 2790 
L 211 2720 
L 211 2554 
C 589 2554 646 2515 646 2208 
L 646 428 
C 646 184 621 153 211 153 
L 211 -13 
C 365 0 646 0 813 0 
C 979 0 1267 0 1421 -13 
L 1421 153 
C 1011 153 986 178 986 428 
L 986 1658 
C 986 2247 1344 2688 1792 2688 
C 2266 2688 2317 2266 2317 1958 
L 2317 428 
C 2317 184 2291 153 1882 153 
L 1882 -13 
C 2035 0 2317 0 2483 0 
C 2650 0 2938 0 3091 -13 
L 3091 153 
C 2682 153 2656 178 2656 428 
L 2656 1933 
z
" transform="scale(0.015625)"/>
      </defs>
      <use xlink:href="#CMR17-45" transform="scale(0.996264)"/>
      <use xlink:href="#CMR17-78" transform="translate(62.586301 0) scale(0.996264)"/>
      <use xlink:href="#CMR17-70" transform="translate(110.879216 0) scale(0.996264)"/>
      <use xlink:href="#CMR17-65" transform="translate(164.377025 0) scale(0.996264)"/>
      <use xlink:href="#CMR17-72" transform="translate(204.862685 0) scale(0.996264)"/>
      <use xlink:href="#CMR17-69" transform="translate(240.143453 0) scale(0.996264)"/>
      <use xlink:href="#CMR17-6d" transform="translate(265.014512 0) scale(0.996264)"/>
      <use xlink:href="#CMR17-65" transform="translate(341.934101 0) scale(0.996264)"/>
      <use xlink:href="#CMR17-6e" transform="translate(382.419762 0) scale(0.996264)"/>
      <use xlink:href="#CMR17-74" transform="translate(430.712678 0) scale(0.996264)"/>
     </g>
    </g>
   </g>
  </g>
  <g id="axes_2">
   <g id="patch_8">
    <path d="M 108 320.4 
L 777.6 320.4 
L 777.6 181.8 
L 108 181.8 
z
" style="fill: #ffffff"/>
   </g>
   <g id="matplotlib.axis_3">
    <g id="xtick_1">
     <g id="line2d_10">
      <defs>
       <path id="m89101c40e1" d="M 0 0 
L 0 3.5 
" style="stroke: #000000; stroke-width: 0.8"/>
      </defs>
      <g>
       <use xlink:href="#m89101c40e1" x="138.436364" y="320.4" style="stroke: #000000; stroke-width: 0.8"/>
      </g>
     </g>
     <g id="text_9">
      <!-- $\mathdefault{0.00}$ -->
      <g transform="translate(127.163938 336.394028) scale(0.13 -0.13)">
       <use xlink:href="#CMR17-30" transform="scale(0.996264)"/>
       <use xlink:href="#CMMI12-3a" transform="translate(45.690477 0) scale(0.996264)"/>
       <use xlink:href="#CMR17-30" transform="translate(72.787654 0) scale(0.996264)"/>
       <use xlink:href="#CMR17-30" transform="translate(118.478131 0) scale(0.996264)"/>
      </g>
     </g>
    </g>
    <g id="xtick_2">
     <g id="line2d_11">
      <g>
       <use xlink:href="#m89101c40e1" x="214.909639" y="320.4" style="stroke: #000000; stroke-width: 0.8"/>
      </g>
     </g>
     <g id="text_10">
      <!-- $\mathdefault{0.25}$ -->
      <g transform="translate(203.637213 336.394028) scale(0.13 -0.13)">
       <defs>
        <path id="CMR17-35" d="M 730 3692 
C 794 3666 1056 3584 1325 3584 
C 1920 3584 2246 3911 2432 4100 
C 2432 4157 2432 4192 2394 4192 
C 2387 4192 2374 4192 2323 4163 
C 2099 4058 1837 3973 1517 3973 
C 1325 3973 1037 3999 723 4139 
C 653 4171 640 4171 634 4171 
C 602 4171 595 4164 595 4037 
L 595 2203 
C 595 2089 595 2057 659 2057 
C 691 2057 704 2070 736 2114 
C 941 2401 1222 2522 1542 2522 
C 1766 2522 2246 2382 2246 1289 
C 2246 1085 2246 715 2054 421 
C 1894 159 1645 25 1370 25 
C 947 25 518 320 403 814 
C 429 807 480 795 506 795 
C 589 795 749 840 749 1038 
C 749 1210 627 1280 506 1280 
C 358 1280 262 1190 262 1011 
C 262 454 704 -128 1382 -128 
C 2042 -128 2669 440 2669 1264 
C 2669 2030 2170 2624 1549 2624 
C 1222 2624 947 2503 730 2274 
L 730 3692 
z
" transform="scale(0.015625)"/>
       </defs>
       <use xlink:href="#CMR17-30" transform="scale(0.996264)"/>
       <use xlink:href="#CMMI12-3a" transform="translate(45.690477 0) scale(0.996264)"/>
       <use xlink:href="#CMR17-32" transform="translate(72.787654 0) scale(0.996264)"/>
       <use xlink:href="#CMR17-35" transform="translate(118.478131 0) scale(0.996264)"/>
      </g>
     </g>
    </g>
    <g id="xtick_3">
     <g id="line2d_12">
      <g>
       <use xlink:href="#m89101c40e1" x="291.382915" y="320.4" style="stroke: #000000; stroke-width: 0.8"/>
      </g>
     </g>
     <g id="text_11">
      <!-- $\mathdefault{0.50}$ -->
      <g transform="translate(280.110489 336.394028) scale(0.13 -0.13)">
       <use xlink:href="#CMR17-30" transform="scale(0.996264)"/>
       <use xlink:href="#CMMI12-3a" transform="translate(45.690477 0) scale(0.996264)"/>
       <use xlink:href="#CMR17-35" transform="translate(72.787654 0) scale(0.996264)"/>
       <use xlink:href="#CMR17-30" transform="translate(118.478131 0) scale(0.996264)"/>
      </g>
     </g>
    </g>
    <g id="xtick_4">
     <g id="line2d_13">
      <g>
       <use xlink:href="#m89101c40e1" x="367.85619" y="320.4" style="stroke: #000000; stroke-width: 0.8"/>
      </g>
     </g>
     <g id="text_12">
      <!-- $\mathdefault{0.75}$ -->
      <g transform="translate(356.583764 336.394028) scale(0.13 -0.13)">
       <defs>
        <path id="CMR17-37" d="M 2886 3941 
L 2886 4081 
L 1382 4081 
C 634 4081 621 4165 595 4288 
L 480 4288 
L 294 3094 
L 410 3094 
C 429 3215 474 3540 550 3661 
C 589 3712 1062 3712 1171 3712 
L 2579 3712 
L 1869 2661 
C 1395 1954 1069 999 1069 165 
C 1069 89 1069 -128 1299 -128 
C 1530 -128 1530 89 1530 171 
L 1530 465 
C 1530 1508 1709 2196 2003 2636 
L 2886 3941 
z
" transform="scale(0.015625)"/>
       </defs>
       <use xlink:href="#CMR17-30" transform="scale(0.996264)"/>
       <use xlink:href="#CMMI12-3a" transform="translate(45.690477 0) scale(0.996264)"/>
       <use xlink:href="#CMR17-37" transform="translate(72.787654 0) scale(0.996264)"/>
       <use xlink:href="#CMR17-35" transform="translate(118.478131 0) scale(0.996264)"/>
      </g>
     </g>
    </g>
    <g id="xtick_5">
     <g id="line2d_14">
      <g>
       <use xlink:href="#m89101c40e1" x="444.329466" y="320.4" style="stroke: #000000; stroke-width: 0.8"/>
      </g>
     </g>
     <g id="text_13">
      <!-- $\mathdefault{1.00}$ -->
      <g transform="translate(433.05704 336.394028) scale(0.13 -0.13)">
       <use xlink:href="#CMR17-31" transform="scale(0.996264)"/>
       <use xlink:href="#CMMI12-3a" transform="translate(45.690477 0) scale(0.996264)"/>
       <use xlink:href="#CMR17-30" transform="translate(72.787654 0) scale(0.996264)"/>
       <use xlink:href="#CMR17-30" transform="translate(118.478131 0) scale(0.996264)"/>
      </g>
     </g>
    </g>
    <g id="xtick_6">
     <g id="line2d_15">
      <g>
       <use xlink:href="#m89101c40e1" x="520.802741" y="320.4" style="stroke: #000000; stroke-width: 0.8"/>
      </g>
     </g>
     <g id="text_14">
      <!-- $\mathdefault{1.25}$ -->
      <g transform="translate(509.530315 336.394028) scale(0.13 -0.13)">
       <use xlink:href="#CMR17-31" transform="scale(0.996264)"/>
       <use xlink:href="#CMMI12-3a" transform="translate(45.690477 0) scale(0.996264)"/>
       <use xlink:href="#CMR17-32" transform="translate(72.787654 0) scale(0.996264)"/>
       <use xlink:href="#CMR17-35" transform="translate(118.478131 0) scale(0.996264)"/>
      </g>
     </g>
    </g>
    <g id="xtick_7">
     <g id="line2d_16">
      <g>
       <use xlink:href="#m89101c40e1" x="597.276016" y="320.4" style="stroke: #000000; stroke-width: 0.8"/>
      </g>
     </g>
     <g id="text_15">
      <!-- $\mathdefault{1.50}$ -->
      <g transform="translate(586.003591 336.394028) scale(0.13 -0.13)">
       <use xlink:href="#CMR17-31" transform="scale(0.996264)"/>
       <use xlink:href="#CMMI12-3a" transform="translate(45.690477 0) scale(0.996264)"/>
       <use xlink:href="#CMR17-35" transform="translate(72.787654 0) scale(0.996264)"/>
       <use xlink:href="#CMR17-30" transform="translate(118.478131 0) scale(0.996264)"/>
      </g>
     </g>
    </g>
    <g id="xtick_8">
     <g id="line2d_17">
      <g>
       <use xlink:href="#m89101c40e1" x="673.749292" y="320.4" style="stroke: #000000; stroke-width: 0.8"/>
      </g>
     </g>
     <g id="text_16">
      <!-- $\mathdefault{1.75}$ -->
      <g transform="translate(662.476866 336.394028) scale(0.13 -0.13)">
       <use xlink:href="#CMR17-31" transform="scale(0.996264)"/>
       <use xlink:href="#CMMI12-3a" transform="translate(45.690477 0) scale(0.996264)"/>
       <use xlink:href="#CMR17-37" transform="translate(72.787654 0) scale(0.996264)"/>
       <use xlink:href="#CMR17-35" transform="translate(118.478131 0) scale(0.996264)"/>
      </g>
     </g>
    </g>
    <g id="xtick_9">
     <g id="line2d_18">
      <g>
       <use xlink:href="#m89101c40e1" x="750.222567" y="320.4" style="stroke: #000000; stroke-width: 0.8"/>
      </g>
     </g>
     <g id="text_17">
      <!-- $\mathdefault{2.00}$ -->
      <g transform="translate(738.950142 336.394028) scale(0.13 -0.13)">
       <use xlink:href="#CMR17-32" transform="scale(0.996264)"/>
       <use xlink:href="#CMMI12-3a" transform="translate(45.690477 0) scale(0.996264)"/>
       <use xlink:href="#CMR17-30" transform="translate(72.787654 0) scale(0.996264)"/>
       <use xlink:href="#CMR17-30" transform="translate(118.478131 0) scale(0.996264)"/>
      </g>
     </g>
    </g>
    <g id="text_18">
     <!-- time (sec) -->
     <g transform="translate(415.28824 352.625914) scale(0.13 -0.13)">
      <defs>
       <path id="CMR17-63" d="M 2234 2240 
C 2112 2240 1933 2240 1933 2017 
C 1933 1838 2080 1787 2163 1787 
C 2208 1787 2394 1807 2394 2024 
C 2394 2467 1958 2803 1466 2803 
C 787 2803 211 2178 211 1363 
C 211 516 813 -64 1466 -64 
C 2259 -64 2458 677 2458 748 
C 2458 774 2451 793 2406 793 
C 2362 793 2355 787 2330 703 
C 2163 180 1798 51 1523 51 
C 1114 51 621 427 621 1369 
C 621 2338 1094 2688 1472 2688 
C 1722 2688 2093 2573 2234 2240 
z
" transform="scale(0.015625)"/>
      </defs>
      <use xlink:href="#CMR17-74" transform="scale(0.996264)"/>
      <use xlink:href="#CMR17-69" transform="translate(35.280768 0) scale(0.996264)"/>
      <use xlink:href="#CMR17-6d" transform="translate(60.151826 0) scale(0.996264)"/>
      <use xlink:href="#CMR17-65" transform="translate(137.071416 0) scale(0.996264)"/>
      <use xlink:href="#CMR17-28" transform="translate(207.633043 0) scale(0.996264)"/>
      <use xlink:href="#CMR17-73" transform="translate(242.913811 0) scale(0.996264)"/>
      <use xlink:href="#CMR17-65" transform="translate(278.715148 0) scale(0.996264)"/>
      <use xlink:href="#CMR17-63" transform="translate(319.200809 0) scale(0.996264)"/>
      <use xlink:href="#CMR17-29" transform="translate(359.686469 0) scale(0.996264)"/>
     </g>
    </g>
   </g>
   <g id="matplotlib.axis_4">
    <g id="ytick_6">
     <g id="line2d_19">
      <g>
       <use xlink:href="#m797290ce71" x="108" y="308.167121" style="stroke: #000000; stroke-width: 0.8"/>
      </g>
     </g>
     <g id="text_19">
      <!-- $\mathdefault{−0.04}$ -->
      <g transform="translate(68.381779 312.664135) scale(0.13 -0.13)">
       <use xlink:href="#CMSY10-0" transform="scale(0.996264)"/>
       <use xlink:href="#CMR17-30" transform="translate(77.487468 0) scale(0.996264)"/>
       <use xlink:href="#CMMI12-3a" transform="translate(123.177945 0) scale(0.996264)"/>
       <use xlink:href="#CMR17-30" transform="translate(150.275122 0) scale(0.996264)"/>
       <use xlink:href="#CMR17-34" transform="translate(195.965599 0) scale(0.996264)"/>
      </g>
     </g>
    </g>
    <g id="ytick_7">
     <g id="line2d_20">
      <g>
       <use xlink:href="#m797290ce71" x="108" y="278.404482" style="stroke: #000000; stroke-width: 0.8"/>
      </g>
     </g>
     <g id="text_20">
      <!-- $\mathdefault{−0.02}$ -->
      <g transform="translate(68.381779 282.901497) scale(0.13 -0.13)">
       <use xlink:href="#CMSY10-0" transform="scale(0.996264)"/>
       <use xlink:href="#CMR17-30" transform="translate(77.487468 0) scale(0.996264)"/>
       <use xlink:href="#CMMI12-3a" transform="translate(123.177945 0) scale(0.996264)"/>
       <use xlink:href="#CMR17-30" transform="translate(150.275122 0) scale(0.996264)"/>
       <use xlink:href="#CMR17-32" transform="translate(195.965599 0) scale(0.996264)"/>
      </g>
     </g>
    </g>
    <g id="ytick_8">
     <g id="line2d_21">
      <g>
       <use xlink:href="#m797290ce71" x="108" y="248.641844" style="stroke: #000000; stroke-width: 0.8"/>
      </g>
     </g>
     <g id="text_21">
      <!-- $\mathdefault{0.00}$ -->
      <g transform="translate(78.455149 253.138858) scale(0.13 -0.13)">
       <use xlink:href="#CMR17-30" transform="scale(0.996264)"/>
       <use xlink:href="#CMMI12-3a" transform="translate(45.690477 0) scale(0.996264)"/>
       <use xlink:href="#CMR17-30" transform="translate(72.787654 0) scale(0.996264)"/>
       <use xlink:href="#CMR17-30" transform="translate(118.478131 0) scale(0.996264)"/>
      </g>
     </g>
    </g>
    <g id="ytick_9">
     <g id="line2d_22">
      <g>
       <use xlink:href="#m797290ce71" x="108" y="218.879206" style="stroke: #000000; stroke-width: 0.8"/>
      </g>
     </g>
     <g id="text_22">
      <!-- $\mathdefault{0.02}$ -->
      <g transform="translate(78.455149 223.37622) scale(0.13 -0.13)">
       <use xlink:href="#CMR17-30" transform="scale(0.996264)"/>
       <use xlink:href="#CMMI12-3a" transform="translate(45.690477 0) scale(0.996264)"/>
       <use xlink:href="#CMR17-30" transform="translate(72.787654 0) scale(0.996264)"/>
       <use xlink:href="#CMR17-32" transform="translate(118.478131 0) scale(0.996264)"/>
      </g>
     </g>
    </g>
    <g id="ytick_10">
     <g id="line2d_23">
      <g>
       <use xlink:href="#m797290ce71" x="108" y="189.116567" style="stroke: #000000; stroke-width: 0.8"/>
      </g>
     </g>
     <g id="text_23">
      <!-- $\mathdefault{0.04}$ -->
      <g transform="translate(78.455149 193.613581) scale(0.13 -0.13)">
       <use xlink:href="#CMR17-30" transform="scale(0.996264)"/>
       <use xlink:href="#CMMI12-3a" transform="translate(45.690477 0) scale(0.996264)"/>
       <use xlink:href="#CMR17-30" transform="translate(72.787654 0) scale(0.996264)"/>
       <use xlink:href="#CMR17-34" transform="translate(118.478131 0) scale(0.996264)"/>
      </g>
     </g>
    </g>
    <g id="text_24">
     <!-- $x_2$ (m) -->
     <g transform="translate(61.143921 269.610922) rotate(-90) scale(0.13 -0.13)">
      <use xlink:href="#CMMI12-78" transform="scale(0.996264)"/>
      <use xlink:href="#CMR17-32" transform="translate(55.43406 -14.943915) scale(0.697382)"/>
      <use xlink:href="#CMR17-28" transform="translate(117.99134 0) scale(0.996264)"/>
      <use xlink:href="#CMR17-6d" transform="translate(153.272108 0) scale(0.996264)"/>
      <use xlink:href="#CMR17-29" transform="translate(230.191698 0) scale(0.996264)"/>
     </g>
    </g>
   </g>
   <g id="line2d_24">
    <path d="M 138.436364 252.640329 
L 141.495295 240.809646 
L 144.554226 230.698421 
L 147.613157 222.934011 
L 150.672088 217.937861 
L 153.731019 215.897077 
L 156.78995 216.754761 
L 159.848881 220.219743 
L 162.907812 225.794798 
L 165.966743 232.820996 
L 172.084605 248.131706 
L 175.143536 254.836118 
L 178.202467 259.963896 
L 181.261398 262.980586 
L 184.320329 263.545887 
L 187.37926 261.54244 
L 190.438191 257.086419 
L 193.497122 250.51909 
L 196.556053 242.380005 
L 202.673915 224.264994 
L 205.732846 215.912288 
L 208.791777 209.102314 
L 211.850708 204.533339 
L 214.909639 202.74704 
L 217.96857 204.082034 
L 221.027501 208.643005 
L 224.086432 216.287942 
L 227.145363 226.634558 
L 230.204294 239.085483 
L 239.381087 280.839513 
L 242.440018 293.162053 
L 245.498949 303.233243 
L 248.55788 310.365653 
L 251.616811 314.071705 
L 254.675742 314.1 
L 257.734673 310.453865 
L 260.793604 303.390716 
L 263.852535 293.402306 
L 266.911466 281.177431 
L 273.029328 253.436419 
L 276.088259 239.767421 
L 279.14719 227.419117 
L 282.206122 217.14906 
L 285.265053 209.54192 
L 288.323984 204.968991 
L 291.382915 203.564547 
L 294.441846 205.220755 
L 297.500777 209.6014 
L 300.559708 216.173197 
L 303.618639 224.252118 
L 309.736501 241.793636 
L 312.795432 249.680842 
L 315.854363 256.052262 
L 318.913294 260.390052 
L 321.972225 262.36961 
L 325.031156 261.884385 
L 328.090087 259.052827 
L 331.149018 254.206985 
L 334.207949 247.863711 
L 340.325811 233.401705 
L 343.384742 226.792903 
L 346.443673 221.579511 
L 349.502604 218.383703 
L 352.561535 217.671218 
L 355.620466 219.71011 
L 358.679397 224.545106 
L 361.738328 231.989645 
L 364.797259 241.63632 
L 367.85619 252.884973 
L 373.974052 277.097727 
L 377.032983 288.346892 
L 380.091914 297.898382 
L 383.150845 305.01797 
L 386.209776 309.129691 
L 389.268707 309.861198 
L 392.327638 307.07386 
L 395.386569 300.875262 
L 398.4455 291.613091 
L 401.504431 279.850855 
L 404.563362 266.327303 
L 410.681224 237.49565 
L 413.740155 224.016644 
L 416.799086 212.301215 
L 419.858017 203.05002 
L 422.916948 196.77909 
L 425.975879 193.784443 
L 429.03481 194.123651 
L 432.093741 197.615655 
L 435.152672 203.858744 
L 438.211603 212.265167 
L 441.270534 222.109588 
L 447.388397 242.879108 
L 450.447328 252.213269 
L 453.506259 259.927139 
L 456.56519 265.516233 
L 459.624121 268.671421 
L 462.683052 269.299919 
L 465.741983 267.528723 
L 468.800914 263.690352 
L 471.859845 258.292107 
L 481.036638 239.427067 
L 484.095569 234.60946 
L 487.1545 231.561693 
L 490.213431 230.702703 
L 493.272362 232.259882 
L 496.331293 236.247822 
L 499.390224 242.464282 
L 502.449155 250.503746 
L 505.508086 259.787533 
L 511.625948 279.184294 
L 514.684879 287.722565 
L 517.74381 294.480423 
L 520.802741 298.826066 
L 523.861672 300.290125 
L 526.920603 298.605212 
L 529.979534 293.730169 
L 533.038465 285.857046 
L 536.097396 275.400198 
L 539.156327 262.968289 
L 548.33312 221.842664 
L 551.392051 209.762175 
L 554.450982 199.841062 
L 557.509913 192.696808 
L 560.568844 188.753125 
L 563.627775 188.210122 
L 566.686706 191.031368 
L 569.745637 196.948804 
L 572.804568 205.485028 
L 575.863499 215.991187 
L 585.040292 251.384991 
L 588.099223 261.769196 
L 591.158154 270.278303 
L 594.217085 276.432661 
L 597.276016 279.95248 
L 600.334947 280.774835 
L 603.393878 279.053433 
L 606.45281 275.141313 
L 609.511741 269.557968 
L 612.570672 262.943592 
L 615.629603 256.00418 
L 618.688534 249.451885 
L 621.747465 243.945404 
L 624.806396 240.035155 
L 627.865327 238.117599 
L 630.924258 238.402331 
L 633.983189 240.894541 
L 637.04212 245.39423 
L 640.101051 251.512234 
L 643.159982 258.701763 
L 646.218913 266.302957 
L 649.277844 273.596912 
L 652.336775 279.864879 
L 655.395706 284.44794 
L 658.454637 286.802397 
L 661.513568 286.54647 
L 664.572499 283.494559 
L 667.63143 277.676298 
L 670.690361 269.338827 
L 673.749292 258.932017 
L 676.808223 247.077711 
L 682.926085 222.09711 
L 685.985016 210.627526 
L 689.043947 200.900988 
L 692.102878 193.593193 
L 695.161809 189.220305 
L 698.22074 188.1 
L 701.279671 190.327373 
L 704.338602 195.767537 
L 707.397533 204.065497 
L 710.456464 214.672507 
L 713.515395 226.886872 
L 719.633257 252.88592 
L 722.692188 265.002976 
L 725.751119 275.514136 
L 728.81005 283.810128 
L 731.868981 289.458065 
L 734.927912 292.230135 
L 737.986843 292.116252 
L 741.045774 289.319845 
L 744.104705 284.237226 
L 747.163636 277.422292 
L 747.163636 277.422292 
" clip-path="url(#pd98bcb6567)" style="fill: none; stroke: #0000ff; stroke-linecap: square"/>
   </g>
   <g id="line2d_25">
    <path d="M 138.436364 267.382307 
L 141.495295 252.640329 
L 144.554226 242.302305 
L 147.613157 235.812651 
L 150.672088 232.615785 
L 153.731019 232.156122 
L 156.78995 233.87808 
L 159.848881 237.247033 
L 162.907812 241.812188 
L 169.025674 252.6618 
L 172.084605 257.186755 
L 175.143536 259.388913 
L 178.202467 258.319905 
L 181.261398 254.556566 
L 184.320329 249.057025 
L 193.497122 230.122318 
L 196.556053 224.953689 
L 199.614984 220.740689 
L 202.673915 217.40942 
L 205.732846 214.955013 
L 208.791777 213.648718 
L 211.850708 213.830817 
L 214.909639 215.789227 
L 217.96857 219.602423 
L 221.027501 225.296519 
L 224.086432 232.89684 
L 227.145363 242.425565 
L 230.204294 253.904084 
L 233.263225 266.836364 
L 236.322156 278.656678 
L 239.381087 286.991876 
L 242.440018 292.308819 
L 245.498949 295.784368 
L 248.55788 298.293031 
L 251.616811 299.499902 
L 254.675742 298.767718 
L 257.734673 295.60778 
L 260.793604 290.125644 
L 263.852535 282.575425 
L 266.911466 273.355022 
L 269.970397 263.437453 
L 273.029328 253.939515 
L 276.088259 245.804435 
L 279.14719 239.28114 
L 282.206122 234.444987 
L 285.265053 231.304809 
L 288.323984 229.603354 
L 291.382915 229.016849 
L 294.441846 229.337833 
L 297.500777 230.824094 
L 300.559708 233.849734 
L 303.618639 238.543663 
L 306.67757 244.054028 
L 309.736501 249.283788 
L 312.795432 253.307989 
L 315.854363 255.890026 
L 318.913294 256.965383 
L 321.972225 256.465475 
L 325.031156 254.305438 
L 328.090087 250.396344 
L 331.149018 245.026553 
L 334.207949 239.993593 
L 337.26688 236.981092 
L 340.325811 235.707892 
L 343.384742 235.401643 
L 346.443673 235.532728 
L 349.502604 236.542459 
L 352.561535 239.114887 
L 355.620466 243.714256 
L 358.679397 249.925612 
L 361.738328 257.114197 
L 367.85619 272.570705 
L 373.974052 288.328446 
L 377.032983 295.343004 
L 380.091914 300.773153 
L 383.150845 303.932121 
L 386.209776 304.521327 
L 389.268707 302.339234 
L 392.327638 297.395755 
L 395.386569 290.546589 
L 401.504431 275.134339 
L 404.563362 267.112953 
L 407.622293 258.26927 
L 413.740155 238.263427 
L 416.799086 229.144403 
L 419.858017 222.019251 
L 422.916948 217.325175 
L 425.975879 215.35438 
L 429.03481 216.213825 
L 432.093741 219.269486 
L 435.152672 223.702092 
L 441.270534 233.878209 
L 444.329466 238.611756 
L 447.388397 242.664009 
L 450.447328 246.509854 
L 453.506259 250.814438 
L 456.56519 255.906336 
L 459.624121 260.767833 
L 462.683052 264.04464 
L 465.741983 264.753177 
L 468.800914 263.392696 
L 471.859845 260.837918 
L 474.918776 257.982603 
L 477.977707 255.725274 
L 481.036638 254.736997 
L 484.095569 254.779018 
L 487.1545 255.385129 
L 490.213431 256.234964 
L 493.272362 257.591535 
L 496.331293 259.863698 
L 499.390224 263.310415 
L 502.449155 267.591079 
L 508.567017 276.758856 
L 511.625948 281.06458 
L 514.684879 285.041472 
L 517.74381 288.49053 
L 520.802741 290.780285 
L 523.861672 291.171159 
L 526.920603 289.128016 
L 529.979534 284.933518 
L 533.038465 279.074772 
L 536.097396 271.957512 
L 539.156327 263.661977 
L 548.33312 235.571715 
L 551.392051 227.734234 
L 554.450982 221.37399 
L 557.509913 216.566145 
L 560.568844 213.419695 
L 563.627775 212.178982 
L 566.686706 213.122182 
L 569.745637 216.353209 
L 572.804568 221.278913 
L 575.863499 227.131882 
L 578.92243 233.337602 
L 581.981361 240.093167 
L 585.040292 247.78857 
L 591.158154 264.9071 
L 594.217085 271.46404 
L 597.276016 275.033788 
L 600.334947 276.414825 
L 606.45281 277.401987 
L 609.511741 277.640721 
L 612.570672 276.955956 
L 615.629603 274.894868 
L 618.688534 271.774677 
L 624.806396 264.474323 
L 627.865327 261.784096 
L 630.924258 260.761446 
L 633.983189 261.120616 
L 637.04212 262.322658 
L 640.101051 263.892928 
L 646.218913 267.332703 
L 649.277844 268.908658 
L 652.336775 270.252321 
L 655.395706 271.286882 
L 658.454637 271.854462 
L 661.513568 271.472926 
L 664.572499 269.579073 
L 667.63143 265.752481 
L 670.690361 260.143844 
L 673.749292 253.046636 
L 682.926085 228.400337 
L 685.985016 221.673329 
L 689.043947 215.888848 
L 692.102878 210.542754 
L 695.161809 205.569608 
L 698.22074 202.658765 
L 701.279671 203.938283 
L 704.338602 210.55004 
L 707.397533 219.691222 
L 710.456464 228.305176 
L 719.633257 252.44486 
L 722.692188 260.704836 
L 725.751119 268.388568 
L 728.81005 274.969941 
L 731.868981 280.081968 
L 734.927912 283.397441 
L 737.986843 284.718094 
L 741.045774 284.361417 
L 744.104705 282.773843 
L 747.163636 280.35884 
L 747.163636 280.35884 
" clip-path="url(#pd98bcb6567)" style="fill: none; stroke-dasharray: 3.7,1.6; stroke-dashoffset: 0; stroke: #00008b"/>
   </g>
   <g id="patch_9">
    <path d="M 108 320.4 
L 108 181.8 
" style="fill: none; stroke: #000000; stroke-width: 0.8; stroke-linejoin: miter; stroke-linecap: square"/>
   </g>
   <g id="patch_10">
    <path d="M 777.6 320.4 
L 777.6 181.8 
" style="fill: none; stroke: #000000; stroke-width: 0.8; stroke-linejoin: miter; stroke-linecap: square"/>
   </g>
   <g id="patch_11">
    <path d="M 108 320.4 
L 777.6 320.4 
" style="fill: none; stroke: #000000; stroke-width: 0.8; stroke-linejoin: miter; stroke-linecap: square"/>
   </g>
   <g id="patch_12">
    <path d="M 108 181.8 
L 777.6 181.8 
" style="fill: none; stroke: #000000; stroke-width: 0.8; stroke-linejoin: miter; stroke-linecap: square"/>
   </g>
   <g id="legend_2">
    <g id="patch_13">
     <path d="M 650.045139 228.436624 
L 768.5 228.436624 
Q 771.1 228.436624 771.1 225.836624 
L 771.1 190.9 
Q 771.1 188.3 768.5 188.3 
L 650.045139 188.3 
Q 647.445139 188.3 647.445139 190.9 
L 647.445139 225.836624 
Q 647.445139 228.436624 650.045139 228.436624 
z
" style="fill: #ffffff; opacity: 0.8; stroke: #cccccc; stroke-linejoin: miter"/>
    </g>
    <g id="line2d_26">
     <path d="M 652.645139 198.05 
L 665.645139 198.05 
L 678.645139 198.05 
" style="fill: none; stroke: #0000ff; stroke-linecap: square"/>
    </g>
    <g id="text_25">
     <!-- MCMC result -->
     <g transform="translate(689.045139 202.6) scale(0.13 -0.13)">
      <use xlink:href="#CMR17-4d" transform="scale(0.996264)"/>
      <use xlink:href="#CMR17-43" transform="translate(84.686941 0) scale(0.996264)"/>
      <use xlink:href="#CMR17-4d" transform="translate(151.196821 0) scale(0.996264)"/>
      <use xlink:href="#CMR17-43" transform="translate(235.883762 0) scale(0.996264)"/>
      <use xlink:href="#CMR17-72" transform="translate(332.469609 0) scale(0.996264)"/>
      <use xlink:href="#CMR17-65" transform="translate(367.750376 0) scale(0.996264)"/>
      <use xlink:href="#CMR17-73" transform="translate(408.236037 0) scale(0.996264)"/>
      <use xlink:href="#CMR17-75" transform="translate(444.037374 0) scale(0.996264)"/>
      <use xlink:href="#CMR17-6c" transform="translate(494.932744 0) scale(0.996264)"/>
      <use xlink:href="#CMR17-74" transform="translate(519.803803 0) scale(0.996264)"/>
     </g>
    </g>
    <g id="line2d_27">
     <path d="M 652.645139 216.168312 
L 665.645139 216.168312 
L 678.645139 216.168312 
" style="fill: none; stroke-dasharray: 3.7,1.6; stroke-dashoffset: 0; stroke: #00008b"/>
    </g>
    <g id="text_26">
     <!-- Experiment -->
     <g transform="translate(689.045139 220.718312) scale(0.13 -0.13)">
      <use xlink:href="#CMR17-45" transform="scale(0.996264)"/>
      <use xlink:href="#CMR17-78" transform="translate(62.586301 0) scale(0.996264)"/>
      <use xlink:href="#CMR17-70" transform="translate(110.879216 0) scale(0.996264)"/>
      <use xlink:href="#CMR17-65" transform="translate(164.377025 0) scale(0.996264)"/>
      <use xlink:href="#CMR17-72" transform="translate(204.862685 0) scale(0.996264)"/>
      <use xlink:href="#CMR17-69" transform="translate(240.143453 0) scale(0.996264)"/>
      <use xlink:href="#CMR17-6d" transform="translate(265.014512 0) scale(0.996264)"/>
      <use xlink:href="#CMR17-65" transform="translate(341.934101 0) scale(0.996264)"/>
      <use xlink:href="#CMR17-6e" transform="translate(382.419762 0) scale(0.996264)"/>
      <use xlink:href="#CMR17-74" transform="translate(430.712678 0) scale(0.996264)"/>
     </g>
    </g>
   </g>
  </g>
  <g id="text_27">
   <!-- Comparasion of position data and result -->
   <g transform="translate(297.449518 17.99284) scale(0.156 -0.156)">
    <defs>
     <path id="CMR17-6f" d="M 2758 1356 
C 2758 2176 2163 2816 1466 2816 
C 768 2816 173 2176 173 1356 
C 173 551 768 -64 1466 -64 
C 2163 -64 2758 551 2758 1356 
z
M 1466 51 
C 1165 51 909 230 762 480 
C 602 767 582 1126 582 1408 
C 582 1677 595 2010 762 2298 
C 890 2509 1139 2714 1466 2714 
C 1754 2714 1997 2554 2150 2330 
C 2349 2029 2349 1607 2349 1408 
C 2349 1158 2336 775 2163 467 
C 1984 173 1709 51 1466 51 
z
" transform="scale(0.015625)"/>
     <path id="CMR17-61" d="M 2304 1653 
C 2304 2072 2304 2294 2035 2543 
C 1798 2752 1523 2816 1306 2816 
C 800 2816 435 2407 435 1971 
C 435 1728 627 1728 666 1728 
C 749 1728 896 1778 896 1954 
C 896 2112 774 2181 666 2181 
C 640 2181 608 2174 589 2168 
C 723 2592 1069 2714 1293 2714 
C 1613 2714 1965 2429 1965 1885 
L 1965 1600 
C 1587 1600 1133 1549 774 1357 
C 371 1133 256 813 256 570 
C 256 77 832 -64 1171 -64 
C 1523 -64 1850 139 1990 511 
C 2003 233 2182 -18 2464 -18 
C 2598 -18 2938 70 2938 567 
L 2938 920 
L 2822 920 
L 2822 562 
C 2822 178 2650 128 2566 128 
C 2304 128 2304 458 2304 738 
L 2304 1653 
z
M 1965 870 
C 1965 317 1568 38 1216 38 
C 896 38 646 275 646 570 
C 646 761 730 1100 1101 1305 
C 1408 1478 1760 1504 1965 1504 
L 1965 870 
z
" transform="scale(0.015625)"/>
     <path id="CMR17-66" d="M 979 2560 
L 1709 2560 
L 1709 2725 
L 966 2725 
L 966 3494 
C 966 4022 1235 4352 1510 4352 
C 1594 4352 1690 4327 1754 4282 
C 1702 4269 1568 4225 1568 4067 
C 1568 3901 1696 3850 1786 3850 
C 1875 3850 2003 3901 2003 4067 
C 2003 4308 1773 4454 1517 4454 
C 1152 4454 653 4156 653 3481 
L 653 2725 
L 141 2725 
L 141 2560 
L 653 2560 
L 653 427 
C 653 184 627 153 218 153 
L 218 -13 
C 371 0 666 0 832 0 
C 1018 0 1344 0 1517 -13 
L 1517 153 
C 1056 153 979 153 979 439 
L 979 2560 
z
" transform="scale(0.015625)"/>
     <path id="CMR17-64" d="M 1869 4326 
L 1869 4160 
C 2246 4160 2304 4122 2304 3820 
L 2304 2345 
C 2278 2377 2016 2790 1498 2790 
C 845 2790 211 2208 211 1364 
C 211 525 806 -64 1434 -64 
C 1978 -64 2259 337 2291 380 
L 2291 -63 
L 3066 -63 
L 3066 128 
C 2688 128 2630 166 2630 473 
L 2630 4396 
L 1869 4326 
z
M 2291 755 
C 2291 563 2176 390 2029 262 
C 1811 70 1594 38 1472 38 
C 1286 38 621 134 621 1356 
C 621 2612 1363 2688 1530 2688 
C 1824 2688 2061 2522 2208 2291 
C 2291 2157 2291 2138 2291 2023 
L 2291 755 
z
" transform="scale(0.015625)"/>
    </defs>
    <use xlink:href="#CMR17-43" transform="scale(0.996264)"/>
    <use xlink:href="#CMR17-6f" transform="translate(66.509881 0) scale(0.996264)"/>
    <use xlink:href="#CMR17-6d" transform="translate(112.200358 0) scale(0.996264)"/>
    <use xlink:href="#CMR17-70" transform="translate(189.119948 0) scale(0.996264)"/>
    <use xlink:href="#CMR17-61" transform="translate(240.015317 0) scale(0.996264)"/>
    <use xlink:href="#CMR17-72" transform="translate(285.705794 0) scale(0.996264)"/>
    <use xlink:href="#CMR17-61" transform="translate(320.986562 0) scale(0.996264)"/>
    <use xlink:href="#CMR17-73" transform="translate(366.677039 0) scale(0.996264)"/>
    <use xlink:href="#CMR17-69" transform="translate(402.478377 0) scale(0.996264)"/>
    <use xlink:href="#CMR17-6f" transform="translate(427.349435 0) scale(0.996264)"/>
    <use xlink:href="#CMR17-6e" transform="translate(473.039913 0) scale(0.996264)"/>
    <use xlink:href="#CMR17-6f" transform="translate(554.011249 0) scale(0.996264)"/>
    <use xlink:href="#CMR17-66" transform="translate(599.701726 0) scale(0.996264)"/>
    <use xlink:href="#CMR17-70" transform="translate(657.251205 0) scale(0.996264)"/>
    <use xlink:href="#CMR17-6f" transform="translate(710.749013 0) scale(0.996264)"/>
    <use xlink:href="#CMR17-73" transform="translate(756.43949 0) scale(0.996264)"/>
    <use xlink:href="#CMR17-69" transform="translate(792.240828 0) scale(0.996264)"/>
    <use xlink:href="#CMR17-74" transform="translate(817.111886 0) scale(0.996264)"/>
    <use xlink:href="#CMR17-69" transform="translate(852.392654 0) scale(0.996264)"/>
    <use xlink:href="#CMR17-6f" transform="translate(877.263713 0) scale(0.996264)"/>
    <use xlink:href="#CMR17-6e" transform="translate(922.95419 0) scale(0.996264)"/>
    <use xlink:href="#CMR17-64" transform="translate(1003.925526 0) scale(0.996264)"/>
    <use xlink:href="#CMR17-61" transform="translate(1054.820896 0) scale(0.996264)"/>
    <use xlink:href="#CMR17-74" transform="translate(1100.511373 0) scale(0.996264)"/>
    <use xlink:href="#CMR17-61" transform="translate(1135.792141 0) scale(0.996264)"/>
    <use xlink:href="#CMR17-61" transform="translate(1211.558584 0) scale(0.996264)"/>
    <use xlink:href="#CMR17-6e" transform="translate(1257.249061 0) scale(0.996264)"/>
    <use xlink:href="#CMR17-64" transform="translate(1308.144431 0) scale(0.996264)"/>
    <use xlink:href="#CMR17-72" transform="translate(1389.115767 0) scale(0.996264)"/>
    <use xlink:href="#CMR17-65" transform="translate(1424.396535 0) scale(0.996264)"/>
    <use xlink:href="#CMR17-73" transform="translate(1464.882195 0) scale(0.996264)"/>
    <use xlink:href="#CMR17-75" transform="translate(1500.683533 0) scale(0.996264)"/>
    <use xlink:href="#CMR17-6c" transform="translate(1551.578903 0) scale(0.996264)"/>
    <use xlink:href="#CMR17-74" transform="translate(1576.449961 0) scale(0.996264)"/>
   </g>
  </g>
 </g>
 <defs>
  <clipPath id="pe0b81b0411">
   <rect x="108" y="43.2" width="669.6" height="138.6"/>
  </clipPath>
  <clipPath id="pd98bcb6567">
   <rect x="108" y="181.8" width="669.6" height="138.6"/>
  </clipPath>
 </defs>
</svg>
