<?xml version="1.0" encoding="utf-8" standalone="no"?>
<!DOCTYPE svg PUBLIC "-//W3C//DTD SVG 1.1//EN"
  "http://www.w3.org/Graphics/SVG/1.1/DTD/svg11.dtd">
<svg xmlns:xlink="http://www.w3.org/1999/xlink" width="864pt" height="360pt" viewBox="0 0 864 360" xmlns="http://www.w3.org/2000/svg" version="1.1">
 <metadata>
  <rdf:RDF xmlns:dc="http://purl.org/dc/elements/1.1/" xmlns:cc="http://creativecommons.org/ns#" xmlns:rdf="http://www.w3.org/1999/02/22-rdf-syntax-ns#">
   <cc:Work>
    <dc:type rdf:resource="http://purl.org/dc/dcmitype/StillImage"/>
    <dc:date>2023-07-29T00:39:30.560346</dc:date>
    <dc:format>image/svg+xml</dc:format>
    <dc:creator>
     <cc:Agent>
      <dc:title>Matplotlib v3.7.1, https://matplotlib.org/</dc:title>
     </cc:Agent>
    </dc:creator>
   </cc:Work>
  </rdf:RDF>
 </metadata>
 <defs>
  <style type="text/css">*{stroke-linejoin: round; stroke-linecap: butt}</style>
 </defs>
 <g id="figure_1">
  <g id="patch_1">
   <path d="M 0 360 
L 864 360 
L 864 0 
L 0 0 
z
" style="fill: #ffffff"/>
  </g>
  <g id="axes_1">
   <g id="patch_2">
    <path d="M 108 320.4 
L 777.6 320.4 
L 777.6 43.2 
L 108 43.2 
z
" style="fill: #ffffff"/>
   </g>
   <g id="matplotlib.axis_1">
    <g id="xtick_1">
     <g id="line2d_1">
      <path d="M 138.436364 320.4 
L 138.436364 43.2 
" clip-path="url(#pebe4f6811e)" style="fill: none; stroke: #b0b0b0; stroke-width: 0.8; stroke-linecap: square"/>
     </g>
     <g id="line2d_2">
      <defs>
       <path id="me5d047022e" d="M 0 0 
L 0 3.5 
" style="stroke: #000000; stroke-width: 0.8"/>
      </defs>
      <g>
       <use xlink:href="#me5d047022e" x="138.436364" y="320.4" style="stroke: #000000; stroke-width: 0.8"/>
      </g>
     </g>
     <g id="text_1">
      <!-- $\mathdefault{1.5}$ -->
      <g transform="translate(130.334308 336.394028) scale(0.13 -0.13)">
       <defs>
        <path id="CMR17-31" d="M 1702 4058 
C 1702 4192 1696 4192 1606 4192 
C 1357 3916 979 3827 621 3827 
C 602 3827 570 3827 563 3808 
C 557 3795 557 3782 557 3648 
C 755 3648 1088 3686 1344 3839 
L 1344 461 
C 1344 236 1331 160 781 160 
L 589 160 
L 589 0 
C 896 0 1216 0 1523 0 
C 1830 0 2150 0 2458 0 
L 2458 160 
L 2266 160 
C 1715 160 1702 230 1702 458 
L 1702 4058 
z
" transform="scale(0.015625)"/>
        <path id="CMMI12-3a" d="M 1178 307 
C 1178 492 1024 619 870 619 
C 685 619 557 466 557 313 
C 557 128 710 0 864 0 
C 1050 0 1178 153 1178 307 
z
" transform="scale(0.015625)"/>
        <path id="CMR17-35" d="M 730 3692 
C 794 3666 1056 3584 1325 3584 
C 1920 3584 2246 3911 2432 4100 
C 2432 4157 2432 4192 2394 4192 
C 2387 4192 2374 4192 2323 4163 
C 2099 4058 1837 3973 1517 3973 
C 1325 3973 1037 3999 723 4139 
C 653 4171 640 4171 634 4171 
C 602 4171 595 4164 595 4037 
L 595 2203 
C 595 2089 595 2057 659 2057 
C 691 2057 704 2070 736 2114 
C 941 2401 1222 2522 1542 2522 
C 1766 2522 2246 2382 2246 1289 
C 2246 1085 2246 715 2054 421 
C 1894 159 1645 25 1370 25 
C 947 25 518 320 403 814 
C 429 807 480 795 506 795 
C 589 795 749 840 749 1038 
C 749 1210 627 1280 506 1280 
C 358 1280 262 1190 262 1011 
C 262 454 704 -128 1382 -128 
C 2042 -128 2669 440 2669 1264 
C 2669 2030 2170 2624 1549 2624 
C 1222 2624 947 2503 730 2274 
L 730 3692 
z
" transform="scale(0.015625)"/>
       </defs>
       <use xlink:href="#CMR17-31" transform="scale(0.996264)"/>
       <use xlink:href="#CMMI12-3a" transform="translate(45.690477 0) scale(0.996264)"/>
       <use xlink:href="#CMR17-35" transform="translate(72.787654 0) scale(0.996264)"/>
      </g>
     </g>
    </g>
    <g id="xtick_2">
     <g id="line2d_3">
      <path d="M 214.717977 320.4 
L 214.717977 43.2 
" clip-path="url(#pebe4f6811e)" style="fill: none; stroke: #b0b0b0; stroke-width: 0.8; stroke-linecap: square"/>
     </g>
     <g id="line2d_4">
      <g>
       <use xlink:href="#me5d047022e" x="214.717977" y="320.4" style="stroke: #000000; stroke-width: 0.8"/>
      </g>
     </g>
     <g id="text_2">
      <!-- $\mathdefault{2.0}$ -->
      <g transform="translate(206.615921 336.394028) scale(0.13 -0.13)">
       <defs>
        <path id="CMR17-32" d="M 2669 989 
L 2554 989 
C 2490 536 2438 459 2413 420 
C 2381 369 1920 369 1830 369 
L 602 369 
C 832 619 1280 1072 1824 1597 
C 2214 1967 2669 2402 2669 3035 
C 2669 3790 2067 4224 1395 4224 
C 691 4224 262 3604 262 3030 
C 262 2780 448 2748 525 2748 
C 589 2748 781 2787 781 3010 
C 781 3207 614 3264 525 3264 
C 486 3264 448 3258 422 3245 
C 544 3790 915 4058 1306 4058 
C 1862 4058 2227 3617 2227 3035 
C 2227 2479 1901 2000 1536 1584 
L 262 146 
L 262 0 
L 2515 0 
L 2669 989 
z
" transform="scale(0.015625)"/>
        <path id="CMR17-30" d="M 2688 2025 
C 2688 2416 2682 3080 2413 3591 
C 2176 4039 1798 4198 1466 4198 
C 1158 4198 768 4058 525 3597 
C 269 3118 243 2524 243 2025 
C 243 1661 250 1106 448 619 
C 723 -39 1216 -128 1466 -128 
C 1760 -128 2208 -7 2470 600 
C 2662 1042 2688 1559 2688 2025 
z
M 1466 -26 
C 1056 -26 813 325 723 812 
C 653 1188 653 1738 653 2096 
C 653 2588 653 2997 736 3387 
C 858 3929 1216 4096 1466 4096 
C 1728 4096 2067 3923 2189 3400 
C 2272 3036 2278 2607 2278 2096 
C 2278 1680 2278 1169 2202 792 
C 2067 95 1690 -26 1466 -26 
z
" transform="scale(0.015625)"/>
       </defs>
       <use xlink:href="#CMR17-32" transform="scale(0.996264)"/>
       <use xlink:href="#CMMI12-3a" transform="translate(45.690477 0) scale(0.996264)"/>
       <use xlink:href="#CMR17-30" transform="translate(72.787654 0) scale(0.996264)"/>
      </g>
     </g>
    </g>
    <g id="xtick_3">
     <g id="line2d_5">
      <path d="M 290.99959 320.4 
L 290.99959 43.2 
" clip-path="url(#pebe4f6811e)" style="fill: none; stroke: #b0b0b0; stroke-width: 0.8; stroke-linecap: square"/>
     </g>
     <g id="line2d_6">
      <g>
       <use xlink:href="#me5d047022e" x="290.99959" y="320.4" style="stroke: #000000; stroke-width: 0.8"/>
      </g>
     </g>
     <g id="text_3">
      <!-- $\mathdefault{2.5}$ -->
      <g transform="translate(282.897534 336.394028) scale(0.13 -0.13)">
       <use xlink:href="#CMR17-32" transform="scale(0.996264)"/>
       <use xlink:href="#CMMI12-3a" transform="translate(45.690477 0) scale(0.996264)"/>
       <use xlink:href="#CMR17-35" transform="translate(72.787654 0) scale(0.996264)"/>
      </g>
     </g>
    </g>
    <g id="xtick_4">
     <g id="line2d_7">
      <path d="M 367.281203 320.4 
L 367.281203 43.2 
" clip-path="url(#pebe4f6811e)" style="fill: none; stroke: #b0b0b0; stroke-width: 0.8; stroke-linecap: square"/>
     </g>
     <g id="line2d_8">
      <g>
       <use xlink:href="#me5d047022e" x="367.281203" y="320.4" style="stroke: #000000; stroke-width: 0.8"/>
      </g>
     </g>
     <g id="text_4">
      <!-- $\mathdefault{3.0}$ -->
      <g transform="translate(359.179147 336.394028) scale(0.13 -0.13)">
       <defs>
        <path id="CMR17-33" d="M 1414 2157 
C 1984 2157 2234 1662 2234 1090 
C 2234 320 1824 25 1453 25 
C 1114 25 563 194 390 693 
C 422 680 454 680 486 680 
C 640 680 755 782 755 948 
C 755 1133 614 1216 486 1216 
C 378 1216 211 1165 211 926 
C 211 335 787 -128 1466 -128 
C 2176 -128 2720 430 2720 1085 
C 2720 1707 2208 2157 1600 2227 
C 2086 2328 2554 2756 2554 3329 
C 2554 3820 2048 4179 1472 4179 
C 890 4179 378 3829 378 3329 
C 378 3110 544 3072 627 3072 
C 762 3072 877 3155 877 3321 
C 877 3486 762 3569 627 3569 
C 602 3569 570 3569 544 3557 
C 730 3959 1235 4032 1459 4032 
C 1683 4032 2106 3925 2106 3320 
C 2106 3143 2080 2828 1862 2550 
C 1670 2304 1453 2304 1242 2284 
C 1210 2284 1062 2269 1037 2269 
C 992 2263 966 2257 966 2208 
C 966 2163 973 2157 1101 2157 
L 1414 2157 
z
" transform="scale(0.015625)"/>
       </defs>
       <use xlink:href="#CMR17-33" transform="scale(0.996264)"/>
       <use xlink:href="#CMMI12-3a" transform="translate(45.690477 0) scale(0.996264)"/>
       <use xlink:href="#CMR17-30" transform="translate(72.787654 0) scale(0.996264)"/>
      </g>
     </g>
    </g>
    <g id="xtick_5">
     <g id="line2d_9">
      <path d="M 443.562816 320.4 
L 443.562816 43.2 
" clip-path="url(#pebe4f6811e)" style="fill: none; stroke: #b0b0b0; stroke-width: 0.8; stroke-linecap: square"/>
     </g>
     <g id="line2d_10">
      <g>
       <use xlink:href="#me5d047022e" x="443.562816" y="320.4" style="stroke: #000000; stroke-width: 0.8"/>
      </g>
     </g>
     <g id="text_5">
      <!-- $\mathdefault{3.5}$ -->
      <g transform="translate(435.46076 336.394028) scale(0.13 -0.13)">
       <use xlink:href="#CMR17-33" transform="scale(0.996264)"/>
       <use xlink:href="#CMMI12-3a" transform="translate(45.690477 0) scale(0.996264)"/>
       <use xlink:href="#CMR17-35" transform="translate(72.787654 0) scale(0.996264)"/>
      </g>
     </g>
    </g>
    <g id="xtick_6">
     <g id="line2d_11">
      <path d="M 519.844429 320.4 
L 519.844429 43.2 
" clip-path="url(#pebe4f6811e)" style="fill: none; stroke: #b0b0b0; stroke-width: 0.8; stroke-linecap: square"/>
     </g>
     <g id="line2d_12">
      <g>
       <use xlink:href="#me5d047022e" x="519.844429" y="320.4" style="stroke: #000000; stroke-width: 0.8"/>
      </g>
     </g>
     <g id="text_6">
      <!-- $\mathdefault{4.0}$ -->
      <g transform="translate(511.742373 336.394028) scale(0.13 -0.13)">
       <defs>
        <path id="CMR17-34" d="M 2150 4122 
C 2150 4256 2144 4256 2029 4256 
L 128 1254 
L 128 1088 
L 1779 1088 
L 1779 457 
C 1779 224 1766 160 1318 160 
L 1197 160 
L 1197 0 
C 1402 0 1747 0 1965 0 
C 2182 0 2528 0 2733 0 
L 2733 160 
L 2611 160 
C 2163 160 2150 224 2150 457 
L 2150 1088 
L 2803 1088 
L 2803 1254 
L 2150 1254 
L 2150 4122 
z
M 1798 3703 
L 1798 1254 
L 256 1254 
L 1798 3703 
z
" transform="scale(0.015625)"/>
       </defs>
       <use xlink:href="#CMR17-34" transform="scale(0.996264)"/>
       <use xlink:href="#CMMI12-3a" transform="translate(45.690477 0) scale(0.996264)"/>
       <use xlink:href="#CMR17-30" transform="translate(72.787654 0) scale(0.996264)"/>
      </g>
     </g>
    </g>
    <g id="xtick_7">
     <g id="line2d_13">
      <path d="M 596.126042 320.4 
L 596.126042 43.2 
" clip-path="url(#pebe4f6811e)" style="fill: none; stroke: #b0b0b0; stroke-width: 0.8; stroke-linecap: square"/>
     </g>
     <g id="line2d_14">
      <g>
       <use xlink:href="#me5d047022e" x="596.126042" y="320.4" style="stroke: #000000; stroke-width: 0.8"/>
      </g>
     </g>
     <g id="text_7">
      <!-- $\mathdefault{4.5}$ -->
      <g transform="translate(588.023986 336.394028) scale(0.13 -0.13)">
       <use xlink:href="#CMR17-34" transform="scale(0.996264)"/>
       <use xlink:href="#CMMI12-3a" transform="translate(45.690477 0) scale(0.996264)"/>
       <use xlink:href="#CMR17-35" transform="translate(72.787654 0) scale(0.996264)"/>
      </g>
     </g>
    </g>
    <g id="xtick_8">
     <g id="line2d_15">
      <path d="M 672.407656 320.4 
L 672.407656 43.2 
" clip-path="url(#pebe4f6811e)" style="fill: none; stroke: #b0b0b0; stroke-width: 0.8; stroke-linecap: square"/>
     </g>
     <g id="line2d_16">
      <g>
       <use xlink:href="#me5d047022e" x="672.407656" y="320.4" style="stroke: #000000; stroke-width: 0.8"/>
      </g>
     </g>
     <g id="text_8">
      <!-- $\mathdefault{5.0}$ -->
      <g transform="translate(664.3056 336.394028) scale(0.13 -0.13)">
       <use xlink:href="#CMR17-35" transform="scale(0.996264)"/>
       <use xlink:href="#CMMI12-3a" transform="translate(45.690477 0) scale(0.996264)"/>
       <use xlink:href="#CMR17-30" transform="translate(72.787654 0) scale(0.996264)"/>
      </g>
     </g>
    </g>
    <g id="xtick_9">
     <g id="line2d_17">
      <path d="M 748.689269 320.4 
L 748.689269 43.2 
" clip-path="url(#pebe4f6811e)" style="fill: none; stroke: #b0b0b0; stroke-width: 0.8; stroke-linecap: square"/>
     </g>
     <g id="line2d_18">
      <g>
       <use xlink:href="#me5d047022e" x="748.689269" y="320.4" style="stroke: #000000; stroke-width: 0.8"/>
      </g>
     </g>
     <g id="text_9">
      <!-- $\mathdefault{5.5}$ -->
      <g transform="translate(740.587213 336.394028) scale(0.13 -0.13)">
       <use xlink:href="#CMR17-35" transform="scale(0.996264)"/>
       <use xlink:href="#CMMI12-3a" transform="translate(45.690477 0) scale(0.996264)"/>
       <use xlink:href="#CMR17-35" transform="translate(72.787654 0) scale(0.996264)"/>
      </g>
     </g>
    </g>
    <g id="text_10">
     <!-- $t$ (s) -->
     <g transform="translate(430.963961 352.625914) scale(0.13 -0.13)">
      <defs>
       <path id="CMMI12-74" d="M 1286 2566 
L 1875 2566 
C 1997 2566 2061 2566 2061 2681 
C 2061 2752 2022 2752 1894 2752 
L 1331 2752 
L 1568 3692 
C 1594 3781 1594 3794 1594 3840 
C 1594 3943 1510 4000 1427 4000 
C 1376 4000 1229 3981 1178 3775 
L 928 2752 
L 326 2752 
C 198 2752 141 2752 141 2630 
C 141 2566 186 2566 307 2566 
L 877 2566 
L 454 881 
C 403 658 384 594 384 511 
C 384 211 595 -64 954 -64 
C 1600 -64 1946 868 1946 912 
C 1946 951 1920 970 1882 970 
C 1869 970 1843 970 1830 944 
C 1824 938 1818 931 1773 829 
C 1638 511 1344 64 973 64 
C 781 64 768 224 768 364 
C 768 370 768 492 787 568 
L 1286 2566 
z
" transform="scale(0.015625)"/>
       <path id="CMR17-28" d="M 1958 -1561 
C 1958 -1555 1958 -1542 1939 -1523 
C 1645 -1224 858 -407 858 1581 
C 858 3569 1632 4379 1946 4697 
C 1946 4704 1958 4717 1958 4736 
C 1958 4755 1939 4768 1914 4768 
C 1843 4768 1299 4296 986 3594 
C 666 2887 576 2199 576 1588 
C 576 1128 621 351 1005 -471 
C 1312 -1135 1837 -1600 1914 -1600 
C 1946 -1600 1958 -1587 1958 -1561 
z
" transform="scale(0.015625)"/>
       <path id="CMR17-73" d="M 1978 2697 
C 1978 2813 1971 2819 1933 2819 
C 1907 2819 1901 2813 1824 2717 
C 1805 2691 1747 2626 1728 2601 
C 1523 2819 1235 2819 1126 2819 
C 416 2819 160 2447 160 2076 
C 160 1498 813 1365 998 1325 
C 1402 1243 1542 1217 1677 1101 
C 1760 1025 1901 884 1901 654 
C 1901 384 1747 38 1158 38 
C 602 38 403 460 288 1021 
C 269 1110 269 1117 218 1117 
C 166 1117 160 1110 160 983 
L 160 63 
C 160 -51 166 -58 205 -58 
C 237 -58 243 -51 275 0 
C 314 57 410 211 448 276 
C 576 103 800 -64 1158 -64 
C 1792 -64 2131 283 2131 784 
C 2131 1112 1958 1285 1875 1362 
C 1683 1561 1459 1606 1190 1657 
C 838 1735 390 1825 390 2217 
C 390 2383 480 2737 1126 2737 
C 1811 2737 1850 2094 1862 1888 
C 1869 1856 1901 1849 1920 1849 
C 1978 1849 1978 1869 1978 1978 
L 1978 2697 
z
" transform="scale(0.015625)"/>
       <path id="CMR17-29" d="M 1683 1581 
C 1683 2040 1638 2817 1254 3639 
C 947 4303 422 4768 346 4768 
C 326 4768 301 4761 301 4729 
C 301 4717 307 4710 314 4697 
C 621 4378 1402 3568 1402 1584 
C 1402 -407 627 -1217 314 -1537 
C 307 -1549 301 -1556 301 -1568 
C 301 -1600 326 -1600 346 -1600 
C 416 -1600 960 -1128 1274 -426 
C 1594 281 1683 969 1683 1581 
z
" transform="scale(0.015625)"/>
      </defs>
      <use xlink:href="#CMMI12-74" transform="scale(0.996264)"/>
      <use xlink:href="#CMR17-28" transform="translate(65.302297 0) scale(0.996264)"/>
      <use xlink:href="#CMR17-73" transform="translate(100.583064 0) scale(0.996264)"/>
      <use xlink:href="#CMR17-29" transform="translate(136.384402 0) scale(0.996264)"/>
     </g>
    </g>
   </g>
   <g id="matplotlib.axis_2">
    <g id="ytick_1">
     <g id="line2d_19">
      <path d="M 108 303.689909 
L 777.6 303.689909 
" clip-path="url(#pebe4f6811e)" style="fill: none; stroke: #b0b0b0; stroke-width: 0.8; stroke-linecap: square"/>
     </g>
     <g id="line2d_20">
      <defs>
       <path id="mb018554bce" d="M 0 0 
L -3.5 0 
" style="stroke: #000000; stroke-width: 0.8"/>
      </defs>
      <g>
       <use xlink:href="#mb018554bce" x="108" y="303.689909" style="stroke: #000000; stroke-width: 0.8"/>
      </g>
     </g>
     <g id="text_11">
      <!-- $\mathdefault{−0.04}$ -->
      <g transform="translate(68.381779 308.186923) scale(0.13 -0.13)">
       <defs>
        <path id="CMSY10-0" d="M 4218 1472 
C 4326 1472 4442 1472 4442 1600 
C 4442 1728 4326 1728 4218 1728 
L 755 1728 
C 646 1728 531 1728 531 1600 
C 531 1472 646 1472 755 1472 
L 4218 1472 
z
" transform="scale(0.015625)"/>
       </defs>
       <use xlink:href="#CMSY10-0" transform="scale(0.996264)"/>
       <use xlink:href="#CMR17-30" transform="translate(77.487468 0) scale(0.996264)"/>
       <use xlink:href="#CMMI12-3a" transform="translate(123.177945 0) scale(0.996264)"/>
       <use xlink:href="#CMR17-30" transform="translate(150.275122 0) scale(0.996264)"/>
       <use xlink:href="#CMR17-34" transform="translate(195.965599 0) scale(0.996264)"/>
      </g>
     </g>
    </g>
    <g id="ytick_2">
     <g id="line2d_21">
      <path d="M 108 248.002817 
L 777.6 248.002817 
" clip-path="url(#pebe4f6811e)" style="fill: none; stroke: #b0b0b0; stroke-width: 0.8; stroke-linecap: square"/>
     </g>
     <g id="line2d_22">
      <g>
       <use xlink:href="#mb018554bce" x="108" y="248.002817" style="stroke: #000000; stroke-width: 0.8"/>
      </g>
     </g>
     <g id="text_12">
      <!-- $\mathdefault{−0.02}$ -->
      <g transform="translate(68.381779 252.499832) scale(0.13 -0.13)">
       <use xlink:href="#CMSY10-0" transform="scale(0.996264)"/>
       <use xlink:href="#CMR17-30" transform="translate(77.487468 0) scale(0.996264)"/>
       <use xlink:href="#CMMI12-3a" transform="translate(123.177945 0) scale(0.996264)"/>
       <use xlink:href="#CMR17-30" transform="translate(150.275122 0) scale(0.996264)"/>
       <use xlink:href="#CMR17-32" transform="translate(195.965599 0) scale(0.996264)"/>
      </g>
     </g>
    </g>
    <g id="ytick_3">
     <g id="line2d_23">
      <path d="M 108 192.315726 
L 777.6 192.315726 
" clip-path="url(#pebe4f6811e)" style="fill: none; stroke: #b0b0b0; stroke-width: 0.8; stroke-linecap: square"/>
     </g>
     <g id="line2d_24">
      <g>
       <use xlink:href="#mb018554bce" x="108" y="192.315726" style="stroke: #000000; stroke-width: 0.8"/>
      </g>
     </g>
     <g id="text_13">
      <!-- $\mathdefault{0.00}$ -->
      <g transform="translate(78.455149 196.81274) scale(0.13 -0.13)">
       <use xlink:href="#CMR17-30" transform="scale(0.996264)"/>
       <use xlink:href="#CMMI12-3a" transform="translate(45.690477 0) scale(0.996264)"/>
       <use xlink:href="#CMR17-30" transform="translate(72.787654 0) scale(0.996264)"/>
       <use xlink:href="#CMR17-30" transform="translate(118.478131 0) scale(0.996264)"/>
      </g>
     </g>
    </g>
    <g id="ytick_4">
     <g id="line2d_25">
      <path d="M 108 136.628634 
L 777.6 136.628634 
" clip-path="url(#pebe4f6811e)" style="fill: none; stroke: #b0b0b0; stroke-width: 0.8; stroke-linecap: square"/>
     </g>
     <g id="line2d_26">
      <g>
       <use xlink:href="#mb018554bce" x="108" y="136.628634" style="stroke: #000000; stroke-width: 0.8"/>
      </g>
     </g>
     <g id="text_14">
      <!-- $\mathdefault{0.02}$ -->
      <g transform="translate(78.455149 141.125648) scale(0.13 -0.13)">
       <use xlink:href="#CMR17-30" transform="scale(0.996264)"/>
       <use xlink:href="#CMMI12-3a" transform="translate(45.690477 0) scale(0.996264)"/>
       <use xlink:href="#CMR17-30" transform="translate(72.787654 0) scale(0.996264)"/>
       <use xlink:href="#CMR17-32" transform="translate(118.478131 0) scale(0.996264)"/>
      </g>
     </g>
    </g>
    <g id="ytick_5">
     <g id="line2d_27">
      <path d="M 108 80.941543 
L 777.6 80.941543 
" clip-path="url(#pebe4f6811e)" style="fill: none; stroke: #b0b0b0; stroke-width: 0.8; stroke-linecap: square"/>
     </g>
     <g id="line2d_28">
      <g>
       <use xlink:href="#mb018554bce" x="108" y="80.941543" style="stroke: #000000; stroke-width: 0.8"/>
      </g>
     </g>
     <g id="text_15">
      <!-- $\mathdefault{0.04}$ -->
      <g transform="translate(78.455149 85.438557) scale(0.13 -0.13)">
       <use xlink:href="#CMR17-30" transform="scale(0.996264)"/>
       <use xlink:href="#CMMI12-3a" transform="translate(45.690477 0) scale(0.996264)"/>
       <use xlink:href="#CMR17-30" transform="translate(72.787654 0) scale(0.996264)"/>
       <use xlink:href="#CMR17-34" transform="translate(118.478131 0) scale(0.996264)"/>
      </g>
     </g>
    </g>
    <g id="text_16">
     <!-- displacement (m) -->
     <g transform="translate(61.143921 229.919159) rotate(-90) scale(0.13 -0.13)">
      <defs>
       <path id="CMR17-64" d="M 1869 4326 
L 1869 4160 
C 2246 4160 2304 4122 2304 3820 
L 2304 2345 
C 2278 2377 2016 2790 1498 2790 
C 845 2790 211 2208 211 1364 
C 211 525 806 -64 1434 -64 
C 1978 -64 2259 337 2291 380 
L 2291 -63 
L 3066 -63 
L 3066 128 
C 2688 128 2630 166 2630 473 
L 2630 4396 
L 1869 4326 
z
M 2291 755 
C 2291 563 2176 390 2029 262 
C 1811 70 1594 38 1472 38 
C 1286 38 621 134 621 1356 
C 621 2612 1363 2688 1530 2688 
C 1824 2688 2061 2522 2208 2291 
C 2291 2157 2291 2138 2291 2023 
L 2291 755 
z
" transform="scale(0.015625)"/>
       <path id="CMR17-69" d="M 992 3909 
C 992 4049 877 4170 730 4170 
C 589 4170 467 4056 467 3909 
C 467 3769 582 3648 730 3648 
C 870 3648 992 3763 992 3909 
z
M 243 2706 
L 243 2541 
C 602 2541 653 2502 653 2197 
L 653 427 
C 653 184 627 153 218 153 
L 218 -13 
C 371 0 646 0 806 0 
C 960 0 1222 0 1370 -13 
L 1370 153 
C 992 153 979 191 979 420 
L 979 2776 
L 243 2706 
z
" transform="scale(0.015625)"/>
       <path id="CMR17-70" d="M 1408 -1063 
C 998 -1063 973 -1037 973 -789 
L 973 402 
C 1158 134 1427 -38 1766 -38 
C 2406 -38 3053 523 3053 1388 
C 3053 2191 2496 2802 1837 2802 
C 1453 2802 1139 2592 960 2338 
L 960 2802 
L 198 2732 
L 198 2567 
C 576 2567 634 2528 634 2223 
L 634 -789 
C 634 -1031 608 -1063 198 -1063 
L 198 -1228 
C 352 -1216 634 -1216 800 -1216 
C 966 -1216 1254 -1216 1408 -1228 
L 1408 -1063 
z
M 973 2012 
C 973 2102 973 2235 1222 2471 
C 1254 2497 1472 2688 1792 2688 
C 2259 2688 2643 2108 2643 1382 
C 2643 656 2234 64 1728 64 
C 1498 64 1248 172 1056 472 
C 973 612 973 650 973 752 
L 973 2012 
z
" transform="scale(0.015625)"/>
       <path id="CMR17-6c" d="M 979 4396 
L 218 4326 
L 218 4160 
C 595 4160 653 4122 653 3817 
L 653 426 
C 653 184 627 153 218 153 
L 218 -13 
C 371 0 653 0 813 0 
C 979 0 1261 0 1414 -13 
L 1414 153 
C 1005 153 979 178 979 426 
L 979 4396 
z
" transform="scale(0.015625)"/>
       <path id="CMR17-61" d="M 2304 1653 
C 2304 2072 2304 2294 2035 2543 
C 1798 2752 1523 2816 1306 2816 
C 800 2816 435 2407 435 1971 
C 435 1728 627 1728 666 1728 
C 749 1728 896 1778 896 1954 
C 896 2112 774 2181 666 2181 
C 640 2181 608 2174 589 2168 
C 723 2592 1069 2714 1293 2714 
C 1613 2714 1965 2429 1965 1885 
L 1965 1600 
C 1587 1600 1133 1549 774 1357 
C 371 1133 256 813 256 570 
C 256 77 832 -64 1171 -64 
C 1523 -64 1850 139 1990 511 
C 2003 233 2182 -18 2464 -18 
C 2598 -18 2938 70 2938 567 
L 2938 920 
L 2822 920 
L 2822 562 
C 2822 178 2650 128 2566 128 
C 2304 128 2304 458 2304 738 
L 2304 1653 
z
M 1965 870 
C 1965 317 1568 38 1216 38 
C 896 38 646 275 646 570 
C 646 761 730 1100 1101 1305 
C 1408 1478 1760 1504 1965 1504 
L 1965 870 
z
" transform="scale(0.015625)"/>
       <path id="CMR17-63" d="M 2234 2240 
C 2112 2240 1933 2240 1933 2017 
C 1933 1838 2080 1787 2163 1787 
C 2208 1787 2394 1807 2394 2024 
C 2394 2467 1958 2803 1466 2803 
C 787 2803 211 2178 211 1363 
C 211 516 813 -64 1466 -64 
C 2259 -64 2458 677 2458 748 
C 2458 774 2451 793 2406 793 
C 2362 793 2355 787 2330 703 
C 2163 180 1798 51 1523 51 
C 1114 51 621 427 621 1369 
C 621 2338 1094 2688 1472 2688 
C 1722 2688 2093 2573 2234 2240 
z
" transform="scale(0.015625)"/>
       <path id="CMR17-65" d="M 2438 1472 
C 2464 1498 2464 1511 2464 1576 
C 2464 2238 2118 2816 1389 2816 
C 710 2816 173 2169 173 1383 
C 173 551 781 -64 1459 -64 
C 2176 -64 2458 607 2458 740 
C 2458 784 2419 784 2406 784 
C 2362 784 2355 771 2330 696 
C 2189 265 1837 51 1504 51 
C 1229 51 954 203 781 480 
C 582 803 582 1176 582 1472 
L 2438 1472 
z
M 589 1568 
C 634 2505 1126 2714 1382 2714 
C 1818 2714 2112 2297 2118 1568 
L 589 1568 
z
" transform="scale(0.015625)"/>
       <path id="CMR17-6d" d="M 4326 1933 
C 4326 2252 4269 2790 3507 2790 
C 3072 2790 2771 2496 2656 2151 
L 2650 2151 
C 2573 2676 2195 2790 1837 2790 
C 1331 2790 1069 2400 973 2144 
L 966 2144 
L 966 2790 
L 211 2720 
L 211 2554 
C 589 2554 646 2515 646 2208 
L 646 428 
C 646 184 621 153 211 153 
L 211 -13 
C 365 0 646 0 813 0 
C 979 0 1267 0 1421 -13 
L 1421 153 
C 1011 153 986 178 986 428 
L 986 1658 
C 986 2247 1344 2688 1792 2688 
C 2266 2688 2317 2266 2317 1958 
L 2317 428 
C 2317 184 2291 153 1882 153 
L 1882 -13 
C 2035 0 2317 0 2483 0 
C 2650 0 2938 0 3091 -13 
L 3091 153 
C 2682 153 2656 178 2656 428 
L 2656 1658 
C 2656 2247 3014 2688 3462 2688 
C 3936 2688 3987 2266 3987 1958 
L 3987 428 
C 3987 184 3962 153 3552 153 
L 3552 -13 
C 3706 0 3987 0 4154 0 
C 4320 0 4608 0 4762 -13 
L 4762 153 
C 4352 153 4326 178 4326 428 
L 4326 1933 
z
" transform="scale(0.015625)"/>
       <path id="CMR17-6e" d="M 2656 1933 
C 2656 2259 2592 2790 1837 2790 
C 1331 2790 1069 2400 973 2144 
L 966 2144 
L 966 2790 
L 211 2720 
L 211 2554 
C 589 2554 646 2515 646 2208 
L 646 428 
C 646 184 621 153 211 153 
L 211 -13 
C 365 0 646 0 813 0 
C 979 0 1267 0 1421 -13 
L 1421 153 
C 1011 153 986 178 986 428 
L 986 1658 
C 986 2247 1344 2688 1792 2688 
C 2266 2688 2317 2266 2317 1958 
L 2317 428 
C 2317 184 2291 153 1882 153 
L 1882 -13 
C 2035 0 2317 0 2483 0 
C 2650 0 2938 0 3091 -13 
L 3091 153 
C 2682 153 2656 178 2656 428 
L 2656 1933 
z
" transform="scale(0.015625)"/>
       <path id="CMR17-74" d="M 966 2560 
L 1862 2560 
L 1862 2725 
L 966 2725 
L 966 3904 
L 851 3904 
C 838 3245 614 2668 70 2668 
L 70 2560 
L 627 2560 
L 627 771 
C 627 650 627 -64 1370 -64 
C 1747 -64 1965 306 1965 777 
L 1965 1140 
L 1850 1140 
L 1850 783 
C 1850 344 1677 51 1408 51 
C 1222 51 966 178 966 758 
L 966 2560 
z
" transform="scale(0.015625)"/>
      </defs>
      <use xlink:href="#CMR17-64" transform="scale(0.996264)"/>
      <use xlink:href="#CMR17-69" transform="translate(50.89537 0) scale(0.996264)"/>
      <use xlink:href="#CMR17-73" transform="translate(75.766428 0) scale(0.996264)"/>
      <use xlink:href="#CMR17-70" transform="translate(111.567766 0) scale(0.996264)"/>
      <use xlink:href="#CMR17-6c" transform="translate(162.463136 0) scale(0.996264)"/>
      <use xlink:href="#CMR17-61" transform="translate(187.334194 0) scale(0.996264)"/>
      <use xlink:href="#CMR17-63" transform="translate(233.024671 0) scale(0.996264)"/>
      <use xlink:href="#CMR17-65" transform="translate(273.510332 0) scale(0.996264)"/>
      <use xlink:href="#CMR17-6d" transform="translate(313.995992 0) scale(0.996264)"/>
      <use xlink:href="#CMR17-65" transform="translate(390.915582 0) scale(0.996264)"/>
      <use xlink:href="#CMR17-6e" transform="translate(431.401243 0) scale(0.996264)"/>
      <use xlink:href="#CMR17-74" transform="translate(479.694158 0) scale(0.996264)"/>
      <use xlink:href="#CMR17-28" transform="translate(545.050893 0) scale(0.996264)"/>
      <use xlink:href="#CMR17-6d" transform="translate(580.33166 0) scale(0.996264)"/>
      <use xlink:href="#CMR17-29" transform="translate(657.25125 0) scale(0.996264)"/>
     </g>
    </g>
   </g>
   <g id="line2d_29">
    <path d="M 138.436364 196.397976 
L 143.01326 198.111335 
L 144.538893 198.407692 
L 147.590157 198.446059 
L 149.115789 198.916832 
L 150.641422 200.098479 
L 153.692686 203.332022 
L 155.218319 204.655761 
L 158.269583 207.055102 
L 159.795215 208.467503 
L 161.320848 209.534321 
L 162.84648 209.584887 
L 164.372112 208.246842 
L 165.897744 206.341061 
L 167.423377 204.986725 
L 168.949009 204.886979 
L 170.474641 205.080817 
L 172.000273 204.191195 
L 173.525906 201.261998 
L 176.57717 192.616235 
L 181.154067 181.279934 
L 182.679699 176.309945 
L 184.205332 171.803731 
L 185.730964 169.545868 
L 187.256596 170.769503 
L 188.782228 174.502055 
L 191.833493 184.239032 
L 193.359125 192.242457 
L 194.884757 206.752801 
L 197.936022 251.612731 
L 199.461654 266.622841 
L 200.987286 274.560293 
L 202.512919 277.936815 
L 204.038551 278.712069 
L 205.564183 276.637451 
L 207.089815 270.912286 
L 208.615448 261.024578 
L 210.14108 247.61704 
L 211.666712 231.621065 
L 214.717977 195.098263 
L 217.769241 156.598128 
L 219.294874 138.910475 
L 220.820506 124.137023 
L 222.346138 113.378438 
L 223.87177 106.373961 
L 225.397403 102.522476 
L 226.923035 101.415858 
L 228.448667 103.417953 
L 229.974299 109.085598 
L 231.499932 118.684267 
L 233.025564 131.313979 
L 236.076828 160.947858 
L 237.602461 175.849543 
L 239.128093 189.577311 
L 240.653725 201.230887 
L 242.179357 209.953447 
L 243.70499 214.899027 
L 245.230622 215.529278 
L 246.756254 212.536314 
L 248.281887 206.919862 
L 249.807519 199.941843 
L 251.333151 193.912949 
L 252.858783 190.838738 
L 254.384416 190.45547 
L 255.910048 191.932079 
L 257.43568 194.573354 
L 258.961312 198.227498 
L 260.486945 202.87857 
L 263.538209 214.363325 
L 265.063841 220.141569 
L 268.115106 230.145851 
L 271.16637 239.751516 
L 272.692003 243.33935 
L 274.217635 244.13475 
L 275.743267 240.892617 
L 277.2689 233.656165 
L 278.794532 222.790683 
L 280.320164 208.739642 
L 281.845796 192.259227 
L 286.422693 137.425797 
L 287.948325 121.567461 
L 289.473958 109.050614 
L 290.99959 99.880777 
L 292.525222 93.771647 
L 294.050854 90.928164 
L 295.576487 93.520233 
L 297.102119 104.208999 
L 298.627751 123.962545 
L 300.153383 146.976686 
L 301.679016 167.170287 
L 303.204648 184.126661 
L 304.73028 198.845234 
L 306.255913 212.074988 
L 307.781545 223.563125 
L 309.307177 232.806404 
L 310.832809 239.464516 
L 312.358442 243.848875 
L 313.884074 246.433831 
L 315.409706 247.514608 
L 316.935338 246.669942 
L 318.460971 243.299444 
L 319.986603 237.152099 
L 323.037867 221.462148 
L 324.5635 214.603018 
L 326.089132 208.751723 
L 327.614764 203.554771 
L 329.140396 198.936999 
L 330.666029 195.936563 
L 332.191661 195.869952 
L 333.717293 199.485447 
L 336.768558 211.096394 
L 338.29419 215.268834 
L 339.819822 217.495465 
L 341.345455 217.858398 
L 342.871087 216.318514 
L 344.396719 212.35177 
L 345.922351 205.312892 
L 347.447984 194.927435 
L 353.550513 145.627935 
L 355.076145 135.178978 
L 356.601777 125.733014 
L 358.127409 117.946464 
L 359.653042 112.61775 
L 361.178674 110.723586 
L 362.704306 113.953871 
L 364.229938 124.176799 
L 365.755571 141.874936 
L 367.281203 161.988335 
L 368.806835 179.383664 
L 370.332468 194.176571 
L 374.909364 234.29298 
L 376.434997 246.004245 
L 377.960629 255.732618 
L 379.486261 263.036462 
L 381.011893 267.539239 
L 382.537526 268.859369 
L 384.063158 266.595113 
L 385.58879 260.339694 
L 387.114422 250.093964 
L 391.691319 212.941165 
L 393.216951 202.567425 
L 396.268216 184.018706 
L 397.793848 176.863704 
L 399.319481 172.998468 
L 400.845113 173.203566 
L 403.896377 177.488614 
L 405.42201 179.578 
L 406.947642 182.465274 
L 409.998906 190.384057 
L 411.524539 192.369621 
L 413.050171 191.175285 
L 414.575803 187.293561 
L 416.101435 181.661788 
L 417.627068 175.081311 
L 419.1527 167.809489 
L 423.729597 144.458628 
L 425.255229 138.957745 
L 426.780861 136.320201 
L 428.306494 136.717001 
L 429.832126 140.119218 
L 431.357758 146.412669 
L 432.88339 155.142127 
L 434.409023 165.767101 
L 437.460287 190.376713 
L 442.037184 228.167055 
L 443.562816 242.488003 
L 445.088448 258.280694 
L 446.614081 270.856599 
L 448.139713 275.694358 
L 449.665345 273.562678 
L 451.190977 266.552782 
L 452.71661 256.556123 
L 454.242242 244.665068 
L 460.344771 193.889083 
L 461.870403 182.904629 
L 464.921668 163.555528 
L 466.4473 154.993958 
L 467.972932 148.099157 
L 469.498565 144.017315 
L 471.024197 143.514805 
L 472.549829 145.838762 
L 474.075461 149.856504 
L 477.126726 159.652325 
L 480.17799 169.899988 
L 481.703623 174.69513 
L 483.229255 179.05245 
L 484.754887 182.707956 
L 486.280519 184.987103 
L 487.806152 185.344451 
L 489.331784 184.161527 
L 490.857416 182.051598 
L 493.908681 177.289152 
L 495.434313 175.56803 
L 496.959945 174.919453 
L 498.485578 175.94289 
L 500.01121 179.267244 
L 501.536842 185.275226 
L 503.062474 193.364777 
L 506.113739 212.493502 
L 509.165003 232.217712 
L 510.690636 241.483627 
L 512.216268 249.305375 
L 513.7419 254.635744 
L 515.267532 256.714 
L 516.793165 255.925297 
L 518.318797 252.941266 
L 519.844429 248.266707 
L 521.370062 241.739113 
L 522.895694 233.029153 
L 524.421326 222.002113 
L 527.472591 195.766533 
L 530.523855 167.47785 
L 533.57512 134.747456 
L 535.100752 122.530053 
L 536.626384 119.834943 
L 538.152016 124.397754 
L 544.254545 155.815023 
L 548.831442 183.785853 
L 550.357075 190.498377 
L 551.882707 195.212188 
L 553.408339 198.200855 
L 554.933971 199.755683 
L 556.459604 200.238926 
L 557.985236 200.030573 
L 559.510868 199.375236 
L 561.0365 197.976005 
L 562.562133 195.400589 
L 564.087765 191.623806 
L 565.613397 188.24889 
L 567.139029 187.286185 
L 568.664662 190.125716 
L 570.190294 195.676249 
L 573.241558 208.447338 
L 574.767191 214.544071 
L 576.292823 221.10416 
L 577.818455 228.25065 
L 579.344087 234.24786 
L 580.86972 236.895428 
L 582.395352 235.009206 
L 583.920984 231.469914 
L 586.972249 226.984233 
L 588.497881 222.782728 
L 590.023513 214.95957 
L 591.549146 204.004154 
L 593.074778 190.929712 
L 597.651675 148.352952 
L 599.177307 135.907729 
L 600.702939 125.906011 
L 602.228571 119.371799 
L 603.754204 117.051736 
L 605.279836 118.583042 
L 606.805468 123.325582 
L 608.3311 130.690565 
L 609.856733 140.294577 
L 611.382365 151.805552 
L 615.959262 191.208147 
L 617.484894 202.676289 
L 619.010526 212.134823 
L 620.536159 219.163067 
L 622.061791 223.55966 
L 623.587423 226.000521 
L 625.113055 227.380891 
L 626.638688 228.371477 
L 628.16432 228.744872 
L 629.689952 228.049136 
L 631.215584 225.919784 
L 632.741217 222.342153 
L 634.266849 217.389035 
L 638.843746 198.789547 
L 640.369378 194.278863 
L 641.89501 192.29973 
L 643.420643 193.94477 
L 644.946275 199.505454 
L 646.471907 206.068645 
L 647.997539 210.61653 
L 649.523172 212.917206 
L 651.048804 213.435252 
L 652.574436 212.525384 
L 654.100068 210.102885 
L 655.625701 205.973182 
L 657.151333 200.00078 
L 658.676965 192.28652 
L 660.202597 182.990323 
L 663.253862 161.076156 
L 664.779494 149.856504 
L 666.305126 139.540247 
L 667.830759 131.279894 
L 669.356391 126.308819 
L 670.882023 125.539364 
L 672.407656 128.599739 
L 673.933288 134.797123 
L 675.45892 143.431575 
L 676.984552 153.774679 
L 684.612714 209.729941 
L 686.138346 219.217698 
L 687.663978 227.667281 
L 689.18961 234.774413 
L 690.715243 239.587332 
L 692.240875 240.992407 
L 693.766507 238.364089 
L 695.292139 233.029153 
L 696.817772 226.529588 
L 699.869036 211.565757 
L 702.920301 196.191848 
L 704.445933 190.333064 
L 705.971565 186.674749 
L 707.497198 184.761483 
L 709.02283 183.857451 
L 710.548462 183.371705 
L 712.074094 183.292768 
L 713.599727 183.754032 
L 715.125359 184.803132 
L 718.176623 187.397559 
L 719.702256 188.2777 
L 722.75352 189.434115 
L 724.279152 189.927262 
L 725.804785 189.640634 
L 727.330417 187.660084 
L 728.856049 183.355662 
L 730.381681 177.234225 
L 734.958578 156.049867 
L 736.484211 150.978201 
L 738.009843 148.262228 
L 739.535475 147.979578 
L 741.061107 150.039476 
L 742.58674 154.513057 
L 744.112372 162.119104 
L 745.638004 173.738311 
L 747.163636 189.327229 
L 747.163636 189.327229 
" clip-path="url(#pebe4f6811e)" style="fill: none; stroke: #ff0000; stroke-linecap: square"/>
   </g>
   <g id="line2d_30">
    <path d="M 138.436364 56.801367 
L 139.961996 55.8 
L 141.487628 59.430099 
L 144.538893 72.16405 
L 146.064525 75.949894 
L 147.590157 76.81413 
L 149.115789 74.860896 
L 150.641422 70.468242 
L 152.167054 65.109872 
L 153.692686 60.533403 
L 155.218319 58.274105 
L 156.743951 59.017861 
L 158.269583 63.238204 
L 159.795215 71.058091 
L 164.372112 101.940237 
L 165.897744 109.409888 
L 167.423377 112.934956 
L 168.949009 111.902629 
L 170.474641 109.258551 
L 172.000273 108.837977 
L 173.525906 113.616579 
L 175.051538 123.131678 
L 176.57717 136.06101 
L 178.102802 151.380872 
L 179.628435 169.261816 
L 181.154067 190.172952 
L 184.205332 237.508244 
L 185.730964 257.371361 
L 187.256596 270.803918 
L 188.782228 278.856115 
L 190.307861 283.512473 
L 191.833493 286.20319 
L 193.359125 286.141185 
L 194.884757 281.985055 
L 196.41039 273.069862 
L 199.461654 249.160758 
L 200.987286 235.751726 
L 202.512919 220.07692 
L 205.564183 183.616998 
L 207.089815 169.115276 
L 208.615448 161.143697 
L 210.14108 159.920706 
L 211.666712 165.002387 
L 213.192344 175.469742 
L 216.243609 200.809186 
L 217.769241 209.711734 
L 219.294874 215.012841 
L 220.820506 217.13346 
L 222.346138 216.272359 
L 223.87177 211.739583 
L 225.397403 202.622995 
L 226.923035 188.640895 
L 229.974299 155.670821 
L 231.499932 141.933944 
L 233.025564 131.243756 
L 234.551196 123.531414 
L 236.076828 118.931372 
L 237.602461 118.391272 
L 239.128093 123.062051 
L 240.653725 133.257793 
L 242.179357 145.945151 
L 243.70499 157.253926 
L 245.230622 165.030804 
L 246.756254 173.990036 
L 248.281887 190.562762 
L 249.807519 218.140994 
L 251.333151 247.960242 
L 252.858783 270.455325 
L 254.384416 285.014803 
L 255.910048 293.265669 
L 257.43568 296.592257 
L 258.961312 295.40825 
L 260.486945 289.884667 
L 262.012577 280.355163 
L 263.538209 267.803932 
L 266.589474 238.050845 
L 269.640738 205.653963 
L 272.692003 173.373417 
L 274.217635 160.109878 
L 275.743267 150.471213 
L 277.2689 145.121809 
L 278.794532 144.581135 
L 280.320164 149.006867 
L 281.845796 157.109522 
L 287.948325 197.022464 
L 289.473958 204.03153 
L 290.99959 208.992422 
L 292.525222 211.930694 
L 294.050854 212.630981 
L 295.576487 209.914231 
L 297.102119 202.36047 
L 298.627751 189.594951 
L 300.153383 175.423828 
L 301.679016 164.030783 
L 303.204648 156.928708 
L 304.73028 154.9628 
L 306.255913 158.520722 
L 307.781545 166.160018 
L 310.832809 186.446259 
L 312.358442 197.474128 
L 313.884074 209.345222 
L 316.935338 235.572166 
L 319.986603 261.654227 
L 323.037867 285.771778 
L 324.5635 296.92918 
L 326.089132 305.16544 
L 327.614764 307.8 
L 329.140396 302.692641 
L 330.666029 289.864509 
L 332.191661 269.877091 
L 336.768558 191.85152 
L 338.29419 174.047384 
L 339.819822 161.756144 
L 341.345455 152.552344 
L 342.871087 144.584806 
L 344.396719 138.299472 
L 345.922351 134.716564 
L 347.447984 134.5017 
L 348.973616 136.902086 
L 350.499248 140.810323 
L 352.02488 145.603686 
L 353.550513 152.598134 
L 355.076145 163.594299 
L 356.601777 179.402134 
L 358.127409 196.86889 
L 359.653042 211.851141 
L 361.178674 221.069736 
L 362.704306 224.702628 
L 364.229938 223.792045 
L 367.281203 215.40716 
L 368.806835 213.150349 
L 370.332468 211.930421 
L 371.8581 209.854361 
L 374.909364 201.370139 
L 376.434997 199.16244 
L 377.960629 200.892923 
L 379.486261 205.512688 
L 382.537526 216.941832 
L 384.063158 223.411099 
L 385.58879 232.089421 
L 388.640055 255.785945 
L 390.165687 265.469855 
L 391.691319 270.548916 
L 393.216951 272.428179 
L 396.268216 274.489718 
L 397.793848 271.626265 
L 399.319481 259.47156 
L 402.370745 210.808997 
L 403.896377 194.61917 
L 406.947642 174.485103 
L 408.473274 160.312161 
L 409.998906 144.330254 
L 411.524539 130.555943 
L 413.050171 122.099615 
L 414.575803 118.446961 
L 416.101435 118.177498 
L 417.627068 120.467847 
L 419.1527 126.883038 
L 420.678332 139.585207 
L 422.203964 159.519427 
L 423.729597 182.762527 
L 425.255229 204.174278 
L 426.780861 219.811602 
L 428.306494 230.52004 
L 429.832126 238.342286 
L 431.357758 244.761887 
L 432.88339 249.025787 
L 434.409023 249.821782 
L 435.934655 246.552126 
L 437.460287 241.476894 
L 438.985919 237.570622 
L 440.511552 236.73399 
L 442.037184 236.572259 
L 443.562816 233.616839 
L 445.088448 225.879388 
L 446.614081 217.292566 
L 448.139713 212.167503 
L 449.665345 210.408219 
L 451.190977 210.816952 
L 452.71661 212.496278 
L 454.242242 215.750112 
L 455.767874 221.182707 
L 458.819139 237.066006 
L 460.344771 243.314348 
L 461.870403 245.697537 
L 463.396036 243.834574 
L 464.921668 237.737683 
L 466.4473 227.653655 
L 467.972932 214.767534 
L 472.549829 171.293507 
L 477.126726 126.363359 
L 478.652358 114.820362 
L 480.17799 107.572408 
L 481.703623 105.053638 
L 483.229255 107.437844 
L 484.754887 114.919969 
L 486.280519 127.779544 
L 487.806152 145.802762 
L 490.857416 187.738631 
L 492.383049 206.556888 
L 493.908681 222.776835 
L 495.434313 236.480746 
L 496.959945 247.656722 
L 498.485578 255.916147 
L 500.01121 260.776229 
L 501.536842 261.968657 
L 503.062474 260.083047 
L 504.588107 255.923497 
L 506.113739 250.311448 
L 509.165003 238.310465 
L 512.216268 228.489113 
L 513.7419 222.407823 
L 516.793165 207.122977 
L 518.318797 202.798011 
L 519.844429 203.425669 
L 522.895694 210.570338 
L 524.421326 212.018541 
L 525.946958 212.629123 
L 527.472591 214.532077 
L 530.523855 223.119686 
L 532.049487 223.593162 
L 533.57512 218.088263 
L 535.100752 209.742987 
L 538.152016 194.313777 
L 539.677649 184.994052 
L 544.254545 149.839587 
L 545.780178 142.836635 
L 547.30581 138.811561 
L 548.831442 136.363311 
L 550.357075 134.584399 
L 551.882707 134.541602 
L 553.408339 137.795265 
L 554.933971 145.397003 
L 556.459604 156.363519 
L 559.510868 182.825923 
L 561.0365 197.756664 
L 562.562133 214.921887 
L 565.613397 253.109269 
L 567.139029 266.973407 
L 568.664662 273.173185 
L 570.190294 273.42094 
L 571.715926 270.569202 
L 573.241558 266.866014 
L 574.767191 262.141475 
L 576.292823 255.621195 
L 577.818455 246.76109 
L 579.344087 235.938289 
L 583.920984 198.708988 
L 585.446617 188.151474 
L 586.972249 179.627418 
L 588.497881 173.291808 
L 590.023513 169.358801 
L 591.549146 168.279241 
L 593.074778 170.56314 
L 594.60041 176.310037 
L 597.651675 191.612861 
L 599.177307 197.534088 
L 600.702939 201.143375 
L 602.228571 202.113855 
L 603.754204 200.262189 
L 605.279836 195.979152 
L 606.805468 189.799053 
L 609.856733 175.312639 
L 611.382365 170.038091 
L 612.907997 167.808652 
L 614.43363 168.192006 
L 615.959262 170.348347 
L 617.484894 173.616504 
L 619.010526 178.049829 
L 620.536159 183.880311 
L 622.061791 191.269195 
L 623.587423 200.094779 
L 625.113055 210.164618 
L 631.215584 253.613273 
L 632.741217 262.449524 
L 634.266849 269.98051 
L 635.792481 275.966934 
L 637.318113 279.664596 
L 638.843746 280.203068 
L 640.369378 276.624944 
L 641.89501 267.624894 
L 643.420643 251.810607 
L 646.471907 207.046141 
L 647.997539 191.207612 
L 649.523172 181.106907 
L 651.048804 174.158936 
L 652.574436 168.234359 
L 654.100068 163.026862 
L 655.625701 158.685879 
L 657.151333 155.341884 
L 658.676965 153.049484 
L 660.202597 151.844322 
L 661.72823 151.949333 
L 663.253862 154.336617 
L 664.779494 160.165565 
L 666.305126 169.981162 
L 669.356391 193.30734 
L 670.882023 202.337327 
L 672.407656 209.301172 
L 673.933288 215.112814 
L 675.45892 220.23084 
L 676.984552 223.292433 
L 678.510185 222.47942 
L 680.035817 216.862964 
L 681.561449 209.07155 
L 683.087081 202.622995 
L 684.612714 200.105822 
L 686.138346 200.391386 
L 687.663978 201.421744 
L 689.18961 201.990055 
L 690.715243 204.293854 
L 692.240875 211.381779 
L 695.292139 238.525258 
L 696.817772 247.617626 
L 698.343404 252.801593 
L 699.869036 256.607652 
L 701.394668 260.838254 
L 702.920301 264.38369 
L 704.445933 265.406213 
L 705.971565 262.569348 
L 707.497198 256.541725 
L 709.02283 248.493247 
L 710.548462 239.314116 
L 712.074094 228.775722 
L 713.599727 216.369751 
L 716.650991 188.053621 
L 718.176623 176.80805 
L 719.702256 170.092742 
L 722.75352 162.44078 
L 724.279152 157.026544 
L 725.804785 150.959425 
L 727.330417 145.997178 
L 728.856049 143.617191 
L 730.381681 144.175392 
L 731.907314 147.747343 
L 733.432946 154.432765 
L 734.958578 164.428016 
L 736.484211 177.953613 
L 741.061107 227.904934 
L 742.58674 238.98074 
L 744.112372 244.791326 
L 745.638004 245.000871 
L 747.163636 239.946141 
L 747.163636 239.946141 
" clip-path="url(#pebe4f6811e)" style="fill: none; stroke: #0000ff; stroke-linecap: square"/>
   </g>
   <g id="patch_3">
    <path d="M 108 320.4 
L 108 43.2 
" style="fill: none; stroke: #000000; stroke-width: 0.8; stroke-linejoin: miter; stroke-linecap: square"/>
   </g>
   <g id="patch_4">
    <path d="M 777.6 320.4 
L 777.6 43.2 
" style="fill: none; stroke: #000000; stroke-width: 0.8; stroke-linejoin: miter; stroke-linecap: square"/>
   </g>
   <g id="patch_5">
    <path d="M 108 320.4 
L 777.6 320.4 
" style="fill: none; stroke: #000000; stroke-width: 0.8; stroke-linejoin: miter; stroke-linecap: square"/>
   </g>
   <g id="patch_6">
    <path d="M 108 43.2 
L 777.6 43.2 
" style="fill: none; stroke: #000000; stroke-width: 0.8; stroke-linejoin: miter; stroke-linecap: square"/>
   </g>
   <g id="text_17">
    <!-- Zooming data -->
    <g transform="translate(396.512602 37.2) scale(0.156 -0.156)">
     <defs>
      <path id="CMR17-5a" d="M 3302 4230 
C 3302 4352 3296 4352 3162 4352 
L 442 4352 
L 378 2948 
L 493 2948 
C 531 3675 723 4192 1760 4192 
L 2816 4192 
L 339 204 
C 294 134 294 127 294 83 
C 294 0 307 0 435 0 
L 3245 0 
L 3334 1666 
L 3219 1666 
C 3162 829 3117 178 1894 178 
L 781 178 
L 3302 4230 
z
" transform="scale(0.015625)"/>
      <path id="CMR17-6f" d="M 2758 1356 
C 2758 2176 2163 2816 1466 2816 
C 768 2816 173 2176 173 1356 
C 173 551 768 -64 1466 -64 
C 2163 -64 2758 551 2758 1356 
z
M 1466 51 
C 1165 51 909 230 762 480 
C 602 767 582 1126 582 1408 
C 582 1677 595 2010 762 2298 
C 890 2509 1139 2714 1466 2714 
C 1754 2714 1997 2554 2150 2330 
C 2349 2029 2349 1607 2349 1408 
C 2349 1158 2336 775 2163 467 
C 1984 173 1709 51 1466 51 
z
" transform="scale(0.015625)"/>
      <path id="CMR17-67" d="M 710 1164 
C 832 1068 1043 960 1299 960 
C 1805 960 2240 1357 2240 1888 
C 2240 2054 2189 2310 1997 2509 
C 2176 2692 2438 2752 2586 2752 
C 2611 2752 2650 2752 2682 2734 
C 2656 2728 2598 2703 2598 2605 
C 2598 2527 2656 2471 2739 2471 
C 2835 2471 2886 2533 2886 2614 
C 2886 2731 2790 2854 2586 2854 
C 2330 2854 2106 2738 1926 2580 
C 1734 2753 1504 2816 1299 2816 
C 794 2816 358 2419 358 1888 
C 358 1522 570 1292 634 1228 
C 442 1004 442 743 442 711 
C 442 545 506 302 723 168 
C 390 85 128 -169 128 -486 
C 128 -943 736 -1280 1466 -1280 
C 2170 -1280 2803 -956 2803 -479 
C 2803 384 1856 384 1363 384 
C 1216 384 954 384 922 391 
C 723 423 589 602 589 826 
C 589 883 589 1024 710 1164 
z
M 1299 1068 
C 736 1068 736 1760 736 1889 
C 736 2016 736 2708 1299 2708 
C 1862 2708 1862 2016 1862 1889 
C 1862 1760 1862 1068 1299 1068 
z
M 1466 -1171 
C 826 -1171 384 -835 384 -486 
C 384 -289 493 -105 634 -4 
C 794 104 858 104 1293 104 
C 1818 104 2547 104 2547 -486 
C 2547 -835 2106 -1171 1466 -1171 
z
" transform="scale(0.015625)"/>
     </defs>
     <use xlink:href="#CMR17-5a" transform="scale(0.996264)"/>
     <use xlink:href="#CMR17-6f" transform="translate(56.100171 0) scale(0.996264)"/>
     <use xlink:href="#CMR17-6f" transform="translate(104.393087 0) scale(0.996264)"/>
     <use xlink:href="#CMR17-6d" transform="translate(150.083564 0) scale(0.996264)"/>
     <use xlink:href="#CMR17-69" transform="translate(227.003154 0) scale(0.996264)"/>
     <use xlink:href="#CMR17-6e" transform="translate(251.874213 0) scale(0.996264)"/>
     <use xlink:href="#CMR17-67" transform="translate(302.769582 0) scale(0.996264)"/>
     <use xlink:href="#CMR17-64" transform="translate(378.536026 0) scale(0.996264)"/>
     <use xlink:href="#CMR17-61" transform="translate(429.431396 0) scale(0.996264)"/>
     <use xlink:href="#CMR17-74" transform="translate(475.121873 0) scale(0.996264)"/>
     <use xlink:href="#CMR17-61" transform="translate(510.40264 0) scale(0.996264)"/>
    </g>
   </g>
  </g>
 </g>
 <defs>
  <clipPath id="pebe4f6811e">
   <rect x="108" y="43.2" width="669.6" height="277.2"/>
  </clipPath>
 </defs>
</svg>
