<?xml version="1.0" encoding="utf-8" standalone="no"?>
<!DOCTYPE svg PUBLIC "-//W3C//DTD SVG 1.1//EN"
  "http://www.w3.org/Graphics/SVG/1.1/DTD/svg11.dtd">
<svg xmlns:xlink="http://www.w3.org/1999/xlink" width="576pt" height="216pt" viewBox="0 0 576 216" xmlns="http://www.w3.org/2000/svg" version="1.1">
 <metadata>
  <rdf:RDF xmlns:dc="http://purl.org/dc/elements/1.1/" xmlns:cc="http://creativecommons.org/ns#" xmlns:rdf="http://www.w3.org/1999/02/22-rdf-syntax-ns#">
   <cc:Work>
    <dc:type rdf:resource="http://purl.org/dc/dcmitype/StillImage"/>
    <dc:date>2023-06-13T12:08:10.924161</dc:date>
    <dc:format>image/svg+xml</dc:format>
    <dc:creator>
     <cc:Agent>
      <dc:title>Matplotlib v3.5.3, https://matplotlib.org/</dc:title>
     </cc:Agent>
    </dc:creator>
   </cc:Work>
  </rdf:RDF>
 </metadata>
 <defs>
  <style type="text/css">*{stroke-linejoin: round; stroke-linecap: butt}</style>
 </defs>
 <g id="figure_1">
  <g id="patch_1">
   <path d="M 0 216 
L 576 216 
L 576 0 
L 0 0 
L 0 216 
z
" style="fill: none"/>
  </g>
  <g id="axes_1">
   <g id="patch_2">
    <path d="M 43.584851 166.028575 
L 561.96 166.028575 
L 561.96 14.04 
L 43.584851 14.04 
z
" style="fill: #ffffff"/>
   </g>
   <g id="patch_3">
    <path d="M 67.147358 166.028575 
L 74.240683 166.028575 
L 74.240683 164.998897 
L 67.147358 164.998897 
z
" clip-path="url(#p24e1be017a)" style="fill: #800000; opacity: 0.3"/>
   </g>
   <g id="patch_4">
    <path d="M 74.240683 166.028575 
L 81.334008 166.028575 
L 81.334008 164.317279 
L 74.240683 164.317279 
z
" clip-path="url(#p24e1be017a)" style="fill: #800000; opacity: 0.3"/>
   </g>
   <g id="patch_5">
    <path d="M 81.334008 166.028575 
L 88.427332 166.028575 
L 88.427332 165.180178 
L 81.334008 165.180178 
z
" clip-path="url(#p24e1be017a)" style="fill: #800000; opacity: 0.3"/>
   </g>
   <g id="patch_6">
    <path d="M 88.427332 166.028575 
L 95.520657 166.028575 
L 95.520657 165.230937 
L 88.427332 165.230937 
z
" clip-path="url(#p24e1be017a)" style="fill: #800000; opacity: 0.3"/>
   </g>
   <g id="patch_7">
    <path d="M 95.520657 166.028575 
L 102.613982 166.028575 
L 102.613982 162.35944 
L 95.520657 162.35944 
z
" clip-path="url(#p24e1be017a)" style="fill: #800000; opacity: 0.3"/>
   </g>
   <g id="patch_8">
    <path d="M 102.613982 166.028575 
L 109.707307 166.028575 
L 109.707307 162.714752 
L 102.613982 162.714752 
z
" clip-path="url(#p24e1be017a)" style="fill: #800000; opacity: 0.3"/>
   </g>
   <g id="patch_9">
    <path d="M 109.707307 166.028575 
L 116.800631 166.028575 
L 116.800631 161.735833 
L 109.707307 161.735833 
z
" clip-path="url(#p24e1be017a)" style="fill: #800000; opacity: 0.3"/>
   </g>
   <g id="patch_10">
    <path d="M 116.800631 166.028575 
L 123.893956 166.028575 
L 123.893956 159.763491 
L 116.800631 159.763491 
z
" clip-path="url(#p24e1be017a)" style="fill: #800000; opacity: 0.3"/>
   </g>
   <g id="patch_11">
    <path d="M 123.893956 166.028575 
L 130.987281 166.028575 
L 130.987281 146.703982 
L 123.893956 146.703982 
z
" clip-path="url(#p24e1be017a)" style="fill: #800000; opacity: 0.3"/>
   </g>
   <g id="patch_12">
    <path d="M 130.987281 166.028575 
L 138.080606 166.028575 
L 138.080606 161.982375 
L 130.987281 161.982375 
z
" clip-path="url(#p24e1be017a)" style="fill: #800000; opacity: 0.3"/>
   </g>
   <g id="patch_13">
    <path d="M 138.080606 166.028575 
L 145.17393 166.028575 
L 145.17393 165.383214 
L 138.080606 165.383214 
z
" clip-path="url(#p24e1be017a)" style="fill: #800000; opacity: 0.3"/>
   </g>
   <g id="patch_14">
    <path d="M 145.17393 166.028575 
L 152.267255 166.028575 
L 152.267255 165.122168 
L 145.17393 165.122168 
z
" clip-path="url(#p24e1be017a)" style="fill: #800000; opacity: 0.3"/>
   </g>
   <g id="patch_15">
    <path d="M 152.267255 166.028575 
L 159.36058 166.028575 
L 159.36058 162.954043 
L 152.267255 162.954043 
z
" clip-path="url(#p24e1be017a)" style="fill: #800000; opacity: 0.3"/>
   </g>
   <g id="patch_16">
    <path d="M 159.36058 166.028575 
L 166.453905 166.028575 
L 166.453905 157.428587 
L 159.36058 157.428587 
z
" clip-path="url(#p24e1be017a)" style="fill: #800000; opacity: 0.3"/>
   </g>
   <g id="patch_17">
    <path d="M 166.453905 166.028575 
L 173.547229 166.028575 
L 173.547229 149.829273 
L 166.453905 149.829273 
z
" clip-path="url(#p24e1be017a)" style="fill: #800000; opacity: 0.3"/>
   </g>
   <g id="patch_18">
    <path d="M 173.547229 166.028575 
L 180.640554 166.028575 
L 180.640554 159.197893 
L 173.547229 159.197893 
z
" clip-path="url(#p24e1be017a)" style="fill: #800000; opacity: 0.3"/>
   </g>
   <g id="patch_19">
    <path d="M 180.640554 166.028575 
L 187.733879 166.028575 
L 187.733879 155.463497 
L 180.640554 155.463497 
z
" clip-path="url(#p24e1be017a)" style="fill: #800000; opacity: 0.3"/>
   </g>
   <g id="patch_20">
    <path d="M 187.733879 166.028575 
L 194.827204 166.028575 
L 194.827204 142.984088 
L 187.733879 142.984088 
z
" clip-path="url(#p24e1be017a)" style="fill: #800000; opacity: 0.3"/>
   </g>
   <g id="patch_21">
    <path d="M 194.827204 166.028575 
L 201.920528 166.028575 
L 201.920528 135.790844 
L 194.827204 135.790844 
z
" clip-path="url(#p24e1be017a)" style="fill: #800000; opacity: 0.3"/>
   </g>
   <g id="patch_22">
    <path d="M 201.920528 166.028575 
L 209.013853 166.028575 
L 209.013853 152.294699 
L 201.920528 152.294699 
z
" clip-path="url(#p24e1be017a)" style="fill: #800000; opacity: 0.3"/>
   </g>
   <g id="patch_23">
    <path d="M 209.013853 166.028575 
L 216.107178 166.028575 
L 216.107178 158.284235 
L 209.013853 158.284235 
z
" clip-path="url(#p24e1be017a)" style="fill: #800000; opacity: 0.3"/>
   </g>
   <g id="patch_24">
    <path d="M 216.107178 166.028575 
L 223.200503 166.028575 
L 223.200503 162.098395 
L 216.107178 162.098395 
z
" clip-path="url(#p24e1be017a)" style="fill: #800000; opacity: 0.3"/>
   </g>
   <g id="patch_25">
    <path d="M 223.200503 166.028575 
L 230.293827 166.028575 
L 230.293827 164.933636 
L 223.200503 164.933636 
z
" clip-path="url(#p24e1be017a)" style="fill: #800000; opacity: 0.3"/>
   </g>
   <g id="patch_26">
    <path d="M 230.293827 166.028575 
L 237.387152 166.028575 
L 237.387152 164.237515 
L 230.293827 164.237515 
z
" clip-path="url(#p24e1be017a)" style="fill: #800000; opacity: 0.3"/>
   </g>
   <g id="patch_27">
    <path d="M 237.387152 166.028575 
L 244.480477 166.028575 
L 244.480477 164.542068 
L 237.387152 164.542068 
z
" clip-path="url(#p24e1be017a)" style="fill: #800000; opacity: 0.3"/>
   </g>
   <g id="patch_28">
    <path d="M 244.480477 166.028575 
L 251.573802 166.028575 
L 251.573802 163.903958 
L 244.480477 163.903958 
z
" clip-path="url(#p24e1be017a)" style="fill: #800000; opacity: 0.3"/>
   </g>
   <g id="patch_29">
    <path d="M 251.573802 166.028575 
L 258.667126 166.028575 
L 258.667126 158.559783 
L 251.573802 158.559783 
z
" clip-path="url(#p24e1be017a)" style="fill: #800000; opacity: 0.3"/>
   </g>
   <g id="patch_30">
    <path d="M 258.667126 166.028575 
L 265.760451 166.028575 
L 265.760451 163.113571 
L 258.667126 163.113571 
z
" clip-path="url(#p24e1be017a)" style="fill: #800000; opacity: 0.3"/>
   </g>
   <g id="patch_31">
    <path d="M 265.760451 166.028575 
L 272.853776 166.028575 
L 272.853776 163.874953 
L 265.760451 163.874953 
z
" clip-path="url(#p24e1be017a)" style="fill: #800000; opacity: 0.3"/>
   </g>
   <g id="patch_32">
    <path d="M 272.853776 166.028575 
L 279.947101 166.028575 
L 279.947101 164.629083 
L 272.853776 164.629083 
z
" clip-path="url(#p24e1be017a)" style="fill: #800000; opacity: 0.3"/>
   </g>
   <g id="patch_33">
    <path d="M 279.947101 166.028575 
L 287.040425 166.028575 
L 287.040425 147.414605 
L 279.947101 147.414605 
z
" clip-path="url(#p24e1be017a)" style="fill: #800000; opacity: 0.3"/>
   </g>
   <g id="patch_34">
    <path d="M 287.040425 166.028575 
L 294.13375 166.028575 
L 294.13375 165.165676 
L 287.040425 165.165676 
z
" clip-path="url(#p24e1be017a)" style="fill: #800000; opacity: 0.3"/>
   </g>
   <g id="patch_35">
    <path d="M 294.13375 166.028575 
L 301.227075 166.028575 
L 301.227075 165.093163 
L 294.13375 165.093163 
z
" clip-path="url(#p24e1be017a)" style="fill: #800000; opacity: 0.3"/>
   </g>
   <g id="patch_36">
    <path d="M 301.227075 166.028575 
L 308.3204 166.028575 
L 308.3204 162.475461 
L 301.227075 162.475461 
z
" clip-path="url(#p24e1be017a)" style="fill: #800000; opacity: 0.3"/>
   </g>
   <g id="patch_37">
    <path d="M 308.3204 166.028575 
L 315.413724 166.028575 
L 315.413724 160.785918 
L 308.3204 160.785918 
z
" clip-path="url(#p24e1be017a)" style="fill: #800000; opacity: 0.3"/>
   </g>
   <g id="patch_38">
    <path d="M 315.413724 166.028575 
L 322.507049 166.028575 
L 322.507049 157.32707 
L 315.413724 157.32707 
z
" clip-path="url(#p24e1be017a)" style="fill: #800000; opacity: 0.3"/>
   </g>
   <g id="patch_39">
    <path d="M 322.507049 166.028575 
L 329.600374 166.028575 
L 329.600374 162.35944 
L 322.507049 162.35944 
z
" clip-path="url(#p24e1be017a)" style="fill: #800000; opacity: 0.3"/>
   </g>
   <g id="patch_40">
    <path d="M 329.600374 166.028575 
L 336.693699 166.028575 
L 336.693699 159.023863 
L 329.600374 159.023863 
z
" clip-path="url(#p24e1be017a)" style="fill: #800000; opacity: 0.3"/>
   </g>
   <g id="patch_41">
    <path d="M 336.693699 166.028575 
L 343.787023 166.028575 
L 343.787023 146.899766 
L 336.693699 146.899766 
z
" clip-path="url(#p24e1be017a)" style="fill: #800000; opacity: 0.3"/>
   </g>
   <g id="patch_42">
    <path d="M 343.787023 166.028575 
L 350.880348 166.028575 
L 350.880348 152.882051 
L 343.787023 152.882051 
z
" clip-path="url(#p24e1be017a)" style="fill: #800000; opacity: 0.3"/>
   </g>
   <g id="patch_43">
    <path d="M 350.880348 166.028575 
L 357.973673 166.028575 
L 357.973673 153.62893 
L 350.880348 153.62893 
z
" clip-path="url(#p24e1be017a)" style="fill: #800000; opacity: 0.3"/>
   </g>
   <g id="patch_44">
    <path d="M 357.973673 166.028575 
L 365.066998 166.028575 
L 365.066998 142.737546 
L 357.973673 142.737546 
z
" clip-path="url(#p24e1be017a)" style="fill: #800000; opacity: 0.3"/>
   </g>
   <g id="patch_45">
    <path d="M 365.066998 166.028575 
L 372.160322 166.028575 
L 372.160322 145.507525 
L 365.066998 145.507525 
z
" clip-path="url(#p24e1be017a)" style="fill: #800000; opacity: 0.3"/>
   </g>
   <g id="patch_46">
    <path d="M 372.160322 166.028575 
L 379.253647 166.028575 
L 379.253647 144.550359 
L 372.160322 144.550359 
z
" clip-path="url(#p24e1be017a)" style="fill: #800000; opacity: 0.3"/>
   </g>
   <g id="patch_47">
    <path d="M 379.253647 166.028575 
L 386.346972 166.028575 
L 386.346972 95.923446 
L 379.253647 95.923446 
z
" clip-path="url(#p24e1be017a)" style="fill: #800000; opacity: 0.3"/>
   </g>
   <g id="patch_48">
    <path d="M 386.346972 166.028575 
L 393.440297 166.028575 
L 393.440297 117.068105 
L 386.346972 117.068105 
z
" clip-path="url(#p24e1be017a)" style="fill: #800000; opacity: 0.3"/>
   </g>
   <g id="patch_49">
    <path d="M 393.440297 166.028575 
L 400.533621 166.028575 
L 400.533621 115.342306 
L 393.440297 115.342306 
z
" clip-path="url(#p24e1be017a)" style="fill: #800000; opacity: 0.3"/>
   </g>
   <g id="patch_50">
    <path d="M 400.533621 166.028575 
L 407.626946 166.028575 
L 407.626946 162.250672 
L 400.533621 162.250672 
z
" clip-path="url(#p24e1be017a)" style="fill: #800000; opacity: 0.3"/>
   </g>
   <g id="patch_51">
    <path d="M 407.626946 166.028575 
L 414.720271 166.028575 
L 414.720271 146.312414 
L 407.626946 146.312414 
z
" clip-path="url(#p24e1be017a)" style="fill: #800000; opacity: 0.3"/>
   </g>
   <g id="patch_52">
    <path d="M 414.720271 166.028575 
L 421.813595 166.028575 
L 421.813595 89.324805 
L 414.720271 89.324805 
z
" clip-path="url(#p24e1be017a)" style="fill: #800000; opacity: 0.3"/>
   </g>
   <g id="patch_53">
    <path d="M 421.813595 166.028575 
L 428.90692 166.028575 
L 428.90692 140.090838 
L 421.813595 140.090838 
z
" clip-path="url(#p24e1be017a)" style="fill: #800000; opacity: 0.3"/>
   </g>
   <g id="patch_54">
    <path d="M 428.90692 166.028575 
L 436.000245 166.028575 
L 436.000245 158.436512 
L 428.90692 158.436512 
z
" clip-path="url(#p24e1be017a)" style="fill: #800000; opacity: 0.3"/>
   </g>
   <g id="patch_55">
    <path d="M 436.000245 166.028575 
L 443.09357 166.028575 
L 443.09357 161.170235 
L 436.000245 161.170235 
z
" clip-path="url(#p24e1be017a)" style="fill: #800000; opacity: 0.3"/>
   </g>
   <g id="patch_56">
    <path d="M 443.09357 166.028575 
L 450.186894 166.028575 
L 450.186894 158.690306 
L 443.09357 158.690306 
z
" clip-path="url(#p24e1be017a)" style="fill: #800000; opacity: 0.3"/>
   </g>
   <g id="patch_57">
    <path d="M 450.186894 166.028575 
L 457.280219 166.028575 
L 457.280219 122.296259 
L 450.186894 122.296259 
z
" clip-path="url(#p24e1be017a)" style="fill: #800000; opacity: 0.3"/>
   </g>
   <g id="patch_58">
    <path d="M 457.280219 166.028575 
L 464.373544 166.028575 
L 464.373544 158.451014 
L 457.280219 158.451014 
z
" clip-path="url(#p24e1be017a)" style="fill: #800000; opacity: 0.3"/>
   </g>
   <g id="patch_59">
    <path d="M 464.373544 166.028575 
L 471.466869 166.028575 
L 471.466869 160.1043 
L 464.373544 160.1043 
z
" clip-path="url(#p24e1be017a)" style="fill: #800000; opacity: 0.3"/>
   </g>
   <g id="patch_60">
    <path d="M 471.466869 166.028575 
L 478.560193 166.028575 
L 478.560193 165.281696 
L 471.466869 165.281696 
z
" clip-path="url(#p24e1be017a)" style="fill: #800000; opacity: 0.3"/>
   </g>
   <g id="patch_61">
    <path d="M 478.560193 166.028575 
L 485.653518 166.028575 
L 485.653518 164.484058 
L 478.560193 164.484058 
z
" clip-path="url(#p24e1be017a)" style="fill: #800000; opacity: 0.3"/>
   </g>
   <g id="patch_62">
    <path d="M 485.653518 166.028575 
L 492.746843 166.028575 
L 492.746843 165.898053 
L 485.653518 165.898053 
z
" clip-path="url(#p24e1be017a)" style="fill: #800000; opacity: 0.3"/>
   </g>
   <g id="patch_63">
    <path d="M 335.321969 166.028575 
L 338.706561 166.028575 
L 338.706561 165.800621 
L 335.321969 165.800621 
z
" clip-path="url(#p24e1be017a)" style="fill: #00008b; opacity: 0.3"/>
   </g>
   <g id="patch_64">
    <path d="M 338.706561 166.028575 
L 342.091153 166.028575 
L 342.091153 165.648651 
L 338.706561 165.648651 
z
" clip-path="url(#p24e1be017a)" style="fill: #00008b; opacity: 0.3"/>
   </g>
   <g id="patch_65">
    <path d="M 342.091153 166.028575 
L 345.475745 166.028575 
L 345.475745 163.110759 
L 342.091153 163.110759 
z
" clip-path="url(#p24e1be017a)" style="fill: #00008b; opacity: 0.3"/>
   </g>
   <g id="patch_66">
    <path d="M 345.475745 166.028575 
L 348.860337 166.028575 
L 348.860337 161.621457 
L 345.475745 161.621457 
z
" clip-path="url(#p24e1be017a)" style="fill: #00008b; opacity: 0.3"/>
   </g>
   <g id="patch_67">
    <path d="M 348.860337 166.028575 
L 352.244929 166.028575 
L 352.244929 164.508879 
L 348.860337 164.508879 
z
" clip-path="url(#p24e1be017a)" style="fill: #00008b; opacity: 0.3"/>
   </g>
   <g id="patch_68">
    <path d="M 352.244929 166.028575 
L 355.629521 166.028575 
L 355.629521 165.299121 
L 352.244929 165.299121 
z
" clip-path="url(#p24e1be017a)" style="fill: #00008b; opacity: 0.3"/>
   </g>
   <g id="patch_69">
    <path d="M 355.629521 166.028575 
L 359.014113 166.028575 
L 359.014113 163.733835 
L 355.629521 163.733835 
z
" clip-path="url(#p24e1be017a)" style="fill: #00008b; opacity: 0.3"/>
   </g>
   <g id="patch_70">
    <path d="M 359.014113 166.028575 
L 362.398706 166.028575 
L 362.398706 165.466288 
L 359.014113 165.466288 
z
" clip-path="url(#p24e1be017a)" style="fill: #00008b; opacity: 0.3"/>
   </g>
   <g id="patch_71">
    <path d="M 362.398706 166.028575 
L 365.783298 166.028575 
L 365.783298 163.825016 
L 362.398706 163.825016 
z
" clip-path="url(#p24e1be017a)" style="fill: #00008b; opacity: 0.3"/>
   </g>
   <g id="patch_72">
    <path d="M 365.783298 166.028575 
L 369.16789 166.028575 
L 369.16789 158.794823 
L 365.783298 158.794823 
z
" clip-path="url(#p24e1be017a)" style="fill: #00008b; opacity: 0.3"/>
   </g>
   <g id="patch_73">
    <path d="M 369.16789 166.028575 
L 372.552482 166.028575 
L 372.552482 159.50908 
L 369.16789 159.50908 
z
" clip-path="url(#p24e1be017a)" style="fill: #00008b; opacity: 0.3"/>
   </g>
   <g id="patch_74">
    <path d="M 372.552482 166.028575 
L 375.937074 166.028575 
L 375.937074 150.178148 
L 372.552482 150.178148 
z
" clip-path="url(#p24e1be017a)" style="fill: #00008b; opacity: 0.3"/>
   </g>
   <g id="patch_75">
    <path d="M 375.937074 166.028575 
L 379.321666 166.028575 
L 379.321666 156.758431 
L 375.937074 156.758431 
z
" clip-path="url(#p24e1be017a)" style="fill: #00008b; opacity: 0.3"/>
   </g>
   <g id="patch_76">
    <path d="M 379.321666 166.028575 
L 382.706258 166.028575 
L 382.706258 147.336317 
L 379.321666 147.336317 
z
" clip-path="url(#p24e1be017a)" style="fill: #00008b; opacity: 0.3"/>
   </g>
   <g id="patch_77">
    <path d="M 382.706258 166.028575 
L 386.09085 166.028575 
L 386.09085 164.35691 
L 382.706258 164.35691 
z
" clip-path="url(#p24e1be017a)" style="fill: #00008b; opacity: 0.3"/>
   </g>
   <g id="patch_78">
    <path d="M 386.09085 166.028575 
L 389.475442 166.028575 
L 389.475442 161.60626 
L 386.09085 161.60626 
z
" clip-path="url(#p24e1be017a)" style="fill: #00008b; opacity: 0.3"/>
   </g>
   <g id="patch_79">
    <path d="M 389.475442 166.028575 
L 392.860034 166.028575 
L 392.860034 116.410508 
L 389.475442 116.410508 
z
" clip-path="url(#p24e1be017a)" style="fill: #00008b; opacity: 0.3"/>
   </g>
   <g id="patch_80">
    <path d="M 392.860034 166.028575 
L 396.244626 166.028575 
L 396.244626 147.017181 
L 392.860034 147.017181 
z
" clip-path="url(#p24e1be017a)" style="fill: #00008b; opacity: 0.3"/>
   </g>
   <g id="patch_81">
    <path d="M 396.244626 166.028575 
L 399.629218 166.028575 
L 399.629218 145.695046 
L 396.244626 145.695046 
z
" clip-path="url(#p24e1be017a)" style="fill: #00008b; opacity: 0.3"/>
   </g>
   <g id="patch_82">
    <path d="M 399.629218 166.028575 
L 403.01381 166.028575 
L 403.01381 160.101762 
L 399.629218 160.101762 
z
" clip-path="url(#p24e1be017a)" style="fill: #00008b; opacity: 0.3"/>
   </g>
   <g id="patch_83">
    <path d="M 403.01381 166.028575 
L 406.398402 166.028575 
L 406.398402 161.347912 
L 403.01381 161.347912 
z
" clip-path="url(#p24e1be017a)" style="fill: #00008b; opacity: 0.3"/>
   </g>
   <g id="patch_84">
    <path d="M 406.398402 166.028575 
L 409.782995 166.028575 
L 409.782995 158.26293 
L 406.398402 158.26293 
z
" clip-path="url(#p24e1be017a)" style="fill: #00008b; opacity: 0.3"/>
   </g>
   <g id="patch_85">
    <path d="M 409.782995 166.028575 
L 413.167587 166.028575 
L 413.167587 144.433698 
L 409.782995 144.433698 
z
" clip-path="url(#p24e1be017a)" style="fill: #00008b; opacity: 0.3"/>
   </g>
   <g id="patch_86">
    <path d="M 413.167587 166.028575 
L 416.552179 166.028575 
L 416.552179 122.565276 
L 413.167587 122.565276 
z
" clip-path="url(#p24e1be017a)" style="fill: #00008b; opacity: 0.3"/>
   </g>
   <g id="patch_87">
    <path d="M 416.552179 166.028575 
L 419.936771 166.028575 
L 419.936771 161.271927 
L 416.552179 161.271927 
z
" clip-path="url(#p24e1be017a)" style="fill: #00008b; opacity: 0.3"/>
   </g>
   <g id="patch_88">
    <path d="M 419.936771 166.028575 
L 423.321363 166.028575 
L 423.321363 124.647259 
L 419.936771 124.647259 
z
" clip-path="url(#p24e1be017a)" style="fill: #00008b; opacity: 0.3"/>
   </g>
   <g id="patch_89">
    <path d="M 423.321363 166.028575 
L 426.705955 166.028575 
L 426.705955 21.277551 
L 423.321363 21.277551 
z
" clip-path="url(#p24e1be017a)" style="fill: #00008b; opacity: 0.3"/>
   </g>
   <g id="patch_90">
    <path d="M 426.705955 166.028575 
L 430.090547 166.028575 
L 430.090547 127.64106 
L 426.705955 127.64106 
z
" clip-path="url(#p24e1be017a)" style="fill: #00008b; opacity: 0.3"/>
   </g>
   <g id="patch_91">
    <path d="M 430.090547 166.028575 
L 433.475139 166.028575 
L 433.475139 118.325324 
L 430.090547 118.325324 
z
" clip-path="url(#p24e1be017a)" style="fill: #00008b; opacity: 0.3"/>
   </g>
   <g id="patch_92">
    <path d="M 433.475139 166.028575 
L 436.859731 166.028575 
L 436.859731 53.601481 
L 433.475139 53.601481 
z
" clip-path="url(#p24e1be017a)" style="fill: #00008b; opacity: 0.3"/>
   </g>
   <g id="patch_93">
    <path d="M 436.859731 166.028575 
L 440.244323 166.028575 
L 440.244323 144.479289 
L 436.859731 144.479289 
z
" clip-path="url(#p24e1be017a)" style="fill: #00008b; opacity: 0.3"/>
   </g>
   <g id="patch_94">
    <path d="M 440.244323 166.028575 
L 443.628915 166.028575 
L 443.628915 151.895404 
L 440.244323 151.895404 
z
" clip-path="url(#p24e1be017a)" style="fill: #00008b; opacity: 0.3"/>
   </g>
   <g id="patch_95">
    <path d="M 443.628915 166.028575 
L 447.013507 166.028575 
L 447.013507 52.963208 
L 443.628915 52.963208 
z
" clip-path="url(#p24e1be017a)" style="fill: #00008b; opacity: 0.3"/>
   </g>
   <g id="patch_96">
    <path d="M 447.013507 166.028575 
L 450.398099 166.028575 
L 450.398099 131.592269 
L 447.013507 131.592269 
z
" clip-path="url(#p24e1be017a)" style="fill: #00008b; opacity: 0.3"/>
   </g>
   <g id="patch_97">
    <path d="M 450.398099 166.028575 
L 453.782691 166.028575 
L 453.782691 137.169552 
L 450.398099 137.169552 
z
" clip-path="url(#p24e1be017a)" style="fill: #00008b; opacity: 0.3"/>
   </g>
   <g id="patch_98">
    <path d="M 453.782691 166.028575 
L 457.167284 166.028575 
L 457.167284 127.230742 
L 453.782691 127.230742 
z
" clip-path="url(#p24e1be017a)" style="fill: #00008b; opacity: 0.3"/>
   </g>
   <g id="patch_99">
    <path d="M 457.167284 166.028575 
L 460.551876 166.028575 
L 460.551876 143.050775 
L 457.167284 143.050775 
z
" clip-path="url(#p24e1be017a)" style="fill: #00008b; opacity: 0.3"/>
   </g>
   <g id="patch_100">
    <path d="M 460.551876 166.028575 
L 463.936468 166.028575 
L 463.936468 133.279131 
L 460.551876 133.279131 
z
" clip-path="url(#p24e1be017a)" style="fill: #00008b; opacity: 0.3"/>
   </g>
   <g id="patch_101">
    <path d="M 463.936468 166.028575 
L 467.32106 166.028575 
L 467.32106 84.968002 
L 463.936468 84.968002 
z
" clip-path="url(#p24e1be017a)" style="fill: #00008b; opacity: 0.3"/>
   </g>
   <g id="patch_102">
    <path d="M 467.32106 166.028575 
L 470.705652 166.028575 
L 470.705652 117.671855 
L 467.32106 117.671855 
z
" clip-path="url(#p24e1be017a)" style="fill: #00008b; opacity: 0.3"/>
   </g>
   <g id="patch_103">
    <path d="M 470.705652 166.028575 
L 474.090244 166.028575 
L 474.090244 123.401108 
L 470.705652 123.401108 
z
" clip-path="url(#p24e1be017a)" style="fill: #00008b; opacity: 0.3"/>
   </g>
   <g id="patch_104">
    <path d="M 474.090244 166.028575 
L 477.474836 166.028575 
L 477.474836 107.201151 
L 474.090244 107.201151 
z
" clip-path="url(#p24e1be017a)" style="fill: #00008b; opacity: 0.3"/>
   </g>
   <g id="patch_105">
    <path d="M 477.474836 166.028575 
L 480.859428 166.028575 
L 480.859428 109.343922 
L 477.474836 109.343922 
z
" clip-path="url(#p24e1be017a)" style="fill: #00008b; opacity: 0.3"/>
   </g>
   <g id="patch_106">
    <path d="M 480.859428 166.028575 
L 484.24402 166.028575 
L 484.24402 119.085172 
L 480.859428 119.085172 
z
" clip-path="url(#p24e1be017a)" style="fill: #00008b; opacity: 0.3"/>
   </g>
   <g id="patch_107">
    <path d="M 484.24402 166.028575 
L 487.628612 166.028575 
L 487.628612 118.690051 
L 484.24402 118.690051 
z
" clip-path="url(#p24e1be017a)" style="fill: #00008b; opacity: 0.3"/>
   </g>
   <g id="patch_108">
    <path d="M 487.628612 166.028575 
L 491.013204 166.028575 
L 491.013204 153.643055 
L 487.628612 153.643055 
z
" clip-path="url(#p24e1be017a)" style="fill: #00008b; opacity: 0.3"/>
   </g>
   <g id="patch_109">
    <path d="M 491.013204 166.028575 
L 494.397796 166.028575 
L 494.397796 147.807423 
L 491.013204 147.807423 
z
" clip-path="url(#p24e1be017a)" style="fill: #00008b; opacity: 0.3"/>
   </g>
   <g id="patch_110">
    <path d="M 494.397796 166.028575 
L 497.782388 166.028575 
L 497.782388 158.46049 
L 494.397796 158.46049 
z
" clip-path="url(#p24e1be017a)" style="fill: #00008b; opacity: 0.3"/>
   </g>
   <g id="patch_111">
    <path d="M 497.782388 166.028575 
L 501.16698 166.028575 
L 501.16698 159.402702 
L 497.782388 159.402702 
z
" clip-path="url(#p24e1be017a)" style="fill: #00008b; opacity: 0.3"/>
   </g>
   <g id="patch_112">
    <path d="M 501.16698 166.028575 
L 504.551573 166.028575 
L 504.551573 157.989385 
L 501.16698 157.989385 
z
" clip-path="url(#p24e1be017a)" style="fill: #00008b; opacity: 0.3"/>
   </g>
   <g id="patch_113">
    <path d="M 504.551573 166.028575 
L 507.936165 166.028575 
L 507.936165 163.688244 
L 504.551573 163.688244 
z
" clip-path="url(#p24e1be017a)" style="fill: #00008b; opacity: 0.3"/>
   </g>
   <g id="patch_114">
    <path d="M 507.936165 166.028575 
L 511.320757 166.028575 
L 511.320757 154.494084 
L 507.936165 154.494084 
z
" clip-path="url(#p24e1be017a)" style="fill: #00008b; opacity: 0.3"/>
   </g>
   <g id="patch_115">
    <path d="M 511.320757 166.028575 
L 514.705349 166.028575 
L 514.705349 59.938612 
L 511.320757 59.938612 
z
" clip-path="url(#p24e1be017a)" style="fill: #00008b; opacity: 0.3"/>
   </g>
   <g id="patch_116">
    <path d="M 514.705349 166.028575 
L 518.089941 166.028575 
L 518.089941 163.870607 
L 514.705349 163.870607 
z
" clip-path="url(#p24e1be017a)" style="fill: #00008b; opacity: 0.3"/>
   </g>
   <g id="patch_117">
    <path d="M 518.089941 166.028575 
L 521.474533 166.028575 
L 521.474533 163.779425 
L 518.089941 163.779425 
z
" clip-path="url(#p24e1be017a)" style="fill: #00008b; opacity: 0.3"/>
   </g>
   <g id="patch_118">
    <path d="M 521.474533 166.028575 
L 524.859125 166.028575 
L 524.859125 164.341713 
L 521.474533 164.341713 
z
" clip-path="url(#p24e1be017a)" style="fill: #00008b; opacity: 0.3"/>
   </g>
   <g id="patch_119">
    <path d="M 524.859125 166.028575 
L 528.243717 166.028575 
L 528.243717 164.372107 
L 524.859125 164.372107 
z
" clip-path="url(#p24e1be017a)" style="fill: #00008b; opacity: 0.3"/>
   </g>
   <g id="patch_120">
    <path d="M 528.243717 166.028575 
L 531.628309 166.028575 
L 531.628309 164.189743 
L 528.243717 164.189743 
z
" clip-path="url(#p24e1be017a)" style="fill: #00008b; opacity: 0.3"/>
   </g>
   <g id="patch_121">
    <path d="M 531.628309 166.028575 
L 535.012901 166.028575 
L 535.012901 165.739833 
L 531.628309 165.739833 
z
" clip-path="url(#p24e1be017a)" style="fill: #00008b; opacity: 0.3"/>
   </g>
   <g id="patch_122">
    <path d="M 535.012901 166.028575 
L 538.397493 166.028575 
L 538.397493 158.126157 
L 535.012901 158.126157 
z
" clip-path="url(#p24e1be017a)" style="fill: #00008b; opacity: 0.3"/>
   </g>
   <g id="patch_123">
    <path d="M 172.978576 166.028575 
L 177.426283 166.028575 
L 177.426283 165.774156 
L 172.978576 165.774156 
z
" clip-path="url(#p24e1be017a)" style="fill: #006400; opacity: 0.3"/>
   </g>
   <g id="patch_124">
    <path d="M 177.426283 166.028575 
L 181.873989 166.028575 
L 181.873989 165.404092 
L 177.426283 165.404092 
z
" clip-path="url(#p24e1be017a)" style="fill: #006400; opacity: 0.3"/>
   </g>
   <g id="patch_125">
    <path d="M 181.873989 166.028575 
L 186.321695 166.028575 
L 186.321695 163.877578 
L 181.873989 163.877578 
z
" clip-path="url(#p24e1be017a)" style="fill: #006400; opacity: 0.3"/>
   </g>
   <g id="patch_126">
    <path d="M 186.321695 166.028575 
L 190.769402 166.028575 
L 190.769402 162.374193 
L 186.321695 162.374193 
z
" clip-path="url(#p24e1be017a)" style="fill: #006400; opacity: 0.3"/>
   </g>
   <g id="patch_127">
    <path d="M 190.769402 166.028575 
L 195.217108 166.028575 
L 195.217108 161.449033 
L 190.769402 161.449033 
z
" clip-path="url(#p24e1be017a)" style="fill: #006400; opacity: 0.3"/>
   </g>
   <g id="patch_128">
    <path d="M 195.217108 166.028575 
L 199.664814 166.028575 
L 199.664814 164.814303 
L 195.217108 164.814303 
z
" clip-path="url(#p24e1be017a)" style="fill: #006400; opacity: 0.3"/>
   </g>
   <g id="patch_129">
    <path d="M 199.664814 166.028575 
L 204.112521 166.028575 
L 204.112521 137.984661 
L 199.664814 137.984661 
z
" clip-path="url(#p24e1be017a)" style="fill: #006400; opacity: 0.3"/>
   </g>
   <g id="patch_130">
    <path d="M 204.112521 166.028575 
L 208.560227 166.028575 
L 208.560227 157.12391 
L 204.112521 157.12391 
z
" clip-path="url(#p24e1be017a)" style="fill: #006400; opacity: 0.3"/>
   </g>
   <g id="patch_131">
    <path d="M 208.560227 166.028575 
L 213.007934 166.028575 
L 213.007934 160.200067 
L 208.560227 160.200067 
z
" clip-path="url(#p24e1be017a)" style="fill: #006400; opacity: 0.3"/>
   </g>
   <g id="patch_132">
    <path d="M 213.007934 166.028575 
L 217.45564 166.028575 
L 217.45564 151.792675 
L 213.007934 151.792675 
z
" clip-path="url(#p24e1be017a)" style="fill: #006400; opacity: 0.3"/>
   </g>
   <g id="patch_133">
    <path d="M 217.45564 166.028575 
L 221.903346 166.028575 
L 221.903346 129.484753 
L 217.45564 129.484753 
z
" clip-path="url(#p24e1be017a)" style="fill: #006400; opacity: 0.3"/>
   </g>
   <g id="patch_134">
    <path d="M 221.903346 166.028575 
L 226.351053 166.028575 
L 226.351053 124.69705 
L 221.903346 124.69705 
z
" clip-path="url(#p24e1be017a)" style="fill: #006400; opacity: 0.3"/>
   </g>
   <g id="patch_135">
    <path d="M 226.351053 166.028575 
L 230.798759 166.028575 
L 230.798759 150.578402 
L 226.351053 150.578402 
z
" clip-path="url(#p24e1be017a)" style="fill: #006400; opacity: 0.3"/>
   </g>
   <g id="patch_136">
    <path d="M 230.798759 166.028575 
L 235.246465 166.028575 
L 235.246465 156.719152 
L 230.798759 156.719152 
z
" clip-path="url(#p24e1be017a)" style="fill: #006400; opacity: 0.3"/>
   </g>
   <g id="patch_137">
    <path d="M 235.246465 166.028575 
L 239.694172 166.028575 
L 239.694172 157.783086 
L 235.246465 157.783086 
z
" clip-path="url(#p24e1be017a)" style="fill: #006400; opacity: 0.3"/>
   </g>
   <g id="patch_138">
    <path d="M 239.694172 166.028575 
L 244.141878 166.028575 
L 244.141878 132.607168 
L 239.694172 132.607168 
z
" clip-path="url(#p24e1be017a)" style="fill: #006400; opacity: 0.3"/>
   </g>
   <g id="patch_139">
    <path d="M 244.141878 166.028575 
L 248.589584 166.028575 
L 248.589584 155.73617 
L 244.141878 155.73617 
z
" clip-path="url(#p24e1be017a)" style="fill: #006400; opacity: 0.3"/>
   </g>
   <g id="patch_140">
    <path d="M 248.589584 166.028575 
L 253.037291 166.028575 
L 253.037291 152.128045 
L 248.589584 152.128045 
z
" clip-path="url(#p24e1be017a)" style="fill: #006400; opacity: 0.3"/>
   </g>
   <g id="patch_141">
    <path d="M 253.037291 166.028575 
L 257.484997 166.028575 
L 257.484997 158.500085 
L 253.037291 158.500085 
z
" clip-path="url(#p24e1be017a)" style="fill: #006400; opacity: 0.3"/>
   </g>
   <g id="patch_142">
    <path d="M 257.484997 166.028575 
L 261.932704 166.028575 
L 261.932704 144.518604 
L 257.484997 144.518604 
z
" clip-path="url(#p24e1be017a)" style="fill: #006400; opacity: 0.3"/>
   </g>
   <g id="patch_143">
    <path d="M 261.932704 166.028575 
L 266.38041 166.028575 
L 266.38041 107.812879 
L 261.932704 107.812879 
z
" clip-path="url(#p24e1be017a)" style="fill: #006400; opacity: 0.3"/>
   </g>
   <g id="patch_144">
    <path d="M 266.38041 166.028575 
L 270.828116 166.028575 
L 270.828116 76.681243 
L 266.38041 76.681243 
z
" clip-path="url(#p24e1be017a)" style="fill: #006400; opacity: 0.3"/>
   </g>
   <g id="patch_145">
    <path d="M 270.828116 166.028575 
L 275.275823 166.028575 
L 275.275823 143.847863 
L 270.828116 143.847863 
z
" clip-path="url(#p24e1be017a)" style="fill: #006400; opacity: 0.3"/>
   </g>
   <g id="patch_146">
    <path d="M 275.275823 166.028575 
L 279.723529 166.028575 
L 279.723529 151.249143 
L 275.275823 151.249143 
z
" clip-path="url(#p24e1be017a)" style="fill: #006400; opacity: 0.3"/>
   </g>
   <g id="patch_147">
    <path d="M 279.723529 166.028575 
L 284.171235 166.028575 
L 284.171235 91.368159 
L 279.723529 91.368159 
z
" clip-path="url(#p24e1be017a)" style="fill: #006400; opacity: 0.3"/>
   </g>
   <g id="patch_148">
    <path d="M 284.171235 166.028575 
L 288.618942 166.028575 
L 288.618942 134.226198 
L 284.171235 134.226198 
z
" clip-path="url(#p24e1be017a)" style="fill: #006400; opacity: 0.3"/>
   </g>
   <g id="patch_149">
    <path d="M 288.618942 166.028575 
L 293.066648 166.028575 
L 293.066648 149.514468 
L 288.618942 149.514468 
z
" clip-path="url(#p24e1be017a)" style="fill: #006400; opacity: 0.3"/>
   </g>
   <g id="patch_150">
    <path d="M 293.066648 166.028575 
L 297.514355 166.028575 
L 297.514355 160.454486 
L 293.066648 160.454486 
z
" clip-path="url(#p24e1be017a)" style="fill: #006400; opacity: 0.3"/>
   </g>
   <g id="patch_151">
    <path d="M 297.514355 166.028575 
L 301.962061 166.028575 
L 301.962061 160.269454 
L 297.514355 160.269454 
z
" clip-path="url(#p24e1be017a)" style="fill: #006400; opacity: 0.3"/>
   </g>
   <g id="patch_152">
    <path d="M 301.962061 166.028575 
L 306.409767 166.028575 
L 306.409767 147.455987 
L 301.962061 147.455987 
z
" clip-path="url(#p24e1be017a)" style="fill: #006400; opacity: 0.3"/>
   </g>
   <g id="patch_153">
    <path d="M 306.409767 166.028575 
L 310.857474 166.028575 
L 310.857474 146.681166 
L 306.409767 146.681166 
z
" clip-path="url(#p24e1be017a)" style="fill: #006400; opacity: 0.3"/>
   </g>
   <g id="patch_154">
    <path d="M 310.857474 166.028575 
L 315.30518 166.028575 
L 315.30518 134.133682 
L 310.857474 134.133682 
z
" clip-path="url(#p24e1be017a)" style="fill: #006400; opacity: 0.3"/>
   </g>
   <g id="patch_155">
    <path d="M 315.30518 166.028575 
L 319.752886 166.028575 
L 319.752886 122.997068 
L 315.30518 122.997068 
z
" clip-path="url(#p24e1be017a)" style="fill: #006400; opacity: 0.3"/>
   </g>
   <g id="patch_156">
    <path d="M 319.752886 166.028575 
L 324.200593 166.028575 
L 324.200593 104.170061 
L 319.752886 104.170061 
z
" clip-path="url(#p24e1be017a)" style="fill: #006400; opacity: 0.3"/>
   </g>
   <g id="patch_157">
    <path d="M 324.200593 166.028575 
L 328.648299 166.028575 
L 328.648299 117.330463 
L 324.200593 117.330463 
z
" clip-path="url(#p24e1be017a)" style="fill: #006400; opacity: 0.3"/>
   </g>
   <g id="patch_158">
    <path d="M 328.648299 166.028575 
L 333.096005 166.028575 
L 333.096005 127.021515 
L 328.648299 127.021515 
z
" clip-path="url(#p24e1be017a)" style="fill: #006400; opacity: 0.3"/>
   </g>
   <g id="patch_159">
    <path d="M 333.096005 166.028575 
L 337.543712 166.028575 
L 337.543712 147.687277 
L 333.096005 147.687277 
z
" clip-path="url(#p24e1be017a)" style="fill: #006400; opacity: 0.3"/>
   </g>
   <g id="patch_160">
    <path d="M 337.543712 166.028575 
L 341.991418 166.028575 
L 341.991418 150.809692 
L 337.543712 150.809692 
z
" clip-path="url(#p24e1be017a)" style="fill: #006400; opacity: 0.3"/>
   </g>
   <g id="patch_161">
    <path d="M 341.991418 166.028575 
L 346.439125 166.028575 
L 346.439125 146.473005 
L 341.991418 146.473005 
z
" clip-path="url(#p24e1be017a)" style="fill: #006400; opacity: 0.3"/>
   </g>
   <g id="patch_162">
    <path d="M 346.439125 166.028575 
L 350.886831 166.028575 
L 350.886831 158.164715 
L 346.439125 158.164715 
z
" clip-path="url(#p24e1be017a)" style="fill: #006400; opacity: 0.3"/>
   </g>
   <g id="patch_163">
    <path d="M 350.886831 166.028575 
L 355.334537 166.028575 
L 355.334537 154.625978 
L 350.886831 154.625978 
z
" clip-path="url(#p24e1be017a)" style="fill: #006400; opacity: 0.3"/>
   </g>
   <g id="patch_164">
    <path d="M 355.334537 166.028575 
L 359.782244 166.028575 
L 359.782244 156.881055 
L 355.334537 156.881055 
z
" clip-path="url(#p24e1be017a)" style="fill: #006400; opacity: 0.3"/>
   </g>
   <g id="patch_165">
    <path d="M 359.782244 166.028575 
L 364.22995 166.028575 
L 364.22995 137.024808 
L 359.782244 137.024808 
z
" clip-path="url(#p24e1be017a)" style="fill: #006400; opacity: 0.3"/>
   </g>
   <g id="patch_166">
    <path d="M 364.22995 166.028575 
L 368.677656 166.028575 
L 368.677656 156.9967 
L 364.22995 156.9967 
z
" clip-path="url(#p24e1be017a)" style="fill: #006400; opacity: 0.3"/>
   </g>
   <g id="patch_167">
    <path d="M 368.677656 166.028575 
L 373.125363 166.028575 
L 373.125363 151.145063 
L 368.677656 151.145063 
z
" clip-path="url(#p24e1be017a)" style="fill: #006400; opacity: 0.3"/>
   </g>
   <g id="patch_168">
    <path d="M 373.125363 166.028575 
L 377.573069 166.028575 
L 377.573069 106.598606 
L 373.125363 106.598606 
z
" clip-path="url(#p24e1be017a)" style="fill: #006400; opacity: 0.3"/>
   </g>
   <g id="patch_169">
    <path d="M 377.573069 166.028575 
L 382.020776 166.028575 
L 382.020776 157.204861 
L 377.573069 157.204861 
z
" clip-path="url(#p24e1be017a)" style="fill: #006400; opacity: 0.3"/>
   </g>
   <g id="patch_170">
    <path d="M 382.020776 166.028575 
L 386.468482 166.028575 
L 386.468482 152.821915 
L 382.020776 152.821915 
z
" clip-path="url(#p24e1be017a)" style="fill: #006400; opacity: 0.3"/>
   </g>
   <g id="patch_171">
    <path d="M 386.468482 166.028575 
L 390.916188 166.028575 
L 390.916188 155.886508 
L 386.468482 155.886508 
z
" clip-path="url(#p24e1be017a)" style="fill: #006400; opacity: 0.3"/>
   </g>
   <g id="patch_172">
    <path d="M 390.916188 166.028575 
L 395.363895 166.028575 
L 395.363895 160.512308 
L 390.916188 160.512308 
z
" clip-path="url(#p24e1be017a)" style="fill: #006400; opacity: 0.3"/>
   </g>
   <g id="patch_173">
    <path d="M 395.363895 166.028575 
L 399.811601 166.028575 
L 399.811601 158.361311 
L 395.363895 158.361311 
z
" clip-path="url(#p24e1be017a)" style="fill: #006400; opacity: 0.3"/>
   </g>
   <g id="patch_174">
    <path d="M 399.811601 166.028575 
L 404.259307 166.028575 
L 404.259307 159.274907 
L 399.811601 159.274907 
z
" clip-path="url(#p24e1be017a)" style="fill: #006400; opacity: 0.3"/>
   </g>
   <g id="patch_175">
    <path d="M 404.259307 166.028575 
L 408.707014 166.028575 
L 408.707014 160.998017 
L 404.259307 160.998017 
z
" clip-path="url(#p24e1be017a)" style="fill: #006400; opacity: 0.3"/>
   </g>
   <g id="patch_176">
    <path d="M 408.707014 166.028575 
L 413.15472 166.028575 
L 413.15472 125.148065 
L 408.707014 125.148065 
z
" clip-path="url(#p24e1be017a)" style="fill: #006400; opacity: 0.3"/>
   </g>
   <g id="patch_177">
    <path d="M 413.15472 166.028575 
L 417.602426 166.028575 
L 417.602426 158.118457 
L 413.15472 158.118457 
z
" clip-path="url(#p24e1be017a)" style="fill: #006400; opacity: 0.3"/>
   </g>
   <g id="patch_178">
    <path d="M 417.602426 166.028575 
L 422.050133 166.028575 
L 422.050133 161.761274 
L 417.602426 161.761274 
z
" clip-path="url(#p24e1be017a)" style="fill: #006400; opacity: 0.3"/>
   </g>
   <g id="patch_179">
    <path d="M 422.050133 166.028575 
L 426.497839 166.028575 
L 426.497839 163.773498 
L 422.050133 163.773498 
z
" clip-path="url(#p24e1be017a)" style="fill: #006400; opacity: 0.3"/>
   </g>
   <g id="patch_180">
    <path d="M 426.497839 166.028575 
L 430.945546 166.028575 
L 430.945546 164.88369 
L 426.497839 164.88369 
z
" clip-path="url(#p24e1be017a)" style="fill: #006400; opacity: 0.3"/>
   </g>
   <g id="patch_181">
    <path d="M 430.945546 166.028575 
L 435.393252 166.028575 
L 435.393252 165.785721 
L 430.945546 165.785721 
z
" clip-path="url(#p24e1be017a)" style="fill: #006400; opacity: 0.3"/>
   </g>
   <g id="patch_182">
    <path d="M 435.393252 166.028575 
L 439.840958 166.028575 
L 439.840958 165.565995 
L 435.393252 165.565995 
z
" clip-path="url(#p24e1be017a)" style="fill: #006400; opacity: 0.3"/>
   </g>
   <g id="matplotlib.axis_1">
    <g id="xtick_1">
     <g id="line2d_1">
      <defs>
       <path id="m0ae0639949" d="M 0 0 
L 0 3.5 
" style="stroke: #000000; stroke-width: 0.8"/>
      </defs>
      <g>
       <use xlink:href="#m0ae0639949" x="82.468744" y="166.028575" style="stroke: #000000; stroke-width: 0.8"/>
      </g>
     </g>
     <g id="text_1">
      <!-- $\mathdefault{140}$ -->
      <g transform="translate(72.957634 182.022603)scale(0.13 -0.13)">
       <defs>
        <path id="CMR17-31" d="M 1702 4058 
C 1702 4192 1696 4192 1606 4192 
C 1357 3916 979 3827 621 3827 
C 602 3827 570 3827 563 3808 
C 557 3795 557 3782 557 3648 
C 755 3648 1088 3686 1344 3839 
L 1344 461 
C 1344 236 1331 160 781 160 
L 589 160 
L 589 0 
C 896 0 1216 0 1523 0 
C 1830 0 2150 0 2458 0 
L 2458 160 
L 2266 160 
C 1715 160 1702 230 1702 458 
L 1702 4058 
z
" transform="scale(0.015625)"/>
        <path id="CMR17-34" d="M 2150 4122 
C 2150 4256 2144 4256 2029 4256 
L 128 1254 
L 128 1088 
L 1779 1088 
L 1779 457 
C 1779 224 1766 160 1318 160 
L 1197 160 
L 1197 0 
C 1402 0 1747 0 1965 0 
C 2182 0 2528 0 2733 0 
L 2733 160 
L 2611 160 
C 2163 160 2150 224 2150 457 
L 2150 1088 
L 2803 1088 
L 2803 1254 
L 2150 1254 
L 2150 4122 
z
M 1798 3703 
L 1798 1254 
L 256 1254 
L 1798 3703 
z
" transform="scale(0.015625)"/>
        <path id="CMR17-30" d="M 2688 2025 
C 2688 2416 2682 3080 2413 3591 
C 2176 4039 1798 4198 1466 4198 
C 1158 4198 768 4058 525 3597 
C 269 3118 243 2524 243 2025 
C 243 1661 250 1106 448 619 
C 723 -39 1216 -128 1466 -128 
C 1760 -128 2208 -7 2470 600 
C 2662 1042 2688 1559 2688 2025 
z
M 1466 -26 
C 1056 -26 813 325 723 812 
C 653 1188 653 1738 653 2096 
C 653 2588 653 2997 736 3387 
C 858 3929 1216 4096 1466 4096 
C 1728 4096 2067 3923 2189 3400 
C 2272 3036 2278 2607 2278 2096 
C 2278 1680 2278 1169 2202 792 
C 2067 95 1690 -26 1466 -26 
z
" transform="scale(0.015625)"/>
       </defs>
       <use xlink:href="#CMR17-31" transform="scale(0.996264)"/>
       <use xlink:href="#CMR17-34" transform="translate(45.690477 0)scale(0.996264)"/>
       <use xlink:href="#CMR17-30" transform="translate(91.380954 0)scale(0.996264)"/>
      </g>
     </g>
    </g>
    <g id="xtick_2">
     <g id="line2d_2">
      <g>
       <use xlink:href="#m0ae0639949" x="194.728215" y="166.028575" style="stroke: #000000; stroke-width: 0.8"/>
      </g>
     </g>
     <g id="text_2">
      <!-- $\mathdefault{160}$ -->
      <g transform="translate(185.217106 182.022603)scale(0.13 -0.13)">
       <defs>
        <path id="CMR17-36" d="M 678 2176 
C 678 3690 1395 4032 1811 4032 
C 1946 4032 2272 4009 2400 3776 
C 2298 3776 2106 3776 2106 3553 
C 2106 3381 2246 3323 2336 3323 
C 2394 3323 2566 3348 2566 3560 
C 2566 3954 2246 4179 1805 4179 
C 1043 4179 243 3390 243 1984 
C 243 253 966 -128 1478 -128 
C 2099 -128 2688 427 2688 1283 
C 2688 2081 2170 2662 1517 2662 
C 1126 2662 838 2407 678 1960 
L 678 2176 
z
M 1478 25 
C 691 25 691 1200 691 1436 
C 691 1896 909 2560 1504 2560 
C 1613 2560 1926 2560 2138 2120 
C 2253 1870 2253 1609 2253 1289 
C 2253 944 2253 690 2118 434 
C 1978 171 1773 25 1478 25 
z
" transform="scale(0.015625)"/>
       </defs>
       <use xlink:href="#CMR17-31" transform="scale(0.996264)"/>
       <use xlink:href="#CMR17-36" transform="translate(45.690477 0)scale(0.996264)"/>
       <use xlink:href="#CMR17-30" transform="translate(91.380954 0)scale(0.996264)"/>
      </g>
     </g>
    </g>
    <g id="xtick_3">
     <g id="line2d_3">
      <g>
       <use xlink:href="#m0ae0639949" x="306.987687" y="166.028575" style="stroke: #000000; stroke-width: 0.8"/>
      </g>
     </g>
     <g id="text_3">
      <!-- $\mathdefault{180}$ -->
      <g transform="translate(297.476577 182.022603)scale(0.13 -0.13)">
       <defs>
        <path id="CMR17-38" d="M 1741 2264 
C 2144 2467 2554 2773 2554 3263 
C 2554 3841 1990 4179 1472 4179 
C 890 4179 378 3759 378 3180 
C 378 3021 416 2747 666 2505 
C 730 2442 998 2251 1171 2130 
C 883 1983 211 1634 211 934 
C 211 279 838 -128 1459 -128 
C 2144 -128 2720 362 2720 1010 
C 2720 1590 2330 1857 2074 2029 
L 1741 2264 
z
M 902 2822 
C 851 2854 595 3051 595 3351 
C 595 3739 998 4032 1459 4032 
C 1965 4032 2336 3676 2336 3262 
C 2336 2669 1670 2331 1638 2331 
C 1632 2331 1626 2331 1574 2370 
L 902 2822 
z
M 2080 1519 
C 2176 1449 2483 1240 2483 851 
C 2483 381 2010 25 1472 25 
C 890 25 448 438 448 940 
C 448 1443 838 1862 1280 2060 
L 2080 1519 
z
" transform="scale(0.015625)"/>
       </defs>
       <use xlink:href="#CMR17-31" transform="scale(0.996264)"/>
       <use xlink:href="#CMR17-38" transform="translate(45.690477 0)scale(0.996264)"/>
       <use xlink:href="#CMR17-30" transform="translate(91.380954 0)scale(0.996264)"/>
      </g>
     </g>
    </g>
    <g id="xtick_4">
     <g id="line2d_4">
      <g>
       <use xlink:href="#m0ae0639949" x="419.247158" y="166.028575" style="stroke: #000000; stroke-width: 0.8"/>
      </g>
     </g>
     <g id="text_4">
      <!-- $\mathdefault{200}$ -->
      <g transform="translate(409.736049 182.022603)scale(0.13 -0.13)">
       <defs>
        <path id="CMR17-32" d="M 2669 989 
L 2554 989 
C 2490 536 2438 459 2413 420 
C 2381 369 1920 369 1830 369 
L 602 369 
C 832 619 1280 1072 1824 1597 
C 2214 1967 2669 2402 2669 3035 
C 2669 3790 2067 4224 1395 4224 
C 691 4224 262 3604 262 3030 
C 262 2780 448 2748 525 2748 
C 589 2748 781 2787 781 3010 
C 781 3207 614 3264 525 3264 
C 486 3264 448 3258 422 3245 
C 544 3790 915 4058 1306 4058 
C 1862 4058 2227 3617 2227 3035 
C 2227 2479 1901 2000 1536 1584 
L 262 146 
L 262 0 
L 2515 0 
L 2669 989 
z
" transform="scale(0.015625)"/>
       </defs>
       <use xlink:href="#CMR17-32" transform="scale(0.996264)"/>
       <use xlink:href="#CMR17-30" transform="translate(45.690477 0)scale(0.996264)"/>
       <use xlink:href="#CMR17-30" transform="translate(91.380954 0)scale(0.996264)"/>
      </g>
     </g>
    </g>
    <g id="xtick_5">
     <g id="line2d_5">
      <g>
       <use xlink:href="#m0ae0639949" x="531.50663" y="166.028575" style="stroke: #000000; stroke-width: 0.8"/>
      </g>
     </g>
     <g id="text_5">
      <!-- $\mathdefault{220}$ -->
      <g transform="translate(521.995521 182.022603)scale(0.13 -0.13)">
       <use xlink:href="#CMR17-32" transform="scale(0.996264)"/>
       <use xlink:href="#CMR17-32" transform="translate(45.690477 0)scale(0.996264)"/>
       <use xlink:href="#CMR17-30" transform="translate(91.380954 0)scale(0.996264)"/>
      </g>
     </g>
    </g>
    <g id="text_6">
     <!-- spring constant $k_{1,2,3}$ (N/m) -->
     <g transform="translate(224.764388 198.25449)scale(0.13 -0.13)">
      <defs>
       <path id="CMR17-73" d="M 1978 2697 
C 1978 2813 1971 2819 1933 2819 
C 1907 2819 1901 2813 1824 2717 
C 1805 2691 1747 2626 1728 2601 
C 1523 2819 1235 2819 1126 2819 
C 416 2819 160 2447 160 2076 
C 160 1498 813 1365 998 1325 
C 1402 1243 1542 1217 1677 1101 
C 1760 1025 1901 884 1901 654 
C 1901 384 1747 38 1158 38 
C 602 38 403 460 288 1021 
C 269 1110 269 1117 218 1117 
C 166 1117 160 1110 160 983 
L 160 63 
C 160 -51 166 -58 205 -58 
C 237 -58 243 -51 275 0 
C 314 57 410 211 448 276 
C 576 103 800 -64 1158 -64 
C 1792 -64 2131 283 2131 784 
C 2131 1112 1958 1285 1875 1362 
C 1683 1561 1459 1606 1190 1657 
C 838 1735 390 1825 390 2217 
C 390 2383 480 2737 1126 2737 
C 1811 2737 1850 2094 1862 1888 
C 1869 1856 1901 1849 1920 1849 
C 1978 1849 1978 1869 1978 1978 
L 1978 2697 
z
" transform="scale(0.015625)"/>
       <path id="CMR17-70" d="M 1408 -1063 
C 998 -1063 973 -1037 973 -789 
L 973 402 
C 1158 134 1427 -38 1766 -38 
C 2406 -38 3053 523 3053 1388 
C 3053 2191 2496 2802 1837 2802 
C 1453 2802 1139 2592 960 2338 
L 960 2802 
L 198 2732 
L 198 2567 
C 576 2567 634 2528 634 2223 
L 634 -789 
C 634 -1031 608 -1063 198 -1063 
L 198 -1228 
C 352 -1216 634 -1216 800 -1216 
C 966 -1216 1254 -1216 1408 -1228 
L 1408 -1063 
z
M 973 2012 
C 973 2102 973 2235 1222 2471 
C 1254 2497 1472 2688 1792 2688 
C 2259 2688 2643 2108 2643 1382 
C 2643 656 2234 64 1728 64 
C 1498 64 1248 172 1056 472 
C 973 612 973 650 973 752 
L 973 2012 
z
" transform="scale(0.015625)"/>
       <path id="CMR17-72" d="M 960 1497 
C 960 2112 1222 2688 1702 2688 
C 1747 2688 1792 2682 1837 2662 
C 1837 2662 1696 2617 1696 2452 
C 1696 2298 1818 2234 1914 2234 
C 1990 2234 2131 2279 2131 2458 
C 2131 2663 1926 2790 1709 2790 
C 1222 2790 1011 2317 947 2093 
L 941 2093 
L 941 2790 
L 198 2720 
L 198 2554 
C 576 2554 634 2515 634 2208 
L 634 428 
C 634 184 608 153 198 153 
L 198 -13 
C 352 0 646 0 813 0 
C 998 0 1325 0 1498 -13 
L 1498 153 
C 1037 153 960 153 960 440 
L 960 1497 
z
" transform="scale(0.015625)"/>
       <path id="CMR17-69" d="M 992 3909 
C 992 4049 877 4170 730 4170 
C 589 4170 467 4056 467 3909 
C 467 3769 582 3648 730 3648 
C 870 3648 992 3763 992 3909 
z
M 243 2706 
L 243 2541 
C 602 2541 653 2502 653 2197 
L 653 427 
C 653 184 627 153 218 153 
L 218 -13 
C 371 0 646 0 806 0 
C 960 0 1222 0 1370 -13 
L 1370 153 
C 992 153 979 191 979 420 
L 979 2776 
L 243 2706 
z
" transform="scale(0.015625)"/>
       <path id="CMR17-6e" d="M 2656 1933 
C 2656 2259 2592 2790 1837 2790 
C 1331 2790 1069 2400 973 2144 
L 966 2144 
L 966 2790 
L 211 2720 
L 211 2554 
C 589 2554 646 2515 646 2208 
L 646 428 
C 646 184 621 153 211 153 
L 211 -13 
C 365 0 646 0 813 0 
C 979 0 1267 0 1421 -13 
L 1421 153 
C 1011 153 986 178 986 428 
L 986 1658 
C 986 2247 1344 2688 1792 2688 
C 2266 2688 2317 2266 2317 1958 
L 2317 428 
C 2317 184 2291 153 1882 153 
L 1882 -13 
C 2035 0 2317 0 2483 0 
C 2650 0 2938 0 3091 -13 
L 3091 153 
C 2682 153 2656 178 2656 428 
L 2656 1933 
z
" transform="scale(0.015625)"/>
       <path id="CMR17-67" d="M 710 1164 
C 832 1068 1043 960 1299 960 
C 1805 960 2240 1357 2240 1888 
C 2240 2054 2189 2310 1997 2509 
C 2176 2692 2438 2752 2586 2752 
C 2611 2752 2650 2752 2682 2734 
C 2656 2728 2598 2703 2598 2605 
C 2598 2527 2656 2471 2739 2471 
C 2835 2471 2886 2533 2886 2614 
C 2886 2731 2790 2854 2586 2854 
C 2330 2854 2106 2738 1926 2580 
C 1734 2753 1504 2816 1299 2816 
C 794 2816 358 2419 358 1888 
C 358 1522 570 1292 634 1228 
C 442 1004 442 743 442 711 
C 442 545 506 302 723 168 
C 390 85 128 -169 128 -486 
C 128 -943 736 -1280 1466 -1280 
C 2170 -1280 2803 -956 2803 -479 
C 2803 384 1856 384 1363 384 
C 1216 384 954 384 922 391 
C 723 423 589 602 589 826 
C 589 883 589 1024 710 1164 
z
M 1299 1068 
C 736 1068 736 1760 736 1889 
C 736 2016 736 2708 1299 2708 
C 1862 2708 1862 2016 1862 1889 
C 1862 1760 1862 1068 1299 1068 
z
M 1466 -1171 
C 826 -1171 384 -835 384 -486 
C 384 -289 493 -105 634 -4 
C 794 104 858 104 1293 104 
C 1818 104 2547 104 2547 -486 
C 2547 -835 2106 -1171 1466 -1171 
z
" transform="scale(0.015625)"/>
       <path id="CMR17-63" d="M 2234 2240 
C 2112 2240 1933 2240 1933 2017 
C 1933 1838 2080 1787 2163 1787 
C 2208 1787 2394 1807 2394 2024 
C 2394 2467 1958 2803 1466 2803 
C 787 2803 211 2178 211 1363 
C 211 516 813 -64 1466 -64 
C 2259 -64 2458 677 2458 748 
C 2458 774 2451 793 2406 793 
C 2362 793 2355 787 2330 703 
C 2163 180 1798 51 1523 51 
C 1114 51 621 427 621 1369 
C 621 2338 1094 2688 1472 2688 
C 1722 2688 2093 2573 2234 2240 
z
" transform="scale(0.015625)"/>
       <path id="CMR17-6f" d="M 2758 1356 
C 2758 2176 2163 2816 1466 2816 
C 768 2816 173 2176 173 1356 
C 173 551 768 -64 1466 -64 
C 2163 -64 2758 551 2758 1356 
z
M 1466 51 
C 1165 51 909 230 762 480 
C 602 767 582 1126 582 1408 
C 582 1677 595 2010 762 2298 
C 890 2509 1139 2714 1466 2714 
C 1754 2714 1997 2554 2150 2330 
C 2349 2029 2349 1607 2349 1408 
C 2349 1158 2336 775 2163 467 
C 1984 173 1709 51 1466 51 
z
" transform="scale(0.015625)"/>
       <path id="CMR17-74" d="M 966 2560 
L 1862 2560 
L 1862 2725 
L 966 2725 
L 966 3904 
L 851 3904 
C 838 3245 614 2668 70 2668 
L 70 2560 
L 627 2560 
L 627 771 
C 627 650 627 -64 1370 -64 
C 1747 -64 1965 306 1965 777 
L 1965 1140 
L 1850 1140 
L 1850 783 
C 1850 344 1677 51 1408 51 
C 1222 51 966 178 966 758 
L 966 2560 
z
" transform="scale(0.015625)"/>
       <path id="CMR17-61" d="M 2304 1653 
C 2304 2072 2304 2294 2035 2543 
C 1798 2752 1523 2816 1306 2816 
C 800 2816 435 2407 435 1971 
C 435 1728 627 1728 666 1728 
C 749 1728 896 1778 896 1954 
C 896 2112 774 2181 666 2181 
C 640 2181 608 2174 589 2168 
C 723 2592 1069 2714 1293 2714 
C 1613 2714 1965 2429 1965 1885 
L 1965 1600 
C 1587 1600 1133 1549 774 1357 
C 371 1133 256 813 256 570 
C 256 77 832 -64 1171 -64 
C 1523 -64 1850 139 1990 511 
C 2003 233 2182 -18 2464 -18 
C 2598 -18 2938 70 2938 567 
L 2938 920 
L 2822 920 
L 2822 562 
C 2822 178 2650 128 2566 128 
C 2304 128 2304 458 2304 738 
L 2304 1653 
z
M 1965 870 
C 1965 317 1568 38 1216 38 
C 896 38 646 275 646 570 
C 646 761 730 1100 1101 1305 
C 1408 1478 1760 1504 1965 1504 
L 1965 870 
z
" transform="scale(0.015625)"/>
       <path id="CMMI12-6b" d="M 1798 4257 
C 1805 4283 1818 4321 1818 4352 
C 1818 4416 1754 4416 1741 4416 
C 1734 4416 1504 4393 1389 4377 
C 1280 4377 1184 4358 1069 4358 
C 915 4345 870 4339 870 4224 
C 870 4160 934 4160 998 4160 
C 1325 4160 1325 4103 1325 4040 
C 1325 4015 1325 4002 1293 3888 
L 378 248 
C 352 152 352 140 352 101 
C 352 -38 461 -64 525 -64 
C 704 -64 742 77 794 275 
L 1094 1469 
C 1555 1418 1830 1226 1830 920 
C 1830 881 1830 856 1811 760 
C 1786 664 1786 588 1786 556 
C 1786 185 2029 -64 2355 -64 
C 2650 -64 2803 204 2854 294 
C 2989 530 3072 888 3072 913 
C 3072 945 3046 971 3008 971 
C 2950 971 2944 945 2918 843 
C 2829 511 2694 64 2368 64 
C 2240 64 2157 128 2157 370 
C 2157 492 2182 632 2208 728 
C 2234 843 2234 849 2234 926 
C 2234 1303 1894 1514 1306 1590 
C 1536 1731 1766 1980 1856 2076 
C 2221 2484 2470 2689 2765 2689 
C 2912 2689 2950 2650 2995 2612 
C 2758 2586 2669 2420 2669 2293 
C 2669 2139 2790 2088 2880 2088 
C 3053 2088 3206 2235 3206 2440 
C 3206 2625 3059 2816 2771 2816 
C 2419 2816 2131 2567 1677 2056 
C 1613 1980 1376 1737 1139 1648 
L 1798 4257 
z
" transform="scale(0.015625)"/>
       <path id="CMMI12-3b" d="M 1248 -31 
C 1248 343 1126 619 864 619 
C 659 619 557 453 557 313 
C 557 172 653 0 870 0 
C 954 0 1024 26 1082 83 
C 1094 96 1101 96 1107 96 
C 1120 96 1120 5 1120 -27 
C 1120 -240 1082 -659 710 -1080 
C 640 -1157 640 -1170 640 -1183 
C 640 -1216 672 -1248 704 -1248 
C 755 -1248 1248 -771 1248 -31 
z
" transform="scale(0.015625)"/>
       <path id="CMR17-33" d="M 1414 2157 
C 1984 2157 2234 1662 2234 1090 
C 2234 320 1824 25 1453 25 
C 1114 25 563 194 390 693 
C 422 680 454 680 486 680 
C 640 680 755 782 755 948 
C 755 1133 614 1216 486 1216 
C 378 1216 211 1165 211 926 
C 211 335 787 -128 1466 -128 
C 2176 -128 2720 430 2720 1085 
C 2720 1707 2208 2157 1600 2227 
C 2086 2328 2554 2756 2554 3329 
C 2554 3820 2048 4179 1472 4179 
C 890 4179 378 3829 378 3329 
C 378 3110 544 3072 627 3072 
C 762 3072 877 3155 877 3321 
C 877 3486 762 3569 627 3569 
C 602 3569 570 3569 544 3557 
C 730 3959 1235 4032 1459 4032 
C 1683 4032 2106 3925 2106 3320 
C 2106 3143 2080 2828 1862 2550 
C 1670 2304 1453 2304 1242 2284 
C 1210 2284 1062 2269 1037 2269 
C 992 2263 966 2257 966 2208 
C 966 2163 973 2157 1101 2157 
L 1414 2157 
z
" transform="scale(0.015625)"/>
       <path id="CMR17-28" d="M 1958 -1561 
C 1958 -1555 1958 -1542 1939 -1523 
C 1645 -1224 858 -407 858 1581 
C 858 3569 1632 4379 1946 4697 
C 1946 4704 1958 4717 1958 4736 
C 1958 4755 1939 4768 1914 4768 
C 1843 4768 1299 4296 986 3594 
C 666 2887 576 2199 576 1588 
C 576 1128 621 351 1005 -471 
C 1312 -1135 1837 -1600 1914 -1600 
C 1946 -1600 1958 -1587 1958 -1561 
z
" transform="scale(0.015625)"/>
       <path id="CMR17-4e" d="M 1312 4250 
C 1267 4320 1261 4320 1139 4320 
L 326 4320 
L 326 4160 
L 448 4160 
C 704 4160 819 4129 838 4122 
L 838 610 
C 838 451 838 153 326 153 
L 326 -13 
C 474 0 742 0 902 0 
C 1062 0 1331 0 1478 -13 
L 1478 153 
C 966 153 966 451 966 610 
L 966 4033 
C 1011 3995 1011 3982 1056 3919 
L 3430 76 
C 3475 0 3494 0 3526 0 
C 3590 0 3590 19 3590 139 
L 3590 3705 
C 3590 3863 3590 4160 4102 4160 
L 4102 4326 
C 3955 4320 3686 4320 3526 4320 
C 3366 4320 3098 4320 2950 4326 
L 2950 4160 
C 3462 4160 3462 3862 3462 3703 
L 3462 763 
L 1312 4250 
z
" transform="scale(0.015625)"/>
       <path id="CMR17-2f" d="M 2605 4545 
C 2637 4627 2637 4640 2637 4653 
C 2637 4729 2579 4768 2528 4768 
C 2451 4768 2426 4717 2400 4640 
L 326 -1377 
C 294 -1460 294 -1473 294 -1486 
C 294 -1562 352 -1600 403 -1600 
C 480 -1600 506 -1549 531 -1473 
L 2605 4545 
z
" transform="scale(0.015625)"/>
       <path id="CMR17-6d" d="M 4326 1933 
C 4326 2252 4269 2790 3507 2790 
C 3072 2790 2771 2496 2656 2151 
L 2650 2151 
C 2573 2676 2195 2790 1837 2790 
C 1331 2790 1069 2400 973 2144 
L 966 2144 
L 966 2790 
L 211 2720 
L 211 2554 
C 589 2554 646 2515 646 2208 
L 646 428 
C 646 184 621 153 211 153 
L 211 -13 
C 365 0 646 0 813 0 
C 979 0 1267 0 1421 -13 
L 1421 153 
C 1011 153 986 178 986 428 
L 986 1658 
C 986 2247 1344 2688 1792 2688 
C 2266 2688 2317 2266 2317 1958 
L 2317 428 
C 2317 184 2291 153 1882 153 
L 1882 -13 
C 2035 0 2317 0 2483 0 
C 2650 0 2938 0 3091 -13 
L 3091 153 
C 2682 153 2656 178 2656 428 
L 2656 1658 
C 2656 2247 3014 2688 3462 2688 
C 3936 2688 3987 2266 3987 1958 
L 3987 428 
C 3987 184 3962 153 3552 153 
L 3552 -13 
C 3706 0 3987 0 4154 0 
C 4320 0 4608 0 4762 -13 
L 4762 153 
C 4352 153 4326 178 4326 428 
L 4326 1933 
z
" transform="scale(0.015625)"/>
       <path id="CMR17-29" d="M 1683 1581 
C 1683 2040 1638 2817 1254 3639 
C 947 4303 422 4768 346 4768 
C 326 4768 301 4761 301 4729 
C 301 4717 307 4710 314 4697 
C 621 4378 1402 3568 1402 1584 
C 1402 -407 627 -1217 314 -1537 
C 307 -1549 301 -1556 301 -1568 
C 301 -1600 326 -1600 346 -1600 
C 416 -1600 960 -1128 1274 -426 
C 1594 281 1683 969 1683 1581 
z
" transform="scale(0.015625)"/>
      </defs>
      <use xlink:href="#CMR17-73" transform="scale(0.996264)"/>
      <use xlink:href="#CMR17-70" transform="translate(35.801338 0)scale(0.996264)"/>
      <use xlink:href="#CMR17-72" transform="translate(86.696707 0)scale(0.996264)"/>
      <use xlink:href="#CMR17-69" transform="translate(121.977475 0)scale(0.996264)"/>
      <use xlink:href="#CMR17-6e" transform="translate(146.848534 0)scale(0.996264)"/>
      <use xlink:href="#CMR17-67" transform="translate(197.743903 0)scale(0.996264)"/>
      <use xlink:href="#CMR17-63" transform="translate(273.510347 0)scale(0.996264)"/>
      <use xlink:href="#CMR17-6f" transform="translate(313.996007 0)scale(0.996264)"/>
      <use xlink:href="#CMR17-6e" transform="translate(359.686485 0)scale(0.996264)"/>
      <use xlink:href="#CMR17-73" transform="translate(410.581854 0)scale(0.996264)"/>
      <use xlink:href="#CMR17-74" transform="translate(446.383192 0)scale(0.996264)"/>
      <use xlink:href="#CMR17-61" transform="translate(481.66396 0)scale(0.996264)"/>
      <use xlink:href="#CMR17-6e" transform="translate(527.354437 0)scale(0.996264)"/>
      <use xlink:href="#CMR17-74" transform="translate(575.647353 0)scale(0.996264)"/>
      <use xlink:href="#CMMI12-6b" transform="translate(641.004087 0)scale(0.996264)"/>
      <use xlink:href="#CMR17-31" transform="translate(691.739275 -14.943915)scale(0.697382)"/>
      <use xlink:href="#CMMI12-3b" transform="translate(723.722457 -14.943915)scale(0.697382)"/>
      <use xlink:href="#CMR17-32" transform="translate(742.69039 -14.943915)scale(0.697382)"/>
      <use xlink:href="#CMMI12-3b" transform="translate(774.673572 -14.943915)scale(0.697382)"/>
      <use xlink:href="#CMR17-33" transform="translate(793.641505 -14.943915)scale(0.697382)"/>
      <use xlink:href="#CMR17-28" transform="translate(856.198785 0)scale(0.996264)"/>
      <use xlink:href="#CMR17-4e" transform="translate(891.479553 0)scale(0.996264)"/>
      <use xlink:href="#CMR17-2f" transform="translate(960.551983 0)scale(0.996264)"/>
      <use xlink:href="#CMR17-6d" transform="translate(1006.24246 0)scale(0.996264)"/>
      <use xlink:href="#CMR17-29" transform="translate(1083.16205 0)scale(0.996264)"/>
     </g>
    </g>
   </g>
   <g id="matplotlib.axis_2">
    <g id="ytick_1">
     <g id="line2d_6">
      <defs>
       <path id="m1081bd0428" d="M 0 0 
L -3.5 0 
" style="stroke: #000000; stroke-width: 0.8"/>
      </defs>
      <g>
       <use xlink:href="#m1081bd0428" x="43.584851" y="166.028575" style="stroke: #000000; stroke-width: 0.8"/>
      </g>
     </g>
     <g id="text_7">
      <!-- $\mathdefault{0.00}$ -->
      <g transform="translate(14.04 170.525589)scale(0.13 -0.13)">
       <defs>
        <path id="CMMI12-3a" d="M 1178 307 
C 1178 492 1024 619 870 619 
C 685 619 557 466 557 313 
C 557 128 710 0 864 0 
C 1050 0 1178 153 1178 307 
z
" transform="scale(0.015625)"/>
       </defs>
       <use xlink:href="#CMR17-30" transform="scale(0.996264)"/>
       <use xlink:href="#CMMI12-3a" transform="translate(45.690477 0)scale(0.996264)"/>
       <use xlink:href="#CMR17-30" transform="translate(72.787654 0)scale(0.996264)"/>
       <use xlink:href="#CMR17-30" transform="translate(118.478131 0)scale(0.996264)"/>
      </g>
     </g>
    </g>
    <g id="ytick_2">
     <g id="line2d_7">
      <g>
       <use xlink:href="#m1081bd0428" x="43.584851" y="120.210167" style="stroke: #000000; stroke-width: 0.8"/>
      </g>
     </g>
     <g id="text_8">
      <!-- $\mathdefault{0.05}$ -->
      <g transform="translate(14.04 124.707181)scale(0.13 -0.13)">
       <defs>
        <path id="CMR17-35" d="M 730 3692 
C 794 3666 1056 3584 1325 3584 
C 1920 3584 2246 3911 2432 4100 
C 2432 4157 2432 4192 2394 4192 
C 2387 4192 2374 4192 2323 4163 
C 2099 4058 1837 3973 1517 3973 
C 1325 3973 1037 3999 723 4139 
C 653 4171 640 4171 634 4171 
C 602 4171 595 4164 595 4037 
L 595 2203 
C 595 2089 595 2057 659 2057 
C 691 2057 704 2070 736 2114 
C 941 2401 1222 2522 1542 2522 
C 1766 2522 2246 2382 2246 1289 
C 2246 1085 2246 715 2054 421 
C 1894 159 1645 25 1370 25 
C 947 25 518 320 403 814 
C 429 807 480 795 506 795 
C 589 795 749 840 749 1038 
C 749 1210 627 1280 506 1280 
C 358 1280 262 1190 262 1011 
C 262 454 704 -128 1382 -128 
C 2042 -128 2669 440 2669 1264 
C 2669 2030 2170 2624 1549 2624 
C 1222 2624 947 2503 730 2274 
L 730 3692 
z
" transform="scale(0.015625)"/>
       </defs>
       <use xlink:href="#CMR17-30" transform="scale(0.996264)"/>
       <use xlink:href="#CMMI12-3a" transform="translate(45.690477 0)scale(0.996264)"/>
       <use xlink:href="#CMR17-30" transform="translate(72.787654 0)scale(0.996264)"/>
       <use xlink:href="#CMR17-35" transform="translate(118.478131 0)scale(0.996264)"/>
      </g>
     </g>
    </g>
    <g id="ytick_3">
     <g id="line2d_8">
      <g>
       <use xlink:href="#m1081bd0428" x="43.584851" y="74.391758" style="stroke: #000000; stroke-width: 0.8"/>
      </g>
     </g>
     <g id="text_9">
      <!-- $\mathdefault{0.10}$ -->
      <g transform="translate(14.04 78.888772)scale(0.13 -0.13)">
       <use xlink:href="#CMR17-30" transform="scale(0.996264)"/>
       <use xlink:href="#CMMI12-3a" transform="translate(45.690477 0)scale(0.996264)"/>
       <use xlink:href="#CMR17-31" transform="translate(72.787654 0)scale(0.996264)"/>
       <use xlink:href="#CMR17-30" transform="translate(118.478131 0)scale(0.996264)"/>
      </g>
     </g>
    </g>
    <g id="ytick_4">
     <g id="line2d_9">
      <g>
       <use xlink:href="#m1081bd0428" x="43.584851" y="28.57335" style="stroke: #000000; stroke-width: 0.8"/>
      </g>
     </g>
     <g id="text_10">
      <!-- $\mathdefault{0.15}$ -->
      <g transform="translate(14.04 33.070364)scale(0.13 -0.13)">
       <use xlink:href="#CMR17-30" transform="scale(0.996264)"/>
       <use xlink:href="#CMMI12-3a" transform="translate(45.690477 0)scale(0.996264)"/>
       <use xlink:href="#CMR17-31" transform="translate(72.787654 0)scale(0.996264)"/>
       <use xlink:href="#CMR17-35" transform="translate(118.478131 0)scale(0.996264)"/>
      </g>
     </g>
    </g>
   </g>
   <g id="patch_183">
    <path d="M 43.584851 166.028575 
L 43.584851 14.04 
" style="fill: none; stroke: #000000; stroke-width: 0.8; stroke-linejoin: miter; stroke-linecap: square"/>
   </g>
   <g id="patch_184">
    <path d="M 561.96 166.028575 
L 561.96 14.04 
" style="fill: none; stroke: #000000; stroke-width: 0.8; stroke-linejoin: miter; stroke-linecap: square"/>
   </g>
   <g id="patch_185">
    <path d="M 43.584851 166.028575 
L 561.96 166.028575 
" style="fill: none; stroke: #000000; stroke-width: 0.8; stroke-linejoin: miter; stroke-linecap: square"/>
   </g>
   <g id="patch_186">
    <path d="M 43.584851 14.04 
L 561.96 14.04 
" style="fill: none; stroke: #000000; stroke-width: 0.8; stroke-linejoin: miter; stroke-linecap: square"/>
   </g>
   <g id="legend_1">
    <g id="patch_187">
     <path d="M 500.005573 78.794936 
L 552.86 78.794936 
Q 555.46 78.794936 555.46 76.194936 
L 555.46 23.14 
Q 555.46 20.54 552.86 20.54 
L 500.005573 20.54 
Q 497.405573 20.54 497.405573 23.14 
L 497.405573 76.194936 
Q 497.405573 78.794936 500.005573 78.794936 
z
" style="fill: #ffffff; opacity: 0.8; stroke: #cccccc; stroke-linejoin: miter"/>
    </g>
    <g id="patch_188">
     <path d="M 502.605573 34.84 
L 528.605573 34.84 
L 528.605573 25.74 
L 502.605573 25.74 
z
" style="fill: #800000; opacity: 0.3"/>
    </g>
    <g id="text_11">
     <!-- $k_1$ -->
     <g transform="translate(539.005573 34.84)scale(0.13 -0.13)">
      <use xlink:href="#CMMI12-6b" transform="scale(0.996264)"/>
      <use xlink:href="#CMR17-31" transform="translate(50.735189 -14.943915)scale(0.697382)"/>
     </g>
    </g>
    <g id="patch_189">
     <path d="M 502.605573 52.958312 
L 528.605573 52.958312 
L 528.605573 43.858312 
L 502.605573 43.858312 
z
" style="fill: #00008b; opacity: 0.3"/>
    </g>
    <g id="text_12">
     <!-- $k_2$ -->
     <g transform="translate(539.005573 52.958312)scale(0.13 -0.13)">
      <use xlink:href="#CMMI12-6b" transform="scale(0.996264)"/>
      <use xlink:href="#CMR17-32" transform="translate(50.735189 -14.943915)scale(0.697382)"/>
     </g>
    </g>
    <g id="patch_190">
     <path d="M 502.605573 71.076624 
L 528.605573 71.076624 
L 528.605573 61.976624 
L 502.605573 61.976624 
z
" style="fill: #006400; opacity: 0.3"/>
    </g>
    <g id="text_13">
     <!-- $k_3$ -->
     <g transform="translate(539.005573 71.076624)scale(0.13 -0.13)">
      <use xlink:href="#CMMI12-6b" transform="scale(0.996264)"/>
      <use xlink:href="#CMR17-33" transform="translate(50.735189 -14.943915)scale(0.697382)"/>
     </g>
    </g>
   </g>
  </g>
 </g>
 <defs>
  <clipPath id="p24e1be017a">
   <rect x="43.584851" y="14.04" width="518.375149" height="151.988575"/>
  </clipPath>
 </defs>
</svg>
