<?xml version="1.0" encoding="utf-8" standalone="no"?>
<!DOCTYPE svg PUBLIC "-//W3C//DTD SVG 1.1//EN"
  "http://www.w3.org/Graphics/SVG/1.1/DTD/svg11.dtd">
<svg xmlns:xlink="http://www.w3.org/1999/xlink" width="576pt" height="216pt" viewBox="0 0 576 216" xmlns="http://www.w3.org/2000/svg" version="1.1">
 <metadata>
  <rdf:RDF xmlns:dc="http://purl.org/dc/elements/1.1/" xmlns:cc="http://creativecommons.org/ns#" xmlns:rdf="http://www.w3.org/1999/02/22-rdf-syntax-ns#">
   <cc:Work>
    <dc:type rdf:resource="http://purl.org/dc/dcmitype/StillImage"/>
    <dc:date>2023-06-20T20:46:46.283848</dc:date>
    <dc:format>image/svg+xml</dc:format>
    <dc:creator>
     <cc:Agent>
      <dc:title>Matplotlib v3.5.3, https://matplotlib.org/</dc:title>
     </cc:Agent>
    </dc:creator>
   </cc:Work>
  </rdf:RDF>
 </metadata>
 <defs>
  <style type="text/css">*{stroke-linejoin: round; stroke-linecap: butt}</style>
 </defs>
 <g id="figure_1">
  <g id="patch_1">
   <path d="M 0 216 
L 576 216 
L 576 0 
L 0 0 
L 0 216 
z
" style="fill: none"/>
  </g>
  <g id="axes_1">
   <g id="patch_2">
    <path d="M 49.925591 166.028575 
L 561.96 166.028575 
L 561.96 14.04 
L 49.925591 14.04 
z
" style="fill: #ffffff"/>
   </g>
   <g id="patch_3">
    <path d="M 78.467762 166.028575 
L 91.681274 166.028575 
L 91.681274 161.064525 
L 78.467762 161.064525 
z
" clip-path="url(#p3f33804c7e)" style="fill: #800000; opacity: 0.3"/>
   </g>
   <g id="patch_4">
    <path d="M 91.681274 166.028575 
L 104.894787 166.028575 
L 104.894787 155.014589 
L 91.681274 155.014589 
z
" clip-path="url(#p3f33804c7e)" style="fill: #800000; opacity: 0.3"/>
   </g>
   <g id="patch_5">
    <path d="M 104.894787 166.028575 
L 118.108299 166.028575 
L 118.108299 156.410728 
L 104.894787 156.410728 
z
" clip-path="url(#p3f33804c7e)" style="fill: #800000; opacity: 0.3"/>
   </g>
   <g id="patch_6">
    <path d="M 118.108299 166.028575 
L 131.321812 166.028575 
L 131.321812 164.24462 
L 118.108299 164.24462 
z
" clip-path="url(#p3f33804c7e)" style="fill: #800000; opacity: 0.3"/>
   </g>
   <g id="patch_7">
    <path d="M 131.321812 166.028575 
L 144.535325 166.028575 
L 144.535325 130.892409 
L 131.321812 130.892409 
z
" clip-path="url(#p3f33804c7e)" style="fill: #800000; opacity: 0.3"/>
   </g>
   <g id="patch_8">
    <path d="M 144.535325 166.028575 
L 157.748837 166.028575 
L 157.748837 165.795885 
L 144.535325 165.795885 
z
" clip-path="url(#p3f33804c7e)" style="fill: #800000; opacity: 0.3"/>
   </g>
   <g id="patch_9">
    <path d="M 157.748837 166.028575 
L 170.96235 166.028575 
L 170.96235 147.646077 
L 157.748837 147.646077 
z
" clip-path="url(#p3f33804c7e)" style="fill: #800000; opacity: 0.3"/>
   </g>
   <g id="patch_10">
    <path d="M 170.96235 166.028575 
L 184.175863 166.028575 
L 184.175863 152.299874 
L 170.96235 152.299874 
z
" clip-path="url(#p3f33804c7e)" style="fill: #800000; opacity: 0.3"/>
   </g>
   <g id="patch_11">
    <path d="M 184.175863 166.028575 
L 197.389375 166.028575 
L 197.389375 138.26092 
L 184.175863 138.26092 
z
" clip-path="url(#p3f33804c7e)" style="fill: #800000; opacity: 0.3"/>
   </g>
   <g id="patch_12">
    <path d="M 197.389375 166.028575 
L 210.602888 166.028575 
L 210.602888 145.396742 
L 197.389375 145.396742 
z
" clip-path="url(#p3f33804c7e)" style="fill: #800000; opacity: 0.3"/>
   </g>
   <g id="patch_13">
    <path d="M 210.602888 166.028575 
L 223.8164 166.028575 
L 223.8164 85.207636 
L 210.602888 85.207636 
z
" clip-path="url(#p3f33804c7e)" style="fill: #800000; opacity: 0.3"/>
   </g>
   <g id="patch_14">
    <path d="M 223.8164 166.028575 
L 237.029913 166.028575 
L 237.029913 90.249249 
L 223.8164 90.249249 
z
" clip-path="url(#p3f33804c7e)" style="fill: #800000; opacity: 0.3"/>
   </g>
   <g id="patch_15">
    <path d="M 237.029913 166.028575 
L 250.243426 166.028575 
L 250.243426 94.903046 
L 237.029913 94.903046 
z
" clip-path="url(#p3f33804c7e)" style="fill: #800000; opacity: 0.3"/>
   </g>
   <g id="patch_16">
    <path d="M 250.243426 166.028575 
L 263.456938 166.028575 
L 263.456938 151.058862 
L 250.243426 151.058862 
z
" clip-path="url(#p3f33804c7e)" style="fill: #800000; opacity: 0.3"/>
   </g>
   <g id="patch_17">
    <path d="M 263.456938 166.028575 
L 276.670451 166.028575 
L 276.670451 71.091118 
L 263.456938 71.091118 
z
" clip-path="url(#p3f33804c7e)" style="fill: #800000; opacity: 0.3"/>
   </g>
   <g id="patch_18">
    <path d="M 276.670451 166.028575 
L 289.883964 166.028575 
L 289.883964 148.111457 
L 276.670451 148.111457 
z
" clip-path="url(#p3f33804c7e)" style="fill: #800000; opacity: 0.3"/>
   </g>
   <g id="patch_19">
    <path d="M 289.883964 166.028575 
L 303.097476 166.028575 
L 303.097476 123.446334 
L 289.883964 123.446334 
z
" clip-path="url(#p3f33804c7e)" style="fill: #800000; opacity: 0.3"/>
   </g>
   <g id="patch_20">
    <path d="M 303.097476 166.028575 
L 316.310989 166.028575 
L 316.310989 139.657059 
L 303.097476 139.657059 
z
" clip-path="url(#p3f33804c7e)" style="fill: #800000; opacity: 0.3"/>
   </g>
   <g id="patch_21">
    <path d="M 316.310989 166.028575 
L 329.524501 166.028575 
L 329.524501 159.125443 
L 316.310989 159.125443 
z
" clip-path="url(#p3f33804c7e)" style="fill: #800000; opacity: 0.3"/>
   </g>
   <g id="patch_22">
    <path d="M 329.524501 166.028575 
L 342.738014 166.028575 
L 342.738014 117.241271 
L 329.524501 117.241271 
z
" clip-path="url(#p3f33804c7e)" style="fill: #800000; opacity: 0.3"/>
   </g>
   <g id="patch_23">
    <path d="M 342.738014 166.028575 
L 355.951527 166.028575 
L 355.951527 93.739597 
L 342.738014 93.739597 
z
" clip-path="url(#p3f33804c7e)" style="fill: #800000; opacity: 0.3"/>
   </g>
   <g id="patch_24">
    <path d="M 355.951527 166.028575 
L 369.165039 166.028575 
L 369.165039 156.953671 
L 355.951527 156.953671 
z
" clip-path="url(#p3f33804c7e)" style="fill: #800000; opacity: 0.3"/>
   </g>
   <g id="patch_25">
    <path d="M 369.165039 166.028575 
L 382.378552 166.028575 
L 382.378552 133.374434 
L 369.165039 133.374434 
z
" clip-path="url(#p3f33804c7e)" style="fill: #800000; opacity: 0.3"/>
   </g>
   <g id="patch_26">
    <path d="M 382.378552 166.028575 
L 395.592064 166.028575 
L 395.592064 153.075507 
L 382.378552 153.075507 
z
" clip-path="url(#p3f33804c7e)" style="fill: #800000; opacity: 0.3"/>
   </g>
   <g id="patch_27">
    <path d="M 395.592064 166.028575 
L 408.805577 166.028575 
L 408.805577 151.136425 
L 395.592064 151.136425 
z
" clip-path="url(#p3f33804c7e)" style="fill: #800000; opacity: 0.3"/>
   </g>
   <g id="patch_28">
    <path d="M 408.805577 166.028575 
L 422.01909 166.028575 
L 422.01909 166.028575 
L 408.805577 166.028575 
z
" clip-path="url(#p3f33804c7e)" style="fill: #800000; opacity: 0.3"/>
   </g>
   <g id="patch_29">
    <path d="M 422.01909 166.028575 
L 435.232602 166.028575 
L 435.232602 163.003607 
L 422.01909 163.003607 
z
" clip-path="url(#p3f33804c7e)" style="fill: #800000; opacity: 0.3"/>
   </g>
   <g id="patch_30">
    <path d="M 435.232602 166.028575 
L 448.446115 166.028575 
L 448.446115 160.521582 
L 435.232602 160.521582 
z
" clip-path="url(#p3f33804c7e)" style="fill: #800000; opacity: 0.3"/>
   </g>
   <g id="patch_31">
    <path d="M 448.446115 166.028575 
L 461.659628 166.028575 
L 461.659628 166.028575 
L 448.446115 166.028575 
z
" clip-path="url(#p3f33804c7e)" style="fill: #800000; opacity: 0.3"/>
   </g>
   <g id="patch_32">
    <path d="M 461.659628 166.028575 
L 474.87314 166.028575 
L 474.87314 164.24462 
L 461.659628 164.24462 
z
" clip-path="url(#p3f33804c7e)" style="fill: #800000; opacity: 0.3"/>
   </g>
   <g id="patch_33">
    <path d="M 137.44404 166.028575 
L 150.818763 166.028575 
L 150.818763 160.204818 
L 137.44404 160.204818 
z
" clip-path="url(#p3f33804c7e)" style="fill: #00008b; opacity: 0.3"/>
   </g>
   <g id="patch_34">
    <path d="M 150.818763 166.028575 
L 164.193485 166.028575 
L 164.193485 121.737367 
L 150.818763 121.737367 
z
" clip-path="url(#p3f33804c7e)" style="fill: #00008b; opacity: 0.3"/>
   </g>
   <g id="patch_35">
    <path d="M 164.193485 166.028575 
L 177.568207 166.028575 
L 177.568207 122.503651 
L 164.193485 122.503651 
z
" clip-path="url(#p3f33804c7e)" style="fill: #00008b; opacity: 0.3"/>
   </g>
   <g id="patch_36">
    <path d="M 177.568207 166.028575 
L 190.94293 166.028575 
L 190.94293 157.446196 
L 177.568207 157.446196 
z
" clip-path="url(#p3f33804c7e)" style="fill: #00008b; opacity: 0.3"/>
   </g>
   <g id="patch_37">
    <path d="M 190.94293 166.028575 
L 204.317652 166.028575 
L 204.317652 151.699067 
L 190.94293 151.699067 
z
" clip-path="url(#p3f33804c7e)" style="fill: #00008b; opacity: 0.3"/>
   </g>
   <g id="patch_38">
    <path d="M 204.317652 166.028575 
L 217.692374 166.028575 
L 217.692374 149.936614 
L 204.317652 149.936614 
z
" clip-path="url(#p3f33804c7e)" style="fill: #00008b; opacity: 0.3"/>
   </g>
   <g id="patch_39">
    <path d="M 217.692374 166.028575 
L 231.067096 166.028575 
L 231.067096 166.028575 
L 217.692374 166.028575 
z
" clip-path="url(#p3f33804c7e)" style="fill: #00008b; opacity: 0.3"/>
   </g>
   <g id="patch_40">
    <path d="M 231.067096 166.028575 
L 244.441819 166.028575 
L 244.441819 153.308263 
L 231.067096 153.308263 
z
" clip-path="url(#p3f33804c7e)" style="fill: #00008b; opacity: 0.3"/>
   </g>
   <g id="patch_41">
    <path d="M 244.441819 166.028575 
L 257.816541 166.028575 
L 257.816541 166.028575 
L 244.441819 166.028575 
z
" clip-path="url(#p3f33804c7e)" style="fill: #00008b; opacity: 0.3"/>
   </g>
   <g id="patch_42">
    <path d="M 257.816541 166.028575 
L 271.191263 166.028575 
L 271.191263 127.79101 
L 257.816541 127.79101 
z
" clip-path="url(#p3f33804c7e)" style="fill: #00008b; opacity: 0.3"/>
   </g>
   <g id="patch_43">
    <path d="M 271.191263 166.028575 
L 284.565985 166.028575 
L 284.565985 149.6301 
L 271.191263 149.6301 
z
" clip-path="url(#p3f33804c7e)" style="fill: #00008b; opacity: 0.3"/>
   </g>
   <g id="patch_44">
    <path d="M 284.565985 166.028575 
L 297.940708 166.028575 
L 297.940708 131.009402 
L 284.565985 131.009402 
z
" clip-path="url(#p3f33804c7e)" style="fill: #00008b; opacity: 0.3"/>
   </g>
   <g id="patch_45">
    <path d="M 297.940708 166.028575 
L 311.31543 166.028575 
L 311.31543 157.599453 
L 297.940708 157.599453 
z
" clip-path="url(#p3f33804c7e)" style="fill: #00008b; opacity: 0.3"/>
   </g>
   <g id="patch_46">
    <path d="M 311.31543 166.028575 
L 324.690152 166.028575 
L 324.690152 137.522815 
L 311.31543 137.522815 
z
" clip-path="url(#p3f33804c7e)" style="fill: #00008b; opacity: 0.3"/>
   </g>
   <g id="patch_47">
    <path d="M 324.690152 166.028575 
L 338.064875 166.028575 
L 338.064875 113.231616 
L 324.690152 113.231616 
z
" clip-path="url(#p3f33804c7e)" style="fill: #00008b; opacity: 0.3"/>
   </g>
   <g id="patch_48">
    <path d="M 338.064875 166.028575 
L 351.439597 166.028575 
L 351.439597 21.277551 
L 338.064875 21.277551 
z
" clip-path="url(#p3f33804c7e)" style="fill: #00008b; opacity: 0.3"/>
   </g>
   <g id="patch_49">
    <path d="M 351.439597 166.028575 
L 364.814319 166.028575 
L 364.814319 86.948079 
L 351.439597 86.948079 
z
" clip-path="url(#p3f33804c7e)" style="fill: #00008b; opacity: 0.3"/>
   </g>
   <g id="patch_50">
    <path d="M 364.814319 166.028575 
L 378.189041 166.028575 
L 378.189041 152.848493 
L 364.814319 152.848493 
z
" clip-path="url(#p3f33804c7e)" style="fill: #00008b; opacity: 0.3"/>
   </g>
   <g id="patch_51">
    <path d="M 378.189041 166.028575 
L 391.563764 166.028575 
L 391.563764 132.618598 
L 378.189041 132.618598 
z
" clip-path="url(#p3f33804c7e)" style="fill: #00008b; opacity: 0.3"/>
   </g>
   <g id="patch_52">
    <path d="M 391.563764 166.028575 
L 404.938486 166.028575 
L 404.938486 114.151157 
L 391.563764 114.151157 
z
" clip-path="url(#p3f33804c7e)" style="fill: #00008b; opacity: 0.3"/>
   </g>
   <g id="patch_53">
    <path d="M 404.938486 166.028575 
L 418.313208 166.028575 
L 418.313208 153.538148 
L 404.938486 153.538148 
z
" clip-path="url(#p3f33804c7e)" style="fill: #00008b; opacity: 0.3"/>
   </g>
   <g id="patch_54">
    <path d="M 418.313208 166.028575 
L 431.68793 166.028575 
L 431.68793 159.668419 
L 418.313208 159.668419 
z
" clip-path="url(#p3f33804c7e)" style="fill: #00008b; opacity: 0.3"/>
   </g>
   <g id="patch_55">
    <path d="M 431.68793 166.028575 
L 445.062653 166.028575 
L 445.062653 163.193325 
L 431.68793 163.193325 
z
" clip-path="url(#p3f33804c7e)" style="fill: #00008b; opacity: 0.3"/>
   </g>
   <g id="patch_56">
    <path d="M 445.062653 166.028575 
L 458.437375 166.028575 
L 458.437375 164.419379 
L 445.062653 164.419379 
z
" clip-path="url(#p3f33804c7e)" style="fill: #00008b; opacity: 0.3"/>
   </g>
   <g id="patch_57">
    <path d="M 458.437375 166.028575 
L 471.812097 166.028575 
L 471.812097 152.235465 
L 458.437375 152.235465 
z
" clip-path="url(#p3f33804c7e)" style="fill: #00008b; opacity: 0.3"/>
   </g>
   <g id="patch_58">
    <path d="M 471.812097 166.028575 
L 485.18682 166.028575 
L 485.18682 152.695236 
L 471.812097 152.695236 
z
" clip-path="url(#p3f33804c7e)" style="fill: #00008b; opacity: 0.3"/>
   </g>
   <g id="patch_59">
    <path d="M 485.18682 166.028575 
L 498.561542 166.028575 
L 498.561542 143.882971 
L 485.18682 143.882971 
z
" clip-path="url(#p3f33804c7e)" style="fill: #00008b; opacity: 0.3"/>
   </g>
   <g id="patch_60">
    <path d="M 498.561542 166.028575 
L 511.936264 166.028575 
L 511.936264 139.438525 
L 498.561542 139.438525 
z
" clip-path="url(#p3f33804c7e)" style="fill: #00008b; opacity: 0.3"/>
   </g>
   <g id="patch_61">
    <path d="M 511.936264 166.028575 
L 525.310986 166.028575 
L 525.310986 157.446196 
L 511.936264 157.446196 
z
" clip-path="url(#p3f33804c7e)" style="fill: #00008b; opacity: 0.3"/>
   </g>
   <g id="patch_62">
    <path d="M 525.310986 166.028575 
L 538.685709 166.028575 
L 538.685709 154.534317 
L 525.310986 154.534317 
z
" clip-path="url(#p3f33804c7e)" style="fill: #00008b; opacity: 0.3"/>
   </g>
   <g id="patch_63">
    <path d="M 73.199882 166.028575 
L 83.338281 166.028575 
L 83.338281 74.037337 
L 73.199882 74.037337 
z
" clip-path="url(#p3f33804c7e)" style="fill: #006400; opacity: 0.3"/>
   </g>
   <g id="patch_64">
    <path d="M 83.338281 166.028575 
L 93.47668 166.028575 
L 93.47668 145.204185 
L 83.338281 145.204185 
z
" clip-path="url(#p3f33804c7e)" style="fill: #006400; opacity: 0.3"/>
   </g>
   <g id="patch_65">
    <path d="M 93.47668 166.028575 
L 103.61508 166.028575 
L 103.61508 166.028575 
L 93.47668 166.028575 
z
" clip-path="url(#p3f33804c7e)" style="fill: #006400; opacity: 0.3"/>
   </g>
   <g id="patch_66">
    <path d="M 103.61508 166.028575 
L 113.753479 166.028575 
L 113.753479 128.524455 
L 103.61508 128.524455 
z
" clip-path="url(#p3f33804c7e)" style="fill: #006400; opacity: 0.3"/>
   </g>
   <g id="patch_67">
    <path d="M 113.753479 166.028575 
L 123.891878 166.028575 
L 123.891878 166.028575 
L 113.753479 166.028575 
z
" clip-path="url(#p3f33804c7e)" style="fill: #006400; opacity: 0.3"/>
   </g>
   <g id="patch_68">
    <path d="M 123.891878 166.028575 
L 134.030277 166.028575 
L 134.030277 166.028575 
L 123.891878 166.028575 
z
" clip-path="url(#p3f33804c7e)" style="fill: #006400; opacity: 0.3"/>
   </g>
   <g id="patch_69">
    <path d="M 134.030277 166.028575 
L 144.168676 166.028575 
L 144.168676 158.649058 
L 134.030277 158.649058 
z
" clip-path="url(#p3f33804c7e)" style="fill: #006400; opacity: 0.3"/>
   </g>
   <g id="patch_70">
    <path d="M 144.168676 166.028575 
L 154.307075 166.028575 
L 154.307075 121.852563 
L 144.168676 121.852563 
z
" clip-path="url(#p3f33804c7e)" style="fill: #006400; opacity: 0.3"/>
   </g>
   <g id="patch_71">
    <path d="M 154.307075 166.028575 
L 164.445475 166.028575 
L 164.445475 107.093529 
L 154.307075 107.093529 
z
" clip-path="url(#p3f33804c7e)" style="fill: #006400; opacity: 0.3"/>
   </g>
   <g id="patch_72">
    <path d="M 164.445475 166.028575 
L 174.583874 166.028575 
L 174.583874 131.658222 
L 164.445475 131.658222 
z
" clip-path="url(#p3f33804c7e)" style="fill: #006400; opacity: 0.3"/>
   </g>
   <g id="patch_73">
    <path d="M 174.583874 166.028575 
L 184.722273 166.028575 
L 184.722273 142.879132 
L 174.583874 142.879132 
z
" clip-path="url(#p3f33804c7e)" style="fill: #006400; opacity: 0.3"/>
   </g>
   <g id="patch_74">
    <path d="M 184.722273 166.028575 
L 194.860672 166.028575 
L 194.860672 43.306198 
L 184.722273 43.306198 
z
" clip-path="url(#p3f33804c7e)" style="fill: #006400; opacity: 0.3"/>
   </g>
   <g id="patch_75">
    <path d="M 194.860672 166.028575 
L 204.999071 166.028575 
L 204.999071 113.765421 
L 194.860672 113.765421 
z
" clip-path="url(#p3f33804c7e)" style="fill: #006400; opacity: 0.3"/>
   </g>
   <g id="patch_76">
    <path d="M 204.999071 166.028575 
L 215.13747 166.028575 
L 215.13747 117.202456 
L 204.999071 117.202456 
z
" clip-path="url(#p3f33804c7e)" style="fill: #006400; opacity: 0.3"/>
   </g>
   <g id="patch_77">
    <path d="M 215.13747 166.028575 
L 225.27587 166.028575 
L 225.27587 151.168452 
L 215.13747 151.168452 
z
" clip-path="url(#p3f33804c7e)" style="fill: #006400; opacity: 0.3"/>
   </g>
   <g id="patch_78">
    <path d="M 225.27587 166.028575 
L 235.414269 166.028575 
L 235.414269 133.882186 
L 225.27587 133.882186 
z
" clip-path="url(#p3f33804c7e)" style="fill: #006400; opacity: 0.3"/>
   </g>
   <g id="patch_79">
    <path d="M 235.414269 166.028575 
L 245.552668 166.028575 
L 245.552668 145.608542 
L 235.414269 145.608542 
z
" clip-path="url(#p3f33804c7e)" style="fill: #006400; opacity: 0.3"/>
   </g>
   <g id="patch_80">
    <path d="M 245.552668 166.028575 
L 255.691067 166.028575 
L 255.691067 116.69701 
L 245.552668 116.69701 
z
" clip-path="url(#p3f33804c7e)" style="fill: #006400; opacity: 0.3"/>
   </g>
   <g id="patch_81">
    <path d="M 255.691067 166.028575 
L 265.829466 166.028575 
L 265.829466 116.798099 
L 255.691067 116.798099 
z
" clip-path="url(#p3f33804c7e)" style="fill: #006400; opacity: 0.3"/>
   </g>
   <g id="patch_82">
    <path d="M 265.829466 166.028575 
L 275.967866 166.028575 
L 275.967866 144.49656 
L 265.829466 144.49656 
z
" clip-path="url(#p3f33804c7e)" style="fill: #006400; opacity: 0.3"/>
   </g>
   <g id="patch_83">
    <path d="M 275.967866 166.028575 
L 286.106265 166.028575 
L 286.106265 100.724905 
L 275.967866 100.724905 
z
" clip-path="url(#p3f33804c7e)" style="fill: #006400; opacity: 0.3"/>
   </g>
   <g id="patch_84">
    <path d="M 286.106265 166.028575 
L 296.244664 166.028575 
L 296.244664 105.779369 
L 286.106265 105.779369 
z
" clip-path="url(#p3f33804c7e)" style="fill: #006400; opacity: 0.3"/>
   </g>
   <g id="patch_85">
    <path d="M 296.244664 166.028575 
L 306.383063 166.028575 
L 306.383063 131.253865 
L 296.244664 131.253865 
z
" clip-path="url(#p3f33804c7e)" style="fill: #006400; opacity: 0.3"/>
   </g>
   <g id="patch_86">
    <path d="M 306.383063 166.028575 
L 316.521462 166.028575 
L 316.521462 119.931867 
L 306.383063 119.931867 
z
" clip-path="url(#p3f33804c7e)" style="fill: #006400; opacity: 0.3"/>
   </g>
   <g id="patch_87">
    <path d="M 316.521462 166.028575 
L 326.659861 166.028575 
L 326.659861 130.54624 
L 316.521462 130.54624 
z
" clip-path="url(#p3f33804c7e)" style="fill: #006400; opacity: 0.3"/>
   </g>
   <g id="patch_88">
    <path d="M 326.659861 166.028575 
L 336.798261 166.028575 
L 336.798261 156.627273 
L 326.659861 156.627273 
z
" clip-path="url(#p3f33804c7e)" style="fill: #006400; opacity: 0.3"/>
   </g>
   <g id="patch_89">
    <path d="M 336.798261 166.028575 
L 346.93666 166.028575 
L 346.93666 151.572809 
L 336.798261 151.572809 
z
" clip-path="url(#p3f33804c7e)" style="fill: #006400; opacity: 0.3"/>
   </g>
   <g id="patch_90">
    <path d="M 346.93666 166.028575 
L 357.075059 166.028575 
L 357.075059 158.244701 
L 346.93666 158.244701 
z
" clip-path="url(#p3f33804c7e)" style="fill: #006400; opacity: 0.3"/>
   </g>
   <g id="patch_91">
    <path d="M 357.075059 166.028575 
L 367.213458 166.028575 
L 367.213458 166.028575 
L 357.075059 166.028575 
z
" clip-path="url(#p3f33804c7e)" style="fill: #006400; opacity: 0.3"/>
   </g>
   <g id="patch_92">
    <path d="M 367.213458 166.028575 
L 377.351857 166.028575 
L 377.351857 158.34579 
L 367.213458 158.34579 
z
" clip-path="url(#p3f33804c7e)" style="fill: #006400; opacity: 0.3"/>
   </g>
   <g id="matplotlib.axis_1">
    <g id="xtick_1">
     <g id="line2d_1">
      <defs>
       <path id="mfd9449a67f" d="M 0 0 
L 0 3.5 
" style="stroke: #000000; stroke-width: 0.8"/>
      </defs>
      <g>
       <use xlink:href="#mfd9449a67f" x="87.417201" y="166.028575" style="stroke: #000000; stroke-width: 0.8"/>
      </g>
     </g>
     <g id="text_1">
      <!-- $\mathdefault{−50}$ -->
      <g transform="translate(76.039776 182.022603)scale(0.13 -0.13)">
       <defs>
        <path id="CMSY10-0" d="M 4218 1472 
C 4326 1472 4442 1472 4442 1600 
C 4442 1728 4326 1728 4218 1728 
L 755 1728 
C 646 1728 531 1728 531 1600 
C 531 1472 646 1472 755 1472 
L 4218 1472 
z
" transform="scale(0.015625)"/>
        <path id="CMR17-35" d="M 730 3692 
C 794 3666 1056 3584 1325 3584 
C 1920 3584 2246 3911 2432 4100 
C 2432 4157 2432 4192 2394 4192 
C 2387 4192 2374 4192 2323 4163 
C 2099 4058 1837 3973 1517 3973 
C 1325 3973 1037 3999 723 4139 
C 653 4171 640 4171 634 4171 
C 602 4171 595 4164 595 4037 
L 595 2203 
C 595 2089 595 2057 659 2057 
C 691 2057 704 2070 736 2114 
C 941 2401 1222 2522 1542 2522 
C 1766 2522 2246 2382 2246 1289 
C 2246 1085 2246 715 2054 421 
C 1894 159 1645 25 1370 25 
C 947 25 518 320 403 814 
C 429 807 480 795 506 795 
C 589 795 749 840 749 1038 
C 749 1210 627 1280 506 1280 
C 358 1280 262 1190 262 1011 
C 262 454 704 -128 1382 -128 
C 2042 -128 2669 440 2669 1264 
C 2669 2030 2170 2624 1549 2624 
C 1222 2624 947 2503 730 2274 
L 730 3692 
z
" transform="scale(0.015625)"/>
        <path id="CMR17-30" d="M 2688 2025 
C 2688 2416 2682 3080 2413 3591 
C 2176 4039 1798 4198 1466 4198 
C 1158 4198 768 4058 525 3597 
C 269 3118 243 2524 243 2025 
C 243 1661 250 1106 448 619 
C 723 -39 1216 -128 1466 -128 
C 1760 -128 2208 -7 2470 600 
C 2662 1042 2688 1559 2688 2025 
z
M 1466 -26 
C 1056 -26 813 325 723 812 
C 653 1188 653 1738 653 2096 
C 653 2588 653 2997 736 3387 
C 858 3929 1216 4096 1466 4096 
C 1728 4096 2067 3923 2189 3400 
C 2272 3036 2278 2607 2278 2096 
C 2278 1680 2278 1169 2202 792 
C 2067 95 1690 -26 1466 -26 
z
" transform="scale(0.015625)"/>
       </defs>
       <use xlink:href="#CMSY10-0" transform="scale(0.996264)"/>
       <use xlink:href="#CMR17-35" transform="translate(77.487468 0)scale(0.996264)"/>
       <use xlink:href="#CMR17-30" transform="translate(123.177945 0)scale(0.996264)"/>
      </g>
     </g>
    </g>
    <g id="xtick_2">
     <g id="line2d_2">
      <g>
       <use xlink:href="#mfd9449a67f" x="147.918958" y="166.028575" style="stroke: #000000; stroke-width: 0.8"/>
      </g>
     </g>
     <g id="text_2">
      <!-- $\mathdefault{0}$ -->
      <g transform="translate(144.748588 182.022603)scale(0.13 -0.13)">
       <use xlink:href="#CMR17-30" transform="scale(0.996264)"/>
      </g>
     </g>
    </g>
    <g id="xtick_3">
     <g id="line2d_3">
      <g>
       <use xlink:href="#mfd9449a67f" x="208.420715" y="166.028575" style="stroke: #000000; stroke-width: 0.8"/>
      </g>
     </g>
     <g id="text_3">
      <!-- $\mathdefault{50}$ -->
      <g transform="translate(202.079976 182.022603)scale(0.13 -0.13)">
       <use xlink:href="#CMR17-35" transform="scale(0.996264)"/>
       <use xlink:href="#CMR17-30" transform="translate(45.690477 0)scale(0.996264)"/>
      </g>
     </g>
    </g>
    <g id="xtick_4">
     <g id="line2d_4">
      <g>
       <use xlink:href="#mfd9449a67f" x="268.922472" y="166.028575" style="stroke: #000000; stroke-width: 0.8"/>
      </g>
     </g>
     <g id="text_4">
      <!-- $\mathdefault{100}$ -->
      <g transform="translate(259.411363 182.022603)scale(0.13 -0.13)">
       <defs>
        <path id="CMR17-31" d="M 1702 4058 
C 1702 4192 1696 4192 1606 4192 
C 1357 3916 979 3827 621 3827 
C 602 3827 570 3827 563 3808 
C 557 3795 557 3782 557 3648 
C 755 3648 1088 3686 1344 3839 
L 1344 461 
C 1344 236 1331 160 781 160 
L 589 160 
L 589 0 
C 896 0 1216 0 1523 0 
C 1830 0 2150 0 2458 0 
L 2458 160 
L 2266 160 
C 1715 160 1702 230 1702 458 
L 1702 4058 
z
" transform="scale(0.015625)"/>
       </defs>
       <use xlink:href="#CMR17-31" transform="scale(0.996264)"/>
       <use xlink:href="#CMR17-30" transform="translate(45.690477 0)scale(0.996264)"/>
       <use xlink:href="#CMR17-30" transform="translate(91.380954 0)scale(0.996264)"/>
      </g>
     </g>
    </g>
    <g id="xtick_5">
     <g id="line2d_5">
      <g>
       <use xlink:href="#mfd9449a67f" x="329.424229" y="166.028575" style="stroke: #000000; stroke-width: 0.8"/>
      </g>
     </g>
     <g id="text_5">
      <!-- $\mathdefault{150}$ -->
      <g transform="translate(319.91312 182.022603)scale(0.13 -0.13)">
       <use xlink:href="#CMR17-31" transform="scale(0.996264)"/>
       <use xlink:href="#CMR17-35" transform="translate(45.690477 0)scale(0.996264)"/>
       <use xlink:href="#CMR17-30" transform="translate(91.380954 0)scale(0.996264)"/>
      </g>
     </g>
    </g>
    <g id="xtick_6">
     <g id="line2d_6">
      <g>
       <use xlink:href="#mfd9449a67f" x="389.925986" y="166.028575" style="stroke: #000000; stroke-width: 0.8"/>
      </g>
     </g>
     <g id="text_6">
      <!-- $\mathdefault{200}$ -->
      <g transform="translate(380.414877 182.022603)scale(0.13 -0.13)">
       <defs>
        <path id="CMR17-32" d="M 2669 989 
L 2554 989 
C 2490 536 2438 459 2413 420 
C 2381 369 1920 369 1830 369 
L 602 369 
C 832 619 1280 1072 1824 1597 
C 2214 1967 2669 2402 2669 3035 
C 2669 3790 2067 4224 1395 4224 
C 691 4224 262 3604 262 3030 
C 262 2780 448 2748 525 2748 
C 589 2748 781 2787 781 3010 
C 781 3207 614 3264 525 3264 
C 486 3264 448 3258 422 3245 
C 544 3790 915 4058 1306 4058 
C 1862 4058 2227 3617 2227 3035 
C 2227 2479 1901 2000 1536 1584 
L 262 146 
L 262 0 
L 2515 0 
L 2669 989 
z
" transform="scale(0.015625)"/>
       </defs>
       <use xlink:href="#CMR17-32" transform="scale(0.996264)"/>
       <use xlink:href="#CMR17-30" transform="translate(45.690477 0)scale(0.996264)"/>
       <use xlink:href="#CMR17-30" transform="translate(91.380954 0)scale(0.996264)"/>
      </g>
     </g>
    </g>
    <g id="xtick_7">
     <g id="line2d_7">
      <g>
       <use xlink:href="#mfd9449a67f" x="450.427743" y="166.028575" style="stroke: #000000; stroke-width: 0.8"/>
      </g>
     </g>
     <g id="text_7">
      <!-- $\mathdefault{250}$ -->
      <g transform="translate(440.916634 182.022603)scale(0.13 -0.13)">
       <use xlink:href="#CMR17-32" transform="scale(0.996264)"/>
       <use xlink:href="#CMR17-35" transform="translate(45.690477 0)scale(0.996264)"/>
       <use xlink:href="#CMR17-30" transform="translate(91.380954 0)scale(0.996264)"/>
      </g>
     </g>
    </g>
    <g id="xtick_8">
     <g id="line2d_8">
      <g>
       <use xlink:href="#mfd9449a67f" x="510.9295" y="166.028575" style="stroke: #000000; stroke-width: 0.8"/>
      </g>
     </g>
     <g id="text_8">
      <!-- $\mathdefault{300}$ -->
      <g transform="translate(501.418391 182.022603)scale(0.13 -0.13)">
       <defs>
        <path id="CMR17-33" d="M 1414 2157 
C 1984 2157 2234 1662 2234 1090 
C 2234 320 1824 25 1453 25 
C 1114 25 563 194 390 693 
C 422 680 454 680 486 680 
C 640 680 755 782 755 948 
C 755 1133 614 1216 486 1216 
C 378 1216 211 1165 211 926 
C 211 335 787 -128 1466 -128 
C 2176 -128 2720 430 2720 1085 
C 2720 1707 2208 2157 1600 2227 
C 2086 2328 2554 2756 2554 3329 
C 2554 3820 2048 4179 1472 4179 
C 890 4179 378 3829 378 3329 
C 378 3110 544 3072 627 3072 
C 762 3072 877 3155 877 3321 
C 877 3486 762 3569 627 3569 
C 602 3569 570 3569 544 3557 
C 730 3959 1235 4032 1459 4032 
C 1683 4032 2106 3925 2106 3320 
C 2106 3143 2080 2828 1862 2550 
C 1670 2304 1453 2304 1242 2284 
C 1210 2284 1062 2269 1037 2269 
C 992 2263 966 2257 966 2208 
C 966 2163 973 2157 1101 2157 
L 1414 2157 
z
" transform="scale(0.015625)"/>
       </defs>
       <use xlink:href="#CMR17-33" transform="scale(0.996264)"/>
       <use xlink:href="#CMR17-30" transform="translate(45.690477 0)scale(0.996264)"/>
       <use xlink:href="#CMR17-30" transform="translate(91.380954 0)scale(0.996264)"/>
      </g>
     </g>
    </g>
    <g id="text_9">
     <!-- spring constant $k_{1,2,3}$ (N/m) -->
     <g transform="translate(227.934758 198.25449)scale(0.13 -0.13)">
      <defs>
       <path id="CMR17-73" d="M 1978 2697 
C 1978 2813 1971 2819 1933 2819 
C 1907 2819 1901 2813 1824 2717 
C 1805 2691 1747 2626 1728 2601 
C 1523 2819 1235 2819 1126 2819 
C 416 2819 160 2447 160 2076 
C 160 1498 813 1365 998 1325 
C 1402 1243 1542 1217 1677 1101 
C 1760 1025 1901 884 1901 654 
C 1901 384 1747 38 1158 38 
C 602 38 403 460 288 1021 
C 269 1110 269 1117 218 1117 
C 166 1117 160 1110 160 983 
L 160 63 
C 160 -51 166 -58 205 -58 
C 237 -58 243 -51 275 0 
C 314 57 410 211 448 276 
C 576 103 800 -64 1158 -64 
C 1792 -64 2131 283 2131 784 
C 2131 1112 1958 1285 1875 1362 
C 1683 1561 1459 1606 1190 1657 
C 838 1735 390 1825 390 2217 
C 390 2383 480 2737 1126 2737 
C 1811 2737 1850 2094 1862 1888 
C 1869 1856 1901 1849 1920 1849 
C 1978 1849 1978 1869 1978 1978 
L 1978 2697 
z
" transform="scale(0.015625)"/>
       <path id="CMR17-70" d="M 1408 -1063 
C 998 -1063 973 -1037 973 -789 
L 973 402 
C 1158 134 1427 -38 1766 -38 
C 2406 -38 3053 523 3053 1388 
C 3053 2191 2496 2802 1837 2802 
C 1453 2802 1139 2592 960 2338 
L 960 2802 
L 198 2732 
L 198 2567 
C 576 2567 634 2528 634 2223 
L 634 -789 
C 634 -1031 608 -1063 198 -1063 
L 198 -1228 
C 352 -1216 634 -1216 800 -1216 
C 966 -1216 1254 -1216 1408 -1228 
L 1408 -1063 
z
M 973 2012 
C 973 2102 973 2235 1222 2471 
C 1254 2497 1472 2688 1792 2688 
C 2259 2688 2643 2108 2643 1382 
C 2643 656 2234 64 1728 64 
C 1498 64 1248 172 1056 472 
C 973 612 973 650 973 752 
L 973 2012 
z
" transform="scale(0.015625)"/>
       <path id="CMR17-72" d="M 960 1497 
C 960 2112 1222 2688 1702 2688 
C 1747 2688 1792 2682 1837 2662 
C 1837 2662 1696 2617 1696 2452 
C 1696 2298 1818 2234 1914 2234 
C 1990 2234 2131 2279 2131 2458 
C 2131 2663 1926 2790 1709 2790 
C 1222 2790 1011 2317 947 2093 
L 941 2093 
L 941 2790 
L 198 2720 
L 198 2554 
C 576 2554 634 2515 634 2208 
L 634 428 
C 634 184 608 153 198 153 
L 198 -13 
C 352 0 646 0 813 0 
C 998 0 1325 0 1498 -13 
L 1498 153 
C 1037 153 960 153 960 440 
L 960 1497 
z
" transform="scale(0.015625)"/>
       <path id="CMR17-69" d="M 992 3909 
C 992 4049 877 4170 730 4170 
C 589 4170 467 4056 467 3909 
C 467 3769 582 3648 730 3648 
C 870 3648 992 3763 992 3909 
z
M 243 2706 
L 243 2541 
C 602 2541 653 2502 653 2197 
L 653 427 
C 653 184 627 153 218 153 
L 218 -13 
C 371 0 646 0 806 0 
C 960 0 1222 0 1370 -13 
L 1370 153 
C 992 153 979 191 979 420 
L 979 2776 
L 243 2706 
z
" transform="scale(0.015625)"/>
       <path id="CMR17-6e" d="M 2656 1933 
C 2656 2259 2592 2790 1837 2790 
C 1331 2790 1069 2400 973 2144 
L 966 2144 
L 966 2790 
L 211 2720 
L 211 2554 
C 589 2554 646 2515 646 2208 
L 646 428 
C 646 184 621 153 211 153 
L 211 -13 
C 365 0 646 0 813 0 
C 979 0 1267 0 1421 -13 
L 1421 153 
C 1011 153 986 178 986 428 
L 986 1658 
C 986 2247 1344 2688 1792 2688 
C 2266 2688 2317 2266 2317 1958 
L 2317 428 
C 2317 184 2291 153 1882 153 
L 1882 -13 
C 2035 0 2317 0 2483 0 
C 2650 0 2938 0 3091 -13 
L 3091 153 
C 2682 153 2656 178 2656 428 
L 2656 1933 
z
" transform="scale(0.015625)"/>
       <path id="CMR17-67" d="M 710 1164 
C 832 1068 1043 960 1299 960 
C 1805 960 2240 1357 2240 1888 
C 2240 2054 2189 2310 1997 2509 
C 2176 2692 2438 2752 2586 2752 
C 2611 2752 2650 2752 2682 2734 
C 2656 2728 2598 2703 2598 2605 
C 2598 2527 2656 2471 2739 2471 
C 2835 2471 2886 2533 2886 2614 
C 2886 2731 2790 2854 2586 2854 
C 2330 2854 2106 2738 1926 2580 
C 1734 2753 1504 2816 1299 2816 
C 794 2816 358 2419 358 1888 
C 358 1522 570 1292 634 1228 
C 442 1004 442 743 442 711 
C 442 545 506 302 723 168 
C 390 85 128 -169 128 -486 
C 128 -943 736 -1280 1466 -1280 
C 2170 -1280 2803 -956 2803 -479 
C 2803 384 1856 384 1363 384 
C 1216 384 954 384 922 391 
C 723 423 589 602 589 826 
C 589 883 589 1024 710 1164 
z
M 1299 1068 
C 736 1068 736 1760 736 1889 
C 736 2016 736 2708 1299 2708 
C 1862 2708 1862 2016 1862 1889 
C 1862 1760 1862 1068 1299 1068 
z
M 1466 -1171 
C 826 -1171 384 -835 384 -486 
C 384 -289 493 -105 634 -4 
C 794 104 858 104 1293 104 
C 1818 104 2547 104 2547 -486 
C 2547 -835 2106 -1171 1466 -1171 
z
" transform="scale(0.015625)"/>
       <path id="CMR17-63" d="M 2234 2240 
C 2112 2240 1933 2240 1933 2017 
C 1933 1838 2080 1787 2163 1787 
C 2208 1787 2394 1807 2394 2024 
C 2394 2467 1958 2803 1466 2803 
C 787 2803 211 2178 211 1363 
C 211 516 813 -64 1466 -64 
C 2259 -64 2458 677 2458 748 
C 2458 774 2451 793 2406 793 
C 2362 793 2355 787 2330 703 
C 2163 180 1798 51 1523 51 
C 1114 51 621 427 621 1369 
C 621 2338 1094 2688 1472 2688 
C 1722 2688 2093 2573 2234 2240 
z
" transform="scale(0.015625)"/>
       <path id="CMR17-6f" d="M 2758 1356 
C 2758 2176 2163 2816 1466 2816 
C 768 2816 173 2176 173 1356 
C 173 551 768 -64 1466 -64 
C 2163 -64 2758 551 2758 1356 
z
M 1466 51 
C 1165 51 909 230 762 480 
C 602 767 582 1126 582 1408 
C 582 1677 595 2010 762 2298 
C 890 2509 1139 2714 1466 2714 
C 1754 2714 1997 2554 2150 2330 
C 2349 2029 2349 1607 2349 1408 
C 2349 1158 2336 775 2163 467 
C 1984 173 1709 51 1466 51 
z
" transform="scale(0.015625)"/>
       <path id="CMR17-74" d="M 966 2560 
L 1862 2560 
L 1862 2725 
L 966 2725 
L 966 3904 
L 851 3904 
C 838 3245 614 2668 70 2668 
L 70 2560 
L 627 2560 
L 627 771 
C 627 650 627 -64 1370 -64 
C 1747 -64 1965 306 1965 777 
L 1965 1140 
L 1850 1140 
L 1850 783 
C 1850 344 1677 51 1408 51 
C 1222 51 966 178 966 758 
L 966 2560 
z
" transform="scale(0.015625)"/>
       <path id="CMR17-61" d="M 2304 1653 
C 2304 2072 2304 2294 2035 2543 
C 1798 2752 1523 2816 1306 2816 
C 800 2816 435 2407 435 1971 
C 435 1728 627 1728 666 1728 
C 749 1728 896 1778 896 1954 
C 896 2112 774 2181 666 2181 
C 640 2181 608 2174 589 2168 
C 723 2592 1069 2714 1293 2714 
C 1613 2714 1965 2429 1965 1885 
L 1965 1600 
C 1587 1600 1133 1549 774 1357 
C 371 1133 256 813 256 570 
C 256 77 832 -64 1171 -64 
C 1523 -64 1850 139 1990 511 
C 2003 233 2182 -18 2464 -18 
C 2598 -18 2938 70 2938 567 
L 2938 920 
L 2822 920 
L 2822 562 
C 2822 178 2650 128 2566 128 
C 2304 128 2304 458 2304 738 
L 2304 1653 
z
M 1965 870 
C 1965 317 1568 38 1216 38 
C 896 38 646 275 646 570 
C 646 761 730 1100 1101 1305 
C 1408 1478 1760 1504 1965 1504 
L 1965 870 
z
" transform="scale(0.015625)"/>
       <path id="CMMI12-6b" d="M 1798 4257 
C 1805 4283 1818 4321 1818 4352 
C 1818 4416 1754 4416 1741 4416 
C 1734 4416 1504 4393 1389 4377 
C 1280 4377 1184 4358 1069 4358 
C 915 4345 870 4339 870 4224 
C 870 4160 934 4160 998 4160 
C 1325 4160 1325 4103 1325 4040 
C 1325 4015 1325 4002 1293 3888 
L 378 248 
C 352 152 352 140 352 101 
C 352 -38 461 -64 525 -64 
C 704 -64 742 77 794 275 
L 1094 1469 
C 1555 1418 1830 1226 1830 920 
C 1830 881 1830 856 1811 760 
C 1786 664 1786 588 1786 556 
C 1786 185 2029 -64 2355 -64 
C 2650 -64 2803 204 2854 294 
C 2989 530 3072 888 3072 913 
C 3072 945 3046 971 3008 971 
C 2950 971 2944 945 2918 843 
C 2829 511 2694 64 2368 64 
C 2240 64 2157 128 2157 370 
C 2157 492 2182 632 2208 728 
C 2234 843 2234 849 2234 926 
C 2234 1303 1894 1514 1306 1590 
C 1536 1731 1766 1980 1856 2076 
C 2221 2484 2470 2689 2765 2689 
C 2912 2689 2950 2650 2995 2612 
C 2758 2586 2669 2420 2669 2293 
C 2669 2139 2790 2088 2880 2088 
C 3053 2088 3206 2235 3206 2440 
C 3206 2625 3059 2816 2771 2816 
C 2419 2816 2131 2567 1677 2056 
C 1613 1980 1376 1737 1139 1648 
L 1798 4257 
z
" transform="scale(0.015625)"/>
       <path id="CMMI12-3b" d="M 1248 -31 
C 1248 343 1126 619 864 619 
C 659 619 557 453 557 313 
C 557 172 653 0 870 0 
C 954 0 1024 26 1082 83 
C 1094 96 1101 96 1107 96 
C 1120 96 1120 5 1120 -27 
C 1120 -240 1082 -659 710 -1080 
C 640 -1157 640 -1170 640 -1183 
C 640 -1216 672 -1248 704 -1248 
C 755 -1248 1248 -771 1248 -31 
z
" transform="scale(0.015625)"/>
       <path id="CMR17-28" d="M 1958 -1561 
C 1958 -1555 1958 -1542 1939 -1523 
C 1645 -1224 858 -407 858 1581 
C 858 3569 1632 4379 1946 4697 
C 1946 4704 1958 4717 1958 4736 
C 1958 4755 1939 4768 1914 4768 
C 1843 4768 1299 4296 986 3594 
C 666 2887 576 2199 576 1588 
C 576 1128 621 351 1005 -471 
C 1312 -1135 1837 -1600 1914 -1600 
C 1946 -1600 1958 -1587 1958 -1561 
z
" transform="scale(0.015625)"/>
       <path id="CMR17-4e" d="M 1312 4250 
C 1267 4320 1261 4320 1139 4320 
L 326 4320 
L 326 4160 
L 448 4160 
C 704 4160 819 4129 838 4122 
L 838 610 
C 838 451 838 153 326 153 
L 326 -13 
C 474 0 742 0 902 0 
C 1062 0 1331 0 1478 -13 
L 1478 153 
C 966 153 966 451 966 610 
L 966 4033 
C 1011 3995 1011 3982 1056 3919 
L 3430 76 
C 3475 0 3494 0 3526 0 
C 3590 0 3590 19 3590 139 
L 3590 3705 
C 3590 3863 3590 4160 4102 4160 
L 4102 4326 
C 3955 4320 3686 4320 3526 4320 
C 3366 4320 3098 4320 2950 4326 
L 2950 4160 
C 3462 4160 3462 3862 3462 3703 
L 3462 763 
L 1312 4250 
z
" transform="scale(0.015625)"/>
       <path id="CMR17-2f" d="M 2605 4545 
C 2637 4627 2637 4640 2637 4653 
C 2637 4729 2579 4768 2528 4768 
C 2451 4768 2426 4717 2400 4640 
L 326 -1377 
C 294 -1460 294 -1473 294 -1486 
C 294 -1562 352 -1600 403 -1600 
C 480 -1600 506 -1549 531 -1473 
L 2605 4545 
z
" transform="scale(0.015625)"/>
       <path id="CMR17-6d" d="M 4326 1933 
C 4326 2252 4269 2790 3507 2790 
C 3072 2790 2771 2496 2656 2151 
L 2650 2151 
C 2573 2676 2195 2790 1837 2790 
C 1331 2790 1069 2400 973 2144 
L 966 2144 
L 966 2790 
L 211 2720 
L 211 2554 
C 589 2554 646 2515 646 2208 
L 646 428 
C 646 184 621 153 211 153 
L 211 -13 
C 365 0 646 0 813 0 
C 979 0 1267 0 1421 -13 
L 1421 153 
C 1011 153 986 178 986 428 
L 986 1658 
C 986 2247 1344 2688 1792 2688 
C 2266 2688 2317 2266 2317 1958 
L 2317 428 
C 2317 184 2291 153 1882 153 
L 1882 -13 
C 2035 0 2317 0 2483 0 
C 2650 0 2938 0 3091 -13 
L 3091 153 
C 2682 153 2656 178 2656 428 
L 2656 1658 
C 2656 2247 3014 2688 3462 2688 
C 3936 2688 3987 2266 3987 1958 
L 3987 428 
C 3987 184 3962 153 3552 153 
L 3552 -13 
C 3706 0 3987 0 4154 0 
C 4320 0 4608 0 4762 -13 
L 4762 153 
C 4352 153 4326 178 4326 428 
L 4326 1933 
z
" transform="scale(0.015625)"/>
       <path id="CMR17-29" d="M 1683 1581 
C 1683 2040 1638 2817 1254 3639 
C 947 4303 422 4768 346 4768 
C 326 4768 301 4761 301 4729 
C 301 4717 307 4710 314 4697 
C 621 4378 1402 3568 1402 1584 
C 1402 -407 627 -1217 314 -1537 
C 307 -1549 301 -1556 301 -1568 
C 301 -1600 326 -1600 346 -1600 
C 416 -1600 960 -1128 1274 -426 
C 1594 281 1683 969 1683 1581 
z
" transform="scale(0.015625)"/>
      </defs>
      <use xlink:href="#CMR17-73" transform="scale(0.996264)"/>
      <use xlink:href="#CMR17-70" transform="translate(35.801338 0)scale(0.996264)"/>
      <use xlink:href="#CMR17-72" transform="translate(86.696707 0)scale(0.996264)"/>
      <use xlink:href="#CMR17-69" transform="translate(121.977475 0)scale(0.996264)"/>
      <use xlink:href="#CMR17-6e" transform="translate(146.848534 0)scale(0.996264)"/>
      <use xlink:href="#CMR17-67" transform="translate(197.743903 0)scale(0.996264)"/>
      <use xlink:href="#CMR17-63" transform="translate(273.510347 0)scale(0.996264)"/>
      <use xlink:href="#CMR17-6f" transform="translate(313.996007 0)scale(0.996264)"/>
      <use xlink:href="#CMR17-6e" transform="translate(359.686485 0)scale(0.996264)"/>
      <use xlink:href="#CMR17-73" transform="translate(410.581854 0)scale(0.996264)"/>
      <use xlink:href="#CMR17-74" transform="translate(446.383192 0)scale(0.996264)"/>
      <use xlink:href="#CMR17-61" transform="translate(481.66396 0)scale(0.996264)"/>
      <use xlink:href="#CMR17-6e" transform="translate(527.354437 0)scale(0.996264)"/>
      <use xlink:href="#CMR17-74" transform="translate(575.647353 0)scale(0.996264)"/>
      <use xlink:href="#CMMI12-6b" transform="translate(641.004087 0)scale(0.996264)"/>
      <use xlink:href="#CMR17-31" transform="translate(691.739275 -14.943915)scale(0.697382)"/>
      <use xlink:href="#CMMI12-3b" transform="translate(723.722457 -14.943915)scale(0.697382)"/>
      <use xlink:href="#CMR17-32" transform="translate(742.69039 -14.943915)scale(0.697382)"/>
      <use xlink:href="#CMMI12-3b" transform="translate(774.673572 -14.943915)scale(0.697382)"/>
      <use xlink:href="#CMR17-33" transform="translate(793.641505 -14.943915)scale(0.697382)"/>
      <use xlink:href="#CMR17-28" transform="translate(856.198785 0)scale(0.996264)"/>
      <use xlink:href="#CMR17-4e" transform="translate(891.479553 0)scale(0.996264)"/>
      <use xlink:href="#CMR17-2f" transform="translate(960.551983 0)scale(0.996264)"/>
      <use xlink:href="#CMR17-6d" transform="translate(1006.24246 0)scale(0.996264)"/>
      <use xlink:href="#CMR17-29" transform="translate(1083.16205 0)scale(0.996264)"/>
     </g>
    </g>
   </g>
   <g id="matplotlib.axis_2">
    <g id="ytick_1">
     <g id="line2d_9">
      <defs>
       <path id="m96f23c79aa" d="M 0 0 
L -3.5 0 
" style="stroke: #000000; stroke-width: 0.8"/>
      </defs>
      <g>
       <use xlink:href="#m96f23c79aa" x="49.925591" y="166.028575" style="stroke: #000000; stroke-width: 0.8"/>
      </g>
     </g>
     <g id="text_10">
      <!-- $\mathdefault{0.000}$ -->
      <g transform="translate(14.04 170.525589)scale(0.13 -0.13)">
       <defs>
        <path id="CMMI12-3a" d="M 1178 307 
C 1178 492 1024 619 870 619 
C 685 619 557 466 557 313 
C 557 128 710 0 864 0 
C 1050 0 1178 153 1178 307 
z
" transform="scale(0.015625)"/>
       </defs>
       <use xlink:href="#CMR17-30" transform="scale(0.996264)"/>
       <use xlink:href="#CMMI12-3a" transform="translate(45.690477 0)scale(0.996264)"/>
       <use xlink:href="#CMR17-30" transform="translate(72.787654 0)scale(0.996264)"/>
       <use xlink:href="#CMR17-30" transform="translate(118.478131 0)scale(0.996264)"/>
       <use xlink:href="#CMR17-30" transform="translate(164.168608 0)scale(0.996264)"/>
      </g>
     </g>
    </g>
    <g id="ytick_2">
     <g id="line2d_10">
      <g>
       <use xlink:href="#m96f23c79aa" x="49.925591" y="123.679251" style="stroke: #000000; stroke-width: 0.8"/>
      </g>
     </g>
     <g id="text_11">
      <!-- $\mathdefault{0.005}$ -->
      <g transform="translate(14.04 128.176265)scale(0.13 -0.13)">
       <use xlink:href="#CMR17-30" transform="scale(0.996264)"/>
       <use xlink:href="#CMMI12-3a" transform="translate(45.690477 0)scale(0.996264)"/>
       <use xlink:href="#CMR17-30" transform="translate(72.787654 0)scale(0.996264)"/>
       <use xlink:href="#CMR17-30" transform="translate(118.478131 0)scale(0.996264)"/>
       <use xlink:href="#CMR17-35" transform="translate(164.168608 0)scale(0.996264)"/>
      </g>
     </g>
    </g>
    <g id="ytick_3">
     <g id="line2d_11">
      <g>
       <use xlink:href="#m96f23c79aa" x="49.925591" y="81.329928" style="stroke: #000000; stroke-width: 0.8"/>
      </g>
     </g>
     <g id="text_12">
      <!-- $\mathdefault{0.010}$ -->
      <g transform="translate(14.04 85.826942)scale(0.13 -0.13)">
       <use xlink:href="#CMR17-30" transform="scale(0.996264)"/>
       <use xlink:href="#CMMI12-3a" transform="translate(45.690477 0)scale(0.996264)"/>
       <use xlink:href="#CMR17-30" transform="translate(72.787654 0)scale(0.996264)"/>
       <use xlink:href="#CMR17-31" transform="translate(118.478131 0)scale(0.996264)"/>
       <use xlink:href="#CMR17-30" transform="translate(164.168608 0)scale(0.996264)"/>
      </g>
     </g>
    </g>
    <g id="ytick_4">
     <g id="line2d_12">
      <g>
       <use xlink:href="#m96f23c79aa" x="49.925591" y="38.980604" style="stroke: #000000; stroke-width: 0.8"/>
      </g>
     </g>
     <g id="text_13">
      <!-- $\mathdefault{0.015}$ -->
      <g transform="translate(14.04 43.477618)scale(0.13 -0.13)">
       <use xlink:href="#CMR17-30" transform="scale(0.996264)"/>
       <use xlink:href="#CMMI12-3a" transform="translate(45.690477 0)scale(0.996264)"/>
       <use xlink:href="#CMR17-30" transform="translate(72.787654 0)scale(0.996264)"/>
       <use xlink:href="#CMR17-31" transform="translate(118.478131 0)scale(0.996264)"/>
       <use xlink:href="#CMR17-35" transform="translate(164.168608 0)scale(0.996264)"/>
      </g>
     </g>
    </g>
   </g>
   <g id="patch_93">
    <path d="M 49.925591 166.028575 
L 49.925591 14.04 
" style="fill: none; stroke: #000000; stroke-width: 0.8; stroke-linejoin: miter; stroke-linecap: square"/>
   </g>
   <g id="patch_94">
    <path d="M 561.96 166.028575 
L 561.96 14.04 
" style="fill: none; stroke: #000000; stroke-width: 0.8; stroke-linejoin: miter; stroke-linecap: square"/>
   </g>
   <g id="patch_95">
    <path d="M 49.925591 166.028575 
L 561.96 166.028575 
" style="fill: none; stroke: #000000; stroke-width: 0.8; stroke-linejoin: miter; stroke-linecap: square"/>
   </g>
   <g id="patch_96">
    <path d="M 49.925591 14.04 
L 561.96 14.04 
" style="fill: none; stroke: #000000; stroke-width: 0.8; stroke-linejoin: miter; stroke-linecap: square"/>
   </g>
   <g id="legend_1">
    <g id="patch_97">
     <path d="M 500.005573 78.794936 
L 552.86 78.794936 
Q 555.46 78.794936 555.46 76.194936 
L 555.46 23.14 
Q 555.46 20.54 552.86 20.54 
L 500.005573 20.54 
Q 497.405573 20.54 497.405573 23.14 
L 497.405573 76.194936 
Q 497.405573 78.794936 500.005573 78.794936 
z
" style="fill: #ffffff; opacity: 0.8; stroke: #cccccc; stroke-linejoin: miter"/>
    </g>
    <g id="patch_98">
     <path d="M 502.605573 34.84 
L 528.605573 34.84 
L 528.605573 25.74 
L 502.605573 25.74 
z
" style="fill: #800000; opacity: 0.3"/>
    </g>
    <g id="text_14">
     <!-- $k_1$ -->
     <g transform="translate(539.005573 34.84)scale(0.13 -0.13)">
      <use xlink:href="#CMMI12-6b" transform="scale(0.996264)"/>
      <use xlink:href="#CMR17-31" transform="translate(50.735189 -14.943915)scale(0.697382)"/>
     </g>
    </g>
    <g id="patch_99">
     <path d="M 502.605573 52.958312 
L 528.605573 52.958312 
L 528.605573 43.858312 
L 502.605573 43.858312 
z
" style="fill: #00008b; opacity: 0.3"/>
    </g>
    <g id="text_15">
     <!-- $k_2$ -->
     <g transform="translate(539.005573 52.958312)scale(0.13 -0.13)">
      <use xlink:href="#CMMI12-6b" transform="scale(0.996264)"/>
      <use xlink:href="#CMR17-32" transform="translate(50.735189 -14.943915)scale(0.697382)"/>
     </g>
    </g>
    <g id="patch_100">
     <path d="M 502.605573 71.076624 
L 528.605573 71.076624 
L 528.605573 61.976624 
L 502.605573 61.976624 
z
" style="fill: #006400; opacity: 0.3"/>
    </g>
    <g id="text_16">
     <!-- $k_3$ -->
     <g transform="translate(539.005573 71.076624)scale(0.13 -0.13)">
      <use xlink:href="#CMMI12-6b" transform="scale(0.996264)"/>
      <use xlink:href="#CMR17-33" transform="translate(50.735189 -14.943915)scale(0.697382)"/>
     </g>
    </g>
   </g>
  </g>
 </g>
 <defs>
  <clipPath id="p3f33804c7e">
   <rect x="49.925591" y="14.04" width="512.034409" height="151.988575"/>
  </clipPath>
 </defs>
</svg>
