<?xml version="1.0" encoding="utf-8" standalone="no"?>
<!DOCTYPE svg PUBLIC "-//W3C//DTD SVG 1.1//EN"
  "http://www.w3.org/Graphics/SVG/1.1/DTD/svg11.dtd">
<svg xmlns:xlink="http://www.w3.org/1999/xlink" width="576pt" height="288pt" viewBox="0 0 576 288" xmlns="http://www.w3.org/2000/svg" version="1.1">
 <metadata>
  <rdf:RDF xmlns:dc="http://purl.org/dc/elements/1.1/" xmlns:cc="http://creativecommons.org/ns#" xmlns:rdf="http://www.w3.org/1999/02/22-rdf-syntax-ns#">
   <cc:Work>
    <dc:type rdf:resource="http://purl.org/dc/dcmitype/StillImage"/>
    <dc:date>2023-06-13T12:08:22.923965</dc:date>
    <dc:format>image/svg+xml</dc:format>
    <dc:creator>
     <cc:Agent>
      <dc:title>Matplotlib v3.5.3, https://matplotlib.org/</dc:title>
     </cc:Agent>
    </dc:creator>
   </cc:Work>
  </rdf:RDF>
 </metadata>
 <defs>
  <style type="text/css">*{stroke-linejoin: round; stroke-linecap: butt}</style>
 </defs>
 <g id="figure_1">
  <g id="patch_1">
   <path d="M 0 288 
L 576 288 
L 576 0 
L 0 0 
L 0 288 
z
" style="fill: none"/>
  </g>
  <g id="axes_1">
   <g id="patch_2">
    <path d="M 72 143.28 
L 518.4 143.28 
L 518.4 34.56 
L 72 34.56 
z
" style="fill: #ffffff"/>
   </g>
   <g id="matplotlib.axis_1"/>
   <g id="matplotlib.axis_2">
    <g id="ytick_1">
     <g id="line2d_1">
      <defs>
       <path id="m9df181560a" d="M 0 0 
L -3.5 0 
" style="stroke: #000000; stroke-width: 0.8"/>
      </defs>
      <g>
       <use xlink:href="#m9df181560a" x="72" y="122.174722" style="stroke: #000000; stroke-width: 0.8"/>
      </g>
     </g>
     <g id="text_1">
      <!-- $\mathdefault{−0.02}$ -->
      <g transform="translate(32.381779 126.671736)scale(0.13 -0.13)">
       <defs>
        <path id="CMSY10-0" d="M 4218 1472 
C 4326 1472 4442 1472 4442 1600 
C 4442 1728 4326 1728 4218 1728 
L 755 1728 
C 646 1728 531 1728 531 1600 
C 531 1472 646 1472 755 1472 
L 4218 1472 
z
" transform="scale(0.015625)"/>
        <path id="CMR17-30" d="M 2688 2025 
C 2688 2416 2682 3080 2413 3591 
C 2176 4039 1798 4198 1466 4198 
C 1158 4198 768 4058 525 3597 
C 269 3118 243 2524 243 2025 
C 243 1661 250 1106 448 619 
C 723 -39 1216 -128 1466 -128 
C 1760 -128 2208 -7 2470 600 
C 2662 1042 2688 1559 2688 2025 
z
M 1466 -26 
C 1056 -26 813 325 723 812 
C 653 1188 653 1738 653 2096 
C 653 2588 653 2997 736 3387 
C 858 3929 1216 4096 1466 4096 
C 1728 4096 2067 3923 2189 3400 
C 2272 3036 2278 2607 2278 2096 
C 2278 1680 2278 1169 2202 792 
C 2067 95 1690 -26 1466 -26 
z
" transform="scale(0.015625)"/>
        <path id="CMMI12-3a" d="M 1178 307 
C 1178 492 1024 619 870 619 
C 685 619 557 466 557 313 
C 557 128 710 0 864 0 
C 1050 0 1178 153 1178 307 
z
" transform="scale(0.015625)"/>
        <path id="CMR17-32" d="M 2669 989 
L 2554 989 
C 2490 536 2438 459 2413 420 
C 2381 369 1920 369 1830 369 
L 602 369 
C 832 619 1280 1072 1824 1597 
C 2214 1967 2669 2402 2669 3035 
C 2669 3790 2067 4224 1395 4224 
C 691 4224 262 3604 262 3030 
C 262 2780 448 2748 525 2748 
C 589 2748 781 2787 781 3010 
C 781 3207 614 3264 525 3264 
C 486 3264 448 3258 422 3245 
C 544 3790 915 4058 1306 4058 
C 1862 4058 2227 3617 2227 3035 
C 2227 2479 1901 2000 1536 1584 
L 262 146 
L 262 0 
L 2515 0 
L 2669 989 
z
" transform="scale(0.015625)"/>
       </defs>
       <use xlink:href="#CMSY10-0" transform="scale(0.996264)"/>
       <use xlink:href="#CMR17-30" transform="translate(77.487468 0)scale(0.996264)"/>
       <use xlink:href="#CMMI12-3a" transform="translate(123.177945 0)scale(0.996264)"/>
       <use xlink:href="#CMR17-30" transform="translate(150.275122 0)scale(0.996264)"/>
       <use xlink:href="#CMR17-32" transform="translate(195.965599 0)scale(0.996264)"/>
      </g>
     </g>
    </g>
    <g id="ytick_2">
     <g id="line2d_2">
      <g>
       <use xlink:href="#m9df181560a" x="72" y="92.865005" style="stroke: #000000; stroke-width: 0.8"/>
      </g>
     </g>
     <g id="text_2">
      <!-- $\mathdefault{0.00}$ -->
      <g transform="translate(42.455149 97.362019)scale(0.13 -0.13)">
       <use xlink:href="#CMR17-30" transform="scale(0.996264)"/>
       <use xlink:href="#CMMI12-3a" transform="translate(45.690477 0)scale(0.996264)"/>
       <use xlink:href="#CMR17-30" transform="translate(72.787654 0)scale(0.996264)"/>
       <use xlink:href="#CMR17-30" transform="translate(118.478131 0)scale(0.996264)"/>
      </g>
     </g>
    </g>
    <g id="ytick_3">
     <g id="line2d_3">
      <g>
       <use xlink:href="#m9df181560a" x="72" y="63.555289" style="stroke: #000000; stroke-width: 0.8"/>
      </g>
     </g>
     <g id="text_3">
      <!-- $\mathdefault{0.02}$ -->
      <g transform="translate(42.455149 68.052303)scale(0.13 -0.13)">
       <use xlink:href="#CMR17-30" transform="scale(0.996264)"/>
       <use xlink:href="#CMMI12-3a" transform="translate(45.690477 0)scale(0.996264)"/>
       <use xlink:href="#CMR17-30" transform="translate(72.787654 0)scale(0.996264)"/>
       <use xlink:href="#CMR17-32" transform="translate(118.478131 0)scale(0.996264)"/>
      </g>
     </g>
    </g>
    <g id="text_4">
     <!-- displacement (m) -->
     <g transform="translate(25.143921 137.039159)rotate(-90)scale(0.13 -0.13)">
      <defs>
       <path id="CMR17-64" d="M 1869 4326 
L 1869 4160 
C 2246 4160 2304 4122 2304 3820 
L 2304 2345 
C 2278 2377 2016 2790 1498 2790 
C 845 2790 211 2208 211 1364 
C 211 525 806 -64 1434 -64 
C 1978 -64 2259 337 2291 380 
L 2291 -63 
L 3066 -63 
L 3066 128 
C 2688 128 2630 166 2630 473 
L 2630 4396 
L 1869 4326 
z
M 2291 755 
C 2291 563 2176 390 2029 262 
C 1811 70 1594 38 1472 38 
C 1286 38 621 134 621 1356 
C 621 2612 1363 2688 1530 2688 
C 1824 2688 2061 2522 2208 2291 
C 2291 2157 2291 2138 2291 2023 
L 2291 755 
z
" transform="scale(0.015625)"/>
       <path id="CMR17-69" d="M 992 3909 
C 992 4049 877 4170 730 4170 
C 589 4170 467 4056 467 3909 
C 467 3769 582 3648 730 3648 
C 870 3648 992 3763 992 3909 
z
M 243 2706 
L 243 2541 
C 602 2541 653 2502 653 2197 
L 653 427 
C 653 184 627 153 218 153 
L 218 -13 
C 371 0 646 0 806 0 
C 960 0 1222 0 1370 -13 
L 1370 153 
C 992 153 979 191 979 420 
L 979 2776 
L 243 2706 
z
" transform="scale(0.015625)"/>
       <path id="CMR17-73" d="M 1978 2697 
C 1978 2813 1971 2819 1933 2819 
C 1907 2819 1901 2813 1824 2717 
C 1805 2691 1747 2626 1728 2601 
C 1523 2819 1235 2819 1126 2819 
C 416 2819 160 2447 160 2076 
C 160 1498 813 1365 998 1325 
C 1402 1243 1542 1217 1677 1101 
C 1760 1025 1901 884 1901 654 
C 1901 384 1747 38 1158 38 
C 602 38 403 460 288 1021 
C 269 1110 269 1117 218 1117 
C 166 1117 160 1110 160 983 
L 160 63 
C 160 -51 166 -58 205 -58 
C 237 -58 243 -51 275 0 
C 314 57 410 211 448 276 
C 576 103 800 -64 1158 -64 
C 1792 -64 2131 283 2131 784 
C 2131 1112 1958 1285 1875 1362 
C 1683 1561 1459 1606 1190 1657 
C 838 1735 390 1825 390 2217 
C 390 2383 480 2737 1126 2737 
C 1811 2737 1850 2094 1862 1888 
C 1869 1856 1901 1849 1920 1849 
C 1978 1849 1978 1869 1978 1978 
L 1978 2697 
z
" transform="scale(0.015625)"/>
       <path id="CMR17-70" d="M 1408 -1063 
C 998 -1063 973 -1037 973 -789 
L 973 402 
C 1158 134 1427 -38 1766 -38 
C 2406 -38 3053 523 3053 1388 
C 3053 2191 2496 2802 1837 2802 
C 1453 2802 1139 2592 960 2338 
L 960 2802 
L 198 2732 
L 198 2567 
C 576 2567 634 2528 634 2223 
L 634 -789 
C 634 -1031 608 -1063 198 -1063 
L 198 -1228 
C 352 -1216 634 -1216 800 -1216 
C 966 -1216 1254 -1216 1408 -1228 
L 1408 -1063 
z
M 973 2012 
C 973 2102 973 2235 1222 2471 
C 1254 2497 1472 2688 1792 2688 
C 2259 2688 2643 2108 2643 1382 
C 2643 656 2234 64 1728 64 
C 1498 64 1248 172 1056 472 
C 973 612 973 650 973 752 
L 973 2012 
z
" transform="scale(0.015625)"/>
       <path id="CMR17-6c" d="M 979 4396 
L 218 4326 
L 218 4160 
C 595 4160 653 4122 653 3817 
L 653 426 
C 653 184 627 153 218 153 
L 218 -13 
C 371 0 653 0 813 0 
C 979 0 1261 0 1414 -13 
L 1414 153 
C 1005 153 979 178 979 426 
L 979 4396 
z
" transform="scale(0.015625)"/>
       <path id="CMR17-61" d="M 2304 1653 
C 2304 2072 2304 2294 2035 2543 
C 1798 2752 1523 2816 1306 2816 
C 800 2816 435 2407 435 1971 
C 435 1728 627 1728 666 1728 
C 749 1728 896 1778 896 1954 
C 896 2112 774 2181 666 2181 
C 640 2181 608 2174 589 2168 
C 723 2592 1069 2714 1293 2714 
C 1613 2714 1965 2429 1965 1885 
L 1965 1600 
C 1587 1600 1133 1549 774 1357 
C 371 1133 256 813 256 570 
C 256 77 832 -64 1171 -64 
C 1523 -64 1850 139 1990 511 
C 2003 233 2182 -18 2464 -18 
C 2598 -18 2938 70 2938 567 
L 2938 920 
L 2822 920 
L 2822 562 
C 2822 178 2650 128 2566 128 
C 2304 128 2304 458 2304 738 
L 2304 1653 
z
M 1965 870 
C 1965 317 1568 38 1216 38 
C 896 38 646 275 646 570 
C 646 761 730 1100 1101 1305 
C 1408 1478 1760 1504 1965 1504 
L 1965 870 
z
" transform="scale(0.015625)"/>
       <path id="CMR17-63" d="M 2234 2240 
C 2112 2240 1933 2240 1933 2017 
C 1933 1838 2080 1787 2163 1787 
C 2208 1787 2394 1807 2394 2024 
C 2394 2467 1958 2803 1466 2803 
C 787 2803 211 2178 211 1363 
C 211 516 813 -64 1466 -64 
C 2259 -64 2458 677 2458 748 
C 2458 774 2451 793 2406 793 
C 2362 793 2355 787 2330 703 
C 2163 180 1798 51 1523 51 
C 1114 51 621 427 621 1369 
C 621 2338 1094 2688 1472 2688 
C 1722 2688 2093 2573 2234 2240 
z
" transform="scale(0.015625)"/>
       <path id="CMR17-65" d="M 2438 1472 
C 2464 1498 2464 1511 2464 1576 
C 2464 2238 2118 2816 1389 2816 
C 710 2816 173 2169 173 1383 
C 173 551 781 -64 1459 -64 
C 2176 -64 2458 607 2458 740 
C 2458 784 2419 784 2406 784 
C 2362 784 2355 771 2330 696 
C 2189 265 1837 51 1504 51 
C 1229 51 954 203 781 480 
C 582 803 582 1176 582 1472 
L 2438 1472 
z
M 589 1568 
C 634 2505 1126 2714 1382 2714 
C 1818 2714 2112 2297 2118 1568 
L 589 1568 
z
" transform="scale(0.015625)"/>
       <path id="CMR17-6d" d="M 4326 1933 
C 4326 2252 4269 2790 3507 2790 
C 3072 2790 2771 2496 2656 2151 
L 2650 2151 
C 2573 2676 2195 2790 1837 2790 
C 1331 2790 1069 2400 973 2144 
L 966 2144 
L 966 2790 
L 211 2720 
L 211 2554 
C 589 2554 646 2515 646 2208 
L 646 428 
C 646 184 621 153 211 153 
L 211 -13 
C 365 0 646 0 813 0 
C 979 0 1267 0 1421 -13 
L 1421 153 
C 1011 153 986 178 986 428 
L 986 1658 
C 986 2247 1344 2688 1792 2688 
C 2266 2688 2317 2266 2317 1958 
L 2317 428 
C 2317 184 2291 153 1882 153 
L 1882 -13 
C 2035 0 2317 0 2483 0 
C 2650 0 2938 0 3091 -13 
L 3091 153 
C 2682 153 2656 178 2656 428 
L 2656 1658 
C 2656 2247 3014 2688 3462 2688 
C 3936 2688 3987 2266 3987 1958 
L 3987 428 
C 3987 184 3962 153 3552 153 
L 3552 -13 
C 3706 0 3987 0 4154 0 
C 4320 0 4608 0 4762 -13 
L 4762 153 
C 4352 153 4326 178 4326 428 
L 4326 1933 
z
" transform="scale(0.015625)"/>
       <path id="CMR17-6e" d="M 2656 1933 
C 2656 2259 2592 2790 1837 2790 
C 1331 2790 1069 2400 973 2144 
L 966 2144 
L 966 2790 
L 211 2720 
L 211 2554 
C 589 2554 646 2515 646 2208 
L 646 428 
C 646 184 621 153 211 153 
L 211 -13 
C 365 0 646 0 813 0 
C 979 0 1267 0 1421 -13 
L 1421 153 
C 1011 153 986 178 986 428 
L 986 1658 
C 986 2247 1344 2688 1792 2688 
C 2266 2688 2317 2266 2317 1958 
L 2317 428 
C 2317 184 2291 153 1882 153 
L 1882 -13 
C 2035 0 2317 0 2483 0 
C 2650 0 2938 0 3091 -13 
L 3091 153 
C 2682 153 2656 178 2656 428 
L 2656 1933 
z
" transform="scale(0.015625)"/>
       <path id="CMR17-74" d="M 966 2560 
L 1862 2560 
L 1862 2725 
L 966 2725 
L 966 3904 
L 851 3904 
C 838 3245 614 2668 70 2668 
L 70 2560 
L 627 2560 
L 627 771 
C 627 650 627 -64 1370 -64 
C 1747 -64 1965 306 1965 777 
L 1965 1140 
L 1850 1140 
L 1850 783 
C 1850 344 1677 51 1408 51 
C 1222 51 966 178 966 758 
L 966 2560 
z
" transform="scale(0.015625)"/>
       <path id="CMR17-28" d="M 1958 -1561 
C 1958 -1555 1958 -1542 1939 -1523 
C 1645 -1224 858 -407 858 1581 
C 858 3569 1632 4379 1946 4697 
C 1946 4704 1958 4717 1958 4736 
C 1958 4755 1939 4768 1914 4768 
C 1843 4768 1299 4296 986 3594 
C 666 2887 576 2199 576 1588 
C 576 1128 621 351 1005 -471 
C 1312 -1135 1837 -1600 1914 -1600 
C 1946 -1600 1958 -1587 1958 -1561 
z
" transform="scale(0.015625)"/>
       <path id="CMR17-29" d="M 1683 1581 
C 1683 2040 1638 2817 1254 3639 
C 947 4303 422 4768 346 4768 
C 326 4768 301 4761 301 4729 
C 301 4717 307 4710 314 4697 
C 621 4378 1402 3568 1402 1584 
C 1402 -407 627 -1217 314 -1537 
C 307 -1549 301 -1556 301 -1568 
C 301 -1600 326 -1600 346 -1600 
C 416 -1600 960 -1128 1274 -426 
C 1594 281 1683 969 1683 1581 
z
" transform="scale(0.015625)"/>
      </defs>
      <use xlink:href="#CMR17-64" transform="scale(0.996264)"/>
      <use xlink:href="#CMR17-69" transform="translate(50.89537 0)scale(0.996264)"/>
      <use xlink:href="#CMR17-73" transform="translate(75.766428 0)scale(0.996264)"/>
      <use xlink:href="#CMR17-70" transform="translate(111.567766 0)scale(0.996264)"/>
      <use xlink:href="#CMR17-6c" transform="translate(162.463136 0)scale(0.996264)"/>
      <use xlink:href="#CMR17-61" transform="translate(187.334194 0)scale(0.996264)"/>
      <use xlink:href="#CMR17-63" transform="translate(233.024671 0)scale(0.996264)"/>
      <use xlink:href="#CMR17-65" transform="translate(273.510332 0)scale(0.996264)"/>
      <use xlink:href="#CMR17-6d" transform="translate(313.995992 0)scale(0.996264)"/>
      <use xlink:href="#CMR17-65" transform="translate(390.915582 0)scale(0.996264)"/>
      <use xlink:href="#CMR17-6e" transform="translate(431.401243 0)scale(0.996264)"/>
      <use xlink:href="#CMR17-74" transform="translate(479.694158 0)scale(0.996264)"/>
      <use xlink:href="#CMR17-28" transform="translate(545.050893 0)scale(0.996264)"/>
      <use xlink:href="#CMR17-6d" transform="translate(580.33166 0)scale(0.996264)"/>
      <use xlink:href="#CMR17-29" transform="translate(657.25125 0)scale(0.996264)"/>
     </g>
    </g>
   </g>
   <g id="line2d_4">
    <path d="M 92.290909 97.786001 
L 93.104172 97.040785 
L 93.917435 94.880716 
L 94.730698 91.525928 
L 96.357224 82.70907 
L 97.983749 74.25683 
L 98.797012 71.402521 
L 99.610275 70.021015 
L 100.423538 70.398325 
L 101.236801 72.67881 
L 102.050064 76.848695 
L 102.863327 82.732649 
L 104.489852 98.206676 
L 106.116378 115.152427 
L 106.929641 122.682655 
L 107.742904 128.814284 
L 108.556167 133.067771 
L 109.36943 135.089934 
L 110.182693 134.683112 
L 110.995956 131.822266 
L 111.809218 126.658566 
L 112.622481 119.509158 
L 114.249007 101.200692 
L 115.875533 81.610946 
L 116.688796 72.923519 
L 117.502059 65.720983 
L 118.315322 60.425544 
L 119.128584 57.310923 
L 119.941847 56.484071 
L 120.75511 57.880266 
L 121.568373 61.271927 
L 122.381636 66.290299 
L 124.008162 79.230834 
L 125.634688 92.350352 
L 126.44795 97.68418 
L 127.261213 101.678432 
L 128.074476 104.103111 
L 128.887739 104.879575 
L 129.701002 104.083845 
L 130.514265 101.936683 
L 131.327528 98.781342 
L 133.767316 87.801437 
L 134.580579 85.219063 
L 135.393842 83.849079 
L 136.207105 83.944297 
L 137.020368 85.617938 
L 137.833631 88.831143 
L 138.646894 93.393576 
L 140.27342 105.141862 
L 141.899945 117.115962 
L 142.713208 121.838552 
L 143.526471 125.060777 
L 144.339734 126.40465 
L 145.152997 125.626656 
L 145.96626 122.641285 
L 146.779523 117.531988 
L 147.592786 110.548559 
L 149.219311 92.681304 
L 150.845837 73.46478 
L 151.6591 64.934025 
L 152.472363 57.906089 
L 153.285626 52.851667 
L 154.098889 50.10261 
L 154.912152 49.826801 
L 155.725414 52.015855 
L 156.538677 56.486633 
L 157.35194 62.896392 
L 158.978466 79.539405 
L 160.604992 97.286989 
L 161.418255 105.072185 
L 162.231518 111.457074 
L 163.04478 116.083887 
L 163.858043 118.745593 
L 164.671306 119.398396 
L 165.484569 118.160752 
L 166.297832 115.299105 
L 167.111095 111.201639 
L 170.364146 92.307131 
L 171.177409 89.327042 
L 171.990672 87.72347 
L 172.803935 87.614293 
L 173.617198 88.96628 
L 174.430461 91.598934 
L 175.243724 95.201168 
L 177.683512 107.405583 
L 178.496775 110.313828 
L 179.310038 111.907609 
L 180.123301 111.880217 
L 180.936564 110.059851 
L 181.749827 106.428322 
L 182.56309 101.126953 
L 183.376353 94.449066 
L 186.629404 63.719959 
L 187.442667 57.893397 
L 188.25593 53.867297 
L 189.069193 52.004375 
L 189.882456 52.516625 
L 190.695719 55.446321 
L 191.508982 60.660327 
L 192.322244 67.858232 
L 193.94877 86.307479 
L 195.575296 106.124589 
L 196.388559 114.945554 
L 197.201822 122.2765 
L 198.015085 127.676049 
L 198.828348 130.849049 
L 199.64161 131.666977 
L 200.454873 130.175045 
L 201.268136 126.585533 
L 202.081399 121.257963 
L 203.707925 107.366414 
L 205.334451 92.938757 
L 206.147714 86.878793 
L 206.960976 82.155522 
L 207.774239 79.036909 
L 208.587502 77.639841 
L 209.400765 77.924167 
L 210.214028 79.700064 
L 211.027291 82.648025 
L 214.280343 97.161602 
L 215.093605 99.160786 
L 215.906868 99.797735 
L 216.720131 98.921 
L 217.533394 96.528474 
L 218.346657 92.769511 
L 219.973183 82.428372 
L 221.599709 71.410393 
L 222.412971 66.9587 
L 223.226234 63.867341 
L 224.039497 62.523767 
L 224.85276 63.188232 
L 225.666023 65.968449 
L 226.479286 70.806462 
L 227.292549 77.478948 
L 228.919075 94.702556 
L 230.5456 113.36526 
L 231.358863 121.674836 
L 232.172126 128.517383 
L 232.985389 133.413766 
L 233.798652 136.019236 
L 234.611915 136.150287 
L 235.425178 133.798961 
L 236.238441 129.133426 
L 237.051703 122.484795 
L 238.678229 105.211534 
L 240.304755 86.662651 
L 241.118018 78.450138 
L 241.931281 71.65162 
L 242.744544 66.653003 
L 243.557807 63.690562 
L 244.371069 62.836077 
L 245.184332 63.995423 
L 245.997595 66.920631 
L 246.810858 71.234298 
L 250.06391 92.411761 
L 250.877173 96.209902 
L 251.690435 98.661632 
L 252.503698 99.607241 
L 253.316961 99.037987 
L 254.130224 97.095008 
L 254.943487 94.055232 
L 258.196539 79.527503 
L 259.009801 77.652252 
L 259.823064 77.256808 
L 260.636327 78.541863 
L 261.44959 81.559361 
L 262.262853 86.204092 
L 263.076116 92.218602 
L 267.14243 126.314151 
L 267.955693 130.1152 
L 268.768956 131.838442 
L 269.582219 131.257473 
L 270.395482 128.311973 
L 271.208745 123.115502 
L 272.022008 115.94953 
L 273.648533 97.546515 
L 275.275059 77.701048 
L 276.088322 68.841534 
L 276.901585 61.469611 
L 277.714848 56.042885 
L 278.528111 52.875513 
L 279.341374 52.115798 
L 280.154637 53.736921 
L 280.967899 57.541491 
L 281.781162 63.179472 
L 283.407688 77.980426 
L 285.034214 93.62686 
L 285.847477 100.355448 
L 286.66074 105.744533 
L 287.474003 109.490223 
L 288.287265 111.439224 
L 289.100528 111.597413 
L 289.913791 110.124994 
L 290.727054 107.318771 
L 292.35358 99.392106 
L 293.980106 91.626727 
L 294.793369 88.952981 
L 295.606631 87.544128 
L 296.419894 87.590526 
L 297.233157 89.136058 
L 298.04642 92.073269 
L 298.859683 96.151702 
L 302.112735 115.311624 
L 302.925997 118.319505 
L 303.73926 119.721823 
L 304.552523 119.240634 
L 305.365786 116.744531 
L 306.179049 112.263947 
L 306.992312 105.993226 
L 308.618838 89.59702 
L 310.245363 71.652989 
L 311.058626 63.631908 
L 311.871889 57.028254 
L 312.685152 52.327401 
L 313.498415 49.885445 
L 314.311678 49.900688 
L 315.124941 52.397376 
L 315.938204 57.223037 
L 316.751467 64.059649 
L 318.377992 81.821585 
L 320.004518 100.996518 
L 320.817781 109.544192 
L 321.631044 116.665452 
L 322.444307 121.949187 
L 323.25757 125.132423 
L 324.070833 126.117475 
L 324.884095 124.975687 
L 325.697358 121.937566 
L 326.510621 117.370228 
L 328.137147 105.591702 
L 329.763673 93.874028 
L 330.576936 89.273858 
L 331.390199 85.998148 
L 332.203461 84.247554 
L 333.016724 84.07201 
L 333.829987 85.36908 
L 334.64325 87.895451 
L 336.269776 95.110221 
L 337.083039 98.867635 
L 337.896302 102.077871 
L 338.709565 104.302461 
L 339.522827 105.190055 
L 340.33609 104.509758 
L 341.149353 102.174281 
L 341.962616 98.250875 
L 342.775879 92.959071 
L 344.402405 79.805646 
L 346.028931 66.652347 
L 346.842193 61.466053 
L 347.655456 57.875635 
L 348.468719 56.261293 
L 349.281982 56.864166 
L 350.095245 59.763648 
L 350.908508 64.867465 
L 351.721771 71.915441 
L 353.348297 90.079266 
L 354.974822 109.755541 
L 355.788085 118.562113 
L 356.601348 125.892849 
L 357.414611 131.276764 
L 358.227874 134.382987 
L 359.041137 135.045062 
L 359.8544 133.272319 
L 360.667663 129.24744 
L 361.480925 123.310446 
L 363.107451 107.667646 
L 364.733977 90.916496 
L 365.54724 83.58781 
L 366.360503 77.605793 
L 367.173766 73.30793 
L 367.987029 70.881811 
L 368.800291 70.354028 
L 369.613554 71.592525 
L 370.426817 74.322062 
L 371.24008 78.15142 
L 373.679869 91.394781 
L 374.493132 94.77742 
L 375.306395 96.985541 
L 376.119657 97.789568 
L 376.93292 97.103437 
L 377.746183 94.9922 
L 378.559446 91.666441 
L 380.185972 82.820361 
L 381.812498 74.205738 
L 382.625761 71.226709 
L 383.439024 69.701384 
L 384.252286 69.926437 
L 385.065549 72.058493 
L 385.878812 76.096645 
L 386.692075 81.877953 
L 388.318601 97.27488 
L 390.75839 122.029312 
L 391.571652 128.352052 
L 392.384915 132.831888 
L 393.198178 135.102664 
L 394.011441 134.951842 
L 394.824704 132.33867 
L 395.637967 127.398936 
L 396.45123 120.435859 
L 398.077756 102.344737 
L 399.704281 82.731039 
L 400.517544 73.943732 
L 401.330807 66.59205 
L 402.14407 61.109296 
L 402.957333 57.782558 
L 403.770596 56.733368 
L 404.583859 57.911681 
L 405.397122 61.103569 
L 406.210384 65.951898 
L 407.83691 78.673121 
L 409.463436 91.751073 
L 410.276699 97.123391 
L 411.089962 101.18545 
L 411.903225 103.696937 
L 412.716488 104.567889 
L 413.52975 103.863052 
L 414.343013 101.792971 
L 415.156276 98.692662 
L 417.596065 87.706292 
L 418.409328 85.067904 
L 419.222591 83.62448 
L 420.035854 83.63823 
L 420.849116 85.233128 
L 421.662379 88.38143 
L 422.475642 92.903246 
L 424.102168 104.675728 
L 425.728694 116.839874 
L 426.541957 121.715984 
L 427.35522 125.121597 
L 428.168482 126.668029 
L 428.981745 126.098859 
L 429.795008 123.314421 
L 430.608271 118.38385 
L 431.421534 111.543581 
L 433.04806 93.813567 
L 434.674586 74.498259 
L 435.487848 65.830598 
L 436.301111 58.616089 
L 437.114374 53.336385 
L 437.927637 50.336964 
L 438.7409 49.801015 
L 439.554163 51.736019 
L 440.367426 55.974089 
L 441.180689 62.186029 
L 442.807214 78.57808 
L 444.43374 96.297391 
L 445.247003 104.148144 
L 446.060266 110.642254 
L 446.873529 115.411241 
L 447.686792 118.235539 
L 448.500055 119.058053 
L 449.313318 117.984266 
L 450.12658 115.269017 
L 450.939843 111.29116 
L 454.192895 92.531641 
L 455.006158 89.510148 
L 455.819421 87.849525 
L 456.632684 87.678008 
L 457.445946 88.973026 
L 458.259209 91.564024 
L 459.072472 95.148176 
L 461.512261 107.481923 
L 462.325524 110.492181 
L 463.138787 112.208048 
L 463.95205 112.313036 
L 464.765312 110.623798 
L 465.578575 107.109803 
L 466.391838 101.900292 
L 467.205101 95.277821 
L 470.458153 64.285865 
L 471.271416 58.273828 
L 472.084678 54.02808 
L 472.897941 51.923833 
L 473.711204 52.187582 
L 474.524467 54.877053 
L 475.33773 59.874375 
L 476.150993 66.893072 
L 477.777519 85.139344 
L 480.217307 113.92675 
L 481.03057 121.417269 
L 481.843833 127.015646 
L 482.657096 130.413244 
L 483.470359 131.466676 
L 484.283622 130.206051 
L 485.096885 126.829429 
L 485.910148 121.684045 
L 487.536673 108.030282 
L 489.163199 93.650377 
L 489.976462 87.549108 
L 490.789725 82.750926 
L 491.602988 79.534136 
L 492.416251 78.027205 
L 493.229514 78.20176 
L 494.042776 79.878909 
L 494.856039 82.748285 
L 498.109091 97.232398 
L 498.109091 97.232398 
" clip-path="url(#pd470079e54)" style="fill: none; stroke: #ff0000; stroke-linecap: square"/>
   </g>
   <g id="line2d_5">
    <path d="M 92.290909 97.786001 
L 93.104172 97.272382 
L 93.917435 96.129443 
L 94.730698 94.446787 
L 95.543961 92.314017 
L 97.170486 87.056551 
L 97.983749 84.216469 
L 98.797012 81.917128 
L 99.610275 80.880575 
L 100.423538 81.584557 
L 101.236801 83.52964 
L 102.863327 88.598451 
L 103.67659 92.81634 
L 104.489852 100.463653 
L 106.116378 124.074723 
L 106.929641 131.973862 
L 107.742904 136.15193 
L 108.556167 137.929845 
L 109.36943 138.338182 
L 110.182693 137.246154 
L 110.995956 134.232633 
L 111.809218 129.028369 
L 112.622481 121.971622 
L 114.249007 104.228953 
L 117.502059 64.756283 
L 118.315322 56.980595 
L 119.128584 51.318044 
L 119.941847 47.631386 
L 120.75511 45.604238 
L 121.568373 45.021792 
L 122.381636 46.075552 
L 123.194899 49.058597 
L 124.008162 54.110653 
L 124.821425 60.758033 
L 128.074476 91.423699 
L 128.887739 97.557311 
L 129.701002 102.148245 
L 130.514265 104.751246 
L 131.327528 105.082965 
L 132.140791 103.507682 
L 132.954054 100.551582 
L 134.580579 93.705669 
L 135.393842 92.087624 
L 136.207105 91.885899 
L 137.020368 92.663081 
L 137.833631 94.05326 
L 138.646894 95.976541 
L 139.460157 98.424534 
L 143.526471 112.776087 
L 145.152997 117.831825 
L 145.96626 119.720205 
L 146.779523 120.138847 
L 147.592786 118.432419 
L 148.406048 114.623666 
L 149.219311 108.904851 
L 150.032574 101.509384 
L 151.6591 83.321656 
L 153.285626 63.974859 
L 154.098889 55.628161 
L 154.912152 49.040184 
L 155.725414 44.213835 
L 156.538677 40.998425 
L 157.35194 39.501818 
L 158.165203 40.866098 
L 158.978466 46.491903 
L 159.791729 56.888762 
L 161.418255 79.630238 
L 163.04478 96.301673 
L 164.671306 109.311409 
L 165.484569 114.176413 
L 166.297832 117.680768 
L 167.111095 119.988383 
L 167.924358 121.348919 
L 168.737621 121.917763 
L 169.550884 121.473191 
L 170.364146 119.699201 
L 171.177409 116.463677 
L 173.617198 104.595447 
L 175.243724 98.780438 
L 176.056987 96.349971 
L 176.87025 94.770756 
L 177.683512 94.735697 
L 178.496775 96.638636 
L 180.123301 102.749811 
L 180.936564 104.945886 
L 181.749827 106.117826 
L 182.56309 106.308848 
L 183.376353 105.498362 
L 184.189616 103.410551 
L 185.002878 99.705787 
L 185.816141 94.239623 
L 189.069193 68.291879 
L 190.695719 57.82061 
L 191.508982 53.722326 
L 192.322244 50.91767 
L 193.135507 49.920718 
L 193.94877 51.620909 
L 194.762033 57.00153 
L 198.015085 93.844422 
L 200.454873 114.95884 
L 201.268136 121.122816 
L 202.081399 126.243138 
L 202.894662 130.087361 
L 203.707925 132.457302 
L 204.521188 133.152124 
L 205.334451 131.960381 
L 206.147714 128.667974 
L 206.960976 123.275352 
L 209.400765 103.720766 
L 211.027291 93.211591 
L 211.840554 88.498045 
L 212.653817 84.732162 
L 213.46708 82.697777 
L 214.280343 82.805726 
L 216.720131 86.160774 
L 217.533394 87.680429 
L 219.15992 91.848312 
L 219.973183 92.893372 
L 220.786446 92.264759 
L 221.599709 90.221696 
L 222.412971 87.257532 
L 224.039497 79.966669 
L 226.479286 67.67644 
L 227.292549 64.781166 
L 228.105812 63.392952 
L 228.919075 63.601798 
L 229.732337 65.392483 
L 230.5456 68.704908 
L 231.358863 73.299472 
L 232.985389 85.18627 
L 237.051703 119.272117 
L 237.864966 127.584264 
L 238.678229 134.203324 
L 239.491492 136.749575 
L 240.304755 135.627611 
L 241.118018 131.938101 
L 241.931281 126.676572 
L 243.557807 113.63209 
L 245.997595 93.693108 
L 247.624121 82.626993 
L 249.250647 73.221486 
L 250.06391 69.592555 
L 250.877173 67.444163 
L 251.690435 67.179678 
L 252.503698 68.402843 
L 253.316961 70.517497 
L 254.943487 75.673319 
L 257.383276 83.59078 
L 258.196539 85.884162 
L 259.009801 87.80816 
L 259.823064 89.007741 
L 260.636327 89.195823 
L 261.44959 88.573216 
L 263.076116 86.172934 
L 263.889379 84.956088 
L 264.702642 84.050211 
L 265.515905 83.708847 
L 266.329167 84.247511 
L 267.14243 85.997214 
L 267.955693 89.159388 
L 268.768956 93.417151 
L 271.208745 108.711723 
L 272.835271 118.743485 
L 273.648533 122.860295 
L 274.461796 125.665822 
L 275.275059 126.759668 
L 276.088322 126.344551 
L 276.901585 124.773969 
L 277.714848 122.313614 
L 278.528111 118.877954 
L 279.341374 114.293652 
L 280.154637 108.489804 
L 281.781162 94.681264 
L 283.407688 79.792117 
L 285.034214 62.565171 
L 285.847477 56.1348 
L 286.66074 54.716287 
L 287.474003 57.117825 
L 290.727054 73.653636 
L 293.166843 88.375488 
L 293.980106 91.908482 
L 294.793369 94.389496 
L 295.606631 95.962518 
L 296.419894 96.780868 
L 297.233157 97.035213 
L 298.04642 96.925551 
L 298.859683 96.580628 
L 299.672946 95.844173 
L 300.486209 94.488658 
L 302.112735 90.724513 
L 302.925997 90.217813 
L 303.73926 91.71234 
L 304.552523 94.633745 
L 309.432101 114.935093 
L 310.245363 116.328584 
L 311.058626 115.335811 
L 311.871889 113.47298 
L 313.498415 111.112037 
L 314.311678 108.900664 
L 315.124941 104.783111 
L 315.938204 99.016961 
L 317.564729 84.656999 
L 319.191255 69.726134 
L 320.004518 63.175855 
L 320.817781 57.911664 
L 321.631044 54.47252 
L 322.444307 53.251405 
L 323.25757 54.057375 
L 324.070833 56.55351 
L 324.884095 60.429912 
L 325.697358 65.48478 
L 327.323884 78.367424 
L 328.95041 92.282055 
L 329.763673 98.318067 
L 330.576936 103.296366 
L 331.390199 106.995532 
L 332.203461 109.309586 
L 333.016724 110.594281 
L 333.829987 111.320809 
L 334.64325 111.842183 
L 335.456513 112.038712 
L 336.269776 111.672526 
L 337.083039 110.551787 
L 337.896302 108.668777 
L 338.709565 106.061809 
L 341.149353 96.272363 
L 341.962616 93.898261 
L 342.775879 92.856586 
L 343.589142 93.722418 
L 344.402405 96.649166 
L 345.215668 100.103562 
L 346.028931 102.497244 
L 346.842193 103.708157 
L 347.655456 103.980819 
L 348.468719 103.501929 
L 349.281982 102.226898 
L 350.095245 100.053317 
L 350.908508 96.90987 
L 351.721771 92.849633 
L 352.535034 87.956778 
L 356.601348 60.740093 
L 357.414611 58.123674 
L 358.227874 57.718687 
L 359.041137 59.329451 
L 359.8544 62.591312 
L 360.667663 67.135872 
L 362.294188 78.535798 
L 364.733977 96.56546 
L 366.360503 107.024286 
L 367.173766 111.471545 
L 367.987029 115.212232 
L 368.800291 117.74541 
L 369.613554 118.484941 
L 370.426817 117.101582 
L 371.24008 114.293652 
L 372.866606 107.075977 
L 375.306395 94.90512 
L 376.119657 91.821473 
L 376.93292 89.895997 
L 377.746183 88.88899 
L 378.559446 88.413172 
L 379.372709 88.15751 
L 380.185972 88.115963 
L 380.999235 88.35874 
L 381.812498 88.910911 
L 383.439024 90.276433 
L 384.252286 90.739676 
L 386.692075 91.607888 
L 387.505338 91.457028 
L 388.318601 90.414607 
L 389.131864 88.149066 
L 389.945127 84.927178 
L 392.384915 73.777242 
L 393.198178 71.107878 
L 394.011441 69.678383 
L 394.824704 69.529617 
L 395.637967 70.6138 
L 396.45123 72.968374 
L 397.264493 76.971655 
L 398.077756 83.087178 
L 399.704281 99.617858 
L 400.517544 106.120384 
L 401.330807 110.898458 
L 402.14407 114.561626 
L 402.957333 117.564707 
L 403.770596 119.743599 
L 404.583859 120.779473 
L 405.397122 120.428275 
L 406.210384 118.745053 
L 407.023647 115.859628 
L 407.83691 111.958588 
L 411.089962 94.321271 
L 412.716488 86.67148 
L 414.343013 80.198077 
L 415.156276 77.76742 
L 415.969539 76.100838 
L 416.782802 75.378722 
L 417.596065 75.738692 
L 418.409328 77.147254 
L 419.222591 79.528141 
L 420.849116 85.603626 
L 421.662379 87.593693 
L 422.475642 88.72818 
L 423.288905 89.35527 
L 424.102168 89.753708 
L 424.915431 89.924473 
L 425.728694 89.799103 
L 426.541957 89.346305 
L 428.981745 87.350726 
L 429.795008 87.018815 
L 430.608271 87.152854 
L 431.421534 87.937393 
L 432.234797 89.561427 
L 433.04806 92.215061 
L 433.861323 95.943915 
L 435.487848 104.353471 
L 436.301111 107.836802 
L 437.927637 113.41436 
L 438.7409 115.900985 
L 439.554163 117.844948 
L 440.367426 118.73198 
L 441.180689 118.236267 
L 441.993952 116.785814 
L 443.620477 113.248505 
L 444.43374 110.966355 
L 445.247003 107.338875 
L 446.060266 101.845943 
L 449.313318 75.482118 
L 450.939843 63.854387 
L 451.753106 60.204663 
L 452.566369 60.077398 
L 453.379632 62.615995 
L 456.632684 77.865861 
L 459.072472 90.389484 
L 459.885735 93.929315 
L 460.698998 96.725056 
L 461.512261 98.550147 
L 462.325524 99.275471 
L 463.138787 99.161686 
L 463.95205 98.566895 
L 465.578575 96.931464 
L 467.205101 95.110676 
L 468.018364 94.533794 
L 468.831627 94.626832 
L 469.64489 95.644728 
L 470.458153 97.466564 
L 471.271416 99.877458 
L 474.524467 111.069218 
L 475.33773 113.025432 
L 476.150993 114.004742 
L 476.964256 113.765848 
L 477.777519 112.502424 
L 478.590782 110.516885 
L 479.404044 108.030252 
L 480.217307 104.937956 
L 481.03057 101.054034 
L 482.657096 90.944444 
L 486.72341 63.017363 
L 487.536673 59.434237 
L 488.349936 59.994671 
L 489.163199 63.571774 
L 490.789725 72.595853 
L 492.416251 81.077369 
L 494.856039 96.14675 
L 495.669302 100.030181 
L 497.295828 106.04506 
L 498.109091 108.744766 
L 498.109091 108.744766 
" clip-path="url(#pd470079e54)" style="fill: none; stroke-dasharray: 3.7,1.6; stroke-dashoffset: 0; stroke: #8b0000"/>
   </g>
   <g id="patch_3">
    <path d="M 72 143.28 
L 72 34.56 
" style="fill: none; stroke: #000000; stroke-width: 0.8; stroke-linejoin: miter; stroke-linecap: square"/>
   </g>
   <g id="patch_4">
    <path d="M 518.4 143.28 
L 518.4 34.56 
" style="fill: none; stroke: #000000; stroke-width: 0.8; stroke-linejoin: miter; stroke-linecap: square"/>
   </g>
   <g id="patch_5">
    <path d="M 72 143.28 
L 518.4 143.28 
" style="fill: none; stroke: #000000; stroke-width: 0.8; stroke-linejoin: miter; stroke-linecap: square"/>
   </g>
   <g id="patch_6">
    <path d="M 72 34.56 
L 518.4 34.56 
" style="fill: none; stroke: #000000; stroke-width: 0.8; stroke-linejoin: miter; stroke-linecap: square"/>
   </g>
   <g id="legend_1">
    <g id="patch_7">
     <path d="M 403.061945 81.196624 
L 509.3 81.196624 
Q 511.9 81.196624 511.9 78.596624 
L 511.9 43.66 
Q 511.9 41.06 509.3 41.06 
L 403.061945 41.06 
Q 400.461945 41.06 400.461945 43.66 
L 400.461945 78.596624 
Q 400.461945 81.196624 403.061945 81.196624 
z
" style="fill: #ffffff; opacity: 0.8; stroke: #cccccc; stroke-linejoin: miter"/>
    </g>
    <g id="line2d_6">
     <path d="M 405.661945 50.81 
L 418.661945 50.81 
L 431.661945 50.81 
" style="fill: none; stroke: #ff0000; stroke-linecap: square"/>
    </g>
    <g id="text_5">
     <!-- MCMC -->
     <g transform="translate(442.061945 55.36)scale(0.13 -0.13)">
      <defs>
       <path id="CMR17-4d" d="M 1338 4224 
C 1299 4320 1293 4320 1158 4320 
L 339 4320 
L 339 4160 
C 781 4160 851 4160 851 3875 
L 851 610 
C 851 451 851 153 339 153 
L 339 -13 
C 486 0 755 0 915 0 
C 1075 0 1344 0 1491 -13 
L 1491 153 
C 979 153 979 451 979 610 
L 979 4135 
L 986 4135 
L 2490 89 
C 2515 25 2528 -13 2579 -13 
C 2630 -13 2643 25 2669 89 
L 4186 4166 
L 4192 4166 
L 4192 438 
C 4192 153 4122 153 3680 153 
L 3680 -13 
C 3853 0 4198 0 4384 0 
C 4570 0 4922 0 5094 -13 
L 5094 153 
C 4653 153 4582 153 4582 438 
L 4582 3875 
C 4582 4160 4653 4160 5094 4160 
L 5094 4320 
L 4282 4320 
C 4147 4320 4141 4314 4102 4218 
L 2720 502 
L 1338 4224 
z
" transform="scale(0.015625)"/>
       <path id="CMR17-43" d="M 3974 4289 
C 3974 4403 3968 4410 3930 4410 
C 3904 4410 3898 4403 3853 4327 
L 3571 3792 
C 3258 4187 2874 4416 2381 4416 
C 1286 4416 294 3456 294 2148 
C 294 826 1286 -128 2387 -128 
C 3366 -128 3974 730 3974 1461 
C 3974 1524 3974 1550 3917 1550 
C 3866 1550 3866 1531 3859 1474 
C 3808 585 3168 38 2477 38 
C 1824 38 781 495 781 2147 
C 781 3805 1843 4250 2464 4250 
C 3187 4250 3712 3628 3834 2745 
C 3846 2668 3846 2655 3904 2655 
C 3974 2655 3974 2668 3974 2783 
L 3974 4289 
z
" transform="scale(0.015625)"/>
      </defs>
      <use xlink:href="#CMR17-4d" transform="scale(0.996264)"/>
      <use xlink:href="#CMR17-43" transform="translate(84.686941 0)scale(0.996264)"/>
      <use xlink:href="#CMR17-4d" transform="translate(151.196821 0)scale(0.996264)"/>
      <use xlink:href="#CMR17-43" transform="translate(235.883762 0)scale(0.996264)"/>
     </g>
    </g>
    <g id="line2d_7">
     <path d="M 405.661945 68.928312 
L 418.661945 68.928312 
L 431.661945 68.928312 
" style="fill: none; stroke-dasharray: 3.7,1.6; stroke-dashoffset: 0; stroke: #8b0000"/>
    </g>
    <g id="text_6">
     <!-- Experiment -->
     <g transform="translate(442.061945 73.478312)scale(0.13 -0.13)">
      <defs>
       <path id="CMR17-45" d="M 3885 1615 
L 3770 1615 
C 3629 676 3546 166 2419 166 
L 1530 166 
C 1274 166 1261 197 1261 414 
L 1261 2176 
L 1862 2176 
C 2464 2176 2522 1960 2522 1430 
L 2637 1430 
L 2637 3081 
L 2522 3081 
C 2522 2557 2464 2342 1862 2342 
L 1261 2342 
L 1261 3913 
C 1261 4128 1274 4160 1530 4160 
L 2406 4160 
C 3398 4160 3514 3769 3603 2929 
L 3718 2929 
L 3565 4325 
L 326 4325 
L 326 4160 
C 768 4160 838 4160 838 3874 
L 838 451 
C 838 166 768 166 326 166 
L 326 0 
L 3654 0 
L 3885 1615 
z
" transform="scale(0.015625)"/>
       <path id="CMR17-78" d="M 1664 1477 
C 1856 1726 2074 2006 2253 2216 
C 2464 2458 2707 2560 2989 2560 
L 2989 2726 
C 2880 2726 2656 2726 2541 2726 
C 2368 2726 2170 2726 2022 2732 
L 2022 2566 
C 2112 2553 2163 2489 2163 2400 
C 2163 2285 2099 2215 2067 2171 
L 1594 1573 
L 1030 2306 
C 973 2376 973 2388 973 2420 
C 973 2497 1037 2560 1146 2560 
L 1146 2732 
C 992 2726 717 2726 557 2726 
C 384 2726 179 2726 38 2732 
L 38 2560 
C 384 2560 461 2534 614 2343 
L 1350 1395 
C 1363 1382 1395 1344 1395 1325 
C 1395 1299 838 619 768 530 
C 480 185 179 160 6 160 
L 6 0 
C 115 0 339 0 454 0 
C 582 0 864 0 979 -6 
L 979 160 
C 941 166 838 179 838 325 
C 838 440 890 510 947 586 
L 1478 1236 
L 2035 512 
C 2086 442 2163 346 2163 301 
C 2163 211 2086 160 1984 160 
L 1984 -6 
C 2138 0 2413 0 2573 0 
C 2746 0 2950 0 3091 -6 
L 3091 160 
C 2771 160 2675 172 2522 370 
L 1664 1477 
z
" transform="scale(0.015625)"/>
       <path id="CMR17-72" d="M 960 1497 
C 960 2112 1222 2688 1702 2688 
C 1747 2688 1792 2682 1837 2662 
C 1837 2662 1696 2617 1696 2452 
C 1696 2298 1818 2234 1914 2234 
C 1990 2234 2131 2279 2131 2458 
C 2131 2663 1926 2790 1709 2790 
C 1222 2790 1011 2317 947 2093 
L 941 2093 
L 941 2790 
L 198 2720 
L 198 2554 
C 576 2554 634 2515 634 2208 
L 634 428 
C 634 184 608 153 198 153 
L 198 -13 
C 352 0 646 0 813 0 
C 998 0 1325 0 1498 -13 
L 1498 153 
C 1037 153 960 153 960 440 
L 960 1497 
z
" transform="scale(0.015625)"/>
      </defs>
      <use xlink:href="#CMR17-45" transform="scale(0.996264)"/>
      <use xlink:href="#CMR17-78" transform="translate(62.586301 0)scale(0.996264)"/>
      <use xlink:href="#CMR17-70" transform="translate(110.879216 0)scale(0.996264)"/>
      <use xlink:href="#CMR17-65" transform="translate(164.377025 0)scale(0.996264)"/>
      <use xlink:href="#CMR17-72" transform="translate(204.862685 0)scale(0.996264)"/>
      <use xlink:href="#CMR17-69" transform="translate(240.143453 0)scale(0.996264)"/>
      <use xlink:href="#CMR17-6d" transform="translate(265.014512 0)scale(0.996264)"/>
      <use xlink:href="#CMR17-65" transform="translate(341.934101 0)scale(0.996264)"/>
      <use xlink:href="#CMR17-6e" transform="translate(382.419762 0)scale(0.996264)"/>
      <use xlink:href="#CMR17-74" transform="translate(430.712678 0)scale(0.996264)"/>
     </g>
    </g>
   </g>
  </g>
  <g id="axes_2">
   <g id="patch_8">
    <path d="M 72 252 
L 518.4 252 
L 518.4 143.28 
L 72 143.28 
z
" style="fill: #ffffff"/>
   </g>
   <g id="matplotlib.axis_3">
    <g id="xtick_1">
     <g id="line2d_8">
      <defs>
       <path id="m23d1b6a965" d="M 0 0 
L 0 3.5 
" style="stroke: #000000; stroke-width: 0.8"/>
      </defs>
      <g>
       <use xlink:href="#m23d1b6a965" x="92.290909" y="252" style="stroke: #000000; stroke-width: 0.8"/>
      </g>
     </g>
     <g id="text_7">
      <!-- $\mathdefault{0}$ -->
      <g transform="translate(89.120539 267.994028)scale(0.13 -0.13)">
       <use xlink:href="#CMR17-30" transform="scale(0.996264)"/>
      </g>
     </g>
    </g>
    <g id="xtick_2">
     <g id="line2d_9">
      <g>
       <use xlink:href="#m23d1b6a965" x="173.617198" y="252" style="stroke: #000000; stroke-width: 0.8"/>
      </g>
     </g>
     <g id="text_8">
      <!-- $\mathdefault{1}$ -->
      <g transform="translate(170.446828 267.994028)scale(0.13 -0.13)">
       <defs>
        <path id="CMR17-31" d="M 1702 4058 
C 1702 4192 1696 4192 1606 4192 
C 1357 3916 979 3827 621 3827 
C 602 3827 570 3827 563 3808 
C 557 3795 557 3782 557 3648 
C 755 3648 1088 3686 1344 3839 
L 1344 461 
C 1344 236 1331 160 781 160 
L 589 160 
L 589 0 
C 896 0 1216 0 1523 0 
C 1830 0 2150 0 2458 0 
L 2458 160 
L 2266 160 
C 1715 160 1702 230 1702 458 
L 1702 4058 
z
" transform="scale(0.015625)"/>
       </defs>
       <use xlink:href="#CMR17-31" transform="scale(0.996264)"/>
      </g>
     </g>
    </g>
    <g id="xtick_3">
     <g id="line2d_10">
      <g>
       <use xlink:href="#m23d1b6a965" x="254.943487" y="252" style="stroke: #000000; stroke-width: 0.8"/>
      </g>
     </g>
     <g id="text_9">
      <!-- $\mathdefault{2}$ -->
      <g transform="translate(251.773117 267.994028)scale(0.13 -0.13)">
       <use xlink:href="#CMR17-32" transform="scale(0.996264)"/>
      </g>
     </g>
    </g>
    <g id="xtick_4">
     <g id="line2d_11">
      <g>
       <use xlink:href="#m23d1b6a965" x="336.269776" y="252" style="stroke: #000000; stroke-width: 0.8"/>
      </g>
     </g>
     <g id="text_10">
      <!-- $\mathdefault{3}$ -->
      <g transform="translate(333.099406 267.994028)scale(0.13 -0.13)">
       <defs>
        <path id="CMR17-33" d="M 1414 2157 
C 1984 2157 2234 1662 2234 1090 
C 2234 320 1824 25 1453 25 
C 1114 25 563 194 390 693 
C 422 680 454 680 486 680 
C 640 680 755 782 755 948 
C 755 1133 614 1216 486 1216 
C 378 1216 211 1165 211 926 
C 211 335 787 -128 1466 -128 
C 2176 -128 2720 430 2720 1085 
C 2720 1707 2208 2157 1600 2227 
C 2086 2328 2554 2756 2554 3329 
C 2554 3820 2048 4179 1472 4179 
C 890 4179 378 3829 378 3329 
C 378 3110 544 3072 627 3072 
C 762 3072 877 3155 877 3321 
C 877 3486 762 3569 627 3569 
C 602 3569 570 3569 544 3557 
C 730 3959 1235 4032 1459 4032 
C 1683 4032 2106 3925 2106 3320 
C 2106 3143 2080 2828 1862 2550 
C 1670 2304 1453 2304 1242 2284 
C 1210 2284 1062 2269 1037 2269 
C 992 2263 966 2257 966 2208 
C 966 2163 973 2157 1101 2157 
L 1414 2157 
z
" transform="scale(0.015625)"/>
       </defs>
       <use xlink:href="#CMR17-33" transform="scale(0.996264)"/>
      </g>
     </g>
    </g>
    <g id="xtick_5">
     <g id="line2d_12">
      <g>
       <use xlink:href="#m23d1b6a965" x="417.596065" y="252" style="stroke: #000000; stroke-width: 0.8"/>
      </g>
     </g>
     <g id="text_11">
      <!-- $\mathdefault{4}$ -->
      <g transform="translate(414.425695 267.994028)scale(0.13 -0.13)">
       <defs>
        <path id="CMR17-34" d="M 2150 4122 
C 2150 4256 2144 4256 2029 4256 
L 128 1254 
L 128 1088 
L 1779 1088 
L 1779 457 
C 1779 224 1766 160 1318 160 
L 1197 160 
L 1197 0 
C 1402 0 1747 0 1965 0 
C 2182 0 2528 0 2733 0 
L 2733 160 
L 2611 160 
C 2163 160 2150 224 2150 457 
L 2150 1088 
L 2803 1088 
L 2803 1254 
L 2150 1254 
L 2150 4122 
z
M 1798 3703 
L 1798 1254 
L 256 1254 
L 1798 3703 
z
" transform="scale(0.015625)"/>
       </defs>
       <use xlink:href="#CMR17-34" transform="scale(0.996264)"/>
      </g>
     </g>
    </g>
    <g id="xtick_6">
     <g id="line2d_13">
      <g>
       <use xlink:href="#m23d1b6a965" x="498.922354" y="252" style="stroke: #000000; stroke-width: 0.8"/>
      </g>
     </g>
     <g id="text_12">
      <!-- $\mathdefault{5}$ -->
      <g transform="translate(495.751984 267.994028)scale(0.13 -0.13)">
       <defs>
        <path id="CMR17-35" d="M 730 3692 
C 794 3666 1056 3584 1325 3584 
C 1920 3584 2246 3911 2432 4100 
C 2432 4157 2432 4192 2394 4192 
C 2387 4192 2374 4192 2323 4163 
C 2099 4058 1837 3973 1517 3973 
C 1325 3973 1037 3999 723 4139 
C 653 4171 640 4171 634 4171 
C 602 4171 595 4164 595 4037 
L 595 2203 
C 595 2089 595 2057 659 2057 
C 691 2057 704 2070 736 2114 
C 941 2401 1222 2522 1542 2522 
C 1766 2522 2246 2382 2246 1289 
C 2246 1085 2246 715 2054 421 
C 1894 159 1645 25 1370 25 
C 947 25 518 320 403 814 
C 429 807 480 795 506 795 
C 589 795 749 840 749 1038 
C 749 1210 627 1280 506 1280 
C 358 1280 262 1190 262 1011 
C 262 454 704 -128 1382 -128 
C 2042 -128 2669 440 2669 1264 
C 2669 2030 2170 2624 1549 2624 
C 1222 2624 947 2503 730 2274 
L 730 3692 
z
" transform="scale(0.015625)"/>
       </defs>
       <use xlink:href="#CMR17-35" transform="scale(0.996264)"/>
      </g>
     </g>
    </g>
    <g id="text_13">
     <!-- time (sec) -->
     <g transform="translate(267.68824 284.225914)scale(0.13 -0.13)">
      <use xlink:href="#CMR17-74" transform="scale(0.996264)"/>
      <use xlink:href="#CMR17-69" transform="translate(35.280768 0)scale(0.996264)"/>
      <use xlink:href="#CMR17-6d" transform="translate(60.151826 0)scale(0.996264)"/>
      <use xlink:href="#CMR17-65" transform="translate(137.071416 0)scale(0.996264)"/>
      <use xlink:href="#CMR17-28" transform="translate(207.633043 0)scale(0.996264)"/>
      <use xlink:href="#CMR17-73" transform="translate(242.913811 0)scale(0.996264)"/>
      <use xlink:href="#CMR17-65" transform="translate(278.715148 0)scale(0.996264)"/>
      <use xlink:href="#CMR17-63" transform="translate(319.200809 0)scale(0.996264)"/>
      <use xlink:href="#CMR17-29" transform="translate(359.686469 0)scale(0.996264)"/>
     </g>
    </g>
   </g>
   <g id="matplotlib.axis_4">
    <g id="ytick_4">
     <g id="line2d_14">
      <g>
       <use xlink:href="#m9df181560a" x="72" y="224.694483" style="stroke: #000000; stroke-width: 0.8"/>
      </g>
     </g>
     <g id="text_14">
      <!-- $\mathdefault{−0.025}$ -->
      <g transform="translate(26.041039 229.191497)scale(0.13 -0.13)">
       <use xlink:href="#CMSY10-0" transform="scale(0.996264)"/>
       <use xlink:href="#CMR17-30" transform="translate(77.487468 0)scale(0.996264)"/>
       <use xlink:href="#CMMI12-3a" transform="translate(123.177945 0)scale(0.996264)"/>
       <use xlink:href="#CMR17-30" transform="translate(150.275122 0)scale(0.996264)"/>
       <use xlink:href="#CMR17-32" transform="translate(195.965599 0)scale(0.996264)"/>
       <use xlink:href="#CMR17-35" transform="translate(241.656076 0)scale(0.996264)"/>
      </g>
     </g>
    </g>
    <g id="ytick_5">
     <g id="line2d_15">
      <g>
       <use xlink:href="#m9df181560a" x="72" y="190.761015" style="stroke: #000000; stroke-width: 0.8"/>
      </g>
     </g>
     <g id="text_15">
      <!-- $\mathdefault{0.000}$ -->
      <g transform="translate(36.114409 195.258029)scale(0.13 -0.13)">
       <use xlink:href="#CMR17-30" transform="scale(0.996264)"/>
       <use xlink:href="#CMMI12-3a" transform="translate(45.690477 0)scale(0.996264)"/>
       <use xlink:href="#CMR17-30" transform="translate(72.787654 0)scale(0.996264)"/>
       <use xlink:href="#CMR17-30" transform="translate(118.478131 0)scale(0.996264)"/>
       <use xlink:href="#CMR17-30" transform="translate(164.168608 0)scale(0.996264)"/>
      </g>
     </g>
    </g>
    <g id="ytick_6">
     <g id="line2d_16">
      <g>
       <use xlink:href="#m9df181560a" x="72" y="156.827548" style="stroke: #000000; stroke-width: 0.8"/>
      </g>
     </g>
     <g id="text_16">
      <!-- $\mathdefault{0.025}$ -->
      <g transform="translate(36.114409 161.324562)scale(0.13 -0.13)">
       <use xlink:href="#CMR17-30" transform="scale(0.996264)"/>
       <use xlink:href="#CMMI12-3a" transform="translate(45.690477 0)scale(0.996264)"/>
       <use xlink:href="#CMR17-30" transform="translate(72.787654 0)scale(0.996264)"/>
       <use xlink:href="#CMR17-32" transform="translate(118.478131 0)scale(0.996264)"/>
       <use xlink:href="#CMR17-35" transform="translate(164.168608 0)scale(0.996264)"/>
      </g>
     </g>
    </g>
    <g id="text_17">
     <!-- displacement (m) -->
     <g transform="translate(18.803181 245.759159)rotate(-90)scale(0.13 -0.13)">
      <use xlink:href="#CMR17-64" transform="scale(0.996264)"/>
      <use xlink:href="#CMR17-69" transform="translate(50.89537 0)scale(0.996264)"/>
      <use xlink:href="#CMR17-73" transform="translate(75.766428 0)scale(0.996264)"/>
      <use xlink:href="#CMR17-70" transform="translate(111.567766 0)scale(0.996264)"/>
      <use xlink:href="#CMR17-6c" transform="translate(162.463136 0)scale(0.996264)"/>
      <use xlink:href="#CMR17-61" transform="translate(187.334194 0)scale(0.996264)"/>
      <use xlink:href="#CMR17-63" transform="translate(233.024671 0)scale(0.996264)"/>
      <use xlink:href="#CMR17-65" transform="translate(273.510332 0)scale(0.996264)"/>
      <use xlink:href="#CMR17-6d" transform="translate(313.995992 0)scale(0.996264)"/>
      <use xlink:href="#CMR17-65" transform="translate(390.915582 0)scale(0.996264)"/>
      <use xlink:href="#CMR17-6e" transform="translate(431.401243 0)scale(0.996264)"/>
      <use xlink:href="#CMR17-74" transform="translate(479.694158 0)scale(0.996264)"/>
      <use xlink:href="#CMR17-28" transform="translate(545.050893 0)scale(0.996264)"/>
      <use xlink:href="#CMR17-6d" transform="translate(580.33166 0)scale(0.996264)"/>
      <use xlink:href="#CMR17-29" transform="translate(657.25125 0)scale(0.996264)"/>
     </g>
    </g>
   </g>
   <g id="line2d_17">
    <path d="M 92.290909 149.791291 
L 93.104172 150.951079 
L 93.917435 154.348718 
L 94.730698 159.745405 
L 95.543961 166.763851 
L 97.170486 183.648705 
L 98.797012 200.513414 
L 99.610275 207.566121 
L 100.423538 213.115345 
L 101.236801 216.874576 
L 102.050064 218.703399 
L 102.863327 218.614626 
L 103.67659 216.76897 
L 104.489852 213.45779 
L 105.303115 209.075448 
L 107.742904 194.209596 
L 108.556167 190.217086 
L 109.36943 187.319314 
L 110.182693 185.724717 
L 110.995956 185.507718 
L 111.809218 186.604075 
L 112.622481 188.818332 
L 114.249007 195.285503 
L 115.875533 201.661985 
L 116.688796 203.735636 
L 117.502059 204.587417 
L 118.315322 203.980894 
L 119.128584 201.808105 
L 119.941847 198.102589 
L 120.75511 193.040426 
L 122.381636 180.185091 
L 124.008162 166.810369 
L 124.821425 161.237337 
L 125.634688 157.060981 
L 126.44795 154.671674 
L 127.261213 154.33847 
L 128.074476 156.185052 
L 128.887739 160.177023 
L 129.701002 166.121662 
L 130.514265 173.680238 
L 132.140791 191.707686 
L 133.767316 209.761736 
L 134.580579 217.34321 
L 135.393842 223.301645 
L 136.207105 227.282349 
L 137.020368 229.075145 
L 137.833631 228.628604 
L 138.646894 226.051758 
L 139.460157 221.603236 
L 140.27342 215.66874 
L 144.339734 181.558881 
L 145.152997 177.245246 
L 145.96626 174.522226 
L 146.779523 173.456186 
L 147.592786 173.968654 
L 148.406048 175.847132 
L 149.219311 178.767062 
L 151.6591 189.546216 
L 152.472363 192.350658 
L 153.285626 194.143489 
L 154.098889 194.694932 
L 154.912152 193.902651 
L 155.725414 191.80167 
L 156.538677 188.562276 
L 158.165203 179.931293 
L 159.791729 171.296373 
L 160.604992 168.139838 
L 161.418255 166.309234 
L 162.231518 166.108742 
L 163.04478 167.718323 
L 163.858043 171.174615 
L 164.671306 176.363496 
L 165.484569 183.025011 
L 167.111095 199.109978 
L 168.737621 215.332408 
L 169.550884 222.084353 
L 170.364146 227.256412 
L 171.177409 230.463628 
L 171.990672 231.455633 
L 172.803935 230.136916 
L 173.617198 226.575047 
L 174.430461 220.996183 
L 175.243724 213.768204 
L 176.87025 196.368815 
L 178.496775 178.898088 
L 179.310038 171.542978 
L 180.123301 165.719515 
L 180.936564 161.738138 
L 181.749827 159.763331 
L 182.56309 159.80435 
L 183.376353 161.718479 
L 184.189616 165.226424 
L 185.002878 169.938509 
L 188.25593 191.246193 
L 189.069193 194.920412 
L 189.882456 197.289271 
L 190.695719 198.239773 
L 191.508982 197.798788 
L 192.322244 196.12809 
L 193.135507 193.507747 
L 195.575296 183.909031 
L 196.388559 181.574442 
L 197.201822 180.316018 
L 198.015085 180.395325 
L 198.828348 181.951254 
L 199.64161 184.984775 
L 200.454873 189.35548 
L 202.081399 200.903632 
L 203.707925 213.249762 
L 204.521188 218.454621 
L 205.334451 222.367144 
L 206.147714 224.592814 
L 206.960976 224.852071 
L 207.774239 223.005863 
L 208.587502 219.070169 
L 209.400765 213.218254 
L 210.214028 205.770339 
L 211.840554 187.95923 
L 213.46708 170.064671 
L 214.280343 162.543569 
L 215.093605 156.6441 
L 215.906868 152.734484 
L 216.720131 151.040505 
L 217.533394 151.62944 
L 218.346657 154.406399 
L 219.15992 159.123361 
L 219.973183 165.400103 
L 221.599709 180.645256 
L 223.226234 195.8025 
L 224.039497 202.059949 
L 224.85276 206.909394 
L 225.666023 210.109328 
L 226.479286 211.562465 
L 227.292549 211.319403 
L 228.105812 209.570001 
L 228.919075 206.623295 
L 230.5456 198.784264 
L 232.172126 191.374308 
L 232.985389 188.855398 
L 233.798652 187.513155 
L 234.611915 187.488364 
L 235.425178 188.785824 
L 236.238441 191.27388 
L 237.051703 194.695915 
L 239.491492 206.658701 
L 240.304755 209.710533 
L 241.118018 211.585428 
L 241.931281 211.965512 
L 242.744544 210.650264 
L 243.557807 207.577462 
L 244.371069 202.832766 
L 245.184332 196.647051 
L 246.810858 181.502073 
L 248.437384 166.071015 
L 249.250647 159.631615 
L 250.06391 154.715083 
L 250.877173 151.712577 
L 251.690435 150.885209 
L 252.503698 152.342175 
L 253.316961 156.030693 
L 254.130224 161.738584 
L 254.943487 169.109356 
L 256.570013 186.859544 
L 258.196539 204.752922 
L 259.009801 212.319539 
L 259.823064 218.330969 
L 260.636327 222.455522 
L 261.44959 224.506874 
L 262.262853 224.455401 
L 263.076116 222.426975 
L 263.889379 218.689408 
L 264.702642 213.627766 
L 267.955693 189.909118 
L 268.768956 185.492024 
L 269.582219 182.389555 
L 270.395482 180.752085 
L 271.208745 180.589031 
L 272.022008 181.77136 
L 272.835271 184.045944 
L 274.461796 190.396857 
L 275.275059 193.609963 
L 276.088322 196.268885 
L 276.901585 197.996703 
L 277.714848 198.505685 
L 278.528111 197.624785 
L 279.341374 195.317113 
L 280.154637 191.685838 
L 280.967899 186.967961 
L 284.220951 165.384738 
L 285.034214 161.716188 
L 285.847477 159.619784 
L 286.66074 159.385899 
L 287.474003 161.169883 
L 288.287265 164.975701 
L 289.100528 170.651659 
L 289.913791 177.898667 
L 291.540317 195.304275 
L 293.166843 212.861004 
L 293.980106 220.244826 
L 294.793369 226.020418 
L 295.606631 229.808299 
L 296.419894 231.368725 
L 297.233157 230.619549 
L 298.04642 227.64177 
L 298.859683 222.672357 
L 299.672946 216.084948 
L 301.299472 200.046897 
L 302.925997 183.938526 
L 303.73926 177.195479 
L 304.552523 171.889184 
L 305.365786 168.290418 
L 306.179049 166.525308 
L 306.992312 166.569399 
L 307.805575 168.254115 
L 308.618838 171.284958 
L 310.245363 179.755097 
L 311.871889 188.349362 
L 312.685152 191.611487 
L 313.498415 193.75362 
L 314.311678 194.59657 
L 315.124941 194.095699 
L 315.938204 192.343953 
L 316.751467 189.562847 
L 320.004518 175.694086 
L 320.817781 173.711469 
L 321.631044 173.081983 
L 322.444307 174.028028 
L 323.25757 176.639115 
L 324.070833 180.860103 
L 324.884095 186.491565 
L 326.510621 200.553286 
L 328.137147 215.085557 
L 328.95041 221.17815 
L 329.763673 225.820335 
L 330.576936 228.615944 
L 331.390199 229.293661 
L 332.203461 227.730443 
L 333.016724 223.963412 
L 333.829987 218.1892 
L 334.64325 210.750722 
L 336.269776 192.825813 
L 337.896302 174.698717 
L 338.709565 167.01149 
L 339.522827 160.896448 
L 340.33609 156.703863 
L 341.149353 154.639725 
L 341.962616 154.752419 
L 342.775879 156.931923 
L 343.589142 160.921509 
L 344.402405 166.340905 
L 348.468719 197.494184 
L 349.281982 201.278018 
L 350.095245 203.545607 
L 350.908508 204.252644 
L 351.721771 203.496641 
L 352.535034 201.504815 
L 353.348297 198.611066 
L 355.788085 188.746646 
L 356.601348 186.493157 
L 357.414611 185.343197 
L 358.227874 185.500925 
L 359.041137 187.040252 
L 359.8544 189.896477 
L 360.667663 193.869991 
L 362.294188 203.799528 
L 363.920714 213.369104 
L 364.733977 216.824225 
L 365.54724 218.835063 
L 366.360503 219.099907 
L 367.173766 217.446038 
L 367.987029 213.847901 
L 368.800291 208.433445 
L 369.613554 201.47799 
L 371.24008 184.662254 
L 372.866606 167.610044 
L 373.679869 160.43235 
L 374.493132 154.836233 
L 375.306395 151.210377 
L 376.119657 149.807052 
L 376.93292 150.722556 
L 377.746183 153.889782 
L 378.559446 159.083533 
L 379.372709 165.938134 
L 380.999235 182.644339 
L 382.625761 199.546182 
L 383.439024 206.690842 
L 384.252286 212.370315 
L 385.065549 216.287096 
L 385.878812 218.288416 
L 386.692075 218.37438 
L 387.505338 216.693641 
L 388.318601 213.527085 
L 389.131864 209.260966 
L 391.571652 194.53786 
L 392.384915 190.528526 
L 393.198178 187.591036 
L 394.011441 185.94254 
L 394.824704 185.667124 
L 395.637967 186.710237 
L 396.45123 188.885203 
L 397.264493 191.891231 
L 399.704281 201.813143 
L 400.517544 203.969041 
L 401.330807 204.917639 
L 402.14407 204.413379 
L 402.957333 202.337869 
L 403.770596 198.713827 
L 404.583859 193.707085 
L 406.210384 180.851828 
L 407.83691 167.302205 
L 408.650173 161.578358 
L 409.463436 157.217056 
L 410.276699 154.61858 
L 411.089962 154.064179 
L 411.903225 155.691152 
L 412.716488 159.479137 
L 413.52975 165.248819 
L 414.343013 172.673223 
L 415.969539 190.58828 
L 417.596065 208.758796 
L 418.409328 216.477832 
L 419.222591 222.616061 
L 420.035854 226.807239 
L 420.849116 228.827782 
L 421.662379 228.612005 
L 422.475642 226.25489 
L 423.288905 222.002247 
L 424.102168 216.229113 
L 425.728694 202.071109 
L 427.35522 188.010072 
L 428.168482 182.256991 
L 428.981745 177.854337 
L 429.795008 175.02227 
L 430.608271 173.838308 
L 431.421534 174.235015 
L 432.234797 176.009877 
L 433.04806 178.846421 
L 436.301111 192.364446 
L 437.114374 194.198137 
L 437.927637 194.800369 
L 438.7409 194.059456 
L 439.554163 192.00078 
L 440.367426 188.785634 
L 441.993952 180.121409 
L 443.620477 171.324345 
L 444.43374 168.042557 
L 445.247003 166.065667 
L 446.060266 165.70741 
L 446.873529 167.159071 
L 447.686792 170.469496 
L 448.500055 175.536665 
L 449.313318 182.111627 
L 450.939843 198.162016 
L 452.566369 214.558257 
L 453.379632 221.470505 
L 454.192895 226.842062 
L 455.006158 230.276865 
L 455.819421 231.511291 
L 456.632684 230.435363 
L 457.445946 227.102024 
L 458.259209 221.723711 
L 459.072472 214.656485 
L 460.698998 197.426315 
L 462.325524 179.902808 
L 463.138787 172.445086 
L 463.95205 166.478772 
L 464.765312 162.325449 
L 465.578575 160.162262 
L 466.391838 160.011649 
L 467.205101 161.743569 
L 468.018364 165.089933 
L 468.831627 169.669976 
L 472.084678 190.815476 
L 472.897941 194.530152 
L 473.711204 196.958185 
L 474.524467 197.97683 
L 475.33773 197.602949 
L 476.150993 195.988985 
L 476.964256 193.407225 
L 479.404044 183.774418 
L 480.217307 181.379581 
L 481.03057 180.044315 
L 481.843833 180.038522 
L 482.657096 181.51091 
L 483.470359 184.472868 
L 484.283622 188.794051 
L 485.910148 200.342267 
L 487.536673 212.850347 
L 488.349936 218.196043 
L 489.163199 222.282071 
L 489.976462 224.704655 
L 490.789725 225.17262 
L 491.602988 223.533773 
L 492.416251 219.790413 
L 493.229514 214.102615 
L 494.042776 206.778922 
L 495.669302 189.062709 
L 497.295828 171.036211 
L 498.109091 163.370047 
L 498.109091 163.370047 
" clip-path="url(#p5c0395b06b)" style="fill: none; stroke: #0000ff; stroke-linecap: square"/>
   </g>
   <g id="line2d_18">
    <path d="M 92.290909 149.791291 
L 93.104172 151.330365 
L 93.917435 155.254431 
L 94.730698 161.30928 
L 95.543961 169.240703 
L 96.357224 178.794493 
L 99.610275 222.474839 
L 100.423538 228.953993 
L 101.236801 232.901763 
L 102.050064 235.21831 
L 102.863327 236.547923 
L 103.67659 236.511411 
L 104.489852 234.473713 
L 105.303115 230.125023 
L 106.929641 218.473553 
L 107.742904 211.936401 
L 108.556167 204.294257 
L 110.182693 186.52026 
L 110.995956 179.451081 
L 111.809218 175.565126 
L 112.622481 174.968903 
L 113.435744 177.446098 
L 114.249007 182.54878 
L 115.875533 194.901473 
L 116.688796 199.241362 
L 117.502059 201.825585 
L 118.315322 202.859356 
L 119.128584 202.439578 
L 119.941847 200.229906 
L 120.75511 195.785682 
L 121.568373 188.969581 
L 123.194899 172.897074 
L 124.008162 166.200515 
L 124.821425 160.989179 
L 125.634688 157.229507 
L 126.44795 154.987043 
L 127.261213 154.723751 
L 128.074476 157.000699 
L 128.887739 161.970998 
L 130.514265 173.668818 
L 131.327528 177.459951 
L 132.140791 181.827466 
L 132.954054 189.906467 
L 135.393842 228.853111 
L 136.207105 235.950678 
L 137.020368 239.972874 
L 137.833631 241.594545 
L 138.646894 241.017356 
L 139.460157 238.324677 
L 140.27342 233.679161 
L 141.086682 227.560589 
L 142.713208 213.056325 
L 146.779523 175.06106 
L 147.592786 170.362329 
L 148.406048 167.75456 
L 149.219311 167.490988 
L 150.032574 169.648478 
L 150.845837 173.598423 
L 154.098889 193.055493 
L 154.912152 196.472326 
L 155.725414 198.8907 
L 156.538677 200.323072 
L 157.35194 200.664453 
L 158.165203 199.34007 
L 158.978466 195.657705 
L 161.418255 176.972453 
L 162.231518 173.510278 
L 163.04478 172.551922 
L 163.858043 174.286366 
L 164.671306 178.010429 
L 166.297832 187.899722 
L 167.924358 199.062686 
L 172.803935 236.319694 
L 173.617198 241.75879 
L 174.430461 245.773866 
L 175.243724 247.058182 
L 176.056987 244.568407 
L 176.87025 238.31485 
L 177.683512 228.571229 
L 180.123301 190.534721 
L 180.936564 181.855423 
L 181.749827 175.863594 
L 183.376353 167.492778 
L 184.189616 164.428755 
L 185.002878 162.682131 
L 185.816141 162.577387 
L 186.629404 163.747546 
L 187.442667 165.652763 
L 188.25593 167.989469 
L 189.069193 171.399177 
L 189.882456 176.759672 
L 192.322244 200.284291 
L 193.135507 204.778243 
L 193.94877 206.549233 
L 194.762033 206.105334 
L 196.388559 202.017806 
L 197.201822 200.917638 
L 198.015085 200.322939 
L 198.828348 199.310885 
L 200.454873 195.174931 
L 201.268136 194.098704 
L 202.081399 194.942294 
L 202.894662 197.194372 
L 205.334451 205.919628 
L 206.147714 210.150204 
L 208.587502 226.422756 
L 209.400765 228.898735 
L 210.214028 229.814853 
L 211.840554 230.819828 
L 212.653817 229.42393 
L 213.46708 223.49866 
L 215.093605 199.776258 
L 215.906868 191.883916 
L 217.533394 182.068805 
L 219.973183 160.653879 
L 220.786446 156.531523 
L 221.599709 154.750899 
L 222.412971 154.619539 
L 223.226234 155.736056 
L 224.039497 158.863383 
L 224.85276 165.055534 
L 225.666023 174.773222 
L 227.292549 196.541914 
L 228.105812 204.164917 
L 228.919075 209.385149 
L 229.732337 213.198399 
L 230.5456 216.327875 
L 231.358863 218.406474 
L 232.172126 218.794512 
L 232.985389 217.200595 
L 233.798652 214.726482 
L 234.611915 212.822222 
L 235.425178 212.414374 
L 236.238441 212.335532 
L 237.051703 210.894801 
L 238.678229 202.936918 
L 239.491492 200.438513 
L 240.304755 199.580884 
L 241.118018 199.780136 
L 241.931281 200.598787 
L 242.744544 202.184991 
L 243.557807 204.833314 
L 245.997595 215.622218 
L 246.810858 216.783993 
L 247.624121 215.875822 
L 248.437384 212.903662 
L 249.250647 207.987822 
L 250.877173 194.750227 
L 255.75675 152.982976 
L 256.570013 149.449688 
L 257.383276 148.221818 
L 258.196539 149.38409 
L 259.009801 153.031534 
L 259.823064 159.300418 
L 260.636327 168.086516 
L 263.076116 197.703407 
L 263.889379 205.610432 
L 264.702642 212.290921 
L 265.515905 217.739072 
L 266.329167 221.76544 
L 267.14243 224.13467 
L 267.955693 224.715964 
L 268.768956 223.796753 
L 269.582219 221.769023 
L 274.461796 205.430543 
L 276.088322 197.979369 
L 276.901585 195.871001 
L 277.714848 196.176976 
L 279.341374 199.659915 
L 280.154637 200.365896 
L 280.967899 200.663547 
L 281.781162 201.591214 
L 283.407688 205.777568 
L 284.220951 206.008382 
L 285.034214 203.324811 
L 286.66074 195.492266 
L 287.474003 191.735041 
L 288.287265 187.191789 
L 290.727054 170.054419 
L 291.540317 166.640566 
L 292.35358 164.678391 
L 293.166843 163.4849 
L 293.980106 162.617702 
L 294.793369 162.596839 
L 295.606631 164.18296 
L 296.419894 167.888714 
L 297.233157 173.234756 
L 298.859683 186.134853 
L 299.672946 193.413406 
L 301.299472 211.290825 
L 302.112735 220.397122 
L 302.925997 227.155719 
L 303.73926 230.178034 
L 304.552523 230.298812 
L 305.365786 228.908624 
L 306.179049 227.103366 
L 306.992312 224.800211 
L 307.805575 221.621655 
L 308.618838 217.302462 
L 310.245363 206.089822 
L 311.871889 193.877652 
L 312.685152 188.730993 
L 313.498415 184.575621 
L 314.311678 181.487089 
L 315.124941 179.569796 
L 315.938204 179.043524 
L 316.751467 180.156897 
L 317.564729 182.958439 
L 319.191255 190.418377 
L 320.004518 193.304903 
L 320.817781 195.064386 
L 321.631044 195.537483 
L 322.444307 194.634818 
L 323.25757 192.546891 
L 324.070833 189.534168 
L 325.697358 182.472219 
L 326.510621 179.900942 
L 327.323884 178.814118 
L 328.137147 179.000998 
L 328.95041 180.052188 
L 329.763673 181.645374 
L 330.576936 183.806566 
L 331.390199 186.648854 
L 332.203461 190.250845 
L 333.016724 194.553208 
L 334.64325 204.841724 
L 336.269776 215.754074 
L 337.896302 224.950381 
L 338.709565 228.621644 
L 339.522827 231.539953 
L 340.33609 233.342518 
L 341.149353 233.605016 
L 341.962616 231.860725 
L 342.775879 227.47331 
L 343.589142 219.76404 
L 345.215668 197.941912 
L 346.028931 190.220823 
L 346.842193 185.296854 
L 347.655456 181.909803 
L 349.281982 176.483053 
L 350.095245 174.366878 
L 350.908508 172.736721 
L 351.721771 171.619204 
L 352.535034 171.031703 
L 353.348297 171.082894 
L 354.161559 172.246666 
L 354.974822 175.088206 
L 355.788085 179.873189 
L 357.414611 191.244415 
L 358.227874 195.646423 
L 359.041137 199.041212 
L 360.667663 204.369291 
L 361.480925 205.86178 
L 362.294188 205.465446 
L 363.107451 202.727493 
L 363.920714 198.929274 
L 364.733977 195.785682 
L 365.54724 194.558592 
L 366.360503 194.6978 
L 367.173766 195.200088 
L 367.987029 195.477132 
L 368.800291 196.600206 
L 369.613554 200.055482 
L 371.24008 213.287595 
L 372.053343 217.720013 
L 372.866606 220.247133 
L 375.306395 225.893264 
L 376.119657 226.391731 
L 376.93292 225.008794 
L 377.746183 222.070402 
L 378.559446 218.146868 
L 379.372709 213.672154 
L 380.185972 208.534816 
L 380.999235 202.487057 
L 382.625761 188.683292 
L 383.439024 183.201214 
L 384.252286 179.927583 
L 385.878812 176.197346 
L 388.318601 168.181292 
L 389.131864 167.021077 
L 389.945127 167.293193 
L 390.75839 169.034476 
L 391.571652 172.293537 
L 392.384915 177.166099 
L 393.198178 183.759662 
L 395.637967 208.110318 
L 396.45123 213.509637 
L 397.264493 216.342226 
L 398.077756 216.444377 
L 398.891018 213.980258 
L 400.517544 207.207276 
L 402.14407 201.087059 
L 403.770596 194.261507 
L 404.583859 192.310895 
L 405.397122 192.368299 
L 406.210384 194.062201 
L 407.023647 196.751332 
L 410.276699 209.370021 
L 411.089962 211.571559 
L 411.903225 212.45768 
L 412.716488 211.651893 
L 413.52975 209.459773 
L 414.343013 206.357412 
L 415.969539 198.743222 
L 417.596065 189.62578 
L 418.409328 184.130167 
L 419.222591 177.473244 
L 420.849116 162.887671 
L 421.662379 158.907895 
L 422.475642 157.43927 
L 423.288905 157.570781 
L 424.102168 158.648768 
L 424.915431 161.048991 
L 425.728694 165.404564 
L 426.541957 172.057299 
L 429.795008 203.603968 
L 430.608271 209.673196 
L 431.421534 214.664869 
L 432.234797 218.451274 
L 433.04806 220.900326 
L 433.861323 221.978065 
L 434.674586 222.043021 
L 435.487848 221.551849 
L 436.301111 220.805338 
L 437.114374 219.480824 
L 437.927637 217.099778 
L 438.7409 213.408521 
L 440.367426 204.90312 
L 441.180689 201.686258 
L 441.993952 199.553426 
L 442.807214 198.511994 
L 443.620477 198.51203 
L 444.43374 199.274403 
L 446.873529 202.787733 
L 447.686792 203.274314 
L 448.500055 202.912872 
L 449.313318 201.552804 
L 450.12658 199.078198 
L 450.939843 195.442912 
L 452.566369 185.768288 
L 453.379632 180.793412 
L 454.192895 176.717013 
L 455.006158 174.081247 
L 455.819421 172.549834 
L 457.445946 170.680958 
L 459.072472 169.17021 
L 459.885735 168.742377 
L 460.698998 168.922292 
L 461.512261 170.112591 
L 462.325524 172.738427 
L 463.138787 177.315034 
L 463.95205 184.380159 
L 465.578575 205.064562 
L 466.391838 215.548534 
L 467.205101 224.017989 
L 468.018364 229.895754 
L 468.831627 232.841029 
L 469.64489 232.712432 
L 470.458153 230.166257 
L 471.271416 226.058213 
L 472.897941 215.593224 
L 475.33773 197.433967 
L 476.150993 192.613388 
L 476.964256 189.363182 
L 477.777519 187.271995 
L 479.404044 184.181048 
L 480.217307 182.886621 
L 481.03057 182.16188 
L 481.843833 182.227434 
L 483.470359 183.538609 
L 484.283622 184.192953 
L 485.096885 185.32527 
L 485.910148 187.668797 
L 486.72341 191.405676 
L 487.536673 194.513662 
L 488.349936 195.069827 
L 489.163199 193.752908 
L 489.976462 191.892059 
L 490.789725 190.602091 
L 491.602988 190.140448 
L 492.416251 190.550233 
L 494.856039 194.001751 
L 495.669302 193.794644 
L 496.482565 192.680508 
L 498.109091 189.215722 
L 498.109091 189.215722 
" clip-path="url(#p5c0395b06b)" style="fill: none; stroke-dasharray: 3.7,1.6; stroke-dashoffset: 0; stroke: #00008b"/>
   </g>
   <g id="patch_9">
    <path d="M 72 252 
L 72 143.28 
" style="fill: none; stroke: #000000; stroke-width: 0.8; stroke-linejoin: miter; stroke-linecap: square"/>
   </g>
   <g id="patch_10">
    <path d="M 518.4 252 
L 518.4 143.28 
" style="fill: none; stroke: #000000; stroke-width: 0.8; stroke-linejoin: miter; stroke-linecap: square"/>
   </g>
   <g id="patch_11">
    <path d="M 72 252 
L 518.4 252 
" style="fill: none; stroke: #000000; stroke-width: 0.8; stroke-linejoin: miter; stroke-linecap: square"/>
   </g>
   <g id="patch_12">
    <path d="M 72 143.28 
L 518.4 143.28 
" style="fill: none; stroke: #000000; stroke-width: 0.8; stroke-linejoin: miter; stroke-linecap: square"/>
   </g>
   <g id="legend_2">
    <g id="patch_13">
     <path d="M 403.061945 189.916624 
L 509.3 189.916624 
Q 511.9 189.916624 511.9 187.316624 
L 511.9 152.38 
Q 511.9 149.78 509.3 149.78 
L 403.061945 149.78 
Q 400.461945 149.78 400.461945 152.38 
L 400.461945 187.316624 
Q 400.461945 189.916624 403.061945 189.916624 
z
" style="fill: #ffffff; opacity: 0.8; stroke: #cccccc; stroke-linejoin: miter"/>
    </g>
    <g id="line2d_19">
     <path d="M 405.661945 159.53 
L 418.661945 159.53 
L 431.661945 159.53 
" style="fill: none; stroke: #0000ff; stroke-linecap: square"/>
    </g>
    <g id="text_18">
     <!-- MCMC -->
     <g transform="translate(442.061945 164.08)scale(0.13 -0.13)">
      <use xlink:href="#CMR17-4d" transform="scale(0.996264)"/>
      <use xlink:href="#CMR17-43" transform="translate(84.686941 0)scale(0.996264)"/>
      <use xlink:href="#CMR17-4d" transform="translate(151.196821 0)scale(0.996264)"/>
      <use xlink:href="#CMR17-43" transform="translate(235.883762 0)scale(0.996264)"/>
     </g>
    </g>
    <g id="line2d_20">
     <path d="M 405.661945 177.648312 
L 418.661945 177.648312 
L 431.661945 177.648312 
" style="fill: none; stroke-dasharray: 3.7,1.6; stroke-dashoffset: 0; stroke: #00008b"/>
    </g>
    <g id="text_19">
     <!-- Experiment -->
     <g transform="translate(442.061945 182.198312)scale(0.13 -0.13)">
      <use xlink:href="#CMR17-45" transform="scale(0.996264)"/>
      <use xlink:href="#CMR17-78" transform="translate(62.586301 0)scale(0.996264)"/>
      <use xlink:href="#CMR17-70" transform="translate(110.879216 0)scale(0.996264)"/>
      <use xlink:href="#CMR17-65" transform="translate(164.377025 0)scale(0.996264)"/>
      <use xlink:href="#CMR17-72" transform="translate(204.862685 0)scale(0.996264)"/>
      <use xlink:href="#CMR17-69" transform="translate(240.143453 0)scale(0.996264)"/>
      <use xlink:href="#CMR17-6d" transform="translate(265.014512 0)scale(0.996264)"/>
      <use xlink:href="#CMR17-65" transform="translate(341.934101 0)scale(0.996264)"/>
      <use xlink:href="#CMR17-6e" transform="translate(382.419762 0)scale(0.996264)"/>
      <use xlink:href="#CMR17-74" transform="translate(430.712678 0)scale(0.996264)"/>
     </g>
    </g>
   </g>
  </g>
 </g>
 <defs>
  <clipPath id="pd470079e54">
   <rect x="72" y="34.56" width="446.4" height="108.72"/>
  </clipPath>
  <clipPath id="p5c0395b06b">
   <rect x="72" y="143.28" width="446.4" height="108.72"/>
  </clipPath>
 </defs>
</svg>
