<?xml version="1.0" encoding="utf-8" standalone="no"?>
<!DOCTYPE svg PUBLIC "-//W3C//DTD SVG 1.1//EN"
  "http://www.w3.org/Graphics/SVG/1.1/DTD/svg11.dtd">
<svg xmlns:xlink="http://www.w3.org/1999/xlink" width="864pt" height="360pt" viewBox="0 0 864 360" xmlns="http://www.w3.org/2000/svg" version="1.1">
 <metadata>
  <rdf:RDF xmlns:dc="http://purl.org/dc/elements/1.1/" xmlns:cc="http://creativecommons.org/ns#" xmlns:rdf="http://www.w3.org/1999/02/22-rdf-syntax-ns#">
   <cc:Work>
    <dc:type rdf:resource="http://purl.org/dc/dcmitype/StillImage"/>
    <dc:date>2023-07-26T17:12:32.006309</dc:date>
    <dc:format>image/svg+xml</dc:format>
    <dc:creator>
     <cc:Agent>
      <dc:title>Matplotlib v3.7.1, https://matplotlib.org/</dc:title>
     </cc:Agent>
    </dc:creator>
   </cc:Work>
  </rdf:RDF>
 </metadata>
 <defs>
  <style type="text/css">*{stroke-linejoin: round; stroke-linecap: butt}</style>
 </defs>
 <g id="figure_1">
  <g id="patch_1">
   <path d="M 0 360 
L 864 360 
L 864 0 
L 0 0 
z
" style="fill: #ffffff"/>
  </g>
  <g id="axes_1">
   <g id="patch_2">
    <path d="M 108 181.8 
L 777.6 181.8 
L 777.6 43.2 
L 108 43.2 
z
" style="fill: #ffffff"/>
   </g>
   <g id="matplotlib.axis_1"/>
   <g id="matplotlib.axis_2">
    <g id="ytick_1">
     <g id="line2d_1">
      <defs>
       <path id="m93de1755a5" d="M 0 0 
L -3.5 0 
" style="stroke: #000000; stroke-width: 0.8"/>
      </defs>
      <g>
       <use xlink:href="#m93de1755a5" x="108" y="175.567928" style="stroke: #000000; stroke-width: 0.8"/>
      </g>
     </g>
     <g id="text_1">
      <!-- $\mathdefault{0}$ -->
      <g transform="translate(94.659261 180.064942) scale(0.13 -0.13)">
       <defs>
        <path id="CMR17-30" d="M 2688 2025 
C 2688 2416 2682 3080 2413 3591 
C 2176 4039 1798 4198 1466 4198 
C 1158 4198 768 4058 525 3597 
C 269 3118 243 2524 243 2025 
C 243 1661 250 1106 448 619 
C 723 -39 1216 -128 1466 -128 
C 1760 -128 2208 -7 2470 600 
C 2662 1042 2688 1559 2688 2025 
z
M 1466 -26 
C 1056 -26 813 325 723 812 
C 653 1188 653 1738 653 2096 
C 653 2588 653 2997 736 3387 
C 858 3929 1216 4096 1466 4096 
C 1728 4096 2067 3923 2189 3400 
C 2272 3036 2278 2607 2278 2096 
C 2278 1680 2278 1169 2202 792 
C 2067 95 1690 -26 1466 -26 
z
" transform="scale(0.015625)"/>
       </defs>
       <use xlink:href="#CMR17-30" transform="scale(0.996264)"/>
      </g>
     </g>
    </g>
    <g id="ytick_2">
     <g id="line2d_2">
      <g>
       <use xlink:href="#m93de1755a5" x="108" y="131.375801" style="stroke: #000000; stroke-width: 0.8"/>
      </g>
     </g>
     <g id="text_2">
      <!-- $\mathdefault{10}$ -->
      <g transform="translate(88.318521 135.872815) scale(0.13 -0.13)">
       <defs>
        <path id="CMR17-31" d="M 1702 4058 
C 1702 4192 1696 4192 1606 4192 
C 1357 3916 979 3827 621 3827 
C 602 3827 570 3827 563 3808 
C 557 3795 557 3782 557 3648 
C 755 3648 1088 3686 1344 3839 
L 1344 461 
C 1344 236 1331 160 781 160 
L 589 160 
L 589 0 
C 896 0 1216 0 1523 0 
C 1830 0 2150 0 2458 0 
L 2458 160 
L 2266 160 
C 1715 160 1702 230 1702 458 
L 1702 4058 
z
" transform="scale(0.015625)"/>
       </defs>
       <use xlink:href="#CMR17-31" transform="scale(0.996264)"/>
       <use xlink:href="#CMR17-30" transform="translate(45.690477 0) scale(0.996264)"/>
      </g>
     </g>
    </g>
    <g id="ytick_3">
     <g id="line2d_3">
      <g>
       <use xlink:href="#m93de1755a5" x="108" y="87.183673" style="stroke: #000000; stroke-width: 0.8"/>
      </g>
     </g>
     <g id="text_3">
      <!-- $\mathdefault{20}$ -->
      <g transform="translate(88.318521 91.680687) scale(0.13 -0.13)">
       <defs>
        <path id="CMR17-32" d="M 2669 989 
L 2554 989 
C 2490 536 2438 459 2413 420 
C 2381 369 1920 369 1830 369 
L 602 369 
C 832 619 1280 1072 1824 1597 
C 2214 1967 2669 2402 2669 3035 
C 2669 3790 2067 4224 1395 4224 
C 691 4224 262 3604 262 3030 
C 262 2780 448 2748 525 2748 
C 589 2748 781 2787 781 3010 
C 781 3207 614 3264 525 3264 
C 486 3264 448 3258 422 3245 
C 544 3790 915 4058 1306 4058 
C 1862 4058 2227 3617 2227 3035 
C 2227 2479 1901 2000 1536 1584 
L 262 146 
L 262 0 
L 2515 0 
L 2669 989 
z
" transform="scale(0.015625)"/>
       </defs>
       <use xlink:href="#CMR17-32" transform="scale(0.996264)"/>
       <use xlink:href="#CMR17-30" transform="translate(45.690477 0) scale(0.996264)"/>
      </g>
     </g>
    </g>
    <g id="text_4">
     <!-- Amplitude -->
     <g transform="translate(81.800209 141.91174) rotate(-90) scale(0.13 -0.13)">
      <defs>
       <path id="CMR17-41" d="M 2323 4378 
C 2291 4461 2278 4480 2214 4480 
C 2150 4480 2138 4461 2106 4378 
L 749 566 
C 627 223 371 153 147 153 
L 147 -13 
C 262 0 518 0 640 0 
C 800 0 1056 0 1210 -13 
L 1210 153 
C 909 153 864 361 864 439 
C 864 497 877 530 890 569 
L 1229 1536 
L 2906 1536 
L 3290 442 
C 3322 365 3322 352 3322 327 
C 3322 153 3046 153 2925 153 
L 2925 0 
C 3110 0 3443 0 3642 0 
C 3808 0 4128 0 4282 -13 
L 4282 153 
C 3942 153 3827 153 3744 387 
L 2323 4378 
z
M 2067 3893 
L 2848 1702 
L 1286 1702 
L 2067 3893 
z
" transform="scale(0.015625)"/>
       <path id="CMR17-6d" d="M 4326 1933 
C 4326 2252 4269 2790 3507 2790 
C 3072 2790 2771 2496 2656 2151 
L 2650 2151 
C 2573 2676 2195 2790 1837 2790 
C 1331 2790 1069 2400 973 2144 
L 966 2144 
L 966 2790 
L 211 2720 
L 211 2554 
C 589 2554 646 2515 646 2208 
L 646 428 
C 646 184 621 153 211 153 
L 211 -13 
C 365 0 646 0 813 0 
C 979 0 1267 0 1421 -13 
L 1421 153 
C 1011 153 986 178 986 428 
L 986 1658 
C 986 2247 1344 2688 1792 2688 
C 2266 2688 2317 2266 2317 1958 
L 2317 428 
C 2317 184 2291 153 1882 153 
L 1882 -13 
C 2035 0 2317 0 2483 0 
C 2650 0 2938 0 3091 -13 
L 3091 153 
C 2682 153 2656 178 2656 428 
L 2656 1658 
C 2656 2247 3014 2688 3462 2688 
C 3936 2688 3987 2266 3987 1958 
L 3987 428 
C 3987 184 3962 153 3552 153 
L 3552 -13 
C 3706 0 3987 0 4154 0 
C 4320 0 4608 0 4762 -13 
L 4762 153 
C 4352 153 4326 178 4326 428 
L 4326 1933 
z
" transform="scale(0.015625)"/>
       <path id="CMR17-70" d="M 1408 -1063 
C 998 -1063 973 -1037 973 -789 
L 973 402 
C 1158 134 1427 -38 1766 -38 
C 2406 -38 3053 523 3053 1388 
C 3053 2191 2496 2802 1837 2802 
C 1453 2802 1139 2592 960 2338 
L 960 2802 
L 198 2732 
L 198 2567 
C 576 2567 634 2528 634 2223 
L 634 -789 
C 634 -1031 608 -1063 198 -1063 
L 198 -1228 
C 352 -1216 634 -1216 800 -1216 
C 966 -1216 1254 -1216 1408 -1228 
L 1408 -1063 
z
M 973 2012 
C 973 2102 973 2235 1222 2471 
C 1254 2497 1472 2688 1792 2688 
C 2259 2688 2643 2108 2643 1382 
C 2643 656 2234 64 1728 64 
C 1498 64 1248 172 1056 472 
C 973 612 973 650 973 752 
L 973 2012 
z
" transform="scale(0.015625)"/>
       <path id="CMR17-6c" d="M 979 4396 
L 218 4326 
L 218 4160 
C 595 4160 653 4122 653 3817 
L 653 426 
C 653 184 627 153 218 153 
L 218 -13 
C 371 0 653 0 813 0 
C 979 0 1261 0 1414 -13 
L 1414 153 
C 1005 153 979 178 979 426 
L 979 4396 
z
" transform="scale(0.015625)"/>
       <path id="CMR17-69" d="M 992 3909 
C 992 4049 877 4170 730 4170 
C 589 4170 467 4056 467 3909 
C 467 3769 582 3648 730 3648 
C 870 3648 992 3763 992 3909 
z
M 243 2706 
L 243 2541 
C 602 2541 653 2502 653 2197 
L 653 427 
C 653 184 627 153 218 153 
L 218 -13 
C 371 0 646 0 806 0 
C 960 0 1222 0 1370 -13 
L 1370 153 
C 992 153 979 191 979 420 
L 979 2776 
L 243 2706 
z
" transform="scale(0.015625)"/>
       <path id="CMR17-74" d="M 966 2560 
L 1862 2560 
L 1862 2725 
L 966 2725 
L 966 3904 
L 851 3904 
C 838 3245 614 2668 70 2668 
L 70 2560 
L 627 2560 
L 627 771 
C 627 650 627 -64 1370 -64 
C 1747 -64 1965 306 1965 777 
L 1965 1140 
L 1850 1140 
L 1850 783 
C 1850 344 1677 51 1408 51 
C 1222 51 966 178 966 758 
L 966 2560 
z
" transform="scale(0.015625)"/>
       <path id="CMR17-75" d="M 1882 2693 
L 1882 2528 
C 2259 2528 2317 2489 2317 2186 
L 2317 1032 
C 2317 500 2029 38 1555 38 
C 1030 38 986 348 986 678 
L 986 2763 
L 211 2693 
L 211 2528 
C 467 2528 640 2528 646 2274 
L 646 1058 
C 646 633 646 361 813 183 
C 896 101 1056 -64 1517 -64 
C 2061 -64 2272 377 2323 506 
L 2330 506 
L 2330 -63 
L 3091 -63 
L 3091 128 
C 2714 128 2656 166 2656 473 
L 2656 2763 
L 1882 2693 
z
" transform="scale(0.015625)"/>
       <path id="CMR17-64" d="M 1869 4326 
L 1869 4160 
C 2246 4160 2304 4122 2304 3820 
L 2304 2345 
C 2278 2377 2016 2790 1498 2790 
C 845 2790 211 2208 211 1364 
C 211 525 806 -64 1434 -64 
C 1978 -64 2259 337 2291 380 
L 2291 -63 
L 3066 -63 
L 3066 128 
C 2688 128 2630 166 2630 473 
L 2630 4396 
L 1869 4326 
z
M 2291 755 
C 2291 563 2176 390 2029 262 
C 1811 70 1594 38 1472 38 
C 1286 38 621 134 621 1356 
C 621 2612 1363 2688 1530 2688 
C 1824 2688 2061 2522 2208 2291 
C 2291 2157 2291 2138 2291 2023 
L 2291 755 
z
" transform="scale(0.015625)"/>
       <path id="CMR17-65" d="M 2438 1472 
C 2464 1498 2464 1511 2464 1576 
C 2464 2238 2118 2816 1389 2816 
C 710 2816 173 2169 173 1383 
C 173 551 781 -64 1459 -64 
C 2176 -64 2458 607 2458 740 
C 2458 784 2419 784 2406 784 
C 2362 784 2355 771 2330 696 
C 2189 265 1837 51 1504 51 
C 1229 51 954 203 781 480 
C 582 803 582 1176 582 1472 
L 2438 1472 
z
M 589 1568 
C 634 2505 1126 2714 1382 2714 
C 1818 2714 2112 2297 2118 1568 
L 589 1568 
z
" transform="scale(0.015625)"/>
      </defs>
      <use xlink:href="#CMR17-41" transform="scale(0.996264)"/>
      <use xlink:href="#CMR17-6d" transform="translate(69.07243 0) scale(0.996264)"/>
      <use xlink:href="#CMR17-70" transform="translate(145.99202 0) scale(0.996264)"/>
      <use xlink:href="#CMR17-6c" transform="translate(196.887389 0) scale(0.996264)"/>
      <use xlink:href="#CMR17-69" transform="translate(221.758448 0) scale(0.996264)"/>
      <use xlink:href="#CMR17-74" transform="translate(246.629506 0) scale(0.996264)"/>
      <use xlink:href="#CMR17-75" transform="translate(281.910274 0) scale(0.996264)"/>
      <use xlink:href="#CMR17-64" transform="translate(332.805644 0) scale(0.996264)"/>
      <use xlink:href="#CMR17-65" transform="translate(383.701014 0) scale(0.996264)"/>
     </g>
    </g>
   </g>
   <g id="line2d_4">
    <path d="M 108 173.764284 
L 115.37408 173.659606 
L 121.407419 173.376201 
L 126.100015 172.938102 
L 129.45187 172.396719 
L 131.462982 171.901023 
L 133.474095 171.174984 
L 134.814837 170.475144 
L 136.155579 169.476756 
L 136.82595 168.80035 
L 137.496321 167.943364 
L 138.166692 166.823263 
L 138.837063 165.298112 
L 139.507434 163.10142 
L 140.177804 159.667119 
L 140.848175 153.544046 
L 141.518546 139.555933 
L 142.188917 75.437684 
L 142.859288 49.5 
L 143.529659 137.080069 
L 144.20003 152.921068 
L 144.870401 159.554531 
L 145.540772 163.199389 
L 146.211143 165.503292 
L 146.881514 167.09078 
L 147.551885 168.250697 
L 148.222256 169.135019 
L 149.562997 170.393693 
L 150.903739 171.245778 
L 152.244481 171.860309 
L 154.255594 172.515635 
L 156.937078 173.101099 
L 160.288932 173.580345 
L 164.981529 174.006158 
L 171.685238 174.370842 
L 181.740802 174.676481 
L 197.829704 174.919997 
L 213.248235 174.96391 
L 215.929719 174.79194 
L 216.60009 174.598184 
L 217.270461 173.821646 
L 217.940832 172.101395 
L 218.611203 174.964509 
L 219.281574 175.197948 
L 221.292687 175.220715 
L 232.688992 175.20515 
L 365.422436 175.393879 
L 655.693047 175.461977 
L 716.696801 175.463355 
L -1 175.463355 
M -1 174.13494 
L -0.60009 174.598184 
L 0.740652 174.875612 
L 3.422135 174.974918 
L 12.807328 174.964922 
L 32.248085 174.718768 
L 44.314762 174.370842 
L 51.688842 173.956867 
L 56.381439 173.499862 
L 59.733293 172.976534 
L 62.414777 172.324065 
L 64.42589 171.576103 
L 65.766632 170.857224 
L 67.107373 169.831339 
L 67.777744 169.135019 
L 68.448115 168.250697 
L 69.118486 167.09078 
L 69.788857 165.503292 
L 70.459228 163.199389 
L 71.129599 159.554531 
L 71.79997 152.921068 
L 72.470341 137.080069 
L 73.140712 49.5 
L 73.811083 75.437684 
L 74.481454 139.555933 
L 75.151825 153.544046 
L 75.822196 159.667119 
L 76.492566 163.10142 
L 77.162937 165.298112 
L 77.833308 166.823263 
L 78.503679 167.943364 
L 79.17405 168.80035 
L 80.514792 170.023847 
L 81.855534 170.853489 
L 83.196276 171.451306 
L 85.207388 172.086069 
L 87.888872 172.646268 
L 91.240727 173.091763 
L 95.933323 173.460022 
L 101.966662 173.695279 
L 107.329629 173.763457 
L 107.329629 173.763457 
" clip-path="url(#pee9dadc92c)" style="fill: none; stroke: #ff0000; stroke-linecap: square"/>
   </g>
   <g id="line2d_5">
    <path d="M 108 161.492793 
L 108.670371 172.443699 
L 109.340742 173.256638 
L 110.011113 174.307304 
L 110.681484 174.13957 
L 111.351855 175.059694 
L 112.022226 173.764336 
L 112.692596 174.94392 
L 113.362967 175.159573 
L 114.033338 175.106312 
L 114.703709 174.823718 
L 115.37408 174.375302 
L 116.044451 174.557348 
L 116.714822 173.517 
L 117.385193 173.61932 
L 118.055564 175.00782 
L 118.725935 174.317173 
L 119.396306 174.650089 
L 120.066677 174.246706 
L 120.737048 174.836555 
L 121.407419 175.018238 
L 122.077789 174.468252 
L 122.74816 174.245057 
L 123.418531 174.867432 
L 124.088902 173.797111 
L 124.759273 174.016375 
L 125.429644 174.795437 
L 126.100015 174.480951 
L 126.770386 174.506853 
L 127.440757 173.525641 
L 128.781499 174.544596 
L 129.45187 174.552322 
L 130.122241 175.423688 
L 130.792612 175.423106 
L 131.462982 174.371392 
L 132.133353 174.495035 
L 132.803724 173.356009 
L 133.474095 174.679746 
L 134.144466 173.761097 
L 135.485208 171.63103 
L 136.155579 171.569294 
L 136.82595 170.916298 
L 137.496321 167.500282 
L 138.166692 151.617227 
L 138.837063 163.244973 
L 139.507434 171.201505 
L 140.177804 171.438103 
L 140.848175 173.496633 
L 141.518546 174.062422 
L 142.188917 173.920891 
L 143.529659 174.370833 
L 144.870401 174.236301 
L 145.540772 174.160714 
L 146.211143 175.066491 
L 146.881514 174.649093 
L 147.551885 174.579074 
L 148.222256 174.752998 
L 148.892627 175.229918 
L 149.562997 174.742061 
L 150.233368 175.052767 
L 150.903739 174.905943 
L 151.57411 175.116942 
L 152.914852 174.770509 
L 153.585223 175.088272 
L 154.255594 174.996322 
L 155.596336 175.121438 
L 156.937078 175.155429 
L 157.607449 174.965467 
L 158.94819 174.856206 
L 159.618561 174.625332 
L 160.288932 175.168409 
L 160.959303 174.774158 
L 161.629674 174.990838 
L 162.300045 174.785489 
L 162.970416 175.033157 
L 163.640787 174.879702 
L 164.311158 175.350659 
L 164.981529 175.000417 
L 165.6519 175.280251 
L 166.322271 175.237848 
L 166.992642 174.991549 
L 167.663012 175.423632 
L 168.333383 174.837931 
L 169.003754 175.058848 
L 170.344496 174.494812 
L 171.014867 174.892023 
L 171.685238 175.109142 
L 172.355609 175.150529 
L 173.02598 175.046595 
L 174.366722 175.125137 
L 175.037093 174.934241 
L 175.707464 174.909081 
L 176.377835 175.284529 
L 177.048205 175.318119 
L 177.718576 175.183082 
L 179.729689 175.258324 
L 181.070431 175.17889 
L 182.411173 175.194035 
L 193.807479 175.283545 
L 199.170446 175.354796 
L 199.840817 175.39684 
L 200.511188 175.052207 
L 201.85193 175.244906 
L 206.544526 175.309868 
L 213.248235 175.319167 
L 225.985283 175.346956 
L 243.414927 175.370819 
L 716.696801 175.5 
L -1 175.499991 
M -1 175.325495 
L 15.488812 175.052207 
L 16.159183 175.39684 
L 19.511038 175.28798 
L 24.874005 175.278809 
L 27.555489 175.237878 
L 30.236973 175.241486 
L 35.59994 175.189533 
L 36.940682 175.251111 
L 39.622165 175.284529 
L 40.292536 174.909081 
L 40.962907 174.934241 
L 41.633278 175.125137 
L 44.314762 175.109142 
L 44.985133 174.892023 
L 45.655504 174.494812 
L 46.996246 175.058848 
L 47.666617 174.837931 
L 48.336988 175.423632 
L 49.007358 174.991549 
L 49.677729 175.237848 
L 50.3481 175.280251 
L 51.018471 175.000417 
L 51.688842 175.350659 
L 52.359213 174.879702 
L 53.029584 175.033157 
L 53.699955 174.785489 
L 54.370326 174.990838 
L 55.040697 174.774158 
L 55.711068 175.168409 
L 56.381439 174.625332 
L 57.05181 174.856206 
L 59.733293 175.130998 
L 62.414777 175.088272 
L 63.085148 174.770509 
L 64.42589 175.116942 
L 65.096261 174.905943 
L 65.766632 175.052767 
L 66.437003 174.742061 
L 67.107373 175.229918 
L 67.777744 174.752998 
L 68.448115 174.579074 
L 69.118486 174.649093 
L 69.788857 175.066491 
L 70.459228 174.160714 
L 72.470341 174.370833 
L 73.811083 173.920891 
L 74.481454 174.062422 
L 75.151825 173.496633 
L 75.822196 171.438103 
L 76.492566 171.201505 
L 77.162937 163.244973 
L 77.833308 151.617227 
L 78.503679 167.500282 
L 79.17405 170.916298 
L 79.844421 171.569294 
L 80.514792 171.63103 
L 82.525905 174.679746 
L 83.196276 173.356009 
L 83.866647 174.495035 
L 84.537018 174.371392 
L 85.207388 175.423106 
L 85.877759 175.423688 
L 86.54813 174.552322 
L 87.218501 174.544596 
L 88.559243 173.525641 
L 89.229614 174.506853 
L 89.899985 174.480951 
L 90.570356 174.795437 
L 91.240727 174.016375 
L 91.911098 173.797111 
L 92.581469 174.867432 
L 93.25184 174.245057 
L 93.922211 174.468252 
L 94.592581 175.018238 
L 95.262952 174.836555 
L 95.933323 174.246706 
L 96.603694 174.650089 
L 97.274065 174.317173 
L 97.944436 175.00782 
L 98.614807 173.61932 
L 99.285178 173.517 
L 99.955549 174.557348 
L 100.62592 174.375302 
L 101.296291 174.823718 
L 101.966662 175.106312 
L 102.637033 175.159573 
L 103.307404 174.94392 
L 103.977774 173.764336 
L 104.648145 175.059694 
L 105.318516 174.13957 
L 105.988887 174.307304 
L 106.659258 173.256638 
L 107.329629 172.443699 
L 107.329629 172.443699 
" clip-path="url(#pee9dadc92c)" style="fill: none; stroke-dasharray: 3.7,1.6; stroke-dashoffset: 0; stroke: #8b0000"/>
   </g>
   <g id="patch_3">
    <path d="M 108 181.8 
L 108 43.2 
" style="fill: none; stroke: #000000; stroke-width: 0.8; stroke-linejoin: miter; stroke-linecap: square"/>
   </g>
   <g id="patch_4">
    <path d="M 777.6 181.8 
L 777.6 43.2 
" style="fill: none; stroke: #000000; stroke-width: 0.8; stroke-linejoin: miter; stroke-linecap: square"/>
   </g>
   <g id="patch_5">
    <path d="M 108 181.8 
L 777.6 181.8 
" style="fill: none; stroke: #000000; stroke-width: 0.8; stroke-linejoin: miter; stroke-linecap: square"/>
   </g>
   <g id="patch_6">
    <path d="M 108 43.2 
L 777.6 43.2 
" style="fill: none; stroke: #000000; stroke-width: 0.8; stroke-linejoin: miter; stroke-linecap: square"/>
   </g>
   <g id="legend_1">
    <g id="patch_7">
     <path d="M 650.045139 89.836624 
L 768.5 89.836624 
Q 771.1 89.836624 771.1 87.236624 
L 771.1 52.3 
Q 771.1 49.7 768.5 49.7 
L 650.045139 49.7 
Q 647.445139 49.7 647.445139 52.3 
L 647.445139 87.236624 
Q 647.445139 89.836624 650.045139 89.836624 
z
" style="fill: #ffffff; opacity: 0.8; stroke: #cccccc; stroke-linejoin: miter"/>
    </g>
    <g id="line2d_6">
     <path d="M 652.645139 59.45 
L 665.645139 59.45 
L 678.645139 59.45 
" style="fill: none; stroke: #ff0000; stroke-linecap: square"/>
    </g>
    <g id="text_5">
     <!-- MCMC result -->
     <g transform="translate(689.045139 64) scale(0.13 -0.13)">
      <defs>
       <path id="CMR17-4d" d="M 1338 4224 
C 1299 4320 1293 4320 1158 4320 
L 339 4320 
L 339 4160 
C 781 4160 851 4160 851 3875 
L 851 610 
C 851 451 851 153 339 153 
L 339 -13 
C 486 0 755 0 915 0 
C 1075 0 1344 0 1491 -13 
L 1491 153 
C 979 153 979 451 979 610 
L 979 4135 
L 986 4135 
L 2490 89 
C 2515 25 2528 -13 2579 -13 
C 2630 -13 2643 25 2669 89 
L 4186 4166 
L 4192 4166 
L 4192 438 
C 4192 153 4122 153 3680 153 
L 3680 -13 
C 3853 0 4198 0 4384 0 
C 4570 0 4922 0 5094 -13 
L 5094 153 
C 4653 153 4582 153 4582 438 
L 4582 3875 
C 4582 4160 4653 4160 5094 4160 
L 5094 4320 
L 4282 4320 
C 4147 4320 4141 4314 4102 4218 
L 2720 502 
L 1338 4224 
z
" transform="scale(0.015625)"/>
       <path id="CMR17-43" d="M 3974 4289 
C 3974 4403 3968 4410 3930 4410 
C 3904 4410 3898 4403 3853 4327 
L 3571 3792 
C 3258 4187 2874 4416 2381 4416 
C 1286 4416 294 3456 294 2148 
C 294 826 1286 -128 2387 -128 
C 3366 -128 3974 730 3974 1461 
C 3974 1524 3974 1550 3917 1550 
C 3866 1550 3866 1531 3859 1474 
C 3808 585 3168 38 2477 38 
C 1824 38 781 495 781 2147 
C 781 3805 1843 4250 2464 4250 
C 3187 4250 3712 3628 3834 2745 
C 3846 2668 3846 2655 3904 2655 
C 3974 2655 3974 2668 3974 2783 
L 3974 4289 
z
" transform="scale(0.015625)"/>
       <path id="CMR17-72" d="M 960 1497 
C 960 2112 1222 2688 1702 2688 
C 1747 2688 1792 2682 1837 2662 
C 1837 2662 1696 2617 1696 2452 
C 1696 2298 1818 2234 1914 2234 
C 1990 2234 2131 2279 2131 2458 
C 2131 2663 1926 2790 1709 2790 
C 1222 2790 1011 2317 947 2093 
L 941 2093 
L 941 2790 
L 198 2720 
L 198 2554 
C 576 2554 634 2515 634 2208 
L 634 428 
C 634 184 608 153 198 153 
L 198 -13 
C 352 0 646 0 813 0 
C 998 0 1325 0 1498 -13 
L 1498 153 
C 1037 153 960 153 960 440 
L 960 1497 
z
" transform="scale(0.015625)"/>
       <path id="CMR17-73" d="M 1978 2697 
C 1978 2813 1971 2819 1933 2819 
C 1907 2819 1901 2813 1824 2717 
C 1805 2691 1747 2626 1728 2601 
C 1523 2819 1235 2819 1126 2819 
C 416 2819 160 2447 160 2076 
C 160 1498 813 1365 998 1325 
C 1402 1243 1542 1217 1677 1101 
C 1760 1025 1901 884 1901 654 
C 1901 384 1747 38 1158 38 
C 602 38 403 460 288 1021 
C 269 1110 269 1117 218 1117 
C 166 1117 160 1110 160 983 
L 160 63 
C 160 -51 166 -58 205 -58 
C 237 -58 243 -51 275 0 
C 314 57 410 211 448 276 
C 576 103 800 -64 1158 -64 
C 1792 -64 2131 283 2131 784 
C 2131 1112 1958 1285 1875 1362 
C 1683 1561 1459 1606 1190 1657 
C 838 1735 390 1825 390 2217 
C 390 2383 480 2737 1126 2737 
C 1811 2737 1850 2094 1862 1888 
C 1869 1856 1901 1849 1920 1849 
C 1978 1849 1978 1869 1978 1978 
L 1978 2697 
z
" transform="scale(0.015625)"/>
      </defs>
      <use xlink:href="#CMR17-4d" transform="scale(0.996264)"/>
      <use xlink:href="#CMR17-43" transform="translate(84.686941 0) scale(0.996264)"/>
      <use xlink:href="#CMR17-4d" transform="translate(151.196821 0) scale(0.996264)"/>
      <use xlink:href="#CMR17-43" transform="translate(235.883762 0) scale(0.996264)"/>
      <use xlink:href="#CMR17-72" transform="translate(332.469609 0) scale(0.996264)"/>
      <use xlink:href="#CMR17-65" transform="translate(367.750376 0) scale(0.996264)"/>
      <use xlink:href="#CMR17-73" transform="translate(408.236037 0) scale(0.996264)"/>
      <use xlink:href="#CMR17-75" transform="translate(444.037374 0) scale(0.996264)"/>
      <use xlink:href="#CMR17-6c" transform="translate(494.932744 0) scale(0.996264)"/>
      <use xlink:href="#CMR17-74" transform="translate(519.803803 0) scale(0.996264)"/>
     </g>
    </g>
    <g id="line2d_7">
     <path d="M 652.645139 77.568312 
L 665.645139 77.568312 
L 678.645139 77.568312 
" style="fill: none; stroke-dasharray: 3.7,1.6; stroke-dashoffset: 0; stroke: #8b0000"/>
    </g>
    <g id="text_6">
     <!-- Experiment -->
     <g transform="translate(689.045139 82.118312) scale(0.13 -0.13)">
      <defs>
       <path id="CMR17-45" d="M 3885 1615 
L 3770 1615 
C 3629 676 3546 166 2419 166 
L 1530 166 
C 1274 166 1261 197 1261 414 
L 1261 2176 
L 1862 2176 
C 2464 2176 2522 1960 2522 1430 
L 2637 1430 
L 2637 3081 
L 2522 3081 
C 2522 2557 2464 2342 1862 2342 
L 1261 2342 
L 1261 3913 
C 1261 4128 1274 4160 1530 4160 
L 2406 4160 
C 3398 4160 3514 3769 3603 2929 
L 3718 2929 
L 3565 4325 
L 326 4325 
L 326 4160 
C 768 4160 838 4160 838 3874 
L 838 451 
C 838 166 768 166 326 166 
L 326 0 
L 3654 0 
L 3885 1615 
z
" transform="scale(0.015625)"/>
       <path id="CMR17-78" d="M 1664 1477 
C 1856 1726 2074 2006 2253 2216 
C 2464 2458 2707 2560 2989 2560 
L 2989 2726 
C 2880 2726 2656 2726 2541 2726 
C 2368 2726 2170 2726 2022 2732 
L 2022 2566 
C 2112 2553 2163 2489 2163 2400 
C 2163 2285 2099 2215 2067 2171 
L 1594 1573 
L 1030 2306 
C 973 2376 973 2388 973 2420 
C 973 2497 1037 2560 1146 2560 
L 1146 2732 
C 992 2726 717 2726 557 2726 
C 384 2726 179 2726 38 2732 
L 38 2560 
C 384 2560 461 2534 614 2343 
L 1350 1395 
C 1363 1382 1395 1344 1395 1325 
C 1395 1299 838 619 768 530 
C 480 185 179 160 6 160 
L 6 0 
C 115 0 339 0 454 0 
C 582 0 864 0 979 -6 
L 979 160 
C 941 166 838 179 838 325 
C 838 440 890 510 947 586 
L 1478 1236 
L 2035 512 
C 2086 442 2163 346 2163 301 
C 2163 211 2086 160 1984 160 
L 1984 -6 
C 2138 0 2413 0 2573 0 
C 2746 0 2950 0 3091 -6 
L 3091 160 
C 2771 160 2675 172 2522 370 
L 1664 1477 
z
" transform="scale(0.015625)"/>
       <path id="CMR17-6e" d="M 2656 1933 
C 2656 2259 2592 2790 1837 2790 
C 1331 2790 1069 2400 973 2144 
L 966 2144 
L 966 2790 
L 211 2720 
L 211 2554 
C 589 2554 646 2515 646 2208 
L 646 428 
C 646 184 621 153 211 153 
L 211 -13 
C 365 0 646 0 813 0 
C 979 0 1267 0 1421 -13 
L 1421 153 
C 1011 153 986 178 986 428 
L 986 1658 
C 986 2247 1344 2688 1792 2688 
C 2266 2688 2317 2266 2317 1958 
L 2317 428 
C 2317 184 2291 153 1882 153 
L 1882 -13 
C 2035 0 2317 0 2483 0 
C 2650 0 2938 0 3091 -13 
L 3091 153 
C 2682 153 2656 178 2656 428 
L 2656 1933 
z
" transform="scale(0.015625)"/>
      </defs>
      <use xlink:href="#CMR17-45" transform="scale(0.996264)"/>
      <use xlink:href="#CMR17-78" transform="translate(62.586301 0) scale(0.996264)"/>
      <use xlink:href="#CMR17-70" transform="translate(110.879216 0) scale(0.996264)"/>
      <use xlink:href="#CMR17-65" transform="translate(164.377025 0) scale(0.996264)"/>
      <use xlink:href="#CMR17-72" transform="translate(204.862685 0) scale(0.996264)"/>
      <use xlink:href="#CMR17-69" transform="translate(240.143453 0) scale(0.996264)"/>
      <use xlink:href="#CMR17-6d" transform="translate(265.014512 0) scale(0.996264)"/>
      <use xlink:href="#CMR17-65" transform="translate(341.934101 0) scale(0.996264)"/>
      <use xlink:href="#CMR17-6e" transform="translate(382.419762 0) scale(0.996264)"/>
      <use xlink:href="#CMR17-74" transform="translate(430.712678 0) scale(0.996264)"/>
     </g>
    </g>
   </g>
  </g>
  <g id="axes_2">
   <g id="patch_8">
    <path d="M 108 320.4 
L 777.6 320.4 
L 777.6 181.8 
L 108 181.8 
z
" style="fill: #ffffff"/>
   </g>
   <g id="matplotlib.axis_3">
    <g id="xtick_1">
     <g id="line2d_8">
      <defs>
       <path id="m2e992257fc" d="M 0 0 
L 0 3.5 
" style="stroke: #000000; stroke-width: 0.8"/>
      </defs>
      <g>
       <use xlink:href="#m2e992257fc" x="108" y="320.4" style="stroke: #000000; stroke-width: 0.8"/>
      </g>
     </g>
     <g id="text_7">
      <!-- $\mathdefault{0.0}$ -->
      <g transform="translate(99.897944 336.394028) scale(0.13 -0.13)">
       <defs>
        <path id="CMMI12-3a" d="M 1178 307 
C 1178 492 1024 619 870 619 
C 685 619 557 466 557 313 
C 557 128 710 0 864 0 
C 1050 0 1178 153 1178 307 
z
" transform="scale(0.015625)"/>
       </defs>
       <use xlink:href="#CMR17-30" transform="scale(0.996264)"/>
       <use xlink:href="#CMMI12-3a" transform="translate(45.690477 0) scale(0.996264)"/>
       <use xlink:href="#CMR17-30" transform="translate(72.787654 0) scale(0.996264)"/>
      </g>
     </g>
    </g>
    <g id="xtick_2">
     <g id="line2d_9">
      <g>
       <use xlink:href="#m2e992257fc" x="229.873434" y="320.4" style="stroke: #000000; stroke-width: 0.8"/>
      </g>
     </g>
     <g id="text_8">
      <!-- $\mathdefault{0.1}$ -->
      <g transform="translate(221.771378 336.394028) scale(0.13 -0.13)">
       <use xlink:href="#CMR17-30" transform="scale(0.996264)"/>
       <use xlink:href="#CMMI12-3a" transform="translate(45.690477 0) scale(0.996264)"/>
       <use xlink:href="#CMR17-31" transform="translate(72.787654 0) scale(0.996264)"/>
      </g>
     </g>
    </g>
    <g id="xtick_3">
     <g id="line2d_10">
      <g>
       <use xlink:href="#m2e992257fc" x="351.746869" y="320.4" style="stroke: #000000; stroke-width: 0.8"/>
      </g>
     </g>
     <g id="text_9">
      <!-- $\mathdefault{0.2}$ -->
      <g transform="translate(343.644813 336.394028) scale(0.13 -0.13)">
       <use xlink:href="#CMR17-30" transform="scale(0.996264)"/>
       <use xlink:href="#CMMI12-3a" transform="translate(45.690477 0) scale(0.996264)"/>
       <use xlink:href="#CMR17-32" transform="translate(72.787654 0) scale(0.996264)"/>
      </g>
     </g>
    </g>
    <g id="xtick_4">
     <g id="line2d_11">
      <g>
       <use xlink:href="#m2e992257fc" x="473.620303" y="320.4" style="stroke: #000000; stroke-width: 0.8"/>
      </g>
     </g>
     <g id="text_10">
      <!-- $\mathdefault{0.3}$ -->
      <g transform="translate(465.518247 336.394028) scale(0.13 -0.13)">
       <defs>
        <path id="CMR17-33" d="M 1414 2157 
C 1984 2157 2234 1662 2234 1090 
C 2234 320 1824 25 1453 25 
C 1114 25 563 194 390 693 
C 422 680 454 680 486 680 
C 640 680 755 782 755 948 
C 755 1133 614 1216 486 1216 
C 378 1216 211 1165 211 926 
C 211 335 787 -128 1466 -128 
C 2176 -128 2720 430 2720 1085 
C 2720 1707 2208 2157 1600 2227 
C 2086 2328 2554 2756 2554 3329 
C 2554 3820 2048 4179 1472 4179 
C 890 4179 378 3829 378 3329 
C 378 3110 544 3072 627 3072 
C 762 3072 877 3155 877 3321 
C 877 3486 762 3569 627 3569 
C 602 3569 570 3569 544 3557 
C 730 3959 1235 4032 1459 4032 
C 1683 4032 2106 3925 2106 3320 
C 2106 3143 2080 2828 1862 2550 
C 1670 2304 1453 2304 1242 2284 
C 1210 2284 1062 2269 1037 2269 
C 992 2263 966 2257 966 2208 
C 966 2163 973 2157 1101 2157 
L 1414 2157 
z
" transform="scale(0.015625)"/>
       </defs>
       <use xlink:href="#CMR17-30" transform="scale(0.996264)"/>
       <use xlink:href="#CMMI12-3a" transform="translate(45.690477 0) scale(0.996264)"/>
       <use xlink:href="#CMR17-33" transform="translate(72.787654 0) scale(0.996264)"/>
      </g>
     </g>
    </g>
    <g id="xtick_5">
     <g id="line2d_12">
      <g>
       <use xlink:href="#m2e992257fc" x="595.493738" y="320.4" style="stroke: #000000; stroke-width: 0.8"/>
      </g>
     </g>
     <g id="text_11">
      <!-- $\mathdefault{0.4}$ -->
      <g transform="translate(587.391682 336.394028) scale(0.13 -0.13)">
       <defs>
        <path id="CMR17-34" d="M 2150 4122 
C 2150 4256 2144 4256 2029 4256 
L 128 1254 
L 128 1088 
L 1779 1088 
L 1779 457 
C 1779 224 1766 160 1318 160 
L 1197 160 
L 1197 0 
C 1402 0 1747 0 1965 0 
C 2182 0 2528 0 2733 0 
L 2733 160 
L 2611 160 
C 2163 160 2150 224 2150 457 
L 2150 1088 
L 2803 1088 
L 2803 1254 
L 2150 1254 
L 2150 4122 
z
M 1798 3703 
L 1798 1254 
L 256 1254 
L 1798 3703 
z
" transform="scale(0.015625)"/>
       </defs>
       <use xlink:href="#CMR17-30" transform="scale(0.996264)"/>
       <use xlink:href="#CMMI12-3a" transform="translate(45.690477 0) scale(0.996264)"/>
       <use xlink:href="#CMR17-34" transform="translate(72.787654 0) scale(0.996264)"/>
      </g>
     </g>
    </g>
    <g id="xtick_6">
     <g id="line2d_13">
      <g>
       <use xlink:href="#m2e992257fc" x="717.367172" y="320.4" style="stroke: #000000; stroke-width: 0.8"/>
      </g>
     </g>
     <g id="text_12">
      <!-- $\mathdefault{0.5}$ -->
      <g transform="translate(709.265116 336.394028) scale(0.13 -0.13)">
       <defs>
        <path id="CMR17-35" d="M 730 3692 
C 794 3666 1056 3584 1325 3584 
C 1920 3584 2246 3911 2432 4100 
C 2432 4157 2432 4192 2394 4192 
C 2387 4192 2374 4192 2323 4163 
C 2099 4058 1837 3973 1517 3973 
C 1325 3973 1037 3999 723 4139 
C 653 4171 640 4171 634 4171 
C 602 4171 595 4164 595 4037 
L 595 2203 
C 595 2089 595 2057 659 2057 
C 691 2057 704 2070 736 2114 
C 941 2401 1222 2522 1542 2522 
C 1766 2522 2246 2382 2246 1289 
C 2246 1085 2246 715 2054 421 
C 1894 159 1645 25 1370 25 
C 947 25 518 320 403 814 
C 429 807 480 795 506 795 
C 589 795 749 840 749 1038 
C 749 1210 627 1280 506 1280 
C 358 1280 262 1190 262 1011 
C 262 454 704 -128 1382 -128 
C 2042 -128 2669 440 2669 1264 
C 2669 2030 2170 2624 1549 2624 
C 1222 2624 947 2503 730 2274 
L 730 3692 
z
" transform="scale(0.015625)"/>
       </defs>
       <use xlink:href="#CMR17-30" transform="scale(0.996264)"/>
       <use xlink:href="#CMMI12-3a" transform="translate(45.690477 0) scale(0.996264)"/>
       <use xlink:href="#CMR17-35" transform="translate(72.787654 0) scale(0.996264)"/>
      </g>
     </g>
    </g>
    <g id="text_13">
     <!-- $f$ (Hz) -->
     <g transform="translate(424.366501 352.625914) scale(0.13 -0.13)">
      <defs>
       <path id="CMMI12-66" d="M 2854 2566 
C 2982 2566 3034 2566 3034 2688 
C 3034 2752 2982 2752 2867 2752 
L 2349 2752 
C 2470 3429 2560 3897 2611 4107 
C 2650 4265 2784 4416 2950 4416 
C 3085 4416 3219 4358 3283 4298 
C 3034 4272 2957 4082 2957 3969 
C 2957 3837 3053 3759 3174 3759 
C 3302 3759 3494 3870 3494 4119 
C 3494 4393 3226 4544 2944 4544 
C 2669 4544 2400 4334 2272 4078 
C 2157 3848 2093 3611 1946 2752 
L 1517 2752 
C 1395 2752 1331 2752 1331 2637 
C 1331 2566 1370 2566 1498 2566 
L 1907 2566 
C 1792 1976 1530 542 1382 -137 
C 1274 -689 1178 -1152 858 -1152 
C 838 -1152 653 -1152 538 -1031 
C 864 -1005 864 -726 864 -720 
C 864 -593 768 -517 646 -517 
C 518 -517 326 -625 326 -867 
C 326 -1140 608 -1280 858 -1280 
C 1510 -1280 1779 -118 1850 199 
C 1965 688 2278 2376 2310 2566 
L 2854 2566 
z
" transform="scale(0.015625)"/>
       <path id="CMR17-28" d="M 1958 -1561 
C 1958 -1555 1958 -1542 1939 -1523 
C 1645 -1224 858 -407 858 1581 
C 858 3569 1632 4379 1946 4697 
C 1946 4704 1958 4717 1958 4736 
C 1958 4755 1939 4768 1914 4768 
C 1843 4768 1299 4296 986 3594 
C 666 2887 576 2199 576 1588 
C 576 1128 621 351 1005 -471 
C 1312 -1135 1837 -1600 1914 -1600 
C 1946 -1600 1958 -1587 1958 -1561 
z
" transform="scale(0.015625)"/>
       <path id="CMR17-48" d="M 3590 3905 
C 3590 4192 3661 4192 4102 4192 
L 4102 4352 
C 3917 4352 3578 4352 3379 4352 
C 3181 4352 2842 4352 2656 4352 
L 2656 4192 
C 3098 4192 3168 4192 3168 3904 
L 3168 2341 
L 1261 2341 
L 1261 3904 
C 1261 4192 1331 4192 1773 4192 
L 1773 4352 
C 1587 4352 1248 4352 1050 4352 
C 851 4352 512 4352 326 4352 
L 326 4192 
C 768 4192 838 4192 838 3905 
L 838 447 
C 838 160 768 160 326 160 
L 326 0 
C 512 0 851 0 1050 0 
C 1248 0 1587 0 1773 0 
L 1773 160 
C 1331 160 1261 160 1261 446 
L 1261 2176 
L 3168 2176 
L 3168 446 
C 3168 160 3098 160 2656 160 
L 2656 0 
C 2842 0 3181 0 3379 0 
C 3578 0 3917 0 4102 0 
L 4102 160 
C 3661 160 3590 160 3590 447 
L 3590 3905 
z
" transform="scale(0.015625)"/>
       <path id="CMR17-7a" d="M 2310 2605 
C 2362 2670 2362 2682 2362 2695 
C 2362 2752 2336 2752 2221 2752 
L 275 2752 
L 211 1760 
L 326 1760 
C 371 2381 442 2650 1178 2650 
L 1958 2650 
L 128 96 
C 128 0 134 0 269 0 
L 2291 0 
L 2381 1152 
L 2266 1152 
C 2214 442 2131 115 1350 115 
L 531 115 
L 2310 2605 
z
" transform="scale(0.015625)"/>
       <path id="CMR17-29" d="M 1683 1581 
C 1683 2040 1638 2817 1254 3639 
C 947 4303 422 4768 346 4768 
C 326 4768 301 4761 301 4729 
C 301 4717 307 4710 314 4697 
C 621 4378 1402 3568 1402 1584 
C 1402 -407 627 -1217 314 -1537 
C 307 -1549 301 -1556 301 -1568 
C 301 -1600 326 -1600 346 -1600 
C 416 -1600 960 -1128 1274 -426 
C 1594 281 1683 969 1683 1581 
z
" transform="scale(0.015625)"/>
      </defs>
      <use xlink:href="#CMMI12-66" transform="scale(0.996264)"/>
      <use xlink:href="#CMR17-28" transform="translate(88.796271 0) scale(0.996264)"/>
      <use xlink:href="#CMR17-48" transform="translate(124.077039 0) scale(0.996264)"/>
      <use xlink:href="#CMR17-7a" transform="translate(193.149469 0) scale(0.996264)"/>
      <use xlink:href="#CMR17-29" transform="translate(233.635129 0) scale(0.996264)"/>
     </g>
    </g>
   </g>
   <g id="matplotlib.axis_4">
    <g id="ytick_4">
     <g id="line2d_14">
      <g>
       <use xlink:href="#m93de1755a5" x="108" y="314.227693" style="stroke: #000000; stroke-width: 0.8"/>
      </g>
     </g>
     <g id="text_14">
      <!-- $\mathdefault{0}$ -->
      <g transform="translate(94.659261 318.724707) scale(0.13 -0.13)">
       <use xlink:href="#CMR17-30" transform="scale(0.996264)"/>
      </g>
     </g>
    </g>
    <g id="ytick_5">
     <g id="line2d_15">
      <g>
       <use xlink:href="#m93de1755a5" x="108" y="271.72848" style="stroke: #000000; stroke-width: 0.8"/>
      </g>
     </g>
     <g id="text_15">
      <!-- $\mathdefault{2}$ -->
      <g transform="translate(94.659261 276.225494) scale(0.13 -0.13)">
       <use xlink:href="#CMR17-32" transform="scale(0.996264)"/>
      </g>
     </g>
    </g>
    <g id="ytick_6">
     <g id="line2d_16">
      <g>
       <use xlink:href="#m93de1755a5" x="108" y="229.229266" style="stroke: #000000; stroke-width: 0.8"/>
      </g>
     </g>
     <g id="text_16">
      <!-- $\mathdefault{4}$ -->
      <g transform="translate(94.659261 233.726281) scale(0.13 -0.13)">
       <use xlink:href="#CMR17-34" transform="scale(0.996264)"/>
      </g>
     </g>
    </g>
    <g id="ytick_7">
     <g id="line2d_17">
      <g>
       <use xlink:href="#m93de1755a5" x="108" y="186.730053" style="stroke: #000000; stroke-width: 0.8"/>
      </g>
     </g>
     <g id="text_17">
      <!-- $\mathdefault{6}$ -->
      <g transform="translate(94.659261 191.227067) scale(0.13 -0.13)">
       <defs>
        <path id="CMR17-36" d="M 678 2176 
C 678 3690 1395 4032 1811 4032 
C 1946 4032 2272 4009 2400 3776 
C 2298 3776 2106 3776 2106 3553 
C 2106 3381 2246 3323 2336 3323 
C 2394 3323 2566 3348 2566 3560 
C 2566 3954 2246 4179 1805 4179 
C 1043 4179 243 3390 243 1984 
C 243 253 966 -128 1478 -128 
C 2099 -128 2688 427 2688 1283 
C 2688 2081 2170 2662 1517 2662 
C 1126 2662 838 2407 678 1960 
L 678 2176 
z
M 1478 25 
C 691 25 691 1200 691 1436 
C 691 1896 909 2560 1504 2560 
C 1613 2560 1926 2560 2138 2120 
C 2253 1870 2253 1609 2253 1289 
C 2253 944 2253 690 2118 434 
C 1978 171 1773 25 1478 25 
z
" transform="scale(0.015625)"/>
       </defs>
       <use xlink:href="#CMR17-36" transform="scale(0.996264)"/>
      </g>
     </g>
    </g>
    <g id="text_18">
     <!-- Amplitude -->
     <g transform="translate(88.140948 280.51174) rotate(-90) scale(0.13 -0.13)">
      <use xlink:href="#CMR17-41" transform="scale(0.996264)"/>
      <use xlink:href="#CMR17-6d" transform="translate(69.07243 0) scale(0.996264)"/>
      <use xlink:href="#CMR17-70" transform="translate(145.99202 0) scale(0.996264)"/>
      <use xlink:href="#CMR17-6c" transform="translate(196.887389 0) scale(0.996264)"/>
      <use xlink:href="#CMR17-69" transform="translate(221.758448 0) scale(0.996264)"/>
      <use xlink:href="#CMR17-74" transform="translate(246.629506 0) scale(0.996264)"/>
      <use xlink:href="#CMR17-75" transform="translate(281.910274 0) scale(0.996264)"/>
      <use xlink:href="#CMR17-64" transform="translate(332.805644 0) scale(0.996264)"/>
      <use xlink:href="#CMR17-65" transform="translate(383.701014 0) scale(0.996264)"/>
     </g>
    </g>
   </g>
   <g id="line2d_18">
    <path d="M 108 312.169884 
L 115.37408 312.069044 
L 121.407419 311.795753 
L 126.100015 311.372776 
L 129.45187 310.849622 
L 131.462982 310.370377 
L 133.474095 309.668219 
L 134.814837 308.991261 
L 136.155579 308.025393 
L 136.82595 307.37097 
L 137.496321 306.541801 
L 138.166692 305.458019 
L 138.837063 303.982279 
L 139.507434 301.856708 
L 140.177804 298.53354 
L 140.848175 292.608538 
L 141.518546 279.072813 
L 142.188917 217.027952 
L 142.859288 192.543549 
L 143.529659 277.291584 
L 144.20003 292.620309 
L 144.870401 299.039241 
L 145.540772 302.566215 
L 146.211143 304.795602 
L 146.881514 306.331749 
L 147.551885 307.454157 
L 148.222256 308.30989 
L 149.562997 309.527898 
L 150.903739 310.352493 
L 152.244481 310.947239 
L 154.255594 311.581546 
L 156.937078 312.148349 
L 160.288932 312.61241 
L 164.981529 313.024439 
L 171.685238 313.37422 
L 181.070431 313.630133 
L 191.125995 313.686097 
L 198.500075 313.529553 
L 203.863042 313.219443 
L 207.214897 312.840733 
L 209.22601 312.464813 
L 211.237123 311.853688 
L 212.577865 311.181243 
L 213.248235 310.694799 
L 213.918606 310.038358 
L 214.588977 309.104134 
L 215.259348 307.668692 
L 215.929719 305.181036 
L 216.60009 299.815093 
L 217.270461 279.718589 
L 217.940832 220.781533 
L 218.611203 294.097219 
L 219.281574 302.859917 
L 219.951945 306.265869 
L 220.622316 308.077324 
L 221.292687 309.201729 
L 221.963058 309.967754 
L 223.303799 310.944626 
L 224.644541 311.541636 
L 226.655654 312.100641 
L 229.337138 312.545224 
L 233.359363 312.927713 
L 239.392702 313.238274 
L 249.448266 313.498958 
L 267.548281 313.712358 
L 304.418681 313.885271 
L 388.885418 314.015758 
L 616.811533 314.094924 
L 716.696801 314.1 
L -1 314.1 
M -1 287.82652 
L -0.60009 299.815093 
L 0.070281 305.181036 
L 0.740652 307.668692 
L 1.411023 309.104134 
L 2.081394 310.038358 
L 2.751765 310.694799 
L 4.092506 311.55608 
L 5.433248 312.095623 
L 7.444361 312.608697 
L 10.125845 313.019144 
L 14.14807 313.365119 
L 20.181409 313.61271 
L 28.22586 313.695136 
L 38.281424 313.56169 
L 47.666617 313.223796 
L 53.699955 312.813722 
L 57.722181 312.358201 
L 61.074035 311.746635 
L 63.085148 311.18636 
L 65.096261 310.352493 
L 66.437003 309.527898 
L 67.777744 308.30989 
L 68.448115 307.454157 
L 69.118486 306.331749 
L 69.788857 304.795602 
L 70.459228 302.566215 
L 71.129599 299.039241 
L 71.79997 292.620309 
L 72.470341 277.291584 
L 73.140712 192.543549 
L 73.811083 217.027952 
L 74.481454 279.072813 
L 75.151825 292.608538 
L 75.822196 298.53354 
L 76.492566 301.856708 
L 77.162937 303.982279 
L 77.833308 305.458019 
L 78.503679 306.541801 
L 79.844421 308.025393 
L 81.185163 308.991261 
L 82.525905 309.668219 
L 84.537018 310.370377 
L 87.218501 310.976548 
L 90.570356 311.450342 
L 95.262952 311.837912 
L 101.296291 312.087222 
L 107.329629 312.169088 
L 107.329629 312.169088 
" clip-path="url(#p6e963bed08)" style="fill: none; stroke: #0000ff; stroke-linecap: square"/>
   </g>
   <g id="line2d_19">
    <path d="M 108 218.946985 
L 108.670371 274.57905 
L 109.340742 303.58747 
L 110.011113 298.212398 
L 110.681484 301.945503 
L 111.351855 291.366229 
L 112.022226 306.109384 
L 112.692596 306.662481 
L 113.362967 308.597332 
L 114.033338 299.887231 
L 114.703709 304.205668 
L 115.37408 303.166753 
L 116.044451 300.852692 
L 116.714822 312.276244 
L 118.055564 293.293841 
L 118.725935 300.05004 
L 119.396306 311.953017 
L 120.066677 304.581962 
L 120.737048 300.160203 
L 121.407419 292.119607 
L 122.74816 307.320087 
L 123.418531 309.028444 
L 124.088902 307.818476 
L 124.759273 305.881352 
L 125.429644 302.17066 
L 126.100015 308.238743 
L 126.770386 306.068579 
L 127.440757 307.356115 
L 128.111128 303.037512 
L 128.781499 294.874653 
L 129.45187 303.009412 
L 130.122241 303.525625 
L 130.792612 308.890455 
L 131.462982 304.90954 
L 132.133353 307.438402 
L 132.803724 301.562484 
L 133.474095 303.131224 
L 134.144466 301.667887 
L 134.814837 291.598744 
L 135.485208 304.586865 
L 136.155579 291.950646 
L 136.82595 273.048916 
L 137.496321 275.247805 
L 138.166692 188.1 
L 138.837063 236.576229 
L 139.507434 298.732077 
L 140.177804 309.752979 
L 140.848175 303.679615 
L 141.518546 305.715723 
L 142.859288 302.637303 
L 143.529659 308.645978 
L 144.20003 309.760733 
L 144.870401 309.408468 
L 145.540772 306.138443 
L 146.211143 309.977762 
L 146.881514 311.271107 
L 147.551885 312.867831 
L 148.222256 313.350855 
L 148.892627 312.152447 
L 149.562997 313.180617 
L 150.233368 312.672249 
L 150.903739 311.906593 
L 151.57411 313.464927 
L 152.244481 311.768059 
L 152.914852 312.01603 
L 153.585223 313.801832 
L 154.255594 312.994686 
L 155.596336 313.964455 
L 156.266707 313.767092 
L 156.937078 313.195369 
L 157.607449 313.773547 
L 158.277819 313.463832 
L 158.94819 310.323563 
L 159.618561 310.664444 
L 160.288932 312.761679 
L 160.959303 311.767945 
L 161.629674 312.250481 
L 162.300045 311.30709 
L 162.970416 311.19314 
L 163.640787 311.692105 
L 164.311158 311.425864 
L 164.981529 310.486009 
L 165.6519 309.100177 
L 166.322271 309.624221 
L 167.663012 312.005439 
L 168.333383 311.465377 
L 169.003754 307.056758 
L 169.674125 307.021082 
L 170.344496 312.707076 
L 171.014867 313.087355 
L 171.685238 312.703744 
L 172.355609 311.445777 
L 173.02598 311.657117 
L 173.696351 312.066676 
L 174.366722 312.03463 
L 175.037093 312.247646 
L 175.707464 313.168197 
L 176.377835 312.555331 
L 177.048205 312.718616 
L 177.718576 313.226527 
L 178.388947 313.375612 
L 179.059318 312.606428 
L 179.729689 313.133661 
L 180.40006 313.511422 
L 181.740802 313.557839 
L 183.081544 313.652562 
L 184.422286 313.533621 
L 185.092657 313.550926 
L 185.763027 313.714956 
L 186.433398 313.559733 
L 187.103769 313.573513 
L 188.444511 313.438352 
L 189.785253 313.707764 
L 190.455624 313.599415 
L 191.125995 313.69307 
L 191.796366 313.55232 
L 193.807479 313.971885 
L 194.47785 313.532614 
L 195.14822 313.680169 
L 195.818591 313.951532 
L 196.488962 313.667544 
L 197.159333 313.838479 
L 198.500075 313.784926 
L 199.170446 313.921466 
L 199.840817 313.382538 
L 200.511188 312.472111 
L 201.181559 313.301496 
L 201.85193 313.316317 
L 203.192672 313.600459 
L 205.874155 313.638104 
L 206.544526 313.760239 
L 207.214897 313.657848 
L 209.22601 313.686644 
L 210.566752 313.694383 
L 213.918606 313.756349 
L 215.259348 313.750579 
L 216.60009 313.721407 
L 220.622316 313.756453 
L 234.029734 313.783681 
L 238.722331 313.805444 
L 242.744556 313.816343 
L 281.62607 313.878333 
L 284.307554 313.902389 
L 288.329779 313.864319 
L 290.340892 313.914994 
L 291.011263 313.941663 
L 292.352005 313.858183 
L 293.692747 313.933207 
L 322.518697 313.985106 
L 323.859438 313.943354 
L 394.248386 314.01212 
L 443.855834 314.037528 
L 511.563298 314.058804 
L 714.015318 314.081739 
L 716.696801 314.081779 
L -1 314.081689 
M -1 313.733763 
L 1.411023 313.697906 
L 2.751765 313.724417 
L 8.785103 313.657848 
L 9.455474 313.760239 
L 10.125845 313.638104 
L 12.807328 313.600459 
L 14.14807 313.316317 
L 14.818441 313.301496 
L 15.488812 312.472111 
L 16.159183 313.382538 
L 16.829554 313.921466 
L 17.499925 313.784926 
L 19.511038 313.667544 
L 20.181409 313.951532 
L 20.85178 313.680169 
L 21.52215 313.532614 
L 22.192521 313.971885 
L 22.862892 313.686168 
L 25.544376 313.599415 
L 26.214747 313.707764 
L 27.555489 313.438352 
L 29.566602 313.559733 
L 30.236973 313.714956 
L 30.907343 313.550926 
L 32.248085 313.549031 
L 32.918456 313.652562 
L 35.59994 313.511422 
L 36.270311 313.133661 
L 36.940682 312.606428 
L 37.611053 313.375612 
L 38.281424 313.226527 
L 38.951795 312.718616 
L 39.622165 312.555331 
L 40.292536 313.168197 
L 40.962907 312.247646 
L 41.633278 312.03463 
L 42.303649 312.066676 
L 42.97402 311.657117 
L 43.644391 311.445777 
L 44.314762 312.703744 
L 44.985133 313.087355 
L 45.655504 312.707076 
L 46.325875 307.021082 
L 46.996246 307.056758 
L 47.666617 311.465377 
L 48.336988 312.005439 
L 49.677729 309.624221 
L 50.3481 309.100177 
L 51.018471 310.486009 
L 51.688842 311.425864 
L 52.359213 311.692105 
L 53.029584 311.19314 
L 53.699955 311.30709 
L 54.370326 312.250481 
L 55.040697 311.767945 
L 55.711068 312.761679 
L 56.381439 310.664444 
L 57.05181 310.323563 
L 57.722181 313.463832 
L 58.392551 313.773547 
L 59.062922 313.195369 
L 59.733293 313.767092 
L 60.403664 313.964455 
L 61.744406 312.994686 
L 62.414777 313.801832 
L 63.085148 312.01603 
L 63.755519 311.768059 
L 64.42589 313.464927 
L 65.096261 311.906593 
L 65.766632 312.672249 
L 66.437003 313.180617 
L 67.107373 312.152447 
L 67.777744 313.350855 
L 68.448115 312.867831 
L 69.118486 311.271107 
L 69.788857 309.977762 
L 70.459228 306.138443 
L 71.129599 309.408468 
L 71.79997 309.760733 
L 72.470341 308.645978 
L 73.140712 302.637303 
L 74.481454 305.715723 
L 75.151825 303.679615 
L 75.822196 309.752979 
L 76.492566 298.732077 
L 77.162937 236.576229 
L 77.833308 188.1 
L 78.503679 275.247805 
L 79.17405 273.048916 
L 79.844421 291.950646 
L 80.514792 304.586865 
L 81.185163 291.598744 
L 81.855534 301.667887 
L 82.525905 303.131224 
L 83.196276 301.562484 
L 83.866647 307.438402 
L 84.537018 304.90954 
L 85.207388 308.890455 
L 85.877759 303.525625 
L 86.54813 303.009412 
L 87.218501 294.874653 
L 87.888872 303.037512 
L 88.559243 307.356115 
L 89.229614 306.068579 
L 89.899985 308.238743 
L 90.570356 302.17066 
L 91.240727 305.881352 
L 91.911098 307.818476 
L 92.581469 309.028444 
L 93.25184 307.320087 
L 93.922211 300.380147 
L 94.592581 292.119607 
L 95.262952 300.160203 
L 95.933323 304.581962 
L 96.603694 311.953017 
L 97.274065 300.05004 
L 97.944436 293.293841 
L 98.614807 302.047303 
L 99.285178 312.276244 
L 99.955549 300.852692 
L 100.62592 303.166753 
L 101.296291 304.205668 
L 101.966662 299.887231 
L 102.637033 308.597332 
L 103.307404 306.662481 
L 103.977774 306.109384 
L 104.648145 291.366229 
L 105.318516 301.945503 
L 105.988887 298.212398 
L 106.659258 303.58747 
L 107.329629 274.57905 
L 107.329629 274.57905 
" clip-path="url(#p6e963bed08)" style="fill: none; stroke-dasharray: 3.7,1.6; stroke-dashoffset: 0; stroke: #00008b"/>
   </g>
   <g id="patch_9">
    <path d="M 108 320.4 
L 108 181.8 
" style="fill: none; stroke: #000000; stroke-width: 0.8; stroke-linejoin: miter; stroke-linecap: square"/>
   </g>
   <g id="patch_10">
    <path d="M 777.6 320.4 
L 777.6 181.8 
" style="fill: none; stroke: #000000; stroke-width: 0.8; stroke-linejoin: miter; stroke-linecap: square"/>
   </g>
   <g id="patch_11">
    <path d="M 108 320.4 
L 777.6 320.4 
" style="fill: none; stroke: #000000; stroke-width: 0.8; stroke-linejoin: miter; stroke-linecap: square"/>
   </g>
   <g id="patch_12">
    <path d="M 108 181.8 
L 777.6 181.8 
" style="fill: none; stroke: #000000; stroke-width: 0.8; stroke-linejoin: miter; stroke-linecap: square"/>
   </g>
   <g id="legend_2">
    <g id="patch_13">
     <path d="M 650.045139 228.436624 
L 768.5 228.436624 
Q 771.1 228.436624 771.1 225.836624 
L 771.1 190.9 
Q 771.1 188.3 768.5 188.3 
L 650.045139 188.3 
Q 647.445139 188.3 647.445139 190.9 
L 647.445139 225.836624 
Q 647.445139 228.436624 650.045139 228.436624 
z
" style="fill: #ffffff; opacity: 0.8; stroke: #cccccc; stroke-linejoin: miter"/>
    </g>
    <g id="line2d_20">
     <path d="M 652.645139 198.05 
L 665.645139 198.05 
L 678.645139 198.05 
" style="fill: none; stroke: #0000ff; stroke-linecap: square"/>
    </g>
    <g id="text_19">
     <!-- MCMC result -->
     <g transform="translate(689.045139 202.6) scale(0.13 -0.13)">
      <use xlink:href="#CMR17-4d" transform="scale(0.996264)"/>
      <use xlink:href="#CMR17-43" transform="translate(84.686941 0) scale(0.996264)"/>
      <use xlink:href="#CMR17-4d" transform="translate(151.196821 0) scale(0.996264)"/>
      <use xlink:href="#CMR17-43" transform="translate(235.883762 0) scale(0.996264)"/>
      <use xlink:href="#CMR17-72" transform="translate(332.469609 0) scale(0.996264)"/>
      <use xlink:href="#CMR17-65" transform="translate(367.750376 0) scale(0.996264)"/>
      <use xlink:href="#CMR17-73" transform="translate(408.236037 0) scale(0.996264)"/>
      <use xlink:href="#CMR17-75" transform="translate(444.037374 0) scale(0.996264)"/>
      <use xlink:href="#CMR17-6c" transform="translate(494.932744 0) scale(0.996264)"/>
      <use xlink:href="#CMR17-74" transform="translate(519.803803 0) scale(0.996264)"/>
     </g>
    </g>
    <g id="line2d_21">
     <path d="M 652.645139 216.168312 
L 665.645139 216.168312 
L 678.645139 216.168312 
" style="fill: none; stroke-dasharray: 3.7,1.6; stroke-dashoffset: 0; stroke: #00008b"/>
    </g>
    <g id="text_20">
     <!-- Experiment -->
     <g transform="translate(689.045139 220.718312) scale(0.13 -0.13)">
      <use xlink:href="#CMR17-45" transform="scale(0.996264)"/>
      <use xlink:href="#CMR17-78" transform="translate(62.586301 0) scale(0.996264)"/>
      <use xlink:href="#CMR17-70" transform="translate(110.879216 0) scale(0.996264)"/>
      <use xlink:href="#CMR17-65" transform="translate(164.377025 0) scale(0.996264)"/>
      <use xlink:href="#CMR17-72" transform="translate(204.862685 0) scale(0.996264)"/>
      <use xlink:href="#CMR17-69" transform="translate(240.143453 0) scale(0.996264)"/>
      <use xlink:href="#CMR17-6d" transform="translate(265.014512 0) scale(0.996264)"/>
      <use xlink:href="#CMR17-65" transform="translate(341.934101 0) scale(0.996264)"/>
      <use xlink:href="#CMR17-6e" transform="translate(382.419762 0) scale(0.996264)"/>
      <use xlink:href="#CMR17-74" transform="translate(430.712678 0) scale(0.996264)"/>
     </g>
    </g>
   </g>
  </g>
  <g id="text_21">
   <!-- Comparasion of frequence data and result -->
   <g transform="translate(292.630553 17.99284) scale(0.156 -0.156)">
    <defs>
     <path id="CMR17-6f" d="M 2758 1356 
C 2758 2176 2163 2816 1466 2816 
C 768 2816 173 2176 173 1356 
C 173 551 768 -64 1466 -64 
C 2163 -64 2758 551 2758 1356 
z
M 1466 51 
C 1165 51 909 230 762 480 
C 602 767 582 1126 582 1408 
C 582 1677 595 2010 762 2298 
C 890 2509 1139 2714 1466 2714 
C 1754 2714 1997 2554 2150 2330 
C 2349 2029 2349 1607 2349 1408 
C 2349 1158 2336 775 2163 467 
C 1984 173 1709 51 1466 51 
z
" transform="scale(0.015625)"/>
     <path id="CMR17-61" d="M 2304 1653 
C 2304 2072 2304 2294 2035 2543 
C 1798 2752 1523 2816 1306 2816 
C 800 2816 435 2407 435 1971 
C 435 1728 627 1728 666 1728 
C 749 1728 896 1778 896 1954 
C 896 2112 774 2181 666 2181 
C 640 2181 608 2174 589 2168 
C 723 2592 1069 2714 1293 2714 
C 1613 2714 1965 2429 1965 1885 
L 1965 1600 
C 1587 1600 1133 1549 774 1357 
C 371 1133 256 813 256 570 
C 256 77 832 -64 1171 -64 
C 1523 -64 1850 139 1990 511 
C 2003 233 2182 -18 2464 -18 
C 2598 -18 2938 70 2938 567 
L 2938 920 
L 2822 920 
L 2822 562 
C 2822 178 2650 128 2566 128 
C 2304 128 2304 458 2304 738 
L 2304 1653 
z
M 1965 870 
C 1965 317 1568 38 1216 38 
C 896 38 646 275 646 570 
C 646 761 730 1100 1101 1305 
C 1408 1478 1760 1504 1965 1504 
L 1965 870 
z
" transform="scale(0.015625)"/>
     <path id="CMR17-66" d="M 979 2560 
L 1709 2560 
L 1709 2725 
L 966 2725 
L 966 3494 
C 966 4022 1235 4352 1510 4352 
C 1594 4352 1690 4327 1754 4282 
C 1702 4269 1568 4225 1568 4067 
C 1568 3901 1696 3850 1786 3850 
C 1875 3850 2003 3901 2003 4067 
C 2003 4308 1773 4454 1517 4454 
C 1152 4454 653 4156 653 3481 
L 653 2725 
L 141 2725 
L 141 2560 
L 653 2560 
L 653 427 
C 653 184 627 153 218 153 
L 218 -13 
C 371 0 666 0 832 0 
C 1018 0 1344 0 1517 -13 
L 1517 153 
C 1056 153 979 153 979 439 
L 979 2560 
z
" transform="scale(0.015625)"/>
     <path id="CMR17-71" d="M 2630 2802 
L 2528 2802 
L 2336 2172 
C 2189 2509 1920 2802 1491 2802 
C 838 2802 211 2223 211 1383 
C 211 548 800 -38 1440 -38 
C 1933 -38 2208 338 2291 478 
L 2291 -789 
C 2291 -1031 2266 -1063 1856 -1063 
L 1856 -1228 
C 2010 -1216 2291 -1216 2458 -1216 
C 2624 -1216 2912 -1216 3066 -1228 
L 3066 -1063 
C 2656 -1063 2630 -1037 2630 -789 
L 2630 2802 
z
M 2304 886 
C 2304 612 2074 357 2054 338 
C 1856 115 1626 64 1472 64 
C 992 64 621 669 621 1375 
C 621 2121 1043 2688 1536 2688 
C 2048 2688 2304 2108 2304 1777 
L 2304 886 
z
" transform="scale(0.015625)"/>
     <path id="CMR17-63" d="M 2234 2240 
C 2112 2240 1933 2240 1933 2017 
C 1933 1838 2080 1787 2163 1787 
C 2208 1787 2394 1807 2394 2024 
C 2394 2467 1958 2803 1466 2803 
C 787 2803 211 2178 211 1363 
C 211 516 813 -64 1466 -64 
C 2259 -64 2458 677 2458 748 
C 2458 774 2451 793 2406 793 
C 2362 793 2355 787 2330 703 
C 2163 180 1798 51 1523 51 
C 1114 51 621 427 621 1369 
C 621 2338 1094 2688 1472 2688 
C 1722 2688 2093 2573 2234 2240 
z
" transform="scale(0.015625)"/>
    </defs>
    <use xlink:href="#CMR17-43" transform="scale(0.996264)"/>
    <use xlink:href="#CMR17-6f" transform="translate(66.509881 0) scale(0.996264)"/>
    <use xlink:href="#CMR17-6d" transform="translate(112.200358 0) scale(0.996264)"/>
    <use xlink:href="#CMR17-70" transform="translate(189.119948 0) scale(0.996264)"/>
    <use xlink:href="#CMR17-61" transform="translate(240.015317 0) scale(0.996264)"/>
    <use xlink:href="#CMR17-72" transform="translate(285.705794 0) scale(0.996264)"/>
    <use xlink:href="#CMR17-61" transform="translate(320.986562 0) scale(0.996264)"/>
    <use xlink:href="#CMR17-73" transform="translate(366.677039 0) scale(0.996264)"/>
    <use xlink:href="#CMR17-69" transform="translate(402.478377 0) scale(0.996264)"/>
    <use xlink:href="#CMR17-6f" transform="translate(427.349435 0) scale(0.996264)"/>
    <use xlink:href="#CMR17-6e" transform="translate(473.039913 0) scale(0.996264)"/>
    <use xlink:href="#CMR17-6f" transform="translate(554.011249 0) scale(0.996264)"/>
    <use xlink:href="#CMR17-66" transform="translate(599.701726 0) scale(0.996264)"/>
    <use xlink:href="#CMR17-66" transform="translate(657.251205 0) scale(0.996264)"/>
    <use xlink:href="#CMR17-72" transform="translate(684.724717 0) scale(0.996264)"/>
    <use xlink:href="#CMR17-65" transform="translate(720.005485 0) scale(0.996264)"/>
    <use xlink:href="#CMR17-71" transform="translate(760.491145 0) scale(0.996264)"/>
    <use xlink:href="#CMR17-75" transform="translate(808.784061 0) scale(0.996264)"/>
    <use xlink:href="#CMR17-65" transform="translate(859.679431 0) scale(0.996264)"/>
    <use xlink:href="#CMR17-6e" transform="translate(900.165091 0) scale(0.996264)"/>
    <use xlink:href="#CMR17-63" transform="translate(951.060461 0) scale(0.996264)"/>
    <use xlink:href="#CMR17-65" transform="translate(991.546122 0) scale(0.996264)"/>
    <use xlink:href="#CMR17-64" transform="translate(1062.107748 0) scale(0.996264)"/>
    <use xlink:href="#CMR17-61" transform="translate(1113.003118 0) scale(0.996264)"/>
    <use xlink:href="#CMR17-74" transform="translate(1158.693595 0) scale(0.996264)"/>
    <use xlink:href="#CMR17-61" transform="translate(1193.974363 0) scale(0.996264)"/>
    <use xlink:href="#CMR17-61" transform="translate(1269.740807 0) scale(0.996264)"/>
    <use xlink:href="#CMR17-6e" transform="translate(1315.431284 0) scale(0.996264)"/>
    <use xlink:href="#CMR17-64" transform="translate(1366.326653 0) scale(0.996264)"/>
    <use xlink:href="#CMR17-72" transform="translate(1447.29799 0) scale(0.996264)"/>
    <use xlink:href="#CMR17-65" transform="translate(1482.578757 0) scale(0.996264)"/>
    <use xlink:href="#CMR17-73" transform="translate(1523.064418 0) scale(0.996264)"/>
    <use xlink:href="#CMR17-75" transform="translate(1558.865755 0) scale(0.996264)"/>
    <use xlink:href="#CMR17-6c" transform="translate(1609.761125 0) scale(0.996264)"/>
    <use xlink:href="#CMR17-74" transform="translate(1634.632184 0) scale(0.996264)"/>
   </g>
  </g>
 </g>
 <defs>
  <clipPath id="pee9dadc92c">
   <rect x="108" y="43.2" width="669.6" height="138.6"/>
  </clipPath>
  <clipPath id="p6e963bed08">
   <rect x="108" y="181.8" width="669.6" height="138.6"/>
  </clipPath>
 </defs>
</svg>
