<?xml version="1.0" encoding="utf-8" standalone="no"?>
<!DOCTYPE svg PUBLIC "-//W3C//DTD SVG 1.1//EN"
  "http://www.w3.org/Graphics/SVG/1.1/DTD/svg11.dtd">
<svg xmlns:xlink="http://www.w3.org/1999/xlink" width="864pt" height="360pt" viewBox="0 0 864 360" xmlns="http://www.w3.org/2000/svg" version="1.1">
 <metadata>
  <rdf:RDF xmlns:dc="http://purl.org/dc/elements/1.1/" xmlns:cc="http://creativecommons.org/ns#" xmlns:rdf="http://www.w3.org/1999/02/22-rdf-syntax-ns#">
   <cc:Work>
    <dc:type rdf:resource="http://purl.org/dc/dcmitype/StillImage"/>
    <dc:date>2023-07-26T17:08:54.174667</dc:date>
    <dc:format>image/svg+xml</dc:format>
    <dc:creator>
     <cc:Agent>
      <dc:title>Matplotlib v3.7.1, https://matplotlib.org/</dc:title>
     </cc:Agent>
    </dc:creator>
   </cc:Work>
  </rdf:RDF>
 </metadata>
 <defs>
  <style type="text/css">*{stroke-linejoin: round; stroke-linecap: butt}</style>
 </defs>
 <g id="figure_1">
  <g id="patch_1">
   <path d="M 0 360 
L 864 360 
L 864 0 
L 0 0 
z
" style="fill: #ffffff"/>
  </g>
  <g id="axes_1">
   <g id="patch_2">
    <path d="M 108 320.4 
L 777.6 320.4 
L 777.6 43.2 
L 108 43.2 
z
" style="fill: #ffffff"/>
   </g>
   <g id="matplotlib.axis_1">
    <g id="xtick_1">
     <g id="line2d_1">
      <path d="M 138.436364 320.4 
L 138.436364 43.2 
" clip-path="url(#pb427ea02b4)" style="fill: none; stroke: #b0b0b0; stroke-width: 0.8; stroke-linecap: square"/>
     </g>
     <g id="line2d_2">
      <defs>
       <path id="mffc281cd71" d="M 0 0 
L 0 3.5 
" style="stroke: #000000; stroke-width: 0.8"/>
      </defs>
      <g>
       <use xlink:href="#mffc281cd71" x="138.436364" y="320.4" style="stroke: #000000; stroke-width: 0.8"/>
      </g>
     </g>
     <g id="text_1">
      <!-- $\mathdefault{0}$ -->
      <g transform="translate(135.265994 336.394028) scale(0.13 -0.13)">
       <defs>
        <path id="CMR17-30" d="M 2688 2025 
C 2688 2416 2682 3080 2413 3591 
C 2176 4039 1798 4198 1466 4198 
C 1158 4198 768 4058 525 3597 
C 269 3118 243 2524 243 2025 
C 243 1661 250 1106 448 619 
C 723 -39 1216 -128 1466 -128 
C 1760 -128 2208 -7 2470 600 
C 2662 1042 2688 1559 2688 2025 
z
M 1466 -26 
C 1056 -26 813 325 723 812 
C 653 1188 653 1738 653 2096 
C 653 2588 653 2997 736 3387 
C 858 3929 1216 4096 1466 4096 
C 1728 4096 2067 3923 2189 3400 
C 2272 3036 2278 2607 2278 2096 
C 2278 1680 2278 1169 2202 792 
C 2067 95 1690 -26 1466 -26 
z
" transform="scale(0.015625)"/>
       </defs>
       <use xlink:href="#CMR17-30" transform="scale(0.996264)"/>
      </g>
     </g>
    </g>
    <g id="xtick_2">
     <g id="line2d_3">
      <path d="M 285.046978 320.4 
L 285.046978 43.2 
" clip-path="url(#pb427ea02b4)" style="fill: none; stroke: #b0b0b0; stroke-width: 0.8; stroke-linecap: square"/>
     </g>
     <g id="line2d_4">
      <g>
       <use xlink:href="#mffc281cd71" x="285.046978" y="320.4" style="stroke: #000000; stroke-width: 0.8"/>
      </g>
     </g>
     <g id="text_2">
      <!-- $\mathdefault{5}$ -->
      <g transform="translate(281.876609 336.394028) scale(0.13 -0.13)">
       <defs>
        <path id="CMR17-35" d="M 730 3692 
C 794 3666 1056 3584 1325 3584 
C 1920 3584 2246 3911 2432 4100 
C 2432 4157 2432 4192 2394 4192 
C 2387 4192 2374 4192 2323 4163 
C 2099 4058 1837 3973 1517 3973 
C 1325 3973 1037 3999 723 4139 
C 653 4171 640 4171 634 4171 
C 602 4171 595 4164 595 4037 
L 595 2203 
C 595 2089 595 2057 659 2057 
C 691 2057 704 2070 736 2114 
C 941 2401 1222 2522 1542 2522 
C 1766 2522 2246 2382 2246 1289 
C 2246 1085 2246 715 2054 421 
C 1894 159 1645 25 1370 25 
C 947 25 518 320 403 814 
C 429 807 480 795 506 795 
C 589 795 749 840 749 1038 
C 749 1210 627 1280 506 1280 
C 358 1280 262 1190 262 1011 
C 262 454 704 -128 1382 -128 
C 2042 -128 2669 440 2669 1264 
C 2669 2030 2170 2624 1549 2624 
C 1222 2624 947 2503 730 2274 
L 730 3692 
z
" transform="scale(0.015625)"/>
       </defs>
       <use xlink:href="#CMR17-35" transform="scale(0.996264)"/>
      </g>
     </g>
    </g>
    <g id="xtick_3">
     <g id="line2d_5">
      <path d="M 431.657593 320.4 
L 431.657593 43.2 
" clip-path="url(#pb427ea02b4)" style="fill: none; stroke: #b0b0b0; stroke-width: 0.8; stroke-linecap: square"/>
     </g>
     <g id="line2d_6">
      <g>
       <use xlink:href="#mffc281cd71" x="431.657593" y="320.4" style="stroke: #000000; stroke-width: 0.8"/>
      </g>
     </g>
     <g id="text_3">
      <!-- $\mathdefault{10}$ -->
      <g transform="translate(425.316854 336.394028) scale(0.13 -0.13)">
       <defs>
        <path id="CMR17-31" d="M 1702 4058 
C 1702 4192 1696 4192 1606 4192 
C 1357 3916 979 3827 621 3827 
C 602 3827 570 3827 563 3808 
C 557 3795 557 3782 557 3648 
C 755 3648 1088 3686 1344 3839 
L 1344 461 
C 1344 236 1331 160 781 160 
L 589 160 
L 589 0 
C 896 0 1216 0 1523 0 
C 1830 0 2150 0 2458 0 
L 2458 160 
L 2266 160 
C 1715 160 1702 230 1702 458 
L 1702 4058 
z
" transform="scale(0.015625)"/>
       </defs>
       <use xlink:href="#CMR17-31" transform="scale(0.996264)"/>
       <use xlink:href="#CMR17-30" transform="translate(45.690477 0) scale(0.996264)"/>
      </g>
     </g>
    </g>
    <g id="xtick_4">
     <g id="line2d_7">
      <path d="M 578.268208 320.4 
L 578.268208 43.2 
" clip-path="url(#pb427ea02b4)" style="fill: none; stroke: #b0b0b0; stroke-width: 0.8; stroke-linecap: square"/>
     </g>
     <g id="line2d_8">
      <g>
       <use xlink:href="#mffc281cd71" x="578.268208" y="320.4" style="stroke: #000000; stroke-width: 0.8"/>
      </g>
     </g>
     <g id="text_4">
      <!-- $\mathdefault{15}$ -->
      <g transform="translate(571.927469 336.394028) scale(0.13 -0.13)">
       <use xlink:href="#CMR17-31" transform="scale(0.996264)"/>
       <use xlink:href="#CMR17-35" transform="translate(45.690477 0) scale(0.996264)"/>
      </g>
     </g>
    </g>
    <g id="xtick_5">
     <g id="line2d_9">
      <path d="M 724.878823 320.4 
L 724.878823 43.2 
" clip-path="url(#pb427ea02b4)" style="fill: none; stroke: #b0b0b0; stroke-width: 0.8; stroke-linecap: square"/>
     </g>
     <g id="line2d_10">
      <g>
       <use xlink:href="#mffc281cd71" x="724.878823" y="320.4" style="stroke: #000000; stroke-width: 0.8"/>
      </g>
     </g>
     <g id="text_5">
      <!-- $\mathdefault{20}$ -->
      <g transform="translate(718.538083 336.394028) scale(0.13 -0.13)">
       <defs>
        <path id="CMR17-32" d="M 2669 989 
L 2554 989 
C 2490 536 2438 459 2413 420 
C 2381 369 1920 369 1830 369 
L 602 369 
C 832 619 1280 1072 1824 1597 
C 2214 1967 2669 2402 2669 3035 
C 2669 3790 2067 4224 1395 4224 
C 691 4224 262 3604 262 3030 
C 262 2780 448 2748 525 2748 
C 589 2748 781 2787 781 3010 
C 781 3207 614 3264 525 3264 
C 486 3264 448 3258 422 3245 
C 544 3790 915 4058 1306 4058 
C 1862 4058 2227 3617 2227 3035 
C 2227 2479 1901 2000 1536 1584 
L 262 146 
L 262 0 
L 2515 0 
L 2669 989 
z
" transform="scale(0.015625)"/>
       </defs>
       <use xlink:href="#CMR17-32" transform="scale(0.996264)"/>
       <use xlink:href="#CMR17-30" transform="translate(45.690477 0) scale(0.996264)"/>
      </g>
     </g>
    </g>
    <g id="text_6">
     <!-- $t$ (s) -->
     <g transform="translate(430.963961 352.625914) scale(0.13 -0.13)">
      <defs>
       <path id="CMMI12-74" d="M 1286 2566 
L 1875 2566 
C 1997 2566 2061 2566 2061 2681 
C 2061 2752 2022 2752 1894 2752 
L 1331 2752 
L 1568 3692 
C 1594 3781 1594 3794 1594 3840 
C 1594 3943 1510 4000 1427 4000 
C 1376 4000 1229 3981 1178 3775 
L 928 2752 
L 326 2752 
C 198 2752 141 2752 141 2630 
C 141 2566 186 2566 307 2566 
L 877 2566 
L 454 881 
C 403 658 384 594 384 511 
C 384 211 595 -64 954 -64 
C 1600 -64 1946 868 1946 912 
C 1946 951 1920 970 1882 970 
C 1869 970 1843 970 1830 944 
C 1824 938 1818 931 1773 829 
C 1638 511 1344 64 973 64 
C 781 64 768 224 768 364 
C 768 370 768 492 787 568 
L 1286 2566 
z
" transform="scale(0.015625)"/>
       <path id="CMR17-28" d="M 1958 -1561 
C 1958 -1555 1958 -1542 1939 -1523 
C 1645 -1224 858 -407 858 1581 
C 858 3569 1632 4379 1946 4697 
C 1946 4704 1958 4717 1958 4736 
C 1958 4755 1939 4768 1914 4768 
C 1843 4768 1299 4296 986 3594 
C 666 2887 576 2199 576 1588 
C 576 1128 621 351 1005 -471 
C 1312 -1135 1837 -1600 1914 -1600 
C 1946 -1600 1958 -1587 1958 -1561 
z
" transform="scale(0.015625)"/>
       <path id="CMR17-73" d="M 1978 2697 
C 1978 2813 1971 2819 1933 2819 
C 1907 2819 1901 2813 1824 2717 
C 1805 2691 1747 2626 1728 2601 
C 1523 2819 1235 2819 1126 2819 
C 416 2819 160 2447 160 2076 
C 160 1498 813 1365 998 1325 
C 1402 1243 1542 1217 1677 1101 
C 1760 1025 1901 884 1901 654 
C 1901 384 1747 38 1158 38 
C 602 38 403 460 288 1021 
C 269 1110 269 1117 218 1117 
C 166 1117 160 1110 160 983 
L 160 63 
C 160 -51 166 -58 205 -58 
C 237 -58 243 -51 275 0 
C 314 57 410 211 448 276 
C 576 103 800 -64 1158 -64 
C 1792 -64 2131 283 2131 784 
C 2131 1112 1958 1285 1875 1362 
C 1683 1561 1459 1606 1190 1657 
C 838 1735 390 1825 390 2217 
C 390 2383 480 2737 1126 2737 
C 1811 2737 1850 2094 1862 1888 
C 1869 1856 1901 1849 1920 1849 
C 1978 1849 1978 1869 1978 1978 
L 1978 2697 
z
" transform="scale(0.015625)"/>
       <path id="CMR17-29" d="M 1683 1581 
C 1683 2040 1638 2817 1254 3639 
C 947 4303 422 4768 346 4768 
C 326 4768 301 4761 301 4729 
C 301 4717 307 4710 314 4697 
C 621 4378 1402 3568 1402 1584 
C 1402 -407 627 -1217 314 -1537 
C 307 -1549 301 -1556 301 -1568 
C 301 -1600 326 -1600 346 -1600 
C 416 -1600 960 -1128 1274 -426 
C 1594 281 1683 969 1683 1581 
z
" transform="scale(0.015625)"/>
      </defs>
      <use xlink:href="#CMMI12-74" transform="scale(0.996264)"/>
      <use xlink:href="#CMR17-28" transform="translate(65.302297 0) scale(0.996264)"/>
      <use xlink:href="#CMR17-73" transform="translate(100.583064 0) scale(0.996264)"/>
      <use xlink:href="#CMR17-29" transform="translate(136.384402 0) scale(0.996264)"/>
     </g>
    </g>
   </g>
   <g id="matplotlib.axis_2">
    <g id="ytick_1">
     <g id="line2d_11">
      <path d="M 108 301.580496 
L 777.6 301.580496 
" clip-path="url(#pb427ea02b4)" style="fill: none; stroke: #b0b0b0; stroke-width: 0.8; stroke-linecap: square"/>
     </g>
     <g id="line2d_12">
      <defs>
       <path id="m179c69144c" d="M 0 0 
L -3.5 0 
" style="stroke: #000000; stroke-width: 0.8"/>
      </defs>
      <g>
       <use xlink:href="#m179c69144c" x="108" y="301.580496" style="stroke: #000000; stroke-width: 0.8"/>
      </g>
     </g>
     <g id="text_7">
      <!-- $\mathdefault{−0.03}$ -->
      <g transform="translate(68.381779 306.07751) scale(0.13 -0.13)">
       <defs>
        <path id="CMSY10-0" d="M 4218 1472 
C 4326 1472 4442 1472 4442 1600 
C 4442 1728 4326 1728 4218 1728 
L 755 1728 
C 646 1728 531 1728 531 1600 
C 531 1472 646 1472 755 1472 
L 4218 1472 
z
" transform="scale(0.015625)"/>
        <path id="CMMI12-3a" d="M 1178 307 
C 1178 492 1024 619 870 619 
C 685 619 557 466 557 313 
C 557 128 710 0 864 0 
C 1050 0 1178 153 1178 307 
z
" transform="scale(0.015625)"/>
        <path id="CMR17-33" d="M 1414 2157 
C 1984 2157 2234 1662 2234 1090 
C 2234 320 1824 25 1453 25 
C 1114 25 563 194 390 693 
C 422 680 454 680 486 680 
C 640 680 755 782 755 948 
C 755 1133 614 1216 486 1216 
C 378 1216 211 1165 211 926 
C 211 335 787 -128 1466 -128 
C 2176 -128 2720 430 2720 1085 
C 2720 1707 2208 2157 1600 2227 
C 2086 2328 2554 2756 2554 3329 
C 2554 3820 2048 4179 1472 4179 
C 890 4179 378 3829 378 3329 
C 378 3110 544 3072 627 3072 
C 762 3072 877 3155 877 3321 
C 877 3486 762 3569 627 3569 
C 602 3569 570 3569 544 3557 
C 730 3959 1235 4032 1459 4032 
C 1683 4032 2106 3925 2106 3320 
C 2106 3143 2080 2828 1862 2550 
C 1670 2304 1453 2304 1242 2284 
C 1210 2284 1062 2269 1037 2269 
C 992 2263 966 2257 966 2208 
C 966 2163 973 2157 1101 2157 
L 1414 2157 
z
" transform="scale(0.015625)"/>
       </defs>
       <use xlink:href="#CMSY10-0" transform="scale(0.996264)"/>
       <use xlink:href="#CMR17-30" transform="translate(77.487468 0) scale(0.996264)"/>
       <use xlink:href="#CMMI12-3a" transform="translate(123.177945 0) scale(0.996264)"/>
       <use xlink:href="#CMR17-30" transform="translate(150.275122 0) scale(0.996264)"/>
       <use xlink:href="#CMR17-33" transform="translate(195.965599 0) scale(0.996264)"/>
      </g>
     </g>
    </g>
    <g id="ytick_2">
     <g id="line2d_13">
      <path d="M 108 250.299156 
L 777.6 250.299156 
" clip-path="url(#pb427ea02b4)" style="fill: none; stroke: #b0b0b0; stroke-width: 0.8; stroke-linecap: square"/>
     </g>
     <g id="line2d_14">
      <g>
       <use xlink:href="#m179c69144c" x="108" y="250.299156" style="stroke: #000000; stroke-width: 0.8"/>
      </g>
     </g>
     <g id="text_8">
      <!-- $\mathdefault{−0.02}$ -->
      <g transform="translate(68.381779 254.79617) scale(0.13 -0.13)">
       <use xlink:href="#CMSY10-0" transform="scale(0.996264)"/>
       <use xlink:href="#CMR17-30" transform="translate(77.487468 0) scale(0.996264)"/>
       <use xlink:href="#CMMI12-3a" transform="translate(123.177945 0) scale(0.996264)"/>
       <use xlink:href="#CMR17-30" transform="translate(150.275122 0) scale(0.996264)"/>
       <use xlink:href="#CMR17-32" transform="translate(195.965599 0) scale(0.996264)"/>
      </g>
     </g>
    </g>
    <g id="ytick_3">
     <g id="line2d_15">
      <path d="M 108 199.017816 
L 777.6 199.017816 
" clip-path="url(#pb427ea02b4)" style="fill: none; stroke: #b0b0b0; stroke-width: 0.8; stroke-linecap: square"/>
     </g>
     <g id="line2d_16">
      <g>
       <use xlink:href="#m179c69144c" x="108" y="199.017816" style="stroke: #000000; stroke-width: 0.8"/>
      </g>
     </g>
     <g id="text_9">
      <!-- $\mathdefault{−0.01}$ -->
      <g transform="translate(68.381779 203.51483) scale(0.13 -0.13)">
       <use xlink:href="#CMSY10-0" transform="scale(0.996264)"/>
       <use xlink:href="#CMR17-30" transform="translate(77.487468 0) scale(0.996264)"/>
       <use xlink:href="#CMMI12-3a" transform="translate(123.177945 0) scale(0.996264)"/>
       <use xlink:href="#CMR17-30" transform="translate(150.275122 0) scale(0.996264)"/>
       <use xlink:href="#CMR17-31" transform="translate(195.965599 0) scale(0.996264)"/>
      </g>
     </g>
    </g>
    <g id="ytick_4">
     <g id="line2d_17">
      <path d="M 108 147.736476 
L 777.6 147.736476 
" clip-path="url(#pb427ea02b4)" style="fill: none; stroke: #b0b0b0; stroke-width: 0.8; stroke-linecap: square"/>
     </g>
     <g id="line2d_18">
      <g>
       <use xlink:href="#m179c69144c" x="108" y="147.736476" style="stroke: #000000; stroke-width: 0.8"/>
      </g>
     </g>
     <g id="text_10">
      <!-- $\mathdefault{0.00}$ -->
      <g transform="translate(78.455149 152.23349) scale(0.13 -0.13)">
       <use xlink:href="#CMR17-30" transform="scale(0.996264)"/>
       <use xlink:href="#CMMI12-3a" transform="translate(45.690477 0) scale(0.996264)"/>
       <use xlink:href="#CMR17-30" transform="translate(72.787654 0) scale(0.996264)"/>
       <use xlink:href="#CMR17-30" transform="translate(118.478131 0) scale(0.996264)"/>
      </g>
     </g>
    </g>
    <g id="ytick_5">
     <g id="line2d_19">
      <path d="M 108 96.455136 
L 777.6 96.455136 
" clip-path="url(#pb427ea02b4)" style="fill: none; stroke: #b0b0b0; stroke-width: 0.8; stroke-linecap: square"/>
     </g>
     <g id="line2d_20">
      <g>
       <use xlink:href="#m179c69144c" x="108" y="96.455136" style="stroke: #000000; stroke-width: 0.8"/>
      </g>
     </g>
     <g id="text_11">
      <!-- $\mathdefault{0.01}$ -->
      <g transform="translate(78.455149 100.95215) scale(0.13 -0.13)">
       <use xlink:href="#CMR17-30" transform="scale(0.996264)"/>
       <use xlink:href="#CMMI12-3a" transform="translate(45.690477 0) scale(0.996264)"/>
       <use xlink:href="#CMR17-30" transform="translate(72.787654 0) scale(0.996264)"/>
       <use xlink:href="#CMR17-31" transform="translate(118.478131 0) scale(0.996264)"/>
      </g>
     </g>
    </g>
    <g id="ytick_6">
     <g id="line2d_21">
      <path d="M 108 45.173797 
L 777.6 45.173797 
" clip-path="url(#pb427ea02b4)" style="fill: none; stroke: #b0b0b0; stroke-width: 0.8; stroke-linecap: square"/>
     </g>
     <g id="line2d_22">
      <g>
       <use xlink:href="#m179c69144c" x="108" y="45.173797" style="stroke: #000000; stroke-width: 0.8"/>
      </g>
     </g>
     <g id="text_12">
      <!-- $\mathdefault{0.02}$ -->
      <g transform="translate(78.455149 49.670811) scale(0.13 -0.13)">
       <use xlink:href="#CMR17-30" transform="scale(0.996264)"/>
       <use xlink:href="#CMMI12-3a" transform="translate(45.690477 0) scale(0.996264)"/>
       <use xlink:href="#CMR17-30" transform="translate(72.787654 0) scale(0.996264)"/>
       <use xlink:href="#CMR17-32" transform="translate(118.478131 0) scale(0.996264)"/>
      </g>
     </g>
    </g>
    <g id="text_13">
     <!-- displacement (m) -->
     <g transform="translate(61.143921 229.919159) rotate(-90) scale(0.13 -0.13)">
      <defs>
       <path id="CMR17-64" d="M 1869 4326 
L 1869 4160 
C 2246 4160 2304 4122 2304 3820 
L 2304 2345 
C 2278 2377 2016 2790 1498 2790 
C 845 2790 211 2208 211 1364 
C 211 525 806 -64 1434 -64 
C 1978 -64 2259 337 2291 380 
L 2291 -63 
L 3066 -63 
L 3066 128 
C 2688 128 2630 166 2630 473 
L 2630 4396 
L 1869 4326 
z
M 2291 755 
C 2291 563 2176 390 2029 262 
C 1811 70 1594 38 1472 38 
C 1286 38 621 134 621 1356 
C 621 2612 1363 2688 1530 2688 
C 1824 2688 2061 2522 2208 2291 
C 2291 2157 2291 2138 2291 2023 
L 2291 755 
z
" transform="scale(0.015625)"/>
       <path id="CMR17-69" d="M 992 3909 
C 992 4049 877 4170 730 4170 
C 589 4170 467 4056 467 3909 
C 467 3769 582 3648 730 3648 
C 870 3648 992 3763 992 3909 
z
M 243 2706 
L 243 2541 
C 602 2541 653 2502 653 2197 
L 653 427 
C 653 184 627 153 218 153 
L 218 -13 
C 371 0 646 0 806 0 
C 960 0 1222 0 1370 -13 
L 1370 153 
C 992 153 979 191 979 420 
L 979 2776 
L 243 2706 
z
" transform="scale(0.015625)"/>
       <path id="CMR17-70" d="M 1408 -1063 
C 998 -1063 973 -1037 973 -789 
L 973 402 
C 1158 134 1427 -38 1766 -38 
C 2406 -38 3053 523 3053 1388 
C 3053 2191 2496 2802 1837 2802 
C 1453 2802 1139 2592 960 2338 
L 960 2802 
L 198 2732 
L 198 2567 
C 576 2567 634 2528 634 2223 
L 634 -789 
C 634 -1031 608 -1063 198 -1063 
L 198 -1228 
C 352 -1216 634 -1216 800 -1216 
C 966 -1216 1254 -1216 1408 -1228 
L 1408 -1063 
z
M 973 2012 
C 973 2102 973 2235 1222 2471 
C 1254 2497 1472 2688 1792 2688 
C 2259 2688 2643 2108 2643 1382 
C 2643 656 2234 64 1728 64 
C 1498 64 1248 172 1056 472 
C 973 612 973 650 973 752 
L 973 2012 
z
" transform="scale(0.015625)"/>
       <path id="CMR17-6c" d="M 979 4396 
L 218 4326 
L 218 4160 
C 595 4160 653 4122 653 3817 
L 653 426 
C 653 184 627 153 218 153 
L 218 -13 
C 371 0 653 0 813 0 
C 979 0 1261 0 1414 -13 
L 1414 153 
C 1005 153 979 178 979 426 
L 979 4396 
z
" transform="scale(0.015625)"/>
       <path id="CMR17-61" d="M 2304 1653 
C 2304 2072 2304 2294 2035 2543 
C 1798 2752 1523 2816 1306 2816 
C 800 2816 435 2407 435 1971 
C 435 1728 627 1728 666 1728 
C 749 1728 896 1778 896 1954 
C 896 2112 774 2181 666 2181 
C 640 2181 608 2174 589 2168 
C 723 2592 1069 2714 1293 2714 
C 1613 2714 1965 2429 1965 1885 
L 1965 1600 
C 1587 1600 1133 1549 774 1357 
C 371 1133 256 813 256 570 
C 256 77 832 -64 1171 -64 
C 1523 -64 1850 139 1990 511 
C 2003 233 2182 -18 2464 -18 
C 2598 -18 2938 70 2938 567 
L 2938 920 
L 2822 920 
L 2822 562 
C 2822 178 2650 128 2566 128 
C 2304 128 2304 458 2304 738 
L 2304 1653 
z
M 1965 870 
C 1965 317 1568 38 1216 38 
C 896 38 646 275 646 570 
C 646 761 730 1100 1101 1305 
C 1408 1478 1760 1504 1965 1504 
L 1965 870 
z
" transform="scale(0.015625)"/>
       <path id="CMR17-63" d="M 2234 2240 
C 2112 2240 1933 2240 1933 2017 
C 1933 1838 2080 1787 2163 1787 
C 2208 1787 2394 1807 2394 2024 
C 2394 2467 1958 2803 1466 2803 
C 787 2803 211 2178 211 1363 
C 211 516 813 -64 1466 -64 
C 2259 -64 2458 677 2458 748 
C 2458 774 2451 793 2406 793 
C 2362 793 2355 787 2330 703 
C 2163 180 1798 51 1523 51 
C 1114 51 621 427 621 1369 
C 621 2338 1094 2688 1472 2688 
C 1722 2688 2093 2573 2234 2240 
z
" transform="scale(0.015625)"/>
       <path id="CMR17-65" d="M 2438 1472 
C 2464 1498 2464 1511 2464 1576 
C 2464 2238 2118 2816 1389 2816 
C 710 2816 173 2169 173 1383 
C 173 551 781 -64 1459 -64 
C 2176 -64 2458 607 2458 740 
C 2458 784 2419 784 2406 784 
C 2362 784 2355 771 2330 696 
C 2189 265 1837 51 1504 51 
C 1229 51 954 203 781 480 
C 582 803 582 1176 582 1472 
L 2438 1472 
z
M 589 1568 
C 634 2505 1126 2714 1382 2714 
C 1818 2714 2112 2297 2118 1568 
L 589 1568 
z
" transform="scale(0.015625)"/>
       <path id="CMR17-6d" d="M 4326 1933 
C 4326 2252 4269 2790 3507 2790 
C 3072 2790 2771 2496 2656 2151 
L 2650 2151 
C 2573 2676 2195 2790 1837 2790 
C 1331 2790 1069 2400 973 2144 
L 966 2144 
L 966 2790 
L 211 2720 
L 211 2554 
C 589 2554 646 2515 646 2208 
L 646 428 
C 646 184 621 153 211 153 
L 211 -13 
C 365 0 646 0 813 0 
C 979 0 1267 0 1421 -13 
L 1421 153 
C 1011 153 986 178 986 428 
L 986 1658 
C 986 2247 1344 2688 1792 2688 
C 2266 2688 2317 2266 2317 1958 
L 2317 428 
C 2317 184 2291 153 1882 153 
L 1882 -13 
C 2035 0 2317 0 2483 0 
C 2650 0 2938 0 3091 -13 
L 3091 153 
C 2682 153 2656 178 2656 428 
L 2656 1658 
C 2656 2247 3014 2688 3462 2688 
C 3936 2688 3987 2266 3987 1958 
L 3987 428 
C 3987 184 3962 153 3552 153 
L 3552 -13 
C 3706 0 3987 0 4154 0 
C 4320 0 4608 0 4762 -13 
L 4762 153 
C 4352 153 4326 178 4326 428 
L 4326 1933 
z
" transform="scale(0.015625)"/>
       <path id="CMR17-6e" d="M 2656 1933 
C 2656 2259 2592 2790 1837 2790 
C 1331 2790 1069 2400 973 2144 
L 966 2144 
L 966 2790 
L 211 2720 
L 211 2554 
C 589 2554 646 2515 646 2208 
L 646 428 
C 646 184 621 153 211 153 
L 211 -13 
C 365 0 646 0 813 0 
C 979 0 1267 0 1421 -13 
L 1421 153 
C 1011 153 986 178 986 428 
L 986 1658 
C 986 2247 1344 2688 1792 2688 
C 2266 2688 2317 2266 2317 1958 
L 2317 428 
C 2317 184 2291 153 1882 153 
L 1882 -13 
C 2035 0 2317 0 2483 0 
C 2650 0 2938 0 3091 -13 
L 3091 153 
C 2682 153 2656 178 2656 428 
L 2656 1933 
z
" transform="scale(0.015625)"/>
       <path id="CMR17-74" d="M 966 2560 
L 1862 2560 
L 1862 2725 
L 966 2725 
L 966 3904 
L 851 3904 
C 838 3245 614 2668 70 2668 
L 70 2560 
L 627 2560 
L 627 771 
C 627 650 627 -64 1370 -64 
C 1747 -64 1965 306 1965 777 
L 1965 1140 
L 1850 1140 
L 1850 783 
C 1850 344 1677 51 1408 51 
C 1222 51 966 178 966 758 
L 966 2560 
z
" transform="scale(0.015625)"/>
      </defs>
      <use xlink:href="#CMR17-64" transform="scale(0.996264)"/>
      <use xlink:href="#CMR17-69" transform="translate(50.89537 0) scale(0.996264)"/>
      <use xlink:href="#CMR17-73" transform="translate(75.766428 0) scale(0.996264)"/>
      <use xlink:href="#CMR17-70" transform="translate(111.567766 0) scale(0.996264)"/>
      <use xlink:href="#CMR17-6c" transform="translate(162.463136 0) scale(0.996264)"/>
      <use xlink:href="#CMR17-61" transform="translate(187.334194 0) scale(0.996264)"/>
      <use xlink:href="#CMR17-63" transform="translate(233.024671 0) scale(0.996264)"/>
      <use xlink:href="#CMR17-65" transform="translate(273.510332 0) scale(0.996264)"/>
      <use xlink:href="#CMR17-6d" transform="translate(313.995992 0) scale(0.996264)"/>
      <use xlink:href="#CMR17-65" transform="translate(390.915582 0) scale(0.996264)"/>
      <use xlink:href="#CMR17-6e" transform="translate(431.401243 0) scale(0.996264)"/>
      <use xlink:href="#CMR17-74" transform="translate(479.694158 0) scale(0.996264)"/>
      <use xlink:href="#CMR17-28" transform="translate(545.050893 0) scale(0.996264)"/>
      <use xlink:href="#CMR17-6d" transform="translate(580.33166 0) scale(0.996264)"/>
      <use xlink:href="#CMR17-29" transform="translate(657.25125 0) scale(0.996264)"/>
     </g>
    </g>
   </g>
   <g id="line2d_23">
    <path d="M 138.436364 155.453097 
L 139.022806 146.919316 
L 139.609249 141.002238 
L 140.195691 137.319111 
L 140.782133 135.487185 
L 141.075355 135.145812 
L 141.368576 135.123709 
L 141.661797 135.37303 
L 142.24824 136.494571 
L 143.421125 139.889621 
L 144.007567 141.397629 
L 144.594009 142.284473 
L 145.180452 142.539753 
L 146.353337 142.556879 
L 146.646558 142.722285 
L 146.939779 143.042628 
L 147.233001 143.563152 
L 147.819443 145.274477 
L 148.699107 149.013865 
L 150.458434 156.944478 
L 151.92454 161.627737 
L 152.804204 164.887137 
L 153.683868 169.479356 
L 154.856752 177.341125 
L 156.909301 191.240483 
L 158.082186 199.25128 
L 158.96185 206.873629 
L 160.134735 219.865625 
L 161.30762 232.501239 
L 161.894062 237.223477 
L 162.480504 240.557564 
L 163.066947 242.810115 
L 163.653389 244.30687 
L 164.533053 245.847447 
L 165.705938 247.964649 
L 166.585602 250.076041 
L 167.465265 252.924272 
L 169.811035 262.05483 
L 170.397478 263.18054 
L 170.690699 263.371657 
L 170.98392 263.314313 
L 171.277141 263.026659 
L 171.863584 261.833024 
L 172.450026 259.935958 
L 173.32969 256.089063 
L 175.089017 246.672484 
L 176.261902 240.880483 
L 177.141566 237.663393 
L 177.728008 236.210438 
L 178.314451 235.375134 
L 178.607672 235.206305 
L 178.900893 235.212535 
L 179.194115 235.400706 
L 179.780557 236.29604 
L 180.660221 238.462222 
L 181.833106 241.463898 
L 182.419548 242.413191 
L 183.005991 242.871136 
L 183.592433 243.025938 
L 184.765318 243.218038 
L 185.35176 243.642942 
L 186.231424 244.74493 
L 187.111088 245.81065 
L 187.69753 246.162726 
L 187.990751 246.155135 
L 188.577194 245.731814 
L 190.0433 243.992154 
L 190.336521 243.840245 
L 190.629743 243.844917 
L 190.922964 244.045274 
L 191.509406 245.083209 
L 192.38907 247.690807 
L 193.561955 251.424385 
L 194.148397 252.679761 
L 194.73484 253.314764 
L 195.321282 253.429909 
L 195.907725 253.134756 
L 196.494167 252.538864 
L 197.373831 251.295102 
L 198.253494 249.640774 
L 199.133158 247.428407 
L 200.012822 244.516924 
L 201.185707 240.450413 
L 201.772149 239.231177 
L 202.06537 239.007263 
L 202.358592 239.109893 
L 202.651813 239.591124 
L 203.238255 241.686128 
L 204.997583 249.782195 
L 205.290804 250.27678 
L 205.584025 250.242991 
L 205.877246 249.584135 
L 206.170468 248.242993 
L 206.75691 243.324439 
L 207.343353 235.108507 
L 207.929795 223.216377 
L 208.516238 207.269228 
L 209.395901 176.059693 
L 211.741671 86.475361 
L 212.328114 71.097677 
L 212.914556 60.646032 
L 213.207777 57.495347 
L 213.500998 55.84962 
L 213.79422 55.8 
L 214.087441 57.437636 
L 214.380662 60.853677 
L 214.967105 72.954939 
L 215.553547 90.679816 
L 216.726432 135.582007 
L 218.192538 190.338749 
L 218.778981 205.955994 
L 219.365423 215.280922 
L 219.658644 217.021575 
L 219.951865 216.514521 
L 220.245087 213.623966 
L 220.831529 201.663621 
L 221.417972 183.52849 
L 224.056963 90.176055 
L 224.643405 78.207837 
L 224.936626 74.399124 
L 225.229848 72.235161 
L 225.523069 71.861809 
L 225.81629 73.424931 
L 226.109511 76.998624 
L 226.695954 89.25407 
L 227.575617 116.136328 
L 229.041724 164.659923 
L 229.921387 185.832195 
L 230.50783 195.092823 
L 230.801051 198.098486 
L 231.094272 199.946209 
L 231.387493 200.579864 
L 231.680715 199.943322 
L 231.973936 198.007155 
L 232.560378 190.57213 
L 233.146821 179.080655 
L 234.026484 156.05884 
L 236.372254 86.565935 
L 236.958697 77.212731 
L 237.251918 75.218656 
L 237.545139 75.373622 
L 237.83836 77.847288 
L 238.131582 82.405877 
L 238.718024 96.439278 
L 239.890909 134.801161 
L 240.770573 162.094272 
L 241.357015 175.921933 
L 241.943458 185.953744 
L 242.5299 192.130615 
L 242.823121 193.754981 
L 243.116343 194.393452 
L 243.409564 194.038642 
L 243.702785 192.694104 
L 243.996006 190.407151 
L 244.582449 183.239007 
L 245.168891 173.00023 
L 246.048555 152.904043 
L 248.394325 93.484229 
L 248.687546 89.39161 
L 248.980767 86.86658 
L 249.273988 86.157355 
L 249.56721 87.432723 
L 249.860431 90.543751 
L 250.446873 101.359347 
L 251.326537 125.641174 
L 253.379086 188.85575 
L 253.965528 202.070465 
L 254.551971 210.999543 
L 254.845192 213.502043 
L 255.138413 214.507223 
L 255.431634 213.922772 
L 255.724855 211.855018 
L 256.311298 203.893549 
L 256.89774 191.870711 
L 258.070625 160.632512 
L 259.536731 120.791982 
L 260.123174 108.431284 
L 260.709616 99.884361 
L 261.002838 97.409946 
L 261.296059 96.294979 
L 261.58928 96.503753 
L 261.882501 97.963911 
L 262.175723 100.603094 
L 262.762165 109.129103 
L 263.348607 121.502913 
L 264.228271 145.978603 
L 265.694377 190.688016 
L 266.28082 203.736332 
L 266.574041 208.133685 
L 266.867262 210.812455 
L 267.160483 211.814145 
L 267.453705 211.24309 
L 267.746926 209.203626 
L 268.333368 201.13681 
L 268.919811 188.448378 
L 269.799475 162.603724 
L 271.558802 106.022867 
L 272.145244 93.509579 
L 272.438466 89.659138 
L 272.731687 87.6953 
L 273.024908 87.498969 
L 273.318129 88.873175 
L 273.61135 91.620951 
L 274.197793 100.449341 
L 275.077457 119.069502 
L 277.130005 164.497253 
L 278.009669 178.783204 
L 278.596111 185.117398 
L 278.889333 187.120626 
L 279.182554 188.265654 
L 279.475775 188.49126 
L 279.768996 187.736223 
L 280.062218 185.93932 
L 280.355439 183.039329 
L 280.941881 173.685198 
L 281.528324 159.254499 
L 283.874094 91.269526 
L 284.167315 87.549277 
L 284.460536 85.995146 
L 284.753757 86.466118 
L 285.046978 88.720687 
L 285.633421 97.614581 
L 286.513085 118.294693 
L 288.565633 170.608496 
L 289.445297 187.17854 
L 290.031739 194.888447 
L 290.618182 199.342783 
L 290.911403 200.248237 
L 291.204624 200.227857 
L 291.497846 199.248126 
L 291.791067 197.275528 
L 292.377509 190.217658 
L 292.963952 178.786107 
L 293.843615 154.297177 
L 295.309721 111.373235 
L 295.896164 100.179138 
L 296.189385 96.94273 
L 296.482606 95.286485 
L 296.775828 95.073743 
L 297.069049 96.167843 
L 297.36227 98.432126 
L 297.948713 105.924594 
L 298.828376 122.523151 
L 301.174146 172.456819 
L 301.760589 180.441761 
L 302.347031 184.692083 
L 302.640252 185.380821 
L 302.933473 185.132432 
L 303.226695 183.962282 
L 303.519916 181.885737 
L 304.106358 175.074927 
L 304.692801 164.82293 
L 305.572465 144.154031 
L 307.038571 108.784468 
L 307.625013 99.30003 
L 307.918234 96.363683 
L 308.211456 94.659378 
L 308.504677 94.111917 
L 308.797898 94.646102 
L 309.091119 96.186737 
L 309.677562 101.986565 
L 310.264004 110.90982 
L 311.143668 128.675494 
L 312.609774 158.959352 
L 313.196217 166.771621 
L 313.489438 169.019182 
L 313.782659 170.130147 
L 314.07588 170.167255 
L 314.369101 169.193246 
L 314.662323 167.270856 
L 315.248765 160.831891 
L 315.835208 151.352269 
L 316.714871 132.696745 
L 318.180977 100.23487 
L 318.76742 91.148888 
L 319.060641 88.193957 
L 319.353862 86.502597 
L 319.647084 86.032927 
L 319.940305 86.697062 
L 320.233526 88.407114 
L 320.819968 94.613426 
L 321.406411 103.948772 
L 322.286075 122.269789 
L 324.045402 162.080631 
L 324.631844 171.840779 
L 325.218287 177.830278 
L 325.511508 179.212722 
L 325.804729 179.54763 
L 326.097951 178.863066 
L 326.391172 177.187093 
L 326.977614 170.973172 
L 327.564057 161.130375 
L 328.44372 140.339059 
L 329.909827 102.219185 
L 330.496269 91.395037 
L 330.78949 87.900921 
L 331.082712 85.946277 
L 331.375933 85.461113 
L 331.669154 86.312934 
L 331.962375 88.369246 
L 332.548818 95.565372 
L 333.13526 105.989544 
L 334.308145 132.309332 
L 335.774251 165.587408 
L 336.653915 180.35385 
L 337.240357 186.25593 
L 337.533579 187.836013 
L 337.8268 188.446671 
L 338.120021 188.046312 
L 338.413242 186.593346 
L 338.706463 184.046182 
L 339.292906 175.5029 
L 339.879348 162.143378 
L 342.225118 96.470901 
L 342.518339 92.076687 
L 342.811561 89.500184 
L 343.104782 88.63672 
L 343.398003 89.297438 
L 343.691224 91.293482 
L 344.277667 98.536122 
L 345.157331 114.693615 
L 347.209879 154.914383 
L 348.089543 167.417217 
L 348.675985 172.767135 
L 348.969207 174.384398 
L 349.262428 175.263885 
L 349.555649 175.383115 
L 349.84887 174.719611 
L 350.142091 173.250892 
L 350.728534 167.807896 
L 351.314976 158.874295 
L 352.19464 139.561322 
L 353.953967 98.348922 
L 354.54041 89.830385 
L 354.833631 87.213142 
L 355.126852 85.647453 
L 355.420074 85.090631 
L 355.713295 85.499989 
L 356.006516 86.83284 
L 356.592958 92.098273 
L 357.179401 100.545434 
L 358.059065 117.852092 
L 359.525171 148.269796 
L 360.111613 156.969559 
L 360.698056 161.927253 
L 360.991277 163.030781 
L 361.284498 163.293469 
L 361.577719 162.772345 
L 361.870941 161.524437 
L 362.457383 157.076387 
L 363.043826 150.405548 
L 363.923489 137.424288 
L 365.682817 110.370045 
L 366.269259 103.965284 
L 366.855702 100.07268 
L 367.148923 99.240481 
L 367.442144 99.241697 
L 367.735365 100.144339 
L 368.028586 102.016417 
L 368.615029 108.940922 
L 369.201471 120.150788 
L 371.547241 173.789839 
L 372.133684 180.253283 
L 372.426905 181.802283 
L 372.720126 182.300199 
L 373.013347 181.800077 
L 373.306569 180.354964 
L 373.893011 174.841956 
L 374.479453 166.185549 
L 375.359117 148.698793 
L 377.118445 112.22263 
L 377.704887 104.166976 
L 378.291329 99.546261 
L 378.584551 98.498042 
L 378.877772 98.271712 
L 379.170993 98.852619 
L 379.464214 100.226111 
L 380.050657 105.292241 
L 380.637099 113.331396 
L 381.516763 129.427021 
L 382.982869 157.532761 
L 383.569312 165.89174 
L 384.155754 171.338168 
L 384.448975 172.884382 
L 384.742197 173.604456 
L 385.035418 173.467285 
L 385.328639 172.441764 
L 385.62186 170.496787 
L 386.208303 163.724044 
L 386.794745 153.221063 
L 389.140515 104.223038 
L 389.726957 98.261789 
L 390.020179 96.779262 
L 390.3134 96.228429 
L 390.606621 96.559014 
L 390.899842 97.72074 
L 391.486285 102.336506 
L 392.072727 109.673512 
L 392.952391 124.532051 
L 394.711718 155.605935 
L 395.298161 162.504129 
L 395.884603 166.427896 
L 396.177824 167.254116 
L 396.471046 167.316675 
L 396.764267 166.610657 
L 397.057488 165.13115 
L 397.643931 159.832006 
L 398.230373 151.406142 
L 399.110037 134.381915 
L 400.576143 104.367887 
L 401.162585 95.322799 
L 401.749028 89.284396 
L 402.042249 87.466137 
L 402.33547 86.483469 
L 402.628692 86.362611 
L 402.921913 87.129785 
L 403.215134 88.81121 
L 403.801576 95.021701 
L 404.388019 104.909906 
L 405.854125 136.809009 
L 406.733789 153.101481 
L 407.320231 159.858326 
L 407.613452 161.924576 
L 407.906674 163.175778 
L 408.199895 163.656732 
L 408.493116 163.412239 
L 408.786337 162.487098 
L 409.37278 158.774078 
L 409.959222 152.881575 
L 410.838886 141.068261 
L 413.184656 106.938393 
L 413.771098 101.421237 
L 414.064319 99.657892 
L 414.357541 98.698727 
L 414.650762 98.64926 
L 414.943983 99.61501 
L 415.237204 101.701496 
L 415.530426 105.014236 
L 416.116868 115.240445 
L 417.289753 143.048153 
L 418.169417 161.848613 
L 418.755859 169.778292 
L 419.04908 172.211914 
L 419.342302 173.683501 
L 419.635523 174.237137 
L 419.928744 173.916906 
L 420.221965 172.766891 
L 420.808408 168.153842 
L 421.39485 160.763286 
L 422.274514 145.994019 
L 424.033841 114.99212 
L 424.620284 107.629165 
L 425.206726 102.739186 
L 425.499947 101.31305 
L 425.793169 100.614945 
L 426.08639 100.681466 
L 426.379611 101.549208 
L 426.672832 103.254767 
L 427.259275 109.29375 
L 427.845717 118.323996 
L 430.191487 159.868577 
L 430.77793 166.001088 
L 431.364372 169.39707 
L 431.657593 170.03292 
L 431.950815 169.941508 
L 432.244036 169.108455 
L 432.537257 167.519385 
L 433.123699 162.041902 
L 434.003363 149.408292 
L 435.76269 122.244766 
L 436.349133 116.63603 
L 436.935575 113.641895 
L 437.228797 113.136988 
L 437.522018 113.299751 
L 437.815239 114.134858 
L 438.10846 115.646982 
L 438.694903 120.720978 
L 439.281345 128.369425 
L 441.920336 167.499158 
L 442.506779 171.215535 
L 442.8 171.996252 
L 443.093221 172.041985 
L 443.386442 171.340233 
L 443.679664 169.878494 
L 444.266106 164.625046 
L 444.852549 156.210422 
L 445.732212 139.159405 
L 447.198318 109.499543 
L 447.784761 100.913886 
L 448.371203 95.470408 
L 448.664425 93.935909 
L 448.957646 93.192304 
L 449.250867 93.239144 
L 449.544088 94.075981 
L 449.83731 95.702365 
L 450.423752 101.32198 
L 451.010194 109.909133 
L 452.183079 132.081178 
L 453.355964 153.482428 
L 453.942407 161.249015 
L 454.528849 166.33496 
L 454.82207 167.792189 
L 455.115292 168.482653 
L 455.408513 168.374153 
L 455.701734 167.434485 
L 455.994955 165.631451 
L 456.581398 159.339719 
L 457.461061 144.666506 
L 459.220389 112.852955 
L 459.806831 106.208283 
L 460.393274 102.585883 
L 460.686495 101.92122 
L 460.979716 102.027948 
L 461.272937 102.911339 
L 461.566159 104.576668 
L 462.152601 110.274236 
L 462.739044 118.980835 
L 463.911929 141.7677 
L 465.084813 164.720368 
L 465.671256 173.709352 
L 466.257698 180.040992 
L 466.55092 182.023099 
L 466.844141 183.116218 
L 467.137362 183.245466 
L 467.430583 182.33596 
L 467.723805 180.312815 
L 468.310247 172.675024 
L 468.896689 160.907766 
L 471.242459 106.82146 
L 471.828902 98.727853 
L 472.415344 94.060244 
L 472.708565 93.105367 
L 473.001787 93.120003 
L 473.295008 94.141823 
L 473.588229 96.208498 
L 474.174672 103.351838 
L 475.054335 119.232253 
L 476.520441 148.222428 
L 477.106884 156.943542 
L 477.693326 162.974309 
L 477.986548 164.896594 
L 478.279769 166.045231 
L 478.57299 166.386534 
L 478.866211 165.886814 
L 479.159432 164.512385 
L 479.452654 162.22956 
L 480.039096 155.047756 
L 480.91876 139.819562 
L 482.384866 112.501312 
L 482.971308 104.225432 
L 483.557751 98.437523 
L 483.850972 96.567271 
L 484.144193 95.427867 
L 484.437415 95.055596 
L 484.730636 95.486743 
L 485.023857 96.757593 
L 485.317078 98.904431 
L 485.903521 105.749751 
L 486.783184 120.588114 
L 488.835733 158.452768 
L 489.422176 165.991236 
L 490.008618 170.949298 
L 490.301839 172.298625 
L 490.59506 172.80839 
L 490.888282 172.413772 
L 491.181503 171.04995 
L 491.767945 165.446143 
L 492.354388 156.932049 
L 494.700158 118.105543 
L 495.2866 112.143436 
L 495.873043 108.425297 
L 496.166264 107.446939 
L 496.459485 107.076641 
L 496.752706 107.330093 
L 497.045927 108.222983 
L 497.63237 111.877743 
L 498.218812 117.605969 
L 499.098476 128.889393 
L 501.151025 157.683669 
L 501.737467 163.132572 
L 502.030688 164.819349 
L 502.32391 165.65832 
L 502.617131 165.532466 
L 502.910352 164.324769 
L 503.203573 161.969995 
L 503.790016 154.438618 
L 504.962901 133.511842 
L 505.842564 118.786939 
L 506.429007 112.05563 
L 507.015449 108.133758 
L 507.308671 107.181775 
L 507.601892 106.878649 
L 507.895113 107.206545 
L 508.188334 108.147629 
L 508.774777 111.798025 
L 509.361219 117.610046 
L 510.240883 129.201469 
L 512.586653 162.429121 
L 513.173095 167.630322 
L 513.466316 169.231365 
L 513.759538 170.031939 
L 514.052759 169.931469 
L 514.34598 168.829381 
L 514.639201 166.625103 
L 515.225644 158.94868 
L 516.105307 142.441411 
L 517.278192 120.779585 
L 517.864635 113.894677 
L 518.451077 110.248881 
L 518.744298 109.566833 
L 519.03752 109.605984 
L 519.330741 110.336807 
L 519.623962 111.729775 
L 520.210405 116.384042 
L 520.796847 123.24904 
L 521.969732 140.912212 
L 523.435838 162.767236 
L 524.022281 169.220993 
L 524.608723 173.595141 
L 524.901944 174.859266 
L 525.195166 175.431774 
L 525.488387 175.255428 
L 525.781608 174.27299 
L 526.074829 172.42722 
L 526.661272 166.189023 
L 527.540935 152.499544 
L 529.007042 127.929669 
L 529.593484 120.734698 
L 530.179926 115.817084 
L 530.766369 113.257412 
L 531.05959 112.886987 
L 531.352811 113.136268 
L 531.646033 114.015327 
L 531.939254 115.534237 
L 532.525696 120.422098 
L 533.40536 131.3634 
L 534.871466 154.405492 
L 536.044351 171.372398 
L 536.630793 176.869568 
L 536.924015 178.425518 
L 537.217236 179.016448 
L 537.510457 178.514911 
L 537.803678 176.79346 
L 538.390121 169.643894 
L 539.269785 152.659108 
L 540.735891 122.303374 
L 541.322333 114.22026 
L 541.908776 109.190568 
L 542.201997 107.712886 
L 542.495218 106.869118 
L 542.788439 106.616115 
L 543.081661 106.91073 
L 543.374882 107.709816 
L 543.961324 110.65275 
L 544.547767 115.194299 
L 545.42743 124.655257 
L 546.307094 136.826405 
L 548.359643 167.886469 
L 548.946085 172.671086 
L 549.239306 173.601954 
L 549.532528 173.350285 
L 549.825749 171.818136 
L 550.412191 165.510695 
L 551.291855 150.840473 
L 552.757961 125.349481 
L 553.344404 118.456145 
L 553.930846 113.856256 
L 554.517288 111.495275 
L 554.81051 111.137332 
L 555.103731 111.318664 
L 555.396952 112.032454 
L 555.983395 114.969473 
L 556.569837 119.590533 
L 557.449501 128.764181 
L 559.795271 155.796035 
L 560.381713 160.09831 
L 560.674934 161.437299 
L 560.968156 162.126072 
L 561.261377 162.083042 
L 561.554598 161.254772 
L 561.847819 159.700442 
L 562.434262 154.762919 
L 563.313925 144.094444 
L 565.366474 116.408898 
L 565.952916 111.299873 
L 566.246138 109.740769 
L 566.539359 108.987316 
L 566.83258 109.146047 
L 567.125801 110.283686 
L 567.712244 115.085794 
L 568.298686 122.374806 
L 570.644456 155.652569 
L 571.230899 161.041197 
L 571.817341 164.456434 
L 572.110562 165.329653 
L 572.403783 165.596268 
L 572.697005 165.218529 
L 572.990226 164.17642 
L 573.576668 160.320518 
L 574.163111 154.560101 
L 575.042775 143.55004 
L 577.095323 116.796462 
L 577.681766 111.809298 
L 577.974987 110.192235 
L 578.268208 109.275492 
L 578.561429 109.146047 
L 578.854651 109.860418 
L 579.147872 111.353278 
L 579.734314 116.291301 
L 580.613978 127.142251 
L 582.666527 155.343189 
L 583.252969 161.098237 
L 583.839411 164.71718 
L 584.132633 165.537943 
L 584.425854 165.599476 
L 584.719075 164.855213 
L 585.012296 163.372586 
L 585.598739 158.575969 
L 586.478403 148.241628 
L 588.530951 122.33299 
L 589.410615 114.681286 
L 589.997057 111.605749 
L 590.290279 110.801702 
L 590.5835 110.533738 
L 590.876721 110.798466 
L 591.169942 111.583411 
L 591.756385 114.664057 
L 592.342827 119.675885 
L 592.92927 126.519103 
L 593.808933 139.81307 
L 594.981818 158.418398 
L 595.568261 165.370291 
L 595.861482 167.725525 
L 596.154703 169.130563 
L 596.447924 169.480065 
L 596.741146 168.856506 
L 597.034367 167.389311 
L 597.620809 162.441724 
L 598.500473 151.928744 
L 599.966579 134.267157 
L 600.846243 126.241054 
L 601.432685 122.216222 
L 602.019128 119.373011 
L 602.60557 117.853732 
L 602.898791 117.680974 
L 603.192013 117.955424 
L 603.485234 118.719047 
L 603.778455 120.013809 
L 604.364898 124.364607 
L 604.95134 131.343541 
L 605.831004 146.278528 
L 607.003889 166.125321 
L 607.590331 171.993342 
L 607.883552 173.130507 
L 608.176774 172.841512 
L 608.469995 171.252751 
L 609.056437 164.961612 
L 609.936101 150.687135 
L 611.402207 126.316819 
L 612.281871 115.503677 
L 612.868313 110.348545 
L 613.454756 107.06549 
L 613.747977 106.184176 
L 614.041198 105.825341 
L 614.334419 105.994334 
L 614.627641 106.696507 
L 614.920862 107.937209 
L 615.507304 112.055606 
L 616.093747 118.392327 
L 616.97341 131.931139 
L 618.732738 161.474129 
L 619.31918 167.401649 
L 619.612401 168.955336 
L 619.905623 169.574935 
L 620.198844 169.346704 
L 620.492065 168.356898 
L 621.078508 164.437589 
L 621.66495 158.507057 
L 622.837835 143.363603 
L 624.01072 128.232764 
L 624.597162 122.266688 
L 625.183605 118.215518 
L 625.476826 117.089592 
L 625.770047 116.577048 
L 626.063269 116.653415 
L 626.35649 117.294222 
L 626.649711 118.474998 
L 627.236153 122.358572 
L 627.822596 128.10837 
L 628.70226 139.675734 
L 630.168366 160.355269 
L 630.754808 166.311096 
L 631.048029 168.310061 
L 631.341251 169.525752 
L 631.634472 169.988735 
L 631.927693 169.759823 
L 632.220914 168.89983 
L 632.807357 165.529849 
L 633.393799 160.365298 
L 634.273463 150.319867 
L 636.326012 125.670434 
L 636.912454 120.926103 
L 637.498896 118.186071 
L 637.792118 117.623201 
L 638.085339 117.611202 
L 638.37856 118.159652 
L 638.671781 119.278132 
L 639.258224 123.263497 
L 639.844666 129.643931 
L 640.72433 143.092301 
L 641.897215 162.025559 
L 642.483657 168.97138 
L 642.776879 171.240424 
L 643.0701 172.529789 
L 643.363321 172.882764 
L 643.656542 172.384076 
L 643.949764 171.118452 
L 644.536206 166.625304 
L 645.122648 160.081136 
L 646.295533 143.510747 
L 648.054861 117.741885 
L 648.934524 107.667068 
L 649.520967 103.073779 
L 649.814188 101.632179 
L 650.107409 100.859888 
L 650.400631 100.831369 
L 650.693852 101.62108 
L 650.987073 103.303484 
L 651.280294 105.95304 
L 651.866737 114.393287 
L 652.7464 132.591711 
L 653.626064 150.95189 
L 654.212507 159.621537 
L 654.505728 162.129579 
L 654.798949 163.416058 
L 655.09217 163.614062 
L 655.385391 162.856681 
L 655.678613 161.277004 
L 656.265055 156.183122 
L 657.43794 141.967863 
L 658.904046 124.262489 
L 659.78371 115.773865 
L 660.370152 111.636614 
L 660.956595 109.12492 
L 661.249816 108.606547 
L 661.543037 108.648487 
L 661.836259 109.302238 
L 662.12948 110.619299 
L 662.715922 115.449344 
L 663.302365 123.508158 
L 664.182028 140.020618 
L 665.354913 161.880854 
L 665.941356 169.086607 
L 666.234577 171.099279 
L 666.527798 172.058428 
L 666.821019 172.07309 
L 667.114241 171.2523 
L 667.407462 169.705092 
L 667.993904 164.867562 
L 668.873568 154.889002 
L 670.926117 130.607726 
L 671.80578 123.094571 
L 672.392223 119.94791 
L 672.685444 119.013937 
L 672.978665 118.530728 
L 673.271886 118.516675 
L 673.565108 118.99017 
L 673.858329 119.969607 
L 674.444771 123.519877 
L 675.031214 129.289263 
L 676.204099 145.055435 
L 677.083762 156.408692 
L 677.670205 161.74605 
L 677.963426 163.374384 
L 678.256647 164.293432 
L 678.549869 164.55241 
L 678.84309 164.200531 
L 679.136311 163.287009 
L 679.722754 159.971893 
L 680.309196 155.000773 
L 681.18886 145.338067 
L 682.948187 125.109085 
L 683.53463 120.369335 
L 684.121072 117.565392 
L 684.414293 116.934122 
L 684.707514 116.820664 
L 685.000736 117.228026 
L 685.293957 118.159217 
L 685.880399 121.605116 
L 686.466842 127.182427 
L 687.346506 138.991441 
L 688.812612 159.795695 
L 689.399054 165.438306 
L 689.692275 167.189969 
L 689.985497 168.218725 
L 690.278718 168.579362 
L 690.571939 168.326672 
L 690.86516 167.515443 
L 691.451603 164.436529 
L 692.038045 159.780938 
L 692.917709 150.814684 
L 694.677036 132.005064 
L 695.263479 127.402204 
L 695.849921 124.436592 
L 696.143142 123.623152 
L 696.436364 123.270977 
L 696.729585 123.391334 
L 697.022806 123.995492 
L 697.316027 125.094715 
L 697.90247 128.82343 
L 698.488912 134.48356 
L 700.24824 154.014972 
L 700.834682 157.995186 
L 701.127903 158.971951 
L 701.421125 159.272427 
L 701.714346 158.95918 
L 702.007567 158.094778 
L 702.594009 154.962776 
L 703.180452 150.376957 
L 704.353337 138.843616 
L 705.526222 127.441388 
L 706.112664 123.005646 
L 706.699107 120.061647 
L 706.992328 119.291209 
L 707.285549 119.017473 
L 707.57877 119.242676 
L 707.871992 119.969053 
L 708.165213 121.198841 
L 708.751655 125.17759 
L 709.338098 131.196812 
L 710.217761 143.879631 
L 711.683868 166.988212 
L 712.27031 173.295846 
L 712.563531 175.196413 
L 712.856752 176.094796 
L 713.149974 176.041792 
L 713.443195 175.129565 
L 713.736416 173.450279 
L 714.322859 168.159185 
L 715.202522 156.773698 
L 717.841513 118.370682 
L 718.427956 112.310838 
L 719.014398 108.167138 
L 719.30762 106.89911 
L 719.600841 106.2034 
L 719.894062 106.107337 
L 720.187283 106.638248 
L 720.480504 107.823461 
L 721.066947 112.266105 
L 721.653389 119.621384 
L 722.533053 134.655411 
L 723.705938 155.216171 
L 724.29238 162.698418 
L 724.878823 166.842971 
L 725.172044 167.719467 
L 725.465265 167.89192 
L 725.758487 167.430188 
L 726.051708 166.40413 
L 726.63815 162.938466 
L 727.517814 155.252122 
L 729.863584 132.147435 
L 730.450026 128.323734 
L 731.036469 125.98346 
L 731.32969 125.37525 
L 731.622911 125.142738 
L 731.916132 125.286731 
L 732.209354 125.808038 
L 732.502575 126.707468 
L 733.089017 129.643931 
L 733.67546 133.982411 
L 735.728008 150.837373 
L 736.314451 153.202472 
L 736.607672 153.655916 
L 736.900893 153.656656 
L 737.194115 153.23469 
L 737.487336 152.420016 
L 738.073778 149.732532 
L 738.660221 145.834183 
L 739.833106 135.65898 
L 741.299212 123.092413 
L 741.885654 119.581764 
L 742.472097 117.402802 
L 742.765318 116.82164 
L 743.058539 116.582277 
L 743.35176 116.686904 
L 743.644982 117.137711 
L 743.938203 117.936888 
L 744.524645 120.589112 
L 745.111088 124.661096 
L 745.69753 130.170361 
L 746.577194 141.167488 
L 747.163636 150.34661 
L 747.163636 150.34661 
" clip-path="url(#pb427ea02b4)" style="fill: none; stroke: #ff0000; stroke-linecap: square"/>
   </g>
   <g id="line2d_24">
    <path d="M 138.436364 168.747174 
L 139.90247 155.822538 
L 141.075355 147.328287 
L 141.955018 142.351712 
L 142.834682 138.796946 
L 143.421125 137.317821 
L 144.007567 136.621848 
L 144.300788 136.586448 
L 144.594009 136.768934 
L 144.887231 137.17393 
L 145.473673 138.667597 
L 146.060116 141.09974 
L 146.646558 144.502651 
L 147.526222 151.485997 
L 149.871992 173.377454 
L 150.458434 176.765521 
L 151.044877 178.742675 
L 151.631319 179.719728 
L 152.217761 180.127648 
L 153.097425 180.615141 
L 153.683868 181.413352 
L 154.27031 182.716695 
L 154.856752 184.522019 
L 155.736416 188.164326 
L 156.61608 192.928752 
L 157.495744 198.935794 
L 158.375407 206.383851 
L 159.548292 218.810586 
L 161.30762 238.374692 
L 162.187283 245.244208 
L 163.066947 250.047951 
L 164.239832 255.940865 
L 165.119496 261.895907 
L 166.585602 274.458535 
L 167.758487 284.118569 
L 168.63815 289.759983 
L 169.224593 292.504953 
L 169.811035 294.304723 
L 170.104256 294.814688 
L 170.397478 295.045788 
L 170.690699 294.99194 
L 170.98392 294.679476 
L 171.570363 293.416445 
L 172.450026 290.443185 
L 174.209354 283.918773 
L 175.089017 281.604821 
L 175.67546 280.641343 
L 175.968681 280.367509 
L 176.261902 280.247458 
L 176.555123 280.287285 
L 177.141566 280.780942 
L 177.728008 281.690763 
L 179.194115 284.716261 
L 180.366999 286.787776 
L 181.246663 287.958597 
L 182.126327 288.818768 
L 183.005991 289.355003 
L 183.592433 289.47044 
L 184.178875 289.33749 
L 184.765318 288.909226 
L 185.35176 288.141976 
L 186.231424 286.446784 
L 188.870415 280.78191 
L 189.750079 279.519082 
L 190.629743 278.62232 
L 191.509406 278.090067 
L 192.095849 278.033206 
L 192.682291 278.334172 
L 193.268734 279.096389 
L 193.855176 280.42328 
L 194.441618 282.368341 
L 195.321282 286.109544 
L 197.373831 295.26819 
L 198.253494 298.034415 
L 198.839937 299.234529 
L 199.426379 299.818118 
L 199.719601 299.851582 
L 200.012822 299.710373 
L 201.478928 298.347707 
L 201.772149 298.372598 
L 202.06537 298.639548 
L 202.358592 299.209804 
L 202.651813 300.144618 
L 203.238255 303.018132 
L 203.824698 306.076163 
L 204.117919 307.199775 
L 204.41114 307.8 
L 204.704362 307.686998 
L 204.997583 306.670931 
L 205.290804 304.56196 
L 205.584025 301.170245 
L 206.170468 290.216032 
L 206.75691 274.473587 
L 207.636574 244.292818 
L 211.44845 100.836028 
L 212.328114 80.300246 
L 212.914556 72.350081 
L 213.207777 70.456884 
L 213.500998 70.111511 
L 213.79422 71.433888 
L 214.087441 74.543942 
L 214.380662 79.561598 
L 214.967105 95.155201 
L 215.846768 127.395393 
L 217.019653 171.645901 
L 217.606096 187.844613 
L 218.192538 197.926304 
L 218.485759 200.792059 
L 218.778981 202.28515 
L 219.072202 202.463627 
L 219.365423 201.385538 
L 219.658644 199.108931 
L 220.245087 191.206859 
L 220.831529 179.569811 
L 222.004414 149.688929 
L 223.47052 111.8868 
L 224.350184 95.52217 
L 224.936626 89.311739 
L 225.229848 87.983888 
L 225.523069 88.004309 
L 225.81629 89.495526 
L 226.109511 92.531379 
L 226.695954 102.704776 
L 227.575617 125.675624 
L 230.50783 213.014898 
L 231.094272 221.362578 
L 231.387493 223.130071 
L 231.680715 223.032135 
L 231.973936 220.947985 
L 232.267157 217.057305 
L 232.8536 204.875551 
L 233.733263 179.423925 
L 235.199369 134.630977 
L 236.079033 114.639683 
L 236.665476 105.907202 
L 236.958697 103.197414 
L 237.251918 101.715453 
L 237.545139 101.553967 
L 237.83836 102.772814 
L 238.131582 105.300711 
L 238.718024 113.867371 
L 239.304467 126.421383 
L 240.18413 150.907455 
L 242.236679 213.096416 
L 242.823121 222.819333 
L 243.116343 224.881371 
L 243.409564 224.68779 
L 243.702785 222.047885 
L 243.996006 217.176149 
L 244.582449 202.000348 
L 245.462112 170.392696 
L 246.928219 114.87737 
L 247.807882 89.669619 
L 248.394325 77.95051 
L 248.980767 71.114092 
L 249.273988 69.744884 
L 249.56721 69.826182 
L 249.860431 71.286387 
L 250.153652 74.02214 
L 250.740095 82.906862 
L 251.326537 95.653485 
L 252.206201 120.205723 
L 254.258749 181.257081 
L 254.845192 191.800827 
L 255.138413 194.783443 
L 255.431634 195.999503 
L 255.724855 195.538344 
L 256.018077 193.552742 
L 256.604519 185.619318 
L 257.190962 173.421444 
L 258.070625 149.802382 
L 259.829953 99.771989 
L 260.416395 87.670003 
L 261.002838 80.352796 
L 261.296059 78.910458 
L 261.58928 78.948526 
L 261.882501 80.376604 
L 262.175723 83.104296 
L 262.762165 92.096942 
L 263.348607 105.2033 
L 264.228271 130.96183 
L 265.694377 177.326219 
L 266.28082 190.593476 
L 266.574041 194.959264 
L 266.867262 197.504844 
L 267.160483 198.299019 
L 267.453705 197.481187 
L 267.746926 195.190748 
L 268.333368 186.749647 
L 268.919811 174.090911 
L 269.799475 149.644983 
L 271.558802 98.522219 
L 272.145244 86.750587 
L 272.731687 80.278499 
L 273.024908 79.209652 
L 273.318129 79.444547 
L 273.61135 80.863924 
L 274.197793 86.779094 
L 274.784235 96.001095 
L 275.663899 113.947392 
L 277.716448 158.324529 
L 278.30289 167.355252 
L 278.889333 173.145203 
L 279.182554 174.720825 
L 279.475775 175.387241 
L 279.768996 175.122223 
L 280.062218 173.903545 
L 280.355439 171.708978 
L 280.941881 164.30327 
L 281.528324 152.777805 
L 283.874094 97.996493 
L 284.167315 94.78483 
L 284.460536 93.237484 
L 284.753757 93.234963 
L 285.046978 94.577694 
L 285.633421 100.500616 
L 286.513085 114.485038 
L 287.979191 139.050246 
L 289.152076 155.095278 
L 290.324961 168.69546 
L 290.911403 174.09709 
L 291.204624 175.959321 
L 291.497846 177.036888 
L 291.791067 177.160585 
L 292.084288 176.161209 
L 292.377509 173.869552 
L 292.67073 170.11641 
L 293.257173 157.647623 
L 294.136837 129.827806 
L 295.309721 93.225006 
L 295.896164 82.755693 
L 296.189385 80.841344 
L 296.482606 81.066392 
L 296.775828 83.135707 
L 297.36227 91.626613 
L 298.241934 110.816705 
L 299.414819 136.515056 
L 300.587704 156.002625 
L 302.05381 175.80643 
L 302.640252 182.518858 
L 303.226695 186.704809 
L 303.519916 187.338615 
L 303.813137 186.726713 
L 304.106358 184.664406 
L 304.39958 180.946998 
L 304.986022 167.835145 
L 305.865686 137.220363 
L 307.038571 94.046239 
L 307.625013 79.327169 
L 307.918234 75.10706 
L 308.211456 72.980898 
L 308.504677 72.731 
L 308.797898 74.13968 
L 309.091119 76.989254 
L 309.677562 86.140345 
L 310.557225 105.231571 
L 312.902995 159.278584 
L 313.782659 175.080557 
L 314.369101 182.469004 
L 314.662323 184.874198 
L 314.955544 186.265857 
L 315.248765 186.528342 
L 315.541986 185.546018 
L 315.835208 183.203245 
L 316.128429 179.384389 
L 316.714871 167.424557 
L 317.887756 134.352255 
L 318.76742 111.332055 
L 319.353862 101.437974 
L 319.647084 98.687663 
L 319.940305 97.356691 
L 320.233526 97.396212 
L 320.526747 98.757377 
L 320.819968 101.391339 
L 321.406411 110.282263 
L 321.992853 123.678202 
L 322.872517 150.427001 
L 324.338623 196.724821 
L 324.925066 209.845505 
L 325.511508 217.240172 
L 325.804729 218.813654 
L 326.097951 219.072541 
L 326.391172 218.092814 
L 326.684393 215.950452 
L 327.270836 208.481742 
L 327.857278 197.274251 
L 328.736942 175.254095 
L 330.496269 129.605368 
L 331.082712 119.186963 
L 331.669154 112.872319 
L 331.962375 111.284621 
L 332.255596 110.75396 
L 332.548818 111.2883 
L 332.842039 112.895606 
L 333.13526 115.583843 
L 333.721703 124.234971 
L 334.308145 136.98042 
L 336.653915 194.431799 
L 337.240357 201.36987 
L 337.533579 203.098943 
L 337.8268 203.742373 
L 338.120021 203.355909 
L 338.413242 201.995301 
L 338.999685 196.574644 
L 339.586127 187.926395 
L 340.465791 170.34556 
L 342.225118 133.652953 
L 342.811561 125.622157 
L 343.398003 121.082792 
L 343.691224 120.08128 
L 343.984446 119.897264 
L 344.277667 120.509782 
L 344.570888 121.897872 
L 345.157331 126.916916 
L 345.743773 134.767253 
L 346.623437 150.325245 
L 348.089543 177.244572 
L 348.675985 185.16563 
L 349.262428 190.256282 
L 349.555649 191.664215 
L 349.84887 192.277026 
L 350.142091 192.067068 
L 350.435313 191.006694 
L 350.728534 189.068258 
L 351.314976 182.446617 
L 351.901419 172.276111 
L 354.247189 124.14706 
L 354.833631 117.709809 
L 355.126852 115.893018 
L 355.420074 114.977581 
L 355.713295 114.938594 
L 356.006516 115.751154 
L 356.299737 117.390359 
L 356.88618 123.049093 
L 357.472622 131.696757 
L 358.352286 148.714917 
L 360.111613 183.779932 
L 360.698056 191.811383 
L 361.284498 196.617551 
L 361.577719 197.616796 
L 361.870941 197.57649 
L 362.164162 196.418889 
L 362.457383 194.066252 
L 363.043826 185.464891 
L 363.630268 171.630225 
L 366.269259 99.120239 
L 366.855702 92.610917 
L 367.148923 91.105351 
L 367.442144 90.652607 
L 367.735365 91.167754 
L 368.028586 92.565862 
L 368.615029 97.671237 
L 369.201471 105.316227 
L 370.081135 120.362279 
L 371.547241 150.666839 
L 372.720126 173.659599 
L 373.306569 181.317567 
L 373.59979 183.535268 
L 373.893011 184.43052 
L 374.186232 183.817129 
L 374.479453 181.508901 
L 374.772675 177.402531 
L 375.359117 164.791241 
L 376.532002 130.686291 
L 377.411666 107.136307 
L 377.998108 96.559761 
L 378.584551 90.335648 
L 378.877772 88.677973 
L 379.170993 87.895068 
L 379.464214 87.915821 
L 379.757436 88.669118 
L 380.050657 90.083848 
L 380.637099 94.615721 
L 381.223542 101.004206 
L 382.103205 113.088578 
L 384.742197 151.771759 
L 385.328639 155.965762 
L 385.62186 156.706922 
L 385.915081 156.370959 
L 386.208303 154.827953 
L 386.501524 152.013665 
L 387.087966 143.430898 
L 388.847294 113.069697 
L 389.140515 110.110625 
L 389.433736 108.396954 
L 389.726957 107.895917 
L 390.020179 108.515361 
L 390.3134 110.16313 
L 390.899842 116.175022 
L 391.486285 125.194354 
L 392.365949 142.740143 
L 394.125276 179.991436 
L 394.711718 188.727646 
L 395.298161 193.66612 
L 395.591382 194.504884 
L 395.884603 194.265696 
L 396.177824 192.962091 
L 396.471046 190.607607 
L 397.057488 182.800148 
L 397.643931 170.951611 
L 398.523594 146.184228 
L 400.282922 92.643699 
L 400.869364 81.583548 
L 401.162585 78.483749 
L 401.455807 76.997727 
L 401.749028 76.981928 
L 402.042249 78.292795 
L 402.33547 80.78677 
L 402.921913 88.749823 
L 403.801576 105.978814 
L 406.440568 164.31056 
L 407.02701 173.17063 
L 407.613452 178.842128 
L 407.906674 180.287154 
L 408.199895 180.701923 
L 408.493116 180.009105 
L 408.786337 178.131371 
L 409.079559 174.991389 
L 409.666001 164.615363 
L 410.252444 148.813447 
L 412.304992 85.242373 
L 412.891435 75.727411 
L 413.184656 73.600643 
L 413.477877 73.081891 
L 413.771098 74.042449 
L 414.064319 76.353613 
L 414.650762 84.512937 
L 415.237204 96.530217 
L 416.410089 127.732943 
L 417.582974 158.93839 
L 418.169417 170.695865 
L 418.755859 178.108152 
L 419.04908 180.111239 
L 419.342302 180.994052 
L 419.635523 180.767915 
L 419.928744 179.44415 
L 420.221965 177.034079 
L 420.808408 169.000312 
L 421.39485 156.795455 
L 422.567735 124.78728 
L 423.447399 101.652631 
L 424.033841 90.25742 
L 424.620284 83.981031 
L 424.913505 82.837275 
L 425.206726 82.992777 
L 425.499947 84.424762 
L 425.793169 87.110455 
L 426.379611 96.151864 
L 426.966054 109.934803 
L 427.845717 137.819091 
L 429.018602 176.598931 
L 429.605045 191.137257 
L 430.191487 199.240757 
L 430.484708 200.607299 
L 430.77793 200.395564 
L 431.071151 198.784732 
L 431.657593 192.082498 
L 432.244036 181.93404 
L 433.710142 150.286777 
L 435.76269 106.506279 
L 436.642354 91.765232 
L 437.228797 85.230771 
L 437.522018 83.354115 
L 437.815239 82.583488 
L 438.10846 83.053124 
L 438.401682 84.897257 
L 438.694903 88.250122 
L 439.281345 99.424543 
L 440.161009 123.055477 
L 441.333894 154.299024 
L 441.920336 164.271478 
L 442.213558 167.209302 
L 442.506779 168.9236 
L 442.8 169.53911 
L 443.093221 169.18057 
L 443.386442 167.972717 
L 443.972885 163.508026 
L 444.852549 153.547224 
L 447.784761 116.303305 
L 448.371203 111.339769 
L 448.957646 108.490713 
L 449.250867 108.066548 
L 449.544088 108.419924 
L 449.83731 109.633813 
L 450.130531 111.791189 
L 450.716973 119.21955 
L 451.596637 136.514673 
L 453.062743 167.97473 
L 453.649185 176.632201 
L 454.235628 181.501814 
L 454.528849 182.573105 
L 454.82207 182.773689 
L 455.115292 182.132294 
L 455.408513 180.677649 
L 455.994955 175.44352 
L 456.581398 167.317904 
L 457.461061 151.211171 
L 459.220389 117.612352 
L 459.806831 109.698326 
L 460.393274 104.603334 
L 460.686495 103.249275 
L 460.979716 102.763534 
L 461.272937 103.20063 
L 461.566159 104.615082 
L 461.85938 107.06141 
L 462.445822 115.227703 
L 463.032265 127.173971 
L 465.671256 188.46673 
L 466.257698 195.804116 
L 466.55092 197.941886 
L 466.844141 198.949044 
L 467.137362 198.743093 
L 467.430583 197.241534 
L 467.723805 194.36187 
L 468.310247 184.19795 
L 468.896689 169.024466 
L 471.242459 101.414724 
L 471.828902 91.552417 
L 472.415344 85.68202 
L 472.708565 84.280693 
L 473.001787 83.92163 
L 473.295008 84.619592 
L 473.588229 86.389342 
L 474.174672 92.996156 
L 474.761114 102.824694 
L 475.933999 127.649049 
L 477.106884 151.908523 
L 477.693326 161.271905 
L 478.279769 167.613013 
L 478.57299 169.377385 
L 478.866211 170.058795 
L 479.159432 169.54811 
L 479.452654 167.736199 
L 480.039096 160.192717 
L 480.625539 148.658023 
L 482.971308 95.37836 
L 483.557751 87.009063 
L 484.144193 81.752478 
L 484.437415 80.370054 
L 484.730636 79.860131 
L 485.023857 80.254148 
L 485.317078 81.583548 
L 485.903521 86.985932 
L 486.489963 95.377193 
L 487.369627 111.646698 
L 489.422176 151.569772 
L 490.008618 159.798179 
L 490.59506 165.198692 
L 490.888282 166.598582 
L 491.181503 167.003608 
L 491.474724 166.352754 
L 491.767945 164.724777 
L 492.354388 158.992269 
L 493.234051 145.907673 
L 495.579821 106.963344 
L 496.166264 101.975015 
L 496.459485 100.968184 
L 496.752706 101.141979 
L 497.045927 102.638201 
L 497.339149 105.537782 
L 497.925591 114.835936 
L 498.805255 134.17929 
L 499.97814 160.659374 
L 500.564582 170.423462 
L 501.151025 176.822614 
L 501.444246 178.671311 
L 501.737467 179.571939 
L 502.030688 179.488889 
L 502.32391 178.386547 
L 502.617131 176.229304 
L 503.203573 168.6411 
L 503.790016 157.241804 
L 504.962901 128.189413 
L 506.135786 99.589381 
L 506.722228 88.535766 
L 507.308671 80.917976 
L 507.601892 78.676806 
L 507.895113 77.629741 
L 508.188334 77.888499 
L 508.481555 79.564794 
L 508.774777 82.770345 
L 509.361219 93.718994 
L 510.240883 117.880097 
L 511.706989 161.377313 
L 512.293431 174.072402 
L 512.879874 182.348999 
L 513.173095 184.662052 
L 513.466316 185.668508 
L 513.759538 185.301044 
L 514.052759 183.492335 
L 514.34598 180.175055 
L 514.932422 168.807471 
L 515.812086 142.570557 
L 517.278192 94.403883 
L 517.864635 80.314521 
L 518.451077 70.798892 
L 518.744298 67.813207 
L 519.03752 66.03933 
L 519.330741 65.500055 
L 519.623962 66.218172 
L 519.917183 68.216475 
L 520.210405 71.517753 
L 520.796847 81.802582 
L 521.676511 103.400475 
L 523.142617 141.480153 
L 523.729059 152.681272 
L 524.315502 160.459436 
L 524.901944 164.711736 
L 525.195166 165.483529 
L 525.488387 165.335266 
L 525.781608 164.254083 
L 526.074829 162.227118 
L 526.661272 155.50344 
L 527.540935 140.878084 
L 529.007042 114.491516 
L 529.593484 106.658048 
L 530.179926 101.608525 
L 530.473148 100.30317 
L 530.766369 99.904314 
L 531.05959 100.482129 
L 531.352811 102.106786 
L 531.646033 104.848456 
L 532.232475 113.91091 
L 533.112139 134.401055 
L 534.578245 170.787043 
L 535.164687 180.448867 
L 535.75113 185.657923 
L 536.044351 186.750512 
L 536.337572 186.929877 
L 536.630793 186.267072 
L 536.924015 184.833149 
L 537.510457 179.936159 
L 538.0969 172.800809 
L 538.976563 158.755689 
L 540.149448 135.150401 
L 542.495218 84.023099 
L 543.081661 76.605594 
L 543.374882 74.655594 
L 543.668103 74.111124 
L 543.961324 75.084075 
L 544.254545 77.434812 
L 544.840988 85.459578 
L 545.720652 102.767212 
L 547.186758 132.414978 
L 548.066421 145.105609 
L 548.652864 150.959297 
L 549.239306 154.574629 
L 549.532528 155.501936 
L 549.825749 155.821948 
L 550.11897 155.525589 
L 550.412191 154.605244 
L 550.705413 153.053301 
L 551.291855 148.024168 
L 551.878297 140.377283 
L 552.46474 130.05174 
L 554.81051 81.775554 
L 555.103731 78.749444 
L 555.396952 77.188004 
L 555.690173 77.25543 
L 555.983395 78.817333 
L 556.569837 85.588444 
L 557.449501 101.727891 
L 558.915607 130.885862 
L 559.795271 143.764495 
L 560.381713 149.743899 
L 560.968156 153.369306 
L 561.261377 154.227229 
L 561.554598 154.415702 
L 561.847819 153.933349 
L 562.14104 152.78428 
L 562.727483 148.502442 
L 563.313925 141.603073 
L 563.900368 132.119061 
L 564.780032 113.531178 
L 565.659695 94.931799 
L 566.246138 86.676008 
L 566.539359 84.731486 
L 566.83258 84.660428 
L 567.125801 86.671236 
L 567.419023 90.552268 
L 568.005465 102.658406 
L 570.351235 163.018068 
L 570.937677 171.391081 
L 571.52412 176.253644 
L 571.817341 177.432267 
L 572.110562 177.80979 
L 572.403783 177.411717 
L 572.697005 176.263553 
L 573.283447 171.846205 
L 573.86989 164.897969 
L 574.749553 150.534023 
L 575.922438 125.976341 
L 577.095323 100.703553 
L 577.681766 91.213633 
L 578.268208 85.765173 
L 578.561429 85.012072 
L 578.854651 85.753115 
L 579.147872 87.855956 
L 579.734314 95.365965 
L 580.613978 111.962819 
L 582.080084 141.008354 
L 582.666527 149.702014 
L 583.252969 155.891684 
L 583.54619 157.90352 
L 583.839411 159.116553 
L 584.132633 159.473183 
L 584.425854 158.915808 
L 584.719075 157.413424 
L 585.305518 151.901771 
L 585.89196 143.727495 
L 587.064845 122.654554 
L 588.530951 95.942717 
L 589.117394 87.883232 
L 589.703836 82.630586 
L 589.997057 81.32911 
L 590.290279 81.056083 
L 590.5835 81.877113 
L 590.876721 83.684589 
L 591.463163 89.655212 
L 592.342827 102.236573 
L 593.515712 119.465338 
L 594.395376 128.961209 
L 594.981818 133.377806 
L 595.568261 136.235235 
L 595.861482 137.071766 
L 596.154703 137.509512 
L 596.447924 137.541682 
L 596.741146 137.146319 
L 597.034367 136.297677 
L 597.620809 133.137559 
L 598.207252 127.855342 
L 598.793694 120.245043 
L 599.673358 104.378329 
L 600.846243 82.142497 
L 601.432685 74.992667 
L 601.725906 73.276425 
L 602.019128 73.129453 
L 602.312349 74.708531 
L 602.60557 77.807113 
L 603.192013 87.373268 
L 604.95134 121.612297 
L 605.537782 127.549087 
L 605.831004 129.176898 
L 606.124225 130.12154 
L 606.417446 130.54093 
L 606.710667 130.592985 
L 607.590331 130.124296 
L 607.883552 130.286169 
L 608.176774 130.813376 
L 609.056437 133.092948 
L 609.349658 133.473615 
L 609.64288 133.358767 
L 609.936101 132.564852 
L 610.229322 130.908318 
L 610.522543 128.205612 
L 611.108986 119.578348 
L 612.868313 88.551253 
L 613.161534 85.828021 
L 613.454756 84.616473 
L 613.747977 85.128311 
L 614.041198 87.203652 
L 614.627641 95.033716 
L 615.507304 112.185546 
L 616.680189 134.577485 
L 617.266632 142.199253 
L 617.853074 147.331289 
L 618.439517 150.211187 
L 618.732738 150.880832 
L 619.025959 151.076539 
L 619.31918 150.828008 
L 619.612401 150.157646 
L 619.905623 149.058687 
L 620.492065 145.518753 
L 621.078508 140.095753 
L 621.66495 132.677233 
L 622.544614 117.594422 
L 624.303941 82.754273 
L 624.890384 74.920744 
L 625.183605 72.528728 
L 625.476826 71.347396 
L 625.770047 71.320072 
L 626.063269 72.342483 
L 626.35649 74.310351 
L 626.942932 80.66536 
L 627.822596 94.681914 
L 630.461587 142.056552 
L 631.048029 147.956253 
L 631.341251 149.633077 
L 631.634472 150.480454 
L 631.927693 150.576163 
L 632.220914 149.997985 
L 632.514136 148.8237 
L 633.100578 144.997928 
L 633.980242 136.732966 
L 635.446348 122.03173 
L 636.03279 118.263327 
L 636.326012 117.262872 
L 636.619233 116.995299 
L 636.912454 117.568397 
L 637.205675 119.047093 
L 637.792118 124.252346 
L 638.671781 135.439192 
L 639.844666 150.388454 
L 640.431109 155.401575 
L 641.017551 158.316167 
L 641.310772 159.01239 
L 641.603994 159.215033 
L 641.897215 158.934446 
L 642.190436 158.18098 
L 642.776879 155.296811 
L 643.363321 150.67153 
L 644.242985 140.944902 
L 645.41587 124.030483 
L 647.175197 96.408011 
L 647.76164 90.196034 
L 648.054861 88.283208 
L 648.348082 87.353278 
L 648.641303 87.546835 
L 648.934524 88.95154 
L 649.520967 94.845248 
L 650.400631 108.741819 
L 651.866737 133.613267 
L 652.453179 140.703762 
L 653.039622 145.566054 
L 653.332843 147.118872 
L 653.626064 148.063339 
L 653.919285 148.382354 
L 654.212507 148.058816 
L 654.505728 147.087414 
L 655.09217 143.380181 
L 655.678613 137.677928 
L 656.558276 126.322454 
L 658.904046 92.327484 
L 659.490489 87.540911 
L 659.78371 86.377794 
L 660.076931 86.198868 
L 660.370152 87.090486 
L 660.663374 88.992186 
L 661.249816 95.437172 
L 661.836259 104.756501 
L 662.715922 122.424495 
L 665.061692 172.059855 
L 665.648135 180.445323 
L 666.234577 185.520828 
L 666.527798 186.673665 
L 666.821019 186.916582 
L 667.114241 186.264711 
L 667.407462 184.733181 
L 667.993904 179.091671 
L 668.580347 170.113097 
L 669.460011 150.918888 
L 671.219338 108.673846 
L 671.80578 99.72249 
L 672.099002 97.113973 
L 672.392223 95.715534 
L 672.685444 95.38088 
L 672.978665 95.963715 
L 673.271886 97.317746 
L 673.858329 101.754216 
L 678.549869 145.674561 
L 679.136311 149.618127 
L 679.429532 150.832507 
L 679.722754 151.381858 
L 680.015975 151.146111 
L 680.309196 150.005194 
L 680.602417 147.839039 
L 681.18886 140.451454 
L 683.241408 108.024609 
L 683.53463 105.964162 
L 683.827851 105.238624 
L 684.121072 105.730995 
L 684.414293 107.249779 
L 685.000736 112.600606 
L 687.053284 135.86079 
L 687.639727 139.732482 
L 688.51939 144.057305 
L 689.399054 148.307897 
L 690.86516 156.319303 
L 691.158382 157.143518 
L 691.451603 157.412956 
L 691.744824 157.001006 
L 692.038045 155.781059 
L 692.331266 153.626504 
L 692.917709 146.505052 
L 694.677036 119.417674 
L 694.970257 116.660191 
L 695.263479 115.062937 
L 695.5567 114.797211 
L 695.849921 115.7322 
L 696.143142 117.661562 
L 696.729585 123.678039 
L 698.488912 144.47559 
L 699.368576 150.853958 
L 700.24824 155.462458 
L 701.714346 162.035363 
L 702.007567 162.730746 
L 702.300788 162.893607 
L 702.594009 162.376637 
L 702.887231 161.032528 
L 703.180452 158.713971 
L 703.766894 150.564276 
L 704.353337 137.385191 
L 706.405885 84.731484 
L 706.699107 80.777698 
L 706.992328 78.615294 
L 707.285549 78.124125 
L 707.57877 79.09406 
L 707.871992 81.31497 
L 708.458434 88.669193 
L 709.631319 109.143605 
L 711.097425 133.369665 
L 714.322859 183.495679 
L 714.909301 187.903513 
L 715.202522 188.572831 
L 715.495744 188.014306 
L 715.788965 186.139456 
L 716.375407 179.193623 
L 717.548292 159.154456 
L 718.427956 146.212688 
L 719.014398 141.724524 
L 719.30762 140.78775 
L 719.600841 140.628591 
L 719.894062 141.176605 
L 720.187283 142.361348 
L 720.773726 146.359252 
L 721.653389 155.366981 
L 723.705938 178.795238 
L 724.29238 182.827565 
L 724.585602 183.95479 
L 724.878823 184.435066 
L 725.172044 184.253084 
L 725.465265 183.393537 
L 725.758487 181.841118 
L 726.344929 176.596434 
L 726.931372 168.396573 
L 727.517814 157.14962 
L 728.690699 128.659528 
L 729.863584 101.05126 
L 730.450026 90.90796 
L 731.036469 84.286979 
L 731.32969 82.290619 
L 731.622911 81.160917 
L 731.916132 80.890801 
L 732.209354 81.473201 
L 732.502575 82.901044 
L 733.089017 88.264774 
L 733.67546 96.747083 
L 734.848345 119.096123 
L 736.02123 141.113857 
L 736.607672 149.341161 
L 737.194115 155.060656 
L 737.780557 158.100521 
L 738.073778 158.561898 
L 738.366999 158.288935 
L 738.660221 157.260154 
L 739.246663 153.025146 
L 739.833106 146.564652 
L 742.472097 113.253332 
L 743.058539 108.922885 
L 743.644982 106.365023 
L 743.938203 105.808722 
L 744.231424 105.765059 
L 744.524645 106.257198 
L 744.817867 107.308304 
L 745.404309 111.180073 
L 745.990751 117.565676 
L 746.577194 126.650428 
L 747.163636 138.619641 
L 747.163636 138.619641 
" clip-path="url(#pb427ea02b4)" style="fill: none; stroke: #0000ff; stroke-linecap: square"/>
   </g>
   <g id="patch_3">
    <path d="M 108 320.4 
L 108 43.2 
" style="fill: none; stroke: #000000; stroke-width: 0.8; stroke-linejoin: miter; stroke-linecap: square"/>
   </g>
   <g id="patch_4">
    <path d="M 777.6 320.4 
L 777.6 43.2 
" style="fill: none; stroke: #000000; stroke-width: 0.8; stroke-linejoin: miter; stroke-linecap: square"/>
   </g>
   <g id="patch_5">
    <path d="M 108 320.4 
L 777.6 320.4 
" style="fill: none; stroke: #000000; stroke-width: 0.8; stroke-linejoin: miter; stroke-linecap: square"/>
   </g>
   <g id="patch_6">
    <path d="M 108 43.2 
L 777.6 43.2 
" style="fill: none; stroke: #000000; stroke-width: 0.8; stroke-linejoin: miter; stroke-linecap: square"/>
   </g>
   <g id="text_14">
    <!-- Original Data -->
    <g transform="translate(396.830981 37.2) scale(0.156 -0.156)">
     <defs>
      <path id="CMR17-4f" d="M 4307 2135 
C 4307 3437 3366 4416 2304 4416 
C 1216 4416 294 3424 294 2135 
C 294 845 1229 -128 2298 -128 
C 3392 -128 4307 864 4307 2135 
z
M 2304 -13 
C 1574 -13 781 711 781 2217 
C 781 3716 1651 4301 2298 4301 
C 2976 4301 3821 3698 3821 2217 
C 3821 686 3008 -13 2304 -13 
z
" transform="scale(0.015625)"/>
      <path id="CMR17-72" d="M 960 1497 
C 960 2112 1222 2688 1702 2688 
C 1747 2688 1792 2682 1837 2662 
C 1837 2662 1696 2617 1696 2452 
C 1696 2298 1818 2234 1914 2234 
C 1990 2234 2131 2279 2131 2458 
C 2131 2663 1926 2790 1709 2790 
C 1222 2790 1011 2317 947 2093 
L 941 2093 
L 941 2790 
L 198 2720 
L 198 2554 
C 576 2554 634 2515 634 2208 
L 634 428 
C 634 184 608 153 198 153 
L 198 -13 
C 352 0 646 0 813 0 
C 998 0 1325 0 1498 -13 
L 1498 153 
C 1037 153 960 153 960 440 
L 960 1497 
z
" transform="scale(0.015625)"/>
      <path id="CMR17-67" d="M 710 1164 
C 832 1068 1043 960 1299 960 
C 1805 960 2240 1357 2240 1888 
C 2240 2054 2189 2310 1997 2509 
C 2176 2692 2438 2752 2586 2752 
C 2611 2752 2650 2752 2682 2734 
C 2656 2728 2598 2703 2598 2605 
C 2598 2527 2656 2471 2739 2471 
C 2835 2471 2886 2533 2886 2614 
C 2886 2731 2790 2854 2586 2854 
C 2330 2854 2106 2738 1926 2580 
C 1734 2753 1504 2816 1299 2816 
C 794 2816 358 2419 358 1888 
C 358 1522 570 1292 634 1228 
C 442 1004 442 743 442 711 
C 442 545 506 302 723 168 
C 390 85 128 -169 128 -486 
C 128 -943 736 -1280 1466 -1280 
C 2170 -1280 2803 -956 2803 -479 
C 2803 384 1856 384 1363 384 
C 1216 384 954 384 922 391 
C 723 423 589 602 589 826 
C 589 883 589 1024 710 1164 
z
M 1299 1068 
C 736 1068 736 1760 736 1889 
C 736 2016 736 2708 1299 2708 
C 1862 2708 1862 2016 1862 1889 
C 1862 1760 1862 1068 1299 1068 
z
M 1466 -1171 
C 826 -1171 384 -835 384 -486 
C 384 -289 493 -105 634 -4 
C 794 104 858 104 1293 104 
C 1818 104 2547 104 2547 -486 
C 2547 -835 2106 -1171 1466 -1171 
z
" transform="scale(0.015625)"/>
      <path id="CMR17-44" d="M 333 4352 
L 333 4186 
C 774 4186 845 4186 845 3900 
L 845 452 
C 845 166 774 166 333 166 
L 333 0 
L 2368 0 
C 3398 0 4224 943 4224 2141 
C 4224 3346 3411 4352 2368 4352 
L 333 4352 
z
M 1523 166 
C 1267 166 1254 197 1254 414 
L 1254 3938 
C 1254 4155 1267 4186 1523 4186 
L 2240 4186 
C 2771 4186 3750 3874 3750 2141 
C 3750 1242 3488 879 3366 707 
C 3213 510 2848 166 2240 166 
L 1523 166 
z
" transform="scale(0.015625)"/>
     </defs>
     <use xlink:href="#CMR17-4f" transform="scale(0.996264)"/>
     <use xlink:href="#CMR17-72" transform="translate(71.714788 0) scale(0.996264)"/>
     <use xlink:href="#CMR17-69" transform="translate(106.995556 0) scale(0.996264)"/>
     <use xlink:href="#CMR17-67" transform="translate(131.866615 0) scale(0.996264)"/>
     <use xlink:href="#CMR17-69" transform="translate(177.557092 0) scale(0.996264)"/>
     <use xlink:href="#CMR17-6e" transform="translate(202.42815 0) scale(0.996264)"/>
     <use xlink:href="#CMR17-61" transform="translate(253.32352 0) scale(0.996264)"/>
     <use xlink:href="#CMR17-6c" transform="translate(299.013997 0) scale(0.996264)"/>
     <use xlink:href="#CMR17-44" transform="translate(353.961022 0) scale(0.996264)"/>
     <use xlink:href="#CMR17-61" transform="translate(424.354578 0) scale(0.996264)"/>
     <use xlink:href="#CMR17-74" transform="translate(470.045055 0) scale(0.996264)"/>
     <use xlink:href="#CMR17-61" transform="translate(505.325823 0) scale(0.996264)"/>
    </g>
   </g>
  </g>
 </g>
 <defs>
  <clipPath id="pb427ea02b4">
   <rect x="108" y="43.2" width="669.6" height="277.2"/>
  </clipPath>
 </defs>
</svg>
