<?xml version="1.0" encoding="utf-8" standalone="no"?>
<!DOCTYPE svg PUBLIC "-//W3C//DTD SVG 1.1//EN"
  "http://www.w3.org/Graphics/SVG/1.1/DTD/svg11.dtd">
<svg xmlns:xlink="http://www.w3.org/1999/xlink" width="864pt" height="360pt" viewBox="0 0 864 360" xmlns="http://www.w3.org/2000/svg" version="1.1">
 <metadata>
  <rdf:RDF xmlns:dc="http://purl.org/dc/elements/1.1/" xmlns:cc="http://creativecommons.org/ns#" xmlns:rdf="http://www.w3.org/1999/02/22-rdf-syntax-ns#">
   <cc:Work>
    <dc:type rdf:resource="http://purl.org/dc/dcmitype/StillImage"/>
    <dc:date>2023-07-26T17:17:29.778680</dc:date>
    <dc:format>image/svg+xml</dc:format>
    <dc:creator>
     <cc:Agent>
      <dc:title>Matplotlib v3.7.1, https://matplotlib.org/</dc:title>
     </cc:Agent>
    </dc:creator>
   </cc:Work>
  </rdf:RDF>
 </metadata>
 <defs>
  <style type="text/css">*{stroke-linejoin: round; stroke-linecap: butt}</style>
 </defs>
 <g id="figure_1">
  <g id="patch_1">
   <path d="M 0 360 
L 864 360 
L 864 0 
L 0 0 
z
" style="fill: #ffffff"/>
  </g>
  <g id="axes_1">
   <g id="patch_2">
    <path d="M 70.609653 310.496228 
L 849.96 310.496228 
L 849.96 30.83284 
L 70.609653 30.83284 
z
" style="fill: #ffffff"/>
   </g>
   <g id="matplotlib.axis_1">
    <g id="xtick_1">
     <g id="line2d_1">
      <defs>
       <path id="m078ae51d6f" d="M 0 0 
L 0 3.5 
" style="stroke: #000000; stroke-width: 0.8"/>
      </defs>
      <g>
       <use xlink:href="#m078ae51d6f" x="106.034669" y="310.496228" style="stroke: #000000; stroke-width: 0.8"/>
      </g>
     </g>
     <g id="text_1">
      <!-- $\mathdefault{0}$ -->
      <g transform="translate(102.864299 326.490256) scale(0.13 -0.13)">
       <defs>
        <path id="CMR17-30" d="M 2688 2025 
C 2688 2416 2682 3080 2413 3591 
C 2176 4039 1798 4198 1466 4198 
C 1158 4198 768 4058 525 3597 
C 269 3118 243 2524 243 2025 
C 243 1661 250 1106 448 619 
C 723 -39 1216 -128 1466 -128 
C 1760 -128 2208 -7 2470 600 
C 2662 1042 2688 1559 2688 2025 
z
M 1466 -26 
C 1056 -26 813 325 723 812 
C 653 1188 653 1738 653 2096 
C 653 2588 653 2997 736 3387 
C 858 3929 1216 4096 1466 4096 
C 1728 4096 2067 3923 2189 3400 
C 2272 3036 2278 2607 2278 2096 
C 2278 1680 2278 1169 2202 792 
C 2067 95 1690 -26 1466 -26 
z
" transform="scale(0.015625)"/>
       </defs>
       <use xlink:href="#CMR17-30" transform="scale(0.996264)"/>
      </g>
     </g>
    </g>
    <g id="xtick_2">
     <g id="line2d_2">
      <g>
       <use xlink:href="#m078ae51d6f" x="248.0187" y="310.496228" style="stroke: #000000; stroke-width: 0.8"/>
      </g>
     </g>
     <g id="text_2">
      <!-- $\mathdefault{1}$ -->
      <g transform="translate(244.84833 326.490256) scale(0.13 -0.13)">
       <defs>
        <path id="CMR17-31" d="M 1702 4058 
C 1702 4192 1696 4192 1606 4192 
C 1357 3916 979 3827 621 3827 
C 602 3827 570 3827 563 3808 
C 557 3795 557 3782 557 3648 
C 755 3648 1088 3686 1344 3839 
L 1344 461 
C 1344 236 1331 160 781 160 
L 589 160 
L 589 0 
C 896 0 1216 0 1523 0 
C 1830 0 2150 0 2458 0 
L 2458 160 
L 2266 160 
C 1715 160 1702 230 1702 458 
L 1702 4058 
z
" transform="scale(0.015625)"/>
       </defs>
       <use xlink:href="#CMR17-31" transform="scale(0.996264)"/>
      </g>
     </g>
    </g>
    <g id="xtick_3">
     <g id="line2d_3">
      <g>
       <use xlink:href="#m078ae51d6f" x="390.002731" y="310.496228" style="stroke: #000000; stroke-width: 0.8"/>
      </g>
     </g>
     <g id="text_3">
      <!-- $\mathdefault{2}$ -->
      <g transform="translate(386.832362 326.490256) scale(0.13 -0.13)">
       <defs>
        <path id="CMR17-32" d="M 2669 989 
L 2554 989 
C 2490 536 2438 459 2413 420 
C 2381 369 1920 369 1830 369 
L 602 369 
C 832 619 1280 1072 1824 1597 
C 2214 1967 2669 2402 2669 3035 
C 2669 3790 2067 4224 1395 4224 
C 691 4224 262 3604 262 3030 
C 262 2780 448 2748 525 2748 
C 589 2748 781 2787 781 3010 
C 781 3207 614 3264 525 3264 
C 486 3264 448 3258 422 3245 
C 544 3790 915 4058 1306 4058 
C 1862 4058 2227 3617 2227 3035 
C 2227 2479 1901 2000 1536 1584 
L 262 146 
L 262 0 
L 2515 0 
L 2669 989 
z
" transform="scale(0.015625)"/>
       </defs>
       <use xlink:href="#CMR17-32" transform="scale(0.996264)"/>
      </g>
     </g>
    </g>
    <g id="xtick_4">
     <g id="line2d_4">
      <g>
       <use xlink:href="#m078ae51d6f" x="531.986762" y="310.496228" style="stroke: #000000; stroke-width: 0.8"/>
      </g>
     </g>
     <g id="text_4">
      <!-- $\mathdefault{3}$ -->
      <g transform="translate(528.816393 326.490256) scale(0.13 -0.13)">
       <defs>
        <path id="CMR17-33" d="M 1414 2157 
C 1984 2157 2234 1662 2234 1090 
C 2234 320 1824 25 1453 25 
C 1114 25 563 194 390 693 
C 422 680 454 680 486 680 
C 640 680 755 782 755 948 
C 755 1133 614 1216 486 1216 
C 378 1216 211 1165 211 926 
C 211 335 787 -128 1466 -128 
C 2176 -128 2720 430 2720 1085 
C 2720 1707 2208 2157 1600 2227 
C 2086 2328 2554 2756 2554 3329 
C 2554 3820 2048 4179 1472 4179 
C 890 4179 378 3829 378 3329 
C 378 3110 544 3072 627 3072 
C 762 3072 877 3155 877 3321 
C 877 3486 762 3569 627 3569 
C 602 3569 570 3569 544 3557 
C 730 3959 1235 4032 1459 4032 
C 1683 4032 2106 3925 2106 3320 
C 2106 3143 2080 2828 1862 2550 
C 1670 2304 1453 2304 1242 2284 
C 1210 2284 1062 2269 1037 2269 
C 992 2263 966 2257 966 2208 
C 966 2163 973 2157 1101 2157 
L 1414 2157 
z
" transform="scale(0.015625)"/>
       </defs>
       <use xlink:href="#CMR17-33" transform="scale(0.996264)"/>
      </g>
     </g>
    </g>
    <g id="xtick_5">
     <g id="line2d_5">
      <g>
       <use xlink:href="#m078ae51d6f" x="673.970793" y="310.496228" style="stroke: #000000; stroke-width: 0.8"/>
      </g>
     </g>
     <g id="text_5">
      <!-- $\mathdefault{4}$ -->
      <g transform="translate(670.800424 326.490256) scale(0.13 -0.13)">
       <defs>
        <path id="CMR17-34" d="M 2150 4122 
C 2150 4256 2144 4256 2029 4256 
L 128 1254 
L 128 1088 
L 1779 1088 
L 1779 457 
C 1779 224 1766 160 1318 160 
L 1197 160 
L 1197 0 
C 1402 0 1747 0 1965 0 
C 2182 0 2528 0 2733 0 
L 2733 160 
L 2611 160 
C 2163 160 2150 224 2150 457 
L 2150 1088 
L 2803 1088 
L 2803 1254 
L 2150 1254 
L 2150 4122 
z
M 1798 3703 
L 1798 1254 
L 256 1254 
L 1798 3703 
z
" transform="scale(0.015625)"/>
       </defs>
       <use xlink:href="#CMR17-34" transform="scale(0.996264)"/>
      </g>
     </g>
    </g>
    <g id="xtick_6">
     <g id="line2d_6">
      <g>
       <use xlink:href="#m078ae51d6f" x="815.954825" y="310.496228" style="stroke: #000000; stroke-width: 0.8"/>
      </g>
     </g>
     <g id="text_6">
      <!-- $\mathdefault{5}$ -->
      <g transform="translate(812.784455 326.490256) scale(0.13 -0.13)">
       <defs>
        <path id="CMR17-35" d="M 730 3692 
C 794 3666 1056 3584 1325 3584 
C 1920 3584 2246 3911 2432 4100 
C 2432 4157 2432 4192 2394 4192 
C 2387 4192 2374 4192 2323 4163 
C 2099 4058 1837 3973 1517 3973 
C 1325 3973 1037 3999 723 4139 
C 653 4171 640 4171 634 4171 
C 602 4171 595 4164 595 4037 
L 595 2203 
C 595 2089 595 2057 659 2057 
C 691 2057 704 2070 736 2114 
C 941 2401 1222 2522 1542 2522 
C 1766 2522 2246 2382 2246 1289 
C 2246 1085 2246 715 2054 421 
C 1894 159 1645 25 1370 25 
C 947 25 518 320 403 814 
C 429 807 480 795 506 795 
C 589 795 749 840 749 1038 
C 749 1210 627 1280 506 1280 
C 358 1280 262 1190 262 1011 
C 262 454 704 -128 1382 -128 
C 2042 -128 2669 440 2669 1264 
C 2669 2030 2170 2624 1549 2624 
C 1222 2624 947 2503 730 2274 
L 730 3692 
z
" transform="scale(0.015625)"/>
       </defs>
       <use xlink:href="#CMR17-35" transform="scale(0.996264)"/>
      </g>
     </g>
    </g>
    <g id="text_7">
     <!-- $t$ (s) -->
     <g transform="translate(448.448787 342.722142) scale(0.13 -0.13)">
      <defs>
       <path id="CMMI12-74" d="M 1286 2566 
L 1875 2566 
C 1997 2566 2061 2566 2061 2681 
C 2061 2752 2022 2752 1894 2752 
L 1331 2752 
L 1568 3692 
C 1594 3781 1594 3794 1594 3840 
C 1594 3943 1510 4000 1427 4000 
C 1376 4000 1229 3981 1178 3775 
L 928 2752 
L 326 2752 
C 198 2752 141 2752 141 2630 
C 141 2566 186 2566 307 2566 
L 877 2566 
L 454 881 
C 403 658 384 594 384 511 
C 384 211 595 -64 954 -64 
C 1600 -64 1946 868 1946 912 
C 1946 951 1920 970 1882 970 
C 1869 970 1843 970 1830 944 
C 1824 938 1818 931 1773 829 
C 1638 511 1344 64 973 64 
C 781 64 768 224 768 364 
C 768 370 768 492 787 568 
L 1286 2566 
z
" transform="scale(0.015625)"/>
       <path id="CMR17-28" d="M 1958 -1561 
C 1958 -1555 1958 -1542 1939 -1523 
C 1645 -1224 858 -407 858 1581 
C 858 3569 1632 4379 1946 4697 
C 1946 4704 1958 4717 1958 4736 
C 1958 4755 1939 4768 1914 4768 
C 1843 4768 1299 4296 986 3594 
C 666 2887 576 2199 576 1588 
C 576 1128 621 351 1005 -471 
C 1312 -1135 1837 -1600 1914 -1600 
C 1946 -1600 1958 -1587 1958 -1561 
z
" transform="scale(0.015625)"/>
       <path id="CMR17-73" d="M 1978 2697 
C 1978 2813 1971 2819 1933 2819 
C 1907 2819 1901 2813 1824 2717 
C 1805 2691 1747 2626 1728 2601 
C 1523 2819 1235 2819 1126 2819 
C 416 2819 160 2447 160 2076 
C 160 1498 813 1365 998 1325 
C 1402 1243 1542 1217 1677 1101 
C 1760 1025 1901 884 1901 654 
C 1901 384 1747 38 1158 38 
C 602 38 403 460 288 1021 
C 269 1110 269 1117 218 1117 
C 166 1117 160 1110 160 983 
L 160 63 
C 160 -51 166 -58 205 -58 
C 237 -58 243 -51 275 0 
C 314 57 410 211 448 276 
C 576 103 800 -64 1158 -64 
C 1792 -64 2131 283 2131 784 
C 2131 1112 1958 1285 1875 1362 
C 1683 1561 1459 1606 1190 1657 
C 838 1735 390 1825 390 2217 
C 390 2383 480 2737 1126 2737 
C 1811 2737 1850 2094 1862 1888 
C 1869 1856 1901 1849 1920 1849 
C 1978 1849 1978 1869 1978 1978 
L 1978 2697 
z
" transform="scale(0.015625)"/>
       <path id="CMR17-29" d="M 1683 1581 
C 1683 2040 1638 2817 1254 3639 
C 947 4303 422 4768 346 4768 
C 326 4768 301 4761 301 4729 
C 301 4717 307 4710 314 4697 
C 621 4378 1402 3568 1402 1584 
C 1402 -407 627 -1217 314 -1537 
C 307 -1549 301 -1556 301 -1568 
C 301 -1600 326 -1600 346 -1600 
C 416 -1600 960 -1128 1274 -426 
C 1594 281 1683 969 1683 1581 
z
" transform="scale(0.015625)"/>
      </defs>
      <use xlink:href="#CMMI12-74" transform="scale(0.996264)"/>
      <use xlink:href="#CMR17-28" transform="translate(65.302297 0) scale(0.996264)"/>
      <use xlink:href="#CMR17-73" transform="translate(100.583064 0) scale(0.996264)"/>
      <use xlink:href="#CMR17-29" transform="translate(136.384402 0) scale(0.996264)"/>
     </g>
    </g>
   </g>
   <g id="matplotlib.axis_2">
    <g id="ytick_1">
     <g id="line2d_7">
      <defs>
       <path id="mb91d816b41" d="M 0 0 
L -3.5 0 
" style="stroke: #000000; stroke-width: 0.8"/>
      </defs>
      <g>
       <use xlink:href="#mb91d816b41" x="70.609653" y="267.204701" style="stroke: #000000; stroke-width: 0.8"/>
      </g>
     </g>
     <g id="text_8">
      <!-- $\mathdefault{−0.01}$ -->
      <g transform="translate(30.991432 271.701715) scale(0.13 -0.13)">
       <defs>
        <path id="CMSY10-0" d="M 4218 1472 
C 4326 1472 4442 1472 4442 1600 
C 4442 1728 4326 1728 4218 1728 
L 755 1728 
C 646 1728 531 1728 531 1600 
C 531 1472 646 1472 755 1472 
L 4218 1472 
z
" transform="scale(0.015625)"/>
        <path id="CMMI12-3a" d="M 1178 307 
C 1178 492 1024 619 870 619 
C 685 619 557 466 557 313 
C 557 128 710 0 864 0 
C 1050 0 1178 153 1178 307 
z
" transform="scale(0.015625)"/>
       </defs>
       <use xlink:href="#CMSY10-0" transform="scale(0.996264)"/>
       <use xlink:href="#CMR17-30" transform="translate(77.487468 0) scale(0.996264)"/>
       <use xlink:href="#CMMI12-3a" transform="translate(123.177945 0) scale(0.996264)"/>
       <use xlink:href="#CMR17-30" transform="translate(150.275122 0) scale(0.996264)"/>
       <use xlink:href="#CMR17-31" transform="translate(195.965599 0) scale(0.996264)"/>
      </g>
     </g>
    </g>
    <g id="ytick_2">
     <g id="line2d_8">
      <g>
       <use xlink:href="#mb91d816b41" x="70.609653" y="206.572704" style="stroke: #000000; stroke-width: 0.8"/>
      </g>
     </g>
     <g id="text_9">
      <!-- $\mathdefault{0.00}$ -->
      <g transform="translate(41.064802 211.069718) scale(0.13 -0.13)">
       <use xlink:href="#CMR17-30" transform="scale(0.996264)"/>
       <use xlink:href="#CMMI12-3a" transform="translate(45.690477 0) scale(0.996264)"/>
       <use xlink:href="#CMR17-30" transform="translate(72.787654 0) scale(0.996264)"/>
       <use xlink:href="#CMR17-30" transform="translate(118.478131 0) scale(0.996264)"/>
      </g>
     </g>
    </g>
    <g id="ytick_3">
     <g id="line2d_9">
      <g>
       <use xlink:href="#mb91d816b41" x="70.609653" y="145.940706" style="stroke: #000000; stroke-width: 0.8"/>
      </g>
     </g>
     <g id="text_10">
      <!-- $\mathdefault{0.01}$ -->
      <g transform="translate(41.064802 150.43772) scale(0.13 -0.13)">
       <use xlink:href="#CMR17-30" transform="scale(0.996264)"/>
       <use xlink:href="#CMMI12-3a" transform="translate(45.690477 0) scale(0.996264)"/>
       <use xlink:href="#CMR17-30" transform="translate(72.787654 0) scale(0.996264)"/>
       <use xlink:href="#CMR17-31" transform="translate(118.478131 0) scale(0.996264)"/>
      </g>
     </g>
    </g>
    <g id="ytick_4">
     <g id="line2d_10">
      <g>
       <use xlink:href="#mb91d816b41" x="70.609653" y="85.308709" style="stroke: #000000; stroke-width: 0.8"/>
      </g>
     </g>
     <g id="text_11">
      <!-- $\mathdefault{0.02}$ -->
      <g transform="translate(41.064802 89.805723) scale(0.13 -0.13)">
       <use xlink:href="#CMR17-30" transform="scale(0.996264)"/>
       <use xlink:href="#CMMI12-3a" transform="translate(45.690477 0) scale(0.996264)"/>
       <use xlink:href="#CMR17-30" transform="translate(72.787654 0) scale(0.996264)"/>
       <use xlink:href="#CMR17-32" transform="translate(118.478131 0) scale(0.996264)"/>
      </g>
     </g>
    </g>
    <g id="text_12">
     <!-- displacement (m) -->
     <g transform="translate(23.753574 218.783693) rotate(-90) scale(0.13 -0.13)">
      <defs>
       <path id="CMR17-64" d="M 1869 4326 
L 1869 4160 
C 2246 4160 2304 4122 2304 3820 
L 2304 2345 
C 2278 2377 2016 2790 1498 2790 
C 845 2790 211 2208 211 1364 
C 211 525 806 -64 1434 -64 
C 1978 -64 2259 337 2291 380 
L 2291 -63 
L 3066 -63 
L 3066 128 
C 2688 128 2630 166 2630 473 
L 2630 4396 
L 1869 4326 
z
M 2291 755 
C 2291 563 2176 390 2029 262 
C 1811 70 1594 38 1472 38 
C 1286 38 621 134 621 1356 
C 621 2612 1363 2688 1530 2688 
C 1824 2688 2061 2522 2208 2291 
C 2291 2157 2291 2138 2291 2023 
L 2291 755 
z
" transform="scale(0.015625)"/>
       <path id="CMR17-69" d="M 992 3909 
C 992 4049 877 4170 730 4170 
C 589 4170 467 4056 467 3909 
C 467 3769 582 3648 730 3648 
C 870 3648 992 3763 992 3909 
z
M 243 2706 
L 243 2541 
C 602 2541 653 2502 653 2197 
L 653 427 
C 653 184 627 153 218 153 
L 218 -13 
C 371 0 646 0 806 0 
C 960 0 1222 0 1370 -13 
L 1370 153 
C 992 153 979 191 979 420 
L 979 2776 
L 243 2706 
z
" transform="scale(0.015625)"/>
       <path id="CMR17-70" d="M 1408 -1063 
C 998 -1063 973 -1037 973 -789 
L 973 402 
C 1158 134 1427 -38 1766 -38 
C 2406 -38 3053 523 3053 1388 
C 3053 2191 2496 2802 1837 2802 
C 1453 2802 1139 2592 960 2338 
L 960 2802 
L 198 2732 
L 198 2567 
C 576 2567 634 2528 634 2223 
L 634 -789 
C 634 -1031 608 -1063 198 -1063 
L 198 -1228 
C 352 -1216 634 -1216 800 -1216 
C 966 -1216 1254 -1216 1408 -1228 
L 1408 -1063 
z
M 973 2012 
C 973 2102 973 2235 1222 2471 
C 1254 2497 1472 2688 1792 2688 
C 2259 2688 2643 2108 2643 1382 
C 2643 656 2234 64 1728 64 
C 1498 64 1248 172 1056 472 
C 973 612 973 650 973 752 
L 973 2012 
z
" transform="scale(0.015625)"/>
       <path id="CMR17-6c" d="M 979 4396 
L 218 4326 
L 218 4160 
C 595 4160 653 4122 653 3817 
L 653 426 
C 653 184 627 153 218 153 
L 218 -13 
C 371 0 653 0 813 0 
C 979 0 1261 0 1414 -13 
L 1414 153 
C 1005 153 979 178 979 426 
L 979 4396 
z
" transform="scale(0.015625)"/>
       <path id="CMR17-61" d="M 2304 1653 
C 2304 2072 2304 2294 2035 2543 
C 1798 2752 1523 2816 1306 2816 
C 800 2816 435 2407 435 1971 
C 435 1728 627 1728 666 1728 
C 749 1728 896 1778 896 1954 
C 896 2112 774 2181 666 2181 
C 640 2181 608 2174 589 2168 
C 723 2592 1069 2714 1293 2714 
C 1613 2714 1965 2429 1965 1885 
L 1965 1600 
C 1587 1600 1133 1549 774 1357 
C 371 1133 256 813 256 570 
C 256 77 832 -64 1171 -64 
C 1523 -64 1850 139 1990 511 
C 2003 233 2182 -18 2464 -18 
C 2598 -18 2938 70 2938 567 
L 2938 920 
L 2822 920 
L 2822 562 
C 2822 178 2650 128 2566 128 
C 2304 128 2304 458 2304 738 
L 2304 1653 
z
M 1965 870 
C 1965 317 1568 38 1216 38 
C 896 38 646 275 646 570 
C 646 761 730 1100 1101 1305 
C 1408 1478 1760 1504 1965 1504 
L 1965 870 
z
" transform="scale(0.015625)"/>
       <path id="CMR17-63" d="M 2234 2240 
C 2112 2240 1933 2240 1933 2017 
C 1933 1838 2080 1787 2163 1787 
C 2208 1787 2394 1807 2394 2024 
C 2394 2467 1958 2803 1466 2803 
C 787 2803 211 2178 211 1363 
C 211 516 813 -64 1466 -64 
C 2259 -64 2458 677 2458 748 
C 2458 774 2451 793 2406 793 
C 2362 793 2355 787 2330 703 
C 2163 180 1798 51 1523 51 
C 1114 51 621 427 621 1369 
C 621 2338 1094 2688 1472 2688 
C 1722 2688 2093 2573 2234 2240 
z
" transform="scale(0.015625)"/>
       <path id="CMR17-65" d="M 2438 1472 
C 2464 1498 2464 1511 2464 1576 
C 2464 2238 2118 2816 1389 2816 
C 710 2816 173 2169 173 1383 
C 173 551 781 -64 1459 -64 
C 2176 -64 2458 607 2458 740 
C 2458 784 2419 784 2406 784 
C 2362 784 2355 771 2330 696 
C 2189 265 1837 51 1504 51 
C 1229 51 954 203 781 480 
C 582 803 582 1176 582 1472 
L 2438 1472 
z
M 589 1568 
C 634 2505 1126 2714 1382 2714 
C 1818 2714 2112 2297 2118 1568 
L 589 1568 
z
" transform="scale(0.015625)"/>
       <path id="CMR17-6d" d="M 4326 1933 
C 4326 2252 4269 2790 3507 2790 
C 3072 2790 2771 2496 2656 2151 
L 2650 2151 
C 2573 2676 2195 2790 1837 2790 
C 1331 2790 1069 2400 973 2144 
L 966 2144 
L 966 2790 
L 211 2720 
L 211 2554 
C 589 2554 646 2515 646 2208 
L 646 428 
C 646 184 621 153 211 153 
L 211 -13 
C 365 0 646 0 813 0 
C 979 0 1267 0 1421 -13 
L 1421 153 
C 1011 153 986 178 986 428 
L 986 1658 
C 986 2247 1344 2688 1792 2688 
C 2266 2688 2317 2266 2317 1958 
L 2317 428 
C 2317 184 2291 153 1882 153 
L 1882 -13 
C 2035 0 2317 0 2483 0 
C 2650 0 2938 0 3091 -13 
L 3091 153 
C 2682 153 2656 178 2656 428 
L 2656 1658 
C 2656 2247 3014 2688 3462 2688 
C 3936 2688 3987 2266 3987 1958 
L 3987 428 
C 3987 184 3962 153 3552 153 
L 3552 -13 
C 3706 0 3987 0 4154 0 
C 4320 0 4608 0 4762 -13 
L 4762 153 
C 4352 153 4326 178 4326 428 
L 4326 1933 
z
" transform="scale(0.015625)"/>
       <path id="CMR17-6e" d="M 2656 1933 
C 2656 2259 2592 2790 1837 2790 
C 1331 2790 1069 2400 973 2144 
L 966 2144 
L 966 2790 
L 211 2720 
L 211 2554 
C 589 2554 646 2515 646 2208 
L 646 428 
C 646 184 621 153 211 153 
L 211 -13 
C 365 0 646 0 813 0 
C 979 0 1267 0 1421 -13 
L 1421 153 
C 1011 153 986 178 986 428 
L 986 1658 
C 986 2247 1344 2688 1792 2688 
C 2266 2688 2317 2266 2317 1958 
L 2317 428 
C 2317 184 2291 153 1882 153 
L 1882 -13 
C 2035 0 2317 0 2483 0 
C 2650 0 2938 0 3091 -13 
L 3091 153 
C 2682 153 2656 178 2656 428 
L 2656 1933 
z
" transform="scale(0.015625)"/>
       <path id="CMR17-74" d="M 966 2560 
L 1862 2560 
L 1862 2725 
L 966 2725 
L 966 3904 
L 851 3904 
C 838 3245 614 2668 70 2668 
L 70 2560 
L 627 2560 
L 627 771 
C 627 650 627 -64 1370 -64 
C 1747 -64 1965 306 1965 777 
L 1965 1140 
L 1850 1140 
L 1850 783 
C 1850 344 1677 51 1408 51 
C 1222 51 966 178 966 758 
L 966 2560 
z
" transform="scale(0.015625)"/>
      </defs>
      <use xlink:href="#CMR17-64" transform="scale(0.996264)"/>
      <use xlink:href="#CMR17-69" transform="translate(50.89537 0) scale(0.996264)"/>
      <use xlink:href="#CMR17-73" transform="translate(75.766428 0) scale(0.996264)"/>
      <use xlink:href="#CMR17-70" transform="translate(111.567766 0) scale(0.996264)"/>
      <use xlink:href="#CMR17-6c" transform="translate(162.463136 0) scale(0.996264)"/>
      <use xlink:href="#CMR17-61" transform="translate(187.334194 0) scale(0.996264)"/>
      <use xlink:href="#CMR17-63" transform="translate(233.024671 0) scale(0.996264)"/>
      <use xlink:href="#CMR17-65" transform="translate(273.510332 0) scale(0.996264)"/>
      <use xlink:href="#CMR17-6d" transform="translate(313.995992 0) scale(0.996264)"/>
      <use xlink:href="#CMR17-65" transform="translate(390.915582 0) scale(0.996264)"/>
      <use xlink:href="#CMR17-6e" transform="translate(431.401243 0) scale(0.996264)"/>
      <use xlink:href="#CMR17-74" transform="translate(479.694158 0) scale(0.996264)"/>
      <use xlink:href="#CMR17-28" transform="translate(545.050893 0) scale(0.996264)"/>
      <use xlink:href="#CMR17-6d" transform="translate(580.33166 0) scale(0.996264)"/>
      <use xlink:href="#CMR17-29" transform="translate(657.25125 0) scale(0.996264)"/>
     </g>
    </g>
   </g>
   <g id="line2d_11">
    <path d="M 106.034669 43.544812 
L 108.87435 107.914024 
L 110.29419 136.250465 
L 111.71403 162.094464 
L 113.133871 185.500772 
L 114.553711 206.524138 
L 115.973551 225.219313 
L 117.393392 241.641049 
L 118.813232 255.844095 
L 120.233072 267.883202 
L 121.652913 277.813121 
L 123.072753 285.688602 
L 124.492593 291.564396 
L 125.912433 295.495253 
L 127.332274 297.535924 
L 128.752114 297.74116 
L 130.171954 296.165711 
L 131.591795 292.864328 
L 133.011635 287.891761 
L 134.431475 281.32703 
L 135.851316 273.346232 
L 137.271156 264.149732 
L 138.690996 253.937896 
L 141.530677 231.269681 
L 150.049719 159.757025 
L 151.469559 149.475876 
L 152.889399 140.232546 
L 154.30924 132.243899 
L 155.72908 125.726799 
L 157.14892 120.898111 
L 158.568761 117.9747 
L 159.988601 117.17343 
L 161.408441 118.711165 
L 162.828282 122.710534 
L 164.248122 128.917217 
L 165.667962 136.98266 
L 167.087802 146.558309 
L 169.927483 168.845999 
L 175.606844 216.207417 
L 177.026685 226.642521 
L 178.446525 236.08477 
L 179.866365 244.470988 
L 181.286206 251.738001 
L 182.706046 257.822634 
L 184.125886 262.661711 
L 185.545727 266.192057 
L 186.965567 268.350498 
L 188.385407 269.073859 
L 189.805247 268.298964 
L 191.225088 265.993533 
L 192.644928 262.248865 
L 194.064768 257.187152 
L 195.484609 250.930588 
L 196.904449 243.601365 
L 198.324289 235.321677 
L 201.16397 216.399676 
L 204.003651 195.142129 
L 208.263171 161.905495 
L 209.683012 151.641289 
L 211.102852 142.317872 
L 212.522692 134.255318 
L 213.942533 127.773699 
L 215.362373 123.193089 
L 216.782213 120.833558 
L 218.202054 121.015181 
L 219.621894 123.938732 
L 221.041734 129.327793 
L 222.461575 136.786649 
L 223.881415 145.919586 
L 225.301255 156.330888 
L 228.140936 179.405726 
L 230.980616 202.845443 
L 232.400457 213.712843 
L 233.820297 223.548817 
L 235.240137 232.280148 
L 236.659978 239.898119 
L 238.079818 246.394014 
L 239.499658 251.759115 
L 240.919499 255.984705 
L 242.339339 259.062068 
L 243.759179 260.982487 
L 245.17902 261.737244 
L 246.59886 261.317623 
L 248.0187 259.727838 
L 249.438541 257.023827 
L 250.858381 253.27446 
L 252.278221 248.548608 
L 253.698061 242.915139 
L 255.117902 236.442924 
L 256.537742 229.200832 
L 257.957582 221.257732 
L 260.797263 203.543991 
L 266.476624 165.130509 
L 267.896465 156.492226 
L 269.316305 148.826934 
L 270.736145 142.42811 
L 272.155985 137.589232 
L 273.575826 134.603777 
L 274.995666 133.765224 
L 276.415506 135.273137 
L 277.835347 138.951427 
L 279.255187 144.530096 
L 280.675027 151.739141 
L 282.094868 160.308562 
L 283.514708 169.968358 
L 286.354389 191.479074 
L 292.03375 235.841168 
L 294.87343 255.189684 
L 296.293271 263.551286 
L 297.713111 270.813974 
L 299.132951 276.809892 
L 300.552792 281.371182 
L 301.972632 284.329987 
L 303.392472 285.518451 
L 304.812313 284.827431 
L 306.232153 282.382642 
L 307.651993 278.368513 
L 309.071834 272.969475 
L 310.491674 266.369957 
L 311.911514 258.754389 
L 314.751195 241.212821 
L 319.010716 211.889171 
L 321.850396 192.443219 
L 324.690077 174.715141 
L 326.109917 166.931446 
L 327.529758 160.100589 
L 328.949598 154.397027 
L 330.369438 149.995218 
L 331.789279 147.069616 
L 333.209119 145.751346 
L 334.628959 145.998188 
L 336.048799 147.724592 
L 337.46864 150.845004 
L 338.88848 155.273874 
L 340.30832 160.925648 
L 341.728161 167.714775 
L 343.148001 175.555703 
L 344.567841 184.36288 
L 347.407522 204.4943 
L 353.086883 247.772413 
L 354.506724 257.356043 
L 355.926564 265.800561 
L 357.346404 272.783592 
L 358.766244 277.98276 
L 360.186085 281.149978 
L 361.605925 282.334317 
L 363.025765 281.659136 
L 364.445606 279.247795 
L 365.865446 275.223654 
L 367.285286 269.710072 
L 368.705127 262.830411 
L 370.124967 254.708028 
L 371.544807 245.466285 
L 372.964648 235.22854 
L 375.804328 212.52005 
L 380.063849 177.504311 
L 381.483689 166.856391 
L 382.90353 157.253021 
L 384.32337 149.013731 
L 385.74321 142.458055 
L 387.163051 137.905523 
L 388.582891 135.583599 
L 390.002731 135.351468 
L 391.422572 136.976247 
L 392.842412 140.225054 
L 394.262252 144.865004 
L 395.682093 150.663216 
L 397.101933 157.386805 
L 399.941613 172.678584 
L 405.620975 204.779098 
L 408.460655 219.595372 
L 411.300336 232.65951 
L 412.720176 238.318587 
L 414.140017 243.280503 
L 415.559857 247.45888 
L 416.979697 250.769676 
L 418.399538 253.138173 
L 419.819378 254.491986 
L 421.239218 254.758729 
L 422.659058 253.866018 
L 424.078899 251.741467 
L 425.498739 248.312691 
L 426.918579 243.507305 
L 428.33842 237.252924 
L 429.75826 229.477162 
L 431.1781 220.190927 
L 434.017781 198.546629 
L 438.277302 164.811119 
L 439.697142 154.937002 
L 441.116982 146.46069 
L 442.536823 139.80955 
L 443.956663 135.41095 
L 445.376503 133.573437 
L 446.796344 134.130287 
L 448.216184 136.795955 
L 449.636024 141.284895 
L 451.055865 147.311564 
L 452.475705 154.590417 
L 453.895545 162.835909 
L 456.735226 181.084632 
L 460.994747 208.842924 
L 463.834427 225.826739 
L 466.674108 240.82804 
L 468.093948 247.385191 
L 469.513789 253.206647 
L 470.933629 258.212384 
L 472.353469 262.322382 
L 473.77331 265.463348 
L 475.19315 267.588923 
L 476.61299 268.659477 
L 478.032831 268.635381 
L 479.452671 267.477006 
L 480.872511 265.144724 
L 482.292351 261.598904 
L 483.712192 256.799919 
L 485.132032 250.708139 
L 486.551872 243.283934 
L 487.971713 234.550981 
L 490.811393 214.329684 
L 495.070914 182.21215 
L 496.490755 172.390916 
L 497.910595 163.578976 
L 499.330435 156.116522 
L 500.750276 150.343744 
L 502.170116 146.517208 
L 503.589956 144.558963 
L 505.009796 144.30743 
L 506.429637 145.601028 
L 507.849477 148.278181 
L 509.269317 152.177307 
L 510.689158 157.136828 
L 512.108998 162.995166 
L 513.528838 169.59074 
L 516.368519 184.347935 
L 523.467721 222.970883 
L 524.887561 229.730488 
L 526.307401 235.800562 
L 527.727241 241.023446 
L 529.147082 245.241482 
L 530.566922 248.326315 
L 531.986762 250.266809 
L 533.406603 251.081132 
L 534.826443 250.787451 
L 536.246283 249.403936 
L 537.666124 246.948753 
L 539.085964 243.440071 
L 540.505804 238.896057 
L 541.925645 233.33488 
L 543.345485 226.774708 
L 544.765325 219.272787 
L 547.605006 202.337034 
L 551.864527 175.89327 
L 553.284367 167.811885 
L 554.704207 160.518173 
L 556.124048 154.264776 
L 557.543888 149.304339 
L 558.963728 145.832577 
L 560.383569 143.817508 
L 561.803409 143.170223 
L 563.223249 143.801813 
L 564.64309 145.623367 
L 566.06293 148.545979 
L 567.48277 152.480738 
L 568.90261 157.338735 
L 570.322451 163.031062 
L 571.742291 169.468809 
L 574.581972 184.036135 
L 578.841493 206.777147 
L 580.261333 213.67281 
L 581.681173 219.841963 
L 583.101014 225.054102 
L 584.520854 229.078724 
L 585.940694 231.736105 
L 587.360535 233.049644 
L 588.780375 233.093519 
L 590.200215 231.941908 
L 591.620055 229.668989 
L 593.039896 226.348941 
L 594.459736 222.055941 
L 595.879576 216.864168 
L 597.299417 210.847801 
L 598.719257 204.081017 
L 601.558938 188.790623 
L 605.818459 164.676301 
L 607.238299 157.213708 
L 608.658139 150.409638 
L 610.077979 144.486554 
L 611.49782 139.666914 
L 612.91766 136.17318 
L 614.3375 134.173417 
L 615.757341 133.618108 
L 617.177181 134.403341 
L 618.597021 136.425205 
L 620.016862 139.579788 
L 621.436702 143.763178 
L 622.856542 148.871464 
L 624.276383 154.800734 
L 625.696223 161.447076 
L 628.535904 176.462411 
L 635.635105 216.530773 
L 637.054945 223.532377 
L 638.474786 229.773322 
L 639.894626 235.072194 
L 641.314466 239.247576 
L 642.734307 242.153819 
L 644.154147 243.788339 
L 645.573987 244.184314 
L 646.993828 243.374927 
L 648.413668 241.393356 
L 649.833508 238.272783 
L 651.253348 234.046387 
L 652.673189 228.74735 
L 654.093029 222.408851 
L 655.512869 215.064071 
L 656.93271 206.788446 
L 659.77239 188.464765 
L 662.612071 169.689294 
L 664.031911 160.848931 
L 665.451752 152.755774 
L 666.871592 145.69654 
L 668.291432 139.957947 
L 669.711273 135.826712 
L 671.131113 133.515658 
L 672.550953 132.942029 
L 673.970793 133.949171 
L 675.390634 136.380432 
L 676.810474 140.07916 
L 678.230314 144.888702 
L 679.650155 150.652407 
L 681.069995 157.213621 
L 683.909676 172.10197 
L 688.169197 196.607642 
L 691.008877 212.814227 
L 693.848558 227.67858 
L 695.268398 234.275865 
L 696.688238 240.139726 
L 698.108079 245.137541 
L 699.527919 249.150596 
L 700.947759 252.115809 
L 702.3676 253.984004 
L 703.78744 254.706009 
L 705.20728 254.232649 
L 706.627121 252.514748 
L 708.046961 249.503134 
L 709.466801 245.148632 
L 710.886642 239.402066 
L 712.306482 232.214264 
L 713.726322 223.606565 
L 716.566003 203.415571 
L 720.825524 171.298743 
L 722.245364 161.600683 
L 723.665204 153.02958 
L 725.085045 145.959346 
L 726.504885 140.763889 
L 727.924725 137.717585 
L 729.344566 136.696677 
L 730.764406 137.477871 
L 732.184246 139.837874 
L 733.604087 143.553394 
L 735.023927 148.401139 
L 736.443767 154.157816 
L 739.283448 167.504796 
L 744.962809 195.910173 
L 747.80249 209.050209 
L 749.22233 215.059433 
L 750.64217 220.583473 
L 752.062011 225.538838 
L 753.481851 229.842038 
L 754.901691 233.409581 
L 756.321531 236.167462 
L 757.741372 238.079617 
L 759.161212 239.119469 
L 760.581052 239.26044 
L 762.000893 238.475952 
L 763.420733 236.739427 
L 764.840573 234.024286 
L 766.260414 230.303953 
L 767.680254 225.551849 
L 769.100094 219.741396 
L 770.519935 212.890932 
L 773.359615 196.906889 
L 779.038976 162.607996 
L 780.458817 154.964699 
L 781.878657 148.179806 
L 783.298497 142.496232 
L 784.718338 138.107995 
L 786.138178 135.013524 
L 787.558018 133.162347 
L 788.977859 132.503994 
L 790.397699 132.987994 
L 791.817539 134.563877 
L 793.23738 137.181173 
L 794.65722 140.789411 
L 796.07706 145.33812 
L 797.496901 150.77683 
L 798.916741 157.029549 
L 801.756421 171.23919 
L 806.015942 193.760199 
L 807.435783 200.774559 
L 808.855623 207.203269 
L 810.275463 212.842732 
L 811.695304 217.48935 
L 813.115144 220.984698 
L 814.534984 223.351031 
L 814.534984 223.351031 
" clip-path="url(#p3a0534b287)" style="fill: none; stroke: #ff0000; stroke-linecap: square"/>
   </g>
   <g id="line2d_12">
    <path d="M 106.034669 128.366089 
L 107.454509 151.094364 
L 108.87435 171.71766 
L 110.29419 190.301014 
L 111.71403 206.909461 
L 113.133871 221.608039 
L 114.553711 234.461783 
L 115.973551 245.535731 
L 117.393392 254.89492 
L 118.813232 262.604385 
L 120.233072 268.729163 
L 121.652913 273.33429 
L 123.072753 276.484804 
L 124.492593 278.245741 
L 125.912433 278.682136 
L 127.332274 277.859028 
L 128.752114 275.841452 
L 130.171954 272.694445 
L 131.591795 268.483043 
L 133.011635 263.272283 
L 134.431475 257.137645 
L 135.851316 250.196382 
L 138.690996 234.404766 
L 141.530677 216.919008 
L 147.210038 180.951354 
L 150.049719 164.55114 
L 151.469559 157.256499 
L 152.889399 150.774302 
L 154.30924 145.26115 
L 155.72908 140.873644 
L 157.14892 137.768383 
L 158.568761 136.101968 
L 159.988601 136.031 
L 161.408441 137.712078 
L 162.828282 141.241766 
L 164.248122 146.476471 
L 165.667962 153.212567 
L 167.087802 161.246423 
L 168.507643 170.374411 
L 171.347323 191.09827 
L 179.866365 258.229457 
L 181.286206 267.873925 
L 182.706046 276.467644 
L 184.125886 283.779837 
L 185.545727 289.579726 
L 186.965567 293.636534 
L 188.385407 295.719484 
L 189.805247 295.597799 
L 191.225088 293.129337 
L 192.644928 288.526496 
L 194.064768 282.09031 
L 195.484609 274.121812 
L 196.904449 264.922037 
L 199.74413 244.032789 
L 204.003651 210.990178 
L 206.843331 191.079424 
L 208.263171 182.260432 
L 209.683012 174.345162 
L 211.102852 167.443213 
L 212.522692 161.664185 
L 213.942533 157.117676 
L 215.362373 153.913286 
L 216.782213 152.160614 
L 218.202054 151.969259 
L 219.621894 153.410044 
L 221.041734 156.398682 
L 222.461575 160.812111 
L 223.881415 166.527267 
L 225.301255 173.421089 
L 226.721096 181.370512 
L 228.140936 190.252475 
L 230.980616 210.321767 
L 233.820297 232.607432 
L 236.659978 255.236244 
L 238.079818 265.830107 
L 239.499658 275.483284 
L 240.919499 283.850531 
L 242.339339 290.586604 
L 243.759179 295.34626 
L 245.17902 297.784255 
L 246.59886 297.555346 
L 248.0187 294.434059 
L 249.438541 288.673994 
L 250.858381 280.648526 
L 252.278221 270.731024 
L 253.698061 259.294862 
L 256.537742 233.360039 
L 260.797263 192.40214 
L 263.636944 167.722066 
L 265.056784 156.722126 
L 266.476624 146.753047 
L 267.896465 137.917926 
L 269.316305 130.319861 
L 270.736145 124.061948 
L 272.155985 119.247285 
L 273.575826 115.978969 
L 274.995666 114.360098 
L 276.415506 114.456218 
L 277.835347 116.182676 
L 279.255187 119.417267 
L 280.675027 124.037787 
L 282.094868 129.922032 
L 283.514708 136.947798 
L 284.934548 144.99288 
L 286.354389 153.935075 
L 289.194069 174.021983 
L 296.293271 228.317472 
L 297.713111 237.804474 
L 299.132951 246.205468 
L 300.552792 253.251037 
L 301.972632 258.671764 
L 303.392472 262.19823 
L 304.812313 263.636027 
L 306.232153 263.090781 
L 307.651993 260.743124 
L 309.071834 256.773691 
L 310.491674 251.363116 
L 311.911514 244.692034 
L 313.331354 236.941078 
L 314.751195 228.290882 
L 317.590875 209.015307 
L 323.270237 168.056611 
L 324.690077 158.584512 
L 326.109917 149.862355 
L 327.529758 142.111595 
L 328.949598 135.553689 
L 330.369438 130.410091 
L 331.789279 126.902259 
L 333.209119 125.196926 
L 334.628959 125.241935 
L 336.048799 126.930409 
L 337.46864 130.15547 
L 338.88848 134.810238 
L 340.30832 140.787837 
L 341.728161 147.981389 
L 343.148001 156.284013 
L 344.567841 165.588834 
L 347.407522 186.739363 
L 353.086883 231.705287 
L 354.506724 241.55785 
L 355.926564 250.182843 
L 357.346404 257.244264 
L 358.766244 262.406111 
L 360.186085 265.415853 
L 361.605925 266.354838 
L 363.025765 265.387882 
L 364.445606 262.679804 
L 365.865446 258.395421 
L 367.285286 252.69955 
L 368.705127 245.757009 
L 370.124967 237.732616 
L 371.544807 228.791187 
L 374.384488 208.829208 
L 380.063849 166.703622 
L 381.483689 157.1146 
L 382.90353 148.384701 
L 384.32337 140.755015 
L 385.74321 134.466627 
L 387.163051 129.760625 
L 388.582891 126.814415 
L 390.002731 125.550674 
L 391.422572 125.8284 
L 392.842412 127.506587 
L 394.262252 130.444232 
L 395.682093 134.500331 
L 397.101933 139.53388 
L 398.521773 145.403875 
L 399.941613 151.969312 
L 402.781294 166.622506 
L 409.880496 205.557065 
L 411.300336 212.610862 
L 412.720176 219.091385 
L 414.140017 224.857675 
L 415.559857 229.768773 
L 416.979697 233.702835 
L 418.399538 236.614467 
L 419.819378 238.477388 
L 421.239218 239.265318 
L 422.659058 238.951977 
L 424.078899 237.511085 
L 425.498739 234.91636 
L 426.918579 231.141523 
L 428.33842 226.160293 
L 429.75826 219.94639 
L 431.1781 212.533271 
L 434.017781 195.258742 
L 438.277302 168.208366 
L 439.697142 160.216522 
L 441.116982 153.290724 
L 442.536823 147.763114 
L 443.956663 143.965836 
L 445.376503 142.136346 
L 446.796344 142.133366 
L 448.216184 143.720931 
L 449.636024 146.663077 
L 451.055865 150.72384 
L 452.475705 155.667255 
L 455.315386 167.258186 
L 459.574907 185.407526 
L 462.414587 196.302624 
L 465.254268 206.212642 
L 468.093948 215.273312 
L 470.933629 223.620364 
L 473.77331 231.353356 
L 475.19315 234.81045 
L 476.61299 237.739921 
L 478.032831 239.941711 
L 479.452671 241.215762 
L 480.872511 241.362015 
L 482.292351 240.180412 
L 483.712192 237.470894 
L 485.132032 233.033403 
L 486.551872 226.66788 
L 487.971713 218.291052 
L 489.391553 208.286788 
L 492.231234 185.39856 
L 495.070914 162.00842 
L 496.490755 151.376766 
L 497.910595 142.121593 
L 499.330435 134.743554 
L 500.750276 129.743301 
L 502.170116 127.47989 
L 503.589956 127.745973 
L 505.009796 130.192607 
L 506.429637 134.470847 
L 507.849477 140.231748 
L 509.269317 147.126365 
L 512.108998 162.920969 
L 514.948679 179.0631 
L 517.788359 193.305166 
L 520.62804 205.575426 
L 523.467721 216.346105 
L 526.307401 226.08943 
L 530.566922 239.760942 
L 531.986762 243.981513 
L 533.406603 247.697317 
L 534.826443 250.666331 
L 536.246283 252.646536 
L 537.666124 253.395911 
L 539.085964 252.672434 
L 540.505804 250.234085 
L 541.925645 245.838844 
L 543.345485 239.244688 
L 544.765325 230.33617 
L 546.185165 219.504124 
L 549.024846 194.139079 
L 553.284367 154.600232 
L 554.704207 143.09257 
L 556.124048 133.28323 
L 557.543888 125.689619 
L 558.963728 120.700014 
L 560.383569 118.186168 
L 561.803409 117.890703 
L 563.223249 119.556242 
L 564.64309 122.925408 
L 566.06293 127.740824 
L 567.48277 133.745113 
L 568.90261 140.680896 
L 571.742291 156.31744 
L 580.261333 205.384917 
L 583.101014 220.219404 
L 585.940694 233.284258 
L 587.360535 238.902714 
L 588.780375 243.732993 
L 590.200215 247.638372 
L 591.620055 250.482131 
L 593.039896 252.127545 
L 594.459736 252.437892 
L 595.879576 251.27645 
L 597.299417 248.506496 
L 598.719257 243.991308 
L 600.139097 237.67821 
L 601.558938 229.850716 
L 602.978778 220.876387 
L 605.818459 200.957467 
L 608.658139 180.861938 
L 610.077979 171.666848 
L 611.49782 163.530288 
L 612.91766 156.819819 
L 614.3375 151.832117 
L 615.757341 148.580312 
L 617.177181 147.006651 
L 618.597021 147.053378 
L 620.016862 148.662738 
L 621.436702 151.776978 
L 622.856542 156.338342 
L 624.276383 162.289076 
L 625.696223 169.571426 
L 627.116063 178.127635 
L 628.535904 187.858912 
L 631.375584 209.753819 
L 635.635105 244.11721 
L 637.054945 254.761319 
L 638.474786 264.4936 
L 639.894626 273.010062 
L 641.314466 280.006714 
L 642.734307 285.245204 
L 644.154147 288.749727 
L 645.573987 290.610118 
L 646.993828 290.916212 
L 648.413668 289.757841 
L 649.833508 287.224839 
L 651.253348 283.407042 
L 652.673189 278.394283 
L 654.093029 272.276395 
L 655.512869 265.143213 
L 656.93271 257.105225 
L 659.77239 239.107894 
L 665.451752 201.413009 
L 666.871592 192.881989 
L 668.291432 185.135562 
L 669.711273 178.387487 
L 671.131113 172.817462 
L 672.550953 168.468962 
L 673.970793 165.351404 
L 675.390634 163.474205 
L 676.810474 162.846783 
L 678.230314 163.478554 
L 679.650155 165.378937 
L 681.069995 168.557349 
L 682.489835 173.023206 
L 683.909676 178.785926 
L 685.329516 185.806896 
L 686.749356 193.855384 
L 689.589037 211.919866 
L 693.848558 239.753917 
L 695.268398 248.113506 
L 696.688238 255.549277 
L 698.108079 261.782468 
L 699.527919 266.591763 
L 700.947759 269.985629 
L 702.3676 272.029982 
L 703.78744 272.790736 
L 705.20728 272.333804 
L 706.627121 270.725101 
L 708.046961 268.030541 
L 709.466801 264.31604 
L 710.886642 259.64751 
L 712.306482 254.090866 
L 713.726322 247.732502 
L 716.566003 233.304335 
L 722.245364 202.888358 
L 723.665204 196.060713 
L 725.085045 189.921186 
L 726.504885 184.658568 
L 727.924725 180.426052 
L 729.344566 177.234451 
L 730.764406 175.058978 
L 732.184246 173.874849 
L 733.604087 173.65728 
L 735.023927 174.381485 
L 736.443767 176.022679 
L 737.863607 178.556079 
L 739.283448 181.956898 
L 740.703288 186.200353 
L 742.123128 191.238668 
L 743.542969 196.932113 
L 746.382649 209.633509 
L 750.64217 229.531057 
L 753.481851 241.461316 
L 754.901691 246.537852 
L 756.321531 250.826703 
L 757.741372 254.27351 
L 759.161212 256.845585 
L 760.581052 258.510242 
L 762.000893 259.234793 
L 763.420733 258.986551 
L 764.840573 257.732828 
L 766.260414 255.440937 
L 767.680254 252.078192 
L 769.100094 247.611904 
L 770.519935 242.053006 
L 771.939775 235.586904 
L 774.779456 220.8492 
L 779.038976 197.664286 
L 780.458817 190.564527 
L 781.878657 184.160751 
L 783.298497 178.681985 
L 784.718338 174.314177 
L 786.138178 171.070963 
L 787.558018 168.922899 
L 788.977859 167.84054 
L 790.397699 167.794444 
L 791.817539 168.755167 
L 793.23738 170.693265 
L 794.65722 173.579295 
L 796.07706 177.383814 
L 797.496901 182.077377 
L 798.916741 187.608296 
L 800.336581 193.835906 
L 803.176262 207.729553 
L 808.855623 236.709055 
L 810.275463 243.251994 
L 811.695304 249.188336 
L 813.115144 254.367003 
L 814.534984 258.684244 
L 814.534984 258.684244 
" clip-path="url(#p3a0534b287)" style="fill: none; stroke: #00008b; stroke-linecap: square"/>
   </g>
   <g id="patch_3">
    <path d="M 70.609653 310.496228 
L 70.609653 30.83284 
" style="fill: none; stroke: #000000; stroke-width: 0.8; stroke-linejoin: miter; stroke-linecap: square"/>
   </g>
   <g id="patch_4">
    <path d="M 849.96 310.496228 
L 849.96 30.83284 
" style="fill: none; stroke: #000000; stroke-width: 0.8; stroke-linejoin: miter; stroke-linecap: square"/>
   </g>
   <g id="patch_5">
    <path d="M 70.609653 310.496228 
L 849.96 310.496228 
" style="fill: none; stroke: #000000; stroke-width: 0.8; stroke-linejoin: miter; stroke-linecap: square"/>
   </g>
   <g id="patch_6">
    <path d="M 70.609653 30.83284 
L 849.96 30.83284 
" style="fill: none; stroke: #000000; stroke-width: 0.8; stroke-linejoin: miter; stroke-linecap: square"/>
   </g>
   <g id="text_13">
    <!-- Shifted data -->
    <g transform="translate(419.492736 24.83284) scale(0.156 -0.156)">
     <defs>
      <path id="CMR17-53" d="M 2803 4290 
C 2803 4404 2797 4411 2758 4411 
C 2720 4411 2707 4385 2682 4328 
L 2490 3907 
C 2246 4257 1875 4416 1472 4416 
C 819 4416 294 3901 294 3253 
C 294 3056 339 2776 557 2510 
C 794 2218 1018 2167 1530 2033 
C 1722 1982 2042 1899 2106 1874 
C 2470 1722 2662 1341 2662 985 
C 2662 527 2336 38 1779 38 
C 1094 38 454 419 410 1311 
C 403 1413 397 1419 352 1419 
C 301 1419 294 1413 294 1285 
L 294 -1 
C 294 -115 301 -122 339 -122 
C 384 -122 397 -90 486 108 
C 493 127 493 140 614 381 
C 934 -39 1472 -128 1779 -128 
C 2477 -128 2970 451 2970 1124 
C 2970 1454 2848 1708 2778 1823 
C 2509 2230 2221 2306 1914 2382 
C 1869 2402 1856 2402 1498 2490 
C 1152 2579 1005 2624 845 2796 
C 666 2992 602 3196 602 3399 
C 602 3812 934 4263 1478 4263 
C 2157 4263 2579 3786 2675 2993 
C 2694 2878 2701 2872 2746 2872 
C 2803 2872 2803 2891 2803 2999 
L 2803 4290 
z
" transform="scale(0.015625)"/>
      <path id="CMR17-68" d="M 2656 1933 
C 2656 2259 2592 2790 1837 2790 
C 1312 2790 1056 2368 979 2157 
L 973 2157 
L 973 4396 
L 211 4326 
L 211 4160 
C 589 4160 646 4122 646 3817 
L 646 426 
C 646 184 621 153 211 153 
L 211 -13 
C 365 0 646 0 813 0 
C 979 0 1267 0 1421 -13 
L 1421 153 
C 1011 153 986 178 986 428 
L 986 1658 
C 986 2247 1344 2688 1792 2688 
C 2266 2688 2317 2266 2317 1958 
L 2317 428 
C 2317 184 2291 153 1882 153 
L 1882 -13 
C 2035 0 2317 0 2483 0 
C 2650 0 2938 0 3091 -13 
L 3091 153 
C 2682 153 2656 178 2656 428 
L 2656 1933 
z
" transform="scale(0.015625)"/>
      <path id="CMR17-66" d="M 979 2560 
L 1709 2560 
L 1709 2725 
L 966 2725 
L 966 3494 
C 966 4022 1235 4352 1510 4352 
C 1594 4352 1690 4327 1754 4282 
C 1702 4269 1568 4225 1568 4067 
C 1568 3901 1696 3850 1786 3850 
C 1875 3850 2003 3901 2003 4067 
C 2003 4308 1773 4454 1517 4454 
C 1152 4454 653 4156 653 3481 
L 653 2725 
L 141 2725 
L 141 2560 
L 653 2560 
L 653 427 
C 653 184 627 153 218 153 
L 218 -13 
C 371 0 666 0 832 0 
C 1018 0 1344 0 1517 -13 
L 1517 153 
C 1056 153 979 153 979 439 
L 979 2560 
z
" transform="scale(0.015625)"/>
     </defs>
     <use xlink:href="#CMR17-53" transform="scale(0.996264)"/>
     <use xlink:href="#CMR17-68" transform="translate(50.89537 0) scale(0.996264)"/>
     <use xlink:href="#CMR17-69" transform="translate(101.79074 0) scale(0.996264)"/>
     <use xlink:href="#CMR17-66" transform="translate(126.661798 0) scale(0.996264)"/>
     <use xlink:href="#CMR17-74" transform="translate(154.13531 0) scale(0.996264)"/>
     <use xlink:href="#CMR17-65" transform="translate(189.416078 0) scale(0.996264)"/>
     <use xlink:href="#CMR17-64" transform="translate(229.901739 0) scale(0.996264)"/>
     <use xlink:href="#CMR17-64" transform="translate(310.873075 0) scale(0.996264)"/>
     <use xlink:href="#CMR17-61" transform="translate(361.768445 0) scale(0.996264)"/>
     <use xlink:href="#CMR17-74" transform="translate(407.458922 0) scale(0.996264)"/>
     <use xlink:href="#CMR17-61" transform="translate(442.73969 0) scale(0.996264)"/>
    </g>
   </g>
   <g id="legend_1">
    <g id="patch_7">
     <path d="M 787.39472 77.469464 
L 840.86 77.469464 
Q 843.46 77.469464 843.46 74.869464 
L 843.46 39.93284 
Q 843.46 37.33284 840.86 37.33284 
L 787.39472 37.33284 
Q 784.79472 37.33284 784.79472 39.93284 
L 784.79472 74.869464 
Q 784.79472 77.469464 787.39472 77.469464 
z
" style="fill: #ffffff; opacity: 0.8; stroke: #cccccc; stroke-linejoin: miter"/>
    </g>
    <g id="line2d_13">
     <path d="M 789.99472 47.08284 
L 802.99472 47.08284 
L 815.99472 47.08284 
" style="fill: none; stroke: #ff0000; stroke-linecap: square"/>
    </g>
    <g id="text_14">
     <!-- $x_1$ -->
     <g transform="translate(826.39472 51.63284) scale(0.13 -0.13)">
      <defs>
       <path id="CMMI12-78" d="M 3034 2606 
C 2829 2567 2752 2414 2752 2293 
C 2752 2139 2874 2088 2963 2088 
C 3155 2088 3290 2254 3290 2427 
C 3290 2695 2982 2816 2714 2816 
C 2323 2816 2106 2433 2048 2312 
C 1901 2816 1504 2816 1389 2816 
C 736 2816 390 1980 390 1839 
C 390 1814 416 1782 461 1782 
C 512 1782 525 1820 538 1846 
C 755 2555 1184 2689 1370 2689 
C 1658 2689 1715 2420 1715 2267 
C 1715 2127 1677 1980 1600 1673 
L 1382 798 
C 1286 415 1101 64 762 64 
C 730 64 570 64 435 147 
C 666 192 717 383 717 460 
C 717 588 621 664 499 664 
C 346 664 179 530 179 326 
C 179 57 480 -64 755 -64 
C 1062 -64 1280 179 1414 441 
C 1517 64 1837 -64 2074 -64 
C 2726 -64 3072 773 3072 913 
C 3072 945 3046 971 3008 971 
C 2950 971 2944 939 2925 888 
C 2752 326 2381 64 2093 64 
C 1869 64 1747 230 1747 492 
C 1747 632 1773 734 1875 1156 
L 2099 2024 
C 2195 2408 2413 2689 2707 2689 
C 2720 2689 2899 2689 3034 2606 
z
" transform="scale(0.015625)"/>
      </defs>
      <use xlink:href="#CMMI12-78" transform="scale(0.996264)"/>
      <use xlink:href="#CMR17-31" transform="translate(55.43406 -14.943915) scale(0.697382)"/>
     </g>
    </g>
    <g id="line2d_14">
     <path d="M 789.99472 65.201152 
L 802.99472 65.201152 
L 815.99472 65.201152 
" style="fill: none; stroke: #00008b; stroke-linecap: square"/>
    </g>
    <g id="text_15">
     <!-- $x_2$ -->
     <g transform="translate(826.39472 69.751152) scale(0.13 -0.13)">
      <use xlink:href="#CMMI12-78" transform="scale(0.996264)"/>
      <use xlink:href="#CMR17-32" transform="translate(55.43406 -14.943915) scale(0.697382)"/>
     </g>
    </g>
   </g>
  </g>
 </g>
 <defs>
  <clipPath id="p3a0534b287">
   <rect x="70.609653" y="30.83284" width="779.350347" height="279.663388"/>
  </clipPath>
 </defs>
</svg>
