<?xml version="1.0" encoding="utf-8" standalone="no"?>
<!DOCTYPE svg PUBLIC "-//W3C//DTD SVG 1.1//EN"
  "http://www.w3.org/Graphics/SVG/1.1/DTD/svg11.dtd">
<svg xmlns:xlink="http://www.w3.org/1999/xlink" width="576pt" height="216pt" viewBox="0 0 576 216" xmlns="http://www.w3.org/2000/svg" version="1.1">
 <metadata>
  <rdf:RDF xmlns:dc="http://purl.org/dc/elements/1.1/" xmlns:cc="http://creativecommons.org/ns#" xmlns:rdf="http://www.w3.org/1999/02/22-rdf-syntax-ns#">
   <cc:Work>
    <dc:type rdf:resource="http://purl.org/dc/dcmitype/StillImage"/>
    <dc:date>2023-06-13T12:11:31.213638</dc:date>
    <dc:format>image/svg+xml</dc:format>
    <dc:creator>
     <cc:Agent>
      <dc:title>Matplotlib v3.5.3, https://matplotlib.org/</dc:title>
     </cc:Agent>
    </dc:creator>
   </cc:Work>
  </rdf:RDF>
 </metadata>
 <defs>
  <style type="text/css">*{stroke-linejoin: round; stroke-linecap: butt}</style>
 </defs>
 <g id="figure_1">
  <g id="patch_1">
   <path d="M 0 216 
L 576 216 
L 576 0 
L 0 0 
L 0 216 
z
" style="fill: none"/>
  </g>
  <g id="axes_1">
   <g id="patch_2">
    <path d="M 37.244112 166.028575 
L 561.96 166.028575 
L 561.96 18.275207 
L 37.244112 18.275207 
z
" style="fill: #ffffff"/>
   </g>
   <g id="patch_3">
    <path d="M 61.094834 166.028575 
L 67.123277 166.028575 
L 67.123277 164.571176 
L 61.094834 164.571176 
z
" clip-path="url(#p1096813656)" style="fill: #800000; opacity: 0.3"/>
   </g>
   <g id="patch_4">
    <path d="M 67.123277 166.028575 
L 73.15172 166.028575 
L 73.15172 165.219595 
L 67.123277 165.219595 
z
" clip-path="url(#p1096813656)" style="fill: #800000; opacity: 0.3"/>
   </g>
   <g id="patch_5">
    <path d="M 73.15172 166.028575 
L 79.180162 166.028575 
L 79.180162 164.422966 
L 73.15172 164.422966 
z
" clip-path="url(#p1096813656)" style="fill: #800000; opacity: 0.3"/>
   </g>
   <g id="patch_6">
    <path d="M 79.180162 166.028575 
L 85.208605 166.028575 
L 85.208605 162.477708 
L 79.180162 162.477708 
z
" clip-path="url(#p1096813656)" style="fill: #800000; opacity: 0.3"/>
   </g>
   <g id="patch_7">
    <path d="M 85.208605 166.028575 
L 91.237048 166.028575 
L 91.237048 156.851898 
L 85.208605 156.851898 
z
" clip-path="url(#p1096813656)" style="fill: #800000; opacity: 0.3"/>
   </g>
   <g id="patch_8">
    <path d="M 91.237048 166.028575 
L 97.265491 166.028575 
L 97.265491 152.794646 
L 91.237048 152.794646 
z
" clip-path="url(#p1096813656)" style="fill: #800000; opacity: 0.3"/>
   </g>
   <g id="patch_9">
    <path d="M 97.265491 166.028575 
L 103.293934 166.028575 
L 103.293934 151.923912 
L 97.265491 151.923912 
z
" clip-path="url(#p1096813656)" style="fill: #800000; opacity: 0.3"/>
   </g>
   <g id="patch_10">
    <path d="M 103.293934 166.028575 
L 109.322377 166.028575 
L 109.322377 106.830981 
L 103.293934 106.830981 
z
" clip-path="url(#p1096813656)" style="fill: #800000; opacity: 0.3"/>
   </g>
   <g id="patch_11">
    <path d="M 109.322377 166.028575 
L 115.350819 166.028575 
L 115.350819 153.609802 
L 109.322377 153.609802 
z
" clip-path="url(#p1096813656)" style="fill: #800000; opacity: 0.3"/>
   </g>
   <g id="patch_12">
    <path d="M 115.350819 166.028575 
L 121.379262 166.028575 
L 121.379262 164.972578 
L 115.350819 164.972578 
z
" clip-path="url(#p1096813656)" style="fill: #800000; opacity: 0.3"/>
   </g>
   <g id="patch_13">
    <path d="M 121.379262 166.028575 
L 127.407705 166.028575 
L 127.407705 164.05244 
L 121.379262 164.05244 
z
" clip-path="url(#p1096813656)" style="fill: #800000; opacity: 0.3"/>
   </g>
   <g id="patch_14">
    <path d="M 127.407705 166.028575 
L 133.436148 166.028575 
L 133.436148 163.17553 
L 127.407705 163.17553 
z
" clip-path="url(#p1096813656)" style="fill: #800000; opacity: 0.3"/>
   </g>
   <g id="patch_15">
    <path d="M 133.436148 166.028575 
L 139.464591 166.028575 
L 139.464591 163.194057 
L 133.436148 163.194057 
z
" clip-path="url(#p1096813656)" style="fill: #800000; opacity: 0.3"/>
   </g>
   <g id="patch_16">
    <path d="M 139.464591 166.028575 
L 145.493033 166.028575 
L 145.493033 164.663807 
L 139.464591 164.663807 
z
" clip-path="url(#p1096813656)" style="fill: #800000; opacity: 0.3"/>
   </g>
   <g id="patch_17">
    <path d="M 145.493033 166.028575 
L 151.521476 166.028575 
L 151.521476 159.914908 
L 145.493033 159.914908 
z
" clip-path="url(#p1096813656)" style="fill: #800000; opacity: 0.3"/>
   </g>
   <g id="patch_18">
    <path d="M 151.521476 166.028575 
L 157.549919 166.028575 
L 157.549919 163.620161 
L 151.521476 163.620161 
z
" clip-path="url(#p1096813656)" style="fill: #800000; opacity: 0.3"/>
   </g>
   <g id="patch_19">
    <path d="M 157.549919 166.028575 
L 163.578362 166.028575 
L 163.578362 157.710282 
L 157.549919 157.710282 
z
" clip-path="url(#p1096813656)" style="fill: #800000; opacity: 0.3"/>
   </g>
   <g id="patch_20">
    <path d="M 163.578362 166.028575 
L 169.606805 166.028575 
L 169.606805 165.800085 
L 163.578362 165.800085 
z
" clip-path="url(#p1096813656)" style="fill: #800000; opacity: 0.3"/>
   </g>
   <g id="patch_21">
    <path d="M 169.606805 166.028575 
L 175.635247 166.028575 
L 175.635247 165.602471 
L 169.606805 165.602471 
z
" clip-path="url(#p1096813656)" style="fill: #800000; opacity: 0.3"/>
   </g>
   <g id="patch_22">
    <path d="M 175.635247 166.028575 
L 181.66369 166.028575 
L 181.66369 165.880365 
L 175.635247 165.880365 
z
" clip-path="url(#p1096813656)" style="fill: #800000; opacity: 0.3"/>
   </g>
   <g id="patch_23">
    <path d="M 181.66369 166.028575 
L 187.692133 166.028575 
L 187.692133 165.620997 
L 181.66369 165.620997 
z
" clip-path="url(#p1096813656)" style="fill: #800000; opacity: 0.3"/>
   </g>
   <g id="patch_24">
    <path d="M 187.692133 166.028575 
L 193.720576 166.028575 
L 193.720576 163.780722 
L 187.692133 163.780722 
z
" clip-path="url(#p1096813656)" style="fill: #800000; opacity: 0.3"/>
   </g>
   <g id="patch_25">
    <path d="M 193.720576 166.028575 
L 199.749019 166.028575 
L 199.749019 164.626754 
L 193.720576 164.626754 
z
" clip-path="url(#p1096813656)" style="fill: #800000; opacity: 0.3"/>
   </g>
   <g id="patch_26">
    <path d="M 199.749019 166.028575 
L 205.777461 166.028575 
L 205.777461 153.319557 
L 199.749019 153.319557 
z
" clip-path="url(#p1096813656)" style="fill: #800000; opacity: 0.3"/>
   </g>
   <g id="patch_27">
    <path d="M 205.777461 166.028575 
L 211.805904 166.028575 
L 211.805904 135.417009 
L 205.777461 135.417009 
z
" clip-path="url(#p1096813656)" style="fill: #800000; opacity: 0.3"/>
   </g>
   <g id="patch_28">
    <path d="M 211.805904 166.028575 
L 217.834347 166.028575 
L 217.834347 140.869906 
L 211.805904 140.869906 
z
" clip-path="url(#p1096813656)" style="fill: #800000; opacity: 0.3"/>
   </g>
   <g id="patch_29">
    <path d="M 217.834347 166.028575 
L 223.86279 166.028575 
L 223.86279 163.941283 
L 217.834347 163.941283 
z
" clip-path="url(#p1096813656)" style="fill: #800000; opacity: 0.3"/>
   </g>
   <g id="patch_30">
    <path d="M 223.86279 166.028575 
L 229.891233 166.028575 
L 229.891233 163.17553 
L 223.86279 163.17553 
z
" clip-path="url(#p1096813656)" style="fill: #800000; opacity: 0.3"/>
   </g>
   <g id="patch_31">
    <path d="M 229.891233 166.028575 
L 235.919675 166.028575 
L 235.919675 154.696676 
L 229.891233 154.696676 
z
" clip-path="url(#p1096813656)" style="fill: #800000; opacity: 0.3"/>
   </g>
   <g id="patch_32">
    <path d="M 235.919675 166.028575 
L 241.948118 166.028575 
L 241.948118 157.68558 
L 235.919675 157.68558 
z
" clip-path="url(#p1096813656)" style="fill: #800000; opacity: 0.3"/>
   </g>
   <g id="patch_33">
    <path d="M 241.948118 166.028575 
L 247.976561 166.028575 
L 247.976561 104.10762 
L 241.948118 104.10762 
z
" clip-path="url(#p1096813656)" style="fill: #800000; opacity: 0.3"/>
   </g>
   <g id="patch_34">
    <path d="M 247.976561 166.028575 
L 254.005004 166.028575 
L 254.005004 160.82887 
L 247.976561 160.82887 
z
" clip-path="url(#p1096813656)" style="fill: #800000; opacity: 0.3"/>
   </g>
   <g id="patch_35">
    <path d="M 254.005004 166.028575 
L 260.033447 166.028575 
L 260.033447 163.274337 
L 254.005004 163.274337 
z
" clip-path="url(#p1096813656)" style="fill: #800000; opacity: 0.3"/>
   </g>
   <g id="patch_36">
    <path d="M 260.033447 166.028575 
L 266.061889 166.028575 
L 266.061889 157.481791 
L 260.033447 157.481791 
z
" clip-path="url(#p1096813656)" style="fill: #800000; opacity: 0.3"/>
   </g>
   <g id="patch_37">
    <path d="M 266.061889 166.028575 
L 272.090332 166.028575 
L 272.090332 159.692592 
L 266.061889 159.692592 
z
" clip-path="url(#p1096813656)" style="fill: #800000; opacity: 0.3"/>
   </g>
   <g id="patch_38">
    <path d="M 272.090332 166.028575 
L 278.118775 166.028575 
L 278.118775 122.985884 
L 272.090332 122.985884 
z
" clip-path="url(#p1096813656)" style="fill: #800000; opacity: 0.3"/>
   </g>
   <g id="patch_39">
    <path d="M 278.118775 166.028575 
L 284.147218 166.028575 
L 284.147218 151.596614 
L 278.118775 151.596614 
z
" clip-path="url(#p1096813656)" style="fill: #800000; opacity: 0.3"/>
   </g>
   <g id="patch_40">
    <path d="M 284.147218 166.028575 
L 290.175661 166.028575 
L 290.175661 161.106764 
L 284.147218 161.106764 
z
" clip-path="url(#p1096813656)" style="fill: #800000; opacity: 0.3"/>
   </g>
   <g id="patch_41">
    <path d="M 290.175661 166.028575 
L 296.204103 166.028575 
L 296.204103 161.187044 
L 290.175661 161.187044 
z
" clip-path="url(#p1096813656)" style="fill: #800000; opacity: 0.3"/>
   </g>
   <g id="patch_42">
    <path d="M 296.204103 166.028575 
L 302.232546 166.028575 
L 302.232546 150.812336 
L 296.204103 150.812336 
z
" clip-path="url(#p1096813656)" style="fill: #800000; opacity: 0.3"/>
   </g>
   <g id="patch_43">
    <path d="M 302.232546 166.028575 
L 308.260989 166.028575 
L 308.260989 145.205053 
L 302.232546 145.205053 
z
" clip-path="url(#p1096813656)" style="fill: #800000; opacity: 0.3"/>
   </g>
   <g id="patch_44">
    <path d="M 308.260989 166.028575 
L 314.289432 166.028575 
L 314.289432 69.512906 
L 308.260989 69.512906 
z
" clip-path="url(#p1096813656)" style="fill: #800000; opacity: 0.3"/>
   </g>
   <g id="patch_45">
    <path d="M 314.289432 166.028575 
L 320.317875 166.028575 
L 320.317875 157.006284 
L 314.289432 157.006284 
z
" clip-path="url(#p1096813656)" style="fill: #800000; opacity: 0.3"/>
   </g>
   <g id="patch_46">
    <path d="M 320.317875 166.028575 
L 326.346317 166.028575 
L 326.346317 149.114095 
L 320.317875 149.114095 
z
" clip-path="url(#p1096813656)" style="fill: #800000; opacity: 0.3"/>
   </g>
   <g id="patch_47">
    <path d="M 326.346317 166.028575 
L 332.37476 166.028575 
L 332.37476 157.358283 
L 326.346317 157.358283 
z
" clip-path="url(#p1096813656)" style="fill: #800000; opacity: 0.3"/>
   </g>
   <g id="patch_48">
    <path d="M 332.37476 166.028575 
L 338.403203 166.028575 
L 338.403203 155.974988 
L 332.37476 155.974988 
z
" clip-path="url(#p1096813656)" style="fill: #800000; opacity: 0.3"/>
   </g>
   <g id="patch_49">
    <path d="M 338.403203 166.028575 
L 344.431646 166.028575 
L 344.431646 164.083317 
L 338.403203 164.083317 
z
" clip-path="url(#p1096813656)" style="fill: #800000; opacity: 0.3"/>
   </g>
   <g id="patch_50">
    <path d="M 344.431646 166.028575 
L 350.460089 166.028575 
L 350.460089 161.063536 
L 344.431646 161.063536 
z
" clip-path="url(#p1096813656)" style="fill: #800000; opacity: 0.3"/>
   </g>
   <g id="patch_51">
    <path d="M 350.460089 166.028575 
L 356.488531 166.028575 
L 356.488531 158.951542 
L 350.460089 158.951542 
z
" clip-path="url(#p1096813656)" style="fill: #800000; opacity: 0.3"/>
   </g>
   <g id="patch_52">
    <path d="M 356.488531 166.028575 
L 362.516974 166.028575 
L 362.516974 155.78355 
L 356.488531 155.78355 
z
" clip-path="url(#p1096813656)" style="fill: #800000; opacity: 0.3"/>
   </g>
   <g id="patch_53">
    <path d="M 362.516974 166.028575 
L 368.545417 166.028575 
L 368.545417 155.091903 
L 362.516974 155.091903 
z
" clip-path="url(#p1096813656)" style="fill: #800000; opacity: 0.3"/>
   </g>
   <g id="patch_54">
    <path d="M 368.545417 166.028575 
L 374.57386 166.028575 
L 374.57386 160.026065 
L 368.545417 160.026065 
z
" clip-path="url(#p1096813656)" style="fill: #800000; opacity: 0.3"/>
   </g>
   <g id="patch_55">
    <path d="M 374.57386 166.028575 
L 380.602303 166.028575 
L 380.602303 163.268162 
L 374.57386 163.268162 
z
" clip-path="url(#p1096813656)" style="fill: #800000; opacity: 0.3"/>
   </g>
   <g id="patch_56">
    <path d="M 380.602303 166.028575 
L 386.630745 166.028575 
L 386.630745 165.571594 
L 380.602303 165.571594 
z
" clip-path="url(#p1096813656)" style="fill: #800000; opacity: 0.3"/>
   </g>
   <g id="patch_57">
    <path d="M 386.630745 166.028575 
L 392.659188 166.028575 
L 392.659188 165.299875 
L 386.630745 165.299875 
z
" clip-path="url(#p1096813656)" style="fill: #800000; opacity: 0.3"/>
   </g>
   <g id="patch_58">
    <path d="M 392.659188 166.028575 
L 398.687631 166.028575 
L 398.687631 165.87419 
L 392.659188 165.87419 
z
" clip-path="url(#p1096813656)" style="fill: #800000; opacity: 0.3"/>
   </g>
   <g id="patch_59">
    <path d="M 398.687631 166.028575 
L 404.716074 166.028575 
L 404.716074 164.86142 
L 398.687631 164.86142 
z
" clip-path="url(#p1096813656)" style="fill: #800000; opacity: 0.3"/>
   </g>
   <g id="patch_60">
    <path d="M 404.716074 166.028575 
L 410.744517 166.028575 
L 410.744517 165.367805 
L 404.716074 165.367805 
z
" clip-path="url(#p1096813656)" style="fill: #800000; opacity: 0.3"/>
   </g>
   <g id="patch_61">
    <path d="M 410.744517 166.028575 
L 416.772959 166.028575 
L 416.772959 165.44191 
L 410.744517 165.44191 
z
" clip-path="url(#p1096813656)" style="fill: #800000; opacity: 0.3"/>
   </g>
   <g id="patch_62">
    <path d="M 416.772959 166.028575 
L 422.801402 166.028575 
L 422.801402 165.818611 
L 416.772959 165.818611 
z
" clip-path="url(#p1096813656)" style="fill: #800000; opacity: 0.3"/>
   </g>
   <g id="patch_63">
    <path d="M 212.17858 166.028575 
L 216.630591 166.028575 
L 216.630591 165.727539 
L 212.17858 165.727539 
z
" clip-path="url(#p1096813656)" style="fill: #00008b; opacity: 0.3"/>
   </g>
   <g id="patch_64">
    <path d="M 216.630591 166.028575 
L 221.082601 166.028575 
L 221.082601 165.819523 
L 216.630591 165.819523 
z
" clip-path="url(#p1096813656)" style="fill: #00008b; opacity: 0.3"/>
   </g>
   <g id="patch_65">
    <path d="M 221.082601 166.028575 
L 225.534612 166.028575 
L 225.534612 164.473224 
L 221.082601 164.473224 
z
" clip-path="url(#p1096813656)" style="fill: #00008b; opacity: 0.3"/>
   </g>
   <g id="patch_66">
    <path d="M 225.534612 166.028575 
L 229.986623 166.028575 
L 229.986623 165.702453 
L 225.534612 165.702453 
z
" clip-path="url(#p1096813656)" style="fill: #00008b; opacity: 0.3"/>
   </g>
   <g id="patch_67">
    <path d="M 229.986623 166.028575 
L 234.438633 166.028575 
L 234.438633 165.351245 
L 229.986623 165.351245 
z
" clip-path="url(#p1096813656)" style="fill: #00008b; opacity: 0.3"/>
   </g>
   <g id="patch_68">
    <path d="M 234.438633 166.028575 
L 238.890644 166.028575 
L 238.890644 165.275986 
L 234.438633 165.275986 
z
" clip-path="url(#p1096813656)" style="fill: #00008b; opacity: 0.3"/>
   </g>
   <g id="patch_69">
    <path d="M 238.890644 166.028575 
L 243.342654 166.028575 
L 243.342654 164.130378 
L 238.890644 164.130378 
z
" clip-path="url(#p1096813656)" style="fill: #00008b; opacity: 0.3"/>
   </g>
   <g id="patch_70">
    <path d="M 243.342654 166.028575 
L 247.794665 166.028575 
L 247.794665 165.041847 
L 243.342654 165.041847 
z
" clip-path="url(#p1096813656)" style="fill: #00008b; opacity: 0.3"/>
   </g>
   <g id="patch_71">
    <path d="M 247.794665 166.028575 
L 252.246676 166.028575 
L 252.246676 161.186917 
L 247.794665 161.186917 
z
" clip-path="url(#p1096813656)" style="fill: #00008b; opacity: 0.3"/>
   </g>
   <g id="patch_72">
    <path d="M 252.246676 166.028575 
L 256.698686 166.028575 
L 256.698686 152.348172 
L 252.246676 152.348172 
z
" clip-path="url(#p1096813656)" style="fill: #00008b; opacity: 0.3"/>
   </g>
   <g id="patch_73">
    <path d="M 256.698686 166.028575 
L 261.150697 166.028575 
L 261.150697 131.384377 
L 256.698686 131.384377 
z
" clip-path="url(#p1096813656)" style="fill: #00008b; opacity: 0.3"/>
   </g>
   <g id="patch_74">
    <path d="M 261.150697 166.028575 
L 265.602708 166.028575 
L 265.602708 25.311082 
L 261.150697 25.311082 
z
" clip-path="url(#p1096813656)" style="fill: #00008b; opacity: 0.3"/>
   </g>
   <g id="patch_75">
    <path d="M 265.602708 166.028575 
L 270.054718 166.028575 
L 270.054718 157.557763 
L 265.602708 157.557763 
z
" clip-path="url(#p1096813656)" style="fill: #00008b; opacity: 0.3"/>
   </g>
   <g id="patch_76">
    <path d="M 270.054718 166.028575 
L 274.506729 166.028575 
L 274.506729 151.66248 
L 270.054718 151.66248 
z
" clip-path="url(#p1096813656)" style="fill: #00008b; opacity: 0.3"/>
   </g>
   <g id="patch_77">
    <path d="M 274.506729 166.028575 
L 278.958739 166.028575 
L 278.958739 148.635398 
L 274.506729 148.635398 
z
" clip-path="url(#p1096813656)" style="fill: #00008b; opacity: 0.3"/>
   </g>
   <g id="patch_78">
    <path d="M 278.958739 166.028575 
L 283.41075 166.028575 
L 283.41075 148.994968 
L 278.958739 148.994968 
z
" clip-path="url(#p1096813656)" style="fill: #00008b; opacity: 0.3"/>
   </g>
   <g id="patch_79">
    <path d="M 283.41075 166.028575 
L 287.862761 166.028575 
L 287.862761 159.731911 
L 283.41075 159.731911 
z
" clip-path="url(#p1096813656)" style="fill: #00008b; opacity: 0.3"/>
   </g>
   <g id="patch_80">
    <path d="M 287.862761 166.028575 
L 292.314771 166.028575 
L 292.314771 164.29762 
L 287.862761 164.29762 
z
" clip-path="url(#p1096813656)" style="fill: #00008b; opacity: 0.3"/>
   </g>
   <g id="patch_81">
    <path d="M 292.314771 166.028575 
L 296.766782 166.028575 
L 296.766782 160.894243 
L 292.314771 160.894243 
z
" clip-path="url(#p1096813656)" style="fill: #00008b; opacity: 0.3"/>
   </g>
   <g id="patch_82">
    <path d="M 296.766782 166.028575 
L 301.218793 166.028575 
L 301.218793 82.04796 
L 296.766782 82.04796 
z
" clip-path="url(#p1096813656)" style="fill: #00008b; opacity: 0.3"/>
   </g>
   <g id="patch_83">
    <path d="M 301.218793 166.028575 
L 305.670803 166.028575 
L 305.670803 156.462328 
L 301.218793 156.462328 
z
" clip-path="url(#p1096813656)" style="fill: #00008b; opacity: 0.3"/>
   </g>
   <g id="patch_84">
    <path d="M 305.670803 166.028575 
L 310.122814 166.028575 
L 310.122814 163.896239 
L 305.670803 163.896239 
z
" clip-path="url(#p1096813656)" style="fill: #00008b; opacity: 0.3"/>
   </g>
   <g id="patch_85">
    <path d="M 310.122814 166.028575 
L 314.574824 166.028575 
L 314.574824 162.566664 
L 310.122814 162.566664 
z
" clip-path="url(#p1096813656)" style="fill: #00008b; opacity: 0.3"/>
   </g>
   <g id="patch_86">
    <path d="M 314.574824 166.028575 
L 319.026835 166.028575 
L 319.026835 161.487953 
L 314.574824 161.487953 
z
" clip-path="url(#p1096813656)" style="fill: #00008b; opacity: 0.3"/>
   </g>
   <g id="patch_87">
    <path d="M 319.026835 166.028575 
L 323.478846 166.028575 
L 323.478846 157.122934 
L 319.026835 157.122934 
z
" clip-path="url(#p1096813656)" style="fill: #00008b; opacity: 0.3"/>
   </g>
   <g id="patch_88">
    <path d="M 323.478846 166.028575 
L 327.930856 166.028575 
L 327.930856 160.651742 
L 323.478846 160.651742 
z
" clip-path="url(#p1096813656)" style="fill: #00008b; opacity: 0.3"/>
   </g>
   <g id="patch_89">
    <path d="M 327.930856 166.028575 
L 332.382867 166.028575 
L 332.382867 152.122396 
L 327.930856 152.122396 
z
" clip-path="url(#p1096813656)" style="fill: #00008b; opacity: 0.3"/>
   </g>
   <g id="patch_90">
    <path d="M 332.382867 166.028575 
L 336.834878 166.028575 
L 336.834878 88.428246 
L 332.382867 88.428246 
z
" clip-path="url(#p1096813656)" style="fill: #00008b; opacity: 0.3"/>
   </g>
   <g id="patch_91">
    <path d="M 336.834878 166.028575 
L 341.286888 166.028575 
L 341.286888 161.429418 
L 336.834878 161.429418 
z
" clip-path="url(#p1096813656)" style="fill: #00008b; opacity: 0.3"/>
   </g>
   <g id="patch_92">
    <path d="M 341.286888 166.028575 
L 345.738899 166.028575 
L 345.738899 155.216374 
L 341.286888 155.216374 
z
" clip-path="url(#p1096813656)" style="fill: #00008b; opacity: 0.3"/>
   </g>
   <g id="patch_93">
    <path d="M 345.738899 166.028575 
L 350.190909 166.028575 
L 350.190909 164.289258 
L 345.738899 164.289258 
z
" clip-path="url(#p1096813656)" style="fill: #00008b; opacity: 0.3"/>
   </g>
   <g id="patch_94">
    <path d="M 350.190909 166.028575 
L 354.64292 166.028575 
L 354.64292 151.620669 
L 350.190909 151.620669 
z
" clip-path="url(#p1096813656)" style="fill: #00008b; opacity: 0.3"/>
   </g>
   <g id="patch_95">
    <path d="M 354.64292 166.028575 
L 359.094931 166.028575 
L 359.094931 139.060788 
L 354.64292 139.060788 
z
" clip-path="url(#p1096813656)" style="fill: #00008b; opacity: 0.3"/>
   </g>
   <g id="patch_96">
    <path d="M 359.094931 166.028575 
L 363.546941 166.028575 
L 363.546941 137.589058 
L 359.094931 137.589058 
z
" clip-path="url(#p1096813656)" style="fill: #00008b; opacity: 0.3"/>
   </g>
   <g id="patch_97">
    <path d="M 363.546941 166.028575 
L 367.998952 166.028575 
L 367.998952 153.585764 
L 363.546941 153.585764 
z
" clip-path="url(#p1096813656)" style="fill: #00008b; opacity: 0.3"/>
   </g>
   <g id="patch_98">
    <path d="M 367.998952 166.028575 
L 372.450963 166.028575 
L 372.450963 133.324385 
L 367.998952 133.324385 
z
" clip-path="url(#p1096813656)" style="fill: #00008b; opacity: 0.3"/>
   </g>
   <g id="patch_99">
    <path d="M 372.450963 166.028575 
L 376.902973 166.028575 
L 376.902973 143.082961 
L 372.450963 143.082961 
z
" clip-path="url(#p1096813656)" style="fill: #00008b; opacity: 0.3"/>
   </g>
   <g id="patch_100">
    <path d="M 376.902973 166.028575 
L 381.354984 166.028575 
L 381.354984 157.173107 
L 376.902973 157.173107 
z
" clip-path="url(#p1096813656)" style="fill: #00008b; opacity: 0.3"/>
   </g>
   <g id="patch_101">
    <path d="M 381.354984 166.028575 
L 385.806994 166.028575 
L 385.806994 148.384535 
L 381.354984 148.384535 
z
" clip-path="url(#p1096813656)" style="fill: #00008b; opacity: 0.3"/>
   </g>
   <g id="patch_102">
    <path d="M 385.806994 166.028575 
L 390.259005 166.028575 
L 390.259005 83.352449 
L 385.806994 83.352449 
z
" clip-path="url(#p1096813656)" style="fill: #00008b; opacity: 0.3"/>
   </g>
   <g id="patch_103">
    <path d="M 390.259005 166.028575 
L 394.711016 166.028575 
L 394.711016 117.662163 
L 390.259005 117.662163 
z
" clip-path="url(#p1096813656)" style="fill: #00008b; opacity: 0.3"/>
   </g>
   <g id="patch_104">
    <path d="M 394.711016 166.028575 
L 399.163026 166.028575 
L 399.163026 156.938968 
L 394.711016 156.938968 
z
" clip-path="url(#p1096813656)" style="fill: #00008b; opacity: 0.3"/>
   </g>
   <g id="patch_105">
    <path d="M 399.163026 166.028575 
L 403.615037 166.028575 
L 403.615037 162.558302 
L 399.163026 162.558302 
z
" clip-path="url(#p1096813656)" style="fill: #00008b; opacity: 0.3"/>
   </g>
   <g id="patch_106">
    <path d="M 403.615037 166.028575 
L 408.067048 166.028575 
L 408.067048 162.048214 
L 403.615037 162.048214 
z
" clip-path="url(#p1096813656)" style="fill: #00008b; opacity: 0.3"/>
   </g>
   <g id="patch_107">
    <path d="M 408.067048 166.028575 
L 412.519058 166.028575 
L 412.519058 161.078209 
L 408.067048 161.078209 
z
" clip-path="url(#p1096813656)" style="fill: #00008b; opacity: 0.3"/>
   </g>
   <g id="patch_108">
    <path d="M 412.519058 166.028575 
L 416.971069 166.028575 
L 416.971069 162.399422 
L 412.519058 162.399422 
z
" clip-path="url(#p1096813656)" style="fill: #00008b; opacity: 0.3"/>
   </g>
   <g id="patch_109">
    <path d="M 416.971069 166.028575 
L 421.423079 166.028575 
L 421.423079 162.667009 
L 416.971069 162.667009 
z
" clip-path="url(#p1096813656)" style="fill: #00008b; opacity: 0.3"/>
   </g>
   <g id="patch_110">
    <path d="M 421.423079 166.028575 
L 425.87509 166.028575 
L 425.87509 163.494858 
L 421.423079 163.494858 
z
" clip-path="url(#p1096813656)" style="fill: #00008b; opacity: 0.3"/>
   </g>
   <g id="patch_111">
    <path d="M 425.87509 166.028575 
L 430.327101 166.028575 
L 430.327101 165.660643 
L 425.87509 165.660643 
z
" clip-path="url(#p1096813656)" style="fill: #00008b; opacity: 0.3"/>
   </g>
   <g id="patch_112">
    <path d="M 430.327101 166.028575 
L 434.779111 166.028575 
L 434.779111 165.802798 
L 430.327101 165.802798 
z
" clip-path="url(#p1096813656)" style="fill: #00008b; opacity: 0.3"/>
   </g>
   <g id="patch_113">
    <path d="M 434.779111 166.028575 
L 439.231122 166.028575 
L 439.231122 165.886419 
L 434.779111 165.886419 
z
" clip-path="url(#p1096813656)" style="fill: #00008b; opacity: 0.3"/>
   </g>
   <g id="patch_114">
    <path d="M 439.231122 166.028575 
L 443.683133 166.028575 
L 443.683133 165.970041 
L 439.231122 165.970041 
z
" clip-path="url(#p1096813656)" style="fill: #00008b; opacity: 0.3"/>
   </g>
   <g id="patch_115">
    <path d="M 443.683133 166.028575 
L 448.135143 166.028575 
L 448.135143 165.869695 
L 443.683133 165.869695 
z
" clip-path="url(#p1096813656)" style="fill: #00008b; opacity: 0.3"/>
   </g>
   <g id="patch_116">
    <path d="M 448.135143 166.028575 
L 452.587154 166.028575 
L 452.587154 165.577022 
L 448.135143 165.577022 
z
" clip-path="url(#p1096813656)" style="fill: #00008b; opacity: 0.3"/>
   </g>
   <g id="patch_117">
    <path d="M 452.587154 166.028575 
L 457.039164 166.028575 
L 457.039164 163.38615 
L 452.587154 163.38615 
z
" clip-path="url(#p1096813656)" style="fill: #00008b; opacity: 0.3"/>
   </g>
   <g id="patch_118">
    <path d="M 457.039164 166.028575 
L 461.491175 166.028575 
L 461.491175 164.673914 
L 457.039164 164.673914 
z
" clip-path="url(#p1096813656)" style="fill: #00008b; opacity: 0.3"/>
   </g>
   <g id="patch_119">
    <path d="M 461.491175 166.028575 
L 465.943186 166.028575 
L 465.943186 161.111658 
L 461.491175 161.111658 
z
" clip-path="url(#p1096813656)" style="fill: #00008b; opacity: 0.3"/>
   </g>
   <g id="patch_120">
    <path d="M 465.943186 166.028575 
L 470.395196 166.028575 
L 470.395196 165.602108 
L 465.943186 165.602108 
z
" clip-path="url(#p1096813656)" style="fill: #00008b; opacity: 0.3"/>
   </g>
   <g id="patch_121">
    <path d="M 470.395196 166.028575 
L 474.847207 166.028575 
L 474.847207 164.891329 
L 470.395196 164.891329 
z
" clip-path="url(#p1096813656)" style="fill: #00008b; opacity: 0.3"/>
   </g>
   <g id="patch_122">
    <path d="M 474.847207 166.028575 
L 479.299217 166.028575 
L 479.299217 165.802798 
L 474.847207 165.802798 
z
" clip-path="url(#p1096813656)" style="fill: #00008b; opacity: 0.3"/>
   </g>
   <g id="patch_123">
    <path d="M 236.000067 166.028575 
L 241.035221 166.028575 
L 241.035221 165.688467 
L 236.000067 165.688467 
z
" clip-path="url(#p1096813656)" style="fill: #006400; opacity: 0.3"/>
   </g>
   <g id="patch_124">
    <path d="M 241.035221 166.028575 
L 246.070374 166.028575 
L 246.070374 165.651499 
L 241.035221 165.651499 
z
" clip-path="url(#p1096813656)" style="fill: #006400; opacity: 0.3"/>
   </g>
   <g id="patch_125">
    <path d="M 246.070374 166.028575 
L 251.105528 166.028575 
L 251.105528 164.68293 
L 246.070374 164.68293 
z
" clip-path="url(#p1096813656)" style="fill: #006400; opacity: 0.3"/>
   </g>
   <g id="patch_126">
    <path d="M 251.105528 166.028575 
L 256.140681 166.028575 
L 256.140681 161.614564 
L 251.105528 161.614564 
z
" clip-path="url(#p1096813656)" style="fill: #006400; opacity: 0.3"/>
   </g>
   <g id="patch_127">
    <path d="M 256.140681 166.028575 
L 261.175835 166.028575 
L 261.175835 162.775368 
L 256.140681 162.775368 
z
" clip-path="url(#p1096813656)" style="fill: #006400; opacity: 0.3"/>
   </g>
   <g id="patch_128">
    <path d="M 261.175835 166.028575 
L 266.210988 166.028575 
L 266.210988 91.589277 
L 261.175835 91.589277 
z
" clip-path="url(#p1096813656)" style="fill: #006400; opacity: 0.3"/>
   </g>
   <g id="patch_129">
    <path d="M 266.210988 166.028575 
L 271.246142 166.028575 
L 271.246142 161.437117 
L 266.210988 161.437117 
z
" clip-path="url(#p1096813656)" style="fill: #006400; opacity: 0.3"/>
   </g>
   <g id="patch_130">
    <path d="M 271.246142 166.028575 
L 276.281295 166.028575 
L 276.281295 159.943599 
L 271.246142 159.943599 
z
" clip-path="url(#p1096813656)" style="fill: #006400; opacity: 0.3"/>
   </g>
   <g id="patch_131">
    <path d="M 276.281295 166.028575 
L 281.316449 166.028575 
L 281.316449 148.261627 
L 276.281295 148.261627 
z
" clip-path="url(#p1096813656)" style="fill: #006400; opacity: 0.3"/>
   </g>
   <g id="patch_132">
    <path d="M 281.316449 166.028575 
L 286.351602 166.028575 
L 286.351602 114.672262 
L 281.316449 114.672262 
z
" clip-path="url(#p1096813656)" style="fill: #006400; opacity: 0.3"/>
   </g>
   <g id="patch_133">
    <path d="M 286.351602 166.028575 
L 291.386756 166.028575 
L 291.386756 164.202343 
L 286.351602 164.202343 
z
" clip-path="url(#p1096813656)" style="fill: #006400; opacity: 0.3"/>
   </g>
   <g id="patch_134">
    <path d="M 291.386756 166.028575 
L 296.421909 166.028575 
L 296.421909 163.2042 
L 291.386756 163.2042 
z
" clip-path="url(#p1096813656)" style="fill: #006400; opacity: 0.3"/>
   </g>
   <g id="patch_135">
    <path d="M 296.421909 166.028575 
L 301.457063 166.028575 
L 301.457063 163.625638 
L 296.421909 163.625638 
z
" clip-path="url(#p1096813656)" style="fill: #006400; opacity: 0.3"/>
   </g>
   <g id="patch_136">
    <path d="M 301.457063 166.028575 
L 306.492216 166.028575 
L 306.492216 162.279993 
L 301.457063 162.279993 
z
" clip-path="url(#p1096813656)" style="fill: #006400; opacity: 0.3"/>
   </g>
   <g id="patch_137">
    <path d="M 306.492216 166.028575 
L 311.52737 166.028575 
L 311.52737 164.845591 
L 306.492216 164.845591 
z
" clip-path="url(#p1096813656)" style="fill: #006400; opacity: 0.3"/>
   </g>
   <g id="patch_138">
    <path d="M 311.52737 166.028575 
L 316.562523 166.028575 
L 316.562523 147.485294 
L 311.52737 147.485294 
z
" clip-path="url(#p1096813656)" style="fill: #006400; opacity: 0.3"/>
   </g>
   <g id="patch_139">
    <path d="M 316.562523 166.028575 
L 321.597677 166.028575 
L 321.597677 164.121013 
L 316.562523 164.121013 
z
" clip-path="url(#p1096813656)" style="fill: #006400; opacity: 0.3"/>
   </g>
   <g id="patch_140">
    <path d="M 321.597677 166.028575 
L 326.632831 166.028575 
L 326.632831 161.370574 
L 321.597677 161.370574 
z
" clip-path="url(#p1096813656)" style="fill: #006400; opacity: 0.3"/>
   </g>
   <g id="patch_141">
    <path d="M 326.632831 166.028575 
L 331.667984 166.028575 
L 331.667984 163.381647 
L 326.632831 163.381647 
z
" clip-path="url(#p1096813656)" style="fill: #006400; opacity: 0.3"/>
   </g>
   <g id="patch_142">
    <path d="M 331.667984 166.028575 
L 336.703138 166.028575 
L 336.703138 153.422397 
L 331.667984 153.422397 
z
" clip-path="url(#p1096813656)" style="fill: #006400; opacity: 0.3"/>
   </g>
   <g id="patch_143">
    <path d="M 336.703138 166.028575 
L 341.738291 166.028575 
L 341.738291 160.520304 
L 336.703138 160.520304 
z
" clip-path="url(#p1096813656)" style="fill: #006400; opacity: 0.3"/>
   </g>
   <g id="patch_144">
    <path d="M 341.738291 166.028575 
L 346.773445 166.028575 
L 346.773445 156.616455 
L 341.738291 156.616455 
z
" clip-path="url(#p1096813656)" style="fill: #006400; opacity: 0.3"/>
   </g>
   <g id="patch_145">
    <path d="M 346.773445 166.028575 
L 351.808598 166.028575 
L 351.808598 163.093295 
L 346.773445 163.093295 
z
" clip-path="url(#p1096813656)" style="fill: #006400; opacity: 0.3"/>
   </g>
   <g id="patch_146">
    <path d="M 351.808598 166.028575 
L 356.843752 166.028575 
L 356.843752 163.292924 
L 351.808598 163.292924 
z
" clip-path="url(#p1096813656)" style="fill: #006400; opacity: 0.3"/>
   </g>
   <g id="patch_147">
    <path d="M 356.843752 166.028575 
L 361.878905 166.028575 
L 361.878905 162.427866 
L 356.843752 162.427866 
z
" clip-path="url(#p1096813656)" style="fill: #006400; opacity: 0.3"/>
   </g>
   <g id="patch_148">
    <path d="M 361.878905 166.028575 
L 366.914059 166.028575 
L 366.914059 163.640425 
L 361.878905 163.640425 
z
" clip-path="url(#p1096813656)" style="fill: #006400; opacity: 0.3"/>
   </g>
   <g id="patch_149">
    <path d="M 366.914059 166.028575 
L 371.949212 166.028575 
L 371.949212 161.370574 
L 366.914059 161.370574 
z
" clip-path="url(#p1096813656)" style="fill: #006400; opacity: 0.3"/>
   </g>
   <g id="patch_150">
    <path d="M 371.949212 166.028575 
L 376.984366 166.028575 
L 376.984366 156.091506 
L 371.949212 156.091506 
z
" clip-path="url(#p1096813656)" style="fill: #006400; opacity: 0.3"/>
   </g>
   <g id="patch_151">
    <path d="M 376.984366 166.028575 
L 382.019519 166.028575 
L 382.019519 158.146941 
L 376.984366 158.146941 
z
" clip-path="url(#p1096813656)" style="fill: #006400; opacity: 0.3"/>
   </g>
   <g id="patch_152">
    <path d="M 382.019519 166.028575 
L 387.054673 166.028575 
L 387.054673 148.941843 
L 382.019519 148.941843 
z
" clip-path="url(#p1096813656)" style="fill: #006400; opacity: 0.3"/>
   </g>
   <g id="patch_153">
    <path d="M 387.054673 166.028575 
L 392.089826 166.028575 
L 392.089826 145.185867 
L 387.054673 145.185867 
z
" clip-path="url(#p1096813656)" style="fill: #006400; opacity: 0.3"/>
   </g>
   <g id="patch_154">
    <path d="M 392.089826 166.028575 
L 397.12498 166.028575 
L 397.12498 148.527799 
L 392.089826 148.527799 
z
" clip-path="url(#p1096813656)" style="fill: #006400; opacity: 0.3"/>
   </g>
   <g id="patch_155">
    <path d="M 397.12498 166.028575 
L 402.160133 166.028575 
L 402.160133 152.128508 
L 397.12498 152.128508 
z
" clip-path="url(#p1096813656)" style="fill: #006400; opacity: 0.3"/>
   </g>
   <g id="patch_156">
    <path d="M 402.160133 166.028575 
L 407.195287 166.028575 
L 407.195287 153.171013 
L 402.160133 153.171013 
z
" clip-path="url(#p1096813656)" style="fill: #006400; opacity: 0.3"/>
   </g>
   <g id="patch_157">
    <path d="M 407.195287 166.028575 
L 412.23044 166.028575 
L 412.23044 156.010175 
L 407.195287 156.010175 
z
" clip-path="url(#p1096813656)" style="fill: #006400; opacity: 0.3"/>
   </g>
   <g id="patch_158">
    <path d="M 412.23044 166.028575 
L 417.265594 166.028575 
L 417.265594 159.780938 
L 412.23044 159.780938 
z
" clip-path="url(#p1096813656)" style="fill: #006400; opacity: 0.3"/>
   </g>
   <g id="patch_159">
    <path d="M 417.265594 166.028575 
L 422.300747 166.028575 
L 422.300747 159.108116 
L 417.265594 159.108116 
z
" clip-path="url(#p1096813656)" style="fill: #006400; opacity: 0.3"/>
   </g>
   <g id="patch_160">
    <path d="M 422.300747 166.028575 
L 427.335901 166.028575 
L 427.335901 151.145152 
L 422.300747 151.145152 
z
" clip-path="url(#p1096813656)" style="fill: #006400; opacity: 0.3"/>
   </g>
   <g id="patch_161">
    <path d="M 427.335901 166.028575 
L 432.371054 166.028575 
L 432.371054 108.47638 
L 427.335901 108.47638 
z
" clip-path="url(#p1096813656)" style="fill: #006400; opacity: 0.3"/>
   </g>
   <g id="patch_162">
    <path d="M 432.371054 166.028575 
L 437.406208 166.028575 
L 437.406208 162.797549 
L 432.371054 162.797549 
z
" clip-path="url(#p1096813656)" style="fill: #006400; opacity: 0.3"/>
   </g>
   <g id="patch_163">
    <path d="M 437.406208 166.028575 
L 442.441361 166.028575 
L 442.441361 123.211931 
L 437.406208 123.211931 
z
" clip-path="url(#p1096813656)" style="fill: #006400; opacity: 0.3"/>
   </g>
   <g id="patch_164">
    <path d="M 442.441361 166.028575 
L 447.476515 166.028575 
L 447.476515 161.304031 
L 442.441361 161.304031 
z
" clip-path="url(#p1096813656)" style="fill: #006400; opacity: 0.3"/>
   </g>
   <g id="patch_165">
    <path d="M 447.476515 166.028575 
L 452.511668 166.028575 
L 452.511668 140.06946 
L 447.476515 140.06946 
z
" clip-path="url(#p1096813656)" style="fill: #006400; opacity: 0.3"/>
   </g>
   <g id="patch_166">
    <path d="M 452.511668 166.028575 
L 457.546822 166.028575 
L 457.546822 155.906664 
L 452.511668 155.906664 
z
" clip-path="url(#p1096813656)" style="fill: #006400; opacity: 0.3"/>
   </g>
   <g id="patch_167">
    <path d="M 457.546822 166.028575 
L 462.581975 166.028575 
L 462.581975 160.756901 
L 457.546822 160.756901 
z
" clip-path="url(#p1096813656)" style="fill: #006400; opacity: 0.3"/>
   </g>
   <g id="patch_168">
    <path d="M 462.581975 166.028575 
L 467.617129 166.028575 
L 467.617129 163.06372 
L 462.581975 163.06372 
z
" clip-path="url(#p1096813656)" style="fill: #006400; opacity: 0.3"/>
   </g>
   <g id="patch_169">
    <path d="M 467.617129 166.028575 
L 472.652282 166.028575 
L 472.652282 157.673747 
L 467.617129 157.673747 
z
" clip-path="url(#p1096813656)" style="fill: #006400; opacity: 0.3"/>
   </g>
   <g id="patch_170">
    <path d="M 472.652282 166.028575 
L 477.687436 166.028575 
L 477.687436 155.773579 
L 472.652282 155.773579 
z
" clip-path="url(#p1096813656)" style="fill: #006400; opacity: 0.3"/>
   </g>
   <g id="patch_171">
    <path d="M 477.687436 166.028575 
L 482.722589 166.028575 
L 482.722589 158.021249 
L 477.687436 158.021249 
z
" clip-path="url(#p1096813656)" style="fill: #006400; opacity: 0.3"/>
   </g>
   <g id="patch_172">
    <path d="M 482.722589 166.028575 
L 487.757743 166.028575 
L 487.757743 162.723612 
L 482.722589 162.723612 
z
" clip-path="url(#p1096813656)" style="fill: #006400; opacity: 0.3"/>
   </g>
   <g id="patch_173">
    <path d="M 487.757743 166.028575 
L 492.792896 166.028575 
L 492.792896 161.274456 
L 487.757743 161.274456 
z
" clip-path="url(#p1096813656)" style="fill: #006400; opacity: 0.3"/>
   </g>
   <g id="patch_174">
    <path d="M 492.792896 166.028575 
L 497.82805 166.028575 
L 497.82805 160.549878 
L 492.792896 160.549878 
z
" clip-path="url(#p1096813656)" style="fill: #006400; opacity: 0.3"/>
   </g>
   <g id="patch_175">
    <path d="M 497.82805 166.028575 
L 502.863203 166.028575 
L 502.863203 161.843768 
L 497.82805 161.843768 
z
" clip-path="url(#p1096813656)" style="fill: #006400; opacity: 0.3"/>
   </g>
   <g id="patch_176">
    <path d="M 502.863203 166.028575 
L 507.898357 166.028575 
L 507.898357 163.743936 
L 502.863203 163.743936 
z
" clip-path="url(#p1096813656)" style="fill: #006400; opacity: 0.3"/>
   </g>
   <g id="patch_177">
    <path d="M 507.898357 166.028575 
L 512.93351 166.028575 
L 512.93351 163.840054 
L 507.898357 163.840054 
z
" clip-path="url(#p1096813656)" style="fill: #006400; opacity: 0.3"/>
   </g>
   <g id="patch_178">
    <path d="M 512.93351 166.028575 
L 517.968664 166.028575 
L 517.968664 164.143194 
L 512.93351 164.143194 
z
" clip-path="url(#p1096813656)" style="fill: #006400; opacity: 0.3"/>
   </g>
   <g id="patch_179">
    <path d="M 517.968664 166.028575 
L 523.003817 166.028575 
L 523.003817 164.21713 
L 517.968664 164.21713 
z
" clip-path="url(#p1096813656)" style="fill: #006400; opacity: 0.3"/>
   </g>
   <g id="patch_180">
    <path d="M 523.003817 166.028575 
L 528.038971 166.028575 
L 528.038971 155.012032 
L 523.003817 155.012032 
z
" clip-path="url(#p1096813656)" style="fill: #006400; opacity: 0.3"/>
   </g>
   <g id="patch_181">
    <path d="M 528.038971 166.028575 
L 533.074124 166.028575 
L 533.074124 46.939006 
L 528.038971 46.939006 
z
" clip-path="url(#p1096813656)" style="fill: #006400; opacity: 0.3"/>
   </g>
   <g id="patch_182">
    <path d="M 533.074124 166.028575 
L 538.109278 166.028575 
L 538.109278 147.551836 
L 533.074124 147.551836 
z
" clip-path="url(#p1096813656)" style="fill: #006400; opacity: 0.3"/>
   </g>
   <g id="matplotlib.axis_1">
    <g id="xtick_1">
     <g id="line2d_1">
      <defs>
       <path id="m29f586ccd1" d="M 0 0 
L 0 3.5 
" style="stroke: #000000; stroke-width: 0.8"/>
      </defs>
      <g>
       <use xlink:href="#m29f586ccd1" x="64.4204" y="166.028575" style="stroke: #000000; stroke-width: 0.8"/>
      </g>
     </g>
     <g id="text_1">
      <!-- $\mathdefault{170}$ -->
      <g transform="translate(54.909291 182.022603)scale(0.13 -0.13)">
       <defs>
        <path id="CMR17-31" d="M 1702 4058 
C 1702 4192 1696 4192 1606 4192 
C 1357 3916 979 3827 621 3827 
C 602 3827 570 3827 563 3808 
C 557 3795 557 3782 557 3648 
C 755 3648 1088 3686 1344 3839 
L 1344 461 
C 1344 236 1331 160 781 160 
L 589 160 
L 589 0 
C 896 0 1216 0 1523 0 
C 1830 0 2150 0 2458 0 
L 2458 160 
L 2266 160 
C 1715 160 1702 230 1702 458 
L 1702 4058 
z
" transform="scale(0.015625)"/>
        <path id="CMR17-37" d="M 2886 3941 
L 2886 4081 
L 1382 4081 
C 634 4081 621 4165 595 4288 
L 480 4288 
L 294 3094 
L 410 3094 
C 429 3215 474 3540 550 3661 
C 589 3712 1062 3712 1171 3712 
L 2579 3712 
L 1869 2661 
C 1395 1954 1069 999 1069 165 
C 1069 89 1069 -128 1299 -128 
C 1530 -128 1530 89 1530 171 
L 1530 465 
C 1530 1508 1709 2196 2003 2636 
L 2886 3941 
z
" transform="scale(0.015625)"/>
        <path id="CMR17-30" d="M 2688 2025 
C 2688 2416 2682 3080 2413 3591 
C 2176 4039 1798 4198 1466 4198 
C 1158 4198 768 4058 525 3597 
C 269 3118 243 2524 243 2025 
C 243 1661 250 1106 448 619 
C 723 -39 1216 -128 1466 -128 
C 1760 -128 2208 -7 2470 600 
C 2662 1042 2688 1559 2688 2025 
z
M 1466 -26 
C 1056 -26 813 325 723 812 
C 653 1188 653 1738 653 2096 
C 653 2588 653 2997 736 3387 
C 858 3929 1216 4096 1466 4096 
C 1728 4096 2067 3923 2189 3400 
C 2272 3036 2278 2607 2278 2096 
C 2278 1680 2278 1169 2202 792 
C 2067 95 1690 -26 1466 -26 
z
" transform="scale(0.015625)"/>
       </defs>
       <use xlink:href="#CMR17-31" transform="scale(0.996264)"/>
       <use xlink:href="#CMR17-37" transform="translate(45.690477 0)scale(0.996264)"/>
       <use xlink:href="#CMR17-30" transform="translate(91.380954 0)scale(0.996264)"/>
      </g>
     </g>
    </g>
    <g id="xtick_2">
     <g id="line2d_2">
      <g>
       <use xlink:href="#m29f586ccd1" x="140.13043" y="166.028575" style="stroke: #000000; stroke-width: 0.8"/>
      </g>
     </g>
     <g id="text_2">
      <!-- $\mathdefault{180}$ -->
      <g transform="translate(130.61932 182.022603)scale(0.13 -0.13)">
       <defs>
        <path id="CMR17-38" d="M 1741 2264 
C 2144 2467 2554 2773 2554 3263 
C 2554 3841 1990 4179 1472 4179 
C 890 4179 378 3759 378 3180 
C 378 3021 416 2747 666 2505 
C 730 2442 998 2251 1171 2130 
C 883 1983 211 1634 211 934 
C 211 279 838 -128 1459 -128 
C 2144 -128 2720 362 2720 1010 
C 2720 1590 2330 1857 2074 2029 
L 1741 2264 
z
M 902 2822 
C 851 2854 595 3051 595 3351 
C 595 3739 998 4032 1459 4032 
C 1965 4032 2336 3676 2336 3262 
C 2336 2669 1670 2331 1638 2331 
C 1632 2331 1626 2331 1574 2370 
L 902 2822 
z
M 2080 1519 
C 2176 1449 2483 1240 2483 851 
C 2483 381 2010 25 1472 25 
C 890 25 448 438 448 940 
C 448 1443 838 1862 1280 2060 
L 2080 1519 
z
" transform="scale(0.015625)"/>
       </defs>
       <use xlink:href="#CMR17-31" transform="scale(0.996264)"/>
       <use xlink:href="#CMR17-38" transform="translate(45.690477 0)scale(0.996264)"/>
       <use xlink:href="#CMR17-30" transform="translate(91.380954 0)scale(0.996264)"/>
      </g>
     </g>
    </g>
    <g id="xtick_3">
     <g id="line2d_3">
      <g>
       <use xlink:href="#m29f586ccd1" x="215.840459" y="166.028575" style="stroke: #000000; stroke-width: 0.8"/>
      </g>
     </g>
     <g id="text_3">
      <!-- $\mathdefault{190}$ -->
      <g transform="translate(206.32935 182.022603)scale(0.13 -0.13)">
       <defs>
        <path id="CMR17-39" d="M 2253 1864 
C 2253 464 1670 31 1190 31 
C 1043 31 685 31 538 294 
C 704 268 826 357 826 518 
C 826 692 685 749 595 749 
C 538 749 365 723 365 506 
C 365 71 742 -128 1203 -128 
C 1939 -128 2688 674 2688 2073 
C 2688 3817 1971 4179 1485 4179 
C 851 4179 243 3628 243 2778 
C 243 1991 762 1408 1414 1408 
C 1952 1408 2189 1903 2253 2112 
L 2253 1864 
z
M 1427 1510 
C 1254 1510 1011 1542 813 1922 
C 678 2169 678 2461 678 2771 
C 678 3146 678 3405 858 3684 
C 947 3817 1114 4032 1485 4032 
C 2240 4032 2240 2885 2240 2632 
C 2240 2182 2035 1510 1427 1510 
z
" transform="scale(0.015625)"/>
       </defs>
       <use xlink:href="#CMR17-31" transform="scale(0.996264)"/>
       <use xlink:href="#CMR17-39" transform="translate(45.690477 0)scale(0.996264)"/>
       <use xlink:href="#CMR17-30" transform="translate(91.380954 0)scale(0.996264)"/>
      </g>
     </g>
    </g>
    <g id="xtick_4">
     <g id="line2d_4">
      <g>
       <use xlink:href="#m29f586ccd1" x="291.550489" y="166.028575" style="stroke: #000000; stroke-width: 0.8"/>
      </g>
     </g>
     <g id="text_4">
      <!-- $\mathdefault{200}$ -->
      <g transform="translate(282.03938 182.022603)scale(0.13 -0.13)">
       <defs>
        <path id="CMR17-32" d="M 2669 989 
L 2554 989 
C 2490 536 2438 459 2413 420 
C 2381 369 1920 369 1830 369 
L 602 369 
C 832 619 1280 1072 1824 1597 
C 2214 1967 2669 2402 2669 3035 
C 2669 3790 2067 4224 1395 4224 
C 691 4224 262 3604 262 3030 
C 262 2780 448 2748 525 2748 
C 589 2748 781 2787 781 3010 
C 781 3207 614 3264 525 3264 
C 486 3264 448 3258 422 3245 
C 544 3790 915 4058 1306 4058 
C 1862 4058 2227 3617 2227 3035 
C 2227 2479 1901 2000 1536 1584 
L 262 146 
L 262 0 
L 2515 0 
L 2669 989 
z
" transform="scale(0.015625)"/>
       </defs>
       <use xlink:href="#CMR17-32" transform="scale(0.996264)"/>
       <use xlink:href="#CMR17-30" transform="translate(45.690477 0)scale(0.996264)"/>
       <use xlink:href="#CMR17-30" transform="translate(91.380954 0)scale(0.996264)"/>
      </g>
     </g>
    </g>
    <g id="xtick_5">
     <g id="line2d_5">
      <g>
       <use xlink:href="#m29f586ccd1" x="367.260519" y="166.028575" style="stroke: #000000; stroke-width: 0.8"/>
      </g>
     </g>
     <g id="text_5">
      <!-- $\mathdefault{210}$ -->
      <g transform="translate(357.74941 182.022603)scale(0.13 -0.13)">
       <use xlink:href="#CMR17-32" transform="scale(0.996264)"/>
       <use xlink:href="#CMR17-31" transform="translate(45.690477 0)scale(0.996264)"/>
       <use xlink:href="#CMR17-30" transform="translate(91.380954 0)scale(0.996264)"/>
      </g>
     </g>
    </g>
    <g id="xtick_6">
     <g id="line2d_6">
      <g>
       <use xlink:href="#m29f586ccd1" x="442.970549" y="166.028575" style="stroke: #000000; stroke-width: 0.8"/>
      </g>
     </g>
     <g id="text_6">
      <!-- $\mathdefault{220}$ -->
      <g transform="translate(433.459439 182.022603)scale(0.13 -0.13)">
       <use xlink:href="#CMR17-32" transform="scale(0.996264)"/>
       <use xlink:href="#CMR17-32" transform="translate(45.690477 0)scale(0.996264)"/>
       <use xlink:href="#CMR17-30" transform="translate(91.380954 0)scale(0.996264)"/>
      </g>
     </g>
    </g>
    <g id="xtick_7">
     <g id="line2d_7">
      <g>
       <use xlink:href="#m29f586ccd1" x="518.680578" y="166.028575" style="stroke: #000000; stroke-width: 0.8"/>
      </g>
     </g>
     <g id="text_7">
      <!-- $\mathdefault{230}$ -->
      <g transform="translate(509.169469 182.022603)scale(0.13 -0.13)">
       <defs>
        <path id="CMR17-33" d="M 1414 2157 
C 1984 2157 2234 1662 2234 1090 
C 2234 320 1824 25 1453 25 
C 1114 25 563 194 390 693 
C 422 680 454 680 486 680 
C 640 680 755 782 755 948 
C 755 1133 614 1216 486 1216 
C 378 1216 211 1165 211 926 
C 211 335 787 -128 1466 -128 
C 2176 -128 2720 430 2720 1085 
C 2720 1707 2208 2157 1600 2227 
C 2086 2328 2554 2756 2554 3329 
C 2554 3820 2048 4179 1472 4179 
C 890 4179 378 3829 378 3329 
C 378 3110 544 3072 627 3072 
C 762 3072 877 3155 877 3321 
C 877 3486 762 3569 627 3569 
C 602 3569 570 3569 544 3557 
C 730 3959 1235 4032 1459 4032 
C 1683 4032 2106 3925 2106 3320 
C 2106 3143 2080 2828 1862 2550 
C 1670 2304 1453 2304 1242 2284 
C 1210 2284 1062 2269 1037 2269 
C 992 2263 966 2257 966 2208 
C 966 2163 973 2157 1101 2157 
L 1414 2157 
z
" transform="scale(0.015625)"/>
       </defs>
       <use xlink:href="#CMR17-32" transform="scale(0.996264)"/>
       <use xlink:href="#CMR17-33" transform="translate(45.690477 0)scale(0.996264)"/>
       <use xlink:href="#CMR17-30" transform="translate(91.380954 0)scale(0.996264)"/>
      </g>
     </g>
    </g>
    <g id="text_8">
     <!-- spring constant $k_{1,2,3}$ (N/m) -->
     <g transform="translate(221.594018 198.25449)scale(0.13 -0.13)">
      <defs>
       <path id="CMR17-73" d="M 1978 2697 
C 1978 2813 1971 2819 1933 2819 
C 1907 2819 1901 2813 1824 2717 
C 1805 2691 1747 2626 1728 2601 
C 1523 2819 1235 2819 1126 2819 
C 416 2819 160 2447 160 2076 
C 160 1498 813 1365 998 1325 
C 1402 1243 1542 1217 1677 1101 
C 1760 1025 1901 884 1901 654 
C 1901 384 1747 38 1158 38 
C 602 38 403 460 288 1021 
C 269 1110 269 1117 218 1117 
C 166 1117 160 1110 160 983 
L 160 63 
C 160 -51 166 -58 205 -58 
C 237 -58 243 -51 275 0 
C 314 57 410 211 448 276 
C 576 103 800 -64 1158 -64 
C 1792 -64 2131 283 2131 784 
C 2131 1112 1958 1285 1875 1362 
C 1683 1561 1459 1606 1190 1657 
C 838 1735 390 1825 390 2217 
C 390 2383 480 2737 1126 2737 
C 1811 2737 1850 2094 1862 1888 
C 1869 1856 1901 1849 1920 1849 
C 1978 1849 1978 1869 1978 1978 
L 1978 2697 
z
" transform="scale(0.015625)"/>
       <path id="CMR17-70" d="M 1408 -1063 
C 998 -1063 973 -1037 973 -789 
L 973 402 
C 1158 134 1427 -38 1766 -38 
C 2406 -38 3053 523 3053 1388 
C 3053 2191 2496 2802 1837 2802 
C 1453 2802 1139 2592 960 2338 
L 960 2802 
L 198 2732 
L 198 2567 
C 576 2567 634 2528 634 2223 
L 634 -789 
C 634 -1031 608 -1063 198 -1063 
L 198 -1228 
C 352 -1216 634 -1216 800 -1216 
C 966 -1216 1254 -1216 1408 -1228 
L 1408 -1063 
z
M 973 2012 
C 973 2102 973 2235 1222 2471 
C 1254 2497 1472 2688 1792 2688 
C 2259 2688 2643 2108 2643 1382 
C 2643 656 2234 64 1728 64 
C 1498 64 1248 172 1056 472 
C 973 612 973 650 973 752 
L 973 2012 
z
" transform="scale(0.015625)"/>
       <path id="CMR17-72" d="M 960 1497 
C 960 2112 1222 2688 1702 2688 
C 1747 2688 1792 2682 1837 2662 
C 1837 2662 1696 2617 1696 2452 
C 1696 2298 1818 2234 1914 2234 
C 1990 2234 2131 2279 2131 2458 
C 2131 2663 1926 2790 1709 2790 
C 1222 2790 1011 2317 947 2093 
L 941 2093 
L 941 2790 
L 198 2720 
L 198 2554 
C 576 2554 634 2515 634 2208 
L 634 428 
C 634 184 608 153 198 153 
L 198 -13 
C 352 0 646 0 813 0 
C 998 0 1325 0 1498 -13 
L 1498 153 
C 1037 153 960 153 960 440 
L 960 1497 
z
" transform="scale(0.015625)"/>
       <path id="CMR17-69" d="M 992 3909 
C 992 4049 877 4170 730 4170 
C 589 4170 467 4056 467 3909 
C 467 3769 582 3648 730 3648 
C 870 3648 992 3763 992 3909 
z
M 243 2706 
L 243 2541 
C 602 2541 653 2502 653 2197 
L 653 427 
C 653 184 627 153 218 153 
L 218 -13 
C 371 0 646 0 806 0 
C 960 0 1222 0 1370 -13 
L 1370 153 
C 992 153 979 191 979 420 
L 979 2776 
L 243 2706 
z
" transform="scale(0.015625)"/>
       <path id="CMR17-6e" d="M 2656 1933 
C 2656 2259 2592 2790 1837 2790 
C 1331 2790 1069 2400 973 2144 
L 966 2144 
L 966 2790 
L 211 2720 
L 211 2554 
C 589 2554 646 2515 646 2208 
L 646 428 
C 646 184 621 153 211 153 
L 211 -13 
C 365 0 646 0 813 0 
C 979 0 1267 0 1421 -13 
L 1421 153 
C 1011 153 986 178 986 428 
L 986 1658 
C 986 2247 1344 2688 1792 2688 
C 2266 2688 2317 2266 2317 1958 
L 2317 428 
C 2317 184 2291 153 1882 153 
L 1882 -13 
C 2035 0 2317 0 2483 0 
C 2650 0 2938 0 3091 -13 
L 3091 153 
C 2682 153 2656 178 2656 428 
L 2656 1933 
z
" transform="scale(0.015625)"/>
       <path id="CMR17-67" d="M 710 1164 
C 832 1068 1043 960 1299 960 
C 1805 960 2240 1357 2240 1888 
C 2240 2054 2189 2310 1997 2509 
C 2176 2692 2438 2752 2586 2752 
C 2611 2752 2650 2752 2682 2734 
C 2656 2728 2598 2703 2598 2605 
C 2598 2527 2656 2471 2739 2471 
C 2835 2471 2886 2533 2886 2614 
C 2886 2731 2790 2854 2586 2854 
C 2330 2854 2106 2738 1926 2580 
C 1734 2753 1504 2816 1299 2816 
C 794 2816 358 2419 358 1888 
C 358 1522 570 1292 634 1228 
C 442 1004 442 743 442 711 
C 442 545 506 302 723 168 
C 390 85 128 -169 128 -486 
C 128 -943 736 -1280 1466 -1280 
C 2170 -1280 2803 -956 2803 -479 
C 2803 384 1856 384 1363 384 
C 1216 384 954 384 922 391 
C 723 423 589 602 589 826 
C 589 883 589 1024 710 1164 
z
M 1299 1068 
C 736 1068 736 1760 736 1889 
C 736 2016 736 2708 1299 2708 
C 1862 2708 1862 2016 1862 1889 
C 1862 1760 1862 1068 1299 1068 
z
M 1466 -1171 
C 826 -1171 384 -835 384 -486 
C 384 -289 493 -105 634 -4 
C 794 104 858 104 1293 104 
C 1818 104 2547 104 2547 -486 
C 2547 -835 2106 -1171 1466 -1171 
z
" transform="scale(0.015625)"/>
       <path id="CMR17-63" d="M 2234 2240 
C 2112 2240 1933 2240 1933 2017 
C 1933 1838 2080 1787 2163 1787 
C 2208 1787 2394 1807 2394 2024 
C 2394 2467 1958 2803 1466 2803 
C 787 2803 211 2178 211 1363 
C 211 516 813 -64 1466 -64 
C 2259 -64 2458 677 2458 748 
C 2458 774 2451 793 2406 793 
C 2362 793 2355 787 2330 703 
C 2163 180 1798 51 1523 51 
C 1114 51 621 427 621 1369 
C 621 2338 1094 2688 1472 2688 
C 1722 2688 2093 2573 2234 2240 
z
" transform="scale(0.015625)"/>
       <path id="CMR17-6f" d="M 2758 1356 
C 2758 2176 2163 2816 1466 2816 
C 768 2816 173 2176 173 1356 
C 173 551 768 -64 1466 -64 
C 2163 -64 2758 551 2758 1356 
z
M 1466 51 
C 1165 51 909 230 762 480 
C 602 767 582 1126 582 1408 
C 582 1677 595 2010 762 2298 
C 890 2509 1139 2714 1466 2714 
C 1754 2714 1997 2554 2150 2330 
C 2349 2029 2349 1607 2349 1408 
C 2349 1158 2336 775 2163 467 
C 1984 173 1709 51 1466 51 
z
" transform="scale(0.015625)"/>
       <path id="CMR17-74" d="M 966 2560 
L 1862 2560 
L 1862 2725 
L 966 2725 
L 966 3904 
L 851 3904 
C 838 3245 614 2668 70 2668 
L 70 2560 
L 627 2560 
L 627 771 
C 627 650 627 -64 1370 -64 
C 1747 -64 1965 306 1965 777 
L 1965 1140 
L 1850 1140 
L 1850 783 
C 1850 344 1677 51 1408 51 
C 1222 51 966 178 966 758 
L 966 2560 
z
" transform="scale(0.015625)"/>
       <path id="CMR17-61" d="M 2304 1653 
C 2304 2072 2304 2294 2035 2543 
C 1798 2752 1523 2816 1306 2816 
C 800 2816 435 2407 435 1971 
C 435 1728 627 1728 666 1728 
C 749 1728 896 1778 896 1954 
C 896 2112 774 2181 666 2181 
C 640 2181 608 2174 589 2168 
C 723 2592 1069 2714 1293 2714 
C 1613 2714 1965 2429 1965 1885 
L 1965 1600 
C 1587 1600 1133 1549 774 1357 
C 371 1133 256 813 256 570 
C 256 77 832 -64 1171 -64 
C 1523 -64 1850 139 1990 511 
C 2003 233 2182 -18 2464 -18 
C 2598 -18 2938 70 2938 567 
L 2938 920 
L 2822 920 
L 2822 562 
C 2822 178 2650 128 2566 128 
C 2304 128 2304 458 2304 738 
L 2304 1653 
z
M 1965 870 
C 1965 317 1568 38 1216 38 
C 896 38 646 275 646 570 
C 646 761 730 1100 1101 1305 
C 1408 1478 1760 1504 1965 1504 
L 1965 870 
z
" transform="scale(0.015625)"/>
       <path id="CMMI12-6b" d="M 1798 4257 
C 1805 4283 1818 4321 1818 4352 
C 1818 4416 1754 4416 1741 4416 
C 1734 4416 1504 4393 1389 4377 
C 1280 4377 1184 4358 1069 4358 
C 915 4345 870 4339 870 4224 
C 870 4160 934 4160 998 4160 
C 1325 4160 1325 4103 1325 4040 
C 1325 4015 1325 4002 1293 3888 
L 378 248 
C 352 152 352 140 352 101 
C 352 -38 461 -64 525 -64 
C 704 -64 742 77 794 275 
L 1094 1469 
C 1555 1418 1830 1226 1830 920 
C 1830 881 1830 856 1811 760 
C 1786 664 1786 588 1786 556 
C 1786 185 2029 -64 2355 -64 
C 2650 -64 2803 204 2854 294 
C 2989 530 3072 888 3072 913 
C 3072 945 3046 971 3008 971 
C 2950 971 2944 945 2918 843 
C 2829 511 2694 64 2368 64 
C 2240 64 2157 128 2157 370 
C 2157 492 2182 632 2208 728 
C 2234 843 2234 849 2234 926 
C 2234 1303 1894 1514 1306 1590 
C 1536 1731 1766 1980 1856 2076 
C 2221 2484 2470 2689 2765 2689 
C 2912 2689 2950 2650 2995 2612 
C 2758 2586 2669 2420 2669 2293 
C 2669 2139 2790 2088 2880 2088 
C 3053 2088 3206 2235 3206 2440 
C 3206 2625 3059 2816 2771 2816 
C 2419 2816 2131 2567 1677 2056 
C 1613 1980 1376 1737 1139 1648 
L 1798 4257 
z
" transform="scale(0.015625)"/>
       <path id="CMMI12-3b" d="M 1248 -31 
C 1248 343 1126 619 864 619 
C 659 619 557 453 557 313 
C 557 172 653 0 870 0 
C 954 0 1024 26 1082 83 
C 1094 96 1101 96 1107 96 
C 1120 96 1120 5 1120 -27 
C 1120 -240 1082 -659 710 -1080 
C 640 -1157 640 -1170 640 -1183 
C 640 -1216 672 -1248 704 -1248 
C 755 -1248 1248 -771 1248 -31 
z
" transform="scale(0.015625)"/>
       <path id="CMR17-28" d="M 1958 -1561 
C 1958 -1555 1958 -1542 1939 -1523 
C 1645 -1224 858 -407 858 1581 
C 858 3569 1632 4379 1946 4697 
C 1946 4704 1958 4717 1958 4736 
C 1958 4755 1939 4768 1914 4768 
C 1843 4768 1299 4296 986 3594 
C 666 2887 576 2199 576 1588 
C 576 1128 621 351 1005 -471 
C 1312 -1135 1837 -1600 1914 -1600 
C 1946 -1600 1958 -1587 1958 -1561 
z
" transform="scale(0.015625)"/>
       <path id="CMR17-4e" d="M 1312 4250 
C 1267 4320 1261 4320 1139 4320 
L 326 4320 
L 326 4160 
L 448 4160 
C 704 4160 819 4129 838 4122 
L 838 610 
C 838 451 838 153 326 153 
L 326 -13 
C 474 0 742 0 902 0 
C 1062 0 1331 0 1478 -13 
L 1478 153 
C 966 153 966 451 966 610 
L 966 4033 
C 1011 3995 1011 3982 1056 3919 
L 3430 76 
C 3475 0 3494 0 3526 0 
C 3590 0 3590 19 3590 139 
L 3590 3705 
C 3590 3863 3590 4160 4102 4160 
L 4102 4326 
C 3955 4320 3686 4320 3526 4320 
C 3366 4320 3098 4320 2950 4326 
L 2950 4160 
C 3462 4160 3462 3862 3462 3703 
L 3462 763 
L 1312 4250 
z
" transform="scale(0.015625)"/>
       <path id="CMR17-2f" d="M 2605 4545 
C 2637 4627 2637 4640 2637 4653 
C 2637 4729 2579 4768 2528 4768 
C 2451 4768 2426 4717 2400 4640 
L 326 -1377 
C 294 -1460 294 -1473 294 -1486 
C 294 -1562 352 -1600 403 -1600 
C 480 -1600 506 -1549 531 -1473 
L 2605 4545 
z
" transform="scale(0.015625)"/>
       <path id="CMR17-6d" d="M 4326 1933 
C 4326 2252 4269 2790 3507 2790 
C 3072 2790 2771 2496 2656 2151 
L 2650 2151 
C 2573 2676 2195 2790 1837 2790 
C 1331 2790 1069 2400 973 2144 
L 966 2144 
L 966 2790 
L 211 2720 
L 211 2554 
C 589 2554 646 2515 646 2208 
L 646 428 
C 646 184 621 153 211 153 
L 211 -13 
C 365 0 646 0 813 0 
C 979 0 1267 0 1421 -13 
L 1421 153 
C 1011 153 986 178 986 428 
L 986 1658 
C 986 2247 1344 2688 1792 2688 
C 2266 2688 2317 2266 2317 1958 
L 2317 428 
C 2317 184 2291 153 1882 153 
L 1882 -13 
C 2035 0 2317 0 2483 0 
C 2650 0 2938 0 3091 -13 
L 3091 153 
C 2682 153 2656 178 2656 428 
L 2656 1658 
C 2656 2247 3014 2688 3462 2688 
C 3936 2688 3987 2266 3987 1958 
L 3987 428 
C 3987 184 3962 153 3552 153 
L 3552 -13 
C 3706 0 3987 0 4154 0 
C 4320 0 4608 0 4762 -13 
L 4762 153 
C 4352 153 4326 178 4326 428 
L 4326 1933 
z
" transform="scale(0.015625)"/>
       <path id="CMR17-29" d="M 1683 1581 
C 1683 2040 1638 2817 1254 3639 
C 947 4303 422 4768 346 4768 
C 326 4768 301 4761 301 4729 
C 301 4717 307 4710 314 4697 
C 621 4378 1402 3568 1402 1584 
C 1402 -407 627 -1217 314 -1537 
C 307 -1549 301 -1556 301 -1568 
C 301 -1600 326 -1600 346 -1600 
C 416 -1600 960 -1128 1274 -426 
C 1594 281 1683 969 1683 1581 
z
" transform="scale(0.015625)"/>
      </defs>
      <use xlink:href="#CMR17-73" transform="scale(0.996264)"/>
      <use xlink:href="#CMR17-70" transform="translate(35.801338 0)scale(0.996264)"/>
      <use xlink:href="#CMR17-72" transform="translate(86.696707 0)scale(0.996264)"/>
      <use xlink:href="#CMR17-69" transform="translate(121.977475 0)scale(0.996264)"/>
      <use xlink:href="#CMR17-6e" transform="translate(146.848534 0)scale(0.996264)"/>
      <use xlink:href="#CMR17-67" transform="translate(197.743903 0)scale(0.996264)"/>
      <use xlink:href="#CMR17-63" transform="translate(273.510347 0)scale(0.996264)"/>
      <use xlink:href="#CMR17-6f" transform="translate(313.996007 0)scale(0.996264)"/>
      <use xlink:href="#CMR17-6e" transform="translate(359.686485 0)scale(0.996264)"/>
      <use xlink:href="#CMR17-73" transform="translate(410.581854 0)scale(0.996264)"/>
      <use xlink:href="#CMR17-74" transform="translate(446.383192 0)scale(0.996264)"/>
      <use xlink:href="#CMR17-61" transform="translate(481.66396 0)scale(0.996264)"/>
      <use xlink:href="#CMR17-6e" transform="translate(527.354437 0)scale(0.996264)"/>
      <use xlink:href="#CMR17-74" transform="translate(575.647353 0)scale(0.996264)"/>
      <use xlink:href="#CMMI12-6b" transform="translate(641.004087 0)scale(0.996264)"/>
      <use xlink:href="#CMR17-31" transform="translate(691.739275 -14.943915)scale(0.697382)"/>
      <use xlink:href="#CMMI12-3b" transform="translate(723.722457 -14.943915)scale(0.697382)"/>
      <use xlink:href="#CMR17-32" transform="translate(742.69039 -14.943915)scale(0.697382)"/>
      <use xlink:href="#CMMI12-3b" transform="translate(774.673572 -14.943915)scale(0.697382)"/>
      <use xlink:href="#CMR17-33" transform="translate(793.641505 -14.943915)scale(0.697382)"/>
      <use xlink:href="#CMR17-28" transform="translate(856.198785 0)scale(0.996264)"/>
      <use xlink:href="#CMR17-4e" transform="translate(891.479553 0)scale(0.996264)"/>
      <use xlink:href="#CMR17-2f" transform="translate(960.551983 0)scale(0.996264)"/>
      <use xlink:href="#CMR17-6d" transform="translate(1006.24246 0)scale(0.996264)"/>
      <use xlink:href="#CMR17-29" transform="translate(1083.16205 0)scale(0.996264)"/>
     </g>
    </g>
   </g>
   <g id="matplotlib.axis_2">
    <g id="ytick_1">
     <g id="line2d_8">
      <defs>
       <path id="ma16c7f6611" d="M 0 0 
L -3.5 0 
" style="stroke: #000000; stroke-width: 0.8"/>
      </defs>
      <g>
       <use xlink:href="#ma16c7f6611" x="37.244112" y="166.028575" style="stroke: #000000; stroke-width: 0.8"/>
      </g>
     </g>
     <g id="text_9">
      <!-- $\mathdefault{0.0}$ -->
      <g transform="translate(14.04 170.525589)scale(0.13 -0.13)">
       <defs>
        <path id="CMMI12-3a" d="M 1178 307 
C 1178 492 1024 619 870 619 
C 685 619 557 466 557 313 
C 557 128 710 0 864 0 
C 1050 0 1178 153 1178 307 
z
" transform="scale(0.015625)"/>
       </defs>
       <use xlink:href="#CMR17-30" transform="scale(0.996264)"/>
       <use xlink:href="#CMMI12-3a" transform="translate(45.690477 0)scale(0.996264)"/>
       <use xlink:href="#CMR17-30" transform="translate(72.787654 0)scale(0.996264)"/>
      </g>
     </g>
    </g>
    <g id="ytick_2">
     <g id="line2d_9">
      <g>
       <use xlink:href="#ma16c7f6611" x="37.244112" y="116.85652" style="stroke: #000000; stroke-width: 0.8"/>
      </g>
     </g>
     <g id="text_10">
      <!-- $\mathdefault{0.1}$ -->
      <g transform="translate(14.04 121.353534)scale(0.13 -0.13)">
       <use xlink:href="#CMR17-30" transform="scale(0.996264)"/>
       <use xlink:href="#CMMI12-3a" transform="translate(45.690477 0)scale(0.996264)"/>
       <use xlink:href="#CMR17-31" transform="translate(72.787654 0)scale(0.996264)"/>
      </g>
     </g>
    </g>
    <g id="ytick_3">
     <g id="line2d_10">
      <g>
       <use xlink:href="#ma16c7f6611" x="37.244112" y="67.684464" style="stroke: #000000; stroke-width: 0.8"/>
      </g>
     </g>
     <g id="text_11">
      <!-- $\mathdefault{0.2}$ -->
      <g transform="translate(14.04 72.181478)scale(0.13 -0.13)">
       <use xlink:href="#CMR17-30" transform="scale(0.996264)"/>
       <use xlink:href="#CMMI12-3a" transform="translate(45.690477 0)scale(0.996264)"/>
       <use xlink:href="#CMR17-32" transform="translate(72.787654 0)scale(0.996264)"/>
      </g>
     </g>
    </g>
    <g id="ytick_4">
     <g id="line2d_11">
      <g>
       <use xlink:href="#ma16c7f6611" x="37.244112" y="18.512409" style="stroke: #000000; stroke-width: 0.8"/>
      </g>
     </g>
     <g id="text_12">
      <!-- $\mathdefault{0.3}$ -->
      <g transform="translate(14.04 23.009423)scale(0.13 -0.13)">
       <use xlink:href="#CMR17-30" transform="scale(0.996264)"/>
       <use xlink:href="#CMMI12-3a" transform="translate(45.690477 0)scale(0.996264)"/>
       <use xlink:href="#CMR17-33" transform="translate(72.787654 0)scale(0.996264)"/>
      </g>
     </g>
    </g>
   </g>
   <g id="patch_183">
    <path d="M 37.244112 166.028575 
L 37.244112 18.275207 
" style="fill: none; stroke: #000000; stroke-width: 0.8; stroke-linejoin: miter; stroke-linecap: square"/>
   </g>
   <g id="patch_184">
    <path d="M 561.96 166.028575 
L 561.96 18.275207 
" style="fill: none; stroke: #000000; stroke-width: 0.8; stroke-linejoin: miter; stroke-linecap: square"/>
   </g>
   <g id="patch_185">
    <path d="M 37.244112 166.028575 
L 561.96 166.028575 
" style="fill: none; stroke: #000000; stroke-width: 0.8; stroke-linejoin: miter; stroke-linecap: square"/>
   </g>
   <g id="patch_186">
    <path d="M 37.244112 18.275207 
L 561.96 18.275207 
" style="fill: none; stroke: #000000; stroke-width: 0.8; stroke-linejoin: miter; stroke-linecap: square"/>
   </g>
   <g id="legend_1">
    <g id="patch_187">
     <path d="M 500.005573 83.030143 
L 552.86 83.030143 
Q 555.46 83.030143 555.46 80.430143 
L 555.46 27.375207 
Q 555.46 24.775207 552.86 24.775207 
L 500.005573 24.775207 
Q 497.405573 24.775207 497.405573 27.375207 
L 497.405573 80.430143 
Q 497.405573 83.030143 500.005573 83.030143 
z
" style="fill: #ffffff; opacity: 0.8; stroke: #cccccc; stroke-linejoin: miter"/>
    </g>
    <g id="patch_188">
     <path d="M 502.605573 39.075207 
L 528.605573 39.075207 
L 528.605573 29.975207 
L 502.605573 29.975207 
z
" style="fill: #800000; opacity: 0.3"/>
    </g>
    <g id="text_13">
     <!-- $k_1$ -->
     <g transform="translate(539.005573 39.075207)scale(0.13 -0.13)">
      <use xlink:href="#CMMI12-6b" transform="scale(0.996264)"/>
      <use xlink:href="#CMR17-31" transform="translate(50.735189 -14.943915)scale(0.697382)"/>
     </g>
    </g>
    <g id="patch_189">
     <path d="M 502.605573 57.193519 
L 528.605573 57.193519 
L 528.605573 48.093519 
L 502.605573 48.093519 
z
" style="fill: #00008b; opacity: 0.3"/>
    </g>
    <g id="text_14">
     <!-- $k_2$ -->
     <g transform="translate(539.005573 57.193519)scale(0.13 -0.13)">
      <use xlink:href="#CMMI12-6b" transform="scale(0.996264)"/>
      <use xlink:href="#CMR17-32" transform="translate(50.735189 -14.943915)scale(0.697382)"/>
     </g>
    </g>
    <g id="patch_190">
     <path d="M 502.605573 75.311831 
L 528.605573 75.311831 
L 528.605573 66.211831 
L 502.605573 66.211831 
z
" style="fill: #006400; opacity: 0.3"/>
    </g>
    <g id="text_15">
     <!-- $k_3$ -->
     <g transform="translate(539.005573 75.311831)scale(0.13 -0.13)">
      <use xlink:href="#CMMI12-6b" transform="scale(0.996264)"/>
      <use xlink:href="#CMR17-33" transform="translate(50.735189 -14.943915)scale(0.697382)"/>
     </g>
    </g>
   </g>
  </g>
 </g>
 <defs>
  <clipPath id="p1096813656">
   <rect x="37.244112" y="18.275207" width="524.715888" height="147.753368"/>
  </clipPath>
 </defs>
</svg>
