<?xml version="1.0" encoding="utf-8" standalone="no"?>
<!DOCTYPE svg PUBLIC "-//W3C//DTD SVG 1.1//EN"
  "http://www.w3.org/Graphics/SVG/1.1/DTD/svg11.dtd">
<svg xmlns:xlink="http://www.w3.org/1999/xlink" width="576pt" height="288pt" viewBox="0 0 576 288" xmlns="http://www.w3.org/2000/svg" version="1.1">
 <metadata>
  <rdf:RDF xmlns:dc="http://purl.org/dc/elements/1.1/" xmlns:cc="http://creativecommons.org/ns#" xmlns:rdf="http://www.w3.org/1999/02/22-rdf-syntax-ns#">
   <cc:Work>
    <dc:type rdf:resource="http://purl.org/dc/dcmitype/StillImage"/>
    <dc:date>2023-06-13T12:11:37.086019</dc:date>
    <dc:format>image/svg+xml</dc:format>
    <dc:creator>
     <cc:Agent>
      <dc:title>Matplotlib v3.5.3, https://matplotlib.org/</dc:title>
     </cc:Agent>
    </dc:creator>
   </cc:Work>
  </rdf:RDF>
 </metadata>
 <defs>
  <style type="text/css">*{stroke-linejoin: round; stroke-linecap: butt}</style>
 </defs>
 <g id="figure_1">
  <g id="patch_1">
   <path d="M 0 288 
L 576 288 
L 576 0 
L 0 0 
L 0 288 
z
" style="fill: none"/>
  </g>
  <g id="axes_1">
   <g id="patch_2">
    <path d="M 72 143.28 
L 518.4 143.28 
L 518.4 34.56 
L 72 34.56 
z
" style="fill: #ffffff"/>
   </g>
   <g id="matplotlib.axis_1"/>
   <g id="matplotlib.axis_2">
    <g id="ytick_1">
     <g id="line2d_1">
      <defs>
       <path id="mea41808382" d="M 0 0 
L -3.5 0 
" style="stroke: #000000; stroke-width: 0.8"/>
      </defs>
      <g>
       <use xlink:href="#mea41808382" x="72" y="135.695194" style="stroke: #000000; stroke-width: 0.8"/>
      </g>
     </g>
     <g id="text_1">
      <!-- $\mathdefault{−0.02}$ -->
      <g transform="translate(32.381779 140.192208)scale(0.13 -0.13)">
       <defs>
        <path id="CMSY10-0" d="M 4218 1472 
C 4326 1472 4442 1472 4442 1600 
C 4442 1728 4326 1728 4218 1728 
L 755 1728 
C 646 1728 531 1728 531 1600 
C 531 1472 646 1472 755 1472 
L 4218 1472 
z
" transform="scale(0.015625)"/>
        <path id="CMR17-30" d="M 2688 2025 
C 2688 2416 2682 3080 2413 3591 
C 2176 4039 1798 4198 1466 4198 
C 1158 4198 768 4058 525 3597 
C 269 3118 243 2524 243 2025 
C 243 1661 250 1106 448 619 
C 723 -39 1216 -128 1466 -128 
C 1760 -128 2208 -7 2470 600 
C 2662 1042 2688 1559 2688 2025 
z
M 1466 -26 
C 1056 -26 813 325 723 812 
C 653 1188 653 1738 653 2096 
C 653 2588 653 2997 736 3387 
C 858 3929 1216 4096 1466 4096 
C 1728 4096 2067 3923 2189 3400 
C 2272 3036 2278 2607 2278 2096 
C 2278 1680 2278 1169 2202 792 
C 2067 95 1690 -26 1466 -26 
z
" transform="scale(0.015625)"/>
        <path id="CMMI12-3a" d="M 1178 307 
C 1178 492 1024 619 870 619 
C 685 619 557 466 557 313 
C 557 128 710 0 864 0 
C 1050 0 1178 153 1178 307 
z
" transform="scale(0.015625)"/>
        <path id="CMR17-32" d="M 2669 989 
L 2554 989 
C 2490 536 2438 459 2413 420 
C 2381 369 1920 369 1830 369 
L 602 369 
C 832 619 1280 1072 1824 1597 
C 2214 1967 2669 2402 2669 3035 
C 2669 3790 2067 4224 1395 4224 
C 691 4224 262 3604 262 3030 
C 262 2780 448 2748 525 2748 
C 589 2748 781 2787 781 3010 
C 781 3207 614 3264 525 3264 
C 486 3264 448 3258 422 3245 
C 544 3790 915 4058 1306 4058 
C 1862 4058 2227 3617 2227 3035 
C 2227 2479 1901 2000 1536 1584 
L 262 146 
L 262 0 
L 2515 0 
L 2669 989 
z
" transform="scale(0.015625)"/>
       </defs>
       <use xlink:href="#CMSY10-0" transform="scale(0.996264)"/>
       <use xlink:href="#CMR17-30" transform="translate(77.487468 0)scale(0.996264)"/>
       <use xlink:href="#CMMI12-3a" transform="translate(123.177945 0)scale(0.996264)"/>
       <use xlink:href="#CMR17-30" transform="translate(150.275122 0)scale(0.996264)"/>
       <use xlink:href="#CMR17-32" transform="translate(195.965599 0)scale(0.996264)"/>
      </g>
     </g>
    </g>
    <g id="ytick_2">
     <g id="line2d_2">
      <g>
       <use xlink:href="#mea41808382" x="72" y="89.208433" style="stroke: #000000; stroke-width: 0.8"/>
      </g>
     </g>
     <g id="text_2">
      <!-- $\mathdefault{0.00}$ -->
      <g transform="translate(42.455149 93.705447)scale(0.13 -0.13)">
       <use xlink:href="#CMR17-30" transform="scale(0.996264)"/>
       <use xlink:href="#CMMI12-3a" transform="translate(45.690477 0)scale(0.996264)"/>
       <use xlink:href="#CMR17-30" transform="translate(72.787654 0)scale(0.996264)"/>
       <use xlink:href="#CMR17-30" transform="translate(118.478131 0)scale(0.996264)"/>
      </g>
     </g>
    </g>
    <g id="ytick_3">
     <g id="line2d_3">
      <g>
       <use xlink:href="#mea41808382" x="72" y="42.721672" style="stroke: #000000; stroke-width: 0.8"/>
      </g>
     </g>
     <g id="text_3">
      <!-- $\mathdefault{0.02}$ -->
      <g transform="translate(42.455149 47.218686)scale(0.13 -0.13)">
       <use xlink:href="#CMR17-30" transform="scale(0.996264)"/>
       <use xlink:href="#CMMI12-3a" transform="translate(45.690477 0)scale(0.996264)"/>
       <use xlink:href="#CMR17-30" transform="translate(72.787654 0)scale(0.996264)"/>
       <use xlink:href="#CMR17-32" transform="translate(118.478131 0)scale(0.996264)"/>
      </g>
     </g>
    </g>
    <g id="text_4">
     <!-- displacement (m) -->
     <g transform="translate(25.143921 137.039159)rotate(-90)scale(0.13 -0.13)">
      <defs>
       <path id="CMR17-64" d="M 1869 4326 
L 1869 4160 
C 2246 4160 2304 4122 2304 3820 
L 2304 2345 
C 2278 2377 2016 2790 1498 2790 
C 845 2790 211 2208 211 1364 
C 211 525 806 -64 1434 -64 
C 1978 -64 2259 337 2291 380 
L 2291 -63 
L 3066 -63 
L 3066 128 
C 2688 128 2630 166 2630 473 
L 2630 4396 
L 1869 4326 
z
M 2291 755 
C 2291 563 2176 390 2029 262 
C 1811 70 1594 38 1472 38 
C 1286 38 621 134 621 1356 
C 621 2612 1363 2688 1530 2688 
C 1824 2688 2061 2522 2208 2291 
C 2291 2157 2291 2138 2291 2023 
L 2291 755 
z
" transform="scale(0.015625)"/>
       <path id="CMR17-69" d="M 992 3909 
C 992 4049 877 4170 730 4170 
C 589 4170 467 4056 467 3909 
C 467 3769 582 3648 730 3648 
C 870 3648 992 3763 992 3909 
z
M 243 2706 
L 243 2541 
C 602 2541 653 2502 653 2197 
L 653 427 
C 653 184 627 153 218 153 
L 218 -13 
C 371 0 646 0 806 0 
C 960 0 1222 0 1370 -13 
L 1370 153 
C 992 153 979 191 979 420 
L 979 2776 
L 243 2706 
z
" transform="scale(0.015625)"/>
       <path id="CMR17-73" d="M 1978 2697 
C 1978 2813 1971 2819 1933 2819 
C 1907 2819 1901 2813 1824 2717 
C 1805 2691 1747 2626 1728 2601 
C 1523 2819 1235 2819 1126 2819 
C 416 2819 160 2447 160 2076 
C 160 1498 813 1365 998 1325 
C 1402 1243 1542 1217 1677 1101 
C 1760 1025 1901 884 1901 654 
C 1901 384 1747 38 1158 38 
C 602 38 403 460 288 1021 
C 269 1110 269 1117 218 1117 
C 166 1117 160 1110 160 983 
L 160 63 
C 160 -51 166 -58 205 -58 
C 237 -58 243 -51 275 0 
C 314 57 410 211 448 276 
C 576 103 800 -64 1158 -64 
C 1792 -64 2131 283 2131 784 
C 2131 1112 1958 1285 1875 1362 
C 1683 1561 1459 1606 1190 1657 
C 838 1735 390 1825 390 2217 
C 390 2383 480 2737 1126 2737 
C 1811 2737 1850 2094 1862 1888 
C 1869 1856 1901 1849 1920 1849 
C 1978 1849 1978 1869 1978 1978 
L 1978 2697 
z
" transform="scale(0.015625)"/>
       <path id="CMR17-70" d="M 1408 -1063 
C 998 -1063 973 -1037 973 -789 
L 973 402 
C 1158 134 1427 -38 1766 -38 
C 2406 -38 3053 523 3053 1388 
C 3053 2191 2496 2802 1837 2802 
C 1453 2802 1139 2592 960 2338 
L 960 2802 
L 198 2732 
L 198 2567 
C 576 2567 634 2528 634 2223 
L 634 -789 
C 634 -1031 608 -1063 198 -1063 
L 198 -1228 
C 352 -1216 634 -1216 800 -1216 
C 966 -1216 1254 -1216 1408 -1228 
L 1408 -1063 
z
M 973 2012 
C 973 2102 973 2235 1222 2471 
C 1254 2497 1472 2688 1792 2688 
C 2259 2688 2643 2108 2643 1382 
C 2643 656 2234 64 1728 64 
C 1498 64 1248 172 1056 472 
C 973 612 973 650 973 752 
L 973 2012 
z
" transform="scale(0.015625)"/>
       <path id="CMR17-6c" d="M 979 4396 
L 218 4326 
L 218 4160 
C 595 4160 653 4122 653 3817 
L 653 426 
C 653 184 627 153 218 153 
L 218 -13 
C 371 0 653 0 813 0 
C 979 0 1261 0 1414 -13 
L 1414 153 
C 1005 153 979 178 979 426 
L 979 4396 
z
" transform="scale(0.015625)"/>
       <path id="CMR17-61" d="M 2304 1653 
C 2304 2072 2304 2294 2035 2543 
C 1798 2752 1523 2816 1306 2816 
C 800 2816 435 2407 435 1971 
C 435 1728 627 1728 666 1728 
C 749 1728 896 1778 896 1954 
C 896 2112 774 2181 666 2181 
C 640 2181 608 2174 589 2168 
C 723 2592 1069 2714 1293 2714 
C 1613 2714 1965 2429 1965 1885 
L 1965 1600 
C 1587 1600 1133 1549 774 1357 
C 371 1133 256 813 256 570 
C 256 77 832 -64 1171 -64 
C 1523 -64 1850 139 1990 511 
C 2003 233 2182 -18 2464 -18 
C 2598 -18 2938 70 2938 567 
L 2938 920 
L 2822 920 
L 2822 562 
C 2822 178 2650 128 2566 128 
C 2304 128 2304 458 2304 738 
L 2304 1653 
z
M 1965 870 
C 1965 317 1568 38 1216 38 
C 896 38 646 275 646 570 
C 646 761 730 1100 1101 1305 
C 1408 1478 1760 1504 1965 1504 
L 1965 870 
z
" transform="scale(0.015625)"/>
       <path id="CMR17-63" d="M 2234 2240 
C 2112 2240 1933 2240 1933 2017 
C 1933 1838 2080 1787 2163 1787 
C 2208 1787 2394 1807 2394 2024 
C 2394 2467 1958 2803 1466 2803 
C 787 2803 211 2178 211 1363 
C 211 516 813 -64 1466 -64 
C 2259 -64 2458 677 2458 748 
C 2458 774 2451 793 2406 793 
C 2362 793 2355 787 2330 703 
C 2163 180 1798 51 1523 51 
C 1114 51 621 427 621 1369 
C 621 2338 1094 2688 1472 2688 
C 1722 2688 2093 2573 2234 2240 
z
" transform="scale(0.015625)"/>
       <path id="CMR17-65" d="M 2438 1472 
C 2464 1498 2464 1511 2464 1576 
C 2464 2238 2118 2816 1389 2816 
C 710 2816 173 2169 173 1383 
C 173 551 781 -64 1459 -64 
C 2176 -64 2458 607 2458 740 
C 2458 784 2419 784 2406 784 
C 2362 784 2355 771 2330 696 
C 2189 265 1837 51 1504 51 
C 1229 51 954 203 781 480 
C 582 803 582 1176 582 1472 
L 2438 1472 
z
M 589 1568 
C 634 2505 1126 2714 1382 2714 
C 1818 2714 2112 2297 2118 1568 
L 589 1568 
z
" transform="scale(0.015625)"/>
       <path id="CMR17-6d" d="M 4326 1933 
C 4326 2252 4269 2790 3507 2790 
C 3072 2790 2771 2496 2656 2151 
L 2650 2151 
C 2573 2676 2195 2790 1837 2790 
C 1331 2790 1069 2400 973 2144 
L 966 2144 
L 966 2790 
L 211 2720 
L 211 2554 
C 589 2554 646 2515 646 2208 
L 646 428 
C 646 184 621 153 211 153 
L 211 -13 
C 365 0 646 0 813 0 
C 979 0 1267 0 1421 -13 
L 1421 153 
C 1011 153 986 178 986 428 
L 986 1658 
C 986 2247 1344 2688 1792 2688 
C 2266 2688 2317 2266 2317 1958 
L 2317 428 
C 2317 184 2291 153 1882 153 
L 1882 -13 
C 2035 0 2317 0 2483 0 
C 2650 0 2938 0 3091 -13 
L 3091 153 
C 2682 153 2656 178 2656 428 
L 2656 1658 
C 2656 2247 3014 2688 3462 2688 
C 3936 2688 3987 2266 3987 1958 
L 3987 428 
C 3987 184 3962 153 3552 153 
L 3552 -13 
C 3706 0 3987 0 4154 0 
C 4320 0 4608 0 4762 -13 
L 4762 153 
C 4352 153 4326 178 4326 428 
L 4326 1933 
z
" transform="scale(0.015625)"/>
       <path id="CMR17-6e" d="M 2656 1933 
C 2656 2259 2592 2790 1837 2790 
C 1331 2790 1069 2400 973 2144 
L 966 2144 
L 966 2790 
L 211 2720 
L 211 2554 
C 589 2554 646 2515 646 2208 
L 646 428 
C 646 184 621 153 211 153 
L 211 -13 
C 365 0 646 0 813 0 
C 979 0 1267 0 1421 -13 
L 1421 153 
C 1011 153 986 178 986 428 
L 986 1658 
C 986 2247 1344 2688 1792 2688 
C 2266 2688 2317 2266 2317 1958 
L 2317 428 
C 2317 184 2291 153 1882 153 
L 1882 -13 
C 2035 0 2317 0 2483 0 
C 2650 0 2938 0 3091 -13 
L 3091 153 
C 2682 153 2656 178 2656 428 
L 2656 1933 
z
" transform="scale(0.015625)"/>
       <path id="CMR17-74" d="M 966 2560 
L 1862 2560 
L 1862 2725 
L 966 2725 
L 966 3904 
L 851 3904 
C 838 3245 614 2668 70 2668 
L 70 2560 
L 627 2560 
L 627 771 
C 627 650 627 -64 1370 -64 
C 1747 -64 1965 306 1965 777 
L 1965 1140 
L 1850 1140 
L 1850 783 
C 1850 344 1677 51 1408 51 
C 1222 51 966 178 966 758 
L 966 2560 
z
" transform="scale(0.015625)"/>
       <path id="CMR17-28" d="M 1958 -1561 
C 1958 -1555 1958 -1542 1939 -1523 
C 1645 -1224 858 -407 858 1581 
C 858 3569 1632 4379 1946 4697 
C 1946 4704 1958 4717 1958 4736 
C 1958 4755 1939 4768 1914 4768 
C 1843 4768 1299 4296 986 3594 
C 666 2887 576 2199 576 1588 
C 576 1128 621 351 1005 -471 
C 1312 -1135 1837 -1600 1914 -1600 
C 1946 -1600 1958 -1587 1958 -1561 
z
" transform="scale(0.015625)"/>
       <path id="CMR17-29" d="M 1683 1581 
C 1683 2040 1638 2817 1254 3639 
C 947 4303 422 4768 346 4768 
C 326 4768 301 4761 301 4729 
C 301 4717 307 4710 314 4697 
C 621 4378 1402 3568 1402 1584 
C 1402 -407 627 -1217 314 -1537 
C 307 -1549 301 -1556 301 -1568 
C 301 -1600 326 -1600 346 -1600 
C 416 -1600 960 -1128 1274 -426 
C 1594 281 1683 969 1683 1581 
z
" transform="scale(0.015625)"/>
      </defs>
      <use xlink:href="#CMR17-64" transform="scale(0.996264)"/>
      <use xlink:href="#CMR17-69" transform="translate(50.89537 0)scale(0.996264)"/>
      <use xlink:href="#CMR17-73" transform="translate(75.766428 0)scale(0.996264)"/>
      <use xlink:href="#CMR17-70" transform="translate(111.567766 0)scale(0.996264)"/>
      <use xlink:href="#CMR17-6c" transform="translate(162.463136 0)scale(0.996264)"/>
      <use xlink:href="#CMR17-61" transform="translate(187.334194 0)scale(0.996264)"/>
      <use xlink:href="#CMR17-63" transform="translate(233.024671 0)scale(0.996264)"/>
      <use xlink:href="#CMR17-65" transform="translate(273.510332 0)scale(0.996264)"/>
      <use xlink:href="#CMR17-6d" transform="translate(313.995992 0)scale(0.996264)"/>
      <use xlink:href="#CMR17-65" transform="translate(390.915582 0)scale(0.996264)"/>
      <use xlink:href="#CMR17-6e" transform="translate(431.401243 0)scale(0.996264)"/>
      <use xlink:href="#CMR17-74" transform="translate(479.694158 0)scale(0.996264)"/>
      <use xlink:href="#CMR17-28" transform="translate(545.050893 0)scale(0.996264)"/>
      <use xlink:href="#CMR17-6d" transform="translate(580.33166 0)scale(0.996264)"/>
      <use xlink:href="#CMR17-29" transform="translate(657.25125 0)scale(0.996264)"/>
     </g>
    </g>
   </g>
   <g id="line2d_4">
    <path d="M 92.290909 137.789556 
L 93.104172 136.021971 
L 93.917435 130.86101 
L 94.730698 122.720201 
L 95.543961 112.250285 
L 98.797012 64.98016 
L 99.610275 56.449878 
L 100.423538 50.722286 
L 101.236801 48.179505 
L 102.050064 48.934442 
L 102.863327 52.824316 
L 103.67659 59.427566 
L 104.489852 68.102621 
L 107.742904 106.521677 
L 108.556167 112.817303 
L 109.36943 116.50902 
L 110.182693 117.326822 
L 110.995956 115.262953 
L 111.809218 110.570679 
L 112.622481 103.740292 
L 115.875533 70.213678 
L 116.688796 64.436546 
L 117.502059 61.090244 
L 118.315322 60.549786 
L 119.128584 62.937954 
L 119.941847 68.112466 
L 120.75511 75.676265 
L 122.381636 95.324673 
L 124.008162 115.301392 
L 124.821425 123.180196 
L 125.634688 128.627886 
L 126.44795 131.101623 
L 127.261213 130.300899 
L 128.074476 126.195954 
L 128.887739 119.033307 
L 129.701002 109.317847 
L 131.327528 85.281689 
L 132.954054 61.350312 
L 133.767316 51.792617 
L 134.580579 44.897501 
L 135.393842 41.209298 
L 136.207105 41.015719 
L 137.020368 44.324076 
L 137.833631 50.860944 
L 138.646894 60.095259 
L 140.27342 83.528951 
L 141.899945 107.316851 
L 142.713208 117.010549 
L 143.526471 124.218807 
L 144.339734 128.432839 
L 145.152997 129.40001 
L 145.96626 127.142173 
L 146.779523 121.950616 
L 147.592786 114.358161 
L 149.219311 95.003637 
L 150.845837 75.978511 
L 151.6591 68.705428 
L 152.472363 63.798425 
L 153.285626 61.649048 
L 154.098889 62.395162 
L 154.912152 65.910549 
L 155.725414 71.817608 
L 157.35194 88.266183 
L 158.978466 105.443101 
L 159.791729 112.190254 
L 160.604992 116.756833 
L 161.418255 118.654037 
L 162.231518 117.630955 
L 163.04478 113.698723 
L 163.858043 107.131898 
L 164.671306 98.446845 
L 167.924358 58.46858 
L 168.737621 51.573533 
L 169.550884 47.423755 
L 170.364146 46.451174 
L 171.177409 48.827968 
L 171.990672 54.44913 
L 172.803935 62.93846 
L 174.430461 85.855529 
L 176.056987 110.728945 
L 176.87025 121.482789 
L 177.683512 129.952693 
L 178.496775 135.475795 
L 179.310038 137.624973 
L 180.123301 136.244008 
L 180.936564 131.46011 
L 181.749827 123.672757 
L 182.56309 113.519818 
L 185.816141 66.965525 
L 186.629404 58.451465 
L 187.442667 52.67455 
L 188.25593 50.021082 
L 189.069193 50.610188 
L 189.882456 54.28691 
L 190.695719 60.63864 
L 191.508982 69.033406 
L 193.94877 98.146413 
L 194.762033 106.234115 
L 195.575296 112.243558 
L 196.388559 115.670469 
L 197.201822 116.250132 
L 198.015085 113.979169 
L 198.828348 109.114427 
L 199.64161 102.149102 
L 202.894662 68.497668 
L 203.707925 62.798779 
L 204.521188 59.574818 
L 205.334451 59.199627 
L 206.147714 61.793777 
L 206.960976 67.211567 
L 207.774239 75.051172 
L 209.400765 95.322558 
L 211.027291 115.960133 
L 211.840554 124.157979 
L 212.653817 129.90218 
L 213.46708 132.638659 
L 214.280343 132.056273 
L 215.093605 128.115778 
L 215.906868 121.055891 
L 216.720131 111.37586 
L 218.346657 87.199011 
L 219.973183 62.857666 
L 220.786446 53.009534 
L 221.599709 45.780408 
L 222.412971 41.727148 
L 223.226234 41.151295 
L 224.039497 44.074642 
L 224.85276 50.238208 
L 225.666023 59.124663 
L 227.292549 81.986719 
L 228.919075 105.427017 
L 229.732337 115.043456 
L 230.5456 122.240173 
L 231.358863 126.506227 
L 232.172126 127.584607 
L 232.985389 125.490935 
L 233.798652 120.508849 
L 234.611915 113.162563 
L 236.238441 94.37392 
L 237.864966 75.952986 
L 238.678229 68.975907 
L 239.491492 64.351465 
L 240.304755 62.465232 
L 241.118018 63.449912 
L 241.931281 67.174854 
L 242.744544 73.258645 
L 244.371069 89.94948 
L 245.997595 107.203408 
L 246.810858 113.92238 
L 247.624121 118.414932 
L 248.437384 120.192188 
L 249.250647 119.004177 
L 250.06391 114.864189 
L 250.877173 108.050332 
L 251.690435 99.084043 
L 254.943487 57.793888 
L 255.75675 50.574244 
L 256.570013 46.124082 
L 257.383276 44.886921 
L 258.196539 47.045757 
L 259.009801 52.505065 
L 259.823064 60.896256 
L 260.636327 71.606223 
L 263.889379 119.992593 
L 264.702642 128.75876 
L 265.515905 134.61989 
L 266.329167 137.136008 
L 267.14243 136.136916 
L 267.955693 131.735383 
L 268.768956 124.31667 
L 269.582219 114.505302 
L 272.835271 68.840384 
L 273.648533 60.398043 
L 274.461796 54.628935 
L 275.275059 51.9218 
L 276.088322 52.40025 
L 276.901585 55.915477 
L 277.714848 62.062264 
L 278.528111 70.216828 
L 280.967899 98.483252 
L 281.781162 106.274235 
L 282.594425 111.992133 
L 283.407688 115.139119 
L 284.220951 115.456231 
L 285.034214 112.945213 
L 285.847477 107.867491 
L 286.66074 100.720385 
L 289.913791 66.723672 
L 290.727054 61.047975 
L 291.540317 57.894703 
L 292.35358 57.638087 
L 293.166843 60.397908 
L 293.980106 66.02627 
L 294.793369 74.117579 
L 296.419894 94.992238 
L 298.04642 116.310543 
L 298.859683 124.851675 
L 299.672946 130.925297 
L 300.486209 133.965104 
L 301.299472 133.648088 
L 302.112735 129.924091 
L 302.925997 123.022447 
L 303.73926 113.435068 
L 305.365786 89.230198 
L 306.992312 64.577824 
L 307.805575 54.479706 
L 308.618838 46.949288 
L 309.432101 42.554956 
L 310.245363 41.611347 
L 311.058626 44.154292 
L 311.871889 49.939118 
L 312.685152 58.462404 
L 314.311678 80.694779 
L 315.938204 103.699237 
L 316.751467 113.186225 
L 317.564729 120.315905 
L 318.377992 124.576878 
L 319.191255 125.709493 
L 320.004518 123.724872 
L 320.817781 118.900675 
L 321.631044 111.754063 
L 323.25757 93.458994 
L 324.884095 75.604336 
L 325.697358 68.91878 
L 326.510621 64.582335 
L 327.323884 62.97443 
L 328.137147 64.222145 
L 328.95041 68.189655 
L 329.763673 74.490737 
L 331.390199 91.522504 
L 333.016724 108.965403 
L 333.829987 115.712991 
L 334.64325 120.186566 
L 335.456513 121.895515 
L 336.269776 120.589239 
L 337.083039 116.281769 
L 337.896302 109.253532 
L 338.709565 100.030039 
L 341.962616 57.427423 
L 342.775879 49.858823 
L 343.589142 45.075252 
L 344.402405 43.532818 
L 345.215668 45.42657 
L 346.028931 50.671896 
L 346.842193 58.909409 
L 347.655456 69.532975 
L 350.908508 118.289037 
L 351.721771 127.311114 
L 352.535034 133.47767 
L 353.348297 136.336874 
L 354.161559 135.705274 
L 354.974822 131.681635 
L 355.788085 124.637131 
L 356.601348 115.182766 
L 359.8544 70.553803 
L 360.667663 62.235391 
L 361.480925 56.529579 
L 362.294188 53.825853 
L 363.107451 54.250576 
L 363.920714 57.659363 
L 364.733977 63.652718 
L 365.54724 71.613497 
L 367.987029 99.129038 
L 368.800291 106.637495 
L 369.613554 112.068253 
L 370.426817 114.929806 
L 371.24008 114.969118 
L 372.053343 112.193517 
L 372.866606 106.869746 
L 373.679869 99.500252 
L 376.93292 64.947491 
L 377.746183 59.238176 
L 378.559446 56.10054 
L 379.372709 55.910869 
L 380.185972 58.789719 
L 380.999235 64.588421 
L 381.812498 72.89884 
L 383.439024 94.338231 
L 385.065549 116.337755 
L 385.878812 125.237256 
L 386.692075 131.66478 
L 387.505338 135.041056 
L 388.318601 135.030211 
L 389.131864 131.569934 
L 389.945127 124.878735 
L 390.75839 115.439602 
L 392.384915 91.32121 
L 394.011441 66.4651 
L 394.824704 56.163782 
L 395.637967 48.372323 
L 396.45123 43.669402 
L 397.264493 42.381761 
L 398.077756 44.558548 
L 398.891018 49.96897 
L 399.704281 58.123389 
L 401.330807 79.685623 
L 402.957333 102.179666 
L 403.770596 111.489831 
L 404.583859 118.500252 
L 405.397122 122.700663 
L 406.210384 123.830463 
L 407.023647 121.898008 
L 407.83691 117.176702 
L 408.650173 110.17832 
L 410.276699 92.290645 
L 411.903225 74.946638 
L 412.716488 68.538487 
L 413.52975 64.485706 
L 414.343013 63.161706 
L 415.156276 64.687771 
L 415.969539 68.92244 
L 416.782802 75.473938 
L 418.409328 92.934271 
L 420.035854 110.673217 
L 420.849116 117.506295 
L 421.662379 122.017719 
L 422.475642 123.713419 
L 423.288905 122.3405 
L 424.102168 117.912162 
L 424.915431 110.709734 
L 425.728694 101.261572 
L 428.981745 57.384153 
L 429.795008 49.45139 
L 430.608271 44.309807 
L 431.421534 42.428839 
L 432.234797 44.016597 
L 433.04806 49.000628 
L 433.861323 57.032185 
L 434.674586 67.513709 
L 437.927637 116.417747 
L 438.7409 125.649033 
L 439.554163 132.080871 
L 440.367426 135.250797 
L 441.180689 134.963095 
L 441.993952 131.303241 
L 442.807214 124.628743 
L 443.620477 115.537203 
L 446.873529 72.059571 
L 447.686792 63.912491 
L 448.500055 58.322207 
L 449.313318 55.677363 
L 450.12658 56.105382 
L 450.939843 59.464571 
L 451.753106 65.359437 
L 452.566369 73.177812 
L 455.006158 100.060576 
L 455.819421 107.309915 
L 456.632684 112.467577 
L 457.445946 115.047961 
L 458.259209 114.803827 
L 459.072472 111.748261 
L 459.885735 106.153789 
L 460.698998 98.52872 
L 463.95205 63.225001 
L 464.765312 57.425163 
L 465.578575 54.246316 
L 466.391838 54.068528 
L 467.205101 57.014795 
L 468.018364 62.937249 
L 468.831627 71.426634 
L 470.458153 93.374488 
L 472.084678 116.03631 
L 472.897941 125.299657 
L 473.711204 132.096415 
L 474.524467 135.833891 
L 475.33773 136.162596 
L 476.150993 133.007057 
L 476.964256 126.57371 
L 477.777519 117.335169 
L 479.404044 93.416265 
L 481.03057 68.46895 
L 481.843833 58.016196 
L 482.657096 50.010309 
L 483.470359 45.038836 
L 484.283622 43.439403 
L 485.096885 45.273497 
L 485.910148 50.323492 
L 486.72341 58.113118 
L 488.349936 78.983501 
L 489.976462 100.908375 
L 490.789725 110.000544 
L 491.602988 116.844273 
L 492.416251 120.931879 
L 493.229514 122.003403 
L 494.042776 120.066117 
L 494.856039 115.390899 
L 495.669302 108.485856 
L 497.295828 90.908045 
L 498.109091 81.940869 
L 498.109091 81.940869 
" clip-path="url(#p22864c2e8b)" style="fill: none; stroke: #ff0000; stroke-linecap: square"/>
   </g>
   <g id="line2d_5">
    <path d="M 92.290909 137.789556 
L 93.104172 138.338182 
L 93.917435 134.726454 
L 94.730698 127.894517 
L 95.543961 118.782514 
L 98.797012 77.757612 
L 99.610275 69.972012 
L 100.423538 64.247924 
L 101.236801 61.109938 
L 102.050064 61.0864 
L 102.863327 64.420883 
L 103.67659 70.217852 
L 106.929641 97.930479 
L 107.742904 103.098795 
L 108.556167 106.517825 
L 109.36943 107.539956 
L 110.182693 105.781736 
L 110.995956 101.916365 
L 112.622481 91.342077 
L 113.435744 84.878617 
L 114.249007 76.798925 
L 116.688796 47.764622 
L 117.502059 42.104603 
L 118.315322 39.501818 
L 119.128584 39.516543 
L 119.941847 41.822592 
L 120.75511 46.547935 
L 121.568373 53.93408 
L 122.381636 63.968142 
L 125.634688 109.15905 
L 127.261213 126.823324 
L 128.074476 133.153102 
L 128.887739 136.487927 
L 129.701002 136.109886 
L 130.514265 132.584645 
L 131.327528 126.798757 
L 132.140791 119.549242 
L 133.767316 102.325227 
L 137.020368 66.346045 
L 137.833631 59.002402 
L 138.646894 54.563094 
L 139.460157 55.136095 
L 140.27342 61.655993 
L 141.086682 70.363829 
L 141.899945 77.364896 
L 145.152997 100.037195 
L 145.96626 103.794452 
L 146.779523 104.511158 
L 147.592786 102.648945 
L 148.406048 99.066692 
L 150.032574 89.982045 
L 151.6591 79.435389 
L 153.285626 67.154134 
L 154.098889 62.647027 
L 154.912152 60.485611 
L 155.725414 60.036646 
L 156.538677 60.296125 
L 157.35194 60.811871 
L 158.165203 63.339017 
L 158.978466 70.184523 
L 161.418255 107.272616 
L 162.231518 115.585081 
L 163.04478 121.904365 
L 163.858043 126.82186 
L 164.671306 130.056006 
L 165.484569 131.107007 
L 166.297832 129.475067 
L 167.111095 124.905563 
L 167.924358 118.124579 
L 169.550884 101.629338 
L 171.177409 83.346918 
L 172.803935 64.611311 
L 173.617198 58.051479 
L 174.430461 54.911753 
L 175.243724 54.308529 
L 176.056987 54.877097 
L 176.87025 55.796924 
L 177.683512 58.424186 
L 178.496775 64.65924 
L 180.123301 85.916971 
L 180.936564 92.623826 
L 181.749827 95.663689 
L 182.56309 96.516464 
L 183.376353 96.662054 
L 184.189616 97.154287 
L 185.002878 97.342686 
L 185.816141 96.1507 
L 186.629404 92.803745 
L 187.442667 87.735106 
L 189.882456 69.63111 
L 190.695719 65.217081 
L 191.508982 62.697116 
L 192.322244 61.669095 
L 193.135507 61.491499 
L 193.94877 62.04225 
L 194.762033 65.277047 
L 195.575296 73.67103 
L 197.201822 103.415916 
L 198.015085 114.070953 
L 198.828348 120.436071 
L 199.64161 124.268549 
L 200.454873 126.916214 
L 201.268136 128.089077 
L 202.081399 127.087698 
L 202.894662 123.212636 
L 203.707925 116.122589 
L 207.774239 70.78221 
L 208.587502 63.200151 
L 209.400765 56.741557 
L 210.214028 52.087891 
L 211.027291 49.751491 
L 211.840554 49.568178 
L 212.653817 51.204643 
L 213.46708 54.517091 
L 214.280343 60.119782 
L 215.093605 68.816484 
L 216.720131 91.993455 
L 217.533394 99.738059 
L 218.346657 104.013853 
L 219.15992 105.917037 
L 219.973183 106.543811 
L 220.786446 106.729018 
L 221.599709 106.262079 
L 222.412971 104.671059 
L 223.226234 101.619292 
L 224.039497 97.311188 
L 225.666023 86.340017 
L 227.292549 75.80278 
L 228.105812 72.250263 
L 228.919075 70.177586 
L 229.732337 69.626682 
L 230.5456 70.661084 
L 231.358863 73.430739 
L 232.172126 78.107196 
L 232.985389 84.646631 
L 234.611915 99.477824 
L 235.425178 105.698348 
L 236.238441 110.535279 
L 237.051703 113.88872 
L 237.864966 115.611263 
L 238.678229 115.365471 
L 239.491492 112.766396 
L 240.304755 107.632482 
L 241.118018 100.595729 
L 244.371069 68.418026 
L 245.184332 61.970361 
L 245.997595 56.607567 
L 246.810858 52.280479 
L 247.624121 49.052586 
L 248.437384 47.437994 
L 249.250647 48.063466 
L 250.06391 51.340254 
L 250.877173 56.81757 
L 251.690435 63.829119 
L 253.316961 80.788828 
L 255.75675 111.629342 
L 256.570013 119.135083 
L 257.383276 122.663368 
L 258.196539 122.475964 
L 259.009801 119.25462 
L 259.823064 113.70316 
L 261.44959 98.800445 
L 263.076116 83.443684 
L 264.702642 70.192659 
L 265.515905 65.624186 
L 266.329167 63.649813 
L 267.14243 64.870977 
L 267.955693 68.502379 
L 269.582219 78.685575 
L 271.208745 90.366419 
L 272.022008 96.815076 
L 272.835271 102.268226 
L 273.648533 105.062876 
L 274.461796 104.065735 
L 275.275059 100.262317 
L 278.528111 79.302569 
L 280.154637 67.760781 
L 280.967899 63.091972 
L 281.781162 60.015422 
L 282.594425 58.432822 
L 283.407688 58.071402 
L 284.220951 58.759159 
L 285.034214 60.727168 
L 285.847477 64.307268 
L 286.66074 69.689269 
L 288.287265 84.203602 
L 290.727054 108.04467 
L 291.540317 114.849601 
L 292.35358 120.417026 
L 293.166843 124.354882 
L 293.980106 126.265636 
L 294.793369 125.729882 
L 295.606631 122.322746 
L 296.419894 115.901022 
L 298.04642 98.229322 
L 299.672946 81.429739 
L 300.486209 74.833199 
L 301.299472 69.955894 
L 302.112735 66.992839 
L 302.925997 66.093688 
L 303.73926 67.241119 
L 304.552523 69.749909 
L 306.992312 78.777771 
L 307.805575 82.616411 
L 310.245363 96.927693 
L 311.058626 99.596243 
L 311.871889 100.078734 
L 312.685152 97.970324 
L 313.498415 93.152942 
L 315.938204 73.677221 
L 316.751467 68.58728 
L 317.564729 64.599471 
L 318.377992 61.832211 
L 319.191255 60.576407 
L 320.004518 61.166092 
L 320.817781 63.749904 
L 321.631044 67.734923 
L 323.25757 77.079573 
L 324.070833 82.588017 
L 324.884095 89.795295 
L 327.323884 117.554533 
L 328.137147 123.020318 
L 328.95041 125.702334 
L 329.763673 126.294044 
L 330.576936 125.263129 
L 331.390199 122.174129 
L 332.203461 116.3658 
L 333.016724 107.594403 
L 334.64325 87.28501 
L 335.456513 79.032483 
L 336.269776 72.361954 
L 337.896302 61.709169 
L 338.709565 57.893444 
L 339.522827 55.992779 
L 340.33609 56.504916 
L 341.149353 58.977365 
L 341.962616 62.720078 
L 343.589142 72.109447 
L 346.028931 88.67991 
L 346.842193 92.909908 
L 347.655456 95.36415 
L 348.468719 96.103737 
L 349.281982 95.360425 
L 350.095245 93.32307 
L 350.908508 90.008923 
L 351.721771 85.392335 
L 354.161559 68.225438 
L 354.974822 64.499431 
L 355.788085 62.621043 
L 356.601348 62.673591 
L 357.414611 64.741435 
L 358.227874 68.913098 
L 359.041137 75.278144 
L 360.667663 93.311672 
L 362.294188 111.496198 
L 363.107451 118.492495 
L 363.920714 123.438429 
L 364.733977 125.938589 
L 365.54724 125.862572 
L 366.360503 123.146226 
L 367.173766 117.826534 
L 367.987029 110.345015 
L 369.613554 91.110867 
L 371.24008 70.835338 
L 372.053343 62.230709 
L 372.866606 55.332349 
L 373.679869 50.507341 
L 374.493132 48.022579 
L 375.306395 47.744198 
L 376.119657 49.438146 
L 376.93292 52.871167 
L 377.746183 57.813202 
L 378.559446 64.034989 
L 380.999235 85.299362 
L 381.812498 90.739602 
L 382.625761 95.102789 
L 384.252286 102.118218 
L 385.065549 104.692162 
L 385.878812 106.032457 
L 386.692075 105.772089 
L 387.505338 104.061827 
L 388.318601 101.181886 
L 389.131864 97.412483 
L 389.945127 92.981065 
L 391.571652 82.144903 
L 392.384915 76.079476 
L 393.198178 71.731868 
L 394.011441 70.940266 
L 394.824704 73.150583 
L 395.637967 77.210665 
L 398.891018 96.866488 
L 399.704281 100.780354 
L 400.517544 103.933912 
L 401.330807 106.185827 
L 402.14407 107.282501 
L 402.957333 106.942269 
L 403.770596 104.957546 
L 404.583859 101.417051 
L 405.397122 96.48358 
L 406.210384 90.319932 
L 408.650173 68.78992 
L 409.463436 62.970012 
L 410.276699 58.649904 
L 411.089962 56.099035 
L 411.903225 55.59904 
L 412.716488 57.480356 
L 413.52975 61.857296 
L 415.156276 74.673816 
L 417.596065 95.254169 
L 419.222591 110.569266 
L 420.035854 116.09352 
L 420.849116 118.641338 
L 421.662379 118.560726 
L 422.475642 116.555851 
L 423.288905 113.330879 
L 424.102168 109.428836 
L 424.915431 104.748182 
L 425.728694 99.026238 
L 428.168482 78.127118 
L 428.981745 72.670965 
L 429.795008 69.50407 
L 430.608271 69.580195 
L 431.421534 73.216065 
L 432.234797 78.180246 
L 433.861323 85.774473 
L 434.674586 89.75545 
L 436.301111 99.821089 
L 437.114374 103.429198 
L 437.927637 104.538262 
L 438.7409 103.570828 
L 439.554163 101.322263 
L 441.180689 95.882916 
L 441.993952 92.601112 
L 442.807214 87.856133 
L 445.247003 68.006286 
L 446.060266 64.567578 
L 446.873529 63.1654 
L 447.686792 62.826333 
L 448.500055 62.915791 
L 449.313318 64.154526 
L 450.12658 67.388023 
L 450.939843 72.605354 
L 451.753106 79.58149 
L 455.006158 111.952267 
L 455.819421 117.266096 
L 456.632684 121.114091 
L 457.445946 123.506994 
L 458.259209 124.192431 
L 459.072472 122.852247 
L 459.885735 119.168288 
L 460.698998 113.075453 
L 463.138787 90.555066 
L 465.578575 70.716431 
L 466.391838 65.093631 
L 467.205101 61.836829 
L 468.018364 61.877596 
L 468.831627 64.426806 
L 469.64489 68.43662 
L 470.458153 73.545049 
L 473.711204 97.140204 
L 474.524467 99.627358 
L 475.33773 99.968583 
L 476.150993 98.548089 
L 476.964256 95.756032 
L 477.777519 92.006356 
L 481.03057 75.133154 
L 482.657096 67.623349 
L 483.470359 65.58067 
L 484.283622 66.691375 
L 485.096885 71.598009 
L 485.910148 77.197383 
L 486.72341 80.511085 
L 487.536673 82.805545 
L 488.349936 86.408403 
L 489.163199 92.891299 
L 490.789725 107.931773 
L 491.602988 112.578532 
L 492.416251 115.063283 
L 493.229514 116.213058 
L 494.042776 116.605329 
L 494.856039 115.81934 
L 495.669302 113.184777 
L 496.482565 108.263985 
L 497.295828 101.549945 
L 498.109091 93.7683 
L 498.109091 93.7683 
" clip-path="url(#p22864c2e8b)" style="fill: none; stroke-dasharray: 3.7,1.6; stroke-dashoffset: 0; stroke: #8b0000"/>
   </g>
   <g id="patch_3">
    <path d="M 72 143.28 
L 72 34.56 
" style="fill: none; stroke: #000000; stroke-width: 0.8; stroke-linejoin: miter; stroke-linecap: square"/>
   </g>
   <g id="patch_4">
    <path d="M 518.4 143.28 
L 518.4 34.56 
" style="fill: none; stroke: #000000; stroke-width: 0.8; stroke-linejoin: miter; stroke-linecap: square"/>
   </g>
   <g id="patch_5">
    <path d="M 72 143.28 
L 518.4 143.28 
" style="fill: none; stroke: #000000; stroke-width: 0.8; stroke-linejoin: miter; stroke-linecap: square"/>
   </g>
   <g id="patch_6">
    <path d="M 72 34.56 
L 518.4 34.56 
" style="fill: none; stroke: #000000; stroke-width: 0.8; stroke-linejoin: miter; stroke-linecap: square"/>
   </g>
   <g id="legend_1">
    <g id="patch_7">
     <path d="M 403.061945 81.196624 
L 509.3 81.196624 
Q 511.9 81.196624 511.9 78.596624 
L 511.9 43.66 
Q 511.9 41.06 509.3 41.06 
L 403.061945 41.06 
Q 400.461945 41.06 400.461945 43.66 
L 400.461945 78.596624 
Q 400.461945 81.196624 403.061945 81.196624 
z
" style="fill: #ffffff; opacity: 0.8; stroke: #cccccc; stroke-linejoin: miter"/>
    </g>
    <g id="line2d_6">
     <path d="M 405.661945 50.81 
L 418.661945 50.81 
L 431.661945 50.81 
" style="fill: none; stroke: #ff0000; stroke-linecap: square"/>
    </g>
    <g id="text_5">
     <!-- MCMC -->
     <g transform="translate(442.061945 55.36)scale(0.13 -0.13)">
      <defs>
       <path id="CMR17-4d" d="M 1338 4224 
C 1299 4320 1293 4320 1158 4320 
L 339 4320 
L 339 4160 
C 781 4160 851 4160 851 3875 
L 851 610 
C 851 451 851 153 339 153 
L 339 -13 
C 486 0 755 0 915 0 
C 1075 0 1344 0 1491 -13 
L 1491 153 
C 979 153 979 451 979 610 
L 979 4135 
L 986 4135 
L 2490 89 
C 2515 25 2528 -13 2579 -13 
C 2630 -13 2643 25 2669 89 
L 4186 4166 
L 4192 4166 
L 4192 438 
C 4192 153 4122 153 3680 153 
L 3680 -13 
C 3853 0 4198 0 4384 0 
C 4570 0 4922 0 5094 -13 
L 5094 153 
C 4653 153 4582 153 4582 438 
L 4582 3875 
C 4582 4160 4653 4160 5094 4160 
L 5094 4320 
L 4282 4320 
C 4147 4320 4141 4314 4102 4218 
L 2720 502 
L 1338 4224 
z
" transform="scale(0.015625)"/>
       <path id="CMR17-43" d="M 3974 4289 
C 3974 4403 3968 4410 3930 4410 
C 3904 4410 3898 4403 3853 4327 
L 3571 3792 
C 3258 4187 2874 4416 2381 4416 
C 1286 4416 294 3456 294 2148 
C 294 826 1286 -128 2387 -128 
C 3366 -128 3974 730 3974 1461 
C 3974 1524 3974 1550 3917 1550 
C 3866 1550 3866 1531 3859 1474 
C 3808 585 3168 38 2477 38 
C 1824 38 781 495 781 2147 
C 781 3805 1843 4250 2464 4250 
C 3187 4250 3712 3628 3834 2745 
C 3846 2668 3846 2655 3904 2655 
C 3974 2655 3974 2668 3974 2783 
L 3974 4289 
z
" transform="scale(0.015625)"/>
      </defs>
      <use xlink:href="#CMR17-4d" transform="scale(0.996264)"/>
      <use xlink:href="#CMR17-43" transform="translate(84.686941 0)scale(0.996264)"/>
      <use xlink:href="#CMR17-4d" transform="translate(151.196821 0)scale(0.996264)"/>
      <use xlink:href="#CMR17-43" transform="translate(235.883762 0)scale(0.996264)"/>
     </g>
    </g>
    <g id="line2d_7">
     <path d="M 405.661945 68.928312 
L 418.661945 68.928312 
L 431.661945 68.928312 
" style="fill: none; stroke-dasharray: 3.7,1.6; stroke-dashoffset: 0; stroke: #8b0000"/>
    </g>
    <g id="text_6">
     <!-- Experiment -->
     <g transform="translate(442.061945 73.478312)scale(0.13 -0.13)">
      <defs>
       <path id="CMR17-45" d="M 3885 1615 
L 3770 1615 
C 3629 676 3546 166 2419 166 
L 1530 166 
C 1274 166 1261 197 1261 414 
L 1261 2176 
L 1862 2176 
C 2464 2176 2522 1960 2522 1430 
L 2637 1430 
L 2637 3081 
L 2522 3081 
C 2522 2557 2464 2342 1862 2342 
L 1261 2342 
L 1261 3913 
C 1261 4128 1274 4160 1530 4160 
L 2406 4160 
C 3398 4160 3514 3769 3603 2929 
L 3718 2929 
L 3565 4325 
L 326 4325 
L 326 4160 
C 768 4160 838 4160 838 3874 
L 838 451 
C 838 166 768 166 326 166 
L 326 0 
L 3654 0 
L 3885 1615 
z
" transform="scale(0.015625)"/>
       <path id="CMR17-78" d="M 1664 1477 
C 1856 1726 2074 2006 2253 2216 
C 2464 2458 2707 2560 2989 2560 
L 2989 2726 
C 2880 2726 2656 2726 2541 2726 
C 2368 2726 2170 2726 2022 2732 
L 2022 2566 
C 2112 2553 2163 2489 2163 2400 
C 2163 2285 2099 2215 2067 2171 
L 1594 1573 
L 1030 2306 
C 973 2376 973 2388 973 2420 
C 973 2497 1037 2560 1146 2560 
L 1146 2732 
C 992 2726 717 2726 557 2726 
C 384 2726 179 2726 38 2732 
L 38 2560 
C 384 2560 461 2534 614 2343 
L 1350 1395 
C 1363 1382 1395 1344 1395 1325 
C 1395 1299 838 619 768 530 
C 480 185 179 160 6 160 
L 6 0 
C 115 0 339 0 454 0 
C 582 0 864 0 979 -6 
L 979 160 
C 941 166 838 179 838 325 
C 838 440 890 510 947 586 
L 1478 1236 
L 2035 512 
C 2086 442 2163 346 2163 301 
C 2163 211 2086 160 1984 160 
L 1984 -6 
C 2138 0 2413 0 2573 0 
C 2746 0 2950 0 3091 -6 
L 3091 160 
C 2771 160 2675 172 2522 370 
L 1664 1477 
z
" transform="scale(0.015625)"/>
       <path id="CMR17-72" d="M 960 1497 
C 960 2112 1222 2688 1702 2688 
C 1747 2688 1792 2682 1837 2662 
C 1837 2662 1696 2617 1696 2452 
C 1696 2298 1818 2234 1914 2234 
C 1990 2234 2131 2279 2131 2458 
C 2131 2663 1926 2790 1709 2790 
C 1222 2790 1011 2317 947 2093 
L 941 2093 
L 941 2790 
L 198 2720 
L 198 2554 
C 576 2554 634 2515 634 2208 
L 634 428 
C 634 184 608 153 198 153 
L 198 -13 
C 352 0 646 0 813 0 
C 998 0 1325 0 1498 -13 
L 1498 153 
C 1037 153 960 153 960 440 
L 960 1497 
z
" transform="scale(0.015625)"/>
      </defs>
      <use xlink:href="#CMR17-45" transform="scale(0.996264)"/>
      <use xlink:href="#CMR17-78" transform="translate(62.586301 0)scale(0.996264)"/>
      <use xlink:href="#CMR17-70" transform="translate(110.879216 0)scale(0.996264)"/>
      <use xlink:href="#CMR17-65" transform="translate(164.377025 0)scale(0.996264)"/>
      <use xlink:href="#CMR17-72" transform="translate(204.862685 0)scale(0.996264)"/>
      <use xlink:href="#CMR17-69" transform="translate(240.143453 0)scale(0.996264)"/>
      <use xlink:href="#CMR17-6d" transform="translate(265.014512 0)scale(0.996264)"/>
      <use xlink:href="#CMR17-65" transform="translate(341.934101 0)scale(0.996264)"/>
      <use xlink:href="#CMR17-6e" transform="translate(382.419762 0)scale(0.996264)"/>
      <use xlink:href="#CMR17-74" transform="translate(430.712678 0)scale(0.996264)"/>
     </g>
    </g>
   </g>
  </g>
  <g id="axes_2">
   <g id="patch_8">
    <path d="M 72 252 
L 518.4 252 
L 518.4 143.28 
L 72 143.28 
z
" style="fill: #ffffff"/>
   </g>
   <g id="matplotlib.axis_3">
    <g id="xtick_1">
     <g id="line2d_8">
      <defs>
       <path id="m712e57947d" d="M 0 0 
L 0 3.5 
" style="stroke: #000000; stroke-width: 0.8"/>
      </defs>
      <g>
       <use xlink:href="#m712e57947d" x="92.290909" y="252" style="stroke: #000000; stroke-width: 0.8"/>
      </g>
     </g>
     <g id="text_7">
      <!-- $\mathdefault{0}$ -->
      <g transform="translate(89.120539 267.994028)scale(0.13 -0.13)">
       <use xlink:href="#CMR17-30" transform="scale(0.996264)"/>
      </g>
     </g>
    </g>
    <g id="xtick_2">
     <g id="line2d_9">
      <g>
       <use xlink:href="#m712e57947d" x="173.617198" y="252" style="stroke: #000000; stroke-width: 0.8"/>
      </g>
     </g>
     <g id="text_8">
      <!-- $\mathdefault{1}$ -->
      <g transform="translate(170.446828 267.994028)scale(0.13 -0.13)">
       <defs>
        <path id="CMR17-31" d="M 1702 4058 
C 1702 4192 1696 4192 1606 4192 
C 1357 3916 979 3827 621 3827 
C 602 3827 570 3827 563 3808 
C 557 3795 557 3782 557 3648 
C 755 3648 1088 3686 1344 3839 
L 1344 461 
C 1344 236 1331 160 781 160 
L 589 160 
L 589 0 
C 896 0 1216 0 1523 0 
C 1830 0 2150 0 2458 0 
L 2458 160 
L 2266 160 
C 1715 160 1702 230 1702 458 
L 1702 4058 
z
" transform="scale(0.015625)"/>
       </defs>
       <use xlink:href="#CMR17-31" transform="scale(0.996264)"/>
      </g>
     </g>
    </g>
    <g id="xtick_3">
     <g id="line2d_10">
      <g>
       <use xlink:href="#m712e57947d" x="254.943487" y="252" style="stroke: #000000; stroke-width: 0.8"/>
      </g>
     </g>
     <g id="text_9">
      <!-- $\mathdefault{2}$ -->
      <g transform="translate(251.773117 267.994028)scale(0.13 -0.13)">
       <use xlink:href="#CMR17-32" transform="scale(0.996264)"/>
      </g>
     </g>
    </g>
    <g id="xtick_4">
     <g id="line2d_11">
      <g>
       <use xlink:href="#m712e57947d" x="336.269776" y="252" style="stroke: #000000; stroke-width: 0.8"/>
      </g>
     </g>
     <g id="text_10">
      <!-- $\mathdefault{3}$ -->
      <g transform="translate(333.099406 267.994028)scale(0.13 -0.13)">
       <defs>
        <path id="CMR17-33" d="M 1414 2157 
C 1984 2157 2234 1662 2234 1090 
C 2234 320 1824 25 1453 25 
C 1114 25 563 194 390 693 
C 422 680 454 680 486 680 
C 640 680 755 782 755 948 
C 755 1133 614 1216 486 1216 
C 378 1216 211 1165 211 926 
C 211 335 787 -128 1466 -128 
C 2176 -128 2720 430 2720 1085 
C 2720 1707 2208 2157 1600 2227 
C 2086 2328 2554 2756 2554 3329 
C 2554 3820 2048 4179 1472 4179 
C 890 4179 378 3829 378 3329 
C 378 3110 544 3072 627 3072 
C 762 3072 877 3155 877 3321 
C 877 3486 762 3569 627 3569 
C 602 3569 570 3569 544 3557 
C 730 3959 1235 4032 1459 4032 
C 1683 4032 2106 3925 2106 3320 
C 2106 3143 2080 2828 1862 2550 
C 1670 2304 1453 2304 1242 2284 
C 1210 2284 1062 2269 1037 2269 
C 992 2263 966 2257 966 2208 
C 966 2163 973 2157 1101 2157 
L 1414 2157 
z
" transform="scale(0.015625)"/>
       </defs>
       <use xlink:href="#CMR17-33" transform="scale(0.996264)"/>
      </g>
     </g>
    </g>
    <g id="xtick_5">
     <g id="line2d_12">
      <g>
       <use xlink:href="#m712e57947d" x="417.596065" y="252" style="stroke: #000000; stroke-width: 0.8"/>
      </g>
     </g>
     <g id="text_11">
      <!-- $\mathdefault{4}$ -->
      <g transform="translate(414.425695 267.994028)scale(0.13 -0.13)">
       <defs>
        <path id="CMR17-34" d="M 2150 4122 
C 2150 4256 2144 4256 2029 4256 
L 128 1254 
L 128 1088 
L 1779 1088 
L 1779 457 
C 1779 224 1766 160 1318 160 
L 1197 160 
L 1197 0 
C 1402 0 1747 0 1965 0 
C 2182 0 2528 0 2733 0 
L 2733 160 
L 2611 160 
C 2163 160 2150 224 2150 457 
L 2150 1088 
L 2803 1088 
L 2803 1254 
L 2150 1254 
L 2150 4122 
z
M 1798 3703 
L 1798 1254 
L 256 1254 
L 1798 3703 
z
" transform="scale(0.015625)"/>
       </defs>
       <use xlink:href="#CMR17-34" transform="scale(0.996264)"/>
      </g>
     </g>
    </g>
    <g id="xtick_6">
     <g id="line2d_13">
      <g>
       <use xlink:href="#m712e57947d" x="498.922354" y="252" style="stroke: #000000; stroke-width: 0.8"/>
      </g>
     </g>
     <g id="text_12">
      <!-- $\mathdefault{5}$ -->
      <g transform="translate(495.751984 267.994028)scale(0.13 -0.13)">
       <defs>
        <path id="CMR17-35" d="M 730 3692 
C 794 3666 1056 3584 1325 3584 
C 1920 3584 2246 3911 2432 4100 
C 2432 4157 2432 4192 2394 4192 
C 2387 4192 2374 4192 2323 4163 
C 2099 4058 1837 3973 1517 3973 
C 1325 3973 1037 3999 723 4139 
C 653 4171 640 4171 634 4171 
C 602 4171 595 4164 595 4037 
L 595 2203 
C 595 2089 595 2057 659 2057 
C 691 2057 704 2070 736 2114 
C 941 2401 1222 2522 1542 2522 
C 1766 2522 2246 2382 2246 1289 
C 2246 1085 2246 715 2054 421 
C 1894 159 1645 25 1370 25 
C 947 25 518 320 403 814 
C 429 807 480 795 506 795 
C 589 795 749 840 749 1038 
C 749 1210 627 1280 506 1280 
C 358 1280 262 1190 262 1011 
C 262 454 704 -128 1382 -128 
C 2042 -128 2669 440 2669 1264 
C 2669 2030 2170 2624 1549 2624 
C 1222 2624 947 2503 730 2274 
L 730 3692 
z
" transform="scale(0.015625)"/>
       </defs>
       <use xlink:href="#CMR17-35" transform="scale(0.996264)"/>
      </g>
     </g>
    </g>
    <g id="text_13">
     <!-- time (sec) -->
     <g transform="translate(267.68824 284.225914)scale(0.13 -0.13)">
      <use xlink:href="#CMR17-74" transform="scale(0.996264)"/>
      <use xlink:href="#CMR17-69" transform="translate(35.280768 0)scale(0.996264)"/>
      <use xlink:href="#CMR17-6d" transform="translate(60.151826 0)scale(0.996264)"/>
      <use xlink:href="#CMR17-65" transform="translate(137.071416 0)scale(0.996264)"/>
      <use xlink:href="#CMR17-28" transform="translate(207.633043 0)scale(0.996264)"/>
      <use xlink:href="#CMR17-73" transform="translate(242.913811 0)scale(0.996264)"/>
      <use xlink:href="#CMR17-65" transform="translate(278.715148 0)scale(0.996264)"/>
      <use xlink:href="#CMR17-63" transform="translate(319.200809 0)scale(0.996264)"/>
      <use xlink:href="#CMR17-29" transform="translate(359.686469 0)scale(0.996264)"/>
     </g>
    </g>
   </g>
   <g id="matplotlib.axis_4">
    <g id="ytick_4">
     <g id="line2d_14">
      <g>
       <use xlink:href="#mea41808382" x="72" y="230.246078" style="stroke: #000000; stroke-width: 0.8"/>
      </g>
     </g>
     <g id="text_14">
      <!-- $\mathdefault{−0.02}$ -->
      <g transform="translate(32.381779 234.743092)scale(0.13 -0.13)">
       <use xlink:href="#CMSY10-0" transform="scale(0.996264)"/>
       <use xlink:href="#CMR17-30" transform="translate(77.487468 0)scale(0.996264)"/>
       <use xlink:href="#CMMI12-3a" transform="translate(123.177945 0)scale(0.996264)"/>
       <use xlink:href="#CMR17-30" transform="translate(150.275122 0)scale(0.996264)"/>
       <use xlink:href="#CMR17-32" transform="translate(195.965599 0)scale(0.996264)"/>
      </g>
     </g>
    </g>
    <g id="ytick_5">
     <g id="line2d_15">
      <g>
       <use xlink:href="#mea41808382" x="72" y="191.931485" style="stroke: #000000; stroke-width: 0.8"/>
      </g>
     </g>
     <g id="text_15">
      <!-- $\mathdefault{0.00}$ -->
      <g transform="translate(42.455149 196.428499)scale(0.13 -0.13)">
       <use xlink:href="#CMR17-30" transform="scale(0.996264)"/>
       <use xlink:href="#CMMI12-3a" transform="translate(45.690477 0)scale(0.996264)"/>
       <use xlink:href="#CMR17-30" transform="translate(72.787654 0)scale(0.996264)"/>
       <use xlink:href="#CMR17-30" transform="translate(118.478131 0)scale(0.996264)"/>
      </g>
     </g>
    </g>
    <g id="ytick_6">
     <g id="line2d_16">
      <g>
       <use xlink:href="#mea41808382" x="72" y="153.616891" style="stroke: #000000; stroke-width: 0.8"/>
      </g>
     </g>
     <g id="text_16">
      <!-- $\mathdefault{0.02}$ -->
      <g transform="translate(42.455149 158.113905)scale(0.13 -0.13)">
       <use xlink:href="#CMR17-30" transform="scale(0.996264)"/>
       <use xlink:href="#CMMI12-3a" transform="translate(45.690477 0)scale(0.996264)"/>
       <use xlink:href="#CMR17-30" transform="translate(72.787654 0)scale(0.996264)"/>
       <use xlink:href="#CMR17-32" transform="translate(118.478131 0)scale(0.996264)"/>
      </g>
     </g>
    </g>
    <g id="text_17">
     <!-- displacement (m) -->
     <g transform="translate(25.143921 245.759159)rotate(-90)scale(0.13 -0.13)">
      <use xlink:href="#CMR17-64" transform="scale(0.996264)"/>
      <use xlink:href="#CMR17-69" transform="translate(50.89537 0)scale(0.996264)"/>
      <use xlink:href="#CMR17-73" transform="translate(75.766428 0)scale(0.996264)"/>
      <use xlink:href="#CMR17-70" transform="translate(111.567766 0)scale(0.996264)"/>
      <use xlink:href="#CMR17-6c" transform="translate(162.463136 0)scale(0.996264)"/>
      <use xlink:href="#CMR17-61" transform="translate(187.334194 0)scale(0.996264)"/>
      <use xlink:href="#CMR17-63" transform="translate(233.024671 0)scale(0.996264)"/>
      <use xlink:href="#CMR17-65" transform="translate(273.510332 0)scale(0.996264)"/>
      <use xlink:href="#CMR17-6d" transform="translate(313.995992 0)scale(0.996264)"/>
      <use xlink:href="#CMR17-65" transform="translate(390.915582 0)scale(0.996264)"/>
      <use xlink:href="#CMR17-6e" transform="translate(431.401243 0)scale(0.996264)"/>
      <use xlink:href="#CMR17-74" transform="translate(479.694158 0)scale(0.996264)"/>
      <use xlink:href="#CMR17-28" transform="translate(545.050893 0)scale(0.996264)"/>
      <use xlink:href="#CMR17-6d" transform="translate(580.33166 0)scale(0.996264)"/>
      <use xlink:href="#CMR17-29" transform="translate(657.25125 0)scale(0.996264)"/>
     </g>
    </g>
   </g>
   <g id="line2d_17">
    <path d="M 92.290909 165.278905 
L 93.104172 166.652136 
L 93.917435 170.64725 
L 94.730698 176.901385 
L 96.357224 193.752059 
L 97.983749 211.156214 
L 98.797012 218.024056 
L 99.610275 222.740171 
L 100.423538 224.820099 
L 101.236801 224.004941 
L 102.050064 220.285971 
L 102.863327 213.907767 
L 103.67659 205.349525 
L 106.929641 164.491377 
L 107.742904 156.891711 
L 108.556167 151.831221 
L 109.36943 149.763972 
L 110.182693 150.90123 
L 110.995956 155.192339 
L 111.809218 162.327639 
L 112.622481 171.763214 
L 115.875533 216.330449 
L 116.688796 224.772714 
L 117.502059 230.638444 
L 118.315322 233.492265 
L 119.128584 233.147389 
L 119.941847 229.679852 
L 120.75511 223.420597 
L 121.568373 214.926113 
L 124.821425 174.548912 
L 125.634688 167.073371 
L 126.44795 162.023791 
L 127.261213 159.765603 
L 128.074476 160.418336 
L 128.887739 163.847631 
L 129.701002 169.679121 
L 130.514265 177.332925 
L 132.954054 203.526015 
L 133.767316 210.616594 
L 134.580579 215.704456 
L 135.393842 218.320066 
L 136.207105 218.218738 
L 137.020368 215.402207 
L 137.833631 210.118691 
L 138.646894 202.841431 
L 141.899945 168.420688 
L 142.713208 162.511388 
L 143.526471 159.039362 
L 144.339734 158.382635 
L 145.152997 160.678323 
L 145.96626 165.808435 
L 146.779523 173.407591 
L 148.406048 193.507606 
L 150.032574 214.649384 
L 150.845837 223.421678 
L 151.6591 229.965634 
L 152.472363 233.714061 
L 153.285626 234.325013 
L 154.098889 231.711695 
L 154.912152 226.050933 
L 155.725414 217.769473 
L 157.35194 196.074319 
L 158.978466 173.301113 
L 159.791729 163.749441 
L 160.604992 156.448458 
L 161.418255 151.949311 
L 162.231518 150.570533 
L 163.04478 152.37281 
L 163.858043 157.155528 
L 164.671306 164.47535 
L 166.297832 183.990189 
L 167.924358 204.383207 
L 168.737621 212.782198 
L 169.550884 219.041126 
L 170.364146 222.682101 
L 171.177409 223.460299 
L 171.990672 221.382884 
L 172.803935 216.706152 
L 173.617198 209.911215 
L 175.243724 192.737994 
L 176.87025 176.205069 
L 177.683512 170.132754 
L 178.496775 166.329986 
L 179.310038 165.15621 
L 180.123301 166.732604 
L 180.936564 170.931076 
L 181.749827 177.385019 
L 183.376353 194.607996 
L 185.002878 212.3167 
L 185.816141 219.29872 
L 186.629404 224.096838 
L 187.442667 226.221955 
L 188.25593 225.411277 
L 189.069193 221.653257 
L 189.882456 215.191042 
L 190.695719 206.504054 
L 193.94877 164.754013 
L 194.762033 156.87091 
L 195.575296 151.521635 
L 196.388559 149.171309 
L 197.201822 150.042396 
L 198.015085 154.095022 
L 198.828348 161.029328 
L 199.64161 170.309709 
L 203.707925 223.370543 
L 204.521188 229.406004 
L 205.334451 232.469969 
L 206.147714 232.366616 
L 206.960976 229.161966 
L 207.774239 223.176502 
L 208.587502 214.956335 
L 211.840554 175.5024 
L 212.653817 168.18101 
L 213.46708 163.247242 
L 214.280343 161.065499 
L 215.093605 161.755665 
L 215.906868 165.184881 
L 216.720131 170.981148 
L 217.533394 178.567554 
L 219.973183 204.399043 
L 220.786446 211.327321 
L 221.599709 216.237472 
L 222.412971 218.663128 
L 223.226234 218.362807 
L 224.039497 215.341602 
L 224.85276 209.851373 
L 225.666023 202.369399 
L 228.919075 167.246443 
L 229.732337 161.218018 
L 230.5456 157.660606 
L 231.358863 156.957185 
L 232.172126 159.248918 
L 232.985389 164.420619 
L 233.798652 172.108142 
L 235.425178 192.520944 
L 237.051703 214.129786 
L 237.864966 223.176058 
L 238.678229 230.008411 
L 239.491492 234.048847 
L 240.304755 234.944084 
L 241.118018 232.596014 
L 241.931281 227.170753 
L 242.744544 219.085482 
L 244.371069 197.635147 
L 245.997595 174.882818 
L 246.810858 165.256659 
L 247.624121 157.828977 
L 248.437384 153.156955 
L 249.250647 151.566926 
L 250.06391 153.128686 
L 250.877173 157.651534 
L 251.690435 164.702323 
L 253.316961 183.690775 
L 254.943487 203.629255 
L 255.75675 211.844095 
L 256.570013 217.953184 
L 257.383276 221.48087 
L 258.196539 222.183163 
L 259.009801 220.066846 
L 259.823064 215.386867 
L 260.636327 208.622277 
L 263.889379 175.320115 
L 264.702642 169.405281 
L 265.515905 165.776958 
L 266.329167 164.791714 
L 267.14243 166.567653 
L 267.955693 170.973282 
L 268.768956 177.638139 
L 270.395482 195.276033 
L 272.022008 213.354553 
L 272.835271 220.489533 
L 273.648533 225.411012 
L 274.461796 227.624009 
L 275.275059 226.860539 
L 276.088322 223.104935 
L 276.901585 216.59765 
L 277.714848 207.817143 
L 279.341374 186.291758 
L 280.967899 165.259694 
L 281.781162 157.096888 
L 282.594425 151.455028 
L 283.407688 148.810399 
L 284.220951 149.397003 
L 285.034214 153.186301 
L 285.847477 159.888998 
L 286.66074 168.978735 
L 288.287265 191.306408 
L 289.913791 213.238234 
L 290.727054 221.88246 
L 291.540317 228.048732 
L 292.35358 231.287756 
L 293.166843 231.395745 
L 293.980106 228.429623 
L 294.793369 222.700146 
L 295.606631 214.74358 
L 298.859683 176.243839 
L 299.672946 169.101538 
L 300.486209 164.31417 
L 301.299472 162.244177 
L 302.112735 163.010723 
L 302.925997 166.481263 
L 303.73926 172.284919 
L 305.365786 188.437905 
L 306.992312 205.430906 
L 307.805575 212.226891 
L 308.618838 216.98363 
L 309.432101 219.237193 
L 310.245363 218.748761 
L 311.058626 215.526455 
L 311.871889 209.825664 
L 312.685152 202.127816 
L 315.938204 166.194538 
L 316.751467 160.008153 
L 317.564729 156.323947 
L 318.377992 155.531102 
L 319.191255 157.776128 
L 320.004518 162.947939 
L 320.817781 170.684895 
L 322.444307 191.344892 
L 324.070833 213.378031 
L 324.884095 222.687228 
L 325.697358 229.804344 
L 326.510621 234.140695 
L 327.323884 235.33155 
L 328.137147 233.267148 
L 328.95041 228.102326 
L 329.763673 220.243939 
L 331.390199 199.113174 
L 333.016724 176.46648 
L 333.829987 166.80875 
L 334.64325 159.295889 
L 335.456513 154.489847 
L 336.269776 152.723573 
L 337.083039 154.074909 
L 337.896302 158.362153 
L 338.709565 165.161617 
L 340.33609 183.637531 
L 341.962616 203.10562 
L 342.775879 211.117736 
L 343.589142 217.05201 
L 344.402405 220.435797 
L 345.215668 221.026869 
L 346.028931 218.832705 
L 346.842193 214.108082 
L 347.655456 207.331241 
L 350.908508 174.276076 
L 351.721771 168.48875 
L 352.535034 165.010607 
L 353.348297 164.196073 
L 354.161559 166.160717 
L 354.974822 170.769977 
L 355.788085 177.649649 
L 357.414611 195.731876 
L 359.041137 214.235214 
L 359.8544 221.558307 
L 360.667663 226.642042 
L 361.480925 228.984377 
L 362.294188 228.310883 
L 363.107451 224.600474 
L 363.920714 218.089606 
L 364.733977 209.254506 
L 366.360503 187.468322 
L 367.987029 165.997784 
L 368.800291 157.566234 
L 369.613554 151.635317 
L 370.426817 148.692369 
L 371.24008 148.983047 
L 372.053343 152.490497 
L 372.866606 158.936553 
L 373.679869 167.804871 
L 375.306395 189.827004 
L 376.93292 211.667454 
L 377.746183 220.34899 
L 378.559446 226.6046 
L 379.372709 229.979893 
L 380.185972 230.264298 
L 380.999235 227.506699 
L 381.812498 222.009035 
L 382.625761 214.298452 
L 385.878812 176.755206 
L 386.692075 169.810615 
L 387.505338 165.194657 
L 388.318601 163.267048 
L 389.131864 164.145299 
L 389.945127 167.696111 
L 390.75839 173.548547 
L 392.384915 189.706657 
L 394.011441 206.587355 
L 394.824704 213.285804 
L 395.637967 217.919076 
L 396.45123 220.024777 
L 397.264493 219.366018 
L 398.077756 215.953407 
L 398.891018 210.045533 
L 399.704281 202.127855 
L 402.957333 165.299576 
L 403.770596 158.920011 
L 404.583859 155.070059 
L 405.397122 154.14628 
L 406.210384 156.30179 
L 407.023647 161.430909 
L 407.83691 169.175803 
L 409.463436 190.00894 
L 411.089962 212.411584 
L 411.903225 221.965745 
L 412.716488 229.356766 
L 413.52975 233.985612 
L 414.343013 235.476213 
L 415.156276 233.707028 
L 415.969539 228.821269 
L 416.782802 221.214887 
L 418.409328 200.470167 
L 420.035854 178.010199 
L 420.849116 168.363875 
L 421.662379 160.80869 
L 422.475642 155.910049 
L 423.288905 154.006254 
L 424.102168 155.182014 
L 424.915431 159.263572 
L 425.728694 165.835797 
L 427.35522 183.827155 
L 428.981745 202.82353 
L 429.795008 210.621212 
L 430.608271 216.362008 
L 431.421534 219.576853 
L 432.234797 220.026049 
L 433.04806 217.718698 
L 433.861323 212.91048 
L 434.674586 206.080002 
L 437.927637 173.107159 
L 438.7409 167.412606 
L 439.554163 164.054726 
L 440.367426 163.386702 
L 441.180689 165.522305 
L 441.993952 170.324445 
L 442.807214 177.415506 
L 444.43374 195.957419 
L 446.060266 214.928696 
L 446.873529 222.470397 
L 447.686792 227.751677 
L 448.500055 230.262366 
L 449.313318 229.72041 
L 450.12658 226.098044 
L 450.939843 219.626418 
L 451.753106 210.778223 
L 453.379632 188.805241 
L 455.006158 166.950887 
L 455.819421 158.268461 
L 456.632684 152.059244 
L 457.445946 148.821288 
L 458.259209 148.811801 
L 459.072472 152.025744 
L 459.885735 158.196438 
L 460.698998 166.818131 
L 462.325524 188.46813 
L 463.95205 210.136077 
L 464.765312 218.811962 
L 465.578575 225.114093 
L 466.391838 228.584288 
L 467.205101 229.006451 
L 468.018364 226.422605 
L 468.831627 221.126918 
L 469.64489 213.638319 
L 472.897941 177.025202 
L 473.711204 170.290082 
L 474.524467 165.864238 
L 475.33773 164.104084 
L 476.150993 165.124718 
L 476.964256 168.791155 
L 477.777519 174.731329 
L 479.404044 190.978526 
L 481.03057 207.830498 
L 481.843833 214.469898 
L 482.657096 219.014417 
L 483.470359 221.00215 
L 484.283622 220.197231 
L 485.096885 216.612022 
L 485.910148 210.50777 
L 486.72341 202.373634 
L 489.976462 164.591598 
L 490.789725 157.988283 
L 491.602988 153.937222 
L 492.416251 152.843429 
L 493.229514 154.867809 
L 494.042776 159.91135 
L 494.856039 167.621337 
L 496.482565 188.54724 
L 498.109091 211.254158 
L 498.109091 211.254158 
" clip-path="url(#pec30ef10f7)" style="fill: none; stroke: #0000ff; stroke-linecap: square"/>
   </g>
   <g id="line2d_18">
    <path d="M 92.290909 165.278905 
L 93.104172 170.3408 
L 93.917435 177.764017 
L 95.543961 197.480468 
L 97.983749 230.786524 
L 98.797012 239.765022 
L 99.610275 245.534295 
L 100.423538 247.058182 
L 101.236801 244.762085 
L 102.050064 239.436801 
L 102.863327 231.799648 
L 103.67659 222.274034 
L 105.303115 199.12448 
L 106.929641 176.803387 
L 107.742904 168.975419 
L 108.556167 163.574081 
L 109.36943 160.152959 
L 110.182693 158.365783 
L 110.995956 158.266862 
L 111.809218 160.010648 
L 112.622481 163.724047 
L 113.435744 169.423764 
L 114.249007 177.098957 
L 116.688796 204.450104 
L 117.502059 210.152878 
L 118.315322 213.586508 
L 119.128584 215.495654 
L 119.941847 216.373849 
L 120.75511 215.710146 
L 121.568373 212.742476 
L 122.381636 207.137817 
L 124.008162 193.979272 
L 124.821425 189.507955 
L 125.634688 185.968244 
L 126.44795 181.921122 
L 128.074476 171.992047 
L 128.887739 170.71684 
L 129.701002 174.560765 
L 132.954054 203.429496 
L 133.767316 209.912117 
L 134.580579 217.449698 
L 136.207105 235.230228 
L 137.020368 241.675468 
L 137.833631 243.873893 
L 138.646894 240.94585 
L 139.460157 232.266499 
L 141.899945 189.340542 
L 142.713208 179.100581 
L 143.526471 171.302506 
L 144.339734 165.485357 
L 145.152997 161.217121 
L 145.96626 158.073024 
L 146.779523 155.8179 
L 147.592786 154.975006 
L 148.406048 156.257209 
L 149.219311 160.377373 
L 150.032574 167.668347 
L 152.472363 195.480632 
L 154.098889 210.8158 
L 154.912152 217.66901 
L 155.725414 223.372048 
L 156.538677 227.104976 
L 157.35194 228.074334 
L 158.165203 225.592592 
L 158.978466 218.998702 
L 161.418255 188.743229 
L 162.231518 182.632404 
L 163.858043 173.400803 
L 164.671306 170.081279 
L 165.484569 168.768114 
L 166.297832 170.40485 
L 167.111095 175.447366 
L 168.737621 189.282998 
L 171.177409 205.260183 
L 172.803935 219.888442 
L 173.617198 224.182119 
L 174.430461 223.815003 
L 176.056987 216.8914 
L 176.87025 214.415198 
L 177.683512 210.054915 
L 178.496775 199.649832 
L 180.123301 162.840455 
L 180.936564 151.888333 
L 181.749827 148.221818 
L 182.56309 149.48638 
L 183.376353 153.327488 
L 184.189616 157.928842 
L 185.002878 163.627071 
L 185.816141 171.297033 
L 187.442667 192.940042 
L 189.069193 214.469559 
L 189.882456 222.589568 
L 190.695719 228.309148 
L 191.508982 231.411683 
L 192.322244 232.555297 
L 193.135507 232.616804 
L 193.94877 231.92152 
L 194.762033 228.588787 
L 195.575296 220.186455 
L 197.201822 191.384827 
L 198.015085 182.288554 
L 198.828348 177.755344 
L 200.454873 172.971057 
L 201.268136 170.8718 
L 202.081399 169.639243 
L 202.894662 169.90676 
L 203.707925 172.117133 
L 204.521188 175.950792 
L 206.147714 186.468723 
L 207.774239 197.892834 
L 208.587502 202.995185 
L 209.400765 207.250984 
L 210.214028 210.356024 
L 211.027291 212.095983 
L 211.840554 212.616059 
L 212.653817 212.151337 
L 213.46708 210.699661 
L 214.280343 207.309927 
L 215.093605 200.793797 
L 217.533394 172.091931 
L 218.346657 166.813313 
L 219.15992 164.026967 
L 219.973183 163.398753 
L 220.786446 164.757531 
L 221.599709 168.584181 
L 222.412971 175.522585 
L 223.226234 185.824696 
L 225.666023 222.326889 
L 226.479286 231.54733 
L 227.292549 237.652436 
L 228.105812 240.114408 
L 228.919075 239.790052 
L 229.732337 237.882323 
L 230.5456 235.286954 
L 231.358863 231.670781 
L 232.172126 226.393419 
L 233.798652 210.895633 
L 234.611915 202.972255 
L 236.238441 190.604011 
L 238.678229 174.368641 
L 239.491492 171.855331 
L 240.304755 172.748467 
L 241.118018 176.353658 
L 242.744544 187.38831 
L 244.371069 200.6898 
L 245.184332 207.982771 
L 245.997595 214.270281 
L 246.810858 217.909473 
L 247.624121 217.674472 
L 248.437384 214.007323 
L 249.250647 207.767053 
L 252.503698 175.862761 
L 253.316961 170.110717 
L 254.130224 165.664787 
L 254.943487 162.587265 
L 255.75675 161.306502 
L 256.570013 162.342365 
L 257.383276 166.035919 
L 258.196539 172.013032 
L 259.009801 179.72077 
L 260.636327 198.172408 
L 262.262853 217.188643 
L 263.076116 225.270883 
L 263.889379 231.270319 
L 264.702642 234.488536 
L 265.515905 234.888937 
L 266.329167 232.600383 
L 267.14243 227.852795 
L 267.955693 221.280337 
L 269.582219 205.488556 
L 272.835271 171.806005 
L 273.648533 165.73047 
L 274.461796 162.210681 
L 275.275059 160.979296 
L 276.088322 161.515864 
L 276.901585 163.437736 
L 277.714848 166.91347 
L 278.528111 172.249424 
L 279.341374 179.513259 
L 280.967899 196.037313 
L 281.781162 203.195487 
L 282.594425 208.914691 
L 283.407688 212.96689 
L 284.220951 215.170067 
L 285.034214 215.526251 
L 285.847477 214.083487 
L 286.66074 210.961985 
L 287.474003 206.570614 
L 289.913791 190.328328 
L 291.540317 180.441525 
L 292.35358 177.353785 
L 293.166843 176.759599 
L 293.980106 179.328274 
L 294.793369 184.522954 
L 295.606631 191.505244 
L 298.859683 222.696901 
L 299.672946 227.845245 
L 300.486209 230.285087 
L 301.299472 229.482164 
L 302.112735 226.285212 
L 303.73926 217.162467 
L 304.552523 211.677459 
L 305.365786 204.679991 
L 308.618838 170.306378 
L 309.432101 165.283552 
L 310.245363 161.849749 
L 311.058626 159.828976 
L 311.871889 159.677225 
L 312.685152 162.00848 
L 313.498415 167.169474 
L 314.311678 174.437913 
L 316.751467 199.58107 
L 317.564729 206.78182 
L 318.377992 212.545055 
L 319.191255 216.714483 
L 320.004518 219.212169 
L 320.817781 219.995243 
L 321.631044 219.161084 
L 322.444307 216.842138 
L 323.25757 213.261998 
L 325.697358 200.956244 
L 326.510621 197.046728 
L 327.323884 192.244169 
L 328.95041 180.284983 
L 329.763673 176.338139 
L 330.576936 175.741488 
L 331.390199 178.142374 
L 332.203461 182.753096 
L 333.016724 188.846287 
L 334.64325 203.596235 
L 335.456513 211.232412 
L 336.269776 217.572939 
L 337.083039 221.177161 
L 337.896302 221.019012 
L 338.709565 217.730777 
L 339.522827 212.35933 
L 341.962616 192.851729 
L 343.589142 182.942349 
L 346.028931 170.395689 
L 346.842193 168.242812 
L 347.655456 168.393454 
L 348.468719 170.644308 
L 349.281982 174.56472 
L 350.095245 179.789497 
L 350.908508 186.215268 
L 352.535034 202.266136 
L 353.348297 210.303387 
L 354.161559 216.365942 
L 354.974822 219.430439 
L 355.788085 220.579788 
L 356.601348 221.423469 
L 358.227874 224.973275 
L 359.041137 225.867962 
L 359.8544 224.852856 
L 360.667663 221.741168 
L 361.480925 216.535621 
L 362.294188 209.411745 
L 364.733977 185.811433 
L 365.54724 180.1771 
L 366.360503 176.721285 
L 367.173766 175.862708 
L 367.987029 177.392958 
L 368.800291 180.946837 
L 369.613554 186.125712 
L 371.24008 199.195531 
L 372.053343 205.882714 
L 372.866606 211.532218 
L 373.679869 215.145349 
L 374.493132 215.966176 
L 375.306395 214.209812 
L 376.119657 210.33413 
L 376.93292 204.796982 
L 378.559446 190.569273 
L 380.185972 175.87127 
L 380.999235 170.51432 
L 381.812498 167.50278 
L 382.625761 166.428139 
L 383.439024 166.606232 
L 384.252286 167.508808 
L 385.065549 169.231288 
L 385.878812 172.02501 
L 386.692075 176.062447 
L 387.505338 181.200609 
L 389.131864 193.891696 
L 390.75839 208.776078 
L 392.384915 225.792216 
L 393.198178 232.025664 
L 394.011441 233.434854 
L 394.824704 230.593879 
L 395.637967 224.827994 
L 397.264493 208.948837 
L 398.891018 191.986672 
L 399.704281 184.502903 
L 400.517544 178.237448 
L 401.330807 173.484927 
L 402.14407 170.102455 
L 402.957333 167.837772 
L 403.770596 166.533856 
L 404.583859 166.414634 
L 405.397122 167.799272 
L 406.210384 171.006937 
L 407.023647 176.207267 
L 407.83691 182.971796 
L 410.276699 206.048053 
L 411.089962 211.335783 
L 411.903225 213.503884 
L 412.716488 211.6423 
L 413.52975 205.48021 
L 415.156276 189.069531 
L 415.969539 183.497867 
L 416.782802 179.981421 
L 417.596065 177.536838 
L 418.409328 175.47014 
L 419.222591 174.244877 
L 420.035854 174.613982 
L 420.849116 177.125402 
L 421.662379 181.507155 
L 422.475642 187.282276 
L 424.102168 201.139074 
L 426.541957 222.508011 
L 427.35522 228.350788 
L 428.168482 232.644171 
L 428.981745 234.849647 
L 429.795008 234.625882 
L 430.608271 231.680833 
L 431.421534 225.988643 
L 433.04806 210.573374 
L 436.301111 176.611675 
L 437.114374 170.399377 
L 437.927637 166.826276 
L 438.7409 165.645334 
L 439.554163 166.347428 
L 440.367426 168.423438 
L 441.180689 171.431393 
L 441.993952 175.197914 
L 443.620477 184.554181 
L 446.873529 204.682894 
L 447.686792 209.108063 
L 448.500055 212.9122 
L 449.313318 214.46116 
L 450.12658 212.383577 
L 450.939843 207.659224 
L 452.566369 196.328191 
L 453.379632 191.583151 
L 454.192895 187.914619 
L 455.006158 185.567085 
L 455.819421 184.586662 
L 456.632684 184.969869 
L 457.445946 186.652792 
L 458.259209 189.329772 
L 463.138787 208.715829 
L 463.95205 211.583323 
L 464.765312 215.17819 
L 465.578575 219.520738 
L 466.391838 222.4499 
L 467.205101 221.259263 
L 468.018364 214.49032 
L 468.831627 205.676171 
L 469.64489 198.545509 
L 471.271416 186.360142 
L 472.897941 171.14128 
L 473.711204 165.188592 
L 474.524467 162.185248 
L 475.33773 161.266761 
L 476.150993 161.039669 
L 476.964256 160.534233 
L 477.777519 160.475603 
L 478.590782 162.012649 
L 479.404044 166.294241 
L 480.217307 173.918815 
L 481.843833 192.233222 
L 482.657096 199.217085 
L 484.283622 211.302942 
L 485.096885 218.499295 
L 485.910148 224.050755 
L 486.72341 225.332885 
L 487.536673 222.996577 
L 488.349936 218.511559 
L 489.163199 213.058159 
L 489.976462 206.659109 
L 490.789725 199.047746 
L 492.416251 182.32745 
L 493.229514 177.093483 
L 494.042776 176.138334 
L 494.856039 178.320949 
L 497.295828 188.904907 
L 498.109091 193.217687 
L 498.109091 193.217687 
" clip-path="url(#pec30ef10f7)" style="fill: none; stroke-dasharray: 3.7,1.6; stroke-dashoffset: 0; stroke: #00008b"/>
   </g>
   <g id="patch_9">
    <path d="M 72 252 
L 72 143.28 
" style="fill: none; stroke: #000000; stroke-width: 0.8; stroke-linejoin: miter; stroke-linecap: square"/>
   </g>
   <g id="patch_10">
    <path d="M 518.4 252 
L 518.4 143.28 
" style="fill: none; stroke: #000000; stroke-width: 0.8; stroke-linejoin: miter; stroke-linecap: square"/>
   </g>
   <g id="patch_11">
    <path d="M 72 252 
L 518.4 252 
" style="fill: none; stroke: #000000; stroke-width: 0.8; stroke-linejoin: miter; stroke-linecap: square"/>
   </g>
   <g id="patch_12">
    <path d="M 72 143.28 
L 518.4 143.28 
" style="fill: none; stroke: #000000; stroke-width: 0.8; stroke-linejoin: miter; stroke-linecap: square"/>
   </g>
   <g id="legend_2">
    <g id="patch_13">
     <path d="M 403.061945 189.916624 
L 509.3 189.916624 
Q 511.9 189.916624 511.9 187.316624 
L 511.9 152.38 
Q 511.9 149.78 509.3 149.78 
L 403.061945 149.78 
Q 400.461945 149.78 400.461945 152.38 
L 400.461945 187.316624 
Q 400.461945 189.916624 403.061945 189.916624 
z
" style="fill: #ffffff; opacity: 0.8; stroke: #cccccc; stroke-linejoin: miter"/>
    </g>
    <g id="line2d_19">
     <path d="M 405.661945 159.53 
L 418.661945 159.53 
L 431.661945 159.53 
" style="fill: none; stroke: #0000ff; stroke-linecap: square"/>
    </g>
    <g id="text_18">
     <!-- MCMC -->
     <g transform="translate(442.061945 164.08)scale(0.13 -0.13)">
      <use xlink:href="#CMR17-4d" transform="scale(0.996264)"/>
      <use xlink:href="#CMR17-43" transform="translate(84.686941 0)scale(0.996264)"/>
      <use xlink:href="#CMR17-4d" transform="translate(151.196821 0)scale(0.996264)"/>
      <use xlink:href="#CMR17-43" transform="translate(235.883762 0)scale(0.996264)"/>
     </g>
    </g>
    <g id="line2d_20">
     <path d="M 405.661945 177.648312 
L 418.661945 177.648312 
L 431.661945 177.648312 
" style="fill: none; stroke-dasharray: 3.7,1.6; stroke-dashoffset: 0; stroke: #00008b"/>
    </g>
    <g id="text_19">
     <!-- Experiment -->
     <g transform="translate(442.061945 182.198312)scale(0.13 -0.13)">
      <use xlink:href="#CMR17-45" transform="scale(0.996264)"/>
      <use xlink:href="#CMR17-78" transform="translate(62.586301 0)scale(0.996264)"/>
      <use xlink:href="#CMR17-70" transform="translate(110.879216 0)scale(0.996264)"/>
      <use xlink:href="#CMR17-65" transform="translate(164.377025 0)scale(0.996264)"/>
      <use xlink:href="#CMR17-72" transform="translate(204.862685 0)scale(0.996264)"/>
      <use xlink:href="#CMR17-69" transform="translate(240.143453 0)scale(0.996264)"/>
      <use xlink:href="#CMR17-6d" transform="translate(265.014512 0)scale(0.996264)"/>
      <use xlink:href="#CMR17-65" transform="translate(341.934101 0)scale(0.996264)"/>
      <use xlink:href="#CMR17-6e" transform="translate(382.419762 0)scale(0.996264)"/>
      <use xlink:href="#CMR17-74" transform="translate(430.712678 0)scale(0.996264)"/>
     </g>
    </g>
   </g>
  </g>
 </g>
 <defs>
  <clipPath id="p22864c2e8b">
   <rect x="72" y="34.56" width="446.4" height="108.72"/>
  </clipPath>
  <clipPath id="pec30ef10f7">
   <rect x="72" y="143.28" width="446.4" height="108.72"/>
  </clipPath>
 </defs>
</svg>
