<?xml version="1.0" encoding="utf-8" standalone="no"?>
<!DOCTYPE svg PUBLIC "-//W3C//DTD SVG 1.1//EN"
  "http://www.w3.org/Graphics/SVG/1.1/DTD/svg11.dtd">
<svg xmlns:xlink="http://www.w3.org/1999/xlink" width="576pt" height="288pt" viewBox="0 0 576 288" xmlns="http://www.w3.org/2000/svg" version="1.1">
 <metadata>
  <rdf:RDF xmlns:dc="http://purl.org/dc/elements/1.1/" xmlns:cc="http://creativecommons.org/ns#" xmlns:rdf="http://www.w3.org/1999/02/22-rdf-syntax-ns#">
   <cc:Work>
    <dc:type rdf:resource="http://purl.org/dc/dcmitype/StillImage"/>
    <dc:date>2023-06-13T11:50:27.844978</dc:date>
    <dc:format>image/svg+xml</dc:format>
    <dc:creator>
     <cc:Agent>
      <dc:title>Matplotlib v3.5.3, https://matplotlib.org/</dc:title>
     </cc:Agent>
    </dc:creator>
   </cc:Work>
  </rdf:RDF>
 </metadata>
 <defs>
  <style type="text/css">*{stroke-linejoin: round; stroke-linecap: butt}</style>
 </defs>
 <g id="figure_1">
  <g id="patch_1">
   <path d="M 0 288 
L 576 288 
L 576 0 
L 0 0 
L 0 288 
z
" style="fill: none"/>
  </g>
  <g id="axes_1">
   <g id="patch_2">
    <path d="M 72 143.28 
L 518.4 143.28 
L 518.4 34.56 
L 72 34.56 
z
" style="fill: #ffffff"/>
   </g>
   <g id="matplotlib.axis_1"/>
   <g id="matplotlib.axis_2">
    <g id="ytick_1">
     <g id="line2d_1">
      <defs>
       <path id="ma139bf4efd" d="M 0 0 
L -3.5 0 
" style="stroke: #000000; stroke-width: 0.8"/>
      </defs>
      <g>
       <use xlink:href="#ma139bf4efd" x="72" y="117.044396" style="stroke: #000000; stroke-width: 0.8"/>
      </g>
     </g>
     <g id="text_1">
      <!-- $\mathdefault{−0.02}$ -->
      <g transform="translate(32.381779 121.54141)scale(0.13 -0.13)">
       <defs>
        <path id="CMSY10-0" d="M 4218 1472 
C 4326 1472 4442 1472 4442 1600 
C 4442 1728 4326 1728 4218 1728 
L 755 1728 
C 646 1728 531 1728 531 1600 
C 531 1472 646 1472 755 1472 
L 4218 1472 
z
" transform="scale(0.015625)"/>
        <path id="CMR17-30" d="M 2688 2025 
C 2688 2416 2682 3080 2413 3591 
C 2176 4039 1798 4198 1466 4198 
C 1158 4198 768 4058 525 3597 
C 269 3118 243 2524 243 2025 
C 243 1661 250 1106 448 619 
C 723 -39 1216 -128 1466 -128 
C 1760 -128 2208 -7 2470 600 
C 2662 1042 2688 1559 2688 2025 
z
M 1466 -26 
C 1056 -26 813 325 723 812 
C 653 1188 653 1738 653 2096 
C 653 2588 653 2997 736 3387 
C 858 3929 1216 4096 1466 4096 
C 1728 4096 2067 3923 2189 3400 
C 2272 3036 2278 2607 2278 2096 
C 2278 1680 2278 1169 2202 792 
C 2067 95 1690 -26 1466 -26 
z
" transform="scale(0.015625)"/>
        <path id="CMMI12-3a" d="M 1178 307 
C 1178 492 1024 619 870 619 
C 685 619 557 466 557 313 
C 557 128 710 0 864 0 
C 1050 0 1178 153 1178 307 
z
" transform="scale(0.015625)"/>
        <path id="CMR17-32" d="M 2669 989 
L 2554 989 
C 2490 536 2438 459 2413 420 
C 2381 369 1920 369 1830 369 
L 602 369 
C 832 619 1280 1072 1824 1597 
C 2214 1967 2669 2402 2669 3035 
C 2669 3790 2067 4224 1395 4224 
C 691 4224 262 3604 262 3030 
C 262 2780 448 2748 525 2748 
C 589 2748 781 2787 781 3010 
C 781 3207 614 3264 525 3264 
C 486 3264 448 3258 422 3245 
C 544 3790 915 4058 1306 4058 
C 1862 4058 2227 3617 2227 3035 
C 2227 2479 1901 2000 1536 1584 
L 262 146 
L 262 0 
L 2515 0 
L 2669 989 
z
" transform="scale(0.015625)"/>
       </defs>
       <use xlink:href="#CMSY10-0" transform="scale(0.996264)"/>
       <use xlink:href="#CMR17-30" transform="translate(77.487468 0)scale(0.996264)"/>
       <use xlink:href="#CMMI12-3a" transform="translate(123.177945 0)scale(0.996264)"/>
       <use xlink:href="#CMR17-30" transform="translate(150.275122 0)scale(0.996264)"/>
       <use xlink:href="#CMR17-32" transform="translate(195.965599 0)scale(0.996264)"/>
      </g>
     </g>
    </g>
    <g id="ytick_2">
     <g id="line2d_2">
      <g>
       <use xlink:href="#ma139bf4efd" x="72" y="88.94738" style="stroke: #000000; stroke-width: 0.8"/>
      </g>
     </g>
     <g id="text_2">
      <!-- $\mathdefault{0.00}$ -->
      <g transform="translate(42.455149 93.444394)scale(0.13 -0.13)">
       <use xlink:href="#CMR17-30" transform="scale(0.996264)"/>
       <use xlink:href="#CMMI12-3a" transform="translate(45.690477 0)scale(0.996264)"/>
       <use xlink:href="#CMR17-30" transform="translate(72.787654 0)scale(0.996264)"/>
       <use xlink:href="#CMR17-30" transform="translate(118.478131 0)scale(0.996264)"/>
      </g>
     </g>
    </g>
    <g id="ytick_3">
     <g id="line2d_3">
      <g>
       <use xlink:href="#ma139bf4efd" x="72" y="60.850363" style="stroke: #000000; stroke-width: 0.8"/>
      </g>
     </g>
     <g id="text_3">
      <!-- $\mathdefault{0.02}$ -->
      <g transform="translate(42.455149 65.347377)scale(0.13 -0.13)">
       <use xlink:href="#CMR17-30" transform="scale(0.996264)"/>
       <use xlink:href="#CMMI12-3a" transform="translate(45.690477 0)scale(0.996264)"/>
       <use xlink:href="#CMR17-30" transform="translate(72.787654 0)scale(0.996264)"/>
       <use xlink:href="#CMR17-32" transform="translate(118.478131 0)scale(0.996264)"/>
      </g>
     </g>
    </g>
    <g id="text_4">
     <!-- displacement (m) -->
     <g transform="translate(25.143921 137.039159)rotate(-90)scale(0.13 -0.13)">
      <defs>
       <path id="CMR17-64" d="M 1869 4326 
L 1869 4160 
C 2246 4160 2304 4122 2304 3820 
L 2304 2345 
C 2278 2377 2016 2790 1498 2790 
C 845 2790 211 2208 211 1364 
C 211 525 806 -64 1434 -64 
C 1978 -64 2259 337 2291 380 
L 2291 -63 
L 3066 -63 
L 3066 128 
C 2688 128 2630 166 2630 473 
L 2630 4396 
L 1869 4326 
z
M 2291 755 
C 2291 563 2176 390 2029 262 
C 1811 70 1594 38 1472 38 
C 1286 38 621 134 621 1356 
C 621 2612 1363 2688 1530 2688 
C 1824 2688 2061 2522 2208 2291 
C 2291 2157 2291 2138 2291 2023 
L 2291 755 
z
" transform="scale(0.015625)"/>
       <path id="CMR17-69" d="M 992 3909 
C 992 4049 877 4170 730 4170 
C 589 4170 467 4056 467 3909 
C 467 3769 582 3648 730 3648 
C 870 3648 992 3763 992 3909 
z
M 243 2706 
L 243 2541 
C 602 2541 653 2502 653 2197 
L 653 427 
C 653 184 627 153 218 153 
L 218 -13 
C 371 0 646 0 806 0 
C 960 0 1222 0 1370 -13 
L 1370 153 
C 992 153 979 191 979 420 
L 979 2776 
L 243 2706 
z
" transform="scale(0.015625)"/>
       <path id="CMR17-73" d="M 1978 2697 
C 1978 2813 1971 2819 1933 2819 
C 1907 2819 1901 2813 1824 2717 
C 1805 2691 1747 2626 1728 2601 
C 1523 2819 1235 2819 1126 2819 
C 416 2819 160 2447 160 2076 
C 160 1498 813 1365 998 1325 
C 1402 1243 1542 1217 1677 1101 
C 1760 1025 1901 884 1901 654 
C 1901 384 1747 38 1158 38 
C 602 38 403 460 288 1021 
C 269 1110 269 1117 218 1117 
C 166 1117 160 1110 160 983 
L 160 63 
C 160 -51 166 -58 205 -58 
C 237 -58 243 -51 275 0 
C 314 57 410 211 448 276 
C 576 103 800 -64 1158 -64 
C 1792 -64 2131 283 2131 784 
C 2131 1112 1958 1285 1875 1362 
C 1683 1561 1459 1606 1190 1657 
C 838 1735 390 1825 390 2217 
C 390 2383 480 2737 1126 2737 
C 1811 2737 1850 2094 1862 1888 
C 1869 1856 1901 1849 1920 1849 
C 1978 1849 1978 1869 1978 1978 
L 1978 2697 
z
" transform="scale(0.015625)"/>
       <path id="CMR17-70" d="M 1408 -1063 
C 998 -1063 973 -1037 973 -789 
L 973 402 
C 1158 134 1427 -38 1766 -38 
C 2406 -38 3053 523 3053 1388 
C 3053 2191 2496 2802 1837 2802 
C 1453 2802 1139 2592 960 2338 
L 960 2802 
L 198 2732 
L 198 2567 
C 576 2567 634 2528 634 2223 
L 634 -789 
C 634 -1031 608 -1063 198 -1063 
L 198 -1228 
C 352 -1216 634 -1216 800 -1216 
C 966 -1216 1254 -1216 1408 -1228 
L 1408 -1063 
z
M 973 2012 
C 973 2102 973 2235 1222 2471 
C 1254 2497 1472 2688 1792 2688 
C 2259 2688 2643 2108 2643 1382 
C 2643 656 2234 64 1728 64 
C 1498 64 1248 172 1056 472 
C 973 612 973 650 973 752 
L 973 2012 
z
" transform="scale(0.015625)"/>
       <path id="CMR17-6c" d="M 979 4396 
L 218 4326 
L 218 4160 
C 595 4160 653 4122 653 3817 
L 653 426 
C 653 184 627 153 218 153 
L 218 -13 
C 371 0 653 0 813 0 
C 979 0 1261 0 1414 -13 
L 1414 153 
C 1005 153 979 178 979 426 
L 979 4396 
z
" transform="scale(0.015625)"/>
       <path id="CMR17-61" d="M 2304 1653 
C 2304 2072 2304 2294 2035 2543 
C 1798 2752 1523 2816 1306 2816 
C 800 2816 435 2407 435 1971 
C 435 1728 627 1728 666 1728 
C 749 1728 896 1778 896 1954 
C 896 2112 774 2181 666 2181 
C 640 2181 608 2174 589 2168 
C 723 2592 1069 2714 1293 2714 
C 1613 2714 1965 2429 1965 1885 
L 1965 1600 
C 1587 1600 1133 1549 774 1357 
C 371 1133 256 813 256 570 
C 256 77 832 -64 1171 -64 
C 1523 -64 1850 139 1990 511 
C 2003 233 2182 -18 2464 -18 
C 2598 -18 2938 70 2938 567 
L 2938 920 
L 2822 920 
L 2822 562 
C 2822 178 2650 128 2566 128 
C 2304 128 2304 458 2304 738 
L 2304 1653 
z
M 1965 870 
C 1965 317 1568 38 1216 38 
C 896 38 646 275 646 570 
C 646 761 730 1100 1101 1305 
C 1408 1478 1760 1504 1965 1504 
L 1965 870 
z
" transform="scale(0.015625)"/>
       <path id="CMR17-63" d="M 2234 2240 
C 2112 2240 1933 2240 1933 2017 
C 1933 1838 2080 1787 2163 1787 
C 2208 1787 2394 1807 2394 2024 
C 2394 2467 1958 2803 1466 2803 
C 787 2803 211 2178 211 1363 
C 211 516 813 -64 1466 -64 
C 2259 -64 2458 677 2458 748 
C 2458 774 2451 793 2406 793 
C 2362 793 2355 787 2330 703 
C 2163 180 1798 51 1523 51 
C 1114 51 621 427 621 1369 
C 621 2338 1094 2688 1472 2688 
C 1722 2688 2093 2573 2234 2240 
z
" transform="scale(0.015625)"/>
       <path id="CMR17-65" d="M 2438 1472 
C 2464 1498 2464 1511 2464 1576 
C 2464 2238 2118 2816 1389 2816 
C 710 2816 173 2169 173 1383 
C 173 551 781 -64 1459 -64 
C 2176 -64 2458 607 2458 740 
C 2458 784 2419 784 2406 784 
C 2362 784 2355 771 2330 696 
C 2189 265 1837 51 1504 51 
C 1229 51 954 203 781 480 
C 582 803 582 1176 582 1472 
L 2438 1472 
z
M 589 1568 
C 634 2505 1126 2714 1382 2714 
C 1818 2714 2112 2297 2118 1568 
L 589 1568 
z
" transform="scale(0.015625)"/>
       <path id="CMR17-6d" d="M 4326 1933 
C 4326 2252 4269 2790 3507 2790 
C 3072 2790 2771 2496 2656 2151 
L 2650 2151 
C 2573 2676 2195 2790 1837 2790 
C 1331 2790 1069 2400 973 2144 
L 966 2144 
L 966 2790 
L 211 2720 
L 211 2554 
C 589 2554 646 2515 646 2208 
L 646 428 
C 646 184 621 153 211 153 
L 211 -13 
C 365 0 646 0 813 0 
C 979 0 1267 0 1421 -13 
L 1421 153 
C 1011 153 986 178 986 428 
L 986 1658 
C 986 2247 1344 2688 1792 2688 
C 2266 2688 2317 2266 2317 1958 
L 2317 428 
C 2317 184 2291 153 1882 153 
L 1882 -13 
C 2035 0 2317 0 2483 0 
C 2650 0 2938 0 3091 -13 
L 3091 153 
C 2682 153 2656 178 2656 428 
L 2656 1658 
C 2656 2247 3014 2688 3462 2688 
C 3936 2688 3987 2266 3987 1958 
L 3987 428 
C 3987 184 3962 153 3552 153 
L 3552 -13 
C 3706 0 3987 0 4154 0 
C 4320 0 4608 0 4762 -13 
L 4762 153 
C 4352 153 4326 178 4326 428 
L 4326 1933 
z
" transform="scale(0.015625)"/>
       <path id="CMR17-6e" d="M 2656 1933 
C 2656 2259 2592 2790 1837 2790 
C 1331 2790 1069 2400 973 2144 
L 966 2144 
L 966 2790 
L 211 2720 
L 211 2554 
C 589 2554 646 2515 646 2208 
L 646 428 
C 646 184 621 153 211 153 
L 211 -13 
C 365 0 646 0 813 0 
C 979 0 1267 0 1421 -13 
L 1421 153 
C 1011 153 986 178 986 428 
L 986 1658 
C 986 2247 1344 2688 1792 2688 
C 2266 2688 2317 2266 2317 1958 
L 2317 428 
C 2317 184 2291 153 1882 153 
L 1882 -13 
C 2035 0 2317 0 2483 0 
C 2650 0 2938 0 3091 -13 
L 3091 153 
C 2682 153 2656 178 2656 428 
L 2656 1933 
z
" transform="scale(0.015625)"/>
       <path id="CMR17-74" d="M 966 2560 
L 1862 2560 
L 1862 2725 
L 966 2725 
L 966 3904 
L 851 3904 
C 838 3245 614 2668 70 2668 
L 70 2560 
L 627 2560 
L 627 771 
C 627 650 627 -64 1370 -64 
C 1747 -64 1965 306 1965 777 
L 1965 1140 
L 1850 1140 
L 1850 783 
C 1850 344 1677 51 1408 51 
C 1222 51 966 178 966 758 
L 966 2560 
z
" transform="scale(0.015625)"/>
       <path id="CMR17-28" d="M 1958 -1561 
C 1958 -1555 1958 -1542 1939 -1523 
C 1645 -1224 858 -407 858 1581 
C 858 3569 1632 4379 1946 4697 
C 1946 4704 1958 4717 1958 4736 
C 1958 4755 1939 4768 1914 4768 
C 1843 4768 1299 4296 986 3594 
C 666 2887 576 2199 576 1588 
C 576 1128 621 351 1005 -471 
C 1312 -1135 1837 -1600 1914 -1600 
C 1946 -1600 1958 -1587 1958 -1561 
z
" transform="scale(0.015625)"/>
       <path id="CMR17-29" d="M 1683 1581 
C 1683 2040 1638 2817 1254 3639 
C 947 4303 422 4768 346 4768 
C 326 4768 301 4761 301 4729 
C 301 4717 307 4710 314 4697 
C 621 4378 1402 3568 1402 1584 
C 1402 -407 627 -1217 314 -1537 
C 307 -1549 301 -1556 301 -1568 
C 301 -1600 326 -1600 346 -1600 
C 416 -1600 960 -1128 1274 -426 
C 1594 281 1683 969 1683 1581 
z
" transform="scale(0.015625)"/>
      </defs>
      <use xlink:href="#CMR17-64" transform="scale(0.996264)"/>
      <use xlink:href="#CMR17-69" transform="translate(50.89537 0)scale(0.996264)"/>
      <use xlink:href="#CMR17-73" transform="translate(75.766428 0)scale(0.996264)"/>
      <use xlink:href="#CMR17-70" transform="translate(111.567766 0)scale(0.996264)"/>
      <use xlink:href="#CMR17-6c" transform="translate(162.463136 0)scale(0.996264)"/>
      <use xlink:href="#CMR17-61" transform="translate(187.334194 0)scale(0.996264)"/>
      <use xlink:href="#CMR17-63" transform="translate(233.024671 0)scale(0.996264)"/>
      <use xlink:href="#CMR17-65" transform="translate(273.510332 0)scale(0.996264)"/>
      <use xlink:href="#CMR17-6d" transform="translate(313.995992 0)scale(0.996264)"/>
      <use xlink:href="#CMR17-65" transform="translate(390.915582 0)scale(0.996264)"/>
      <use xlink:href="#CMR17-6e" transform="translate(431.401243 0)scale(0.996264)"/>
      <use xlink:href="#CMR17-74" transform="translate(479.694158 0)scale(0.996264)"/>
      <use xlink:href="#CMR17-28" transform="translate(545.050893 0)scale(0.996264)"/>
      <use xlink:href="#CMR17-6d" transform="translate(580.33166 0)scale(0.996264)"/>
      <use xlink:href="#CMR17-29" transform="translate(657.25125 0)scale(0.996264)"/>
     </g>
    </g>
   </g>
   <g id="line2d_4">
    <path d="M 92.290909 56.023697 
L 93.104172 56.273369 
L 93.917435 57.03321 
L 94.730698 58.333922 
L 95.543961 60.220936 
L 96.357224 62.746384 
L 97.170486 65.958968 
L 97.983749 69.892723 
L 98.797012 74.555791 
L 100.423538 85.914935 
L 102.863327 106.23772 
L 104.489852 119.525373 
L 105.303115 125.271286 
L 106.116378 130.036647 
L 106.929641 133.559755 
L 107.742904 135.620044 
L 108.556167 136.054156 
L 109.36943 134.769135 
L 110.182693 131.751648 
L 110.995956 127.072443 
L 111.809218 120.885585 
L 113.435744 104.980322 
L 116.688796 68.745578 
L 117.502059 60.961647 
L 118.315322 54.353541 
L 119.128584 49.158649 
L 119.941847 45.539298 
L 120.75511 43.576966 
L 121.568373 43.271739 
L 122.381636 44.546867 
L 123.194899 47.257924 
L 124.008162 51.205738 
L 124.821425 56.15201 
L 126.44795 67.993471 
L 129.701002 92.693719 
L 131.327528 102.830011 
L 132.954054 110.752642 
L 133.767316 113.894942 
L 134.580579 116.527198 
L 135.393842 118.676626 
L 136.207105 120.359411 
L 137.020368 121.573924 
L 137.833631 122.296981 
L 138.646894 122.483573 
L 139.460157 122.070135 
L 140.27342 120.981111 
L 141.086682 119.138236 
L 141.899945 116.471679 
L 142.713208 112.932027 
L 143.526471 108.501926 
L 144.339734 103.206229 
L 145.96626 90.370476 
L 150.032574 54.597427 
L 150.845837 49.056696 
L 151.6591 44.746447 
L 152.472363 41.907613 
L 153.285626 40.722008 
L 154.098889 41.298928 
L 154.912152 43.665867 
L 155.725414 47.764155 
L 156.538677 53.449907 
L 157.35194 60.500323 
L 158.978466 77.481418 
L 161.418255 104.642727 
L 163.04478 119.591209 
L 163.858043 125.227352 
L 164.671306 129.389391 
L 165.484569 131.986745 
L 166.297832 133.006967 
L 167.111095 132.511067 
L 167.924358 130.624419 
L 168.737621 127.524116 
L 169.550884 123.423867 
L 171.177409 113.163655 
L 175.243724 85.25013 
L 176.87025 75.94943 
L 178.496775 68.198531 
L 180.123301 61.936029 
L 180.936564 59.366203 
L 181.749827 57.207669 
L 182.56309 55.517055 
L 183.376353 54.373343 
L 184.189616 53.873108 
L 185.002878 54.122547 
L 185.816141 55.226957 
L 186.629404 57.278559 
L 187.442667 60.343776 
L 188.25593 64.451148 
L 189.069193 69.581057 
L 190.695719 82.548558 
L 193.135507 105.910209 
L 194.762033 120.801938 
L 195.575296 127.064203 
L 196.388559 132.124422 
L 197.201822 135.722676 
L 198.015085 137.659504 
L 198.828348 137.809488 
L 199.64161 136.130551 
L 200.454873 132.668239 
L 201.268136 127.554616 
L 202.081399 121.001783 
L 203.707925 104.754181 
L 206.960976 69.793682 
L 207.774239 62.612069 
L 208.587502 56.617212 
L 209.400765 51.981258 
L 210.214028 48.802 
L 211.027291 47.102898 
L 211.840554 46.837895 
L 212.653817 47.900443 
L 213.46708 50.13585 
L 214.280343 53.355832 
L 215.093605 57.354041 
L 216.720131 66.859266 
L 220.786446 92.052302 
L 222.412971 100.990891 
L 224.039497 109.060136 
L 225.666023 116.155113 
L 227.292549 121.864234 
L 228.105812 123.962758 
L 228.919075 125.39046 
L 229.732337 126.010352 
L 230.5456 125.689562 
L 231.358863 124.312521 
L 232.172126 121.79443 
L 232.985389 118.093802 
L 233.798652 113.222884 
L 234.611915 107.254927 
L 236.238441 92.641013 
L 239.491492 60.067064 
L 240.304755 53.14803 
L 241.118018 47.386787 
L 241.931281 43.060531 
L 242.744544 40.385211 
L 243.557807 39.501818 
L 244.371069 40.467097 
L 245.184332 43.249349 
L 245.997595 47.72968 
L 246.810858 53.70861 
L 248.437384 69.034746 
L 251.690435 103.358574 
L 252.503698 110.681032 
L 253.316961 116.945194 
L 254.130224 121.977743 
L 254.943487 125.675789 
L 255.75675 128.006479 
L 256.570013 129.002013 
L 257.383276 128.750672 
L 258.196539 127.384782 
L 259.009801 125.066735 
L 259.823064 121.974291 
L 261.44959 114.170698 
L 263.889379 100.579851 
L 268.768956 73.163617 
L 271.208745 60.686842 
L 272.022008 57.128374 
L 272.835271 54.090347 
L 273.648533 51.734257 
L 274.461796 50.227649 
L 275.275059 49.731156 
L 276.088322 50.384321 
L 276.901585 52.291393 
L 277.714848 55.508326 
L 278.528111 60.032188 
L 279.341374 65.793989 
L 280.967899 80.41231 
L 285.034214 121.925366 
L 285.847477 128.327573 
L 286.66074 133.338533 
L 287.474003 136.727295 
L 288.287265 138.338182 
L 289.100528 138.100038 
L 289.913791 136.030315 
L 290.727054 132.233708 
L 291.540317 126.895441 
L 292.35358 120.269716 
L 293.980106 104.421339 
L 296.419894 79.39984 
L 298.04642 65.600523 
L 298.859683 60.256067 
L 299.672946 56.111362 
L 300.486209 53.206785 
L 301.299472 51.522615 
L 302.112735 50.987956 
L 302.925997 51.492463 
L 303.73926 52.899735 
L 304.552523 55.061157 
L 305.365786 57.82898 
L 306.992312 64.661857 
L 308.618838 72.587481 
L 311.058626 85.727413 
L 314.311678 105.026125 
L 316.751467 119.102959 
L 317.564729 123.052365 
L 318.377992 126.324822 
L 319.191255 128.722839 
L 320.004518 130.058205 
L 320.817781 130.167124 
L 321.631044 128.925138 
L 322.444307 126.260578 
L 323.25757 122.165343 
L 324.070833 116.70199 
L 324.884095 110.006382 
L 326.510621 93.809959 
L 329.763673 59.247473 
L 330.576936 52.27465 
L 331.390199 46.633574 
L 332.203461 42.568403 
L 333.016724 40.248286 
L 333.829987 39.7582 
L 334.64325 41.094998 
L 335.456513 44.168894 
L 336.269776 48.810235 
L 337.083039 54.781026 
L 338.709565 69.512387 
L 341.962616 100.879298 
L 342.775879 107.39312 
L 343.589142 112.958712 
L 344.402405 117.470063 
L 345.215668 120.881337 
L 346.028931 123.201425 
L 346.842193 124.485021 
L 347.655456 124.821206 
L 348.468719 124.320653 
L 349.281982 123.102663 
L 350.095245 121.283192 
L 350.908508 118.964926 
L 352.535034 113.13737 
L 354.161559 105.993738 
L 355.788085 97.60141 
L 357.414611 87.950944 
L 360.667663 66.247348 
L 362.294188 56.173084 
L 363.107451 52.00911 
L 363.920714 48.727826 
L 364.733977 46.544469 
L 365.54724 45.647012 
L 366.360503 46.180548 
L 367.173766 48.233411 
L 367.987029 51.826204 
L 368.800291 56.904759 
L 369.613554 63.337738 
L 371.24008 79.376642 
L 374.493132 114.966397 
L 375.306395 122.430184 
L 376.119657 128.636261 
L 376.93292 133.329341 
L 377.746183 136.328334 
L 378.559446 137.535354 
L 379.372709 136.939522 
L 380.185972 134.615349 
L 380.999235 130.715922 
L 381.812498 125.461463 
L 383.439024 112.010417 
L 386.692075 82.06844 
L 388.318601 69.88973 
L 389.131864 65.098393 
L 389.945127 61.256025 
L 390.75839 58.362699 
L 391.571652 56.378458 
L 392.384915 55.234442 
L 393.198178 54.845092 
L 394.011441 55.120229 
L 394.824704 55.975885 
L 395.637967 57.342909 
L 396.45123 59.172588 
L 397.264493 61.438829 
L 398.077756 64.136768 
L 398.891018 67.27804 
L 400.517544 74.972213 
L 402.14407 84.614827 
L 403.770596 95.962054 
L 407.023647 119.836243 
L 407.83691 124.854365 
L 408.650173 128.997983 
L 409.463436 132.02576 
L 410.276699 133.725986 
L 411.089962 133.932845 
L 411.903225 132.540709 
L 412.716488 129.515284 
L 413.52975 124.900623 
L 414.343013 118.821325 
L 415.969539 103.146909 
L 420.035854 59.08532 
L 420.849116 52.388966 
L 421.662379 47.12725 
L 422.475642 43.491387 
L 423.288905 41.590937 
L 424.102168 41.450201 
L 424.915431 43.009972 
L 425.728694 46.134378 
L 426.541957 50.622211 
L 427.35522 56.221803 
L 428.981745 69.601944 
L 431.421534 90.772192 
L 433.04806 102.848734 
L 433.861323 107.828105 
L 434.674586 112.018741 
L 435.487848 115.413676 
L 436.301111 118.039846 
L 437.114374 119.947226 
L 437.927637 121.197213 
L 438.7409 121.85143 
L 439.554163 121.962034 
L 440.367426 121.564451 
L 441.180689 120.673218 
L 441.993952 119.281312 
L 442.807214 117.36299 
L 443.620477 114.879868 
L 444.43374 111.78961 
L 445.247003 108.056365 
L 446.060266 103.661907 
L 447.686792 92.967157 
L 449.313318 80.270947 
L 451.753106 60.466325 
L 452.566369 54.643452 
L 453.379632 49.670982 
L 454.192895 45.81507 
L 455.006158 43.310356 
L 455.819421 42.343115 
L 456.632684 43.036573 
L 457.445946 45.439599 
L 458.259209 49.519706 
L 459.072472 55.16104 
L 459.885735 62.167634 
L 461.512261 79.147561 
L 463.95205 106.640474 
L 465.578575 121.919141 
L 466.391838 127.680304 
L 467.205101 131.900003 
L 468.018364 134.458533 
L 468.831627 135.3191 
L 469.64489 134.525915 
L 470.458153 132.197326 
L 471.271416 128.514635 
L 472.084678 123.707557 
L 473.711204 111.780003 
L 476.964256 85.97586 
L 478.590782 75.259449 
L 479.404044 70.809284 
L 480.217307 66.992169 
L 481.03057 63.792256 
L 481.843833 61.176845 
L 482.657096 59.107433 
L 483.470359 57.550038 
L 484.283622 56.483758 
L 485.096885 55.906692 
L 485.910148 55.838636 
L 486.72341 56.320242 
L 487.536673 57.408705 
L 488.349936 59.170342 
L 489.163199 61.670762 
L 489.976462 64.963544 
L 490.789725 69.078515 
L 491.602988 74.010809 
L 493.229514 86.083094 
L 498.109091 126.861172 
L 498.109091 126.861172 
" clip-path="url(#p153dbb6115)" style="fill: none; stroke: #ff0000; stroke-linecap: square"/>
   </g>
   <g id="line2d_5">
    <path d="M 92.290909 56.023697 
L 93.104172 55.181082 
L 93.917435 58.676578 
L 94.730698 65.125124 
L 97.170486 88.621773 
L 98.797012 100.836432 
L 101.236801 116.847717 
L 102.863327 126.354477 
L 103.67659 129.948955 
L 104.489852 132.291096 
L 105.303115 133.298808 
L 106.116378 132.955335 
L 106.929641 131.266706 
L 107.742904 128.330063 
L 108.556167 124.265329 
L 109.36943 119.196821 
L 110.995956 106.620403 
L 115.875533 64.31031 
L 116.688796 58.489504 
L 117.502059 53.56799 
L 118.315322 49.988859 
L 119.128584 48.080062 
L 119.941847 47.708987 
L 120.75511 48.647948 
L 121.568373 50.749514 
L 122.381636 53.886317 
L 124.008162 62.308215 
L 125.634688 70.737601 
L 127.261213 77.451686 
L 129.701002 85.904874 
L 134.580579 105.484481 
L 137.020368 113.712893 
L 138.646894 118.388564 
L 139.460157 120.3759 
L 140.27342 122.009347 
L 141.086682 122.853297 
L 141.899945 122.390857 
L 142.713208 120.290699 
L 143.526471 116.963738 
L 145.152997 108.860848 
L 145.96626 104.351021 
L 146.779523 99.146597 
L 148.406048 86.348379 
L 152.472363 52.325311 
L 153.285626 47.379851 
L 154.098889 46.178543 
L 154.912152 47.988221 
L 155.725414 51.44589 
L 158.165203 63.788508 
L 160.604992 77.202827 
L 163.04478 92.226703 
L 164.671306 100.376555 
L 165.484569 103.706341 
L 166.297832 106.544104 
L 167.111095 108.601717 
L 167.924358 109.522424 
L 168.737621 109.144681 
L 170.364146 107.166288 
L 171.177409 106.988056 
L 173.617198 107.986248 
L 174.430461 107.955264 
L 176.056987 107.498166 
L 176.87025 107.007469 
L 177.683512 106.150782 
L 178.496775 104.808161 
L 179.310038 102.993972 
L 180.123301 100.756154 
L 180.936564 98.087552 
L 181.749827 94.760619 
L 182.56309 90.492716 
L 184.189616 79.061448 
L 185.816141 66.756143 
L 187.442667 56.065843 
L 188.25593 51.883328 
L 189.069193 49.976818 
L 189.882456 51.503839 
L 190.695719 55.720673 
L 192.322244 67.518548 
L 194.762033 85.425123 
L 196.388559 95.128723 
L 197.201822 98.81712 
L 198.015085 101.757685 
L 198.828348 104.071602 
L 199.64161 105.870002 
L 200.454873 107.223795 
L 201.268136 108.193836 
L 202.081399 108.820317 
L 202.894662 109.060781 
L 203.707925 108.852109 
L 204.521188 108.168732 
L 205.334451 107.135287 
L 206.960976 104.620955 
L 207.774239 103.188472 
L 208.587502 101.502732 
L 210.214028 97.327831 
L 211.840554 93.207778 
L 213.46708 89.846484 
L 214.280343 88.335468 
L 215.093605 86.479695 
L 215.906868 83.773515 
L 219.15992 69.061537 
L 220.786446 63.281065 
L 221.599709 60.815386 
L 222.412971 59.136445 
L 223.226234 58.602917 
L 224.039497 59.388588 
L 224.85276 61.621024 
L 225.666023 65.323429 
L 227.292549 75.456798 
L 229.732337 91.355695 
L 231.358863 99.930687 
L 232.172126 103.353121 
L 232.985389 106.165898 
L 233.798652 108.421062 
L 234.611915 110.188724 
L 235.425178 111.521583 
L 236.238441 112.402701 
L 237.051703 112.797733 
L 237.864966 112.653145 
L 238.678229 111.838652 
L 239.491492 110.20478 
L 240.304755 107.703352 
L 244.371069 92.399299 
L 245.997595 84.391649 
L 246.810858 82.265821 
L 247.624121 81.274958 
L 248.437384 80.502219 
L 250.877173 76.785385 
L 251.690435 76.416427 
L 253.316961 76.624831 
L 254.130224 76.491158 
L 255.75675 75.9786 
L 256.570013 75.993702 
L 257.383276 76.3228 
L 258.196539 77.010162 
L 259.823064 79.280475 
L 260.636327 80.462081 
L 263.076116 83.271782 
L 263.889379 84.560175 
L 264.702642 86.882596 
L 265.515905 91.038601 
L 268.768956 115.701714 
L 269.582219 118.629871 
L 270.395482 119.413408 
L 271.208745 118.650247 
L 272.835271 115.518984 
L 273.648533 113.665998 
L 274.461796 111.296549 
L 276.088322 104.741578 
L 278.528111 94.307007 
L 279.341374 90.083302 
L 282.594425 69.68295 
L 283.407688 66.602285 
L 284.220951 64.804015 
L 285.034214 64.314297 
L 285.847477 64.934444 
L 286.66074 66.409559 
L 287.474003 68.554688 
L 288.287265 71.464666 
L 289.100528 75.304271 
L 289.913791 79.906539 
L 290.727054 83.777529 
L 291.540317 85.578474 
L 292.35358 85.918295 
L 293.166843 85.892833 
L 293.980106 86.36184 
L 296.419894 89.073015 
L 297.233157 90.150369 
L 298.04642 91.885525 
L 298.859683 94.542357 
L 300.486209 100.603628 
L 301.299472 102.880989 
L 302.112735 104.617731 
L 303.73926 107.478159 
L 304.552523 108.566811 
L 305.365786 109.044774 
L 306.179049 108.694742 
L 306.992312 107.677207 
L 308.618838 104.604759 
L 309.432101 102.731853 
L 310.245363 100.555461 
L 311.058626 97.999233 
L 311.871889 94.973153 
L 312.685152 91.383792 
L 313.498415 87.110441 
L 314.311678 81.92327 
L 315.124941 75.565172 
L 316.751467 61.492581 
L 317.564729 57.227363 
L 318.377992 55.434846 
L 319.191255 55.752762 
L 320.004518 57.810695 
L 320.817781 61.205656 
L 322.444307 70.357186 
L 324.070833 79.799794 
L 324.884095 83.623816 
L 325.697358 86.761173 
L 326.510621 89.33271 
L 327.323884 91.451054 
L 328.137147 93.195976 
L 329.763673 95.8618 
L 332.203461 99.412379 
L 333.016724 100.661951 
L 333.829987 101.707439 
L 334.64325 102.426587 
L 337.083039 104.084568 
L 338.709565 105.343996 
L 339.522827 105.696123 
L 340.33609 105.635986 
L 341.149353 104.974721 
L 341.962616 103.602007 
L 343.589142 99.616218 
L 345.215668 95.307119 
L 346.028931 92.909059 
L 346.842193 90.117836 
L 347.655456 86.525832 
L 348.468719 81.670252 
L 350.095245 69.335662 
L 350.908508 64.740109 
L 351.721771 61.773261 
L 352.535034 60.188076 
L 353.348297 59.785073 
L 354.161559 60.555004 
L 354.974822 62.536184 
L 355.788085 65.693367 
L 357.414611 74.144266 
L 359.8544 87.385988 
L 361.480925 94.964069 
L 363.107451 101.20077 
L 363.920714 103.53567 
L 364.733977 104.998804 
L 365.54724 105.438297 
L 366.360503 105.188611 
L 367.173766 104.705792 
L 367.987029 104.357161 
L 369.613554 104.023436 
L 370.426817 103.879116 
L 371.24008 103.612749 
L 372.053343 103.108276 
L 372.866606 102.175026 
L 373.679869 100.323892 
L 374.493132 96.991154 
L 375.306395 92.175413 
L 376.119657 88.124539 
L 376.93292 86.908403 
L 377.746183 87.635608 
L 378.559446 88.674437 
L 379.372709 88.730778 
L 380.185972 87.860928 
L 380.999235 86.458787 
L 381.812498 84.820034 
L 382.625761 82.847471 
L 383.439024 80.345679 
L 385.878812 70.981345 
L 386.692075 68.78876 
L 387.505338 67.387291 
L 388.318601 66.698557 
L 389.131864 66.678164 
L 389.945127 67.417677 
L 390.75839 69.04265 
L 391.571652 71.631523 
L 392.384915 75.074274 
L 394.011441 83.844722 
L 395.637967 92.94117 
L 396.45123 96.627752 
L 398.077756 102.538308 
L 399.704281 107.37891 
L 400.517544 108.968511 
L 401.330807 109.722755 
L 402.14407 109.781189 
L 402.957333 109.365883 
L 403.770596 108.635769 
L 404.583859 107.497238 
L 405.397122 105.793548 
L 406.210384 103.393475 
L 407.023647 100.267884 
L 409.463436 88.232913 
L 410.276699 85.958744 
L 411.089962 84.906082 
L 413.52975 83.49815 
L 414.343013 82.814202 
L 415.969539 81.156292 
L 416.782802 80.642704 
L 417.596065 80.567186 
L 418.409328 80.617031 
L 419.222591 80.365748 
L 420.035854 79.537217 
L 420.849116 78.456793 
L 421.662379 77.600199 
L 422.475642 77.329053 
L 423.288905 77.548543 
L 424.102168 78.049751 
L 424.915431 78.686014 
L 425.728694 79.559684 
L 426.541957 80.83537 
L 427.35522 82.671657 
L 428.168482 85.203051 
L 428.981745 88.558035 
L 431.421534 100.927299 
L 432.234797 104.08009 
L 433.04806 106.383585 
L 433.861323 107.764881 
L 434.674586 108.396172 
L 435.487848 108.510931 
L 436.301111 108.283266 
L 437.114374 107.649838 
L 437.927637 106.487946 
L 438.7409 104.742389 
L 441.180689 98.299632 
L 441.993952 95.917168 
L 442.807214 92.828782 
L 446.060266 76.870964 
L 446.873529 74.520836 
L 447.686792 72.972219 
L 448.500055 72.110495 
L 449.313318 71.836056 
L 450.12658 72.053045 
L 450.939843 72.687911 
L 451.753106 73.75632 
L 452.566369 75.296244 
L 454.192895 79.498754 
L 456.632684 85.880791 
L 457.445946 87.881472 
L 458.259209 89.523579 
L 459.072472 90.468632 
L 459.885735 90.558466 
L 460.698998 90.35616 
L 461.512261 90.605104 
L 462.325524 91.863358 
L 463.138787 93.947661 
L 467.205101 106.736581 
L 468.018364 108.64593 
L 468.831627 109.895712 
L 469.64489 110.308231 
L 470.458153 109.911244 
L 471.271416 108.783873 
L 472.084678 107.042597 
L 476.150993 96.553338 
L 476.964256 93.671692 
L 477.777519 90.015269 
L 479.404044 81.136409 
L 481.03057 72.123806 
L 481.843833 68.573029 
L 482.657096 66.156906 
L 483.470359 64.87796 
L 484.283622 64.651488 
L 485.096885 65.416429 
L 485.910148 67.206291 
L 486.72341 70.078226 
L 489.163199 81.722433 
L 489.976462 84.214261 
L 491.602988 87.707097 
L 494.042776 93.916538 
L 494.856039 95.036281 
L 495.669302 95.80758 
L 496.482565 96.77842 
L 498.109091 100.015574 
L 498.109091 100.015574 
" clip-path="url(#p153dbb6115)" style="fill: none; stroke-dasharray: 3.7,1.6; stroke-dashoffset: 0; stroke: #8b0000"/>
   </g>
   <g id="patch_3">
    <path d="M 72 143.28 
L 72 34.56 
" style="fill: none; stroke: #000000; stroke-width: 0.8; stroke-linejoin: miter; stroke-linecap: square"/>
   </g>
   <g id="patch_4">
    <path d="M 518.4 143.28 
L 518.4 34.56 
" style="fill: none; stroke: #000000; stroke-width: 0.8; stroke-linejoin: miter; stroke-linecap: square"/>
   </g>
   <g id="patch_5">
    <path d="M 72 143.28 
L 518.4 143.28 
" style="fill: none; stroke: #000000; stroke-width: 0.8; stroke-linejoin: miter; stroke-linecap: square"/>
   </g>
   <g id="patch_6">
    <path d="M 72 34.56 
L 518.4 34.56 
" style="fill: none; stroke: #000000; stroke-width: 0.8; stroke-linejoin: miter; stroke-linecap: square"/>
   </g>
   <g id="legend_1">
    <g id="patch_7">
     <path d="M 403.061945 81.196624 
L 509.3 81.196624 
Q 511.9 81.196624 511.9 78.596624 
L 511.9 43.66 
Q 511.9 41.06 509.3 41.06 
L 403.061945 41.06 
Q 400.461945 41.06 400.461945 43.66 
L 400.461945 78.596624 
Q 400.461945 81.196624 403.061945 81.196624 
z
" style="fill: #ffffff; opacity: 0.8; stroke: #cccccc; stroke-linejoin: miter"/>
    </g>
    <g id="line2d_6">
     <path d="M 405.661945 50.81 
L 418.661945 50.81 
L 431.661945 50.81 
" style="fill: none; stroke: #ff0000; stroke-linecap: square"/>
    </g>
    <g id="text_5">
     <!-- MCMC -->
     <g transform="translate(442.061945 55.36)scale(0.13 -0.13)">
      <defs>
       <path id="CMR17-4d" d="M 1338 4224 
C 1299 4320 1293 4320 1158 4320 
L 339 4320 
L 339 4160 
C 781 4160 851 4160 851 3875 
L 851 610 
C 851 451 851 153 339 153 
L 339 -13 
C 486 0 755 0 915 0 
C 1075 0 1344 0 1491 -13 
L 1491 153 
C 979 153 979 451 979 610 
L 979 4135 
L 986 4135 
L 2490 89 
C 2515 25 2528 -13 2579 -13 
C 2630 -13 2643 25 2669 89 
L 4186 4166 
L 4192 4166 
L 4192 438 
C 4192 153 4122 153 3680 153 
L 3680 -13 
C 3853 0 4198 0 4384 0 
C 4570 0 4922 0 5094 -13 
L 5094 153 
C 4653 153 4582 153 4582 438 
L 4582 3875 
C 4582 4160 4653 4160 5094 4160 
L 5094 4320 
L 4282 4320 
C 4147 4320 4141 4314 4102 4218 
L 2720 502 
L 1338 4224 
z
" transform="scale(0.015625)"/>
       <path id="CMR17-43" d="M 3974 4289 
C 3974 4403 3968 4410 3930 4410 
C 3904 4410 3898 4403 3853 4327 
L 3571 3792 
C 3258 4187 2874 4416 2381 4416 
C 1286 4416 294 3456 294 2148 
C 294 826 1286 -128 2387 -128 
C 3366 -128 3974 730 3974 1461 
C 3974 1524 3974 1550 3917 1550 
C 3866 1550 3866 1531 3859 1474 
C 3808 585 3168 38 2477 38 
C 1824 38 781 495 781 2147 
C 781 3805 1843 4250 2464 4250 
C 3187 4250 3712 3628 3834 2745 
C 3846 2668 3846 2655 3904 2655 
C 3974 2655 3974 2668 3974 2783 
L 3974 4289 
z
" transform="scale(0.015625)"/>
      </defs>
      <use xlink:href="#CMR17-4d" transform="scale(0.996264)"/>
      <use xlink:href="#CMR17-43" transform="translate(84.686941 0)scale(0.996264)"/>
      <use xlink:href="#CMR17-4d" transform="translate(151.196821 0)scale(0.996264)"/>
      <use xlink:href="#CMR17-43" transform="translate(235.883762 0)scale(0.996264)"/>
     </g>
    </g>
    <g id="line2d_7">
     <path d="M 405.661945 68.928312 
L 418.661945 68.928312 
L 431.661945 68.928312 
" style="fill: none; stroke-dasharray: 3.7,1.6; stroke-dashoffset: 0; stroke: #8b0000"/>
    </g>
    <g id="text_6">
     <!-- Experiment -->
     <g transform="translate(442.061945 73.478312)scale(0.13 -0.13)">
      <defs>
       <path id="CMR17-45" d="M 3885 1615 
L 3770 1615 
C 3629 676 3546 166 2419 166 
L 1530 166 
C 1274 166 1261 197 1261 414 
L 1261 2176 
L 1862 2176 
C 2464 2176 2522 1960 2522 1430 
L 2637 1430 
L 2637 3081 
L 2522 3081 
C 2522 2557 2464 2342 1862 2342 
L 1261 2342 
L 1261 3913 
C 1261 4128 1274 4160 1530 4160 
L 2406 4160 
C 3398 4160 3514 3769 3603 2929 
L 3718 2929 
L 3565 4325 
L 326 4325 
L 326 4160 
C 768 4160 838 4160 838 3874 
L 838 451 
C 838 166 768 166 326 166 
L 326 0 
L 3654 0 
L 3885 1615 
z
" transform="scale(0.015625)"/>
       <path id="CMR17-78" d="M 1664 1477 
C 1856 1726 2074 2006 2253 2216 
C 2464 2458 2707 2560 2989 2560 
L 2989 2726 
C 2880 2726 2656 2726 2541 2726 
C 2368 2726 2170 2726 2022 2732 
L 2022 2566 
C 2112 2553 2163 2489 2163 2400 
C 2163 2285 2099 2215 2067 2171 
L 1594 1573 
L 1030 2306 
C 973 2376 973 2388 973 2420 
C 973 2497 1037 2560 1146 2560 
L 1146 2732 
C 992 2726 717 2726 557 2726 
C 384 2726 179 2726 38 2732 
L 38 2560 
C 384 2560 461 2534 614 2343 
L 1350 1395 
C 1363 1382 1395 1344 1395 1325 
C 1395 1299 838 619 768 530 
C 480 185 179 160 6 160 
L 6 0 
C 115 0 339 0 454 0 
C 582 0 864 0 979 -6 
L 979 160 
C 941 166 838 179 838 325 
C 838 440 890 510 947 586 
L 1478 1236 
L 2035 512 
C 2086 442 2163 346 2163 301 
C 2163 211 2086 160 1984 160 
L 1984 -6 
C 2138 0 2413 0 2573 0 
C 2746 0 2950 0 3091 -6 
L 3091 160 
C 2771 160 2675 172 2522 370 
L 1664 1477 
z
" transform="scale(0.015625)"/>
       <path id="CMR17-72" d="M 960 1497 
C 960 2112 1222 2688 1702 2688 
C 1747 2688 1792 2682 1837 2662 
C 1837 2662 1696 2617 1696 2452 
C 1696 2298 1818 2234 1914 2234 
C 1990 2234 2131 2279 2131 2458 
C 2131 2663 1926 2790 1709 2790 
C 1222 2790 1011 2317 947 2093 
L 941 2093 
L 941 2790 
L 198 2720 
L 198 2554 
C 576 2554 634 2515 634 2208 
L 634 428 
C 634 184 608 153 198 153 
L 198 -13 
C 352 0 646 0 813 0 
C 998 0 1325 0 1498 -13 
L 1498 153 
C 1037 153 960 153 960 440 
L 960 1497 
z
" transform="scale(0.015625)"/>
      </defs>
      <use xlink:href="#CMR17-45" transform="scale(0.996264)"/>
      <use xlink:href="#CMR17-78" transform="translate(62.586301 0)scale(0.996264)"/>
      <use xlink:href="#CMR17-70" transform="translate(110.879216 0)scale(0.996264)"/>
      <use xlink:href="#CMR17-65" transform="translate(164.377025 0)scale(0.996264)"/>
      <use xlink:href="#CMR17-72" transform="translate(204.862685 0)scale(0.996264)"/>
      <use xlink:href="#CMR17-69" transform="translate(240.143453 0)scale(0.996264)"/>
      <use xlink:href="#CMR17-6d" transform="translate(265.014512 0)scale(0.996264)"/>
      <use xlink:href="#CMR17-65" transform="translate(341.934101 0)scale(0.996264)"/>
      <use xlink:href="#CMR17-6e" transform="translate(382.419762 0)scale(0.996264)"/>
      <use xlink:href="#CMR17-74" transform="translate(430.712678 0)scale(0.996264)"/>
     </g>
    </g>
   </g>
  </g>
  <g id="axes_2">
   <g id="patch_8">
    <path d="M 72 252 
L 518.4 252 
L 518.4 143.28 
L 72 143.28 
z
" style="fill: #ffffff"/>
   </g>
   <g id="matplotlib.axis_3">
    <g id="xtick_1">
     <g id="line2d_8">
      <defs>
       <path id="m0864a79755" d="M 0 0 
L 0 3.5 
" style="stroke: #000000; stroke-width: 0.8"/>
      </defs>
      <g>
       <use xlink:href="#m0864a79755" x="92.290909" y="252" style="stroke: #000000; stroke-width: 0.8"/>
      </g>
     </g>
     <g id="text_7">
      <!-- $\mathdefault{0}$ -->
      <g transform="translate(89.120539 267.994028)scale(0.13 -0.13)">
       <use xlink:href="#CMR17-30" transform="scale(0.996264)"/>
      </g>
     </g>
    </g>
    <g id="xtick_2">
     <g id="line2d_9">
      <g>
       <use xlink:href="#m0864a79755" x="173.617198" y="252" style="stroke: #000000; stroke-width: 0.8"/>
      </g>
     </g>
     <g id="text_8">
      <!-- $\mathdefault{1}$ -->
      <g transform="translate(170.446828 267.994028)scale(0.13 -0.13)">
       <defs>
        <path id="CMR17-31" d="M 1702 4058 
C 1702 4192 1696 4192 1606 4192 
C 1357 3916 979 3827 621 3827 
C 602 3827 570 3827 563 3808 
C 557 3795 557 3782 557 3648 
C 755 3648 1088 3686 1344 3839 
L 1344 461 
C 1344 236 1331 160 781 160 
L 589 160 
L 589 0 
C 896 0 1216 0 1523 0 
C 1830 0 2150 0 2458 0 
L 2458 160 
L 2266 160 
C 1715 160 1702 230 1702 458 
L 1702 4058 
z
" transform="scale(0.015625)"/>
       </defs>
       <use xlink:href="#CMR17-31" transform="scale(0.996264)"/>
      </g>
     </g>
    </g>
    <g id="xtick_3">
     <g id="line2d_10">
      <g>
       <use xlink:href="#m0864a79755" x="254.943487" y="252" style="stroke: #000000; stroke-width: 0.8"/>
      </g>
     </g>
     <g id="text_9">
      <!-- $\mathdefault{2}$ -->
      <g transform="translate(251.773117 267.994028)scale(0.13 -0.13)">
       <use xlink:href="#CMR17-32" transform="scale(0.996264)"/>
      </g>
     </g>
    </g>
    <g id="xtick_4">
     <g id="line2d_11">
      <g>
       <use xlink:href="#m0864a79755" x="336.269776" y="252" style="stroke: #000000; stroke-width: 0.8"/>
      </g>
     </g>
     <g id="text_10">
      <!-- $\mathdefault{3}$ -->
      <g transform="translate(333.099406 267.994028)scale(0.13 -0.13)">
       <defs>
        <path id="CMR17-33" d="M 1414 2157 
C 1984 2157 2234 1662 2234 1090 
C 2234 320 1824 25 1453 25 
C 1114 25 563 194 390 693 
C 422 680 454 680 486 680 
C 640 680 755 782 755 948 
C 755 1133 614 1216 486 1216 
C 378 1216 211 1165 211 926 
C 211 335 787 -128 1466 -128 
C 2176 -128 2720 430 2720 1085 
C 2720 1707 2208 2157 1600 2227 
C 2086 2328 2554 2756 2554 3329 
C 2554 3820 2048 4179 1472 4179 
C 890 4179 378 3829 378 3329 
C 378 3110 544 3072 627 3072 
C 762 3072 877 3155 877 3321 
C 877 3486 762 3569 627 3569 
C 602 3569 570 3569 544 3557 
C 730 3959 1235 4032 1459 4032 
C 1683 4032 2106 3925 2106 3320 
C 2106 3143 2080 2828 1862 2550 
C 1670 2304 1453 2304 1242 2284 
C 1210 2284 1062 2269 1037 2269 
C 992 2263 966 2257 966 2208 
C 966 2163 973 2157 1101 2157 
L 1414 2157 
z
" transform="scale(0.015625)"/>
       </defs>
       <use xlink:href="#CMR17-33" transform="scale(0.996264)"/>
      </g>
     </g>
    </g>
    <g id="xtick_5">
     <g id="line2d_12">
      <g>
       <use xlink:href="#m0864a79755" x="417.596065" y="252" style="stroke: #000000; stroke-width: 0.8"/>
      </g>
     </g>
     <g id="text_11">
      <!-- $\mathdefault{4}$ -->
      <g transform="translate(414.425695 267.994028)scale(0.13 -0.13)">
       <defs>
        <path id="CMR17-34" d="M 2150 4122 
C 2150 4256 2144 4256 2029 4256 
L 128 1254 
L 128 1088 
L 1779 1088 
L 1779 457 
C 1779 224 1766 160 1318 160 
L 1197 160 
L 1197 0 
C 1402 0 1747 0 1965 0 
C 2182 0 2528 0 2733 0 
L 2733 160 
L 2611 160 
C 2163 160 2150 224 2150 457 
L 2150 1088 
L 2803 1088 
L 2803 1254 
L 2150 1254 
L 2150 4122 
z
M 1798 3703 
L 1798 1254 
L 256 1254 
L 1798 3703 
z
" transform="scale(0.015625)"/>
       </defs>
       <use xlink:href="#CMR17-34" transform="scale(0.996264)"/>
      </g>
     </g>
    </g>
    <g id="xtick_6">
     <g id="line2d_13">
      <g>
       <use xlink:href="#m0864a79755" x="498.922354" y="252" style="stroke: #000000; stroke-width: 0.8"/>
      </g>
     </g>
     <g id="text_12">
      <!-- $\mathdefault{5}$ -->
      <g transform="translate(495.751984 267.994028)scale(0.13 -0.13)">
       <defs>
        <path id="CMR17-35" d="M 730 3692 
C 794 3666 1056 3584 1325 3584 
C 1920 3584 2246 3911 2432 4100 
C 2432 4157 2432 4192 2394 4192 
C 2387 4192 2374 4192 2323 4163 
C 2099 4058 1837 3973 1517 3973 
C 1325 3973 1037 3999 723 4139 
C 653 4171 640 4171 634 4171 
C 602 4171 595 4164 595 4037 
L 595 2203 
C 595 2089 595 2057 659 2057 
C 691 2057 704 2070 736 2114 
C 941 2401 1222 2522 1542 2522 
C 1766 2522 2246 2382 2246 1289 
C 2246 1085 2246 715 2054 421 
C 1894 159 1645 25 1370 25 
C 947 25 518 320 403 814 
C 429 807 480 795 506 795 
C 589 795 749 840 749 1038 
C 749 1210 627 1280 506 1280 
C 358 1280 262 1190 262 1011 
C 262 454 704 -128 1382 -128 
C 2042 -128 2669 440 2669 1264 
C 2669 2030 2170 2624 1549 2624 
C 1222 2624 947 2503 730 2274 
L 730 3692 
z
" transform="scale(0.015625)"/>
       </defs>
       <use xlink:href="#CMR17-35" transform="scale(0.996264)"/>
      </g>
     </g>
    </g>
    <g id="text_13">
     <!-- time (sec) -->
     <g transform="translate(267.68824 284.225914)scale(0.13 -0.13)">
      <use xlink:href="#CMR17-74" transform="scale(0.996264)"/>
      <use xlink:href="#CMR17-69" transform="translate(35.280768 0)scale(0.996264)"/>
      <use xlink:href="#CMR17-6d" transform="translate(60.151826 0)scale(0.996264)"/>
      <use xlink:href="#CMR17-65" transform="translate(137.071416 0)scale(0.996264)"/>
      <use xlink:href="#CMR17-28" transform="translate(207.633043 0)scale(0.996264)"/>
      <use xlink:href="#CMR17-73" transform="translate(242.913811 0)scale(0.996264)"/>
      <use xlink:href="#CMR17-65" transform="translate(278.715148 0)scale(0.996264)"/>
      <use xlink:href="#CMR17-63" transform="translate(319.200809 0)scale(0.996264)"/>
      <use xlink:href="#CMR17-29" transform="translate(359.686469 0)scale(0.996264)"/>
     </g>
    </g>
   </g>
   <g id="matplotlib.axis_4">
    <g id="ytick_4">
     <g id="line2d_14">
      <g>
       <use xlink:href="#ma139bf4efd" x="72" y="235.14433" style="stroke: #000000; stroke-width: 0.8"/>
      </g>
     </g>
     <g id="text_14">
      <!-- $\mathdefault{−0.025}$ -->
      <g transform="translate(26.041039 239.641344)scale(0.13 -0.13)">
       <use xlink:href="#CMSY10-0" transform="scale(0.996264)"/>
       <use xlink:href="#CMR17-30" transform="translate(77.487468 0)scale(0.996264)"/>
       <use xlink:href="#CMMI12-3a" transform="translate(123.177945 0)scale(0.996264)"/>
       <use xlink:href="#CMR17-30" transform="translate(150.275122 0)scale(0.996264)"/>
       <use xlink:href="#CMR17-32" transform="translate(195.965599 0)scale(0.996264)"/>
       <use xlink:href="#CMR17-35" transform="translate(241.656076 0)scale(0.996264)"/>
      </g>
     </g>
    </g>
    <g id="ytick_5">
     <g id="line2d_15">
      <g>
       <use xlink:href="#ma139bf4efd" x="72" y="201.851619" style="stroke: #000000; stroke-width: 0.8"/>
      </g>
     </g>
     <g id="text_15">
      <!-- $\mathdefault{0.000}$ -->
      <g transform="translate(36.114409 206.348633)scale(0.13 -0.13)">
       <use xlink:href="#CMR17-30" transform="scale(0.996264)"/>
       <use xlink:href="#CMMI12-3a" transform="translate(45.690477 0)scale(0.996264)"/>
       <use xlink:href="#CMR17-30" transform="translate(72.787654 0)scale(0.996264)"/>
       <use xlink:href="#CMR17-30" transform="translate(118.478131 0)scale(0.996264)"/>
       <use xlink:href="#CMR17-30" transform="translate(164.168608 0)scale(0.996264)"/>
      </g>
     </g>
    </g>
    <g id="ytick_6">
     <g id="line2d_16">
      <g>
       <use xlink:href="#ma139bf4efd" x="72" y="168.558908" style="stroke: #000000; stroke-width: 0.8"/>
      </g>
     </g>
     <g id="text_16">
      <!-- $\mathdefault{0.025}$ -->
      <g transform="translate(36.114409 173.055922)scale(0.13 -0.13)">
       <use xlink:href="#CMR17-30" transform="scale(0.996264)"/>
       <use xlink:href="#CMMI12-3a" transform="translate(45.690477 0)scale(0.996264)"/>
       <use xlink:href="#CMR17-30" transform="translate(72.787654 0)scale(0.996264)"/>
       <use xlink:href="#CMR17-32" transform="translate(118.478131 0)scale(0.996264)"/>
       <use xlink:href="#CMR17-35" transform="translate(164.168608 0)scale(0.996264)"/>
      </g>
     </g>
    </g>
    <g id="text_17">
     <!-- displacement (m) -->
     <g transform="translate(18.803181 245.759159)rotate(-90)scale(0.13 -0.13)">
      <use xlink:href="#CMR17-64" transform="scale(0.996264)"/>
      <use xlink:href="#CMR17-69" transform="translate(50.89537 0)scale(0.996264)"/>
      <use xlink:href="#CMR17-73" transform="translate(75.766428 0)scale(0.996264)"/>
      <use xlink:href="#CMR17-70" transform="translate(111.567766 0)scale(0.996264)"/>
      <use xlink:href="#CMR17-6c" transform="translate(162.463136 0)scale(0.996264)"/>
      <use xlink:href="#CMR17-61" transform="translate(187.334194 0)scale(0.996264)"/>
      <use xlink:href="#CMR17-63" transform="translate(233.024671 0)scale(0.996264)"/>
      <use xlink:href="#CMR17-65" transform="translate(273.510332 0)scale(0.996264)"/>
      <use xlink:href="#CMR17-6d" transform="translate(313.995992 0)scale(0.996264)"/>
      <use xlink:href="#CMR17-65" transform="translate(390.915582 0)scale(0.996264)"/>
      <use xlink:href="#CMR17-6e" transform="translate(431.401243 0)scale(0.996264)"/>
      <use xlink:href="#CMR17-74" transform="translate(479.694158 0)scale(0.996264)"/>
      <use xlink:href="#CMR17-28" transform="translate(545.050893 0)scale(0.996264)"/>
      <use xlink:href="#CMR17-6d" transform="translate(580.33166 0)scale(0.996264)"/>
      <use xlink:href="#CMR17-29" transform="translate(657.25125 0)scale(0.996264)"/>
     </g>
    </g>
   </g>
   <g id="line2d_17">
    <path d="M 92.290909 156.497435 
L 93.104172 157.375735 
L 93.917435 159.966722 
L 94.730698 164.141446 
L 95.543961 169.694089 
L 97.170486 183.806977 
L 100.423538 214.647354 
L 101.236801 221.036226 
L 102.050064 226.415361 
L 102.863327 230.651449 
L 103.67659 233.679847 
L 104.489852 235.501836 
L 105.303115 236.177435 
L 106.116378 235.814552 
L 106.929641 234.55553 
L 107.742904 232.56233 
L 108.556167 230.00162 
L 110.182693 223.787983 
L 113.435744 209.770124 
L 115.875533 198.6807 
L 119.128584 182.590344 
L 120.75511 174.788218 
L 121.568373 171.391622 
L 122.381636 168.573618 
L 123.194899 166.528064 
L 124.008162 165.441232 
L 124.821425 165.476056 
L 125.634688 166.756728 
L 126.44795 169.354944 
L 127.261213 173.279033 
L 128.074476 178.46699 
L 128.887739 184.784173 
L 130.514265 199.926015 
L 132.954054 224.26606 
L 133.767316 231.402871 
L 134.580579 237.484319 
L 135.393842 242.229392 
L 136.207105 245.42127 
L 137.020368 246.920149 
L 137.833631 246.671201 
L 138.646894 244.707124 
L 139.460157 241.145123 
L 140.27342 236.178573 
L 141.086682 230.064029 
L 142.713208 215.630485 
L 145.152997 193.416032 
L 145.96626 187.046972 
L 146.779523 181.561782 
L 147.592786 177.090065 
L 148.406048 173.697075 
L 149.219311 171.386942 
L 150.032574 170.110107 
L 150.845837 169.774162 
L 151.6591 170.256988 
L 152.472363 171.420984 
L 153.285626 173.127089 
L 154.912152 177.675196 
L 156.538677 183.17001 
L 158.165203 189.345998 
L 159.791729 196.319334 
L 161.418255 204.313941 
L 163.858043 218.042813 
L 165.484569 227.335633 
L 167.111095 235.165002 
L 167.924358 237.996095 
L 168.737621 239.821152 
L 169.550884 240.456596 
L 170.364146 239.761445 
L 171.177409 237.651355 
L 171.990672 234.10952 
L 172.803935 229.193434 
L 173.617198 223.036804 
L 175.243724 207.892996 
L 178.496775 175.299531 
L 179.310038 168.75536 
L 180.123301 163.492064 
L 180.936564 159.735756 
L 181.749827 157.635926 
L 182.56309 157.257722 
L 183.376353 158.579667 
L 184.189616 161.496902 
L 185.002878 165.829653 
L 185.816141 171.336235 
L 187.442667 184.695982 
L 189.882456 205.905202 
L 191.508982 217.664651 
L 192.322244 222.290687 
L 193.135507 225.97607 
L 193.94877 228.713073 
L 194.762033 230.542228 
L 195.575296 231.541497 
L 196.388559 231.81343 
L 197.201822 231.471551 
L 198.015085 230.627229 
L 198.828348 229.378212 
L 199.64161 227.799832 
L 201.268136 223.815746 
L 202.894662 218.720441 
L 204.521188 212.244957 
L 206.147714 204.106859 
L 207.774239 194.367011 
L 211.027291 173.445535 
L 211.840554 169.036918 
L 212.653817 165.432675 
L 213.46708 162.866257 
L 214.280343 161.541617 
L 215.093605 161.616738 
L 215.906868 163.189318 
L 216.720131 166.285843 
L 217.533394 170.855012 
L 218.346657 176.766174 
L 219.973183 191.722849 
L 223.226234 225.061374 
L 224.039497 231.994313 
L 224.85276 237.714685 
L 225.666023 241.989032 
L 226.479286 244.659618 
L 227.292549 245.651849 
L 228.105812 244.976269 
L 228.919075 242.725092 
L 229.732337 239.063619 
L 230.5456 234.217284 
L 232.172126 222.072574 
L 235.425178 196.084064 
L 237.051703 185.958009 
L 237.864966 182.057902 
L 238.678229 178.962422 
L 239.491492 176.638427 
L 240.304755 175.021112 
L 241.118018 174.026556 
L 241.931281 173.564721 
L 242.744544 173.551678 
L 243.557807 173.919924 
L 244.371069 174.62584 
L 245.184332 175.653638 
L 245.997595 177.015454 
L 246.810858 178.747625 
L 247.624121 180.903514 
L 248.437384 183.543605 
L 249.250647 186.723833 
L 250.06391 190.483277 
L 251.690435 199.743432 
L 253.316961 210.908099 
L 255.75675 228.494194 
L 256.570013 233.646307 
L 257.383276 238.000019 
L 258.196539 241.299668 
L 259.009801 243.321506 
L 259.823064 243.890645 
L 260.636327 242.89561 
L 261.44959 240.299283 
L 262.262853 236.145309 
L 263.076116 230.559327 
L 263.889379 223.744812 
L 265.515905 207.572175 
L 267.955693 182.272666 
L 268.768956 175.031746 
L 269.582219 168.923599 
L 270.395482 164.186863 
L 271.208745 160.985837 
L 272.022008 159.403412 
L 272.835271 159.439402 
L 273.648533 161.014242 
L 274.461796 163.977667 
L 275.275059 168.121584 
L 276.901585 178.92733 
L 280.154637 203.095934 
L 281.781162 213.04115 
L 282.594425 217.074063 
L 283.407688 220.453611 
L 284.220951 223.207344 
L 285.034214 225.388413 
L 285.847477 227.063311 
L 286.66074 228.299479 
L 287.474003 229.153982 
L 288.287265 229.664352 
L 289.100528 229.842466 
L 289.913791 229.672051 
L 290.727054 229.110062 
L 291.540317 228.091817 
L 292.35358 226.539425 
L 293.166843 224.372729 
L 293.980106 221.521745 
L 294.793369 217.939408 
L 295.606631 213.613386 
L 297.233157 202.90964 
L 299.672946 183.758154 
L 301.299472 171.577669 
L 302.112735 166.509186 
L 302.925997 162.495663 
L 303.73926 159.779744 
L 304.552523 158.552817 
L 305.365786 158.940265 
L 306.179049 160.990515 
L 306.992312 164.668812 
L 307.805575 169.856269 
L 308.618838 176.354394 
L 310.245363 192.153979 
L 312.685152 217.570163 
L 313.498415 225.032591 
L 314.311678 231.452049 
L 315.124941 236.587072 
L 315.938204 240.268709 
L 316.751467 242.407168 
L 317.564729 242.99313 
L 318.377992 242.093803 
L 319.191255 239.84416 
L 320.004518 236.434167 
L 320.817781 232.093114 
L 322.444307 221.627494 
L 324.884095 205.044699 
L 326.510621 195.458277 
L 328.137147 187.793061 
L 329.763673 181.998853 
L 331.390199 177.724689 
L 332.203461 176.055834 
L 333.016724 174.680601 
L 333.829987 173.618532 
L 334.64325 172.917929 
L 335.456513 172.653003 
L 336.269776 172.917342 
L 337.083039 173.814218 
L 337.896302 175.444607 
L 338.709565 177.893986 
L 339.522827 181.219127 
L 340.33609 185.436148 
L 341.149353 190.511004 
L 342.775879 202.814992 
L 346.028931 230.132274 
L 346.842193 235.870249 
L 347.655456 240.567269 
L 348.468719 243.963007 
L 349.281982 245.850286 
L 350.095245 246.089989 
L 350.908508 244.621974 
L 351.721771 241.471144 
L 352.535034 236.748118 
L 353.348297 230.644386 
L 354.974822 215.400018 
L 358.227874 182.567956 
L 359.041137 175.919711 
L 359.8544 170.458011 
L 360.667663 166.354359 
L 361.480925 163.703817 
L 362.294188 162.52409 
L 363.107451 162.75975 
L 363.920714 164.291075 
L 364.733977 166.946688 
L 365.54724 170.518855 
L 367.173766 179.500298 
L 370.426817 199.047886 
L 372.053343 207.466611 
L 373.679869 214.565786 
L 375.306395 220.551848 
L 376.93292 225.652618 
L 378.559446 229.801891 
L 379.372709 231.375583 
L 380.185972 232.48337 
L 380.999235 233.002537 
L 381.812498 232.803884 
L 382.625761 231.764735 
L 383.439024 229.78291 
L 384.252286 226.790386 
L 385.065549 222.765405 
L 385.878812 217.741825 
L 387.505338 205.141827 
L 391.571652 169.64933 
L 392.384915 164.309833 
L 393.198178 160.259542 
L 394.011441 157.720403 
L 394.824704 156.844801 
L 395.637967 157.704692 
L 396.45123 160.285723 
L 397.264493 164.486806 
L 398.077756 170.125246 
L 399.704281 184.641863 
L 402.957333 217.040865 
L 403.770596 223.830515 
L 404.583859 229.540828 
L 405.397122 234.000019 
L 406.210384 237.109597 
L 407.023647 238.844824 
L 407.83691 239.250206 
L 408.650173 238.430553 
L 409.463436 236.538499 
L 410.276699 233.759606 
L 411.903225 226.352253 
L 416.782802 201.139147 
L 419.222591 190.332757 
L 421.662379 180.505247 
L 423.288905 174.703319 
L 424.102168 172.266098 
L 424.915431 170.310935 
L 425.728694 168.989553 
L 426.541957 168.45731 
L 427.35522 168.859166 
L 428.168482 170.314967 
L 428.981745 172.905318 
L 429.795008 176.659316 
L 430.608271 181.545325 
L 431.421534 187.465719 
L 433.04806 201.690392 
L 435.487848 224.875731 
L 436.301111 231.777654 
L 437.114374 237.708498 
L 437.927637 242.377383 
L 438.7409 245.548904 
L 439.554163 247.058182 
L 440.367426 246.821631 
L 441.180689 244.842652 
L 441.993952 241.211805 
L 442.807214 236.101446 
L 443.620477 229.755205 
L 445.247003 214.593062 
L 447.686792 190.889898 
L 448.500055 184.049811 
L 449.313318 178.174245 
L 450.12658 173.43286 
L 450.939843 169.925565 
L 451.753106 167.682549 
L 452.566369 166.669123 
L 453.379632 166.794757 
L 454.192895 167.925404 
L 455.006158 169.897966 
L 455.819421 172.535615 
L 457.445946 179.117801 
L 463.138787 205.088797 
L 468.831627 230.972392 
L 469.64489 233.767892 
L 470.458153 235.898954 
L 471.271416 237.184167 
L 472.084678 237.456004 
L 472.897941 236.576268 
L 473.711204 234.450674 
L 474.524467 231.041274 
L 475.33773 226.375585 
L 476.150993 220.551491 
L 477.777519 206.166898 
L 481.03057 174.622311 
L 481.843833 168.160669 
L 482.657096 162.919372 
L 483.470359 159.145689 
L 484.283622 157.015933 
L 485.096885 156.62483 
L 485.910148 157.980048 
L 486.72341 161.002266 
L 487.536673 165.530748 
L 488.349936 171.334006 
L 489.976462 185.577989 
L 492.416251 208.518451 
L 494.042776 221.269158 
L 494.856039 226.213633 
L 495.669302 230.050015 
L 496.482565 232.744432 
L 497.295828 234.3231 
L 498.109091 234.863172 
L 498.109091 234.863172 
" clip-path="url(#pa45765781c)" style="fill: none; stroke: #0000ff; stroke-linecap: square"/>
   </g>
   <g id="line2d_18">
    <path d="M 92.290909 156.497435 
L 95.543961 203.207811 
L 96.357224 211.382847 
L 97.170486 216.678709 
L 97.983749 220.082497 
L 98.797012 222.964905 
L 101.236801 233.036426 
L 102.050064 235.087567 
L 102.863327 235.886658 
L 103.67659 235.32316 
L 104.489852 233.416817 
L 106.929641 225.409409 
L 108.556167 220.925489 
L 109.36943 218.341051 
L 110.182693 215.303984 
L 110.995956 211.710067 
L 113.435744 199.431715 
L 114.249007 196.361023 
L 116.688796 188.391173 
L 117.502059 184.341419 
L 118.315322 178.398331 
L 120.75511 154.607842 
L 121.568373 149.885674 
L 122.381636 148.221818 
L 123.194899 149.960308 
L 124.008162 154.138963 
L 126.44795 170.716883 
L 127.261213 177.203599 
L 129.701002 199.660008 
L 131.327528 211.187147 
L 133.767316 225.441459 
L 134.580579 229.197301 
L 135.393842 231.915004 
L 136.207105 233.605853 
L 137.020368 234.360525 
L 137.833631 234.223182 
L 138.646894 233.051934 
L 139.460157 230.658375 
L 140.27342 226.942441 
L 141.086682 222.157434 
L 142.713208 210.716975 
L 145.152997 192.372719 
L 145.96626 187.412822 
L 146.779523 184.394824 
L 147.592786 183.858172 
L 149.219311 185.924386 
L 150.032574 186.118481 
L 150.845837 185.611281 
L 152.472363 184.322218 
L 153.285626 183.055506 
L 154.098889 180.407835 
L 156.538677 169.677225 
L 157.35194 166.948001 
L 158.165203 164.948076 
L 158.978466 163.870354 
L 159.791729 164.285383 
L 160.604992 166.858127 
L 161.418255 171.986822 
L 163.04478 186.970729 
L 164.671306 202.576456 
L 165.484569 209.107528 
L 166.297832 214.271453 
L 167.924358 222.040319 
L 170.364146 232.172718 
L 171.177409 234.898104 
L 171.990672 236.476134 
L 172.803935 236.106965 
L 173.617198 233.237481 
L 174.430461 228.301468 
L 176.056987 214.909324 
L 178.496775 193.715611 
L 179.310038 188.072354 
L 180.123301 183.846921 
L 180.936564 181.24239 
L 182.56309 177.949355 
L 184.189616 173.467365 
L 185.002878 171.933838 
L 185.816141 171.843324 
L 186.629404 173.506355 
L 187.442667 177.135111 
L 189.069193 187.617559 
L 189.882456 190.607301 
L 190.695719 191.807384 
L 191.508982 192.107318 
L 193.135507 192.461274 
L 193.94877 192.776978 
L 194.762033 193.332921 
L 195.575296 194.517286 
L 196.388559 196.783517 
L 197.201822 200.346958 
L 198.828348 208.179137 
L 199.64161 210.797477 
L 201.268136 215.161094 
L 203.707925 224.73037 
L 204.521188 226.725076 
L 206.960976 230.46902 
L 207.774239 231.195376 
L 208.587502 230.433887 
L 209.400765 227.558532 
L 210.214028 223.163474 
L 212.653817 208.001866 
L 213.46708 202.125571 
L 215.906868 182.640774 
L 216.720131 178.572829 
L 218.346657 172.06103 
L 219.15992 169.565165 
L 219.973183 169.125836 
L 220.786446 171.557932 
L 223.226234 184.527059 
L 224.85276 191.574635 
L 226.479286 199.337341 
L 227.292549 202.087522 
L 228.105812 203.275696 
L 228.919075 203.63519 
L 229.732337 204.214451 
L 230.5456 205.767988 
L 232.172126 209.819041 
L 232.985389 211.059435 
L 233.798652 211.746629 
L 235.425178 212.712128 
L 236.238441 213.364969 
L 237.051703 214.213678 
L 237.864966 215.296219 
L 239.491492 218.102267 
L 240.304755 219.705496 
L 241.118018 221.029387 
L 241.931281 221.621782 
L 242.744544 221.030635 
L 243.557807 218.804347 
L 244.371069 214.491435 
L 246.810858 195.456831 
L 248.437384 186.392387 
L 250.06391 177.820266 
L 250.877173 174.387986 
L 251.690435 172.067777 
L 252.503698 170.795628 
L 253.316961 170.396666 
L 254.130224 170.7589 
L 254.943487 172.021868 
L 255.75675 174.387986 
L 256.570013 177.941136 
L 260.636327 199.496398 
L 262.262853 206.182143 
L 264.702642 214.84408 
L 266.329167 219.648514 
L 267.955693 223.996698 
L 268.768956 225.72188 
L 269.582219 226.457786 
L 270.395482 225.834459 
L 271.208745 224.197348 
L 276.088322 211.656033 
L 277.714848 208.329536 
L 280.154637 203.990149 
L 280.967899 202.204825 
L 281.781162 199.949179 
L 284.220951 191.468098 
L 286.66074 185.463996 
L 288.287265 180.044061 
L 289.100528 178.033063 
L 289.913791 177.367175 
L 290.727054 178.128185 
L 291.540317 180.222535 
L 292.35358 183.398882 
L 293.980106 191.86461 
L 296.419894 207.202321 
L 297.233157 212.161411 
L 298.04642 216.310168 
L 298.859683 219.315998 
L 299.672946 221.479997 
L 301.299472 224.966467 
L 302.112735 226.283282 
L 302.925997 226.746957 
L 303.73926 225.951832 
L 304.552523 223.730301 
L 305.365786 219.974269 
L 306.992312 208.9408 
L 307.805575 203.529572 
L 308.618838 199.359655 
L 309.432101 196.461954 
L 310.245363 194.668003 
L 311.058626 193.838747 
L 311.871889 193.952767 
L 312.685152 195.018053 
L 313.498415 196.800773 
L 314.311678 198.099804 
L 315.124941 197.472201 
L 315.938204 194.157951 
L 316.751467 190.12878 
L 317.564729 187.546438 
L 318.377992 186.60103 
L 319.191255 186.989753 
L 320.817781 189.501485 
L 321.631044 189.565658 
L 322.444307 187.812744 
L 323.25757 185.337302 
L 324.070833 183.671897 
L 324.884095 183.92208 
L 325.697358 185.48535 
L 326.510621 187.332192 
L 327.323884 188.839572 
L 328.137147 191.010373 
L 328.95041 195.253955 
L 329.763673 202.360247 
L 331.390199 217.790267 
L 332.203461 222.124197 
L 333.016724 224.459488 
L 333.829987 226.237103 
L 335.456513 230.580736 
L 336.269776 231.487839 
L 337.083039 230.546533 
L 338.709565 226.868713 
L 339.522827 226.088677 
L 340.33609 225.067888 
L 341.149353 222.131636 
L 341.962616 216.148626 
L 344.402405 192.186597 
L 346.028931 178.984283 
L 346.842193 172.903384 
L 347.655456 168.440031 
L 348.468719 167.21959 
L 349.281982 170.029825 
L 350.095245 174.308084 
L 350.908508 177.33749 
L 351.721771 179.134687 
L 354.161559 182.819871 
L 354.974822 183.569165 
L 356.601348 183.93924 
L 357.414611 184.664971 
L 358.227874 186.443857 
L 359.041137 189.177233 
L 360.667663 196.470535 
L 361.480925 200.17961 
L 362.294188 203.141474 
L 363.107451 204.99102 
L 363.920714 206.329629 
L 364.733977 208.000307 
L 365.54724 210.603604 
L 367.173766 216.88851 
L 367.987029 219.478908 
L 369.613554 223.406272 
L 370.426817 225.023378 
L 371.24008 226.207456 
L 372.053343 226.640421 
L 372.866606 226.03562 
L 373.679869 224.232143 
L 374.493132 221.100513 
L 375.306395 216.449626 
L 376.119657 209.84187 
L 378.559446 184.581263 
L 379.372709 180.090317 
L 380.185972 177.927054 
L 381.812498 175.832757 
L 382.625761 174.882273 
L 383.439024 174.220572 
L 384.252286 174.034441 
L 385.065549 174.338259 
L 385.878812 175.103304 
L 386.692075 176.340164 
L 387.505338 178.216677 
L 388.318601 180.939992 
L 389.945127 188.20662 
L 390.75839 191.034342 
L 391.571652 192.335026 
L 392.384915 192.568242 
L 393.198178 192.476392 
L 394.011441 192.684892 
L 394.824704 193.351206 
L 395.637967 194.515808 
L 396.45123 196.185581 
L 398.077756 200.497082 
L 399.704281 205.309873 
L 401.330807 210.71678 
L 404.583859 222.715914 
L 405.397122 224.981492 
L 406.210384 226.180437 
L 407.023647 225.267368 
L 407.83691 221.054855 
L 409.463436 205.607037 
L 410.276699 201.212928 
L 411.089962 198.314413 
L 411.903225 193.83093 
L 412.716488 185.717796 
L 413.52975 176.073855 
L 414.343013 168.033835 
L 415.156276 163.936013 
L 415.969539 162.932876 
L 416.782802 163.380465 
L 417.596065 164.046461 
L 418.409328 165.345116 
L 419.222591 168.102323 
L 421.662379 182.054822 
L 422.475642 183.955022 
L 423.288905 184.824376 
L 424.102168 186.422826 
L 424.915431 190.04097 
L 427.35522 205.327359 
L 428.168482 208.752664 
L 428.981745 210.092992 
L 429.795008 209.145501 
L 430.608271 207.707332 
L 431.421534 207.604428 
L 432.234797 208.777975 
L 433.861323 212.869074 
L 434.674586 214.934645 
L 435.487848 216.572705 
L 436.301111 217.54651 
L 437.114374 217.960249 
L 437.927637 218.00334 
L 438.7409 217.815977 
L 439.554163 217.341438 
L 440.367426 216.473778 
L 441.180689 215.111627 
L 441.993952 213.17193 
L 442.807214 210.576212 
L 444.43374 204.460579 
L 445.247003 202.650644 
L 446.060266 202.385338 
L 446.873529 201.902372 
L 447.686792 198.899031 
L 448.500055 191.966389 
L 449.313318 183.270671 
L 450.12658 175.87189 
L 450.939843 171.873223 
L 451.753106 169.550499 
L 452.566369 166.222711 
L 453.379632 160.731835 
L 454.192895 158.011778 
L 455.006158 162.62492 
L 456.632684 179.89365 
L 457.445946 184.096148 
L 458.259209 186.089195 
L 459.072472 189.166145 
L 459.885735 195.593331 
L 460.698998 203.529007 
L 461.512261 210.104407 
L 462.325524 213.26773 
L 463.95205 215.039338 
L 464.765312 217.165999 
L 465.578575 219.909708 
L 466.391838 222.01749 
L 467.205101 222.507359 
L 468.018364 221.481284 
L 468.831627 219.312219 
L 472.084678 207.756118 
L 472.897941 205.990131 
L 473.711204 204.846061 
L 474.524467 204.236831 
L 475.33773 203.842549 
L 476.150993 203.28512 
L 476.964256 202.186449 
L 477.777519 200.265178 
L 478.590782 197.626902 
L 481.03057 188.071243 
L 481.843833 186.103216 
L 482.657096 185.611284 
L 484.283622 186.44946 
L 485.096885 186.320047 
L 485.910148 185.898499 
L 486.72341 185.688484 
L 487.536673 186.03813 
L 488.349936 186.673415 
L 489.163199 187.164778 
L 489.976462 187.314825 
L 490.789725 187.854845 
L 491.602988 189.748292 
L 492.416251 193.595143 
L 494.042776 203.369767 
L 494.856039 207.179857 
L 496.482565 213.53641 
L 498.109091 220.743414 
L 498.109091 220.743414 
" clip-path="url(#pa45765781c)" style="fill: none; stroke-dasharray: 3.7,1.6; stroke-dashoffset: 0; stroke: #00008b"/>
   </g>
   <g id="patch_9">
    <path d="M 72 252 
L 72 143.28 
" style="fill: none; stroke: #000000; stroke-width: 0.8; stroke-linejoin: miter; stroke-linecap: square"/>
   </g>
   <g id="patch_10">
    <path d="M 518.4 252 
L 518.4 143.28 
" style="fill: none; stroke: #000000; stroke-width: 0.8; stroke-linejoin: miter; stroke-linecap: square"/>
   </g>
   <g id="patch_11">
    <path d="M 72 252 
L 518.4 252 
" style="fill: none; stroke: #000000; stroke-width: 0.8; stroke-linejoin: miter; stroke-linecap: square"/>
   </g>
   <g id="patch_12">
    <path d="M 72 143.28 
L 518.4 143.28 
" style="fill: none; stroke: #000000; stroke-width: 0.8; stroke-linejoin: miter; stroke-linecap: square"/>
   </g>
   <g id="legend_2">
    <g id="patch_13">
     <path d="M 403.061945 189.916624 
L 509.3 189.916624 
Q 511.9 189.916624 511.9 187.316624 
L 511.9 152.38 
Q 511.9 149.78 509.3 149.78 
L 403.061945 149.78 
Q 400.461945 149.78 400.461945 152.38 
L 400.461945 187.316624 
Q 400.461945 189.916624 403.061945 189.916624 
z
" style="fill: #ffffff; opacity: 0.8; stroke: #cccccc; stroke-linejoin: miter"/>
    </g>
    <g id="line2d_19">
     <path d="M 405.661945 159.53 
L 418.661945 159.53 
L 431.661945 159.53 
" style="fill: none; stroke: #0000ff; stroke-linecap: square"/>
    </g>
    <g id="text_18">
     <!-- MCMC -->
     <g transform="translate(442.061945 164.08)scale(0.13 -0.13)">
      <use xlink:href="#CMR17-4d" transform="scale(0.996264)"/>
      <use xlink:href="#CMR17-43" transform="translate(84.686941 0)scale(0.996264)"/>
      <use xlink:href="#CMR17-4d" transform="translate(151.196821 0)scale(0.996264)"/>
      <use xlink:href="#CMR17-43" transform="translate(235.883762 0)scale(0.996264)"/>
     </g>
    </g>
    <g id="line2d_20">
     <path d="M 405.661945 177.648312 
L 418.661945 177.648312 
L 431.661945 177.648312 
" style="fill: none; stroke-dasharray: 3.7,1.6; stroke-dashoffset: 0; stroke: #00008b"/>
    </g>
    <g id="text_19">
     <!-- Experiment -->
     <g transform="translate(442.061945 182.198312)scale(0.13 -0.13)">
      <use xlink:href="#CMR17-45" transform="scale(0.996264)"/>
      <use xlink:href="#CMR17-78" transform="translate(62.586301 0)scale(0.996264)"/>
      <use xlink:href="#CMR17-70" transform="translate(110.879216 0)scale(0.996264)"/>
      <use xlink:href="#CMR17-65" transform="translate(164.377025 0)scale(0.996264)"/>
      <use xlink:href="#CMR17-72" transform="translate(204.862685 0)scale(0.996264)"/>
      <use xlink:href="#CMR17-69" transform="translate(240.143453 0)scale(0.996264)"/>
      <use xlink:href="#CMR17-6d" transform="translate(265.014512 0)scale(0.996264)"/>
      <use xlink:href="#CMR17-65" transform="translate(341.934101 0)scale(0.996264)"/>
      <use xlink:href="#CMR17-6e" transform="translate(382.419762 0)scale(0.996264)"/>
      <use xlink:href="#CMR17-74" transform="translate(430.712678 0)scale(0.996264)"/>
     </g>
    </g>
   </g>
  </g>
 </g>
 <defs>
  <clipPath id="p153dbb6115">
   <rect x="72" y="34.56" width="446.4" height="108.72"/>
  </clipPath>
  <clipPath id="pa45765781c">
   <rect x="72" y="143.28" width="446.4" height="108.72"/>
  </clipPath>
 </defs>
</svg>
