<?xml version="1.0" encoding="utf-8" standalone="no"?>
<!DOCTYPE svg PUBLIC "-//W3C//DTD SVG 1.1//EN"
  "http://www.w3.org/Graphics/SVG/1.1/DTD/svg11.dtd">
<svg xmlns:xlink="http://www.w3.org/1999/xlink" width="576pt" height="216pt" viewBox="0 0 576 216" xmlns="http://www.w3.org/2000/svg" version="1.1">
 <metadata>
  <rdf:RDF xmlns:dc="http://purl.org/dc/elements/1.1/" xmlns:cc="http://creativecommons.org/ns#" xmlns:rdf="http://www.w3.org/1999/02/22-rdf-syntax-ns#">
   <cc:Work>
    <dc:type rdf:resource="http://purl.org/dc/dcmitype/StillImage"/>
    <dc:date>2023-06-13T11:58:12.740985</dc:date>
    <dc:format>image/svg+xml</dc:format>
    <dc:creator>
     <cc:Agent>
      <dc:title>Matplotlib v3.5.3, https://matplotlib.org/</dc:title>
     </cc:Agent>
    </dc:creator>
   </cc:Work>
  </rdf:RDF>
 </metadata>
 <defs>
  <style type="text/css">*{stroke-linejoin: round; stroke-linecap: butt}</style>
 </defs>
 <g id="figure_1">
  <g id="patch_1">
   <path d="M 0 216 
L 576 216 
L 576 0 
L 0 0 
L 0 216 
z
" style="fill: none"/>
  </g>
  <g id="axes_1">
   <g id="patch_2">
    <path d="M 37.244112 166.028575 
L 556.352955 166.028575 
L 556.352955 15.359205 
L 37.244112 15.359205 
z
" style="fill: #ffffff"/>
   </g>
   <g id="patch_3">
    <path d="M 60.839968 166.028575 
L 65.490386 166.028575 
L 65.490386 165.996069 
L 60.839968 165.996069 
z
" clip-path="url(#p834e14d6bf)" style="fill: #800000; opacity: 0.3"/>
   </g>
   <g id="patch_4">
    <path d="M 65.490386 166.028575 
L 70.140804 166.028575 
L 70.140804 165.664509 
L 65.490386 165.664509 
z
" clip-path="url(#p834e14d6bf)" style="fill: #800000; opacity: 0.3"/>
   </g>
   <g id="patch_5">
    <path d="M 70.140804 166.028575 
L 74.791222 166.028575 
L 74.791222 164.000209 
L 70.140804 164.000209 
z
" clip-path="url(#p834e14d6bf)" style="fill: #800000; opacity: 0.3"/>
   </g>
   <g id="patch_6">
    <path d="M 74.791222 166.028575 
L 79.44164 166.028575 
L 79.44164 165.248434 
L 74.791222 165.248434 
z
" clip-path="url(#p834e14d6bf)" style="fill: #800000; opacity: 0.3"/>
   </g>
   <g id="patch_7">
    <path d="M 79.44164 166.028575 
L 84.092058 166.028575 
L 84.092058 73.195061 
L 79.44164 73.195061 
z
" clip-path="url(#p834e14d6bf)" style="fill: #800000; opacity: 0.3"/>
   </g>
   <g id="patch_8">
    <path d="M 84.092058 166.028575 
L 88.742476 166.028575 
L 88.742476 165.267938 
L 84.092058 165.267938 
z
" clip-path="url(#p834e14d6bf)" style="fill: #800000; opacity: 0.3"/>
   </g>
   <g id="patch_9">
    <path d="M 88.742476 166.028575 
L 93.392894 166.028575 
L 93.392894 165.716519 
L 88.742476 165.716519 
z
" clip-path="url(#p834e14d6bf)" style="fill: #800000; opacity: 0.3"/>
   </g>
   <g id="patch_10">
    <path d="M 93.392894 166.028575 
L 98.043312 166.028575 
L 98.043312 165.596247 
L 93.392894 165.596247 
z
" clip-path="url(#p834e14d6bf)" style="fill: #800000; opacity: 0.3"/>
   </g>
   <g id="patch_11">
    <path d="M 98.043312 166.028575 
L 102.69373 166.028575 
L 102.69373 165.882299 
L 98.043312 165.882299 
z
" clip-path="url(#p834e14d6bf)" style="fill: #800000; opacity: 0.3"/>
   </g>
   <g id="patch_12">
    <path d="M 102.69373 166.028575 
L 107.344148 166.028575 
L 107.344148 165.684013 
L 102.69373 165.684013 
z
" clip-path="url(#p834e14d6bf)" style="fill: #800000; opacity: 0.3"/>
   </g>
   <g id="patch_13">
    <path d="M 107.344148 166.028575 
L 111.994566 166.028575 
L 111.994566 165.459723 
L 107.344148 165.459723 
z
" clip-path="url(#p834e14d6bf)" style="fill: #800000; opacity: 0.3"/>
   </g>
   <g id="patch_14">
    <path d="M 111.994566 166.028575 
L 116.644984 166.028575 
L 116.644984 161.428995 
L 111.994566 161.428995 
z
" clip-path="url(#p834e14d6bf)" style="fill: #800000; opacity: 0.3"/>
   </g>
   <g id="patch_15">
    <path d="M 116.644984 166.028575 
L 121.295401 166.028575 
L 121.295401 164.211497 
L 116.644984 164.211497 
z
" clip-path="url(#p834e14d6bf)" style="fill: #800000; opacity: 0.3"/>
   </g>
   <g id="patch_16">
    <path d="M 121.295401 166.028575 
L 125.945819 166.028575 
L 125.945819 164.143235 
L 121.295401 164.143235 
z
" clip-path="url(#p834e14d6bf)" style="fill: #800000; opacity: 0.3"/>
   </g>
   <g id="patch_17">
    <path d="M 125.945819 166.028575 
L 130.596237 166.028575 
L 130.596237 161.799562 
L 125.945819 161.799562 
z
" clip-path="url(#p834e14d6bf)" style="fill: #800000; opacity: 0.3"/>
   </g>
   <g id="patch_18">
    <path d="M 130.596237 166.028575 
L 135.246655 166.028575 
L 135.246655 160.765875 
L 130.596237 160.765875 
z
" clip-path="url(#p834e14d6bf)" style="fill: #800000; opacity: 0.3"/>
   </g>
   <g id="patch_19">
    <path d="M 135.246655 166.028575 
L 139.897073 166.028575 
L 139.897073 163.034785 
L 135.246655 163.034785 
z
" clip-path="url(#p834e14d6bf)" style="fill: #800000; opacity: 0.3"/>
   </g>
   <g id="patch_20">
    <path d="M 139.897073 166.028575 
L 144.547491 166.028575 
L 144.547491 164.523553 
L 139.897073 164.523553 
z
" clip-path="url(#p834e14d6bf)" style="fill: #800000; opacity: 0.3"/>
   </g>
   <g id="patch_21">
    <path d="M 144.547491 166.028575 
L 149.197909 166.028575 
L 149.197909 163.099796 
L 144.547491 163.099796 
z
" clip-path="url(#p834e14d6bf)" style="fill: #800000; opacity: 0.3"/>
   </g>
   <g id="patch_22">
    <path d="M 149.197909 166.028575 
L 153.848327 166.028575 
L 153.848327 163.138803 
L 149.197909 163.138803 
z
" clip-path="url(#p834e14d6bf)" style="fill: #800000; opacity: 0.3"/>
   </g>
   <g id="patch_23">
    <path d="M 153.848327 166.028575 
L 158.498745 166.028575 
L 158.498745 165.895301 
L 153.848327 165.895301 
z
" clip-path="url(#p834e14d6bf)" style="fill: #800000; opacity: 0.3"/>
   </g>
   <g id="patch_24">
    <path d="M 158.498745 166.028575 
L 163.149163 166.028575 
L 163.149163 165.355704 
L 158.498745 165.355704 
z
" clip-path="url(#p834e14d6bf)" style="fill: #800000; opacity: 0.3"/>
   </g>
   <g id="patch_25">
    <path d="M 163.149163 166.028575 
L 167.799581 166.028575 
L 167.799581 164.286261 
L 163.149163 164.286261 
z
" clip-path="url(#p834e14d6bf)" style="fill: #800000; opacity: 0.3"/>
   </g>
   <g id="patch_26">
    <path d="M 167.799581 166.028575 
L 172.449999 166.028575 
L 172.449999 162.937267 
L 167.799581 162.937267 
z
" clip-path="url(#p834e14d6bf)" style="fill: #800000; opacity: 0.3"/>
   </g>
   <g id="patch_27">
    <path d="M 172.449999 166.028575 
L 177.100417 166.028575 
L 177.100417 163.606888 
L 172.449999 163.606888 
z
" clip-path="url(#p834e14d6bf)" style="fill: #800000; opacity: 0.3"/>
   </g>
   <g id="patch_28">
    <path d="M 177.100417 166.028575 
L 181.750834 166.028575 
L 181.750834 154.212691 
L 177.100417 154.212691 
z
" clip-path="url(#p834e14d6bf)" style="fill: #800000; opacity: 0.3"/>
   </g>
   <g id="patch_29">
    <path d="M 181.750834 166.028575 
L 186.401252 166.028575 
L 186.401252 157.151222 
L 181.750834 157.151222 
z
" clip-path="url(#p834e14d6bf)" style="fill: #800000; opacity: 0.3"/>
   </g>
   <g id="patch_30">
    <path d="M 186.401252 166.028575 
L 191.05167 166.028575 
L 191.05167 161.984845 
L 186.401252 161.984845 
z
" clip-path="url(#p834e14d6bf)" style="fill: #800000; opacity: 0.3"/>
   </g>
   <g id="patch_31">
    <path d="M 191.05167 166.028575 
L 195.702088 166.028575 
L 195.702088 151.875519 
L 191.05167 151.875519 
z
" clip-path="url(#p834e14d6bf)" style="fill: #800000; opacity: 0.3"/>
   </g>
   <g id="patch_32">
    <path d="M 195.702088 166.028575 
L 200.352506 166.028575 
L 200.352506 164.647076 
L 195.702088 164.647076 
z
" clip-path="url(#p834e14d6bf)" style="fill: #800000; opacity: 0.3"/>
   </g>
   <g id="patch_33">
    <path d="M 200.352506 166.028575 
L 205.002924 166.028575 
L 205.002924 164.244003 
L 200.352506 164.244003 
z
" clip-path="url(#p834e14d6bf)" style="fill: #800000; opacity: 0.3"/>
   </g>
   <g id="patch_34">
    <path d="M 205.002924 166.028575 
L 209.653342 166.028575 
L 209.653342 164.689333 
L 205.002924 164.689333 
z
" clip-path="url(#p834e14d6bf)" style="fill: #800000; opacity: 0.3"/>
   </g>
   <g id="patch_35">
    <path d="M 209.653342 166.028575 
L 214.30376 166.028575 
L 214.30376 163.922195 
L 209.653342 163.922195 
z
" clip-path="url(#p834e14d6bf)" style="fill: #800000; opacity: 0.3"/>
   </g>
   <g id="patch_36">
    <path d="M 214.30376 166.028575 
L 218.954178 166.028575 
L 218.954178 164.702336 
L 214.30376 164.702336 
z
" clip-path="url(#p834e14d6bf)" style="fill: #800000; opacity: 0.3"/>
   </g>
   <g id="patch_37">
    <path d="M 218.954178 166.028575 
L 223.604596 166.028575 
L 223.604596 164.042467 
L 218.954178 164.042467 
z
" clip-path="url(#p834e14d6bf)" style="fill: #800000; opacity: 0.3"/>
   </g>
   <g id="patch_38">
    <path d="M 223.604596 166.028575 
L 228.255014 166.028575 
L 228.255014 162.706475 
L 223.604596 162.706475 
z
" clip-path="url(#p834e14d6bf)" style="fill: #800000; opacity: 0.3"/>
   </g>
   <g id="patch_39">
    <path d="M 228.255014 166.028575 
L 232.905432 166.028575 
L 232.905432 163.818176 
L 228.255014 163.818176 
z
" clip-path="url(#p834e14d6bf)" style="fill: #800000; opacity: 0.3"/>
   </g>
   <g id="patch_40">
    <path d="M 232.905432 166.028575 
L 237.55585 166.028575 
L 237.55585 162.875506 
L 232.905432 162.875506 
z
" clip-path="url(#p834e14d6bf)" style="fill: #800000; opacity: 0.3"/>
   </g>
   <g id="patch_41">
    <path d="M 237.55585 166.028575 
L 242.206268 166.028575 
L 242.206268 162.293651 
L 237.55585 162.293651 
z
" clip-path="url(#p834e14d6bf)" style="fill: #800000; opacity: 0.3"/>
   </g>
   <g id="patch_42">
    <path d="M 242.206268 166.028575 
L 246.856685 166.028575 
L 246.856685 159.072319 
L 242.206268 159.072319 
z
" clip-path="url(#p834e14d6bf)" style="fill: #800000; opacity: 0.3"/>
   </g>
   <g id="patch_43">
    <path d="M 246.856685 166.028575 
L 251.507103 166.028575 
L 251.507103 159.286858 
L 246.856685 159.286858 
z
" clip-path="url(#p834e14d6bf)" style="fill: #800000; opacity: 0.3"/>
   </g>
   <g id="patch_44">
    <path d="M 251.507103 166.028575 
L 256.157521 166.028575 
L 256.157521 154.966828 
L 251.507103 154.966828 
z
" clip-path="url(#p834e14d6bf)" style="fill: #800000; opacity: 0.3"/>
   </g>
   <g id="patch_45">
    <path d="M 256.157521 166.028575 
L 260.807939 166.028575 
L 260.807939 131.481336 
L 256.157521 131.481336 
z
" clip-path="url(#p834e14d6bf)" style="fill: #800000; opacity: 0.3"/>
   </g>
   <g id="patch_46">
    <path d="M 260.807939 166.028575 
L 265.458357 166.028575 
L 265.458357 163.541876 
L 260.807939 163.541876 
z
" clip-path="url(#p834e14d6bf)" style="fill: #800000; opacity: 0.3"/>
   </g>
   <g id="patch_47">
    <path d="M 265.458357 166.028575 
L 270.108775 166.028575 
L 270.108775 157.531541 
L 265.458357 157.531541 
z
" clip-path="url(#p834e14d6bf)" style="fill: #800000; opacity: 0.3"/>
   </g>
   <g id="patch_48">
    <path d="M 270.108775 166.028575 
L 274.759193 166.028575 
L 274.759193 160.544835 
L 270.108775 160.544835 
z
" clip-path="url(#p834e14d6bf)" style="fill: #800000; opacity: 0.3"/>
   </g>
   <g id="patch_49">
    <path d="M 274.759193 166.028575 
L 279.409611 166.028575 
L 279.409611 156.956187 
L 274.759193 156.956187 
z
" clip-path="url(#p834e14d6bf)" style="fill: #800000; opacity: 0.3"/>
   </g>
   <g id="patch_50">
    <path d="M 279.409611 166.028575 
L 284.060029 166.028575 
L 284.060029 164.078223 
L 279.409611 164.078223 
z
" clip-path="url(#p834e14d6bf)" style="fill: #800000; opacity: 0.3"/>
   </g>
   <g id="patch_51">
    <path d="M 284.060029 166.028575 
L 288.710447 166.028575 
L 288.710447 162.790991 
L 284.060029 162.790991 
z
" clip-path="url(#p834e14d6bf)" style="fill: #800000; opacity: 0.3"/>
   </g>
   <g id="patch_52">
    <path d="M 288.710447 166.028575 
L 293.360865 166.028575 
L 293.360865 145.059038 
L 288.710447 145.059038 
z
" clip-path="url(#p834e14d6bf)" style="fill: #800000; opacity: 0.3"/>
   </g>
   <g id="patch_53">
    <path d="M 293.360865 166.028575 
L 298.011283 166.028575 
L 298.011283 163.870185 
L 293.360865 163.870185 
z
" clip-path="url(#p834e14d6bf)" style="fill: #800000; opacity: 0.3"/>
   </g>
   <g id="patch_54">
    <path d="M 298.011283 166.028575 
L 302.661701 166.028575 
L 302.661701 163.080293 
L 298.011283 163.080293 
z
" clip-path="url(#p834e14d6bf)" style="fill: #800000; opacity: 0.3"/>
   </g>
   <g id="patch_55">
    <path d="M 302.661701 166.028575 
L 307.312118 166.028575 
L 307.312118 165.196425 
L 302.661701 165.196425 
z
" clip-path="url(#p834e14d6bf)" style="fill: #800000; opacity: 0.3"/>
   </g>
   <g id="patch_56">
    <path d="M 307.312118 166.028575 
L 311.962536 166.028575 
L 311.962536 161.692292 
L 307.312118 161.692292 
z
" clip-path="url(#p834e14d6bf)" style="fill: #800000; opacity: 0.3"/>
   </g>
   <g id="patch_57">
    <path d="M 311.962536 166.028575 
L 316.612954 166.028575 
L 316.612954 164.640575 
L 311.962536 164.640575 
z
" clip-path="url(#p834e14d6bf)" style="fill: #800000; opacity: 0.3"/>
   </g>
   <g id="patch_58">
    <path d="M 316.612954 166.028575 
L 321.263372 166.028575 
L 321.263372 165.6125 
L 316.612954 165.6125 
z
" clip-path="url(#p834e14d6bf)" style="fill: #800000; opacity: 0.3"/>
   </g>
   <g id="patch_59">
    <path d="M 321.263372 166.028575 
L 325.91379 166.028575 
L 325.91379 165.827039 
L 321.263372 165.827039 
z
" clip-path="url(#p834e14d6bf)" style="fill: #800000; opacity: 0.3"/>
   </g>
   <g id="patch_60">
    <path d="M 325.91379 166.028575 
L 330.564208 166.028575 
L 330.564208 165.788032 
L 325.91379 165.788032 
z
" clip-path="url(#p834e14d6bf)" style="fill: #800000; opacity: 0.3"/>
   </g>
   <g id="patch_61">
    <path d="M 330.564208 166.028575 
L 335.214626 166.028575 
L 335.214626 165.488978 
L 330.564208 165.488978 
z
" clip-path="url(#p834e14d6bf)" style="fill: #800000; opacity: 0.3"/>
   </g>
   <g id="patch_62">
    <path d="M 335.214626 166.028575 
L 339.865044 166.028575 
L 339.865044 161.045425 
L 335.214626 161.045425 
z
" clip-path="url(#p834e14d6bf)" style="fill: #800000; opacity: 0.3"/>
   </g>
   <g id="patch_63">
    <path d="M 211.591116 166.028575 
L 214.919523 166.028575 
L 214.919523 166.005867 
L 211.591116 166.005867 
z
" clip-path="url(#p834e14d6bf)" style="fill: #00008b; opacity: 0.3"/>
   </g>
   <g id="patch_64">
    <path d="M 214.919523 166.028575 
L 218.24793 166.028575 
L 218.24793 164.107441 
L 214.919523 164.107441 
z
" clip-path="url(#p834e14d6bf)" style="fill: #00008b; opacity: 0.3"/>
   </g>
   <g id="patch_65">
    <path d="M 218.24793 166.028575 
L 221.576337 166.028575 
L 221.576337 163.494313 
L 218.24793 163.494313 
z
" clip-path="url(#p834e14d6bf)" style="fill: #00008b; opacity: 0.3"/>
   </g>
   <g id="patch_66">
    <path d="M 221.576337 166.028575 
L 224.904745 166.028575 
L 224.904745 165.837824 
L 221.576337 165.837824 
z
" clip-path="url(#p834e14d6bf)" style="fill: #00008b; opacity: 0.3"/>
   </g>
   <g id="patch_67">
    <path d="M 224.904745 166.028575 
L 228.233152 166.028575 
L 228.233152 165.34278 
L 224.904745 165.34278 
z
" clip-path="url(#p834e14d6bf)" style="fill: #00008b; opacity: 0.3"/>
   </g>
   <g id="patch_68">
    <path d="M 228.233152 166.028575 
L 231.561559 166.028575 
L 231.561559 165.842366 
L 228.233152 165.842366 
z
" clip-path="url(#p834e14d6bf)" style="fill: #00008b; opacity: 0.3"/>
   </g>
   <g id="patch_69">
    <path d="M 231.561559 166.028575 
L 234.889967 166.028575 
L 234.889967 165.874158 
L 231.561559 165.874158 
z
" clip-path="url(#p834e14d6bf)" style="fill: #00008b; opacity: 0.3"/>
   </g>
   <g id="patch_70">
    <path d="M 234.889967 166.028575 
L 238.218374 166.028575 
L 238.218374 165.333697 
L 234.889967 165.333697 
z
" clip-path="url(#p834e14d6bf)" style="fill: #00008b; opacity: 0.3"/>
   </g>
   <g id="patch_71">
    <path d="M 238.218374 166.028575 
L 241.546781 166.028575 
L 241.546781 165.365489 
L 238.218374 165.365489 
z
" clip-path="url(#p834e14d6bf)" style="fill: #00008b; opacity: 0.3"/>
   </g>
   <g id="patch_72">
    <path d="M 241.546781 166.028575 
L 244.875189 166.028575 
L 244.875189 165.887783 
L 241.546781 165.887783 
z
" clip-path="url(#p834e14d6bf)" style="fill: #00008b; opacity: 0.3"/>
   </g>
   <g id="patch_73">
    <path d="M 244.875189 166.028575 
L 248.203596 166.028575 
L 248.203596 165.955908 
L 244.875189 165.955908 
z
" clip-path="url(#p834e14d6bf)" style="fill: #00008b; opacity: 0.3"/>
   </g>
   <g id="patch_74">
    <path d="M 248.203596 166.028575 
L 251.532003 166.028575 
L 251.532003 165.969533 
L 248.203596 165.969533 
z
" clip-path="url(#p834e14d6bf)" style="fill: #00008b; opacity: 0.3"/>
   </g>
   <g id="patch_75">
    <path d="M 251.532003 166.028575 
L 254.86041 166.028575 
L 254.86041 164.121066 
L 251.532003 164.121066 
z
" clip-path="url(#p834e14d6bf)" style="fill: #00008b; opacity: 0.3"/>
   </g>
   <g id="patch_76">
    <path d="M 254.86041 166.028575 
L 258.188818 166.028575 
L 258.188818 159.420419 
L 254.86041 159.420419 
z
" clip-path="url(#p834e14d6bf)" style="fill: #00008b; opacity: 0.3"/>
   </g>
   <g id="patch_77">
    <path d="M 258.188818 166.028575 
L 261.517225 166.028575 
L 261.517225 165.256488 
L 258.188818 165.256488 
z
" clip-path="url(#p834e14d6bf)" style="fill: #00008b; opacity: 0.3"/>
   </g>
   <g id="patch_78">
    <path d="M 261.517225 166.028575 
L 264.845632 166.028575 
L 264.845632 164.893153 
L 261.517225 164.893153 
z
" clip-path="url(#p834e14d6bf)" style="fill: #00008b; opacity: 0.3"/>
   </g>
   <g id="patch_79">
    <path d="M 264.845632 166.028575 
L 268.17404 166.028575 
L 268.17404 162.876644 
L 264.845632 162.876644 
z
" clip-path="url(#p834e14d6bf)" style="fill: #00008b; opacity: 0.3"/>
   </g>
   <g id="patch_80">
    <path d="M 268.17404 166.028575 
L 271.502447 166.028575 
L 271.502447 160.437757 
L 268.17404 160.437757 
z
" clip-path="url(#p834e14d6bf)" style="fill: #00008b; opacity: 0.3"/>
   </g>
   <g id="patch_81">
    <path d="M 271.502447 166.028575 
L 274.830854 166.028575 
L 274.830854 157.331242 
L 271.502447 157.331242 
z
" clip-path="url(#p834e14d6bf)" style="fill: #00008b; opacity: 0.3"/>
   </g>
   <g id="patch_82">
    <path d="M 274.830854 166.028575 
L 278.159262 166.028575 
L 278.159262 157.235867 
L 274.830854 157.235867 
z
" clip-path="url(#p834e14d6bf)" style="fill: #00008b; opacity: 0.3"/>
   </g>
   <g id="patch_83">
    <path d="M 278.159262 166.028575 
L 281.487669 166.028575 
L 281.487669 163.253604 
L 278.159262 163.253604 
z
" clip-path="url(#p834e14d6bf)" style="fill: #00008b; opacity: 0.3"/>
   </g>
   <g id="patch_84">
    <path d="M 281.487669 166.028575 
L 284.816076 166.028575 
L 284.816076 158.702832 
L 281.487669 158.702832 
z
" clip-path="url(#p834e14d6bf)" style="fill: #00008b; opacity: 0.3"/>
   </g>
   <g id="patch_85">
    <path d="M 284.816076 166.028575 
L 288.144484 166.028575 
L 288.144484 136.643853 
L 284.816076 136.643853 
z
" clip-path="url(#p834e14d6bf)" style="fill: #00008b; opacity: 0.3"/>
   </g>
   <g id="patch_86">
    <path d="M 288.144484 166.028575 
L 291.472891 166.028575 
L 291.472891 137.692983 
L 288.144484 137.692983 
z
" clip-path="url(#p834e14d6bf)" style="fill: #00008b; opacity: 0.3"/>
   </g>
   <g id="patch_87">
    <path d="M 291.472891 166.028575 
L 294.801298 166.028575 
L 294.801298 118.622434 
L 291.472891 118.622434 
z
" clip-path="url(#p834e14d6bf)" style="fill: #00008b; opacity: 0.3"/>
   </g>
   <g id="patch_88">
    <path d="M 294.801298 166.028575 
L 298.129705 166.028575 
L 298.129705 22.533937 
L 294.801298 22.533937 
z
" clip-path="url(#p834e14d6bf)" style="fill: #00008b; opacity: 0.3"/>
   </g>
   <g id="patch_89">
    <path d="M 298.129705 166.028575 
L 301.458113 166.028575 
L 301.458113 161.477804 
L 298.129705 161.477804 
z
" clip-path="url(#p834e14d6bf)" style="fill: #00008b; opacity: 0.3"/>
   </g>
   <g id="patch_90">
    <path d="M 301.458113 166.028575 
L 304.78652 166.028575 
L 304.78652 157.962537 
L 301.458113 157.962537 
z
" clip-path="url(#p834e14d6bf)" style="fill: #00008b; opacity: 0.3"/>
   </g>
   <g id="patch_91">
    <path d="M 304.78652 166.028575 
L 308.114927 166.028575 
L 308.114927 157.367576 
L 304.78652 157.367576 
z
" clip-path="url(#p834e14d6bf)" style="fill: #00008b; opacity: 0.3"/>
   </g>
   <g id="patch_92">
    <path d="M 308.114927 166.028575 
L 311.443335 166.028575 
L 311.443335 152.126468 
L 308.114927 152.126468 
z
" clip-path="url(#p834e14d6bf)" style="fill: #00008b; opacity: 0.3"/>
   </g>
   <g id="patch_93">
    <path d="M 311.443335 166.028575 
L 314.771742 166.028575 
L 314.771742 144.855225 
L 311.443335 144.855225 
z
" clip-path="url(#p834e14d6bf)" style="fill: #00008b; opacity: 0.3"/>
   </g>
   <g id="patch_94">
    <path d="M 314.771742 166.028575 
L 318.100149 166.028575 
L 318.100149 158.893583 
L 314.771742 158.893583 
z
" clip-path="url(#p834e14d6bf)" style="fill: #00008b; opacity: 0.3"/>
   </g>
   <g id="patch_95">
    <path d="M 318.100149 166.028575 
L 321.428557 166.028575 
L 321.428557 149.546789 
L 318.100149 149.546789 
z
" clip-path="url(#p834e14d6bf)" style="fill: #00008b; opacity: 0.3"/>
   </g>
   <g id="patch_96">
    <path d="M 321.428557 166.028575 
L 324.756964 166.028575 
L 324.756964 150.51871 
L 321.428557 150.51871 
z
" clip-path="url(#p834e14d6bf)" style="fill: #00008b; opacity: 0.3"/>
   </g>
   <g id="patch_97">
    <path d="M 324.756964 166.028575 
L 328.085371 166.028575 
L 328.085371 149.773873 
L 324.756964 149.773873 
z
" clip-path="url(#p834e14d6bf)" style="fill: #00008b; opacity: 0.3"/>
   </g>
   <g id="patch_98">
    <path d="M 328.085371 166.028575 
L 331.413779 166.028575 
L 331.413779 155.628109 
L 328.085371 155.628109 
z
" clip-path="url(#p834e14d6bf)" style="fill: #00008b; opacity: 0.3"/>
   </g>
   <g id="patch_99">
    <path d="M 331.413779 166.028575 
L 334.742186 166.028575 
L 334.742186 154.07031 
L 331.413779 154.07031 
z
" clip-path="url(#p834e14d6bf)" style="fill: #00008b; opacity: 0.3"/>
   </g>
   <g id="patch_100">
    <path d="M 334.742186 166.028575 
L 338.070593 166.028575 
L 338.070593 162.672268 
L 334.742186 162.672268 
z
" clip-path="url(#p834e14d6bf)" style="fill: #00008b; opacity: 0.3"/>
   </g>
   <g id="patch_101">
    <path d="M 338.070593 166.028575 
L 341.399 166.028575 
L 341.399 164.838653 
L 338.070593 164.838653 
z
" clip-path="url(#p834e14d6bf)" style="fill: #00008b; opacity: 0.3"/>
   </g>
   <g id="patch_102">
    <path d="M 341.399 166.028575 
L 344.727408 166.028575 
L 344.727408 165.597115 
L 341.399 165.597115 
z
" clip-path="url(#p834e14d6bf)" style="fill: #00008b; opacity: 0.3"/>
   </g>
   <g id="patch_103">
    <path d="M 344.727408 166.028575 
L 348.055815 166.028575 
L 348.055815 165.388197 
L 344.727408 165.388197 
z
" clip-path="url(#p834e14d6bf)" style="fill: #00008b; opacity: 0.3"/>
   </g>
   <g id="patch_104">
    <path d="M 348.055815 166.028575 
L 351.384222 166.028575 
L 351.384222 164.734194 
L 348.055815 164.734194 
z
" clip-path="url(#p834e14d6bf)" style="fill: #00008b; opacity: 0.3"/>
   </g>
   <g id="patch_105">
    <path d="M 351.384222 166.028575 
L 354.71263 166.028575 
L 354.71263 164.484401 
L 351.384222 164.484401 
z
" clip-path="url(#p834e14d6bf)" style="fill: #00008b; opacity: 0.3"/>
   </g>
   <g id="patch_106">
    <path d="M 354.71263 166.028575 
L 358.041037 166.028575 
L 358.041037 165.796949 
L 354.71263 165.796949 
z
" clip-path="url(#p834e14d6bf)" style="fill: #00008b; opacity: 0.3"/>
   </g>
   <g id="patch_107">
    <path d="M 358.041037 166.028575 
L 361.369444 166.028575 
L 361.369444 165.865074 
L 358.041037 165.865074 
z
" clip-path="url(#p834e14d6bf)" style="fill: #00008b; opacity: 0.3"/>
   </g>
   <g id="patch_108">
    <path d="M 361.369444 166.028575 
L 364.697852 166.028575 
L 364.697852 165.796949 
L 361.369444 165.796949 
z
" clip-path="url(#p834e14d6bf)" style="fill: #00008b; opacity: 0.3"/>
   </g>
   <g id="patch_109">
    <path d="M 364.697852 166.028575 
L 368.026259 166.028575 
L 368.026259 165.860533 
L 364.697852 165.860533 
z
" clip-path="url(#p834e14d6bf)" style="fill: #00008b; opacity: 0.3"/>
   </g>
   <g id="patch_110">
    <path d="M 368.026259 166.028575 
L 371.354666 166.028575 
L 371.354666 165.406364 
L 368.026259 165.406364 
z
" clip-path="url(#p834e14d6bf)" style="fill: #00008b; opacity: 0.3"/>
   </g>
   <g id="patch_111">
    <path d="M 371.354666 166.028575 
L 374.683073 166.028575 
L 374.683073 165.406364 
L 371.354666 165.406364 
z
" clip-path="url(#p834e14d6bf)" style="fill: #00008b; opacity: 0.3"/>
   </g>
   <g id="patch_112">
    <path d="M 374.683073 166.028575 
L 378.011481 166.028575 
L 378.011481 165.074821 
L 374.683073 165.074821 
z
" clip-path="url(#p834e14d6bf)" style="fill: #00008b; opacity: 0.3"/>
   </g>
   <g id="patch_113">
    <path d="M 378.011481 166.028575 
L 381.339888 166.028575 
L 381.339888 165.915033 
L 378.011481 165.915033 
z
" clip-path="url(#p834e14d6bf)" style="fill: #00008b; opacity: 0.3"/>
   </g>
   <g id="patch_114">
    <path d="M 381.339888 166.028575 
L 384.668295 166.028575 
L 384.668295 165.915033 
L 381.339888 165.915033 
z
" clip-path="url(#p834e14d6bf)" style="fill: #00008b; opacity: 0.3"/>
   </g>
   <g id="patch_115">
    <path d="M 384.668295 166.028575 
L 387.996703 166.028575 
L 387.996703 165.746991 
L 384.668295 165.746991 
z
" clip-path="url(#p834e14d6bf)" style="fill: #00008b; opacity: 0.3"/>
   </g>
   <g id="patch_116">
    <path d="M 387.996703 166.028575 
L 391.32511 166.028575 
L 391.32511 165.724282 
L 387.996703 165.724282 
z
" clip-path="url(#p834e14d6bf)" style="fill: #00008b; opacity: 0.3"/>
   </g>
   <g id="patch_117">
    <path d="M 391.32511 166.028575 
L 394.653517 166.028575 
L 394.653517 165.842366 
L 391.32511 165.842366 
z
" clip-path="url(#p834e14d6bf)" style="fill: #00008b; opacity: 0.3"/>
   </g>
   <g id="patch_118">
    <path d="M 394.653517 166.028575 
L 397.981925 166.028575 
L 397.981925 165.63799 
L 394.653517 165.63799 
z
" clip-path="url(#p834e14d6bf)" style="fill: #00008b; opacity: 0.3"/>
   </g>
   <g id="patch_119">
    <path d="M 397.981925 166.028575 
L 401.310332 166.028575 
L 401.310332 161.723055 
L 397.981925 161.723055 
z
" clip-path="url(#p834e14d6bf)" style="fill: #00008b; opacity: 0.3"/>
   </g>
   <g id="patch_120">
    <path d="M 401.310332 166.028575 
L 404.638739 166.028575 
L 404.638739 165.924116 
L 401.310332 165.924116 
z
" clip-path="url(#p834e14d6bf)" style="fill: #00008b; opacity: 0.3"/>
   </g>
   <g id="patch_121">
    <path d="M 404.638739 166.028575 
L 407.967147 166.028575 
L 407.967147 165.992242 
L 404.638739 165.992242 
z
" clip-path="url(#p834e14d6bf)" style="fill: #00008b; opacity: 0.3"/>
   </g>
   <g id="patch_122">
    <path d="M 407.967147 166.028575 
L 411.295554 166.028575 
L 411.295554 165.942283 
L 407.967147 165.942283 
z
" clip-path="url(#p834e14d6bf)" style="fill: #00008b; opacity: 0.3"/>
   </g>
   <g id="patch_123">
    <path d="M 263.150244 166.028575 
L 267.643692 166.028575 
L 267.643692 71.630798 
L 263.150244 71.630798 
z
" clip-path="url(#p834e14d6bf)" style="fill: #006400; opacity: 0.3"/>
   </g>
   <g id="patch_124">
    <path d="M 267.643692 166.028575 
L 272.13714 166.028575 
L 272.13714 165.174084 
L 267.643692 165.174084 
z
" clip-path="url(#p834e14d6bf)" style="fill: #006400; opacity: 0.3"/>
   </g>
   <g id="patch_125">
    <path d="M 272.13714 166.028575 
L 276.630587 166.028575 
L 276.630587 146.180147 
L 272.13714 146.180147 
z
" clip-path="url(#p834e14d6bf)" style="fill: #006400; opacity: 0.3"/>
   </g>
   <g id="patch_126">
    <path d="M 276.630587 166.028575 
L 281.124035 166.028575 
L 281.124035 161.641736 
L 276.630587 161.641736 
z
" clip-path="url(#p834e14d6bf)" style="fill: #006400; opacity: 0.3"/>
   </g>
   <g id="patch_127">
    <path d="M 281.124035 166.028575 
L 285.617482 166.028575 
L 285.617482 164.608908 
L 281.124035 164.608908 
z
" clip-path="url(#p834e14d6bf)" style="fill: #006400; opacity: 0.3"/>
   </g>
   <g id="patch_128">
    <path d="M 285.617482 166.028575 
L 290.11093 166.028575 
L 290.11093 164.955414 
L 285.617482 164.955414 
z
" clip-path="url(#p834e14d6bf)" style="fill: #006400; opacity: 0.3"/>
   </g>
   <g id="patch_129">
    <path d="M 290.11093 166.028575 
L 294.604377 166.028575 
L 294.604377 164.763658 
L 290.11093 164.763658 
z
" clip-path="url(#p834e14d6bf)" style="fill: #006400; opacity: 0.3"/>
   </g>
   <g id="patch_130">
    <path d="M 294.604377 166.028575 
L 299.097825 166.028575 
L 299.097825 162.354934 
L 294.604377 162.354934 
z
" clip-path="url(#p834e14d6bf)" style="fill: #006400; opacity: 0.3"/>
   </g>
   <g id="patch_131">
    <path d="M 299.097825 166.028575 
L 303.591273 166.028575 
L 303.591273 164.161477 
L 299.097825 164.161477 
z
" clip-path="url(#p834e14d6bf)" style="fill: #006400; opacity: 0.3"/>
   </g>
   <g id="patch_132">
    <path d="M 303.591273 166.028575 
L 308.08472 166.028575 
L 308.08472 164.359962 
L 303.591273 164.359962 
z
" clip-path="url(#p834e14d6bf)" style="fill: #006400; opacity: 0.3"/>
   </g>
   <g id="patch_133">
    <path d="M 308.08472 166.028575 
L 312.578168 166.028575 
L 312.578168 161.365877 
L 308.08472 161.365877 
z
" clip-path="url(#p834e14d6bf)" style="fill: #006400; opacity: 0.3"/>
   </g>
   <g id="patch_134">
    <path d="M 312.578168 166.028575 
L 317.071615 166.028575 
L 317.071615 163.461736 
L 312.578168 163.461736 
z
" clip-path="url(#p834e14d6bf)" style="fill: #006400; opacity: 0.3"/>
   </g>
   <g id="patch_135">
    <path d="M 317.071615 166.028575 
L 321.565063 166.028575 
L 321.565063 161.278409 
L 317.071615 161.278409 
z
" clip-path="url(#p834e14d6bf)" style="fill: #006400; opacity: 0.3"/>
   </g>
   <g id="patch_136">
    <path d="M 321.565063 166.028575 
L 326.05851 166.028575 
L 326.05851 139.414861 
L 321.565063 139.414861 
z
" clip-path="url(#p834e14d6bf)" style="fill: #006400; opacity: 0.3"/>
   </g>
   <g id="patch_137">
    <path d="M 326.05851 166.028575 
L 330.551958 166.028575 
L 330.551958 151.159075 
L 326.05851 151.159075 
z
" clip-path="url(#p834e14d6bf)" style="fill: #006400; opacity: 0.3"/>
   </g>
   <g id="patch_138">
    <path d="M 330.551958 166.028575 
L 335.045406 166.028575 
L 335.045406 159.889019 
L 330.551958 159.889019 
z
" clip-path="url(#p834e14d6bf)" style="fill: #006400; opacity: 0.3"/>
   </g>
   <g id="patch_139">
    <path d="M 335.045406 166.028575 
L 339.538853 166.028575 
L 339.538853 162.883104 
L 335.045406 162.883104 
z
" clip-path="url(#p834e14d6bf)" style="fill: #006400; opacity: 0.3"/>
   </g>
   <g id="patch_140">
    <path d="M 339.538853 166.028575 
L 344.032301 166.028575 
L 344.032301 157.968095 
L 339.538853 157.968095 
z
" clip-path="url(#p834e14d6bf)" style="fill: #006400; opacity: 0.3"/>
   </g>
   <g id="patch_141">
    <path d="M 344.032301 166.028575 
L 348.525748 166.028575 
L 348.525748 159.024435 
L 344.032301 159.024435 
z
" clip-path="url(#p834e14d6bf)" style="fill: #006400; opacity: 0.3"/>
   </g>
   <g id="patch_142">
    <path d="M 348.525748 166.028575 
L 353.019196 166.028575 
L 353.019196 162.647614 
L 348.525748 162.647614 
z
" clip-path="url(#p834e14d6bf)" style="fill: #006400; opacity: 0.3"/>
   </g>
   <g id="patch_143">
    <path d="M 353.019196 166.028575 
L 357.512643 166.028575 
L 357.512643 161.517263 
L 353.019196 161.517263 
z
" clip-path="url(#p834e14d6bf)" style="fill: #006400; opacity: 0.3"/>
   </g>
   <g id="patch_144">
    <path d="M 357.512643 166.028575 
L 362.006091 166.028575 
L 362.006091 163.485285 
L 357.512643 163.485285 
z
" clip-path="url(#p834e14d6bf)" style="fill: #006400; opacity: 0.3"/>
   </g>
   <g id="patch_145">
    <path d="M 362.006091 166.028575 
L 366.499539 166.028575 
L 366.499539 164.174934 
L 362.006091 164.174934 
z
" clip-path="url(#p834e14d6bf)" style="fill: #006400; opacity: 0.3"/>
   </g>
   <g id="patch_146">
    <path d="M 366.499539 166.028575 
L 370.992986 166.028575 
L 370.992986 162.509684 
L 366.499539 162.509684 
z
" clip-path="url(#p834e14d6bf)" style="fill: #006400; opacity: 0.3"/>
   </g>
   <g id="patch_147">
    <path d="M 370.992986 166.028575 
L 375.486434 166.028575 
L 375.486434 159.189278 
L 370.992986 159.189278 
z
" clip-path="url(#p834e14d6bf)" style="fill: #006400; opacity: 0.3"/>
   </g>
   <g id="patch_148">
    <path d="M 375.486434 166.028575 
L 379.979881 166.028575 
L 379.979881 163.411274 
L 375.486434 163.411274 
z
" clip-path="url(#p834e14d6bf)" style="fill: #006400; opacity: 0.3"/>
   </g>
   <g id="patch_149">
    <path d="M 379.979881 166.028575 
L 384.473329 166.028575 
L 384.473329 161.167392 
L 379.979881 161.167392 
z
" clip-path="url(#p834e14d6bf)" style="fill: #006400; opacity: 0.3"/>
   </g>
   <g id="patch_150">
    <path d="M 384.473329 166.028575 
L 388.966776 166.028575 
L 388.966776 163.592938 
L 384.473329 163.592938 
z
" clip-path="url(#p834e14d6bf)" style="fill: #006400; opacity: 0.3"/>
   </g>
   <g id="patch_151">
    <path d="M 388.966776 166.028575 
L 393.460224 166.028575 
L 393.460224 164.067281 
L 388.966776 164.067281 
z
" clip-path="url(#p834e14d6bf)" style="fill: #006400; opacity: 0.3"/>
   </g>
   <g id="patch_152">
    <path d="M 393.460224 166.028575 
L 397.953672 166.028575 
L 397.953672 162.099259 
L 393.460224 162.099259 
z
" clip-path="url(#p834e14d6bf)" style="fill: #006400; opacity: 0.3"/>
   </g>
   <g id="patch_153">
    <path d="M 397.953672 166.028575 
L 402.447119 166.028575 
L 402.447119 164.69974 
L 397.953672 164.69974 
z
" clip-path="url(#p834e14d6bf)" style="fill: #006400; opacity: 0.3"/>
   </g>
   <g id="patch_154">
    <path d="M 402.447119 166.028575 
L 406.940567 166.028575 
L 406.940567 164.787207 
L 402.447119 164.787207 
z
" clip-path="url(#p834e14d6bf)" style="fill: #006400; opacity: 0.3"/>
   </g>
   <g id="patch_155">
    <path d="M 406.940567 166.028575 
L 411.434014 166.028575 
L 411.434014 163.892346 
L 406.940567 163.892346 
z
" clip-path="url(#p834e14d6bf)" style="fill: #006400; opacity: 0.3"/>
   </g>
   <g id="patch_156">
    <path d="M 411.434014 166.028575 
L 415.927462 166.028575 
L 415.927462 162.563511 
L 411.434014 162.563511 
z
" clip-path="url(#p834e14d6bf)" style="fill: #006400; opacity: 0.3"/>
   </g>
   <g id="patch_157">
    <path d="M 415.927462 166.028575 
L 420.420909 166.028575 
L 420.420909 160.861256 
L 415.927462 160.861256 
z
" clip-path="url(#p834e14d6bf)" style="fill: #006400; opacity: 0.3"/>
   </g>
   <g id="patch_158">
    <path d="M 420.420909 166.028575 
L 424.914357 166.028575 
L 424.914357 164.121108 
L 420.420909 164.121108 
z
" clip-path="url(#p834e14d6bf)" style="fill: #006400; opacity: 0.3"/>
   </g>
   <g id="patch_159">
    <path d="M 424.914357 166.028575 
L 429.407805 166.028575 
L 429.407805 164.514712 
L 424.914357 164.514712 
z
" clip-path="url(#p834e14d6bf)" style="fill: #006400; opacity: 0.3"/>
   </g>
   <g id="patch_160">
    <path d="M 429.407805 166.028575 
L 433.901252 166.028575 
L 433.901252 160.565211 
L 429.407805 160.565211 
z
" clip-path="url(#p834e14d6bf)" style="fill: #006400; opacity: 0.3"/>
   </g>
   <g id="patch_161">
    <path d="M 433.901252 166.028575 
L 438.3947 166.028575 
L 438.3947 162.889832 
L 433.901252 162.889832 
z
" clip-path="url(#p834e14d6bf)" style="fill: #006400; opacity: 0.3"/>
   </g>
   <g id="patch_162">
    <path d="M 438.3947 166.028575 
L 442.888147 166.028575 
L 442.888147 157.783067 
L 438.3947 157.783067 
z
" clip-path="url(#p834e14d6bf)" style="fill: #006400; opacity: 0.3"/>
   </g>
   <g id="patch_163">
    <path d="M 442.888147 166.028575 
L 447.381595 166.028575 
L 447.381595 157.036228 
L 442.888147 157.036228 
z
" clip-path="url(#p834e14d6bf)" style="fill: #006400; opacity: 0.3"/>
   </g>
   <g id="patch_164">
    <path d="M 447.381595 166.028575 
L 451.875042 166.028575 
L 451.875042 160.931903 
L 447.381595 160.931903 
z
" clip-path="url(#p834e14d6bf)" style="fill: #006400; opacity: 0.3"/>
   </g>
   <g id="patch_165">
    <path d="M 451.875042 166.028575 
L 456.36849 166.028575 
L 456.36849 143.60658 
L 451.875042 143.60658 
z
" clip-path="url(#p834e14d6bf)" style="fill: #006400; opacity: 0.3"/>
   </g>
   <g id="patch_166">
    <path d="M 456.36849 166.028575 
L 460.861938 166.028575 
L 460.861938 160.548391 
L 456.36849 160.548391 
z
" clip-path="url(#p834e14d6bf)" style="fill: #006400; opacity: 0.3"/>
   </g>
   <g id="patch_167">
    <path d="M 460.861938 166.028575 
L 465.355385 166.028575 
L 465.355385 164.265766 
L 460.861938 164.265766 
z
" clip-path="url(#p834e14d6bf)" style="fill: #006400; opacity: 0.3"/>
   </g>
   <g id="patch_168">
    <path d="M 465.355385 166.028575 
L 469.848833 166.028575 
L 469.848833 165.48022 
L 465.355385 165.48022 
z
" clip-path="url(#p834e14d6bf)" style="fill: #006400; opacity: 0.3"/>
   </g>
   <g id="patch_169">
    <path d="M 469.848833 166.028575 
L 474.34228 166.028575 
L 474.34228 163.734232 
L 469.848833 163.734232 
z
" clip-path="url(#p834e14d6bf)" style="fill: #006400; opacity: 0.3"/>
   </g>
   <g id="patch_170">
    <path d="M 474.34228 166.028575 
L 478.835728 166.028575 
L 478.835728 164.191755 
L 474.34228 164.191755 
z
" clip-path="url(#p834e14d6bf)" style="fill: #006400; opacity: 0.3"/>
   </g>
   <g id="patch_171">
    <path d="M 478.835728 166.028575 
L 483.329175 166.028575 
L 483.329175 164.511348 
L 478.835728 164.511348 
z
" clip-path="url(#p834e14d6bf)" style="fill: #006400; opacity: 0.3"/>
   </g>
   <g id="patch_172">
    <path d="M 483.329175 166.028575 
L 487.822623 166.028575 
L 487.822623 164.656006 
L 483.329175 164.656006 
z
" clip-path="url(#p834e14d6bf)" style="fill: #006400; opacity: 0.3"/>
   </g>
   <g id="patch_173">
    <path d="M 487.822623 166.028575 
L 492.316071 166.028575 
L 492.316071 164.83767 
L 487.822623 164.83767 
z
" clip-path="url(#p834e14d6bf)" style="fill: #006400; opacity: 0.3"/>
   </g>
   <g id="patch_174">
    <path d="M 492.316071 166.028575 
L 496.809518 166.028575 
L 496.809518 165.022697 
L 492.316071 165.022697 
z
" clip-path="url(#p834e14d6bf)" style="fill: #006400; opacity: 0.3"/>
   </g>
   <g id="patch_175">
    <path d="M 496.809518 166.028575 
L 501.302966 166.028575 
L 501.302966 165.338926 
L 496.809518 165.338926 
z
" clip-path="url(#p834e14d6bf)" style="fill: #006400; opacity: 0.3"/>
   </g>
   <g id="patch_176">
    <path d="M 501.302966 166.028575 
L 505.796413 166.028575 
L 505.796413 165.406209 
L 501.302966 165.406209 
z
" clip-path="url(#p834e14d6bf)" style="fill: #006400; opacity: 0.3"/>
   </g>
   <g id="patch_177">
    <path d="M 505.796413 166.028575 
L 510.289861 166.028575 
L 510.289861 165.81327 
L 505.796413 165.81327 
z
" clip-path="url(#p834e14d6bf)" style="fill: #006400; opacity: 0.3"/>
   </g>
   <g id="patch_178">
    <path d="M 510.289861 166.028575 
L 514.783309 166.028575 
L 514.783309 165.745987 
L 510.289861 165.745987 
z
" clip-path="url(#p834e14d6bf)" style="fill: #006400; opacity: 0.3"/>
   </g>
   <g id="patch_179">
    <path d="M 514.783309 166.028575 
L 519.276756 166.028575 
L 519.276756 165.692161 
L 514.783309 165.692161 
z
" clip-path="url(#p834e14d6bf)" style="fill: #006400; opacity: 0.3"/>
   </g>
   <g id="patch_180">
    <path d="M 519.276756 166.028575 
L 523.770204 166.028575 
L 523.770204 165.742623 
L 519.276756 165.742623 
z
" clip-path="url(#p834e14d6bf)" style="fill: #006400; opacity: 0.3"/>
   </g>
   <g id="patch_181">
    <path d="M 523.770204 166.028575 
L 528.263651 166.028575 
L 528.263651 165.954564 
L 523.770204 165.954564 
z
" clip-path="url(#p834e14d6bf)" style="fill: #006400; opacity: 0.3"/>
   </g>
   <g id="patch_182">
    <path d="M 528.263651 166.028575 
L 532.757099 166.028575 
L 532.757099 165.968021 
L 528.263651 165.968021 
z
" clip-path="url(#p834e14d6bf)" style="fill: #006400; opacity: 0.3"/>
   </g>
   <g id="matplotlib.axis_1">
    <g id="xtick_1">
     <g id="line2d_1">
      <defs>
       <path id="mc1a94a6c9f" d="M 0 0 
L 0 3.5 
" style="stroke: #000000; stroke-width: 0.8"/>
      </defs>
      <g>
       <use xlink:href="#mc1a94a6c9f" x="60.660534" y="166.028575" style="stroke: #000000; stroke-width: 0.8"/>
      </g>
     </g>
     <g id="text_1">
      <!-- $\mathdefault{160}$ -->
      <g transform="translate(51.149424 182.022603)scale(0.13 -0.13)">
       <defs>
        <path id="CMR17-31" d="M 1702 4058 
C 1702 4192 1696 4192 1606 4192 
C 1357 3916 979 3827 621 3827 
C 602 3827 570 3827 563 3808 
C 557 3795 557 3782 557 3648 
C 755 3648 1088 3686 1344 3839 
L 1344 461 
C 1344 236 1331 160 781 160 
L 589 160 
L 589 0 
C 896 0 1216 0 1523 0 
C 1830 0 2150 0 2458 0 
L 2458 160 
L 2266 160 
C 1715 160 1702 230 1702 458 
L 1702 4058 
z
" transform="scale(0.015625)"/>
        <path id="CMR17-36" d="M 678 2176 
C 678 3690 1395 4032 1811 4032 
C 1946 4032 2272 4009 2400 3776 
C 2298 3776 2106 3776 2106 3553 
C 2106 3381 2246 3323 2336 3323 
C 2394 3323 2566 3348 2566 3560 
C 2566 3954 2246 4179 1805 4179 
C 1043 4179 243 3390 243 1984 
C 243 253 966 -128 1478 -128 
C 2099 -128 2688 427 2688 1283 
C 2688 2081 2170 2662 1517 2662 
C 1126 2662 838 2407 678 1960 
L 678 2176 
z
M 1478 25 
C 691 25 691 1200 691 1436 
C 691 1896 909 2560 1504 2560 
C 1613 2560 1926 2560 2138 2120 
C 2253 1870 2253 1609 2253 1289 
C 2253 944 2253 690 2118 434 
C 1978 171 1773 25 1478 25 
z
" transform="scale(0.015625)"/>
        <path id="CMR17-30" d="M 2688 2025 
C 2688 2416 2682 3080 2413 3591 
C 2176 4039 1798 4198 1466 4198 
C 1158 4198 768 4058 525 3597 
C 269 3118 243 2524 243 2025 
C 243 1661 250 1106 448 619 
C 723 -39 1216 -128 1466 -128 
C 1760 -128 2208 -7 2470 600 
C 2662 1042 2688 1559 2688 2025 
z
M 1466 -26 
C 1056 -26 813 325 723 812 
C 653 1188 653 1738 653 2096 
C 653 2588 653 2997 736 3387 
C 858 3929 1216 4096 1466 4096 
C 1728 4096 2067 3923 2189 3400 
C 2272 3036 2278 2607 2278 2096 
C 2278 1680 2278 1169 2202 792 
C 2067 95 1690 -26 1466 -26 
z
" transform="scale(0.015625)"/>
       </defs>
       <use xlink:href="#CMR17-31" transform="scale(0.996264)"/>
       <use xlink:href="#CMR17-36" transform="translate(45.690477 0)scale(0.996264)"/>
       <use xlink:href="#CMR17-30" transform="translate(91.380954 0)scale(0.996264)"/>
      </g>
     </g>
    </g>
    <g id="xtick_2">
     <g id="line2d_2">
      <g>
       <use xlink:href="#mc1a94a6c9f" x="122.054592" y="166.028575" style="stroke: #000000; stroke-width: 0.8"/>
      </g>
     </g>
     <g id="text_2">
      <!-- $\mathdefault{170}$ -->
      <g transform="translate(112.543483 182.022603)scale(0.13 -0.13)">
       <defs>
        <path id="CMR17-37" d="M 2886 3941 
L 2886 4081 
L 1382 4081 
C 634 4081 621 4165 595 4288 
L 480 4288 
L 294 3094 
L 410 3094 
C 429 3215 474 3540 550 3661 
C 589 3712 1062 3712 1171 3712 
L 2579 3712 
L 1869 2661 
C 1395 1954 1069 999 1069 165 
C 1069 89 1069 -128 1299 -128 
C 1530 -128 1530 89 1530 171 
L 1530 465 
C 1530 1508 1709 2196 2003 2636 
L 2886 3941 
z
" transform="scale(0.015625)"/>
       </defs>
       <use xlink:href="#CMR17-31" transform="scale(0.996264)"/>
       <use xlink:href="#CMR17-37" transform="translate(45.690477 0)scale(0.996264)"/>
       <use xlink:href="#CMR17-30" transform="translate(91.380954 0)scale(0.996264)"/>
      </g>
     </g>
    </g>
    <g id="xtick_3">
     <g id="line2d_3">
      <g>
       <use xlink:href="#mc1a94a6c9f" x="183.448651" y="166.028575" style="stroke: #000000; stroke-width: 0.8"/>
      </g>
     </g>
     <g id="text_3">
      <!-- $\mathdefault{180}$ -->
      <g transform="translate(173.937542 182.022603)scale(0.13 -0.13)">
       <defs>
        <path id="CMR17-38" d="M 1741 2264 
C 2144 2467 2554 2773 2554 3263 
C 2554 3841 1990 4179 1472 4179 
C 890 4179 378 3759 378 3180 
C 378 3021 416 2747 666 2505 
C 730 2442 998 2251 1171 2130 
C 883 1983 211 1634 211 934 
C 211 279 838 -128 1459 -128 
C 2144 -128 2720 362 2720 1010 
C 2720 1590 2330 1857 2074 2029 
L 1741 2264 
z
M 902 2822 
C 851 2854 595 3051 595 3351 
C 595 3739 998 4032 1459 4032 
C 1965 4032 2336 3676 2336 3262 
C 2336 2669 1670 2331 1638 2331 
C 1632 2331 1626 2331 1574 2370 
L 902 2822 
z
M 2080 1519 
C 2176 1449 2483 1240 2483 851 
C 2483 381 2010 25 1472 25 
C 890 25 448 438 448 940 
C 448 1443 838 1862 1280 2060 
L 2080 1519 
z
" transform="scale(0.015625)"/>
       </defs>
       <use xlink:href="#CMR17-31" transform="scale(0.996264)"/>
       <use xlink:href="#CMR17-38" transform="translate(45.690477 0)scale(0.996264)"/>
       <use xlink:href="#CMR17-30" transform="translate(91.380954 0)scale(0.996264)"/>
      </g>
     </g>
    </g>
    <g id="xtick_4">
     <g id="line2d_4">
      <g>
       <use xlink:href="#mc1a94a6c9f" x="244.84271" y="166.028575" style="stroke: #000000; stroke-width: 0.8"/>
      </g>
     </g>
     <g id="text_4">
      <!-- $\mathdefault{190}$ -->
      <g transform="translate(235.331601 182.022603)scale(0.13 -0.13)">
       <defs>
        <path id="CMR17-39" d="M 2253 1864 
C 2253 464 1670 31 1190 31 
C 1043 31 685 31 538 294 
C 704 268 826 357 826 518 
C 826 692 685 749 595 749 
C 538 749 365 723 365 506 
C 365 71 742 -128 1203 -128 
C 1939 -128 2688 674 2688 2073 
C 2688 3817 1971 4179 1485 4179 
C 851 4179 243 3628 243 2778 
C 243 1991 762 1408 1414 1408 
C 1952 1408 2189 1903 2253 2112 
L 2253 1864 
z
M 1427 1510 
C 1254 1510 1011 1542 813 1922 
C 678 2169 678 2461 678 2771 
C 678 3146 678 3405 858 3684 
C 947 3817 1114 4032 1485 4032 
C 2240 4032 2240 2885 2240 2632 
C 2240 2182 2035 1510 1427 1510 
z
" transform="scale(0.015625)"/>
       </defs>
       <use xlink:href="#CMR17-31" transform="scale(0.996264)"/>
       <use xlink:href="#CMR17-39" transform="translate(45.690477 0)scale(0.996264)"/>
       <use xlink:href="#CMR17-30" transform="translate(91.380954 0)scale(0.996264)"/>
      </g>
     </g>
    </g>
    <g id="xtick_5">
     <g id="line2d_5">
      <g>
       <use xlink:href="#mc1a94a6c9f" x="306.236769" y="166.028575" style="stroke: #000000; stroke-width: 0.8"/>
      </g>
     </g>
     <g id="text_5">
      <!-- $\mathdefault{200}$ -->
      <g transform="translate(296.725659 182.022603)scale(0.13 -0.13)">
       <defs>
        <path id="CMR17-32" d="M 2669 989 
L 2554 989 
C 2490 536 2438 459 2413 420 
C 2381 369 1920 369 1830 369 
L 602 369 
C 832 619 1280 1072 1824 1597 
C 2214 1967 2669 2402 2669 3035 
C 2669 3790 2067 4224 1395 4224 
C 691 4224 262 3604 262 3030 
C 262 2780 448 2748 525 2748 
C 589 2748 781 2787 781 3010 
C 781 3207 614 3264 525 3264 
C 486 3264 448 3258 422 3245 
C 544 3790 915 4058 1306 4058 
C 1862 4058 2227 3617 2227 3035 
C 2227 2479 1901 2000 1536 1584 
L 262 146 
L 262 0 
L 2515 0 
L 2669 989 
z
" transform="scale(0.015625)"/>
       </defs>
       <use xlink:href="#CMR17-32" transform="scale(0.996264)"/>
       <use xlink:href="#CMR17-30" transform="translate(45.690477 0)scale(0.996264)"/>
       <use xlink:href="#CMR17-30" transform="translate(91.380954 0)scale(0.996264)"/>
      </g>
     </g>
    </g>
    <g id="xtick_6">
     <g id="line2d_6">
      <g>
       <use xlink:href="#mc1a94a6c9f" x="367.630827" y="166.028575" style="stroke: #000000; stroke-width: 0.8"/>
      </g>
     </g>
     <g id="text_6">
      <!-- $\mathdefault{210}$ -->
      <g transform="translate(358.119718 182.022603)scale(0.13 -0.13)">
       <use xlink:href="#CMR17-32" transform="scale(0.996264)"/>
       <use xlink:href="#CMR17-31" transform="translate(45.690477 0)scale(0.996264)"/>
       <use xlink:href="#CMR17-30" transform="translate(91.380954 0)scale(0.996264)"/>
      </g>
     </g>
    </g>
    <g id="xtick_7">
     <g id="line2d_7">
      <g>
       <use xlink:href="#mc1a94a6c9f" x="429.024886" y="166.028575" style="stroke: #000000; stroke-width: 0.8"/>
      </g>
     </g>
     <g id="text_7">
      <!-- $\mathdefault{220}$ -->
      <g transform="translate(419.513777 182.022603)scale(0.13 -0.13)">
       <use xlink:href="#CMR17-32" transform="scale(0.996264)"/>
       <use xlink:href="#CMR17-32" transform="translate(45.690477 0)scale(0.996264)"/>
       <use xlink:href="#CMR17-30" transform="translate(91.380954 0)scale(0.996264)"/>
      </g>
     </g>
    </g>
    <g id="xtick_8">
     <g id="line2d_8">
      <g>
       <use xlink:href="#mc1a94a6c9f" x="490.418945" y="166.028575" style="stroke: #000000; stroke-width: 0.8"/>
      </g>
     </g>
     <g id="text_8">
      <!-- $\mathdefault{230}$ -->
      <g transform="translate(480.907836 182.022603)scale(0.13 -0.13)">
       <defs>
        <path id="CMR17-33" d="M 1414 2157 
C 1984 2157 2234 1662 2234 1090 
C 2234 320 1824 25 1453 25 
C 1114 25 563 194 390 693 
C 422 680 454 680 486 680 
C 640 680 755 782 755 948 
C 755 1133 614 1216 486 1216 
C 378 1216 211 1165 211 926 
C 211 335 787 -128 1466 -128 
C 2176 -128 2720 430 2720 1085 
C 2720 1707 2208 2157 1600 2227 
C 2086 2328 2554 2756 2554 3329 
C 2554 3820 2048 4179 1472 4179 
C 890 4179 378 3829 378 3329 
C 378 3110 544 3072 627 3072 
C 762 3072 877 3155 877 3321 
C 877 3486 762 3569 627 3569 
C 602 3569 570 3569 544 3557 
C 730 3959 1235 4032 1459 4032 
C 1683 4032 2106 3925 2106 3320 
C 2106 3143 2080 2828 1862 2550 
C 1670 2304 1453 2304 1242 2284 
C 1210 2284 1062 2269 1037 2269 
C 992 2263 966 2257 966 2208 
C 966 2163 973 2157 1101 2157 
L 1414 2157 
z
" transform="scale(0.015625)"/>
       </defs>
       <use xlink:href="#CMR17-32" transform="scale(0.996264)"/>
       <use xlink:href="#CMR17-33" transform="translate(45.690477 0)scale(0.996264)"/>
       <use xlink:href="#CMR17-30" transform="translate(91.380954 0)scale(0.996264)"/>
      </g>
     </g>
    </g>
    <g id="xtick_9">
     <g id="line2d_9">
      <g>
       <use xlink:href="#mc1a94a6c9f" x="551.813004" y="166.028575" style="stroke: #000000; stroke-width: 0.8"/>
      </g>
     </g>
     <g id="text_9">
      <!-- $\mathdefault{240}$ -->
      <g transform="translate(542.301895 182.022603)scale(0.13 -0.13)">
       <defs>
        <path id="CMR17-34" d="M 2150 4122 
C 2150 4256 2144 4256 2029 4256 
L 128 1254 
L 128 1088 
L 1779 1088 
L 1779 457 
C 1779 224 1766 160 1318 160 
L 1197 160 
L 1197 0 
C 1402 0 1747 0 1965 0 
C 2182 0 2528 0 2733 0 
L 2733 160 
L 2611 160 
C 2163 160 2150 224 2150 457 
L 2150 1088 
L 2803 1088 
L 2803 1254 
L 2150 1254 
L 2150 4122 
z
M 1798 3703 
L 1798 1254 
L 256 1254 
L 1798 3703 
z
" transform="scale(0.015625)"/>
       </defs>
       <use xlink:href="#CMR17-32" transform="scale(0.996264)"/>
       <use xlink:href="#CMR17-34" transform="translate(45.690477 0)scale(0.996264)"/>
       <use xlink:href="#CMR17-30" transform="translate(91.380954 0)scale(0.996264)"/>
      </g>
     </g>
    </g>
    <g id="text_10">
     <!-- spring constant $k_{1,2,3}$ (N/m) -->
     <g transform="translate(218.790496 198.25449)scale(0.13 -0.13)">
      <defs>
       <path id="CMR17-73" d="M 1978 2697 
C 1978 2813 1971 2819 1933 2819 
C 1907 2819 1901 2813 1824 2717 
C 1805 2691 1747 2626 1728 2601 
C 1523 2819 1235 2819 1126 2819 
C 416 2819 160 2447 160 2076 
C 160 1498 813 1365 998 1325 
C 1402 1243 1542 1217 1677 1101 
C 1760 1025 1901 884 1901 654 
C 1901 384 1747 38 1158 38 
C 602 38 403 460 288 1021 
C 269 1110 269 1117 218 1117 
C 166 1117 160 1110 160 983 
L 160 63 
C 160 -51 166 -58 205 -58 
C 237 -58 243 -51 275 0 
C 314 57 410 211 448 276 
C 576 103 800 -64 1158 -64 
C 1792 -64 2131 283 2131 784 
C 2131 1112 1958 1285 1875 1362 
C 1683 1561 1459 1606 1190 1657 
C 838 1735 390 1825 390 2217 
C 390 2383 480 2737 1126 2737 
C 1811 2737 1850 2094 1862 1888 
C 1869 1856 1901 1849 1920 1849 
C 1978 1849 1978 1869 1978 1978 
L 1978 2697 
z
" transform="scale(0.015625)"/>
       <path id="CMR17-70" d="M 1408 -1063 
C 998 -1063 973 -1037 973 -789 
L 973 402 
C 1158 134 1427 -38 1766 -38 
C 2406 -38 3053 523 3053 1388 
C 3053 2191 2496 2802 1837 2802 
C 1453 2802 1139 2592 960 2338 
L 960 2802 
L 198 2732 
L 198 2567 
C 576 2567 634 2528 634 2223 
L 634 -789 
C 634 -1031 608 -1063 198 -1063 
L 198 -1228 
C 352 -1216 634 -1216 800 -1216 
C 966 -1216 1254 -1216 1408 -1228 
L 1408 -1063 
z
M 973 2012 
C 973 2102 973 2235 1222 2471 
C 1254 2497 1472 2688 1792 2688 
C 2259 2688 2643 2108 2643 1382 
C 2643 656 2234 64 1728 64 
C 1498 64 1248 172 1056 472 
C 973 612 973 650 973 752 
L 973 2012 
z
" transform="scale(0.015625)"/>
       <path id="CMR17-72" d="M 960 1497 
C 960 2112 1222 2688 1702 2688 
C 1747 2688 1792 2682 1837 2662 
C 1837 2662 1696 2617 1696 2452 
C 1696 2298 1818 2234 1914 2234 
C 1990 2234 2131 2279 2131 2458 
C 2131 2663 1926 2790 1709 2790 
C 1222 2790 1011 2317 947 2093 
L 941 2093 
L 941 2790 
L 198 2720 
L 198 2554 
C 576 2554 634 2515 634 2208 
L 634 428 
C 634 184 608 153 198 153 
L 198 -13 
C 352 0 646 0 813 0 
C 998 0 1325 0 1498 -13 
L 1498 153 
C 1037 153 960 153 960 440 
L 960 1497 
z
" transform="scale(0.015625)"/>
       <path id="CMR17-69" d="M 992 3909 
C 992 4049 877 4170 730 4170 
C 589 4170 467 4056 467 3909 
C 467 3769 582 3648 730 3648 
C 870 3648 992 3763 992 3909 
z
M 243 2706 
L 243 2541 
C 602 2541 653 2502 653 2197 
L 653 427 
C 653 184 627 153 218 153 
L 218 -13 
C 371 0 646 0 806 0 
C 960 0 1222 0 1370 -13 
L 1370 153 
C 992 153 979 191 979 420 
L 979 2776 
L 243 2706 
z
" transform="scale(0.015625)"/>
       <path id="CMR17-6e" d="M 2656 1933 
C 2656 2259 2592 2790 1837 2790 
C 1331 2790 1069 2400 973 2144 
L 966 2144 
L 966 2790 
L 211 2720 
L 211 2554 
C 589 2554 646 2515 646 2208 
L 646 428 
C 646 184 621 153 211 153 
L 211 -13 
C 365 0 646 0 813 0 
C 979 0 1267 0 1421 -13 
L 1421 153 
C 1011 153 986 178 986 428 
L 986 1658 
C 986 2247 1344 2688 1792 2688 
C 2266 2688 2317 2266 2317 1958 
L 2317 428 
C 2317 184 2291 153 1882 153 
L 1882 -13 
C 2035 0 2317 0 2483 0 
C 2650 0 2938 0 3091 -13 
L 3091 153 
C 2682 153 2656 178 2656 428 
L 2656 1933 
z
" transform="scale(0.015625)"/>
       <path id="CMR17-67" d="M 710 1164 
C 832 1068 1043 960 1299 960 
C 1805 960 2240 1357 2240 1888 
C 2240 2054 2189 2310 1997 2509 
C 2176 2692 2438 2752 2586 2752 
C 2611 2752 2650 2752 2682 2734 
C 2656 2728 2598 2703 2598 2605 
C 2598 2527 2656 2471 2739 2471 
C 2835 2471 2886 2533 2886 2614 
C 2886 2731 2790 2854 2586 2854 
C 2330 2854 2106 2738 1926 2580 
C 1734 2753 1504 2816 1299 2816 
C 794 2816 358 2419 358 1888 
C 358 1522 570 1292 634 1228 
C 442 1004 442 743 442 711 
C 442 545 506 302 723 168 
C 390 85 128 -169 128 -486 
C 128 -943 736 -1280 1466 -1280 
C 2170 -1280 2803 -956 2803 -479 
C 2803 384 1856 384 1363 384 
C 1216 384 954 384 922 391 
C 723 423 589 602 589 826 
C 589 883 589 1024 710 1164 
z
M 1299 1068 
C 736 1068 736 1760 736 1889 
C 736 2016 736 2708 1299 2708 
C 1862 2708 1862 2016 1862 1889 
C 1862 1760 1862 1068 1299 1068 
z
M 1466 -1171 
C 826 -1171 384 -835 384 -486 
C 384 -289 493 -105 634 -4 
C 794 104 858 104 1293 104 
C 1818 104 2547 104 2547 -486 
C 2547 -835 2106 -1171 1466 -1171 
z
" transform="scale(0.015625)"/>
       <path id="CMR17-63" d="M 2234 2240 
C 2112 2240 1933 2240 1933 2017 
C 1933 1838 2080 1787 2163 1787 
C 2208 1787 2394 1807 2394 2024 
C 2394 2467 1958 2803 1466 2803 
C 787 2803 211 2178 211 1363 
C 211 516 813 -64 1466 -64 
C 2259 -64 2458 677 2458 748 
C 2458 774 2451 793 2406 793 
C 2362 793 2355 787 2330 703 
C 2163 180 1798 51 1523 51 
C 1114 51 621 427 621 1369 
C 621 2338 1094 2688 1472 2688 
C 1722 2688 2093 2573 2234 2240 
z
" transform="scale(0.015625)"/>
       <path id="CMR17-6f" d="M 2758 1356 
C 2758 2176 2163 2816 1466 2816 
C 768 2816 173 2176 173 1356 
C 173 551 768 -64 1466 -64 
C 2163 -64 2758 551 2758 1356 
z
M 1466 51 
C 1165 51 909 230 762 480 
C 602 767 582 1126 582 1408 
C 582 1677 595 2010 762 2298 
C 890 2509 1139 2714 1466 2714 
C 1754 2714 1997 2554 2150 2330 
C 2349 2029 2349 1607 2349 1408 
C 2349 1158 2336 775 2163 467 
C 1984 173 1709 51 1466 51 
z
" transform="scale(0.015625)"/>
       <path id="CMR17-74" d="M 966 2560 
L 1862 2560 
L 1862 2725 
L 966 2725 
L 966 3904 
L 851 3904 
C 838 3245 614 2668 70 2668 
L 70 2560 
L 627 2560 
L 627 771 
C 627 650 627 -64 1370 -64 
C 1747 -64 1965 306 1965 777 
L 1965 1140 
L 1850 1140 
L 1850 783 
C 1850 344 1677 51 1408 51 
C 1222 51 966 178 966 758 
L 966 2560 
z
" transform="scale(0.015625)"/>
       <path id="CMR17-61" d="M 2304 1653 
C 2304 2072 2304 2294 2035 2543 
C 1798 2752 1523 2816 1306 2816 
C 800 2816 435 2407 435 1971 
C 435 1728 627 1728 666 1728 
C 749 1728 896 1778 896 1954 
C 896 2112 774 2181 666 2181 
C 640 2181 608 2174 589 2168 
C 723 2592 1069 2714 1293 2714 
C 1613 2714 1965 2429 1965 1885 
L 1965 1600 
C 1587 1600 1133 1549 774 1357 
C 371 1133 256 813 256 570 
C 256 77 832 -64 1171 -64 
C 1523 -64 1850 139 1990 511 
C 2003 233 2182 -18 2464 -18 
C 2598 -18 2938 70 2938 567 
L 2938 920 
L 2822 920 
L 2822 562 
C 2822 178 2650 128 2566 128 
C 2304 128 2304 458 2304 738 
L 2304 1653 
z
M 1965 870 
C 1965 317 1568 38 1216 38 
C 896 38 646 275 646 570 
C 646 761 730 1100 1101 1305 
C 1408 1478 1760 1504 1965 1504 
L 1965 870 
z
" transform="scale(0.015625)"/>
       <path id="CMMI12-6b" d="M 1798 4257 
C 1805 4283 1818 4321 1818 4352 
C 1818 4416 1754 4416 1741 4416 
C 1734 4416 1504 4393 1389 4377 
C 1280 4377 1184 4358 1069 4358 
C 915 4345 870 4339 870 4224 
C 870 4160 934 4160 998 4160 
C 1325 4160 1325 4103 1325 4040 
C 1325 4015 1325 4002 1293 3888 
L 378 248 
C 352 152 352 140 352 101 
C 352 -38 461 -64 525 -64 
C 704 -64 742 77 794 275 
L 1094 1469 
C 1555 1418 1830 1226 1830 920 
C 1830 881 1830 856 1811 760 
C 1786 664 1786 588 1786 556 
C 1786 185 2029 -64 2355 -64 
C 2650 -64 2803 204 2854 294 
C 2989 530 3072 888 3072 913 
C 3072 945 3046 971 3008 971 
C 2950 971 2944 945 2918 843 
C 2829 511 2694 64 2368 64 
C 2240 64 2157 128 2157 370 
C 2157 492 2182 632 2208 728 
C 2234 843 2234 849 2234 926 
C 2234 1303 1894 1514 1306 1590 
C 1536 1731 1766 1980 1856 2076 
C 2221 2484 2470 2689 2765 2689 
C 2912 2689 2950 2650 2995 2612 
C 2758 2586 2669 2420 2669 2293 
C 2669 2139 2790 2088 2880 2088 
C 3053 2088 3206 2235 3206 2440 
C 3206 2625 3059 2816 2771 2816 
C 2419 2816 2131 2567 1677 2056 
C 1613 1980 1376 1737 1139 1648 
L 1798 4257 
z
" transform="scale(0.015625)"/>
       <path id="CMMI12-3b" d="M 1248 -31 
C 1248 343 1126 619 864 619 
C 659 619 557 453 557 313 
C 557 172 653 0 870 0 
C 954 0 1024 26 1082 83 
C 1094 96 1101 96 1107 96 
C 1120 96 1120 5 1120 -27 
C 1120 -240 1082 -659 710 -1080 
C 640 -1157 640 -1170 640 -1183 
C 640 -1216 672 -1248 704 -1248 
C 755 -1248 1248 -771 1248 -31 
z
" transform="scale(0.015625)"/>
       <path id="CMR17-28" d="M 1958 -1561 
C 1958 -1555 1958 -1542 1939 -1523 
C 1645 -1224 858 -407 858 1581 
C 858 3569 1632 4379 1946 4697 
C 1946 4704 1958 4717 1958 4736 
C 1958 4755 1939 4768 1914 4768 
C 1843 4768 1299 4296 986 3594 
C 666 2887 576 2199 576 1588 
C 576 1128 621 351 1005 -471 
C 1312 -1135 1837 -1600 1914 -1600 
C 1946 -1600 1958 -1587 1958 -1561 
z
" transform="scale(0.015625)"/>
       <path id="CMR17-4e" d="M 1312 4250 
C 1267 4320 1261 4320 1139 4320 
L 326 4320 
L 326 4160 
L 448 4160 
C 704 4160 819 4129 838 4122 
L 838 610 
C 838 451 838 153 326 153 
L 326 -13 
C 474 0 742 0 902 0 
C 1062 0 1331 0 1478 -13 
L 1478 153 
C 966 153 966 451 966 610 
L 966 4033 
C 1011 3995 1011 3982 1056 3919 
L 3430 76 
C 3475 0 3494 0 3526 0 
C 3590 0 3590 19 3590 139 
L 3590 3705 
C 3590 3863 3590 4160 4102 4160 
L 4102 4326 
C 3955 4320 3686 4320 3526 4320 
C 3366 4320 3098 4320 2950 4326 
L 2950 4160 
C 3462 4160 3462 3862 3462 3703 
L 3462 763 
L 1312 4250 
z
" transform="scale(0.015625)"/>
       <path id="CMR17-2f" d="M 2605 4545 
C 2637 4627 2637 4640 2637 4653 
C 2637 4729 2579 4768 2528 4768 
C 2451 4768 2426 4717 2400 4640 
L 326 -1377 
C 294 -1460 294 -1473 294 -1486 
C 294 -1562 352 -1600 403 -1600 
C 480 -1600 506 -1549 531 -1473 
L 2605 4545 
z
" transform="scale(0.015625)"/>
       <path id="CMR17-6d" d="M 4326 1933 
C 4326 2252 4269 2790 3507 2790 
C 3072 2790 2771 2496 2656 2151 
L 2650 2151 
C 2573 2676 2195 2790 1837 2790 
C 1331 2790 1069 2400 973 2144 
L 966 2144 
L 966 2790 
L 211 2720 
L 211 2554 
C 589 2554 646 2515 646 2208 
L 646 428 
C 646 184 621 153 211 153 
L 211 -13 
C 365 0 646 0 813 0 
C 979 0 1267 0 1421 -13 
L 1421 153 
C 1011 153 986 178 986 428 
L 986 1658 
C 986 2247 1344 2688 1792 2688 
C 2266 2688 2317 2266 2317 1958 
L 2317 428 
C 2317 184 2291 153 1882 153 
L 1882 -13 
C 2035 0 2317 0 2483 0 
C 2650 0 2938 0 3091 -13 
L 3091 153 
C 2682 153 2656 178 2656 428 
L 2656 1658 
C 2656 2247 3014 2688 3462 2688 
C 3936 2688 3987 2266 3987 1958 
L 3987 428 
C 3987 184 3962 153 3552 153 
L 3552 -13 
C 3706 0 3987 0 4154 0 
C 4320 0 4608 0 4762 -13 
L 4762 153 
C 4352 153 4326 178 4326 428 
L 4326 1933 
z
" transform="scale(0.015625)"/>
       <path id="CMR17-29" d="M 1683 1581 
C 1683 2040 1638 2817 1254 3639 
C 947 4303 422 4768 346 4768 
C 326 4768 301 4761 301 4729 
C 301 4717 307 4710 314 4697 
C 621 4378 1402 3568 1402 1584 
C 1402 -407 627 -1217 314 -1537 
C 307 -1549 301 -1556 301 -1568 
C 301 -1600 326 -1600 346 -1600 
C 416 -1600 960 -1128 1274 -426 
C 1594 281 1683 969 1683 1581 
z
" transform="scale(0.015625)"/>
      </defs>
      <use xlink:href="#CMR17-73" transform="scale(0.996264)"/>
      <use xlink:href="#CMR17-70" transform="translate(35.801338 0)scale(0.996264)"/>
      <use xlink:href="#CMR17-72" transform="translate(86.696707 0)scale(0.996264)"/>
      <use xlink:href="#CMR17-69" transform="translate(121.977475 0)scale(0.996264)"/>
      <use xlink:href="#CMR17-6e" transform="translate(146.848534 0)scale(0.996264)"/>
      <use xlink:href="#CMR17-67" transform="translate(197.743903 0)scale(0.996264)"/>
      <use xlink:href="#CMR17-63" transform="translate(273.510347 0)scale(0.996264)"/>
      <use xlink:href="#CMR17-6f" transform="translate(313.996007 0)scale(0.996264)"/>
      <use xlink:href="#CMR17-6e" transform="translate(359.686485 0)scale(0.996264)"/>
      <use xlink:href="#CMR17-73" transform="translate(410.581854 0)scale(0.996264)"/>
      <use xlink:href="#CMR17-74" transform="translate(446.383192 0)scale(0.996264)"/>
      <use xlink:href="#CMR17-61" transform="translate(481.66396 0)scale(0.996264)"/>
      <use xlink:href="#CMR17-6e" transform="translate(527.354437 0)scale(0.996264)"/>
      <use xlink:href="#CMR17-74" transform="translate(575.647353 0)scale(0.996264)"/>
      <use xlink:href="#CMMI12-6b" transform="translate(641.004087 0)scale(0.996264)"/>
      <use xlink:href="#CMR17-31" transform="translate(691.739275 -14.943915)scale(0.697382)"/>
      <use xlink:href="#CMMI12-3b" transform="translate(723.722457 -14.943915)scale(0.697382)"/>
      <use xlink:href="#CMR17-32" transform="translate(742.69039 -14.943915)scale(0.697382)"/>
      <use xlink:href="#CMMI12-3b" transform="translate(774.673572 -14.943915)scale(0.697382)"/>
      <use xlink:href="#CMR17-33" transform="translate(793.641505 -14.943915)scale(0.697382)"/>
      <use xlink:href="#CMR17-28" transform="translate(856.198785 0)scale(0.996264)"/>
      <use xlink:href="#CMR17-4e" transform="translate(891.479553 0)scale(0.996264)"/>
      <use xlink:href="#CMR17-2f" transform="translate(960.551983 0)scale(0.996264)"/>
      <use xlink:href="#CMR17-6d" transform="translate(1006.24246 0)scale(0.996264)"/>
      <use xlink:href="#CMR17-29" transform="translate(1083.16205 0)scale(0.996264)"/>
     </g>
    </g>
   </g>
   <g id="matplotlib.axis_2">
    <g id="ytick_1">
     <g id="line2d_10">
      <defs>
       <path id="me8c63c1d0e" d="M 0 0 
L -3.5 0 
" style="stroke: #000000; stroke-width: 0.8"/>
      </defs>
      <g>
       <use xlink:href="#me8c63c1d0e" x="37.244112" y="166.028575" style="stroke: #000000; stroke-width: 0.8"/>
      </g>
     </g>
     <g id="text_11">
      <!-- $\mathdefault{0.0}$ -->
      <g transform="translate(14.04 170.525589)scale(0.13 -0.13)">
       <defs>
        <path id="CMMI12-3a" d="M 1178 307 
C 1178 492 1024 619 870 619 
C 685 619 557 466 557 313 
C 557 128 710 0 864 0 
C 1050 0 1178 153 1178 307 
z
" transform="scale(0.015625)"/>
       </defs>
       <use xlink:href="#CMR17-30" transform="scale(0.996264)"/>
       <use xlink:href="#CMMI12-3a" transform="translate(45.690477 0)scale(0.996264)"/>
       <use xlink:href="#CMR17-30" transform="translate(72.787654 0)scale(0.996264)"/>
      </g>
     </g>
    </g>
    <g id="ytick_2">
     <g id="line2d_11">
      <g>
       <use xlink:href="#me8c63c1d0e" x="37.244112" y="116.78411" style="stroke: #000000; stroke-width: 0.8"/>
      </g>
     </g>
     <g id="text_12">
      <!-- $\mathdefault{0.2}$ -->
      <g transform="translate(14.04 121.281124)scale(0.13 -0.13)">
       <use xlink:href="#CMR17-30" transform="scale(0.996264)"/>
       <use xlink:href="#CMMI12-3a" transform="translate(45.690477 0)scale(0.996264)"/>
       <use xlink:href="#CMR17-32" transform="translate(72.787654 0)scale(0.996264)"/>
      </g>
     </g>
    </g>
    <g id="ytick_3">
     <g id="line2d_12">
      <g>
       <use xlink:href="#me8c63c1d0e" x="37.244112" y="67.539644" style="stroke: #000000; stroke-width: 0.8"/>
      </g>
     </g>
     <g id="text_13">
      <!-- $\mathdefault{0.4}$ -->
      <g transform="translate(14.04 72.036658)scale(0.13 -0.13)">
       <use xlink:href="#CMR17-30" transform="scale(0.996264)"/>
       <use xlink:href="#CMMI12-3a" transform="translate(45.690477 0)scale(0.996264)"/>
       <use xlink:href="#CMR17-34" transform="translate(72.787654 0)scale(0.996264)"/>
      </g>
     </g>
    </g>
    <g id="ytick_4">
     <g id="line2d_13">
      <g>
       <use xlink:href="#me8c63c1d0e" x="37.244112" y="18.295178" style="stroke: #000000; stroke-width: 0.8"/>
      </g>
     </g>
     <g id="text_14">
      <!-- $\mathdefault{0.6}$ -->
      <g transform="translate(14.04 22.792192)scale(0.13 -0.13)">
       <use xlink:href="#CMR17-30" transform="scale(0.996264)"/>
       <use xlink:href="#CMMI12-3a" transform="translate(45.690477 0)scale(0.996264)"/>
       <use xlink:href="#CMR17-36" transform="translate(72.787654 0)scale(0.996264)"/>
      </g>
     </g>
    </g>
   </g>
   <g id="patch_183">
    <path d="M 37.244112 166.028575 
L 37.244112 15.359205 
" style="fill: none; stroke: #000000; stroke-width: 0.8; stroke-linejoin: miter; stroke-linecap: square"/>
   </g>
   <g id="patch_184">
    <path d="M 556.352955 166.028575 
L 556.352955 15.359205 
" style="fill: none; stroke: #000000; stroke-width: 0.8; stroke-linejoin: miter; stroke-linecap: square"/>
   </g>
   <g id="patch_185">
    <path d="M 37.244112 166.028575 
L 556.352955 166.028575 
" style="fill: none; stroke: #000000; stroke-width: 0.8; stroke-linejoin: miter; stroke-linecap: square"/>
   </g>
   <g id="patch_186">
    <path d="M 37.244112 15.359205 
L 556.352955 15.359205 
" style="fill: none; stroke: #000000; stroke-width: 0.8; stroke-linejoin: miter; stroke-linecap: square"/>
   </g>
   <g id="legend_1">
    <g id="patch_187">
     <path d="M 494.398529 80.114142 
L 547.252955 80.114142 
Q 549.852955 80.114142 549.852955 77.514142 
L 549.852955 24.459205 
Q 549.852955 21.859205 547.252955 21.859205 
L 494.398529 21.859205 
Q 491.798529 21.859205 491.798529 24.459205 
L 491.798529 77.514142 
Q 491.798529 80.114142 494.398529 80.114142 
z
" style="fill: #ffffff; opacity: 0.8; stroke: #cccccc; stroke-linejoin: miter"/>
    </g>
    <g id="patch_188">
     <path d="M 496.998529 36.159205 
L 522.998529 36.159205 
L 522.998529 27.059205 
L 496.998529 27.059205 
z
" style="fill: #800000; opacity: 0.3"/>
    </g>
    <g id="text_15">
     <!-- $k_1$ -->
     <g transform="translate(533.398529 36.159205)scale(0.13 -0.13)">
      <use xlink:href="#CMMI12-6b" transform="scale(0.996264)"/>
      <use xlink:href="#CMR17-31" transform="translate(50.735189 -14.943915)scale(0.697382)"/>
     </g>
    </g>
    <g id="patch_189">
     <path d="M 496.998529 54.277517 
L 522.998529 54.277517 
L 522.998529 45.177517 
L 496.998529 45.177517 
z
" style="fill: #00008b; opacity: 0.3"/>
    </g>
    <g id="text_16">
     <!-- $k_2$ -->
     <g transform="translate(533.398529 54.277517)scale(0.13 -0.13)">
      <use xlink:href="#CMMI12-6b" transform="scale(0.996264)"/>
      <use xlink:href="#CMR17-32" transform="translate(50.735189 -14.943915)scale(0.697382)"/>
     </g>
    </g>
    <g id="patch_190">
     <path d="M 496.998529 72.395829 
L 522.998529 72.395829 
L 522.998529 63.295829 
L 496.998529 63.295829 
z
" style="fill: #006400; opacity: 0.3"/>
    </g>
    <g id="text_17">
     <!-- $k_3$ -->
     <g transform="translate(533.398529 72.395829)scale(0.13 -0.13)">
      <use xlink:href="#CMMI12-6b" transform="scale(0.996264)"/>
      <use xlink:href="#CMR17-33" transform="translate(50.735189 -14.943915)scale(0.697382)"/>
     </g>
    </g>
   </g>
  </g>
 </g>
 <defs>
  <clipPath id="p834e14d6bf">
   <rect x="37.244112" y="15.359205" width="519.108843" height="150.66937"/>
  </clipPath>
 </defs>
</svg>
