<?xml version="1.0" encoding="utf-8" standalone="no"?>
<!DOCTYPE svg PUBLIC "-//W3C//DTD SVG 1.1//EN"
  "http://www.w3.org/Graphics/SVG/1.1/DTD/svg11.dtd">
<svg xmlns:xlink="http://www.w3.org/1999/xlink" width="576pt" height="288pt" viewBox="0 0 576 288" xmlns="http://www.w3.org/2000/svg" version="1.1">
 <metadata>
  <rdf:RDF xmlns:dc="http://purl.org/dc/elements/1.1/" xmlns:cc="http://creativecommons.org/ns#" xmlns:rdf="http://www.w3.org/1999/02/22-rdf-syntax-ns#">
   <cc:Work>
    <dc:type rdf:resource="http://purl.org/dc/dcmitype/StillImage"/>
    <dc:date>2023-07-18T16:09:49.944183</dc:date>
    <dc:format>image/svg+xml</dc:format>
    <dc:creator>
     <cc:Agent>
      <dc:title>Matplotlib v3.7.1, https://matplotlib.org/</dc:title>
     </cc:Agent>
    </dc:creator>
   </cc:Work>
  </rdf:RDF>
 </metadata>
 <defs>
  <style type="text/css">*{stroke-linejoin: round; stroke-linecap: butt}</style>
 </defs>
 <g id="figure_1">
  <g id="patch_1">
   <path d="M 0 288 
L 576 288 
L 576 0 
L 0 0 
z
" style="fill: #ffffff"/>
  </g>
  <g id="axes_1">
   <g id="patch_2">
    <path d="M 72 145.44 
L 518.4 145.44 
L 518.4 34.56 
L 72 34.56 
z
" style="fill: #ffffff"/>
   </g>
   <g id="matplotlib.axis_1"/>
   <g id="matplotlib.axis_2">
    <g id="ytick_1">
     <g id="line2d_1">
      <defs>
       <path id="m509725b9b7" d="M 0 0 
L -3.5 0 
" style="stroke: #000000; stroke-width: 0.8"/>
      </defs>
      <g>
       <use xlink:href="#m509725b9b7" x="72" y="120.716859" style="stroke: #000000; stroke-width: 0.8"/>
      </g>
     </g>
     <g id="text_1">
      <!-- $\mathdefault{−0.025}$ -->
      <g transform="translate(26.041039 125.213873) scale(0.13 -0.13)">
       <defs>
        <path id="CMSY10-0" d="M 4218 1472 
C 4326 1472 4442 1472 4442 1600 
C 4442 1728 4326 1728 4218 1728 
L 755 1728 
C 646 1728 531 1728 531 1600 
C 531 1472 646 1472 755 1472 
L 4218 1472 
z
" transform="scale(0.015625)"/>
        <path id="CMR17-30" d="M 2688 2025 
C 2688 2416 2682 3080 2413 3591 
C 2176 4039 1798 4198 1466 4198 
C 1158 4198 768 4058 525 3597 
C 269 3118 243 2524 243 2025 
C 243 1661 250 1106 448 619 
C 723 -39 1216 -128 1466 -128 
C 1760 -128 2208 -7 2470 600 
C 2662 1042 2688 1559 2688 2025 
z
M 1466 -26 
C 1056 -26 813 325 723 812 
C 653 1188 653 1738 653 2096 
C 653 2588 653 2997 736 3387 
C 858 3929 1216 4096 1466 4096 
C 1728 4096 2067 3923 2189 3400 
C 2272 3036 2278 2607 2278 2096 
C 2278 1680 2278 1169 2202 792 
C 2067 95 1690 -26 1466 -26 
z
" transform="scale(0.015625)"/>
        <path id="CMMI12-3a" d="M 1178 307 
C 1178 492 1024 619 870 619 
C 685 619 557 466 557 313 
C 557 128 710 0 864 0 
C 1050 0 1178 153 1178 307 
z
" transform="scale(0.015625)"/>
        <path id="CMR17-32" d="M 2669 989 
L 2554 989 
C 2490 536 2438 459 2413 420 
C 2381 369 1920 369 1830 369 
L 602 369 
C 832 619 1280 1072 1824 1597 
C 2214 1967 2669 2402 2669 3035 
C 2669 3790 2067 4224 1395 4224 
C 691 4224 262 3604 262 3030 
C 262 2780 448 2748 525 2748 
C 589 2748 781 2787 781 3010 
C 781 3207 614 3264 525 3264 
C 486 3264 448 3258 422 3245 
C 544 3790 915 4058 1306 4058 
C 1862 4058 2227 3617 2227 3035 
C 2227 2479 1901 2000 1536 1584 
L 262 146 
L 262 0 
L 2515 0 
L 2669 989 
z
" transform="scale(0.015625)"/>
        <path id="CMR17-35" d="M 730 3692 
C 794 3666 1056 3584 1325 3584 
C 1920 3584 2246 3911 2432 4100 
C 2432 4157 2432 4192 2394 4192 
C 2387 4192 2374 4192 2323 4163 
C 2099 4058 1837 3973 1517 3973 
C 1325 3973 1037 3999 723 4139 
C 653 4171 640 4171 634 4171 
C 602 4171 595 4164 595 4037 
L 595 2203 
C 595 2089 595 2057 659 2057 
C 691 2057 704 2070 736 2114 
C 941 2401 1222 2522 1542 2522 
C 1766 2522 2246 2382 2246 1289 
C 2246 1085 2246 715 2054 421 
C 1894 159 1645 25 1370 25 
C 947 25 518 320 403 814 
C 429 807 480 795 506 795 
C 589 795 749 840 749 1038 
C 749 1210 627 1280 506 1280 
C 358 1280 262 1190 262 1011 
C 262 454 704 -128 1382 -128 
C 2042 -128 2669 440 2669 1264 
C 2669 2030 2170 2624 1549 2624 
C 1222 2624 947 2503 730 2274 
L 730 3692 
z
" transform="scale(0.015625)"/>
       </defs>
       <use xlink:href="#CMSY10-0" transform="scale(0.996264)"/>
       <use xlink:href="#CMR17-30" transform="translate(77.487468 0) scale(0.996264)"/>
       <use xlink:href="#CMMI12-3a" transform="translate(123.177945 0) scale(0.996264)"/>
       <use xlink:href="#CMR17-30" transform="translate(150.275122 0) scale(0.996264)"/>
       <use xlink:href="#CMR17-32" transform="translate(195.965599 0) scale(0.996264)"/>
       <use xlink:href="#CMR17-35" transform="translate(241.656076 0) scale(0.996264)"/>
      </g>
     </g>
    </g>
    <g id="ytick_2">
     <g id="line2d_2">
      <g>
       <use xlink:href="#m509725b9b7" x="72" y="90.062202" style="stroke: #000000; stroke-width: 0.8"/>
      </g>
     </g>
     <g id="text_2">
      <!-- $\mathdefault{0.000}$ -->
      <g transform="translate(36.114409 94.559216) scale(0.13 -0.13)">
       <use xlink:href="#CMR17-30" transform="scale(0.996264)"/>
       <use xlink:href="#CMMI12-3a" transform="translate(45.690477 0) scale(0.996264)"/>
       <use xlink:href="#CMR17-30" transform="translate(72.787654 0) scale(0.996264)"/>
       <use xlink:href="#CMR17-30" transform="translate(118.478131 0) scale(0.996264)"/>
       <use xlink:href="#CMR17-30" transform="translate(164.168608 0) scale(0.996264)"/>
      </g>
     </g>
    </g>
    <g id="ytick_3">
     <g id="line2d_3">
      <g>
       <use xlink:href="#m509725b9b7" x="72" y="59.407545" style="stroke: #000000; stroke-width: 0.8"/>
      </g>
     </g>
     <g id="text_3">
      <!-- $\mathdefault{0.025}$ -->
      <g transform="translate(36.114409 63.904559) scale(0.13 -0.13)">
       <use xlink:href="#CMR17-30" transform="scale(0.996264)"/>
       <use xlink:href="#CMMI12-3a" transform="translate(45.690477 0) scale(0.996264)"/>
       <use xlink:href="#CMR17-30" transform="translate(72.787654 0) scale(0.996264)"/>
       <use xlink:href="#CMR17-32" transform="translate(118.478131 0) scale(0.996264)"/>
       <use xlink:href="#CMR17-35" transform="translate(164.168608 0) scale(0.996264)"/>
      </g>
     </g>
    </g>
    <g id="text_4">
     <!-- displacement (m) -->
     <g transform="translate(18.803181 138.119159) rotate(-90) scale(0.13 -0.13)">
      <defs>
       <path id="CMR17-64" d="M 1869 4326 
L 1869 4160 
C 2246 4160 2304 4122 2304 3820 
L 2304 2345 
C 2278 2377 2016 2790 1498 2790 
C 845 2790 211 2208 211 1364 
C 211 525 806 -64 1434 -64 
C 1978 -64 2259 337 2291 380 
L 2291 -63 
L 3066 -63 
L 3066 128 
C 2688 128 2630 166 2630 473 
L 2630 4396 
L 1869 4326 
z
M 2291 755 
C 2291 563 2176 390 2029 262 
C 1811 70 1594 38 1472 38 
C 1286 38 621 134 621 1356 
C 621 2612 1363 2688 1530 2688 
C 1824 2688 2061 2522 2208 2291 
C 2291 2157 2291 2138 2291 2023 
L 2291 755 
z
" transform="scale(0.015625)"/>
       <path id="CMR17-69" d="M 992 3909 
C 992 4049 877 4170 730 4170 
C 589 4170 467 4056 467 3909 
C 467 3769 582 3648 730 3648 
C 870 3648 992 3763 992 3909 
z
M 243 2706 
L 243 2541 
C 602 2541 653 2502 653 2197 
L 653 427 
C 653 184 627 153 218 153 
L 218 -13 
C 371 0 646 0 806 0 
C 960 0 1222 0 1370 -13 
L 1370 153 
C 992 153 979 191 979 420 
L 979 2776 
L 243 2706 
z
" transform="scale(0.015625)"/>
       <path id="CMR17-73" d="M 1978 2697 
C 1978 2813 1971 2819 1933 2819 
C 1907 2819 1901 2813 1824 2717 
C 1805 2691 1747 2626 1728 2601 
C 1523 2819 1235 2819 1126 2819 
C 416 2819 160 2447 160 2076 
C 160 1498 813 1365 998 1325 
C 1402 1243 1542 1217 1677 1101 
C 1760 1025 1901 884 1901 654 
C 1901 384 1747 38 1158 38 
C 602 38 403 460 288 1021 
C 269 1110 269 1117 218 1117 
C 166 1117 160 1110 160 983 
L 160 63 
C 160 -51 166 -58 205 -58 
C 237 -58 243 -51 275 0 
C 314 57 410 211 448 276 
C 576 103 800 -64 1158 -64 
C 1792 -64 2131 283 2131 784 
C 2131 1112 1958 1285 1875 1362 
C 1683 1561 1459 1606 1190 1657 
C 838 1735 390 1825 390 2217 
C 390 2383 480 2737 1126 2737 
C 1811 2737 1850 2094 1862 1888 
C 1869 1856 1901 1849 1920 1849 
C 1978 1849 1978 1869 1978 1978 
L 1978 2697 
z
" transform="scale(0.015625)"/>
       <path id="CMR17-70" d="M 1408 -1063 
C 998 -1063 973 -1037 973 -789 
L 973 402 
C 1158 134 1427 -38 1766 -38 
C 2406 -38 3053 523 3053 1388 
C 3053 2191 2496 2802 1837 2802 
C 1453 2802 1139 2592 960 2338 
L 960 2802 
L 198 2732 
L 198 2567 
C 576 2567 634 2528 634 2223 
L 634 -789 
C 634 -1031 608 -1063 198 -1063 
L 198 -1228 
C 352 -1216 634 -1216 800 -1216 
C 966 -1216 1254 -1216 1408 -1228 
L 1408 -1063 
z
M 973 2012 
C 973 2102 973 2235 1222 2471 
C 1254 2497 1472 2688 1792 2688 
C 2259 2688 2643 2108 2643 1382 
C 2643 656 2234 64 1728 64 
C 1498 64 1248 172 1056 472 
C 973 612 973 650 973 752 
L 973 2012 
z
" transform="scale(0.015625)"/>
       <path id="CMR17-6c" d="M 979 4396 
L 218 4326 
L 218 4160 
C 595 4160 653 4122 653 3817 
L 653 426 
C 653 184 627 153 218 153 
L 218 -13 
C 371 0 653 0 813 0 
C 979 0 1261 0 1414 -13 
L 1414 153 
C 1005 153 979 178 979 426 
L 979 4396 
z
" transform="scale(0.015625)"/>
       <path id="CMR17-61" d="M 2304 1653 
C 2304 2072 2304 2294 2035 2543 
C 1798 2752 1523 2816 1306 2816 
C 800 2816 435 2407 435 1971 
C 435 1728 627 1728 666 1728 
C 749 1728 896 1778 896 1954 
C 896 2112 774 2181 666 2181 
C 640 2181 608 2174 589 2168 
C 723 2592 1069 2714 1293 2714 
C 1613 2714 1965 2429 1965 1885 
L 1965 1600 
C 1587 1600 1133 1549 774 1357 
C 371 1133 256 813 256 570 
C 256 77 832 -64 1171 -64 
C 1523 -64 1850 139 1990 511 
C 2003 233 2182 -18 2464 -18 
C 2598 -18 2938 70 2938 567 
L 2938 920 
L 2822 920 
L 2822 562 
C 2822 178 2650 128 2566 128 
C 2304 128 2304 458 2304 738 
L 2304 1653 
z
M 1965 870 
C 1965 317 1568 38 1216 38 
C 896 38 646 275 646 570 
C 646 761 730 1100 1101 1305 
C 1408 1478 1760 1504 1965 1504 
L 1965 870 
z
" transform="scale(0.015625)"/>
       <path id="CMR17-63" d="M 2234 2240 
C 2112 2240 1933 2240 1933 2017 
C 1933 1838 2080 1787 2163 1787 
C 2208 1787 2394 1807 2394 2024 
C 2394 2467 1958 2803 1466 2803 
C 787 2803 211 2178 211 1363 
C 211 516 813 -64 1466 -64 
C 2259 -64 2458 677 2458 748 
C 2458 774 2451 793 2406 793 
C 2362 793 2355 787 2330 703 
C 2163 180 1798 51 1523 51 
C 1114 51 621 427 621 1369 
C 621 2338 1094 2688 1472 2688 
C 1722 2688 2093 2573 2234 2240 
z
" transform="scale(0.015625)"/>
       <path id="CMR17-65" d="M 2438 1472 
C 2464 1498 2464 1511 2464 1576 
C 2464 2238 2118 2816 1389 2816 
C 710 2816 173 2169 173 1383 
C 173 551 781 -64 1459 -64 
C 2176 -64 2458 607 2458 740 
C 2458 784 2419 784 2406 784 
C 2362 784 2355 771 2330 696 
C 2189 265 1837 51 1504 51 
C 1229 51 954 203 781 480 
C 582 803 582 1176 582 1472 
L 2438 1472 
z
M 589 1568 
C 634 2505 1126 2714 1382 2714 
C 1818 2714 2112 2297 2118 1568 
L 589 1568 
z
" transform="scale(0.015625)"/>
       <path id="CMR17-6d" d="M 4326 1933 
C 4326 2252 4269 2790 3507 2790 
C 3072 2790 2771 2496 2656 2151 
L 2650 2151 
C 2573 2676 2195 2790 1837 2790 
C 1331 2790 1069 2400 973 2144 
L 966 2144 
L 966 2790 
L 211 2720 
L 211 2554 
C 589 2554 646 2515 646 2208 
L 646 428 
C 646 184 621 153 211 153 
L 211 -13 
C 365 0 646 0 813 0 
C 979 0 1267 0 1421 -13 
L 1421 153 
C 1011 153 986 178 986 428 
L 986 1658 
C 986 2247 1344 2688 1792 2688 
C 2266 2688 2317 2266 2317 1958 
L 2317 428 
C 2317 184 2291 153 1882 153 
L 1882 -13 
C 2035 0 2317 0 2483 0 
C 2650 0 2938 0 3091 -13 
L 3091 153 
C 2682 153 2656 178 2656 428 
L 2656 1658 
C 2656 2247 3014 2688 3462 2688 
C 3936 2688 3987 2266 3987 1958 
L 3987 428 
C 3987 184 3962 153 3552 153 
L 3552 -13 
C 3706 0 3987 0 4154 0 
C 4320 0 4608 0 4762 -13 
L 4762 153 
C 4352 153 4326 178 4326 428 
L 4326 1933 
z
" transform="scale(0.015625)"/>
       <path id="CMR17-6e" d="M 2656 1933 
C 2656 2259 2592 2790 1837 2790 
C 1331 2790 1069 2400 973 2144 
L 966 2144 
L 966 2790 
L 211 2720 
L 211 2554 
C 589 2554 646 2515 646 2208 
L 646 428 
C 646 184 621 153 211 153 
L 211 -13 
C 365 0 646 0 813 0 
C 979 0 1267 0 1421 -13 
L 1421 153 
C 1011 153 986 178 986 428 
L 986 1658 
C 986 2247 1344 2688 1792 2688 
C 2266 2688 2317 2266 2317 1958 
L 2317 428 
C 2317 184 2291 153 1882 153 
L 1882 -13 
C 2035 0 2317 0 2483 0 
C 2650 0 2938 0 3091 -13 
L 3091 153 
C 2682 153 2656 178 2656 428 
L 2656 1933 
z
" transform="scale(0.015625)"/>
       <path id="CMR17-74" d="M 966 2560 
L 1862 2560 
L 1862 2725 
L 966 2725 
L 966 3904 
L 851 3904 
C 838 3245 614 2668 70 2668 
L 70 2560 
L 627 2560 
L 627 771 
C 627 650 627 -64 1370 -64 
C 1747 -64 1965 306 1965 777 
L 1965 1140 
L 1850 1140 
L 1850 783 
C 1850 344 1677 51 1408 51 
C 1222 51 966 178 966 758 
L 966 2560 
z
" transform="scale(0.015625)"/>
       <path id="CMR17-28" d="M 1958 -1561 
C 1958 -1555 1958 -1542 1939 -1523 
C 1645 -1224 858 -407 858 1581 
C 858 3569 1632 4379 1946 4697 
C 1946 4704 1958 4717 1958 4736 
C 1958 4755 1939 4768 1914 4768 
C 1843 4768 1299 4296 986 3594 
C 666 2887 576 2199 576 1588 
C 576 1128 621 351 1005 -471 
C 1312 -1135 1837 -1600 1914 -1600 
C 1946 -1600 1958 -1587 1958 -1561 
z
" transform="scale(0.015625)"/>
       <path id="CMR17-29" d="M 1683 1581 
C 1683 2040 1638 2817 1254 3639 
C 947 4303 422 4768 346 4768 
C 326 4768 301 4761 301 4729 
C 301 4717 307 4710 314 4697 
C 621 4378 1402 3568 1402 1584 
C 1402 -407 627 -1217 314 -1537 
C 307 -1549 301 -1556 301 -1568 
C 301 -1600 326 -1600 346 -1600 
C 416 -1600 960 -1128 1274 -426 
C 1594 281 1683 969 1683 1581 
z
" transform="scale(0.015625)"/>
      </defs>
      <use xlink:href="#CMR17-64" transform="scale(0.996264)"/>
      <use xlink:href="#CMR17-69" transform="translate(50.89537 0) scale(0.996264)"/>
      <use xlink:href="#CMR17-73" transform="translate(75.766428 0) scale(0.996264)"/>
      <use xlink:href="#CMR17-70" transform="translate(111.567766 0) scale(0.996264)"/>
      <use xlink:href="#CMR17-6c" transform="translate(162.463136 0) scale(0.996264)"/>
      <use xlink:href="#CMR17-61" transform="translate(187.334194 0) scale(0.996264)"/>
      <use xlink:href="#CMR17-63" transform="translate(233.024671 0) scale(0.996264)"/>
      <use xlink:href="#CMR17-65" transform="translate(273.510332 0) scale(0.996264)"/>
      <use xlink:href="#CMR17-6d" transform="translate(313.995992 0) scale(0.996264)"/>
      <use xlink:href="#CMR17-65" transform="translate(390.915582 0) scale(0.996264)"/>
      <use xlink:href="#CMR17-6e" transform="translate(431.401243 0) scale(0.996264)"/>
      <use xlink:href="#CMR17-74" transform="translate(479.694158 0) scale(0.996264)"/>
      <use xlink:href="#CMR17-28" transform="translate(545.050893 0) scale(0.996264)"/>
      <use xlink:href="#CMR17-6d" transform="translate(580.33166 0) scale(0.996264)"/>
      <use xlink:href="#CMR17-29" transform="translate(657.25125 0) scale(0.996264)"/>
     </g>
    </g>
   </g>
   <g id="line2d_4">
    <path d="M 92.290909 124.510554 
L 92.871479 127.714542 
L 93.452048 130.253305 
L 94.032618 132.035098 
L 94.613188 132.974526 
L 95.193757 132.997393 
L 95.774327 132.045831 
L 96.354897 130.083366 
L 96.935466 127.099563 
L 97.516036 123.113891 
L 98.677175 112.37957 
L 99.838314 98.703485 
L 103.321732 54.817165 
L 103.902302 49.381297 
L 104.482872 45.018218 
L 105.063441 41.871578 
L 105.644011 40.045476 
L 106.224581 39.6 
L 106.80515 40.548682 
L 107.38572 42.857971 
L 107.96629 46.448766 
L 108.546859 51.199918 
L 109.707998 63.521665 
L 111.449707 85.955684 
L 113.191416 107.829998 
L 114.352556 119.537892 
L 114.933125 124.122789 
L 115.513695 127.755913 
L 116.094265 130.399027 
L 116.674834 132.044535 
L 117.255404 132.712179 
L 117.835973 132.44483 
L 118.416543 131.303706 
L 118.997113 129.363377 
L 119.577682 126.706907 
L 120.738822 119.594547 
L 121.899961 110.652929 
L 123.64167 95.166043 
L 126.544518 68.446417 
L 127.705657 59.204399 
L 128.866797 51.903843 
L 129.447366 49.242793 
L 130.027936 47.377616 
L 130.608506 46.400794 
L 131.189075 46.390626 
L 131.769645 47.405792 
L 132.350215 49.480196 
L 132.930784 52.618456 
L 133.511354 56.792379 
L 134.672493 67.958546 
L 135.833632 82.051714 
L 138.736481 119.973576 
L 139.89762 131.508536 
L 140.47819 135.685832 
L 141.058759 138.61358 
L 141.639329 140.200356 
L 142.219899 140.4 
L 142.800468 139.213302 
L 143.381038 136.687631 
L 143.961607 132.914547 
L 144.542177 128.025519 
L 145.703316 115.588226 
L 149.767304 66.075416 
L 150.928443 56.409403 
L 151.509013 52.921907 
L 152.089583 50.381483 
L 152.670152 48.79042 
L 153.250722 48.126937 
L 153.831291 48.349487 
L 154.411861 49.40142 
L 154.992431 51.215639 
L 155.573 53.718934 
L 156.73414 60.490894 
L 157.895279 69.12935 
L 159.636988 84.411033 
L 163.120406 116.617412 
L 164.281545 125.32946 
L 164.862115 128.822175 
L 165.442684 131.584721 
L 166.023254 133.507561 
L 166.603824 134.492798 
L 167.184393 134.459918 
L 167.764963 133.351405 
L 168.345533 131.137861 
L 168.926102 127.82226 
L 169.506672 123.443014 
L 170.667811 111.83231 
L 171.82895 97.33995 
L 174.731799 59.184201 
L 175.892938 47.93464 
L 176.473508 43.962259 
L 177.054077 41.265869 
L 177.634647 39.923416 
L 178.215217 39.966807 
L 178.795786 41.381113 
L 179.376356 44.10582 
L 179.956925 48.038041 
L 181.118065 58.932923 
L 182.859774 79.982565 
L 184.601483 101.641988 
L 185.762622 113.915366 
L 186.923761 123.233381 
L 187.504331 126.601382 
L 188.084901 129.068303 
L 188.66547 130.635255 
L 189.24604 131.324084 
L 189.826609 131.173087 
L 190.407179 130.232609 
L 190.987749 128.560823 
L 191.568318 126.220025 
L 192.729458 119.784189 
L 193.890597 111.415832 
L 195.632306 96.255928 
L 199.696293 58.485733 
L 200.857433 50.61632 
L 201.438002 47.776126 
L 202.018572 45.823466 
L 202.599142 44.859841 
L 203.179711 44.966028 
L 203.760281 46.196408 
L 204.340851 48.574015 
L 204.92142 52.086656 
L 205.50199 56.684413 
L 206.663129 68.743514 
L 208.404838 91.601708 
L 210.146547 115.027066 
L 211.307686 127.836057 
L 211.888256 132.775046 
L 212.468826 136.527091 
L 213.049395 138.983889 
L 213.629965 140.081502 
L 214.210535 139.80231 
L 214.791104 138.174909 
L 215.371674 135.272011 
L 215.952243 131.206485 
L 217.113383 120.204948 
L 218.855092 99.40139 
L 220.596801 78.314331 
L 221.75794 66.444995 
L 222.919079 57.431758 
L 223.499649 54.155144 
L 224.080218 51.731653 
L 224.660788 50.158732 
L 225.241358 49.416434 
L 225.821927 49.471541 
L 226.402497 50.281602 
L 226.983067 51.798596 
L 227.563636 53.971947 
L 228.144206 56.750701 
L 229.305345 63.925097 
L 230.466485 72.929136 
L 232.208194 88.936409 
L 235.111042 117.224485 
L 236.272181 126.556499 
L 236.852751 130.265122 
L 237.43332 133.156579 
L 238.01389 135.109701 
L 238.59446 136.021291 
L 239.175029 135.812289 
L 239.755599 134.433369 
L 240.336169 131.869602 
L 240.916738 128.143842 
L 241.497308 123.318561 
L 242.658447 110.816122 
L 244.400156 87.516369 
L 246.141865 64.120451 
L 247.303004 51.602286 
L 247.883574 46.869705 
L 248.464144 43.349371 
L 249.044713 41.13599 
L 249.625283 40.279242 
L 250.205853 40.782725 
L 250.786422 42.604923 
L 251.366992 45.662112 
L 251.947561 49.832999 
L 253.108701 60.880557 
L 254.85041 81.364082 
L 256.592119 101.86068 
L 257.753258 113.351428 
L 258.914397 122.108787 
L 259.494967 125.323477 
L 260.075536 127.733841 
L 260.656106 129.341896 
L 261.236676 130.163788 
L 261.817245 130.225955 
L 262.397815 129.561562 
L 262.978385 128.207483 
L 263.558954 126.202051 
L 264.139524 123.583712 
L 265.300663 116.661348 
L 266.461803 107.758589 
L 268.203512 91.562509 
L 271.686929 57.335756 
L 272.848069 49.04587 
L 273.428638 46.131496 
L 274.009208 44.208146 
L 274.589778 43.378745 
L 275.170347 43.718674 
L 275.750917 45.270373 
L 276.331487 48.039087 
L 276.912056 51.990076 
L 277.492626 57.047514 
L 278.653765 69.979414 
L 280.395474 93.652078 
L 282.137183 116.928725 
L 283.298322 129.109534 
L 283.878892 133.621322 
L 284.459462 136.902859 
L 285.040031 138.873492 
L 285.620601 139.497749 
L 286.201171 138.785513 
L 286.78174 136.790206 
L 287.36231 133.605154 
L 287.942879 129.358359 
L 289.104019 118.32504 
L 290.845728 98.227188 
L 292.587437 78.326049 
L 293.748576 67.180683 
L 294.909715 58.625697 
L 295.490285 55.442755 
L 296.070854 53.01565 
L 296.651424 51.344851 
L 297.231994 50.419809 
L 297.812563 50.222404 
L 298.393133 50.729925 
L 298.973703 51.917374 
L 299.554272 53.758902 
L 300.134842 56.228307 
L 301.295981 62.94055 
L 302.457121 71.799583 
L 303.61826 82.441761 
L 308.262817 128.105714 
L 308.843387 131.932306 
L 309.423956 134.839906 
L 310.004526 136.703036 
L 310.585096 137.421023 
L 311.165665 136.924065 
L 311.746235 135.17831 
L 312.326805 132.189583 
L 312.907374 128.005497 
L 314.068513 116.450483 
L 315.229653 101.693374 
L 318.132501 62.338347 
L 319.29364 50.535186 
L 319.87421 46.254456 
L 320.45478 43.21436 
L 321.035349 41.481332 
L 321.615919 41.076969 
L 322.196488 41.978734 
L 322.777058 44.122547 
L 323.357628 47.407078 
L 323.938197 51.699462 
L 325.099337 62.659964 
L 327.421615 89.002707 
L 329.163324 107.322003 
L 330.324464 117.00588 
L 331.485603 124.061281 
L 332.066172 126.533904 
L 332.646742 128.292904 
L 333.227312 129.341566 
L 333.807881 129.688361 
L 334.388451 129.344624 
L 334.969021 128.323029 
L 335.54959 126.636992 
L 336.13016 124.301024 
L 336.71073 121.331981 
L 337.871869 113.586538 
L 339.033008 103.671357 
L 340.774717 85.836662 
L 343.096996 61.163894 
L 344.258135 51.158164 
L 344.838705 47.314893 
L 345.419274 44.444457 
L 345.999844 42.671546 
L 346.580414 42.092634 
L 347.160983 42.770142 
L 347.741553 44.727802 
L 348.322123 47.947554 
L 348.902692 52.36819 
L 350.063831 64.356866 
L 351.224971 79.410626 
L 354.127819 118.562084 
L 355.288958 129.954412 
L 355.869528 133.998159 
L 356.450098 136.798667 
L 357.030667 138.303598 
L 357.611237 138.504603 
L 358.191806 137.435802 
L 358.772376 135.170467 
L 359.352946 131.816176 
L 360.514085 122.405225 
L 361.675224 110.500591 
L 364.578073 78.759159 
L 365.739212 68.177741 
L 366.900351 59.854529 
L 367.480921 56.645022 
L 368.06149 54.099823 
L 368.64206 52.229886 
L 369.22263 51.040666 
L 369.803199 50.534448 
L 370.383769 50.711929 
L 370.964339 51.572919 
L 371.544908 53.116089 
L 372.125478 55.337799 
L 372.706048 58.230096 
L 373.867187 65.956877 
L 375.028326 76.03889 
L 376.770035 94.377268 
L 379.092314 119.726855 
L 380.253453 129.862707 
L 380.834023 133.692681 
L 381.414592 136.495528 
L 381.995162 138.149321 
L 382.575732 138.563668 
L 383.156301 137.685186 
L 383.736871 135.501592 
L 384.31744 132.0441 
L 384.89801 127.387952 
L 386.059149 114.990211 
L 387.800858 91.50275 
L 389.542567 67.745541 
L 390.703707 54.88519 
L 391.284276 49.923577 
L 391.864846 46.11827 
L 392.445416 43.551042 
L 393.025985 42.260549 
L 393.606555 42.242781 
L 394.187124 43.45335 
L 394.767694 45.811432 
L 395.348264 49.205072 
L 396.509403 58.534133 
L 398.251112 76.444439 
L 400.573391 101.01519 
L 401.73453 111.389285 
L 402.895669 119.686154 
L 404.056808 125.594615 
L 404.637378 127.595017 
L 405.217948 128.937827 
L 405.798517 129.609158 
L 406.379087 129.59591 
L 406.959657 128.88592 
L 407.540226 127.469055 
L 408.120796 125.339168 
L 408.701366 122.496771 
L 409.862505 114.728911 
L 411.023644 104.425213 
L 412.765353 85.539653 
L 415.087632 59.557128 
L 416.248771 49.346403 
L 416.829341 45.560223 
L 417.40991 42.854763 
L 417.99048 41.347251 
L 418.57105 41.120235 
L 419.151619 42.216574 
L 419.732189 44.636002 
L 420.312758 48.333505 
L 420.893328 53.219651 
L 422.054467 65.993975 
L 423.796176 89.688686 
L 425.537885 113.148486 
L 426.699025 125.599336 
L 427.279594 130.326745 
L 427.860164 133.89665 
L 428.440734 136.241221 
L 429.021303 137.334789 
L 429.601873 137.192581 
L 430.182442 135.867739 
L 430.763012 133.446849 
L 431.343582 130.044297 
L 432.504721 120.851689 
L 434.24643 103.424112 
L 436.568709 79.531197 
L 437.729848 69.308975 
L 438.890987 60.978897 
L 440.052126 54.868329 
L 440.632696 52.72158 
L 441.213266 51.216335 
L 441.793835 50.378666 
L 442.374405 50.234155 
L 442.954975 50.806896 
L 443.535544 52.117588 
L 444.116114 54.180853 
L 444.696684 57.001977 
L 445.277253 60.573342 
L 446.438393 69.850758 
L 447.599532 81.569298 
L 451.663519 126.992429 
L 452.244089 131.69457 
L 452.824659 135.406605 
L 453.405228 137.986155 
L 453.985798 139.322545 
L 454.566368 139.34269 
L 455.146937 138.015524 
L 455.727507 135.354708 
L 456.308076 131.419422 
L 456.888646 126.313146 
L 458.049785 113.201906 
L 460.372064 81.292574 
L 461.533203 66.302461 
L 462.694343 54.284294 
L 463.274912 49.791356 
L 463.855482 46.449391 
L 464.436052 44.312772 
L 465.016621 43.395146 
L 465.597191 43.671436 
L 466.17776 45.081431 
L 466.75833 47.534678 
L 467.3389 50.916338 
L 468.500039 59.922403 
L 470.241748 76.837588 
L 472.564027 100.114133 
L 473.725166 110.242689 
L 474.886305 118.663785 
L 476.047444 125.019006 
L 476.628014 127.323999 
L 477.208584 128.996138 
L 477.789153 129.996877 
L 478.369723 130.288364 
L 478.950293 129.835275 
L 479.530862 128.607491 
L 480.111432 126.583433 
L 480.692002 123.753807 
L 481.272571 120.125463 
L 482.43371 110.602088 
L 483.59485 98.513495 
L 487.658837 52.182063 
L 488.239407 47.529601 
L 488.819977 43.92126 
L 489.400546 41.494246 
L 489.981116 40.350949 
L 490.561686 40.553566 
L 491.142255 42.120334 
L 491.722825 45.023623 
L 492.303394 49.190013 
L 493.464534 60.804088 
L 494.625673 75.586889 
L 497.528521 114.38973 
L 498.109091 120.642469 
L 498.109091 120.642469 
" clip-path="url(#p6d29217e1e)" style="fill: none; stroke: #ff0000; stroke-linecap: square"/>
   </g>
   <g id="line2d_5">
    <path d="M 92.290909 124.510554 
L 92.871479 127.562814 
L 93.452048 129.753517 
L 94.032618 131.149477 
L 94.613188 131.817511 
L 95.193757 131.824434 
L 95.774327 131.237062 
L 96.354897 130.090558 
L 96.935466 128.293479 
L 97.516036 125.722727 
L 98.096606 122.280474 
L 98.677175 117.969973 
L 99.838314 106.85817 
L 100.999454 92.612194 
L 102.741163 68.522889 
L 103.902302 56.383567 
L 104.482872 52.214611 
L 105.063441 49.372812 
L 105.644011 47.711784 
L 106.224581 47.040105 
L 106.80515 47.229178 
L 107.38572 48.401699 
L 107.96629 50.743188 
L 108.546859 54.375376 
L 109.127429 59.164848 
L 110.288568 71.373392 
L 112.030277 90.228214 
L 113.191416 99.107478 
L 114.352556 104.77928 
L 115.513695 109.459993 
L 116.674834 115.223981 
L 117.835973 121.435964 
L 118.416543 123.911442 
L 118.997113 125.242762 
L 119.577682 125.068058 
L 120.158252 123.817139 
L 121.899961 118.692249 
L 122.480531 116.582384 
L 123.0611 113.905203 
L 124.22224 106.888506 
L 125.383379 97.617141 
L 126.544518 84.789333 
L 128.286227 63.227499 
L 128.866797 57.503434 
L 129.447366 53.100969 
L 130.027936 50.262692 
L 130.608506 48.946012 
L 131.189075 49.037037 
L 131.769645 50.422043 
L 132.350215 52.987958 
L 132.930784 56.621875 
L 134.091924 66.599961 
L 135.833632 85.812325 
L 136.994772 97.64264 
L 138.155911 106.657282 
L 139.31705 113.255016 
L 139.89762 115.773101 
L 140.47819 117.783324 
L 141.058759 119.082317 
L 141.639329 119.416626 
L 142.219899 118.661947 
L 144.542177 112.746343 
L 145.122747 111.004988 
L 146.864456 104.499194 
L 148.025595 102.116223 
L 148.606165 99.682034 
L 149.186734 95.305773 
L 150.928443 79.091157 
L 153.250722 61.80362 
L 153.831291 58.751936 
L 154.411861 57.300266 
L 154.992431 57.270658 
L 155.573 58.307005 
L 156.15357 60.115799 
L 156.73414 62.653931 
L 157.314709 65.940891 
L 158.475849 74.657843 
L 160.217558 91.156342 
L 161.378697 101.48386 
L 163.700975 119.195284 
L 164.281545 121.876005 
L 164.862115 122.664456 
L 165.442684 121.914856 
L 166.023254 120.208392 
L 167.184393 115.488831 
L 168.345533 109.383431 
L 170.087242 99.677726 
L 172.40952 88.56197 
L 173.570659 84.208064 
L 175.892938 77.238161 
L 178.795786 67.188097 
L 179.376356 66.426451 
L 179.956925 66.458373 
L 180.537495 67.272179 
L 181.118065 68.855068 
L 181.698634 71.18978 
L 182.279204 74.257937 
L 184.020913 86.134427 
L 188.66547 115.898236 
L 189.24604 118.575812 
L 189.826609 119.984821 
L 190.407179 120.124942 
L 190.987749 119.094314 
L 191.568318 117.015532 
L 192.148888 114.10901 
L 193.310027 106.782396 
L 196.793445 83.576984 
L 197.954584 76.71031 
L 198.535154 74.513576 
L 199.115724 73.026022 
L 200.276863 70.913251 
L 200.857433 70.264557 
L 201.438002 70.278087 
L 202.018572 71.162035 
L 203.179711 74.464637 
L 204.340851 78.232902 
L 204.92142 80.571045 
L 206.08256 86.193516 
L 206.663129 88.418637 
L 207.243699 89.678058 
L 207.824268 90.488376 
L 208.404838 91.589204 
L 208.985408 93.511207 
L 210.727117 100.466369 
L 211.888256 104.607799 
L 213.049395 109.839114 
L 213.629965 111.667129 
L 214.210535 112.238075 
L 214.791104 111.82134 
L 215.952243 109.778639 
L 216.532813 108.512815 
L 217.113383 106.979594 
L 217.693952 105.072691 
L 218.274522 102.66789 
L 218.855092 99.63649 
L 220.016231 91.637199 
L 222.919079 69.502656 
L 223.499649 66.596828 
L 224.080218 65.103581 
L 224.660788 65.321035 
L 225.241358 66.843761 
L 226.402497 71.575583 
L 229.885915 87.118502 
L 231.047054 91.357981 
L 233.949902 104.95674 
L 234.530472 106.664289 
L 235.111042 107.947086 
L 235.691611 108.839154 
L 236.272181 109.379415 
L 237.43332 109.887998 
L 238.01389 110.384888 
L 239.175029 111.922809 
L 239.755599 111.656618 
L 240.336169 109.943449 
L 241.497308 104.015726 
L 243.239017 94.567085 
L 247.303004 69.70878 
L 247.883574 66.484199 
L 248.464144 64.500998 
L 249.044713 64.363903 
L 249.625283 65.855872 
L 250.205853 68.554419 
L 251.366992 76.086541 
L 253.68927 92.433521 
L 254.85041 98.508391 
L 256.011549 103.149016 
L 257.172688 106.538167 
L 257.753258 107.696949 
L 258.333828 108.527891 
L 258.914397 109.081627 
L 259.494967 109.396967 
L 260.075536 109.465414 
L 260.656106 109.266645 
L 261.236676 108.780336 
L 261.817245 108.000942 
L 262.978385 105.791945 
L 267.042372 96.645385 
L 267.622942 95.053205 
L 268.203512 92.976546 
L 269.364651 87.012625 
L 272.267499 69.719782 
L 272.848069 67.676423 
L 273.428638 66.830752 
L 274.009208 67.41319 
L 274.589778 69.163896 
L 275.750917 74.706212 
L 276.912056 81.975904 
L 278.653765 94.409433 
L 279.814904 100.527427 
L 280.976044 105.330739 
L 281.556613 107.188131 
L 282.137183 108.244317 
L 282.717753 108.30714 
L 283.878892 107.403504 
L 284.459462 107.460698 
L 285.040031 107.64505 
L 285.620601 107.414014 
L 286.201171 106.38333 
L 288.523449 99.827954 
L 289.104019 97.748163 
L 290.845728 90.114277 
L 291.426297 88.912115 
L 292.006867 88.206695 
L 292.587437 87.266022 
L 293.168006 85.562181 
L 294.909715 79.439014 
L 296.070854 76.181298 
L 297.231994 72.654837 
L 297.812563 72.057809 
L 298.393133 72.969577 
L 298.973703 75.024586 
L 300.715412 83.318492 
L 301.876551 90.593468 
L 303.03769 97.954863 
L 303.61826 100.407862 
L 304.779399 104.204909 
L 307.101678 113.173919 
L 307.682247 114.076765 
L 308.262817 113.937325 
L 308.843387 112.645752 
L 309.423956 110.481279 
L 310.585096 104.964641 
L 311.746235 98.599486 
L 313.487944 88.460678 
L 314.068513 86.153365 
L 315.810222 80.753221 
L 316.971362 76.314415 
L 317.551931 75.235383 
L 318.132501 75.725421 
L 319.29364 78.689725 
L 319.87421 79.594375 
L 321.035349 80.634106 
L 321.615919 81.519484 
L 323.357628 84.662513 
L 324.518767 86.684459 
L 325.679906 89.907629 
L 328.002185 97.727142 
L 329.743894 104.551745 
L 330.324464 106.080098 
L 330.905033 107.110327 
L 331.485603 107.757346 
L 332.066172 108.115857 
L 332.646742 108.19972 
L 333.227312 108.002583 
L 333.807881 107.506962 
L 334.388451 106.65083 
L 334.969021 105.361028 
L 335.54959 103.579579 
L 336.13016 101.309242 
L 337.291299 95.369349 
L 338.452439 87.581327 
L 340.194147 74.489161 
L 340.774717 71.321097 
L 341.355287 69.105898 
L 341.935856 67.839728 
L 342.516426 67.552466 
L 343.096996 68.408868 
L 343.677565 70.607405 
L 345.419274 81.716653 
L 345.999844 83.997496 
L 347.160983 86.97524 
L 348.902692 92.945016 
L 349.483262 93.953294 
L 350.644401 95.159158 
L 351.224971 96.249611 
L 352.38611 98.862241 
L 354.127819 101.710496 
L 356.450098 107.410076 
L 357.030667 107.867211 
L 357.611237 107.473572 
L 358.191806 106.123337 
L 359.352946 101.871652 
L 360.514085 97.32936 
L 361.094655 94.567085 
L 364.578073 74.601269 
L 365.158642 72.011981 
L 365.739212 70.097315 
L 366.319782 69.409246 
L 366.900351 70.301997 
L 367.480921 72.338777 
L 369.803199 82.80971 
L 372.706048 98.26326 
L 373.286617 100.529854 
L 373.867187 102.190763 
L 374.447757 103.318169 
L 375.028326 104.030614 
L 375.608896 104.446643 
L 376.189465 104.670402 
L 376.770035 104.748438 
L 377.931174 104.605304 
L 379.092314 104.499194 
L 379.672883 104.571135 
L 380.253453 104.277673 
L 380.834023 103.069811 
L 381.414592 100.636185 
L 382.575732 94.885894 
L 383.156301 93.108203 
L 383.736871 92.086681 
L 385.47858 90.108317 
L 386.639719 89.097225 
L 387.220289 88.270685 
L 387.800858 86.544324 
L 388.961998 80.171643 
L 389.542567 77.113199 
L 390.123137 75.179199 
L 390.703707 74.379221 
L 391.284276 74.541712 
L 391.864846 75.511751 
L 392.445416 77.200949 
L 393.025985 79.537545 
L 394.187124 85.597268 
L 395.928833 94.672044 
L 397.670542 102.591558 
L 398.831682 107.086972 
L 399.412251 108.835136 
L 399.992821 110.059073 
L 400.573391 110.643967 
L 401.15396 110.603976 
L 401.73453 109.985502 
L 402.315099 108.832077 
L 402.895669 107.175756 
L 404.056808 102.52864 
L 405.217948 97.657075 
L 405.798517 95.939388 
L 409.862505 86.853474 
L 411.604214 83.569269 
L 412.184783 82.844744 
L 412.765353 82.553464 
L 413.926492 82.326243 
L 415.087632 81.5302 
L 415.668201 81.597538 
L 416.248771 82.411315 
L 416.829341 83.806042 
L 418.57105 89.222829 
L 419.732189 94.053743 
L 420.893328 99.219586 
L 422.054467 102.915747 
L 423.796176 107.87659 
L 424.376746 109.029076 
L 424.957316 109.493042 
L 425.537885 109.340279 
L 426.118455 108.720778 
L 426.699025 107.749977 
L 427.279594 106.4051 
L 427.860164 104.628819 
L 429.021303 99.925934 
L 430.763012 92.750912 
L 433.085291 84.55467 
L 433.66586 82.946343 
L 434.24643 81.754056 
L 434.827 81.08323 
L 435.407569 81.033492 
L 435.988139 81.633819 
L 437.729848 84.576365 
L 438.310417 85.236159 
L 439.471557 86.048947 
L 441.793835 87.150351 
L 442.374405 87.767006 
L 442.954975 88.707406 
L 443.535544 90.021016 
L 444.116114 91.746857 
L 445.277253 96.33363 
L 447.018962 103.789428 
L 447.599532 105.616775 
L 448.180101 106.820931 
L 450.50238 110.213766 
L 451.08295 110.220229 
L 451.663519 109.085367 
L 452.244089 107.077887 
L 453.985798 99.294543 
L 455.146937 92.478974 
L 456.308076 85.633442 
L 456.888646 83.40134 
L 457.469216 81.923398 
L 458.630355 80.000819 
L 459.210925 79.304227 
L 459.791494 78.857887 
L 460.372064 78.739801 
L 460.952634 79.052677 
L 461.533203 79.905401 
L 463.855482 85.311445 
L 464.436052 86.055737 
L 465.016621 87.052315 
L 466.17776 90.396946 
L 466.75833 92.009611 
L 467.919469 94.263268 
L 468.500039 95.88436 
L 470.822318 105.616958 
L 473.144596 110.425227 
L 473.725166 110.784275 
L 474.305735 109.965486 
L 475.466875 106.436568 
L 477.208584 101.065872 
L 480.692002 87.409661 
L 482.43371 78.321869 
L 483.01428 76.467918 
L 483.59485 75.549949 
L 484.175419 75.437253 
L 484.755989 75.999122 
L 485.336559 77.087029 
L 487.658837 82.843329 
L 488.239407 84.792629 
L 489.400546 90.269192 
L 490.561686 95.645698 
L 491.722825 100.547371 
L 492.883964 105.831758 
L 493.464534 107.221328 
L 494.045103 107.043506 
L 495.206243 105.164838 
L 495.786812 105.20225 
L 496.367382 105.652819 
L 496.947952 105.739394 
L 497.528521 104.886921 
L 498.109091 103.328741 
L 498.109091 103.328741 
" clip-path="url(#p6d29217e1e)" style="fill: none; stroke-dasharray: 3.7,1.6; stroke-dashoffset: 0; stroke: #8b0000"/>
   </g>
   <g id="patch_3">
    <path d="M 72 145.44 
L 72 34.56 
" style="fill: none; stroke: #000000; stroke-width: 0.8; stroke-linejoin: miter; stroke-linecap: square"/>
   </g>
   <g id="patch_4">
    <path d="M 518.4 145.44 
L 518.4 34.56 
" style="fill: none; stroke: #000000; stroke-width: 0.8; stroke-linejoin: miter; stroke-linecap: square"/>
   </g>
   <g id="patch_5">
    <path d="M 72 145.44 
L 518.4 145.44 
" style="fill: none; stroke: #000000; stroke-width: 0.8; stroke-linejoin: miter; stroke-linecap: square"/>
   </g>
   <g id="patch_6">
    <path d="M 72 34.56 
L 518.4 34.56 
" style="fill: none; stroke: #000000; stroke-width: 0.8; stroke-linejoin: miter; stroke-linecap: square"/>
   </g>
   <g id="legend_1">
    <g id="patch_7">
     <path d="M 403.061945 81.196624 
L 509.3 81.196624 
Q 511.9 81.196624 511.9 78.596624 
L 511.9 43.66 
Q 511.9 41.06 509.3 41.06 
L 403.061945 41.06 
Q 400.461945 41.06 400.461945 43.66 
L 400.461945 78.596624 
Q 400.461945 81.196624 403.061945 81.196624 
z
" style="fill: #ffffff; opacity: 0.8; stroke: #cccccc; stroke-linejoin: miter"/>
    </g>
    <g id="line2d_6">
     <path d="M 405.661945 50.81 
L 418.661945 50.81 
L 431.661945 50.81 
" style="fill: none; stroke: #ff0000; stroke-linecap: square"/>
    </g>
    <g id="text_5">
     <!-- MCMC -->
     <g transform="translate(442.061945 55.36) scale(0.13 -0.13)">
      <defs>
       <path id="CMR17-4d" d="M 1338 4224 
C 1299 4320 1293 4320 1158 4320 
L 339 4320 
L 339 4160 
C 781 4160 851 4160 851 3875 
L 851 610 
C 851 451 851 153 339 153 
L 339 -13 
C 486 0 755 0 915 0 
C 1075 0 1344 0 1491 -13 
L 1491 153 
C 979 153 979 451 979 610 
L 979 4135 
L 986 4135 
L 2490 89 
C 2515 25 2528 -13 2579 -13 
C 2630 -13 2643 25 2669 89 
L 4186 4166 
L 4192 4166 
L 4192 438 
C 4192 153 4122 153 3680 153 
L 3680 -13 
C 3853 0 4198 0 4384 0 
C 4570 0 4922 0 5094 -13 
L 5094 153 
C 4653 153 4582 153 4582 438 
L 4582 3875 
C 4582 4160 4653 4160 5094 4160 
L 5094 4320 
L 4282 4320 
C 4147 4320 4141 4314 4102 4218 
L 2720 502 
L 1338 4224 
z
" transform="scale(0.015625)"/>
       <path id="CMR17-43" d="M 3974 4289 
C 3974 4403 3968 4410 3930 4410 
C 3904 4410 3898 4403 3853 4327 
L 3571 3792 
C 3258 4187 2874 4416 2381 4416 
C 1286 4416 294 3456 294 2148 
C 294 826 1286 -128 2387 -128 
C 3366 -128 3974 730 3974 1461 
C 3974 1524 3974 1550 3917 1550 
C 3866 1550 3866 1531 3859 1474 
C 3808 585 3168 38 2477 38 
C 1824 38 781 495 781 2147 
C 781 3805 1843 4250 2464 4250 
C 3187 4250 3712 3628 3834 2745 
C 3846 2668 3846 2655 3904 2655 
C 3974 2655 3974 2668 3974 2783 
L 3974 4289 
z
" transform="scale(0.015625)"/>
      </defs>
      <use xlink:href="#CMR17-4d" transform="scale(0.996264)"/>
      <use xlink:href="#CMR17-43" transform="translate(84.686941 0) scale(0.996264)"/>
      <use xlink:href="#CMR17-4d" transform="translate(151.196821 0) scale(0.996264)"/>
      <use xlink:href="#CMR17-43" transform="translate(235.883762 0) scale(0.996264)"/>
     </g>
    </g>
    <g id="line2d_7">
     <path d="M 405.661945 68.928312 
L 418.661945 68.928312 
L 431.661945 68.928312 
" style="fill: none; stroke-dasharray: 3.7,1.6; stroke-dashoffset: 0; stroke: #8b0000"/>
    </g>
    <g id="text_6">
     <!-- Experiment -->
     <g transform="translate(442.061945 73.478312) scale(0.13 -0.13)">
      <defs>
       <path id="CMR17-45" d="M 3885 1615 
L 3770 1615 
C 3629 676 3546 166 2419 166 
L 1530 166 
C 1274 166 1261 197 1261 414 
L 1261 2176 
L 1862 2176 
C 2464 2176 2522 1960 2522 1430 
L 2637 1430 
L 2637 3081 
L 2522 3081 
C 2522 2557 2464 2342 1862 2342 
L 1261 2342 
L 1261 3913 
C 1261 4128 1274 4160 1530 4160 
L 2406 4160 
C 3398 4160 3514 3769 3603 2929 
L 3718 2929 
L 3565 4325 
L 326 4325 
L 326 4160 
C 768 4160 838 4160 838 3874 
L 838 451 
C 838 166 768 166 326 166 
L 326 0 
L 3654 0 
L 3885 1615 
z
" transform="scale(0.015625)"/>
       <path id="CMR17-78" d="M 1664 1477 
C 1856 1726 2074 2006 2253 2216 
C 2464 2458 2707 2560 2989 2560 
L 2989 2726 
C 2880 2726 2656 2726 2541 2726 
C 2368 2726 2170 2726 2022 2732 
L 2022 2566 
C 2112 2553 2163 2489 2163 2400 
C 2163 2285 2099 2215 2067 2171 
L 1594 1573 
L 1030 2306 
C 973 2376 973 2388 973 2420 
C 973 2497 1037 2560 1146 2560 
L 1146 2732 
C 992 2726 717 2726 557 2726 
C 384 2726 179 2726 38 2732 
L 38 2560 
C 384 2560 461 2534 614 2343 
L 1350 1395 
C 1363 1382 1395 1344 1395 1325 
C 1395 1299 838 619 768 530 
C 480 185 179 160 6 160 
L 6 0 
C 115 0 339 0 454 0 
C 582 0 864 0 979 -6 
L 979 160 
C 941 166 838 179 838 325 
C 838 440 890 510 947 586 
L 1478 1236 
L 2035 512 
C 2086 442 2163 346 2163 301 
C 2163 211 2086 160 1984 160 
L 1984 -6 
C 2138 0 2413 0 2573 0 
C 2746 0 2950 0 3091 -6 
L 3091 160 
C 2771 160 2675 172 2522 370 
L 1664 1477 
z
" transform="scale(0.015625)"/>
       <path id="CMR17-72" d="M 960 1497 
C 960 2112 1222 2688 1702 2688 
C 1747 2688 1792 2682 1837 2662 
C 1837 2662 1696 2617 1696 2452 
C 1696 2298 1818 2234 1914 2234 
C 1990 2234 2131 2279 2131 2458 
C 2131 2663 1926 2790 1709 2790 
C 1222 2790 1011 2317 947 2093 
L 941 2093 
L 941 2790 
L 198 2720 
L 198 2554 
C 576 2554 634 2515 634 2208 
L 634 428 
C 634 184 608 153 198 153 
L 198 -13 
C 352 0 646 0 813 0 
C 998 0 1325 0 1498 -13 
L 1498 153 
C 1037 153 960 153 960 440 
L 960 1497 
z
" transform="scale(0.015625)"/>
      </defs>
      <use xlink:href="#CMR17-45" transform="scale(0.996264)"/>
      <use xlink:href="#CMR17-78" transform="translate(62.586301 0) scale(0.996264)"/>
      <use xlink:href="#CMR17-70" transform="translate(110.879216 0) scale(0.996264)"/>
      <use xlink:href="#CMR17-65" transform="translate(164.377025 0) scale(0.996264)"/>
      <use xlink:href="#CMR17-72" transform="translate(204.862685 0) scale(0.996264)"/>
      <use xlink:href="#CMR17-69" transform="translate(240.143453 0) scale(0.996264)"/>
      <use xlink:href="#CMR17-6d" transform="translate(265.014512 0) scale(0.996264)"/>
      <use xlink:href="#CMR17-65" transform="translate(341.934101 0) scale(0.996264)"/>
      <use xlink:href="#CMR17-6e" transform="translate(382.419762 0) scale(0.996264)"/>
      <use xlink:href="#CMR17-74" transform="translate(430.712678 0) scale(0.996264)"/>
     </g>
    </g>
   </g>
  </g>
  <g id="axes_2">
   <g id="patch_8">
    <path d="M 72 256.32 
L 518.4 256.32 
L 518.4 145.44 
L 72 145.44 
z
" style="fill: #ffffff"/>
   </g>
   <g id="matplotlib.axis_3">
    <g id="xtick_1">
     <g id="line2d_8">
      <defs>
       <path id="m738efda6ce" d="M 0 0 
L 0 3.5 
" style="stroke: #000000; stroke-width: 0.8"/>
      </defs>
      <g>
       <use xlink:href="#m738efda6ce" x="92.290909" y="256.32" style="stroke: #000000; stroke-width: 0.8"/>
      </g>
     </g>
     <g id="text_7">
      <!-- $\mathdefault{0}$ -->
      <g transform="translate(89.120539 272.314028) scale(0.13 -0.13)">
       <use xlink:href="#CMR17-30" transform="scale(0.996264)"/>
      </g>
     </g>
    </g>
    <g id="xtick_2">
     <g id="line2d_9">
      <g>
       <use xlink:href="#m738efda6ce" x="150.347874" y="256.32" style="stroke: #000000; stroke-width: 0.8"/>
      </g>
     </g>
     <g id="text_8">
      <!-- $\mathdefault{1}$ -->
      <g transform="translate(147.177504 272.314028) scale(0.13 -0.13)">
       <defs>
        <path id="CMR17-31" d="M 1702 4058 
C 1702 4192 1696 4192 1606 4192 
C 1357 3916 979 3827 621 3827 
C 602 3827 570 3827 563 3808 
C 557 3795 557 3782 557 3648 
C 755 3648 1088 3686 1344 3839 
L 1344 461 
C 1344 236 1331 160 781 160 
L 589 160 
L 589 0 
C 896 0 1216 0 1523 0 
C 1830 0 2150 0 2458 0 
L 2458 160 
L 2266 160 
C 1715 160 1702 230 1702 458 
L 1702 4058 
z
" transform="scale(0.015625)"/>
       </defs>
       <use xlink:href="#CMR17-31" transform="scale(0.996264)"/>
      </g>
     </g>
    </g>
    <g id="xtick_3">
     <g id="line2d_10">
      <g>
       <use xlink:href="#m738efda6ce" x="208.404838" y="256.32" style="stroke: #000000; stroke-width: 0.8"/>
      </g>
     </g>
     <g id="text_9">
      <!-- $\mathdefault{2}$ -->
      <g transform="translate(205.234468 272.314028) scale(0.13 -0.13)">
       <use xlink:href="#CMR17-32" transform="scale(0.996264)"/>
      </g>
     </g>
    </g>
    <g id="xtick_4">
     <g id="line2d_11">
      <g>
       <use xlink:href="#m738efda6ce" x="266.461803" y="256.32" style="stroke: #000000; stroke-width: 0.8"/>
      </g>
     </g>
     <g id="text_10">
      <!-- $\mathdefault{3}$ -->
      <g transform="translate(263.291433 272.314028) scale(0.13 -0.13)">
       <defs>
        <path id="CMR17-33" d="M 1414 2157 
C 1984 2157 2234 1662 2234 1090 
C 2234 320 1824 25 1453 25 
C 1114 25 563 194 390 693 
C 422 680 454 680 486 680 
C 640 680 755 782 755 948 
C 755 1133 614 1216 486 1216 
C 378 1216 211 1165 211 926 
C 211 335 787 -128 1466 -128 
C 2176 -128 2720 430 2720 1085 
C 2720 1707 2208 2157 1600 2227 
C 2086 2328 2554 2756 2554 3329 
C 2554 3820 2048 4179 1472 4179 
C 890 4179 378 3829 378 3329 
C 378 3110 544 3072 627 3072 
C 762 3072 877 3155 877 3321 
C 877 3486 762 3569 627 3569 
C 602 3569 570 3569 544 3557 
C 730 3959 1235 4032 1459 4032 
C 1683 4032 2106 3925 2106 3320 
C 2106 3143 2080 2828 1862 2550 
C 1670 2304 1453 2304 1242 2284 
C 1210 2284 1062 2269 1037 2269 
C 992 2263 966 2257 966 2208 
C 966 2163 973 2157 1101 2157 
L 1414 2157 
z
" transform="scale(0.015625)"/>
       </defs>
       <use xlink:href="#CMR17-33" transform="scale(0.996264)"/>
      </g>
     </g>
    </g>
    <g id="xtick_5">
     <g id="line2d_12">
      <g>
       <use xlink:href="#m738efda6ce" x="324.518767" y="256.32" style="stroke: #000000; stroke-width: 0.8"/>
      </g>
     </g>
     <g id="text_11">
      <!-- $\mathdefault{4}$ -->
      <g transform="translate(321.348397 272.314028) scale(0.13 -0.13)">
       <defs>
        <path id="CMR17-34" d="M 2150 4122 
C 2150 4256 2144 4256 2029 4256 
L 128 1254 
L 128 1088 
L 1779 1088 
L 1779 457 
C 1779 224 1766 160 1318 160 
L 1197 160 
L 1197 0 
C 1402 0 1747 0 1965 0 
C 2182 0 2528 0 2733 0 
L 2733 160 
L 2611 160 
C 2163 160 2150 224 2150 457 
L 2150 1088 
L 2803 1088 
L 2803 1254 
L 2150 1254 
L 2150 4122 
z
M 1798 3703 
L 1798 1254 
L 256 1254 
L 1798 3703 
z
" transform="scale(0.015625)"/>
       </defs>
       <use xlink:href="#CMR17-34" transform="scale(0.996264)"/>
      </g>
     </g>
    </g>
    <g id="xtick_6">
     <g id="line2d_13">
      <g>
       <use xlink:href="#m738efda6ce" x="382.575732" y="256.32" style="stroke: #000000; stroke-width: 0.8"/>
      </g>
     </g>
     <g id="text_12">
      <!-- $\mathdefault{5}$ -->
      <g transform="translate(379.405362 272.314028) scale(0.13 -0.13)">
       <use xlink:href="#CMR17-35" transform="scale(0.996264)"/>
      </g>
     </g>
    </g>
    <g id="xtick_7">
     <g id="line2d_14">
      <g>
       <use xlink:href="#m738efda6ce" x="440.632696" y="256.32" style="stroke: #000000; stroke-width: 0.8"/>
      </g>
     </g>
     <g id="text_13">
      <!-- $\mathdefault{6}$ -->
      <g transform="translate(437.462326 272.314028) scale(0.13 -0.13)">
       <defs>
        <path id="CMR17-36" d="M 678 2176 
C 678 3690 1395 4032 1811 4032 
C 1946 4032 2272 4009 2400 3776 
C 2298 3776 2106 3776 2106 3553 
C 2106 3381 2246 3323 2336 3323 
C 2394 3323 2566 3348 2566 3560 
C 2566 3954 2246 4179 1805 4179 
C 1043 4179 243 3390 243 1984 
C 243 253 966 -128 1478 -128 
C 2099 -128 2688 427 2688 1283 
C 2688 2081 2170 2662 1517 2662 
C 1126 2662 838 2407 678 1960 
L 678 2176 
z
M 1478 25 
C 691 25 691 1200 691 1436 
C 691 1896 909 2560 1504 2560 
C 1613 2560 1926 2560 2138 2120 
C 2253 1870 2253 1609 2253 1289 
C 2253 944 2253 690 2118 434 
C 1978 171 1773 25 1478 25 
z
" transform="scale(0.015625)"/>
       </defs>
       <use xlink:href="#CMR17-36" transform="scale(0.996264)"/>
      </g>
     </g>
    </g>
    <g id="xtick_8">
     <g id="line2d_15">
      <g>
       <use xlink:href="#m738efda6ce" x="498.689661" y="256.32" style="stroke: #000000; stroke-width: 0.8"/>
      </g>
     </g>
     <g id="text_14">
      <!-- $\mathdefault{7}$ -->
      <g transform="translate(495.519291 272.314028) scale(0.13 -0.13)">
       <defs>
        <path id="CMR17-37" d="M 2886 3941 
L 2886 4081 
L 1382 4081 
C 634 4081 621 4165 595 4288 
L 480 4288 
L 294 3094 
L 410 3094 
C 429 3215 474 3540 550 3661 
C 589 3712 1062 3712 1171 3712 
L 2579 3712 
L 1869 2661 
C 1395 1954 1069 999 1069 165 
C 1069 89 1069 -128 1299 -128 
C 1530 -128 1530 89 1530 171 
L 1530 465 
C 1530 1508 1709 2196 2003 2636 
L 2886 3941 
z
" transform="scale(0.015625)"/>
       </defs>
       <use xlink:href="#CMR17-37" transform="scale(0.996264)"/>
      </g>
     </g>
    </g>
    <g id="text_15">
     <!-- time (sec) -->
     <g transform="translate(267.68824 288.545914) scale(0.13 -0.13)">
      <use xlink:href="#CMR17-74" transform="scale(0.996264)"/>
      <use xlink:href="#CMR17-69" transform="translate(35.280768 0) scale(0.996264)"/>
      <use xlink:href="#CMR17-6d" transform="translate(60.151826 0) scale(0.996264)"/>
      <use xlink:href="#CMR17-65" transform="translate(137.071416 0) scale(0.996264)"/>
      <use xlink:href="#CMR17-28" transform="translate(207.633043 0) scale(0.996264)"/>
      <use xlink:href="#CMR17-73" transform="translate(242.913811 0) scale(0.996264)"/>
      <use xlink:href="#CMR17-65" transform="translate(278.715148 0) scale(0.996264)"/>
      <use xlink:href="#CMR17-63" transform="translate(319.200809 0) scale(0.996264)"/>
      <use xlink:href="#CMR17-29" transform="translate(359.686469 0) scale(0.996264)"/>
     </g>
    </g>
   </g>
   <g id="matplotlib.axis_4">
    <g id="ytick_4">
     <g id="line2d_16">
      <g>
       <use xlink:href="#m509725b9b7" x="72" y="255.039788" style="stroke: #000000; stroke-width: 0.8"/>
      </g>
     </g>
     <g id="text_16">
      <!-- $\mathdefault{−0.050}$ -->
      <g transform="translate(26.041039 259.536802) scale(0.13 -0.13)">
       <use xlink:href="#CMSY10-0" transform="scale(0.996264)"/>
       <use xlink:href="#CMR17-30" transform="translate(77.487468 0) scale(0.996264)"/>
       <use xlink:href="#CMMI12-3a" transform="translate(123.177945 0) scale(0.996264)"/>
       <use xlink:href="#CMR17-30" transform="translate(150.275122 0) scale(0.996264)"/>
       <use xlink:href="#CMR17-35" transform="translate(195.965599 0) scale(0.996264)"/>
       <use xlink:href="#CMR17-30" transform="translate(241.656076 0) scale(0.996264)"/>
      </g>
     </g>
    </g>
    <g id="ytick_5">
     <g id="line2d_17">
      <g>
       <use xlink:href="#m509725b9b7" x="72" y="226.808295" style="stroke: #000000; stroke-width: 0.8"/>
      </g>
     </g>
     <g id="text_17">
      <!-- $\mathdefault{−0.025}$ -->
      <g transform="translate(26.041039 231.305309) scale(0.13 -0.13)">
       <use xlink:href="#CMSY10-0" transform="scale(0.996264)"/>
       <use xlink:href="#CMR17-30" transform="translate(77.487468 0) scale(0.996264)"/>
       <use xlink:href="#CMMI12-3a" transform="translate(123.177945 0) scale(0.996264)"/>
       <use xlink:href="#CMR17-30" transform="translate(150.275122 0) scale(0.996264)"/>
       <use xlink:href="#CMR17-32" transform="translate(195.965599 0) scale(0.996264)"/>
       <use xlink:href="#CMR17-35" transform="translate(241.656076 0) scale(0.996264)"/>
      </g>
     </g>
    </g>
    <g id="ytick_6">
     <g id="line2d_18">
      <g>
       <use xlink:href="#m509725b9b7" x="72" y="198.576802" style="stroke: #000000; stroke-width: 0.8"/>
      </g>
     </g>
     <g id="text_18">
      <!-- $\mathdefault{0.000}$ -->
      <g transform="translate(36.114409 203.073816) scale(0.13 -0.13)">
       <use xlink:href="#CMR17-30" transform="scale(0.996264)"/>
       <use xlink:href="#CMMI12-3a" transform="translate(45.690477 0) scale(0.996264)"/>
       <use xlink:href="#CMR17-30" transform="translate(72.787654 0) scale(0.996264)"/>
       <use xlink:href="#CMR17-30" transform="translate(118.478131 0) scale(0.996264)"/>
       <use xlink:href="#CMR17-30" transform="translate(164.168608 0) scale(0.996264)"/>
      </g>
     </g>
    </g>
    <g id="ytick_7">
     <g id="line2d_19">
      <g>
       <use xlink:href="#m509725b9b7" x="72" y="170.345308" style="stroke: #000000; stroke-width: 0.8"/>
      </g>
     </g>
     <g id="text_19">
      <!-- $\mathdefault{0.025}$ -->
      <g transform="translate(36.114409 174.842322) scale(0.13 -0.13)">
       <use xlink:href="#CMR17-30" transform="scale(0.996264)"/>
       <use xlink:href="#CMMI12-3a" transform="translate(45.690477 0) scale(0.996264)"/>
       <use xlink:href="#CMR17-30" transform="translate(72.787654 0) scale(0.996264)"/>
       <use xlink:href="#CMR17-32" transform="translate(118.478131 0) scale(0.996264)"/>
       <use xlink:href="#CMR17-35" transform="translate(164.168608 0) scale(0.996264)"/>
      </g>
     </g>
    </g>
    <g id="text_20">
     <!-- displacement (m) -->
     <g transform="translate(18.803181 248.999159) rotate(-90) scale(0.13 -0.13)">
      <use xlink:href="#CMR17-64" transform="scale(0.996264)"/>
      <use xlink:href="#CMR17-69" transform="translate(50.89537 0) scale(0.996264)"/>
      <use xlink:href="#CMR17-73" transform="translate(75.766428 0) scale(0.996264)"/>
      <use xlink:href="#CMR17-70" transform="translate(111.567766 0) scale(0.996264)"/>
      <use xlink:href="#CMR17-6c" transform="translate(162.463136 0) scale(0.996264)"/>
      <use xlink:href="#CMR17-61" transform="translate(187.334194 0) scale(0.996264)"/>
      <use xlink:href="#CMR17-63" transform="translate(233.024671 0) scale(0.996264)"/>
      <use xlink:href="#CMR17-65" transform="translate(273.510332 0) scale(0.996264)"/>
      <use xlink:href="#CMR17-6d" transform="translate(313.995992 0) scale(0.996264)"/>
      <use xlink:href="#CMR17-65" transform="translate(390.915582 0) scale(0.996264)"/>
      <use xlink:href="#CMR17-6e" transform="translate(431.401243 0) scale(0.996264)"/>
      <use xlink:href="#CMR17-74" transform="translate(479.694158 0) scale(0.996264)"/>
      <use xlink:href="#CMR17-28" transform="translate(545.050893 0) scale(0.996264)"/>
      <use xlink:href="#CMR17-6d" transform="translate(580.33166 0) scale(0.996264)"/>
      <use xlink:href="#CMR17-29" transform="translate(657.25125 0) scale(0.996264)"/>
     </g>
    </g>
   </g>
   <g id="line2d_20">
    <path d="M 92.290909 241.586521 
L 92.871479 243.766816 
L 93.452048 244.715755 
L 94.032618 244.441884 
L 94.613188 242.992227 
L 95.193757 240.448546 
L 95.774327 236.922315 
L 96.935466 227.480017 
L 98.677175 209.739835 
L 100.999454 185.921631 
L 102.160593 176.114231 
L 103.321732 168.49057 
L 103.902302 165.593555 
L 104.482872 163.3355 
L 105.063441 161.729092 
L 105.644011 160.782515 
L 106.224581 160.501144 
L 106.80515 160.888491 
L 107.38572 161.946323 
L 107.96629 163.673917 
L 108.546859 166.066542 
L 109.127429 169.113277 
L 110.288568 177.078452 
L 111.449707 187.255423 
L 113.191416 205.320913 
L 114.933125 223.795624 
L 116.094265 234.23894 
L 116.674834 238.39801 
L 117.255404 241.645275 
L 117.835973 243.852144 
L 118.416543 244.91703 
L 118.997113 244.770996 
L 119.577682 243.382227 
L 120.158252 240.759055 
L 120.738822 236.951312 
L 121.319391 232.049875 
L 122.480531 219.519147 
L 124.22224 196.760409 
L 125.963948 174.634282 
L 127.125088 163.112295 
L 127.705657 158.824309 
L 128.286227 155.664075 
L 128.866797 153.691885 
L 129.447366 152.927776 
L 130.027936 153.352726 
L 130.608506 154.911478 
L 131.189075 157.516771 
L 131.769645 161.054692 
L 132.930784 170.376666 
L 134.672493 187.674017 
L 136.994772 210.85682 
L 138.155911 220.514671 
L 139.31705 228.158609 
L 139.89762 231.127159 
L 140.47819 233.490707 
L 141.058759 235.228307 
L 141.639329 236.32174 
L 142.219899 236.754512 
L 142.800468 236.511661 
L 143.381038 235.580432 
L 143.961607 233.951762 
L 144.542177 231.622477 
L 145.122747 228.59802 
L 146.283886 220.546576 
L 147.445025 210.126145 
L 149.186734 191.536745 
L 150.928443 172.618124 
L 152.089583 162.062143 
L 152.670152 157.920195 
L 153.250722 154.740498 
L 153.831291 152.648779 
L 154.411861 151.740714 
L 154.992431 152.076641 
L 155.573 153.677606 
L 156.15357 156.522999 
L 156.73414 160.549969 
L 157.895279 171.695467 
L 159.056418 185.859448 
L 161.959266 223.150804 
L 163.120406 234.271601 
L 163.700975 238.341329 
L 164.281545 241.288728 
L 164.862115 243.065989 
L 165.442684 243.664282 
L 166.023254 243.111864 
L 166.603824 241.470691 
L 167.184393 238.831787 
L 167.764963 235.309684 
L 168.926102 226.154574 
L 170.667811 209.328493 
L 172.99009 186.725915 
L 174.151229 177.164281 
L 175.312368 169.446692 
L 176.473508 163.897865 
L 177.054077 162.017756 
L 177.634647 160.772959 
L 178.215217 160.191381 
L 178.795786 160.299262 
L 179.376356 161.119729 
L 179.956925 162.670597 
L 180.537495 164.961567 
L 181.118065 167.991041 
L 182.279204 176.182995 
L 183.440343 186.889108 
L 185.182052 206.020975 
L 186.923761 225.341309 
L 188.084901 235.958531 
L 188.66547 240.055268 
L 189.24604 243.14013 
L 189.826609 245.092029 
L 190.407179 245.822799 
L 190.987749 245.282034 
L 191.568318 243.460432 
L 192.148888 240.391433 
L 192.729458 236.150998 
L 193.890597 224.657994 
L 195.632306 202.605344 
L 197.374015 180.059714 
L 198.535154 167.653192 
L 199.115724 162.762521 
L 199.696293 158.907568 
L 200.276863 156.162588 
L 200.857433 154.563591 
L 201.438002 154.109287 
L 202.018572 154.763606 
L 202.599142 156.459558 
L 203.179711 159.104153 
L 203.760281 162.584054 
L 204.92142 171.530777 
L 206.663129 187.868839 
L 208.985408 209.959264 
L 210.146547 219.479489 
L 211.307686 227.321443 
L 212.468826 233.120582 
L 213.049395 235.150623 
L 213.629965 236.547177 
L 214.210535 237.270889 
L 214.791104 237.284679 
L 215.371674 236.555912 
L 215.952243 235.059266 
L 216.532813 232.780049 
L 217.113383 229.717745 
L 218.274522 221.333133 
L 219.435661 210.304823 
L 221.17737 190.623909 
L 222.919079 170.954041 
L 224.080218 160.329629 
L 224.660788 156.305955 
L 225.241358 153.341919 
L 225.821927 151.552284 
L 226.402497 151.016245 
L 226.983067 151.773144 
L 227.563636 153.8198 
L 228.144206 157.109657 
L 228.724776 161.553813 
L 229.885915 173.356786 
L 231.627624 195.515833 
L 233.369333 217.714445 
L 234.530472 229.724238 
L 235.111042 234.400977 
L 235.691611 238.048691 
L 236.272181 240.605374 
L 236.852751 242.045896 
L 237.43332 242.380373 
L 238.01389 241.651115 
L 238.59446 239.928392 
L 239.175029 237.305336 
L 239.755599 233.892325 
L 240.916738 225.189588 
L 242.658447 209.344254 
L 244.980726 187.686522 
L 246.141865 178.152625 
L 247.303004 170.139368 
L 248.464144 164.063191 
L 249.044713 161.879844 
L 249.625283 160.335271 
L 250.205853 159.480025 
L 250.786422 159.361345 
L 251.366992 160.020275 
L 251.947561 161.488223 
L 252.528131 163.783208 
L 253.108701 166.906063 
L 253.68927 170.836913 
L 254.85041 180.922819 
L 256.011549 193.379826 
L 258.914397 227.095525 
L 260.075536 237.671619 
L 260.656106 241.595221 
L 261.236676 244.414279 
L 261.817245 246.021925 
L 262.397815 246.349214 
L 262.978385 245.368783 
L 263.558954 243.096776 
L 264.139524 239.59289 
L 264.720094 234.958525 
L 265.881233 222.88879 
L 267.622942 200.706037 
L 269.364651 178.916997 
L 270.52579 167.316099 
L 271.10636 162.848724 
L 271.686929 159.396832 
L 272.267499 157.010924 
L 272.848069 155.706401 
L 273.428638 155.465781 
L 274.009208 156.242209 
L 274.589778 157.963941 
L 275.170347 160.539506 
L 276.331487 167.820424 
L 277.492626 177.16351 
L 282.717753 222.88374 
L 283.878892 230.244281 
L 284.459462 233.168089 
L 285.040031 235.503982 
L 285.620601 237.188792 
L 286.201171 238.161268 
L 286.78174 238.364945 
L 287.36231 237.751664 
L 287.942879 236.285505 
L 288.523449 233.946879 
L 289.104019 230.736454 
L 289.684588 226.67861 
L 290.845728 216.251728 
L 292.006867 203.40909 
L 294.909715 169.139968 
L 296.070854 158.667949 
L 296.651424 154.869995 
L 297.231994 152.217701 
L 297.812563 150.808623 
L 298.393133 150.700379 
L 298.973703 151.907682 
L 299.554272 154.401208 
L 300.134842 158.108365 
L 300.715412 162.91595 
L 301.876551 175.204503 
L 305.940538 224.654367 
L 307.101678 234.108671 
L 307.682247 237.379792 
L 308.262817 239.615456 
L 308.843387 240.808656 
L 309.423956 240.982626 
L 310.004526 240.186998 
L 310.585096 238.493169 
L 311.165665 235.9892 
L 312.326805 228.955321 
L 313.487944 219.932386 
L 315.810222 199.121264 
L 318.132501 178.956281 
L 319.29364 170.479753 
L 320.45478 163.799519 
L 321.035349 161.31595 
L 321.615919 159.502563 
L 322.196488 158.43055 
L 322.777058 158.164448 
L 323.357628 158.758066 
L 323.938197 160.250138 
L 324.518767 162.66002 
L 325.099337 165.983742 
L 325.679906 170.190739 
L 326.841046 180.986742 
L 328.002185 194.216143 
L 330.905033 228.937827 
L 332.066172 239.250977 
L 332.646742 242.89969 
L 333.227312 245.366276 
L 333.807881 246.563715 
L 334.388451 246.446569 
L 334.969021 245.013185 
L 335.54959 242.306019 
L 336.13016 238.410048 
L 337.291299 227.581992 
L 338.452439 213.889789 
L 341.355287 178.190606 
L 342.516426 167.411421 
L 343.096996 163.333204 
L 343.677565 160.224506 
L 344.258135 158.115992 
L 344.838705 157.007785 
L 345.419274 156.872612 
L 345.999844 157.659879 
L 346.580414 159.300331 
L 347.160983 161.710972 
L 348.322123 168.470882 
L 349.483262 177.173874 
L 351.224971 192.288722 
L 354.127819 217.898996 
L 355.288958 226.655223 
L 356.450098 233.646482 
L 357.030667 236.268845 
L 357.611237 238.195523 
L 358.191806 239.34638 
L 358.772376 239.650147 
L 359.352946 239.048982 
L 359.933515 237.503105 
L 360.514085 234.995214 
L 361.094655 231.534324 
L 361.675224 227.158749 
L 362.836364 215.972812 
L 364.578073 195.062185 
L 366.319782 173.597332 
L 367.480921 161.776645 
L 368.06149 157.200086 
L 368.64206 153.721707 
L 369.22263 151.456524 
L 369.803199 150.48 
L 370.383769 150.824795 
L 370.964339 152.479353 
L 371.544908 155.388402 
L 372.125478 159.455344 
L 373.286617 170.496267 
L 375.028326 191.524542 
L 376.770035 212.885112 
L 377.931174 224.753287 
L 379.092314 233.450092 
L 379.672883 236.417614 
L 380.253453 238.424126 
L 380.834023 239.474752 
L 381.414592 239.599017 
L 381.995162 238.846659 
L 382.575732 237.283066 
L 383.156301 234.98464 
L 384.31744 228.51817 
L 385.47858 220.126739 
L 387.220289 205.324446 
L 390.703707 174.76579 
L 391.864846 166.493549 
L 393.025985 160.364134 
L 393.606555 158.342739 
L 394.187124 157.136285 
L 394.767694 156.821256 
L 395.348264 157.457813 
L 395.928833 159.084963 
L 396.509403 161.716168 
L 397.089973 165.335712 
L 398.251112 175.316977 
L 399.412251 188.256142 
L 402.895669 230.739776 
L 404.056808 240.580546 
L 404.637378 243.870458 
L 405.217948 245.922138 
L 405.798517 246.672463 
L 406.379087 246.101897 
L 406.959657 244.235082 
L 407.540226 241.139527 
L 408.120796 236.922457 
L 409.281935 225.721067 
L 411.023644 204.838033 
L 412.765353 183.979097 
L 413.926492 172.507424 
L 415.087632 164.144055 
L 415.668201 161.294035 
L 416.248771 159.362872 
L 416.829341 158.341934 
L 417.40991 158.201264 
L 417.99048 158.893755 
L 418.57105 160.359511 
L 419.151619 162.530089 
L 419.732189 165.332326 
L 420.893328 172.533859 
L 422.054467 181.384559 
L 423.796176 196.575891 
L 426.699025 222.423406 
L 427.860164 231.012406 
L 429.021303 237.389459 
L 429.601873 239.484108 
L 430.182442 240.720869 
L 430.763012 241.019687 
L 431.343582 240.319872 
L 431.924151 238.585003 
L 432.504721 235.807184 
L 433.085291 232.010351 
L 434.24643 221.625456 
L 435.407569 208.299336 
L 438.310417 171.719914 
L 439.471557 160.283569 
L 440.052126 156.032648 
L 440.632696 152.945985 
L 441.213266 151.116054 
L 441.793835 150.593101 
L 442.374405 151.383464 
L 442.954975 153.449802 
L 443.535544 156.713198 
L 444.116114 161.05701 
L 445.277253 172.3642 
L 447.018962 193.026852 
L 448.760671 213.353814 
L 449.92181 224.443377 
L 451.08295 232.512073 
L 451.663519 235.270177 
L 452.244089 237.153564 
L 452.824659 238.172576 
L 453.405228 238.355795 
L 453.985798 237.745993 
L 454.566368 236.396087 
L 455.146937 234.365394 
L 455.727507 231.716428 
L 456.888646 224.815818 
L 458.049785 216.186719 
L 459.791494 201.049516 
L 462.694343 174.586756 
L 463.855482 165.688168 
L 465.016621 159.096621 
L 465.597191 156.9526 
L 466.17776 155.712314 
L 466.75833 155.457648 
L 467.3389 156.248002 
L 467.919469 158.115433 
L 468.500039 161.060651 
L 469.080609 165.050142 
L 470.241748 175.849554 
L 471.402887 189.545401 
L 474.305735 226.334974 
L 475.466875 237.504871 
L 476.047444 241.5655 
L 476.628014 244.437802 
L 477.208584 246.041773 
L 477.789153 246.340316 
L 478.369723 245.340096 
L 478.950293 243.090507 
L 479.530862 239.680818 
L 480.111432 235.235689 
L 481.272571 223.87844 
L 485.336559 178.038124 
L 486.497698 168.695468 
L 487.078268 165.181411 
L 487.658837 162.488291 
L 488.239407 160.62479 
L 488.819977 159.580678 
L 489.400546 159.330509 
L 489.981116 159.837436 
L 490.561686 161.05683 
L 491.142255 162.939458 
L 491.722825 165.433983 
L 492.883964 172.052186 
L 494.045103 180.501283 
L 495.786812 195.665652 
L 498.109091 217.631633 
L 498.109091 217.631633 
" clip-path="url(#p5f86f4f8f8)" style="fill: none; stroke: #0000ff; stroke-linecap: square"/>
   </g>
   <g id="line2d_21">
    <path d="M 92.290909 241.586521 
L 94.032618 250.047903 
L 94.613188 251.28 
L 95.193757 250.698732 
L 95.774327 247.692589 
L 96.354897 241.97591 
L 98.096606 219.812814 
L 99.257745 208.646014 
L 99.838314 204.398422 
L 100.418884 201.011044 
L 100.999454 198.469771 
L 101.580023 196.548051 
L 102.160593 194.169551 
L 102.741163 190.045493 
L 103.902302 175.673207 
L 104.482872 168.71539 
L 105.063441 164.077767 
L 105.644011 161.765939 
L 106.224581 161.40424 
L 106.80515 162.625386 
L 107.38572 165.095614 
L 108.546859 172.444975 
L 109.707998 179.966044 
L 110.869138 185.339152 
L 111.449707 188.87429 
L 112.610847 199.846114 
L 113.771986 210.500664 
L 115.513695 223.54579 
L 116.674834 234.105277 
L 117.255404 238.32296 
L 117.835973 240.714242 
L 118.416543 241.33062 
L 118.997113 240.433062 
L 119.577682 238.282669 
L 120.158252 235.141045 
L 121.319391 226.888121 
L 122.480531 216.737967 
L 124.22224 200.366927 
L 125.383379 192.767663 
L 127.125088 183.770616 
L 127.705657 181.275985 
L 128.286227 179.295034 
L 128.866797 177.81096 
L 129.447366 176.765399 
L 130.027936 176.140327 
L 130.608506 176.079095 
L 131.189075 176.765399 
L 131.769645 178.27579 
L 133.511354 183.904602 
L 135.833632 189.600936 
L 136.414202 192.513732 
L 136.994772 196.834204 
L 139.31705 217.240467 
L 140.47819 224.912108 
L 141.639329 230.953734 
L 142.800468 235.697015 
L 143.381038 236.94849 
L 143.961607 237.004869 
L 144.542177 235.592873 
L 145.122747 232.454036 
L 145.703316 227.410659 
L 146.283886 220.608117 
L 147.445025 202.772122 
L 148.606165 184.163663 
L 149.186734 177.015132 
L 149.767304 171.690616 
L 150.347874 168.086231 
L 150.928443 166.071273 
L 151.509013 165.407771 
L 152.089583 165.830938 
L 152.670152 167.049267 
L 153.831291 170.251183 
L 154.992431 172.981438 
L 155.573 175.119906 
L 156.73414 182.11586 
L 157.895279 188.689878 
L 159.636988 195.362173 
L 160.798127 200.389512 
L 161.959266 207.233989 
L 163.120406 216.799967 
L 164.281545 226.381845 
L 164.862115 229.396195 
L 165.442684 231.117475 
L 166.023254 231.828103 
L 166.603824 231.776725 
L 167.184393 231.076882 
L 167.764963 229.808342 
L 168.345533 228.036391 
L 168.926102 225.768409 
L 170.087242 219.706652 
L 171.248381 211.343332 
L 174.151229 186.219294 
L 175.312368 179.246544 
L 175.892938 176.726925 
L 176.473508 174.989795 
L 177.054077 174.171328 
L 177.634647 174.373714 
L 178.215217 175.563197 
L 178.795786 177.672033 
L 181.698634 191.688078 
L 182.279204 194.330227 
L 183.440343 200.772134 
L 184.020913 203.144906 
L 184.601483 204.16423 
L 185.182052 204.558064 
L 185.762622 205.364708 
L 186.343192 207.330077 
L 188.084901 214.960989 
L 189.24604 218.948089 
L 190.407179 223.438327 
L 190.987749 224.391121 
L 191.568318 223.660348 
L 192.729458 220.141878 
L 193.310027 219.049778 
L 193.890597 218.336848 
L 194.471167 217.441334 
L 195.051736 215.862461 
L 195.632306 213.343365 
L 196.212876 209.68816 
L 197.374015 199.163393 
L 199.115724 182.23141 
L 200.276863 173.398651 
L 200.857433 170.744515 
L 201.438002 170.231825 
L 202.018572 172.229811 
L 203.179711 178.73999 
L 203.760281 180.607736 
L 204.340851 181.829447 
L 204.92142 183.489334 
L 205.50199 186.381754 
L 208.404838 205.555069 
L 209.565977 214.783277 
L 210.146547 218.480253 
L 210.727117 220.662011 
L 211.307686 221.579038 
L 211.888256 221.700257 
L 212.468826 221.439001 
L 214.210535 220.00164 
L 214.791104 219.462916 
L 215.371674 218.719011 
L 216.532813 216.476986 
L 218.274522 212.947676 
L 218.855092 211.17233 
L 220.596801 203.544987 
L 221.75794 200.425238 
L 222.33851 198.240692 
L 224.660788 185.196658 
L 225.821927 181.701877 
L 226.983067 176.796437 
L 227.563636 176.416942 
L 228.144206 178.901517 
L 229.305345 186.999718 
L 229.885915 189.572693 
L 230.466485 191.545623 
L 231.047054 194.239887 
L 232.208194 203.610542 
L 232.788763 208.162046 
L 233.369333 211.320708 
L 234.530472 216.783137 
L 235.691611 225.205993 
L 236.272181 228.185434 
L 236.852751 228.822488 
L 237.43332 227.752076 
L 239.175029 222.549866 
L 239.755599 219.777289 
L 240.336169 215.647579 
L 243.239017 190.135834 
L 243.819586 186.879508 
L 244.400156 184.721883 
L 244.980726 183.682921 
L 245.561295 183.714817 
L 246.141865 184.498676 
L 247.303004 186.737576 
L 247.883574 187.190999 
L 248.464144 186.393145 
L 249.044713 184.060277 
L 249.625283 181.233532 
L 250.205853 179.285261 
L 250.786422 179.191497 
L 253.108701 183.851162 
L 253.68927 186.193104 
L 255.430979 199.247347 
L 256.011549 201.730287 
L 256.592119 203.466082 
L 257.172688 205.822865 
L 258.914397 218.235043 
L 259.494967 220.540832 
L 260.075536 221.490463 
L 260.656106 221.67788 
L 261.236676 221.69703 
L 261.817245 221.917708 
L 262.397815 221.813115 
L 262.978385 220.6323 
L 263.558954 217.891009 
L 265.300663 206.960996 
L 266.461803 200.147528 
L 268.203512 187.686954 
L 268.784081 185.387038 
L 269.364651 184.126396 
L 270.52579 182.533781 
L 271.10636 181.903226 
L 271.686929 181.714783 
L 272.848069 182.608876 
L 273.428638 182.618191 
L 274.589778 181.095402 
L 275.170347 181.627669 
L 275.750917 184.188267 
L 276.912056 191.519984 
L 277.492626 194.053546 
L 279.814904 201.37893 
L 282.137183 210.014032 
L 283.298322 215.395517 
L 283.878892 217.444561 
L 284.459462 218.452988 
L 285.040031 218.477485 
L 285.620601 217.696224 
L 286.201171 216.285896 
L 287.36231 212.259645 
L 288.523449 207.941857 
L 289.104019 206.377815 
L 289.684588 205.374652 
L 290.265158 203.998573 
L 290.845728 201.067068 
L 291.426297 195.876138 
L 292.587437 184.034605 
L 293.168006 180.331603 
L 293.748576 178.068026 
L 294.909715 174.656476 
L 295.490285 173.833651 
L 296.070854 175.100547 
L 296.651424 179.162105 
L 297.812563 189.845453 
L 298.393133 193.296515 
L 299.554272 198.314901 
L 301.876551 211.988758 
L 302.457121 213.550086 
L 304.198829 216.703408 
L 304.779399 217.560713 
L 305.359969 218.17903 
L 305.940538 218.304708 
L 306.521108 217.647828 
L 308.262817 212.833955 
L 308.843387 212.458563 
L 309.423956 212.873503 
L 310.585096 214.33053 
L 311.165665 214.47908 
L 311.746235 213.630889 
L 312.326805 211.48376 
L 313.487944 204.742002 
L 315.229653 193.034351 
L 317.551931 175.097321 
L 318.132501 172.395692 
L 318.713071 171.200976 
L 319.29364 171.690183 
L 319.87421 173.852715 
L 321.035349 179.966044 
L 321.615919 182.250264 
L 323.357628 187.483442 
L 324.518767 192.387901 
L 325.099337 195.538372 
L 325.679906 199.382715 
L 326.841046 209.844527 
L 327.421615 215.46621 
L 328.002185 219.790195 
L 328.582755 221.879475 
L 329.163324 221.967581 
L 329.743894 220.580676 
L 332.066172 211.365733 
L 332.646742 209.661029 
L 333.227312 207.290903 
L 334.969021 197.443758 
L 335.54959 196.572457 
L 336.13016 196.892445 
L 336.71073 197.401814 
L 337.291299 197.330182 
L 339.033008 195.863639 
L 339.613578 194.671065 
L 340.194147 191.613551 
L 341.935856 174.581088 
L 342.516426 172.218277 
L 343.096996 172.20269 
L 343.677565 173.574433 
L 344.838705 177.799655 
L 347.160983 187.509499 
L 348.322123 190.50975 
L 348.902692 192.96221 
L 349.483262 196.89601 
L 351.224971 211.275799 
L 351.80554 214.898961 
L 352.38611 217.492958 
L 352.96668 218.930316 
L 353.547249 219.30753 
L 354.127819 218.777087 
L 354.708389 217.523558 
L 357.030667 210.753993 
L 357.611237 208.278198 
L 358.772376 200.700971 
L 359.933515 192.713275 
L 360.514085 189.597523 
L 361.094655 187.39012 
L 361.675224 186.294497 
L 362.255794 186.410667 
L 362.836364 187.812785 
L 363.997503 193.062258 
L 364.578073 194.707723 
L 365.158642 194.452306 
L 365.739212 192.899882 
L 366.319782 191.016657 
L 366.900351 189.606267 
L 367.480921 188.822078 
L 368.06149 188.654891 
L 368.64206 189.096289 
L 369.22263 190.141004 
L 369.803199 191.784553 
L 370.964339 195.703128 
L 371.544908 196.391933 
L 372.125478 195.456147 
L 372.706048 193.908312 
L 373.286617 193.136438 
L 373.867187 194.19853 
L 374.447757 196.832569 
L 377.350605 214.718205 
L 377.931174 216.875165 
L 378.511744 217.983858 
L 379.092314 217.738168 
L 379.672883 216.097609 
L 380.253453 214.084202 
L 380.834023 212.985598 
L 381.414592 213.565853 
L 381.995162 214.494641 
L 382.575732 213.918044 
L 383.156301 210.544808 
L 384.89801 195.133906 
L 387.220289 178.351359 
L 387.800858 175.587742 
L 388.381428 174.833626 
L 388.961998 175.381093 
L 389.542567 176.18141 
L 390.123137 176.565975 
L 390.703707 177.386718 
L 391.284276 179.875703 
L 391.864846 184.775022 
L 393.025985 196.443556 
L 393.606555 200.120126 
L 394.187124 201.80315 
L 394.767694 201.722039 
L 395.348264 200.231321 
L 395.928833 198.185992 
L 396.509403 196.566162 
L 397.089973 196.125748 
L 397.670542 196.713891 
L 398.251112 197.953538 
L 398.831682 199.578939 
L 399.412251 201.76957 
L 399.992821 204.816211 
L 401.15396 212.657063 
L 401.73453 215.30542 
L 402.315099 215.911754 
L 403.476239 214.65045 
L 404.637378 215.082051 
L 405.217948 214.311672 
L 405.798517 211.780574 
L 406.959657 205.006571 
L 407.540226 202.813787 
L 408.701366 199.928129 
L 409.281935 198.009544 
L 409.862505 195.500675 
L 411.023644 188.902158 
L 412.184783 182.201978 
L 412.765353 179.897749 
L 413.345923 178.357231 
L 413.926492 177.41069 
L 414.507062 176.973546 
L 415.087632 177.301839 
L 415.668201 178.736764 
L 416.248771 181.47198 
L 419.732189 202.995248 
L 420.312758 205.352667 
L 420.893328 206.829519 
L 421.473898 207.297472 
L 422.635037 207.006974 
L 423.215607 207.23874 
L 423.796176 207.849628 
L 424.957316 209.682672 
L 426.118455 211.524013 
L 426.699025 212.128701 
L 427.279594 212.185681 
L 427.860164 211.37237 
L 428.440734 209.524095 
L 429.601873 204.748455 
L 430.763012 201.403368 
L 431.343582 199.884669 
L 431.924151 198.005161 
L 433.66586 190.971486 
L 434.24643 189.853592 
L 434.827 189.588187 
L 435.407569 189.9487 
L 435.988139 190.640927 
L 436.568709 191.100147 
L 437.149278 190.694011 
L 437.729848 189.066419 
L 438.310417 186.96628 
L 438.890987 185.418755 
L 439.471557 185.19219 
L 440.052126 186.027674 
L 441.213266 188.998933 
L 441.793835 191.165591 
L 442.374405 194.456059 
L 444.116114 207.610322 
L 444.696684 209.100709 
L 445.277253 209.337485 
L 445.857823 209.707518 
L 446.438393 211.168525 
L 447.018962 212.9616 
L 447.599532 213.898685 
L 448.180101 213.166916 
L 449.341241 209.823671 
L 449.92181 209.06743 
L 451.08295 208.739582 
L 451.663519 208.195089 
L 452.824659 206.890822 
L 453.405228 206.646853 
L 453.985798 206.126394 
L 454.566368 204.535509 
L 456.308076 194.904537 
L 456.888646 193.721489 
L 458.049785 193.42682 
L 458.630355 192.510926 
L 459.210925 191.253493 
L 459.791494 190.371365 
L 460.372064 190.341617 
L 460.952634 190.682233 
L 461.533203 190.671426 
L 462.694343 188.851385 
L 463.274912 188.545191 
L 463.855482 189.588165 
L 464.436052 191.695797 
L 466.17776 199.945173 
L 468.500039 212.062832 
L 469.661178 217.996817 
L 470.241748 220.05799 
L 470.822318 221.125113 
L 471.402887 221.482882 
L 472.564027 221.516701 
L 473.144596 220.618889 
L 473.725166 217.864 
L 475.466875 202.228593 
L 476.047444 200.301 
L 476.628014 200.159999 
L 477.208584 200.283039 
L 477.789153 199.494541 
L 480.111432 193.3187 
L 480.692002 190.774672 
L 481.853141 183.278003 
L 482.43371 181.004962 
L 483.01428 181.294746 
L 483.59485 183.422913 
L 484.755989 188.500021 
L 485.336559 189.454741 
L 485.917128 189.671288 
L 486.497698 190.09389 
L 487.078268 191.385637 
L 488.239407 194.449606 
L 489.400546 195.538693 
L 489.981116 196.988827 
L 490.561686 200.060746 
L 492.303394 211.656928 
L 494.045103 219.756153 
L 494.625673 221.992048 
L 495.206243 223.34575 
L 495.786812 223.487738 
L 496.367382 222.783257 
L 498.109091 219.632895 
L 498.109091 219.632895 
" clip-path="url(#p5f86f4f8f8)" style="fill: none; stroke-dasharray: 3.7,1.6; stroke-dashoffset: 0; stroke: #00008b"/>
   </g>
   <g id="patch_9">
    <path d="M 72 256.32 
L 72 145.44 
" style="fill: none; stroke: #000000; stroke-width: 0.8; stroke-linejoin: miter; stroke-linecap: square"/>
   </g>
   <g id="patch_10">
    <path d="M 518.4 256.32 
L 518.4 145.44 
" style="fill: none; stroke: #000000; stroke-width: 0.8; stroke-linejoin: miter; stroke-linecap: square"/>
   </g>
   <g id="patch_11">
    <path d="M 72 256.32 
L 518.4 256.32 
" style="fill: none; stroke: #000000; stroke-width: 0.8; stroke-linejoin: miter; stroke-linecap: square"/>
   </g>
   <g id="patch_12">
    <path d="M 72 145.44 
L 518.4 145.44 
" style="fill: none; stroke: #000000; stroke-width: 0.8; stroke-linejoin: miter; stroke-linecap: square"/>
   </g>
   <g id="legend_2">
    <g id="patch_13">
     <path d="M 403.061945 192.076624 
L 509.3 192.076624 
Q 511.9 192.076624 511.9 189.476624 
L 511.9 154.54 
Q 511.9 151.94 509.3 151.94 
L 403.061945 151.94 
Q 400.461945 151.94 400.461945 154.54 
L 400.461945 189.476624 
Q 400.461945 192.076624 403.061945 192.076624 
z
" style="fill: #ffffff; opacity: 0.8; stroke: #cccccc; stroke-linejoin: miter"/>
    </g>
    <g id="line2d_22">
     <path d="M 405.661945 161.69 
L 418.661945 161.69 
L 431.661945 161.69 
" style="fill: none; stroke: #0000ff; stroke-linecap: square"/>
    </g>
    <g id="text_21">
     <!-- MCMC -->
     <g transform="translate(442.061945 166.24) scale(0.13 -0.13)">
      <use xlink:href="#CMR17-4d" transform="scale(0.996264)"/>
      <use xlink:href="#CMR17-43" transform="translate(84.686941 0) scale(0.996264)"/>
      <use xlink:href="#CMR17-4d" transform="translate(151.196821 0) scale(0.996264)"/>
      <use xlink:href="#CMR17-43" transform="translate(235.883762 0) scale(0.996264)"/>
     </g>
    </g>
    <g id="line2d_23">
     <path d="M 405.661945 179.808312 
L 418.661945 179.808312 
L 431.661945 179.808312 
" style="fill: none; stroke-dasharray: 3.7,1.6; stroke-dashoffset: 0; stroke: #00008b"/>
    </g>
    <g id="text_22">
     <!-- Experiment -->
     <g transform="translate(442.061945 184.358312) scale(0.13 -0.13)">
      <use xlink:href="#CMR17-45" transform="scale(0.996264)"/>
      <use xlink:href="#CMR17-78" transform="translate(62.586301 0) scale(0.996264)"/>
      <use xlink:href="#CMR17-70" transform="translate(110.879216 0) scale(0.996264)"/>
      <use xlink:href="#CMR17-65" transform="translate(164.377025 0) scale(0.996264)"/>
      <use xlink:href="#CMR17-72" transform="translate(204.862685 0) scale(0.996264)"/>
      <use xlink:href="#CMR17-69" transform="translate(240.143453 0) scale(0.996264)"/>
      <use xlink:href="#CMR17-6d" transform="translate(265.014512 0) scale(0.996264)"/>
      <use xlink:href="#CMR17-65" transform="translate(341.934101 0) scale(0.996264)"/>
      <use xlink:href="#CMR17-6e" transform="translate(382.419762 0) scale(0.996264)"/>
      <use xlink:href="#CMR17-74" transform="translate(430.712678 0) scale(0.996264)"/>
     </g>
    </g>
   </g>
  </g>
 </g>
 <defs>
  <clipPath id="p6d29217e1e">
   <rect x="72" y="34.56" width="446.4" height="110.88"/>
  </clipPath>
  <clipPath id="p5f86f4f8f8">
   <rect x="72" y="145.44" width="446.4" height="110.88"/>
  </clipPath>
 </defs>
</svg>
